G04 #@! TF.FileFunction,Paste,Top*
%FSLAX46Y46*%
G04 Gerber Fmt 4.6, Leading zero omitted, Abs format (unit mm)*
G04 Created by KiCad (PCBNEW no-vcs-found-undefined) date Tue Nov  8 14:46:45 2016*
%MOMM*%
%LPD*%
G01*
G04 APERTURE LIST*
%ADD10C,0.600000*%
%ADD11C,0.150000*%
%ADD12R,0.996000X0.996000*%
%ADD13R,0.240000X1.290000*%
%ADD14R,2.280000X2.980000*%
%ADD15R,3.180000X2.980000*%
%ADD16R,0.480000X2.180000*%
G04 APERTURE END LIST*
D10*
D11*
X124500000Y-75100000D02*
X124500000Y-81100000D01*
X122000000Y-81100000D02*
X122000000Y-75100000D01*
X124500000Y-81100000D02*
X122000000Y-81100000D01*
X122000000Y-75100000D02*
X124500000Y-75100000D01*
X151500000Y-81100000D02*
X151500000Y-75100000D01*
X154000000Y-75100000D02*
X154000000Y-81100000D01*
X151500000Y-75100000D02*
X154000000Y-75100000D01*
X154000000Y-81100000D02*
X151500000Y-81100000D01*
X110500000Y-81100000D02*
X110500000Y-75100000D01*
X110500000Y-75100000D02*
X113000000Y-75100000D01*
X113000000Y-75100000D02*
X113000000Y-81100000D01*
X113000000Y-81100000D02*
X110500000Y-81100000D01*
X83500000Y-81000000D02*
X81000000Y-81000000D01*
X83500000Y-75000000D02*
X83500000Y-81000000D01*
X81000000Y-75000000D02*
X83500000Y-75000000D01*
X81000000Y-81000000D02*
X81000000Y-75000000D01*
X136000000Y-72500000D02*
X160000000Y-72500000D01*
X136000000Y-74500000D02*
X136000000Y-72500000D01*
X129500000Y-74500000D02*
X136000000Y-74500000D01*
X129500000Y-72500000D02*
X129500000Y-74500000D01*
X105500000Y-72500000D02*
X129500000Y-72500000D01*
X105500000Y-74500000D02*
X105500000Y-72500000D01*
X99000000Y-74500000D02*
X105500000Y-74500000D01*
X99000000Y-72500000D02*
X99000000Y-74500000D01*
X75000000Y-72500000D02*
X99000000Y-72500000D01*
X160000000Y-72500000D02*
X160000000Y-85000000D01*
X75000000Y-85000000D02*
X75000000Y-72500000D01*
X75000000Y-85000000D02*
X160000000Y-85000000D01*
D12*
X91139000Y-76500000D03*
X89361000Y-76500000D03*
X91139000Y-78750000D03*
X89361000Y-78750000D03*
D13*
X97500000Y-76250000D03*
X98000000Y-76250000D03*
X98500000Y-76250000D03*
X99000000Y-76250000D03*
X99500000Y-76250000D03*
X100000000Y-76250000D03*
D14*
X95750000Y-78500000D03*
X104750000Y-78500000D03*
D13*
X100500000Y-76250000D03*
X101000000Y-76250000D03*
X101500000Y-76250000D03*
X102000000Y-76250000D03*
X102500000Y-76250000D03*
X103000000Y-76250000D03*
D15*
X139650000Y-80500000D03*
X130350000Y-80500000D03*
D16*
X137000000Y-77500000D03*
X136000000Y-77500000D03*
X135000000Y-77500000D03*
X134000000Y-77500000D03*
X133000000Y-77500000D03*
M02*
