M48
;DRILL file {KiCad no-vcs-found-undefined} date Tue Nov  8 14:46:32 2016
;FORMAT={-:-/ absolute / metric / decimal}
FMAT,2
METRIC,TZ
T1C0.400
T2C2.800
%
G90
G05
M71
T1
X89.361Y-77.5
X91.Y-79.75
X93.Y-78.
X94.9Y-74.3
X95.7Y-74.3
X96.8Y-81.7
X97.6Y-81.7
X98.Y-74.5
X98.5Y-83.5
X99.5Y-84.081
X101.029Y-82.156
X102.Y-78.
X102.092Y-81.56
X103.75Y-75.
X106.Y-80.6
X106.8Y-80.6
X127.2Y-77.5
X128.Y-77.5
X128.8Y-77.5
X129.6Y-77.5
X133.6Y-75.25
X134.5Y-82.5
X135.089Y-75.355
X135.5Y-83.
X151.25Y-83.
X152.25Y-83.
X153.25Y-83.
T2
X77.Y-80.
X117.5Y-74.5
X158.Y-80.
T0
M30
