G04 #@! TF.FileFunction,Legend,Bot*
%FSLAX46Y46*%
G04 Gerber Fmt 4.6, Leading zero omitted, Abs format (unit mm)*
G04 Created by KiCad (PCBNEW no-vcs-found-undefined) date Tue Nov  8 14:46:45 2016*
%MOMM*%
%LPD*%
G01*
G04 APERTURE LIST*
%ADD10C,0.600000*%
%ADD11C,0.150000*%
%ADD12C,0.100000*%
%ADD13C,0.254000*%
G04 APERTURE END LIST*
D10*
D11*
X124500000Y-75100000D02*
X124500000Y-81100000D01*
X122000000Y-81100000D02*
X122000000Y-75100000D01*
X124500000Y-81100000D02*
X122000000Y-81100000D01*
X122000000Y-75100000D02*
X124500000Y-75100000D01*
X151500000Y-81100000D02*
X151500000Y-75100000D01*
X154000000Y-75100000D02*
X154000000Y-81100000D01*
X151500000Y-75100000D02*
X154000000Y-75100000D01*
X154000000Y-81100000D02*
X151500000Y-81100000D01*
X110500000Y-81100000D02*
X110500000Y-75100000D01*
X110500000Y-75100000D02*
X113000000Y-75100000D01*
X113000000Y-75100000D02*
X113000000Y-81100000D01*
X113000000Y-81100000D02*
X110500000Y-81100000D01*
X83500000Y-81000000D02*
X81000000Y-81000000D01*
X83500000Y-75000000D02*
X83500000Y-81000000D01*
X81000000Y-75000000D02*
X83500000Y-75000000D01*
X81000000Y-81000000D02*
X81000000Y-75000000D01*
X136000000Y-72500000D02*
X160000000Y-72500000D01*
X136000000Y-74500000D02*
X136000000Y-72500000D01*
X129500000Y-74500000D02*
X136000000Y-74500000D01*
X129500000Y-72500000D02*
X129500000Y-74500000D01*
X105500000Y-72500000D02*
X129500000Y-72500000D01*
X105500000Y-74500000D02*
X105500000Y-72500000D01*
X99000000Y-74500000D02*
X105500000Y-74500000D01*
X99000000Y-72500000D02*
X99000000Y-74500000D01*
X75000000Y-72500000D02*
X99000000Y-72500000D01*
X160000000Y-72500000D02*
X160000000Y-85000000D01*
X75000000Y-85000000D02*
X75000000Y-72500000D01*
X75000000Y-85000000D02*
X160000000Y-85000000D01*
D12*
X92750000Y-80500000D02*
X93500000Y-79750000D01*
X94000000Y-78000000D02*
X94000000Y-77000000D01*
X92750000Y-75500000D02*
X93500000Y-76250000D01*
X90250000Y-75500000D02*
X92750000Y-75500000D01*
X90250000Y-75500000D02*
X89500000Y-76250000D01*
X89000000Y-79000000D02*
X89000000Y-77000000D01*
X90250000Y-80500000D02*
X89500000Y-79750000D01*
X92750000Y-80500000D02*
X90250000Y-80500000D01*
X94000000Y-78000000D02*
X94000000Y-79000000D01*
X144750000Y-80500000D02*
X145500000Y-79750000D01*
X146000000Y-78000000D02*
X146000000Y-77000000D01*
X144750000Y-75500000D02*
X145500000Y-76250000D01*
X142250000Y-75500000D02*
X144750000Y-75500000D01*
X142250000Y-75500000D02*
X141500000Y-76250000D01*
X141000000Y-79000000D02*
X141000000Y-77000000D01*
X142250000Y-80500000D02*
X141500000Y-79750000D01*
X144750000Y-80500000D02*
X142250000Y-80500000D01*
X146000000Y-78000000D02*
X146000000Y-79000000D01*
D11*
D13*
X93578333Y-82264047D02*
X93396904Y-82324523D01*
X93094523Y-82324523D01*
X92973571Y-82264047D01*
X92913095Y-82203571D01*
X92852619Y-82082619D01*
X92852619Y-81961666D01*
X92913095Y-81840714D01*
X92973571Y-81780238D01*
X93094523Y-81719761D01*
X93336428Y-81659285D01*
X93457380Y-81598809D01*
X93517857Y-81538333D01*
X93578333Y-81417380D01*
X93578333Y-81296428D01*
X93517857Y-81175476D01*
X93457380Y-81115000D01*
X93336428Y-81054523D01*
X93034047Y-81054523D01*
X92852619Y-81115000D01*
X92429285Y-81054523D02*
X92126904Y-82324523D01*
X91885000Y-81417380D01*
X91643095Y-82324523D01*
X91340714Y-81054523D01*
X90131190Y-82324523D02*
X90554523Y-81719761D01*
X90856904Y-82324523D02*
X90856904Y-81054523D01*
X90373095Y-81054523D01*
X90252142Y-81115000D01*
X90191666Y-81175476D01*
X90131190Y-81296428D01*
X90131190Y-81477857D01*
X90191666Y-81598809D01*
X90252142Y-81659285D01*
X90373095Y-81719761D01*
X90856904Y-81719761D01*
X88921666Y-82324523D02*
X89647380Y-82324523D01*
X89284523Y-82324523D02*
X89284523Y-81054523D01*
X89405476Y-81235952D01*
X89526428Y-81356904D01*
X89647380Y-81417380D01*
X145707380Y-82264047D02*
X145525952Y-82324523D01*
X145223571Y-82324523D01*
X145102619Y-82264047D01*
X145042142Y-82203571D01*
X144981666Y-82082619D01*
X144981666Y-81961666D01*
X145042142Y-81840714D01*
X145102619Y-81780238D01*
X145223571Y-81719761D01*
X145465476Y-81659285D01*
X145586428Y-81598809D01*
X145646904Y-81538333D01*
X145707380Y-81417380D01*
X145707380Y-81296428D01*
X145646904Y-81175476D01*
X145586428Y-81115000D01*
X145465476Y-81054523D01*
X145163095Y-81054523D01*
X144981666Y-81115000D01*
X144558333Y-81054523D02*
X144255952Y-82324523D01*
X144014047Y-81417380D01*
X143772142Y-82324523D01*
X143469761Y-81054523D01*
X142381190Y-82324523D02*
X142985952Y-82324523D01*
X142985952Y-81054523D01*
X141292619Y-82324523D02*
X142018333Y-82324523D01*
X141655476Y-82324523D02*
X141655476Y-81054523D01*
X141776428Y-81235952D01*
X141897380Y-81356904D01*
X142018333Y-81417380D01*
M02*
