G04 #@! TF.FileFunction,Copper,L2,Bot,Signal*
%FSLAX46Y46*%
G04 Gerber Fmt 4.6, Leading zero omitted, Abs format (unit mm)*
G04 Created by KiCad (PCBNEW no-vcs-found-undefined) date Tue Nov  8 14:46:29 2016*
%MOMM*%
%LPD*%
G01*
G04 APERTURE LIST*
%ADD10C,0.600000*%
%ADD11C,0.550000*%
%ADD12C,5.080000*%
%ADD13C,6.000000*%
%ADD14C,1.000000*%
%ADD15R,1.524000X1.000000*%
%ADD16C,0.800000*%
%ADD17C,0.304800*%
%ADD18C,0.508000*%
%ADD19C,0.228600*%
%ADD20C,0.250000*%
%ADD21C,0.254000*%
G04 APERTURE END LIST*
D10*
D11*
X94900000Y-74300000D03*
X95700000Y-74300000D03*
X106000000Y-80600000D03*
X106800000Y-80600000D03*
X96800000Y-81700000D03*
X97600000Y-81700000D03*
X128800000Y-77500000D03*
X129600000Y-77500000D03*
X128000000Y-77500000D03*
D12*
X158000000Y-80000000D03*
D11*
X151250000Y-83000000D03*
X152250000Y-83000000D03*
D13*
X117500000Y-74500000D03*
X77000000Y-80000000D03*
D14*
X149000000Y-74500000D03*
X85500000Y-82500000D03*
D15*
X88500000Y-79750000D03*
X88500000Y-76250000D03*
X94500000Y-76250000D03*
X94500000Y-79750000D03*
X140500000Y-79750000D03*
X140500000Y-76250000D03*
X146500000Y-76250000D03*
X146500000Y-79750000D03*
D11*
X153250000Y-83000000D03*
X127200000Y-77500000D03*
D16*
X102091528Y-81559570D03*
X102000000Y-78000000D03*
X93000000Y-78000000D03*
X135088658Y-75355116D03*
X103750000Y-75000000D03*
X89361000Y-77500000D03*
X101028655Y-82156271D03*
X91000000Y-79750000D03*
X133600000Y-75250000D03*
X98000000Y-74500000D03*
X98500000Y-83500000D03*
X134500000Y-82500000D03*
X99500000Y-84080702D03*
X135500000Y-83000000D03*
D17*
X102657213Y-81559570D02*
X102091528Y-81559570D01*
X108451976Y-81559570D02*
X102657213Y-81559570D01*
X131625534Y-83233374D02*
X110125780Y-83233374D01*
X135108908Y-79750000D02*
X131625534Y-83233374D01*
X110125780Y-83233374D02*
X108451976Y-81559570D01*
D18*
X93000000Y-78000000D02*
X102000000Y-78000000D01*
X140500000Y-79750000D02*
X135108908Y-79750000D01*
X146500000Y-79750000D02*
X145230000Y-79750000D01*
X145230000Y-79750000D02*
X140500000Y-79750000D01*
D17*
X135983542Y-76250000D02*
X135488657Y-75755115D01*
X140500000Y-76250000D02*
X135983542Y-76250000D01*
X135488657Y-75755115D02*
X135088658Y-75355116D01*
D18*
X88500000Y-76250000D02*
X94500000Y-76250000D01*
X140500000Y-76250000D02*
X141770000Y-76250000D01*
X141770000Y-76250000D02*
X146500000Y-76250000D01*
D19*
X88500000Y-76250000D02*
X88500000Y-76639000D01*
X88500000Y-76639000D02*
X89361000Y-77500000D01*
D18*
X98622384Y-79750000D02*
X100628656Y-81756272D01*
X100628656Y-81756272D02*
X101028655Y-82156271D01*
X94500000Y-79750000D02*
X98622384Y-79750000D01*
X88500000Y-79750000D02*
X94500000Y-79750000D01*
D19*
X89490600Y-79750000D02*
X91000000Y-79750000D01*
X91000000Y-79750000D02*
X94500000Y-79750000D01*
X88500000Y-79750000D02*
X89490600Y-79750000D01*
D18*
X133200001Y-75649999D02*
X133600000Y-75250000D01*
X110376964Y-82626964D02*
X126223036Y-82626964D01*
X126223036Y-82626964D02*
X133200001Y-75649999D01*
X99354001Y-75854001D02*
X103604001Y-75854001D01*
X103604001Y-75854001D02*
X110376964Y-82626964D01*
X98000000Y-74500000D02*
X99354001Y-75854001D01*
D20*
X133289216Y-83710784D02*
X109928030Y-83710784D01*
X109317247Y-83100001D02*
X98899999Y-83100001D01*
X109928030Y-83710784D02*
X109317247Y-83100001D01*
X98899999Y-83100001D02*
X98500000Y-83500000D01*
X134500000Y-82500000D02*
X133289216Y-83710784D01*
X109661538Y-84080702D02*
X100065685Y-84080702D01*
X100065685Y-84080702D02*
X99500000Y-84080702D01*
X134339207Y-84160793D02*
X109741629Y-84160793D01*
X135500000Y-83000000D02*
X134339207Y-84160793D01*
X109741629Y-84160793D02*
X109661538Y-84080702D01*
D21*
G36*
X98290000Y-73499737D02*
X98206777Y-73465180D01*
X97795029Y-73464821D01*
X97414485Y-73622058D01*
X97123081Y-73912954D01*
X96965180Y-74293223D01*
X96964821Y-74704971D01*
X97122058Y-75085515D01*
X97412954Y-75376919D01*
X97766479Y-75523715D01*
X98725383Y-76482619D01*
X99013796Y-76675331D01*
X99354001Y-76743001D01*
X103235765Y-76743001D01*
X107264934Y-80772170D01*
X102767937Y-80772170D01*
X102678574Y-80682651D01*
X102298305Y-80524750D01*
X101886557Y-80524391D01*
X101506013Y-80681628D01*
X101214609Y-80972524D01*
X101181611Y-81051991D01*
X99251002Y-79121382D01*
X98962590Y-78928671D01*
X98763150Y-78889000D01*
X101442048Y-78889000D01*
X101793223Y-79034820D01*
X102204971Y-79035179D01*
X102585515Y-78877942D01*
X102876919Y-78587046D01*
X103034820Y-78206777D01*
X103035179Y-77795029D01*
X102877942Y-77414485D01*
X102587046Y-77123081D01*
X102206777Y-76965180D01*
X101795029Y-76964821D01*
X101441248Y-77111000D01*
X95799026Y-77111000D01*
X95800327Y-77109699D01*
X95897000Y-76876310D01*
X95897000Y-76658750D01*
X95738250Y-76500000D01*
X94881000Y-76500000D01*
X94881000Y-76750000D01*
X94119000Y-76750000D01*
X94119000Y-76500000D01*
X93261750Y-76500000D01*
X93103000Y-76658750D01*
X93103000Y-76876310D01*
X93139787Y-76965122D01*
X92795029Y-76964821D01*
X92414485Y-77122058D01*
X92123081Y-77412954D01*
X91965180Y-77793223D01*
X91964821Y-78204971D01*
X92122058Y-78585515D01*
X92397063Y-78861000D01*
X91557952Y-78861000D01*
X91206777Y-78715180D01*
X90795029Y-78714821D01*
X90441248Y-78861000D01*
X89765786Y-78861000D01*
X89719809Y-78792191D01*
X89509765Y-78651843D01*
X89262000Y-78602560D01*
X87738000Y-78602560D01*
X87490235Y-78651843D01*
X87280191Y-78792191D01*
X87139843Y-79002235D01*
X87090560Y-79250000D01*
X87090560Y-80250000D01*
X87139843Y-80497765D01*
X87280191Y-80707809D01*
X87490235Y-80848157D01*
X87738000Y-80897440D01*
X89262000Y-80897440D01*
X89509765Y-80848157D01*
X89719809Y-80707809D01*
X89765786Y-80639000D01*
X90442048Y-80639000D01*
X90793223Y-80784820D01*
X91204971Y-80785179D01*
X91558752Y-80639000D01*
X93234214Y-80639000D01*
X93280191Y-80707809D01*
X93490235Y-80848157D01*
X93738000Y-80897440D01*
X95262000Y-80897440D01*
X95509765Y-80848157D01*
X95719809Y-80707809D01*
X95765786Y-80639000D01*
X98254148Y-80639000D01*
X99955149Y-82340001D01*
X98899999Y-82340001D01*
X98609160Y-82397853D01*
X98508656Y-82465007D01*
X98295029Y-82464821D01*
X97914485Y-82622058D01*
X97623081Y-82912954D01*
X97465180Y-83293223D01*
X97464821Y-83704971D01*
X97622058Y-84085515D01*
X97826187Y-84290000D01*
X75710000Y-84290000D01*
X75710000Y-83407261D01*
X76636931Y-83688387D01*
X78076052Y-83546566D01*
X78746916Y-83268685D01*
X79123373Y-82841794D01*
X79106959Y-82825379D01*
X83856716Y-82825379D01*
X84106320Y-83429469D01*
X84568100Y-83892055D01*
X85171753Y-84142714D01*
X85825379Y-84143284D01*
X86429469Y-83893680D01*
X86892055Y-83431900D01*
X87142714Y-82828247D01*
X87143284Y-82174621D01*
X86893680Y-81570531D01*
X86431900Y-81107945D01*
X85828247Y-80857286D01*
X85174621Y-80856716D01*
X84570531Y-81106320D01*
X84107945Y-81568100D01*
X83857286Y-82171753D01*
X83856716Y-82825379D01*
X79106959Y-82825379D01*
X77000000Y-80718420D01*
X76985858Y-80732563D01*
X76267438Y-80014143D01*
X76281580Y-80000000D01*
X76267438Y-79985858D01*
X76985858Y-79267437D01*
X77000000Y-79281580D01*
X79123373Y-77158206D01*
X78787041Y-76776815D01*
X79549956Y-76777481D01*
X80290000Y-76471701D01*
X80290000Y-78304543D01*
X80268685Y-78253084D01*
X79841794Y-77876627D01*
X77718420Y-80000000D01*
X79841794Y-82123373D01*
X80268685Y-81746916D01*
X80391342Y-81342489D01*
X80497954Y-81502046D01*
X80728295Y-81655954D01*
X81000000Y-81710000D01*
X83500000Y-81710000D01*
X83771705Y-81655954D01*
X84002046Y-81502046D01*
X84155954Y-81271705D01*
X84210000Y-81000000D01*
X84210000Y-76658750D01*
X87103000Y-76658750D01*
X87103000Y-76876310D01*
X87199673Y-77109699D01*
X87378302Y-77288327D01*
X87611691Y-77385000D01*
X87960250Y-77385000D01*
X88119000Y-77226250D01*
X88119000Y-76500000D01*
X88881000Y-76500000D01*
X88881000Y-77226250D01*
X89039750Y-77385000D01*
X89388309Y-77385000D01*
X89621698Y-77288327D01*
X89800327Y-77109699D01*
X89897000Y-76876310D01*
X89897000Y-76658750D01*
X89738250Y-76500000D01*
X88881000Y-76500000D01*
X88119000Y-76500000D01*
X87261750Y-76500000D01*
X87103000Y-76658750D01*
X84210000Y-76658750D01*
X84210000Y-75623690D01*
X87103000Y-75623690D01*
X87103000Y-75841250D01*
X87261750Y-76000000D01*
X88119000Y-76000000D01*
X88119000Y-75273750D01*
X88881000Y-75273750D01*
X88881000Y-76000000D01*
X89738250Y-76000000D01*
X89897000Y-75841250D01*
X89897000Y-75623690D01*
X93103000Y-75623690D01*
X93103000Y-75841250D01*
X93261750Y-76000000D01*
X94119000Y-76000000D01*
X94119000Y-75273750D01*
X94881000Y-75273750D01*
X94881000Y-76000000D01*
X95738250Y-76000000D01*
X95897000Y-75841250D01*
X95897000Y-75623690D01*
X95800327Y-75390301D01*
X95621698Y-75211673D01*
X95388309Y-75115000D01*
X95039750Y-75115000D01*
X94881000Y-75273750D01*
X94119000Y-75273750D01*
X93960250Y-75115000D01*
X93611691Y-75115000D01*
X93378302Y-75211673D01*
X93199673Y-75390301D01*
X93103000Y-75623690D01*
X89897000Y-75623690D01*
X89800327Y-75390301D01*
X89621698Y-75211673D01*
X89388309Y-75115000D01*
X89039750Y-75115000D01*
X88881000Y-75273750D01*
X88119000Y-75273750D01*
X87960250Y-75115000D01*
X87611691Y-75115000D01*
X87378302Y-75211673D01*
X87199673Y-75390301D01*
X87103000Y-75623690D01*
X84210000Y-75623690D01*
X84210000Y-75000000D01*
X84155954Y-74728295D01*
X84002046Y-74497954D01*
X83771705Y-74344046D01*
X83500000Y-74290000D01*
X81776748Y-74290000D01*
X81777481Y-73450044D01*
X81678297Y-73210000D01*
X98290000Y-73210000D01*
X98290000Y-73499737D01*
X98290000Y-73499737D01*
G37*
X98290000Y-73499737D02*
X98206777Y-73465180D01*
X97795029Y-73464821D01*
X97414485Y-73622058D01*
X97123081Y-73912954D01*
X96965180Y-74293223D01*
X96964821Y-74704971D01*
X97122058Y-75085515D01*
X97412954Y-75376919D01*
X97766479Y-75523715D01*
X98725383Y-76482619D01*
X99013796Y-76675331D01*
X99354001Y-76743001D01*
X103235765Y-76743001D01*
X107264934Y-80772170D01*
X102767937Y-80772170D01*
X102678574Y-80682651D01*
X102298305Y-80524750D01*
X101886557Y-80524391D01*
X101506013Y-80681628D01*
X101214609Y-80972524D01*
X101181611Y-81051991D01*
X99251002Y-79121382D01*
X98962590Y-78928671D01*
X98763150Y-78889000D01*
X101442048Y-78889000D01*
X101793223Y-79034820D01*
X102204971Y-79035179D01*
X102585515Y-78877942D01*
X102876919Y-78587046D01*
X103034820Y-78206777D01*
X103035179Y-77795029D01*
X102877942Y-77414485D01*
X102587046Y-77123081D01*
X102206777Y-76965180D01*
X101795029Y-76964821D01*
X101441248Y-77111000D01*
X95799026Y-77111000D01*
X95800327Y-77109699D01*
X95897000Y-76876310D01*
X95897000Y-76658750D01*
X95738250Y-76500000D01*
X94881000Y-76500000D01*
X94881000Y-76750000D01*
X94119000Y-76750000D01*
X94119000Y-76500000D01*
X93261750Y-76500000D01*
X93103000Y-76658750D01*
X93103000Y-76876310D01*
X93139787Y-76965122D01*
X92795029Y-76964821D01*
X92414485Y-77122058D01*
X92123081Y-77412954D01*
X91965180Y-77793223D01*
X91964821Y-78204971D01*
X92122058Y-78585515D01*
X92397063Y-78861000D01*
X91557952Y-78861000D01*
X91206777Y-78715180D01*
X90795029Y-78714821D01*
X90441248Y-78861000D01*
X89765786Y-78861000D01*
X89719809Y-78792191D01*
X89509765Y-78651843D01*
X89262000Y-78602560D01*
X87738000Y-78602560D01*
X87490235Y-78651843D01*
X87280191Y-78792191D01*
X87139843Y-79002235D01*
X87090560Y-79250000D01*
X87090560Y-80250000D01*
X87139843Y-80497765D01*
X87280191Y-80707809D01*
X87490235Y-80848157D01*
X87738000Y-80897440D01*
X89262000Y-80897440D01*
X89509765Y-80848157D01*
X89719809Y-80707809D01*
X89765786Y-80639000D01*
X90442048Y-80639000D01*
X90793223Y-80784820D01*
X91204971Y-80785179D01*
X91558752Y-80639000D01*
X93234214Y-80639000D01*
X93280191Y-80707809D01*
X93490235Y-80848157D01*
X93738000Y-80897440D01*
X95262000Y-80897440D01*
X95509765Y-80848157D01*
X95719809Y-80707809D01*
X95765786Y-80639000D01*
X98254148Y-80639000D01*
X99955149Y-82340001D01*
X98899999Y-82340001D01*
X98609160Y-82397853D01*
X98508656Y-82465007D01*
X98295029Y-82464821D01*
X97914485Y-82622058D01*
X97623081Y-82912954D01*
X97465180Y-83293223D01*
X97464821Y-83704971D01*
X97622058Y-84085515D01*
X97826187Y-84290000D01*
X75710000Y-84290000D01*
X75710000Y-83407261D01*
X76636931Y-83688387D01*
X78076052Y-83546566D01*
X78746916Y-83268685D01*
X79123373Y-82841794D01*
X79106959Y-82825379D01*
X83856716Y-82825379D01*
X84106320Y-83429469D01*
X84568100Y-83892055D01*
X85171753Y-84142714D01*
X85825379Y-84143284D01*
X86429469Y-83893680D01*
X86892055Y-83431900D01*
X87142714Y-82828247D01*
X87143284Y-82174621D01*
X86893680Y-81570531D01*
X86431900Y-81107945D01*
X85828247Y-80857286D01*
X85174621Y-80856716D01*
X84570531Y-81106320D01*
X84107945Y-81568100D01*
X83857286Y-82171753D01*
X83856716Y-82825379D01*
X79106959Y-82825379D01*
X77000000Y-80718420D01*
X76985858Y-80732563D01*
X76267438Y-80014143D01*
X76281580Y-80000000D01*
X76267438Y-79985858D01*
X76985858Y-79267437D01*
X77000000Y-79281580D01*
X79123373Y-77158206D01*
X78787041Y-76776815D01*
X79549956Y-76777481D01*
X80290000Y-76471701D01*
X80290000Y-78304543D01*
X80268685Y-78253084D01*
X79841794Y-77876627D01*
X77718420Y-80000000D01*
X79841794Y-82123373D01*
X80268685Y-81746916D01*
X80391342Y-81342489D01*
X80497954Y-81502046D01*
X80728295Y-81655954D01*
X81000000Y-81710000D01*
X83500000Y-81710000D01*
X83771705Y-81655954D01*
X84002046Y-81502046D01*
X84155954Y-81271705D01*
X84210000Y-81000000D01*
X84210000Y-76658750D01*
X87103000Y-76658750D01*
X87103000Y-76876310D01*
X87199673Y-77109699D01*
X87378302Y-77288327D01*
X87611691Y-77385000D01*
X87960250Y-77385000D01*
X88119000Y-77226250D01*
X88119000Y-76500000D01*
X88881000Y-76500000D01*
X88881000Y-77226250D01*
X89039750Y-77385000D01*
X89388309Y-77385000D01*
X89621698Y-77288327D01*
X89800327Y-77109699D01*
X89897000Y-76876310D01*
X89897000Y-76658750D01*
X89738250Y-76500000D01*
X88881000Y-76500000D01*
X88119000Y-76500000D01*
X87261750Y-76500000D01*
X87103000Y-76658750D01*
X84210000Y-76658750D01*
X84210000Y-75623690D01*
X87103000Y-75623690D01*
X87103000Y-75841250D01*
X87261750Y-76000000D01*
X88119000Y-76000000D01*
X88119000Y-75273750D01*
X88881000Y-75273750D01*
X88881000Y-76000000D01*
X89738250Y-76000000D01*
X89897000Y-75841250D01*
X89897000Y-75623690D01*
X93103000Y-75623690D01*
X93103000Y-75841250D01*
X93261750Y-76000000D01*
X94119000Y-76000000D01*
X94119000Y-75273750D01*
X94881000Y-75273750D01*
X94881000Y-76000000D01*
X95738250Y-76000000D01*
X95897000Y-75841250D01*
X95897000Y-75623690D01*
X95800327Y-75390301D01*
X95621698Y-75211673D01*
X95388309Y-75115000D01*
X95039750Y-75115000D01*
X94881000Y-75273750D01*
X94119000Y-75273750D01*
X93960250Y-75115000D01*
X93611691Y-75115000D01*
X93378302Y-75211673D01*
X93199673Y-75390301D01*
X93103000Y-75623690D01*
X89897000Y-75623690D01*
X89800327Y-75390301D01*
X89621698Y-75211673D01*
X89388309Y-75115000D01*
X89039750Y-75115000D01*
X88881000Y-75273750D01*
X88119000Y-75273750D01*
X87960250Y-75115000D01*
X87611691Y-75115000D01*
X87378302Y-75211673D01*
X87199673Y-75390301D01*
X87103000Y-75623690D01*
X84210000Y-75623690D01*
X84210000Y-75000000D01*
X84155954Y-74728295D01*
X84002046Y-74497954D01*
X83771705Y-74344046D01*
X83500000Y-74290000D01*
X81776748Y-74290000D01*
X81777481Y-73450044D01*
X81678297Y-73210000D01*
X98290000Y-73210000D01*
X98290000Y-73499737D01*
G36*
X147607945Y-73568100D02*
X147357286Y-74171753D01*
X147356716Y-74825379D01*
X147494571Y-75159015D01*
X147388309Y-75115000D01*
X147039750Y-75115000D01*
X146881000Y-75273750D01*
X146881000Y-76000000D01*
X147738250Y-76000000D01*
X147897000Y-75841250D01*
X147897000Y-75720656D01*
X148068100Y-75892055D01*
X148671753Y-76142714D01*
X149325379Y-76143284D01*
X149929469Y-75893680D01*
X150392055Y-75431900D01*
X150529872Y-75100000D01*
X150790000Y-75100000D01*
X150790000Y-81100000D01*
X150844046Y-81371705D01*
X150997954Y-81602046D01*
X151228295Y-81755954D01*
X151500000Y-81810000D01*
X154000000Y-81810000D01*
X154271705Y-81755954D01*
X154502046Y-81602046D01*
X154655954Y-81371705D01*
X154710000Y-81100000D01*
X154710000Y-79747617D01*
X154772652Y-79747617D01*
X154921736Y-81001881D01*
X155114902Y-81468224D01*
X155493838Y-81787741D01*
X157281580Y-80000000D01*
X155493838Y-78212259D01*
X155114902Y-78531776D01*
X154772652Y-79747617D01*
X154710000Y-79747617D01*
X154710000Y-75100000D01*
X154655954Y-74828295D01*
X154502046Y-74597954D01*
X154271705Y-74444046D01*
X154000000Y-74390000D01*
X151500000Y-74390000D01*
X151228295Y-74444046D01*
X150997954Y-74597954D01*
X150844046Y-74828295D01*
X150790000Y-75100000D01*
X150529872Y-75100000D01*
X150642714Y-74828247D01*
X150643284Y-74174621D01*
X150393680Y-73570531D01*
X150033777Y-73210000D01*
X156362424Y-73210000D01*
X156147146Y-73424902D01*
X155723483Y-74445197D01*
X155722519Y-75549956D01*
X156144401Y-76570989D01*
X156641850Y-77069308D01*
X156531776Y-77114902D01*
X156212259Y-77493838D01*
X158000000Y-79281580D01*
X158014142Y-79267437D01*
X158732563Y-79985858D01*
X158718420Y-80000000D01*
X158732563Y-80014143D01*
X158014142Y-80732563D01*
X158000000Y-80718420D01*
X156212259Y-82506162D01*
X156531776Y-82885098D01*
X157747617Y-83227348D01*
X159001881Y-83078264D01*
X159290000Y-82958921D01*
X159290000Y-84290000D01*
X135284802Y-84290000D01*
X135539767Y-84035035D01*
X135704971Y-84035179D01*
X136085515Y-83877942D01*
X136376919Y-83587046D01*
X136534820Y-83206777D01*
X136535179Y-82795029D01*
X136377942Y-82414485D01*
X136087046Y-82123081D01*
X135706777Y-81965180D01*
X135398778Y-81964911D01*
X135377942Y-81914485D01*
X135087046Y-81623081D01*
X134706777Y-81465180D01*
X134507454Y-81465006D01*
X135333460Y-80639000D01*
X139234214Y-80639000D01*
X139280191Y-80707809D01*
X139490235Y-80848157D01*
X139738000Y-80897440D01*
X141262000Y-80897440D01*
X141509765Y-80848157D01*
X141719809Y-80707809D01*
X141765786Y-80639000D01*
X145234214Y-80639000D01*
X145280191Y-80707809D01*
X145490235Y-80848157D01*
X145738000Y-80897440D01*
X147262000Y-80897440D01*
X147509765Y-80848157D01*
X147719809Y-80707809D01*
X147860157Y-80497765D01*
X147909440Y-80250000D01*
X147909440Y-79250000D01*
X147860157Y-79002235D01*
X147719809Y-78792191D01*
X147509765Y-78651843D01*
X147262000Y-78602560D01*
X145738000Y-78602560D01*
X145490235Y-78651843D01*
X145280191Y-78792191D01*
X145234214Y-78861000D01*
X141765786Y-78861000D01*
X141719809Y-78792191D01*
X141509765Y-78651843D01*
X141262000Y-78602560D01*
X139738000Y-78602560D01*
X139490235Y-78651843D01*
X139280191Y-78792191D01*
X139234214Y-78861000D01*
X135108908Y-78861000D01*
X134768702Y-78928671D01*
X134480290Y-79121382D01*
X134287579Y-79409794D01*
X134275665Y-79469691D01*
X131299382Y-82445974D01*
X127661262Y-82445974D01*
X133448486Y-76658750D01*
X139103000Y-76658750D01*
X139103000Y-76876310D01*
X139199673Y-77109699D01*
X139378302Y-77288327D01*
X139611691Y-77385000D01*
X139960250Y-77385000D01*
X140119000Y-77226250D01*
X140119000Y-76500000D01*
X140881000Y-76500000D01*
X140881000Y-77226250D01*
X141039750Y-77385000D01*
X141388309Y-77385000D01*
X141621698Y-77288327D01*
X141800327Y-77109699D01*
X141897000Y-76876310D01*
X141897000Y-76658750D01*
X145103000Y-76658750D01*
X145103000Y-76876310D01*
X145199673Y-77109699D01*
X145378302Y-77288327D01*
X145611691Y-77385000D01*
X145960250Y-77385000D01*
X146119000Y-77226250D01*
X146119000Y-76500000D01*
X146881000Y-76500000D01*
X146881000Y-77226250D01*
X147039750Y-77385000D01*
X147388309Y-77385000D01*
X147621698Y-77288327D01*
X147800327Y-77109699D01*
X147897000Y-76876310D01*
X147897000Y-76658750D01*
X147738250Y-76500000D01*
X146881000Y-76500000D01*
X146119000Y-76500000D01*
X145261750Y-76500000D01*
X145103000Y-76658750D01*
X141897000Y-76658750D01*
X141738250Y-76500000D01*
X140881000Y-76500000D01*
X140119000Y-76500000D01*
X139261750Y-76500000D01*
X139103000Y-76658750D01*
X133448486Y-76658750D01*
X133834088Y-76273148D01*
X134185515Y-76127942D01*
X134476919Y-75837046D01*
X134565511Y-75623690D01*
X139103000Y-75623690D01*
X139103000Y-75841250D01*
X139261750Y-76000000D01*
X140119000Y-76000000D01*
X140119000Y-75273750D01*
X140881000Y-75273750D01*
X140881000Y-76000000D01*
X141738250Y-76000000D01*
X141897000Y-75841250D01*
X141897000Y-75623690D01*
X145103000Y-75623690D01*
X145103000Y-75841250D01*
X145261750Y-76000000D01*
X146119000Y-76000000D01*
X146119000Y-75273750D01*
X145960250Y-75115000D01*
X145611691Y-75115000D01*
X145378302Y-75211673D01*
X145199673Y-75390301D01*
X145103000Y-75623690D01*
X141897000Y-75623690D01*
X141800327Y-75390301D01*
X141621698Y-75211673D01*
X141388309Y-75115000D01*
X141039750Y-75115000D01*
X140881000Y-75273750D01*
X140119000Y-75273750D01*
X139960250Y-75115000D01*
X139611691Y-75115000D01*
X139378302Y-75211673D01*
X139199673Y-75390301D01*
X139103000Y-75623690D01*
X134565511Y-75623690D01*
X134634820Y-75456777D01*
X134635035Y-75210000D01*
X136000000Y-75210000D01*
X136271705Y-75155954D01*
X136502046Y-75002046D01*
X136655954Y-74771705D01*
X136710000Y-74500000D01*
X136710000Y-73210000D01*
X147966670Y-73210000D01*
X147607945Y-73568100D01*
X147607945Y-73568100D01*
G37*
X147607945Y-73568100D02*
X147357286Y-74171753D01*
X147356716Y-74825379D01*
X147494571Y-75159015D01*
X147388309Y-75115000D01*
X147039750Y-75115000D01*
X146881000Y-75273750D01*
X146881000Y-76000000D01*
X147738250Y-76000000D01*
X147897000Y-75841250D01*
X147897000Y-75720656D01*
X148068100Y-75892055D01*
X148671753Y-76142714D01*
X149325379Y-76143284D01*
X149929469Y-75893680D01*
X150392055Y-75431900D01*
X150529872Y-75100000D01*
X150790000Y-75100000D01*
X150790000Y-81100000D01*
X150844046Y-81371705D01*
X150997954Y-81602046D01*
X151228295Y-81755954D01*
X151500000Y-81810000D01*
X154000000Y-81810000D01*
X154271705Y-81755954D01*
X154502046Y-81602046D01*
X154655954Y-81371705D01*
X154710000Y-81100000D01*
X154710000Y-79747617D01*
X154772652Y-79747617D01*
X154921736Y-81001881D01*
X155114902Y-81468224D01*
X155493838Y-81787741D01*
X157281580Y-80000000D01*
X155493838Y-78212259D01*
X155114902Y-78531776D01*
X154772652Y-79747617D01*
X154710000Y-79747617D01*
X154710000Y-75100000D01*
X154655954Y-74828295D01*
X154502046Y-74597954D01*
X154271705Y-74444046D01*
X154000000Y-74390000D01*
X151500000Y-74390000D01*
X151228295Y-74444046D01*
X150997954Y-74597954D01*
X150844046Y-74828295D01*
X150790000Y-75100000D01*
X150529872Y-75100000D01*
X150642714Y-74828247D01*
X150643284Y-74174621D01*
X150393680Y-73570531D01*
X150033777Y-73210000D01*
X156362424Y-73210000D01*
X156147146Y-73424902D01*
X155723483Y-74445197D01*
X155722519Y-75549956D01*
X156144401Y-76570989D01*
X156641850Y-77069308D01*
X156531776Y-77114902D01*
X156212259Y-77493838D01*
X158000000Y-79281580D01*
X158014142Y-79267437D01*
X158732563Y-79985858D01*
X158718420Y-80000000D01*
X158732563Y-80014143D01*
X158014142Y-80732563D01*
X158000000Y-80718420D01*
X156212259Y-82506162D01*
X156531776Y-82885098D01*
X157747617Y-83227348D01*
X159001881Y-83078264D01*
X159290000Y-82958921D01*
X159290000Y-84290000D01*
X135284802Y-84290000D01*
X135539767Y-84035035D01*
X135704971Y-84035179D01*
X136085515Y-83877942D01*
X136376919Y-83587046D01*
X136534820Y-83206777D01*
X136535179Y-82795029D01*
X136377942Y-82414485D01*
X136087046Y-82123081D01*
X135706777Y-81965180D01*
X135398778Y-81964911D01*
X135377942Y-81914485D01*
X135087046Y-81623081D01*
X134706777Y-81465180D01*
X134507454Y-81465006D01*
X135333460Y-80639000D01*
X139234214Y-80639000D01*
X139280191Y-80707809D01*
X139490235Y-80848157D01*
X139738000Y-80897440D01*
X141262000Y-80897440D01*
X141509765Y-80848157D01*
X141719809Y-80707809D01*
X141765786Y-80639000D01*
X145234214Y-80639000D01*
X145280191Y-80707809D01*
X145490235Y-80848157D01*
X145738000Y-80897440D01*
X147262000Y-80897440D01*
X147509765Y-80848157D01*
X147719809Y-80707809D01*
X147860157Y-80497765D01*
X147909440Y-80250000D01*
X147909440Y-79250000D01*
X147860157Y-79002235D01*
X147719809Y-78792191D01*
X147509765Y-78651843D01*
X147262000Y-78602560D01*
X145738000Y-78602560D01*
X145490235Y-78651843D01*
X145280191Y-78792191D01*
X145234214Y-78861000D01*
X141765786Y-78861000D01*
X141719809Y-78792191D01*
X141509765Y-78651843D01*
X141262000Y-78602560D01*
X139738000Y-78602560D01*
X139490235Y-78651843D01*
X139280191Y-78792191D01*
X139234214Y-78861000D01*
X135108908Y-78861000D01*
X134768702Y-78928671D01*
X134480290Y-79121382D01*
X134287579Y-79409794D01*
X134275665Y-79469691D01*
X131299382Y-82445974D01*
X127661262Y-82445974D01*
X133448486Y-76658750D01*
X139103000Y-76658750D01*
X139103000Y-76876310D01*
X139199673Y-77109699D01*
X139378302Y-77288327D01*
X139611691Y-77385000D01*
X139960250Y-77385000D01*
X140119000Y-77226250D01*
X140119000Y-76500000D01*
X140881000Y-76500000D01*
X140881000Y-77226250D01*
X141039750Y-77385000D01*
X141388309Y-77385000D01*
X141621698Y-77288327D01*
X141800327Y-77109699D01*
X141897000Y-76876310D01*
X141897000Y-76658750D01*
X145103000Y-76658750D01*
X145103000Y-76876310D01*
X145199673Y-77109699D01*
X145378302Y-77288327D01*
X145611691Y-77385000D01*
X145960250Y-77385000D01*
X146119000Y-77226250D01*
X146119000Y-76500000D01*
X146881000Y-76500000D01*
X146881000Y-77226250D01*
X147039750Y-77385000D01*
X147388309Y-77385000D01*
X147621698Y-77288327D01*
X147800327Y-77109699D01*
X147897000Y-76876310D01*
X147897000Y-76658750D01*
X147738250Y-76500000D01*
X146881000Y-76500000D01*
X146119000Y-76500000D01*
X145261750Y-76500000D01*
X145103000Y-76658750D01*
X141897000Y-76658750D01*
X141738250Y-76500000D01*
X140881000Y-76500000D01*
X140119000Y-76500000D01*
X139261750Y-76500000D01*
X139103000Y-76658750D01*
X133448486Y-76658750D01*
X133834088Y-76273148D01*
X134185515Y-76127942D01*
X134476919Y-75837046D01*
X134565511Y-75623690D01*
X139103000Y-75623690D01*
X139103000Y-75841250D01*
X139261750Y-76000000D01*
X140119000Y-76000000D01*
X140119000Y-75273750D01*
X140881000Y-75273750D01*
X140881000Y-76000000D01*
X141738250Y-76000000D01*
X141897000Y-75841250D01*
X141897000Y-75623690D01*
X145103000Y-75623690D01*
X145103000Y-75841250D01*
X145261750Y-76000000D01*
X146119000Y-76000000D01*
X146119000Y-75273750D01*
X145960250Y-75115000D01*
X145611691Y-75115000D01*
X145378302Y-75211673D01*
X145199673Y-75390301D01*
X145103000Y-75623690D01*
X141897000Y-75623690D01*
X141800327Y-75390301D01*
X141621698Y-75211673D01*
X141388309Y-75115000D01*
X141039750Y-75115000D01*
X140881000Y-75273750D01*
X140119000Y-75273750D01*
X139960250Y-75115000D01*
X139611691Y-75115000D01*
X139378302Y-75211673D01*
X139199673Y-75390301D01*
X139103000Y-75623690D01*
X134565511Y-75623690D01*
X134634820Y-75456777D01*
X134635035Y-75210000D01*
X136000000Y-75210000D01*
X136271705Y-75155954D01*
X136502046Y-75002046D01*
X136655954Y-74771705D01*
X136710000Y-74500000D01*
X136710000Y-73210000D01*
X147966670Y-73210000D01*
X147607945Y-73568100D01*
G36*
X113811613Y-74136931D02*
X113953434Y-75576052D01*
X114231315Y-76246916D01*
X114658206Y-76623373D01*
X116781580Y-74500000D01*
X116767437Y-74485858D01*
X117485858Y-73767438D01*
X117500000Y-73781580D01*
X117514143Y-73767438D01*
X118232563Y-74485858D01*
X118218420Y-74500000D01*
X120341794Y-76623373D01*
X120768685Y-76246916D01*
X121188387Y-74863069D01*
X121046566Y-73423948D01*
X120957946Y-73210000D01*
X128790000Y-73210000D01*
X128790000Y-74500000D01*
X128844046Y-74771705D01*
X128997954Y-75002046D01*
X129228295Y-75155954D01*
X129500000Y-75210000D01*
X132382764Y-75210000D01*
X125854800Y-81737964D01*
X124798629Y-81737964D01*
X125002046Y-81602046D01*
X125155954Y-81371705D01*
X125210000Y-81100000D01*
X125210000Y-75100000D01*
X125155954Y-74828295D01*
X125002046Y-74597954D01*
X124771705Y-74444046D01*
X124500000Y-74390000D01*
X122000000Y-74390000D01*
X121728295Y-74444046D01*
X121497954Y-74597954D01*
X121344046Y-74828295D01*
X121290000Y-75100000D01*
X121290000Y-81100000D01*
X121344046Y-81371705D01*
X121497954Y-81602046D01*
X121701371Y-81737964D01*
X113298629Y-81737964D01*
X113502046Y-81602046D01*
X113655954Y-81371705D01*
X113710000Y-81100000D01*
X113710000Y-77341794D01*
X115376627Y-77341794D01*
X115753084Y-77768685D01*
X117136931Y-78188387D01*
X118576052Y-78046566D01*
X119246916Y-77768685D01*
X119623373Y-77341794D01*
X117500000Y-75218420D01*
X115376627Y-77341794D01*
X113710000Y-77341794D01*
X113710000Y-75100000D01*
X113655954Y-74828295D01*
X113502046Y-74597954D01*
X113271705Y-74444046D01*
X113000000Y-74390000D01*
X110500000Y-74390000D01*
X110228295Y-74444046D01*
X109997954Y-74597954D01*
X109844046Y-74828295D01*
X109790000Y-75100000D01*
X109790000Y-80782764D01*
X104232619Y-75225383D01*
X104222198Y-75218420D01*
X104209597Y-75210000D01*
X105500000Y-75210000D01*
X105771705Y-75155954D01*
X106002046Y-75002046D01*
X106155954Y-74771705D01*
X106210000Y-74500000D01*
X106210000Y-73210000D01*
X114092739Y-73210000D01*
X113811613Y-74136931D01*
X113811613Y-74136931D01*
G37*
X113811613Y-74136931D02*
X113953434Y-75576052D01*
X114231315Y-76246916D01*
X114658206Y-76623373D01*
X116781580Y-74500000D01*
X116767437Y-74485858D01*
X117485858Y-73767438D01*
X117500000Y-73781580D01*
X117514143Y-73767438D01*
X118232563Y-74485858D01*
X118218420Y-74500000D01*
X120341794Y-76623373D01*
X120768685Y-76246916D01*
X121188387Y-74863069D01*
X121046566Y-73423948D01*
X120957946Y-73210000D01*
X128790000Y-73210000D01*
X128790000Y-74500000D01*
X128844046Y-74771705D01*
X128997954Y-75002046D01*
X129228295Y-75155954D01*
X129500000Y-75210000D01*
X132382764Y-75210000D01*
X125854800Y-81737964D01*
X124798629Y-81737964D01*
X125002046Y-81602046D01*
X125155954Y-81371705D01*
X125210000Y-81100000D01*
X125210000Y-75100000D01*
X125155954Y-74828295D01*
X125002046Y-74597954D01*
X124771705Y-74444046D01*
X124500000Y-74390000D01*
X122000000Y-74390000D01*
X121728295Y-74444046D01*
X121497954Y-74597954D01*
X121344046Y-74828295D01*
X121290000Y-75100000D01*
X121290000Y-81100000D01*
X121344046Y-81371705D01*
X121497954Y-81602046D01*
X121701371Y-81737964D01*
X113298629Y-81737964D01*
X113502046Y-81602046D01*
X113655954Y-81371705D01*
X113710000Y-81100000D01*
X113710000Y-77341794D01*
X115376627Y-77341794D01*
X115753084Y-77768685D01*
X117136931Y-78188387D01*
X118576052Y-78046566D01*
X119246916Y-77768685D01*
X119623373Y-77341794D01*
X117500000Y-75218420D01*
X115376627Y-77341794D01*
X113710000Y-77341794D01*
X113710000Y-75100000D01*
X113655954Y-74828295D01*
X113502046Y-74597954D01*
X113271705Y-74444046D01*
X113000000Y-74390000D01*
X110500000Y-74390000D01*
X110228295Y-74444046D01*
X109997954Y-74597954D01*
X109844046Y-74828295D01*
X109790000Y-75100000D01*
X109790000Y-80782764D01*
X104232619Y-75225383D01*
X104222198Y-75218420D01*
X104209597Y-75210000D01*
X105500000Y-75210000D01*
X105771705Y-75155954D01*
X106002046Y-75002046D01*
X106155954Y-74771705D01*
X106210000Y-74500000D01*
X106210000Y-73210000D01*
X114092739Y-73210000D01*
X113811613Y-74136931D01*
M02*
