M48
;DRILL file {KiCad no-vcs-found-undefined} date Tue Nov  8 15:55:48 2016
;FORMAT={-:-/ absolute / metric / decimal}
FMAT,2
METRIC,TZ
T1C0.200
T2C0.254
T3C0.300
T4C0.400
T5C0.500
T6C0.600
T7C0.650
T8C0.800
T9C1.000
T10C1.200
T11C2.800
T12C4.600
T13C5.600
%
G90
G05
M71
T1
X110.617Y-42.799
X116.459Y-80.264
X134.1Y-48.
X134.4Y-48.4
X134.55Y-59.15
X135.3Y-48.8
X135.525Y-57.2
X135.525Y-57.85
X135.525Y-59.15
X135.525Y-59.8
X135.9Y-50.2
X135.9Y-50.7
X136.175Y-57.2
X136.175Y-57.85
X136.175Y-59.15
X136.175Y-59.8
X136.2Y-51.9
X136.3Y-49.2
X136.5Y-52.975
X136.6Y-49.6
X136.6Y-51.4
X136.6Y-52.4
X136.825Y-54.6
X136.825Y-55.25
X136.825Y-57.2
X136.825Y-57.85
X136.825Y-59.15
X136.825Y-59.8
X136.825Y-60.45
X136.825Y-63.7
X137.475Y-55.25
X137.475Y-55.9
X137.475Y-57.2
X137.475Y-57.85
X137.475Y-59.15
X137.475Y-59.8
X137.475Y-60.45
X137.475Y-61.75
X137.475Y-62.4
X137.475Y-63.05
X137.475Y-63.7
X137.475Y-66.95
X137.795Y-69.977
X138.125Y-55.25
X138.125Y-55.9
X138.125Y-57.2
X138.125Y-57.85
X138.125Y-59.15
X138.125Y-59.8
X138.125Y-60.45
X138.125Y-61.75
X138.125Y-62.4
X138.125Y-63.05
X138.125Y-63.7
X138.125Y-66.3
X138.125Y-67.6
X138.125Y-68.25
X138.176Y-69.596
X138.176Y-70.358
X138.45Y-63.375
X138.775Y-54.6
X138.775Y-55.25
X138.775Y-55.9
X138.775Y-57.2
X138.775Y-57.85
X138.775Y-59.15
X138.775Y-61.75
X138.775Y-62.4
X138.775Y-63.05
X138.775Y-65.
X138.775Y-65.65
X138.775Y-66.3
X138.775Y-66.95
X138.775Y-67.6
X138.775Y-68.25
X139.425Y-54.6
X139.425Y-55.25
X139.425Y-57.2
X139.425Y-57.85
X139.425Y-59.15
X139.425Y-59.8
X139.425Y-60.45
X139.425Y-61.75
X139.425Y-62.4
X139.425Y-63.05
X139.425Y-63.7
X139.954Y-48.895
X140.075Y-54.6
X140.075Y-55.25
X140.075Y-57.85
X140.075Y-59.15
X140.075Y-59.8
X140.075Y-60.45
X140.075Y-61.1
X140.075Y-61.75
X140.075Y-62.4
X140.075Y-65.65
X140.075Y-66.3
X140.075Y-66.95
X140.075Y-67.6
X140.075Y-68.25
X140.462Y-49.276
X140.589Y-46.863
X140.725Y-55.25
X140.725Y-55.9
X140.725Y-57.2
X140.725Y-57.85
X140.725Y-59.15
X140.725Y-59.8
X140.725Y-60.45
X140.725Y-61.1
X140.725Y-61.75
X140.725Y-64.35
X140.725Y-65.
X140.725Y-65.65
X140.843Y-46.482
X141.375Y-57.85
X141.375Y-64.35
X141.375Y-66.95
X141.605Y-69.342
X141.605Y-69.85
X142.025Y-55.25
X142.025Y-55.9
X142.025Y-56.55
X142.025Y-57.2
X142.025Y-57.85
X142.025Y-59.15
X142.025Y-64.35
X142.025Y-65.
X142.025Y-65.65
X142.025Y-66.3
X142.025Y-66.95
X142.025Y-67.6
X142.025Y-68.25
X142.24Y-46.863
X142.621Y-46.609
X142.675Y-59.15
X142.675Y-59.8
X142.675Y-64.35
X143.325Y-54.6
X143.325Y-55.25
X143.325Y-55.9
X143.325Y-56.55
X143.325Y-57.2
X143.325Y-57.85
X143.325Y-58.5
X143.325Y-59.8
X143.325Y-60.45
X143.325Y-61.75
X143.325Y-62.4
X143.325Y-63.05
X143.325Y-63.7
X143.325Y-65.65
X143.325Y-66.3
X143.325Y-66.95
X143.325Y-67.6
X143.975Y-59.8
X143.975Y-60.45
X143.975Y-61.75
X143.975Y-63.05
X144.625Y-55.9
X144.625Y-57.2
X144.625Y-57.85
X144.625Y-58.5
X144.625Y-59.8
X144.625Y-60.45
X144.625Y-61.75
X144.625Y-63.05
X144.625Y-65.65
X144.625Y-66.3
X144.625Y-66.95
X144.625Y-67.6
X144.625Y-68.25
X144.625Y-68.9
X145.275Y-53.95
X145.275Y-54.6
X145.275Y-55.25
X145.275Y-55.9
X145.275Y-57.2
X145.275Y-57.85
X145.275Y-59.15
X145.275Y-59.8
X145.275Y-60.45
X145.275Y-61.1
X145.275Y-61.75
X145.275Y-62.4
X145.275Y-63.05
X145.275Y-63.7
X145.275Y-64.35
X145.275Y-65.65
X145.275Y-66.95
X145.275Y-67.6
X145.275Y-68.25
X145.6Y-68.575
X145.925Y-52.65
X145.925Y-53.3
X145.925Y-53.95
X145.925Y-54.6
X145.925Y-55.25
X145.925Y-55.9
X145.925Y-56.55
X145.925Y-57.85
X145.925Y-58.5
X145.925Y-59.8
X145.925Y-60.45
X145.925Y-61.75
X145.925Y-63.05
X145.925Y-63.7
X145.925Y-64.35
X145.925Y-65.65
X146.304Y-69.342
X146.575Y-61.75
X146.575Y-63.7
X146.575Y-65.65
X146.575Y-66.3
X146.685Y-76.581
X147.066Y-44.577
X147.066Y-45.085
X147.193Y-45.593
X147.225Y-55.25
X147.225Y-55.9
X147.225Y-56.55
X147.225Y-57.85
X147.225Y-59.8
X147.225Y-61.75
X147.225Y-63.7
X147.875Y-53.3
X147.875Y-57.85
X147.875Y-58.5
X147.875Y-59.8
X147.875Y-61.75
X147.875Y-64.35
X148.082Y-69.342
X148.463Y-75.565
X148.525Y-53.3
X148.525Y-53.95
X148.525Y-56.55
X148.525Y-57.2
X148.525Y-58.5
X148.525Y-59.8
X148.525Y-61.75
X148.525Y-64.35
X148.844Y-70.358
X149.175Y-55.25
X149.175Y-55.9
X149.175Y-56.55
X149.175Y-57.2
X149.175Y-58.5
X149.175Y-61.75
X149.175Y-63.7
X149.175Y-64.35
X149.175Y-65.65
X149.225Y-70.739
X149.825Y-53.3
X149.825Y-53.95
X149.825Y-55.25
X149.825Y-55.9
X149.825Y-56.55
X149.825Y-57.2
X149.825Y-57.85
X149.825Y-60.45
X149.825Y-61.75
X149.825Y-63.7
X149.825Y-64.35
X149.825Y-65.65
X150.475Y-53.95
X150.475Y-55.25
X150.475Y-55.9
X150.475Y-57.2
X150.475Y-57.85
X150.475Y-60.45
X150.475Y-61.75
X150.475Y-64.35
X150.475Y-65.65
X150.475Y-67.6
X151.125Y-63.7
X151.45Y-58.5
X151.775Y-60.45
X151.775Y-61.75
X152.019Y-66.167
X159.131Y-54.991
X166.675Y-64.414
X166.675Y-66.218
X166.751Y-69.85
X167.208Y-64.414
X167.234Y-66.218
X174.752Y-96.393
X182.88Y-44.577
X183.261Y-44.958
X183.388Y-59.817
X183.642Y-45.339
X184.531Y-63.5
X184.531Y-64.389
T2
X128.8Y-66.8
X136.175Y-65.65
X136.175Y-66.3
X136.175Y-66.95
X136.175Y-67.6
X136.175Y-68.25
X136.825Y-65.
X136.825Y-65.65
X136.825Y-66.3
X136.825Y-66.95
X136.825Y-67.6
X136.825Y-68.25
X137.475Y-65.
X137.475Y-65.65
X137.475Y-66.3
X138.125Y-65.
X138.125Y-65.65
X140.075Y-63.05
X140.075Y-63.7
X140.075Y-64.35
X140.725Y-62.4
X140.725Y-63.05
X140.725Y-63.7
X141.375Y-59.15
X141.375Y-59.8
X141.375Y-60.45
X141.375Y-61.1
X141.375Y-61.75
X141.375Y-62.4
X141.375Y-63.05
X141.375Y-63.7
X142.025Y-59.8
X142.025Y-60.45
X142.025Y-61.1
X142.025Y-61.75
X142.025Y-62.4
X142.025Y-63.05
X142.025Y-63.7
X142.675Y-60.45
X142.675Y-61.1
X142.675Y-61.75
X142.675Y-62.4
X142.675Y-63.05
X142.675Y-63.7
T3
X105.029Y-66.929
X105.029Y-67.564
X105.156Y-94.488
X106.172Y-19.304
X106.172Y-21.082
X106.426Y-28.194
X106.426Y-53.34
X106.426Y-53.848
X106.426Y-54.991
X106.426Y-55.626
X106.807Y-50.546
X107.188Y-19.304
X107.188Y-21.082
X107.188Y-52.705
X107.188Y-53.213
X107.188Y-67.945
X107.188Y-68.453
X107.188Y-73.406
X107.188Y-73.914
X107.188Y-74.422
X107.188Y-74.93
X107.188Y-76.454
X107.188Y-76.962
X107.188Y-77.47
X107.315Y-60.198
X107.315Y-71.501
X107.442Y-59.055
X107.442Y-65.024
X107.442Y-65.532
X107.696Y-61.976
X107.823Y-52.197
X107.823Y-68.961
X107.823Y-71.501
X108.204Y-19.304
X108.204Y-21.082
X108.458Y-52.07
X108.458Y-61.595
X108.458Y-72.263
X108.839Y-49.53
X108.839Y-50.165
X108.966Y-73.66
X109.22Y-19.304
X109.22Y-21.082
X109.22Y-68.199
X109.347Y-49.022
X109.474Y-47.498
X109.474Y-54.61
X109.474Y-55.372
X109.474Y-72.263
X109.728Y-48.514
X109.982Y-14.478
X109.982Y-15.494
X109.982Y-16.51
X110.236Y-18.288
X110.236Y-19.304
X110.236Y-21.082
X110.49Y-39.624
X110.49Y-67.056
X110.617Y-51.181
X110.744Y-72.009
X110.744Y-73.787
X110.831Y-37.921
X110.831Y-38.533
X110.998Y-14.478
X111.379Y-55.245
X111.506Y-42.672
X111.887Y-16.51
X111.887Y-17.907
X111.887Y-19.431
X111.887Y-21.082
X112.014Y-14.478
X112.014Y-59.944
X112.014Y-66.548
X112.014Y-67.056
X112.395Y-52.832
X112.522Y-98.552
X112.649Y-59.944
X112.649Y-66.548
X112.649Y-67.056
X113.157Y-82.677
X113.157Y-93.345
X113.157Y-93.98
X113.284Y-28.702
X113.665Y-37.973
X113.665Y-38.608
X113.665Y-40.259
X114.046Y-74.676
X114.046Y-76.073
X114.046Y-77.089
X114.046Y-77.724
X114.935Y-81.661
X115.189Y-17.653
X115.189Y-97.282
X115.443Y-77.724
X115.697Y-18.161
X115.951Y-19.812
X115.951Y-20.447
X116.078Y-37.973
X116.1Y-57.6
X116.84Y-19.177
X116.84Y-86.995
X116.967Y-22.225
X117.094Y-77.47
X117.094Y-77.978
X117.348Y-88.392
X117.5Y-46.4
X117.6Y-54.2
X117.602Y-75.946
X117.602Y-76.708
X117.729Y-18.669
X117.729Y-19.939
X117.856Y-77.343
X118.4Y-46.4
X118.4Y-47.2
X118.4Y-48.8
X118.4Y-50.6
X118.4Y-51.2
X118.4Y-52.
X118.4Y-52.8
X118.4Y-53.6
X118.4Y-61.2
X118.4Y-66.
X118.4Y-67.6
X118.491Y-75.184
X118.491Y-76.2
X118.509Y-89.22
X118.942Y-88.787
X118.999Y-21.844
X118.999Y-35.306
X118.999Y-75.692
X119.2Y-46.4
X119.2Y-48.8
X119.2Y-51.2
X119.2Y-52.8
X119.2Y-53.6
X119.2Y-60.4
X119.2Y-61.2
X119.2Y-62.
X119.2Y-65.2
X119.2Y-66.
X119.2Y-67.6
X119.634Y-35.306
X119.888Y-21.336
X120.Y-46.4
X120.Y-48.
X120.Y-48.8
X120.Y-51.2
X120.Y-53.6
X120.Y-57.2
X120.Y-57.8
X120.Y-60.4
X120.Y-61.2
X120.Y-62.
X120.Y-65.2
X120.Y-66.
X120.Y-67.6
X120.142Y-79.883
X120.142Y-80.518
X120.396Y-20.828
X120.777Y-21.844
X120.8Y-46.4
X120.8Y-48.
X120.8Y-52.
X120.8Y-58.8
X120.8Y-60.4
X120.8Y-61.2
X120.8Y-62.
X120.8Y-62.8
X120.8Y-65.2
X120.8Y-66.8
X120.8Y-67.6
X120.904Y-20.32
X120.904Y-78.867
X121.6Y-46.4
X121.6Y-47.2
X121.6Y-48.
X121.6Y-48.8
X121.6Y-52.
X121.6Y-52.8
X121.6Y-53.6
X121.6Y-60.4
X121.6Y-61.2
X121.6Y-62.
X121.6Y-66.8
X121.6Y-67.6
X121.666Y-20.32
X121.793Y-69.723
X121.92Y-22.225
X122.4Y-46.4
X122.4Y-47.2
X122.4Y-48.
X122.4Y-52.
X122.4Y-61.2
X122.4Y-62.
X122.4Y-62.8
X122.4Y-66.
X122.428Y-79.121
X122.682Y-84.074
X122.809Y-21.971
X123.19Y-91.821
X123.2Y-46.4
X123.2Y-48.
X123.2Y-48.9
X123.2Y-61.2
X123.2Y-62.
X123.2Y-66.
X123.571Y-21.844
X123.571Y-82.804
X124.Y-46.4
X124.Y-47.2
X124.Y-48.
X124.Y-52.
X124.Y-52.8
X124.Y-60.4
X124.Y-61.2
X124.Y-62.
X124.Y-62.8
X124.Y-66.
X124.Y-66.8
X124.333Y-43.942
X124.333Y-44.45
X124.425Y-63.754
X124.564Y-49.86
X124.8Y-60.4
X124.8Y-61.2
X124.8Y-66.
X124.8Y-66.8
X124.968Y-80.01
X125.002Y-63.754
X125.2Y-53.8
X125.212Y-49.86
X125.349Y-29.083
X125.476Y-80.01
X125.6Y-46.4
X125.6Y-47.2
X125.6Y-62.8
X125.6Y-66.
X125.6Y-66.8
X125.6Y-67.6
X125.73Y-19.431
X126.Y-53.8
X126.111Y-17.907
X126.238Y-15.621
X126.238Y-16.256
X126.238Y-16.891
X126.365Y-20.066
X126.397Y-63.849
X126.4Y-51.2
X126.4Y-52.
X126.4Y-61.2
X126.4Y-62.
X126.4Y-66.
X126.4Y-66.8
X126.4Y-67.6
X126.746Y-34.925
X126.746Y-86.106
X126.8Y-53.8
X126.841Y-63.405
X126.873Y-13.462
X126.873Y-17.907
X127.Y-20.066
X127.2Y-46.4
X127.2Y-61.2
X127.2Y-62.
X127.2Y-66.
X127.2Y-66.8
X127.2Y-67.6
X127.381Y-21.844
X127.381Y-29.845
X128.Y-46.4
X128.Y-48.
X128.Y-51.2
X128.Y-52.
X128.Y-52.8
X128.Y-61.2
X128.Y-62.
X128.Y-62.8
X128.Y-65.2
X128.Y-66.8
X128.Y-67.6
X128.8Y-46.4
X128.8Y-48.
X128.8Y-48.8
X128.8Y-51.2
X128.8Y-52.
X128.8Y-52.8
X128.8Y-53.6
X128.8Y-61.2
X128.8Y-62.
X128.8Y-67.6
X129.032Y-87.503
X129.6Y-46.4
X129.6Y-48.
X129.6Y-48.8
X129.6Y-51.2
X129.6Y-52.
X129.6Y-53.6
X129.6Y-61.2
X129.6Y-67.6
X129.921Y-39.624
X129.921Y-40.64
X130.4Y-46.4
X130.4Y-48.
X130.4Y-48.8
X130.4Y-52.
X130.4Y-52.8
X130.4Y-53.6
X130.4Y-61.2
X130.4Y-62.
X130.4Y-62.8
X130.4Y-67.6
X130.683Y-81.026
X131.2Y-46.4
X131.2Y-48.
X131.2Y-48.8
X131.2Y-52.
X131.2Y-53.6
X131.2Y-61.2
X131.2Y-67.6
X131.321Y-81.997
X131.4Y-66.5
X131.754Y-81.564
X132.842Y-29.083
X133.096Y-79.756
X133.1Y-51.6
X134.366Y-41.783
X134.62Y-29.083
X135.001Y-82.423
X135.525Y-53.3
X135.636Y-82.423
X137.16Y-31.496
X137.16Y-46.609
X137.3Y-35.1
X137.3Y-37.1
X137.3Y-39.1
X137.3Y-42.1
X138.3Y-34.1
X138.3Y-35.1
X138.3Y-39.1
X138.3Y-40.1
X138.3Y-41.1
X138.3Y-42.1
X139.3Y-33.1
X139.3Y-34.1
X139.3Y-35.1
X139.3Y-37.1
X139.3Y-39.1
X139.3Y-40.1
X139.3Y-42.1
X139.319Y-29.337
X140.081Y-26.543
X140.3Y-34.1
X140.3Y-35.1
X140.3Y-39.1
X140.3Y-42.1
X140.589Y-45.212
X141.097Y-26.543
X141.224Y-44.704
X141.3Y-33.1
X141.3Y-34.1
X141.3Y-35.1
X141.859Y-44.704
X141.986Y-26.543
X142.3Y-34.1
X142.3Y-35.1
X142.3Y-39.1
X142.875Y-26.543
X142.875Y-89.662
X143.3Y-34.1
X143.3Y-35.1
X143.3Y-39.1
X143.3Y-41.1
X143.764Y-45.593
X143.764Y-50.419
X143.764Y-50.927
X144.272Y-26.543
X144.3Y-34.1
X144.3Y-37.1
X144.3Y-39.1
X144.3Y-43.1
X144.526Y-79.248
X145.034Y-79.248
X145.3Y-34.1
X145.3Y-35.1
X145.3Y-37.1
X145.3Y-39.1
X145.4Y-41.6
X145.4Y-42.6
X145.542Y-79.248
X146.05Y-79.248
X147.193Y-38.735
X147.193Y-39.751
X147.574Y-39.243
X147.611Y-36.031
X148.045Y-35.597
X148.463Y-50.419
X148.59Y-48.641
X148.971Y-40.513
X148.971Y-42.545
X149.225Y-37.465
X149.479Y-40.513
X149.479Y-42.545
X149.479Y-45.72
X149.479Y-46.228
X149.86Y-28.829
X150.876Y-99.314
X151.384Y-51.943
X151.892Y-51.943
X153.797Y-66.802
X153.924Y-94.234
X154.051Y-63.119
X154.178Y-76.073
X154.2Y-68.5
X154.305Y-81.534
X154.559Y-63.119
X154.686Y-76.073
X154.813Y-81.534
X154.813Y-82.55
X154.9Y-68.5
X154.9Y-69.3
X154.9Y-70.1
X154.9Y-70.9
X154.9Y-71.7
X155.067Y-63.119
X155.321Y-81.534
X155.448Y-82.423
X155.575Y-63.119
X155.7Y-66.1
X155.7Y-66.9
X155.7Y-67.7
X155.7Y-68.5
X155.7Y-69.3
X155.7Y-70.1
X155.7Y-70.9
X155.7Y-71.7
X155.7Y-72.5
X155.7Y-73.3
X156.337Y-94.234
X156.5Y-66.1
X156.5Y-66.9
X156.5Y-67.7
X156.5Y-68.5
X156.5Y-69.3
X156.5Y-70.1
X156.5Y-70.9
X156.5Y-71.7
X156.5Y-72.5
X157.3Y-66.1
X157.3Y-67.7
X157.3Y-69.3
X157.3Y-70.1
X157.3Y-70.9
X157.3Y-72.5
X157.3Y-73.3
X157.48Y-76.073
X157.988Y-76.073
X158.1Y-66.1
X158.1Y-67.7
X158.1Y-68.5
X158.1Y-69.3
X158.1Y-70.1
X158.1Y-70.9
X158.1Y-71.7
X158.1Y-72.5
X158.1Y-73.3
X158.115Y-94.234
X158.623Y-65.151
X158.9Y-66.1
X158.9Y-69.3
X158.9Y-70.1
X159.004Y-64.77
X159.004Y-76.073
X159.131Y-74.041
X159.512Y-64.262
X159.512Y-76.073
X159.7Y-66.1
X159.7Y-67.7
X159.7Y-68.5
X159.7Y-69.3
X159.7Y-70.1
X159.7Y-71.7
X160.5Y-66.9
X160.5Y-67.7
X160.5Y-68.5
X160.5Y-70.1
X160.5Y-70.9
X160.5Y-71.7
X160.5Y-73.3
X160.528Y-57.531
X160.528Y-58.039
X160.528Y-63.627
X160.528Y-76.073
X160.996Y-52.121
X160.996Y-52.734
X161.036Y-76.073
X161.163Y-63.627
X161.29Y-58.039
X161.29Y-58.547
X161.29Y-60.325
X161.3Y-68.5
X161.3Y-69.3
X161.544Y-61.087
X161.544Y-78.486
X162.052Y-76.073
X162.1Y-69.3
X162.1Y-71.7
X162.56Y-76.073
X162.814Y-71.755
X163.195Y-64.77
X164.592Y-76.708
X164.592Y-77.216
X164.719Y-72.39
X165.053Y-58.881
X165.505Y-59.333
X167.259Y-75.057
X167.64Y-59.182
X167.64Y-69.723
X167.894Y-74.422
X168.021Y-48.768
X168.148Y-95.377
X168.656Y-48.768
X168.656Y-95.377
X169.291Y-69.723
X169.621Y-52.558
X169.672Y-81.026
X169.926Y-74.422
X170.053Y-69.723
X170.234Y-52.558
X171.196Y-81.026
X171.196Y-81.915
X171.196Y-82.931
X171.323Y-53.721
X171.704Y-69.723
X171.958Y-53.721
X172.085Y-48.768
X172.466Y-54.102
X172.974Y-51.435
X172.974Y-53.721
X173.101Y-77.089
X173.228Y-77.724
X173.355Y-82.55
X173.482Y-54.102
X173.609Y-48.768
X173.99Y-53.721
X173.99Y-76.073
X173.99Y-76.708
X174.879Y-53.721
X175.006Y-48.768
X175.387Y-54.102
X175.895Y-51.435
X175.895Y-53.721
X176.022Y-95.885
X176.403Y-54.102
X176.53Y-48.768
X176.911Y-53.721
X177.292Y-88.9
X177.292Y-89.535
X177.673Y-88.138
X178.308Y-88.519
X178.943Y-75.819
X178.943Y-76.581
X178.943Y-88.519
X179.07Y-73.787
X179.197Y-91.948
X179.451Y-76.581
X179.578Y-72.771
X179.578Y-73.279
X179.578Y-73.787
X179.959Y-76.581
X179.959Y-91.948
X180.086Y-73.787
X180.721Y-91.948
X180.848Y-89.027
X180.975Y-75.692
X181.356Y-76.073
X181.356Y-87.503
X181.356Y-88.519
X181.479Y-83.181
X181.483Y-82.55
X181.483Y-91.948
X181.737Y-87.122
X181.991Y-86.614
X181.991Y-89.916
X182.245Y-77.343
X182.245Y-88.646
X182.626Y-88.265
X183.261Y-42.799
X183.388Y-77.343
X183.388Y-86.487
X183.515Y-85.852
X183.642Y-89.027
X183.642Y-89.535
X183.896Y-43.18
X183.998Y-78.588
X184.531Y-87.376
X184.785Y-76.327
X184.871Y-80.861
X184.871Y-82.461
X184.912Y-86.995
X185.42Y-76.2
X185.571Y-80.861
X185.571Y-82.461
X185.674Y-62.357
X185.674Y-87.884
X185.928Y-76.581
X186.055Y-86.995
X186.055Y-87.503
X186.182Y-62.357
X186.271Y-79.461
X186.271Y-80.161
X186.271Y-80.861
X186.271Y-82.461
X186.271Y-83.161
X186.271Y-83.861
X186.563Y-84.836
X186.944Y-64.135
X187.198Y-84.836
X187.452Y-64.135
X187.706Y-62.357
X187.706Y-76.708
X187.871Y-79.461
X187.871Y-80.161
X187.871Y-80.861
X187.871Y-82.461
X187.871Y-83.161
X187.871Y-83.861
X188.087Y-86.995
X188.214Y-62.357
X188.214Y-66.548
X188.468Y-87.376
X188.571Y-80.861
X188.571Y-82.461
X188.849Y-87.757
X189.271Y-80.861
X189.271Y-82.461
X190.246Y-80.137
X190.246Y-87.503
X190.754Y-87.503
X190.881Y-45.212
X191.897Y-91.186
X192.024Y-81.915
X192.024Y-82.804
X192.024Y-86.741
X192.151Y-84.836
X192.405Y-78.867
X192.405Y-81.407
X192.405Y-82.423
X192.405Y-91.186
X192.532Y-86.741
X192.659Y-79.756
X192.659Y-80.391
X192.659Y-84.836
X192.786Y-78.486
X193.04Y-86.741
X193.167Y-78.867
X193.167Y-79.756
X193.167Y-80.391
X193.167Y-84.836
X193.167Y-88.265
X193.167Y-88.773
X193.294Y-65.151
X193.548Y-86.36
X193.929Y-86.741
X194.564Y-58.547
X194.945Y-59.944
X194.945Y-60.96
X194.945Y-62.865
X194.945Y-63.881
X194.945Y-66.167
X194.945Y-67.183
X194.945Y-69.469
X194.945Y-69.977
X195.326Y-59.436
X195.326Y-60.452
X195.326Y-61.468
X195.326Y-62.357
X195.326Y-63.373
X195.326Y-64.389
X195.326Y-65.659
X195.326Y-66.675
X195.326Y-67.691
X197.612Y-60.452
X197.612Y-63.373
X197.612Y-66.675
X197.612Y-67.691
X197.993Y-91.567
X198.374Y-91.186
X199.009Y-61.341
X199.009Y-62.611
X199.009Y-63.881
X199.009Y-65.151
X199.009Y-67.5
X199.136Y-88.011
X199.136Y-88.519
X199.136Y-89.027
X199.263Y-84.455
X199.263Y-84.963
X199.263Y-85.471
X199.263Y-86.741
X199.263Y-87.249
X199.517Y-68.834
X201.676Y-92.71
X202.819Y-74.041
X202.819Y-76.327
X202.819Y-79.629
X202.819Y-84.201
X202.819Y-91.313
X202.819Y-93.472
T4
X135.636Y-88.392
X137.287Y-82.169
T5
X107.442Y-66.294
X107.442Y-67.183
X123.825Y-89.662
X124.46Y-89.662
X181.991Y-43.053
X187.325Y-58.674
T6
X103.886Y-98.425
X104.648Y-19.05
X104.648Y-22.225
X105.41Y-35.941
X105.41Y-40.005
X105.918Y-91.186
X106.172Y-29.972
X106.299Y-26.035
X106.299Y-35.941
X106.299Y-40.005
X106.426Y-86.995
X106.426Y-88.011
X106.553Y-83.566
X106.807Y-91.186
X107.055Y-47.117
X107.696Y-27.94
X107.696Y-28.829
X107.696Y-88.265
X108.585Y-85.09
X108.839Y-93.726
X109.855Y-93.726
X110.617Y-30.099
X111.506Y-22.352
X111.506Y-25.146
X111.76Y-30.099
X112.014Y-85.09
X114.681Y-21.971
X115.062Y-18.923
X116.078Y-21.336
X116.078Y-88.519
X116.078Y-89.408
X116.586Y-72.263
X117.221Y-14.859
X118.11Y-98.298
X118.364Y-69.469
X118.872Y-86.1
X119.126Y-41.783
X119.126Y-44.704
X119.38Y-72.263
X119.507Y-81.788
X119.634Y-29.083
X119.634Y-40.005
X119.761Y-16.51
X119.761Y-18.288
X120.015Y-69.469
X120.015Y-96.52
X120.523Y-30.353
X120.904Y-34.925
X121.539Y-29.083
X121.666Y-14.859
X121.666Y-23.749
X121.793Y-41.783
X121.793Y-44.704
X121.793Y-72.263
X121.92Y-98.425
X122.428Y-30.353
X122.428Y-34.925
X123.063Y-16.51
X123.19Y-96.52
X124.079Y-34.925
X124.333Y-30.353
X124.46Y-98.425
X124.841Y-39.624
X125.476Y-41.783
X125.603Y-34.925
X125.984Y-14.351
X126.238Y-69.215
X127.Y-41.783
X127.Y-44.704
X127.Y-58.9
X127.127Y-69.215
X127.127Y-85.09
X127.9Y-58.9
X128.016Y-72.263
X128.016Y-74.295
X128.143Y-32.258
X128.778Y-41.783
X128.8Y-58.9
X128.905Y-72.263
X128.905Y-74.295
X129.159Y-32.258
X129.286Y-23.622
X129.794Y-74.295
X129.921Y-30.474
X129.921Y-34.036
X130.175Y-44.704
X130.683Y-74.295
X130.81Y-20.32
X131.445Y-17.526
X131.572Y-87.503
X133.985Y-12.065
X133.985Y-17.526
X133.985Y-30.486
X134.112Y-34.036
X134.112Y-35.052
X134.747Y-71.247
X135.255Y-14.224
X135.636Y-69.723
X135.636Y-70.739
X135.636Y-99.06
X136.525Y-12.065
X136.525Y-17.526
X136.652Y-89.662
X136.779Y-99.06
X137.16Y-74.295
X137.795Y-14.224
X137.795Y-19.939
X137.922Y-89.662
X138.049Y-74.295
X139.065Y-12.065
X139.065Y-17.526
X139.065Y-22.225
X139.192Y-89.662
X139.319Y-31.75
X139.319Y-82.169
X140.208Y-24.003
X140.208Y-71.755
X140.208Y-72.771
X140.335Y-14.224
X140.335Y-19.939
X140.462Y-82.169
X140.462Y-89.662
X141.351Y-31.75
X141.605Y-17.526
X141.605Y-22.225
X141.732Y-89.662
X142.748Y-19.939
X142.748Y-70.993
X142.875Y-24.003
X143.256Y-31.75
X144.145Y-22.225
X144.526Y-71.247
X144.526Y-89.408
X145.415Y-24.003
X145.669Y-19.939
X145.669Y-89.408
X146.685Y-22.225
X146.812Y-89.408
X147.955Y-89.408
X148.082Y-82.169
X149.098Y-82.169
X150.241Y-88.265
X150.241Y-89.408
X151.257Y-89.408
X152.273Y-46.228
X153.035Y-46.99
X154.305Y-36.83
X154.559Y-88.773
X155.575Y-88.773
X156.083Y-41.91
X156.591Y-88.773
X156.718Y-82.169
X156.845Y-36.83
X157.093Y-58.547
X157.226Y-41.91
X157.226Y-43.18
X157.226Y-94.107
X158.369Y-41.91
X158.369Y-43.688
X159.385Y-36.83
X160.401Y-42.037
X161.163Y-50.927
X161.798Y-43.688
X161.925Y-36.83
X161.925Y-94.107
X162.306Y-51.308
X162.941Y-42.037
X162.941Y-94.107
X163.449Y-51.308
X163.957Y-43.688
X164.465Y-36.83
X165.354Y-42.037
X166.751Y-43.688
X167.005Y-36.83
X168.148Y-42.037
X168.529Y-51.816
X168.783Y-83.439
X169.164Y-64.389
X169.545Y-36.83
X169.545Y-43.688
X170.18Y-64.389
X170.307Y-77.597
X170.815Y-42.037
X170.942Y-85.471
X170.942Y-86.36
X171.196Y-64.389
X171.196Y-77.597
X171.577Y-90.805
X171.958Y-43.688
X172.085Y-36.83
X172.085Y-77.597
X172.085Y-87.757
X173.101Y-42.037
X173.222Y-87.757
X173.222Y-88.773
X173.355Y-85.471
X173.355Y-86.36
X174.117Y-43.688
X174.625Y-36.83
X175.387Y-42.037
X176.403Y-43.688
X177.165Y-36.83
X177.927Y-51.435
X179.197Y-51.562
X179.197Y-52.578
X179.324Y-79.248
X179.451Y-80.899
X179.705Y-36.83
X180.213Y-78.613
X180.213Y-79.756
X180.34Y-80.899
X180.848Y-68.453
X180.848Y-69.469
X180.848Y-70.485
X180.848Y-71.501
X181.102Y-95.631
X181.229Y-77.597
X181.229Y-78.613
X181.229Y-79.756
X181.229Y-80.899
X182.245Y-31.75
X182.245Y-34.29
X182.245Y-36.83
X182.245Y-95.631
X183.388Y-95.631
X183.515Y-33.02
X183.769Y-93.726
X184.277Y-39.116
X184.277Y-40.259
X184.277Y-41.529
X184.785Y-31.75
X184.912Y-45.974
X185.42Y-39.116
X185.42Y-40.259
X185.42Y-41.529
X185.547Y-43.053
X185.801Y-65.532
X186.69Y-44.958
X186.69Y-45.974
X186.69Y-71.247
X186.944Y-65.532
X187.579Y-44.958
X187.579Y-45.974
X187.6Y-71.2
X187.706Y-75.565
X188.087Y-65.532
X188.5Y-71.2
X188.595Y-75.565
X188.595Y-76.581
X189.357Y-46.863
X189.992Y-53.721
X190.5Y-46.863
X193.294Y-91.561
X194.31Y-91.561
X195.318Y-91.559
X198.882Y-81.534
X198.882Y-82.423
X198.882Y-83.439
T8
X194.21Y-43.744
X194.21Y-46.244
X194.21Y-48.244
X194.21Y-50.744
T10
X187.071Y-81.661
X194.81Y-32.004
T11
X130.Y-97.5
X146.Y-13.
T12
X103.Y-13.
T13
X192.Y-26.
X195.Y-99.
T6
X102.412Y-34.373G85X101.812Y-34.373
G05
X102.412Y-41.573G85X101.812Y-41.573
G05
X105.882Y-34.373G85X105.282Y-34.373
G05
X105.882Y-41.573G85X105.282Y-41.573
G05
T7
X200.9Y-57.726G85X201.9Y-57.726
G05
X200.9Y-71.776G85X201.9Y-71.776
G05
X205.5Y-57.726G85X206.5Y-57.726
G05
X205.5Y-71.776G85X206.5Y-71.776
G05
T8
X194.11Y-39.394G85X195.51Y-39.394
G05
X194.11Y-55.094G85X195.51Y-55.094
G05
X198.31Y-27.629G85X198.71Y-27.629
G05
X198.31Y-36.379G85X198.71Y-36.379
G05
X204.81Y-27.629G85X205.21Y-27.629
G05
X204.81Y-36.379G85X205.21Y-36.379
G05
T9
X108.7Y-14.2G85X108.7Y-12.2
G05
X111.Y-26.5G85X109.Y-26.5
G05
X115.2Y-29.9G85X115.2Y-27.9
G05
X115.2Y-51.G85X115.2Y-49.
G05
X115.2Y-66.6G85X115.2Y-64.6
G05
X129.7Y-26.5G85X131.7Y-26.5
G05
X132.Y-14.2G85X132.Y-12.2
G05
X149.4Y-74.3G85X151.4Y-74.3
G05
X152.9Y-29.9G85X152.9Y-27.9
G05
T0
M30
