G04 #@! TF.FileFunction,Paste,Top*
%FSLAX46Y46*%
G04 Gerber Fmt 4.6, Leading zero omitted, Abs format (unit mm)*
G04 Created by KiCad (PCBNEW no-vcs-found-undefined) date Tue Nov  8 15:57:13 2016*
%MOMM*%
%LPD*%
G01*
G04 APERTURE LIST*
%ADD10C,0.100000*%
%ADD11C,0.254000*%
%ADD12R,2.600000X2.400000*%
%ADD13R,1.280000X0.230000*%
%ADD14C,0.440000*%
%ADD15R,0.500000X1.300000*%
%ADD16R,1.300000X0.500000*%
%ADD17C,0.500000*%
%ADD18C,0.420000*%
%ADD19C,0.330000*%
%ADD20R,1.700000X1.700000*%
%ADD21R,1.500000X0.800000*%
%ADD22R,5.000000X1.000000*%
%ADD23R,0.400000X1.200000*%
%ADD24R,2.400000X2.800000*%
%ADD25R,0.230000X1.180000*%
%ADD26O,1.524000X1.200000*%
%ADD27C,1.524000*%
%ADD28R,2.400000X2.400000*%
%ADD29O,3.000000X1.524000*%
%ADD30R,0.448400X1.098400*%
%ADD31R,1.298400X0.898400*%
%ADD32R,0.695000X0.220000*%
%ADD33R,0.775000X0.400000*%
%ADD34R,1.611000X0.211000*%
%ADD35R,2.098400X0.498400*%
%ADD36R,2.100000X3.000000*%
%ADD37R,0.800000X1.600000*%
%ADD38R,1.500000X1.600000*%
%ADD39R,1.200000X1.700000*%
%ADD40R,1.600000X1.200000*%
%ADD41R,1.200000X1.600000*%
%ADD42R,0.911000X0.211000*%
%ADD43R,0.211000X0.911000*%
%ADD44R,0.625000X2.000000*%
%ADD45R,2.200000X3.900000*%
%ADD46R,1.600000X0.325000*%
%ADD47R,1.200000X1.400000*%
%ADD48R,1.500000X1.400000*%
%ADD49R,2.000000X1.700000*%
%ADD50R,2.980000X2.380000*%
%ADD51R,0.914400X0.279400*%
%ADD52R,0.914400X0.533400*%
%ADD53R,0.230000X0.605000*%
%ADD54R,1.422400X1.168400*%
%ADD55R,3.200000X2.500000*%
%ADD56R,1.000000X1.100000*%
%ADD57R,2.150000X0.350000*%
%ADD58R,1.050000X1.050000*%
%ADD59R,2.200000X1.050000*%
%ADD60R,3.600000X2.700000*%
%ADD61R,1.016000X1.016000*%
%ADD62R,1.524000X1.270000*%
%ADD63R,1.270000X1.524000*%
%ADD64R,1.778000X2.286000*%
%ADD65R,1.600000X1.800000*%
%ADD66R,1.800000X2.700000*%
%ADD67R,1.168400X1.422400*%
%ADD68R,3.398400X1.498400*%
%ADD69R,4.500000X1.750000*%
%ADD70R,1.750000X4.500000*%
%ADD71R,1.778000X1.524000*%
%ADD72R,0.900000X0.350000*%
%ADD73R,0.800000X0.950000*%
%ADD74R,0.600000X0.350000*%
%ADD75R,0.220000X0.695000*%
%ADD76R,0.400000X0.775000*%
%ADD77R,0.550000X0.500000*%
%ADD78R,0.500000X0.550000*%
%ADD79R,0.914400X0.914400*%
%ADD80R,0.678400X0.398400*%
%ADD81R,1.400000X1.200000*%
%ADD82R,1.700000X2.000000*%
%ADD83R,1.651000X3.683000*%
G04 APERTURE END LIST*
D10*
D11*
X201250000Y-58800000D02*
X201250000Y-70700000D01*
X207000000Y-70700000D02*
X207000000Y-72500000D01*
X207000000Y-54000000D02*
X207000000Y-58800000D01*
X201250000Y-58800000D02*
X207000000Y-58800000D01*
X207000000Y-70700000D02*
X201250000Y-70700000D01*
X207000000Y-35500000D02*
X207000000Y-37700000D01*
X195750000Y-28500000D02*
X195750000Y-35500000D01*
X207000000Y-25500000D02*
X207000000Y-28500000D01*
X195750000Y-28500000D02*
X207000000Y-28500000D01*
X207000000Y-35500000D02*
X195750000Y-35500000D01*
X197000000Y-40500000D02*
X197000000Y-54000000D01*
X203500000Y-37700000D02*
X203500000Y-40500000D01*
X197000000Y-40500000D02*
X203500000Y-40500000D01*
X197000000Y-54000000D02*
X207000000Y-54000000D01*
X203500000Y-37700000D02*
X207000000Y-37700000D01*
X203500000Y-72500000D02*
X207000000Y-72500000D01*
X203500000Y-100000000D02*
X203500000Y-72500000D01*
X181000000Y-25500000D02*
X207000000Y-25500000D01*
X181000000Y-35500000D02*
X181000000Y-25500000D01*
X154000000Y-35500000D02*
X181000000Y-35500000D01*
X154000000Y-25500000D02*
X154000000Y-35500000D01*
X148000000Y-25500000D02*
X154000000Y-25500000D01*
X148000000Y-11000000D02*
X148000000Y-25500000D01*
X100000000Y-11000000D02*
X148000000Y-11000000D01*
X100000000Y-100000000D02*
X100000000Y-11000000D01*
X100000000Y-100000000D02*
X203500000Y-100000000D01*
D12*
X104028000Y-57807000D03*
X104028000Y-81607000D03*
D13*
X106128000Y-59957000D03*
X106128000Y-60457000D03*
X106128000Y-60957000D03*
X106128000Y-61457000D03*
X106128000Y-61957000D03*
X106128000Y-62457000D03*
X106128000Y-62957000D03*
X106128000Y-63457000D03*
X106128000Y-63957000D03*
X106128000Y-64457000D03*
X106128000Y-64957000D03*
X106128000Y-65457000D03*
X106128000Y-65957000D03*
X106128000Y-66457000D03*
X106128000Y-66957000D03*
X106128000Y-67457000D03*
X106128000Y-67957000D03*
X106128000Y-68457000D03*
X106128000Y-68957000D03*
X106128000Y-69457000D03*
X106128000Y-69957000D03*
X106128000Y-70457000D03*
X106128000Y-70957000D03*
X106128000Y-71457000D03*
X106128000Y-71957000D03*
X106128000Y-72457000D03*
X106128000Y-72957000D03*
X106128000Y-73457000D03*
X106128000Y-73957000D03*
X106128000Y-74457000D03*
X106128000Y-74957000D03*
X106128000Y-75457000D03*
X106128000Y-75957000D03*
X106128000Y-76457000D03*
X106128000Y-76957000D03*
X106128000Y-77457000D03*
X106128000Y-77957000D03*
X106128000Y-78457000D03*
X106128000Y-78957000D03*
X106128000Y-79457000D03*
D14*
X155300000Y-72900000D03*
X155300000Y-72100000D03*
X155300000Y-71300000D03*
X155300000Y-70500000D03*
X155300000Y-69700000D03*
X155300000Y-68900000D03*
X155300000Y-68100000D03*
X155300000Y-67300000D03*
X155300000Y-66500000D03*
X156100000Y-72900000D03*
X156100000Y-72100000D03*
X156100000Y-71300000D03*
X156100000Y-70500000D03*
X156100000Y-69700000D03*
X156100000Y-68900000D03*
X156100000Y-68100000D03*
X156100000Y-67300000D03*
X156100000Y-66500000D03*
X156900000Y-72900000D03*
X156900000Y-72100000D03*
X156900000Y-71300000D03*
X156900000Y-70500000D03*
X156900000Y-69700000D03*
X156900000Y-68900000D03*
X156900000Y-68100000D03*
X156900000Y-67300000D03*
X156900000Y-66500000D03*
X157700000Y-72900000D03*
X157700000Y-72100000D03*
X157700000Y-71300000D03*
X157700000Y-70500000D03*
X157700000Y-69700000D03*
X157700000Y-68900000D03*
X157700000Y-68100000D03*
X157700000Y-67300000D03*
X157700000Y-66500000D03*
X158500000Y-72900000D03*
X158500000Y-72100000D03*
X158500000Y-71300000D03*
X158500000Y-70500000D03*
X158500000Y-69700000D03*
X158500000Y-68900000D03*
X158500000Y-68100000D03*
X158500000Y-67300000D03*
X158500000Y-66500000D03*
X159300000Y-72900000D03*
X159300000Y-72100000D03*
X159300000Y-71300000D03*
X159300000Y-70500000D03*
X159300000Y-69700000D03*
X159300000Y-68900000D03*
X159300000Y-68100000D03*
X159300000Y-67300000D03*
X159300000Y-66500000D03*
X160100000Y-72900000D03*
X160100000Y-72100000D03*
X160100000Y-71300000D03*
X160100000Y-70500000D03*
X160100000Y-69700000D03*
X160100000Y-68900000D03*
X160100000Y-68100000D03*
X160100000Y-67300000D03*
X160100000Y-66500000D03*
X160900000Y-72900000D03*
X160900000Y-72100000D03*
X160900000Y-71300000D03*
X160900000Y-70500000D03*
X160900000Y-69700000D03*
X160900000Y-68900000D03*
X160900000Y-68100000D03*
X160900000Y-67300000D03*
X160900000Y-66500000D03*
X161700000Y-72900000D03*
X161700000Y-72100000D03*
X161700000Y-71300000D03*
X161700000Y-70500000D03*
X161700000Y-69700000D03*
X161700000Y-68900000D03*
X161700000Y-68100000D03*
X161700000Y-67300000D03*
X161700000Y-66500000D03*
D15*
X114372000Y-13402000D03*
X115272000Y-13402000D03*
X116172000Y-13402000D03*
X117072000Y-13402000D03*
X117972000Y-13402000D03*
X118872000Y-13402000D03*
X119772000Y-13402000D03*
X120672000Y-13402000D03*
X121572000Y-13402000D03*
X122472000Y-13402000D03*
X123372000Y-13402000D03*
D16*
X124647000Y-14677000D03*
X124647000Y-15577000D03*
X124647000Y-16477000D03*
X124647000Y-17377000D03*
X124647000Y-18277000D03*
X124647000Y-19177000D03*
X124647000Y-20077000D03*
X124647000Y-20977000D03*
X124647000Y-21877000D03*
X124647000Y-22777000D03*
X124647000Y-23677000D03*
D15*
X123372000Y-24952000D03*
X122472000Y-24952000D03*
X121572000Y-24952000D03*
X120672000Y-24952000D03*
X119772000Y-24952000D03*
X118872000Y-24952000D03*
X117972000Y-24952000D03*
X117072000Y-24952000D03*
X116172000Y-24952000D03*
X115272000Y-24952000D03*
X114372000Y-24952000D03*
D16*
X113097000Y-23677000D03*
X113097000Y-22777000D03*
X113097000Y-21877000D03*
X113097000Y-20977000D03*
X113097000Y-20077000D03*
X113097000Y-19177000D03*
X113097000Y-18277000D03*
X113097000Y-17377000D03*
X113097000Y-16477000D03*
X113097000Y-15577000D03*
X113097000Y-14677000D03*
D17*
X136800000Y-29600000D03*
X137800000Y-29600000D03*
X144800000Y-29600000D03*
X145800000Y-29600000D03*
X136800000Y-30600000D03*
X145800000Y-30600000D03*
X137800000Y-32600000D03*
X138800000Y-32600000D03*
X139800000Y-32600000D03*
X140800000Y-32600000D03*
X141800000Y-32600000D03*
X142800000Y-32600000D03*
X143800000Y-32600000D03*
X144800000Y-32600000D03*
X137800000Y-33600000D03*
X138800000Y-33600000D03*
X139800000Y-33600000D03*
X140800000Y-33600000D03*
X141800000Y-33600000D03*
X142800000Y-33600000D03*
X143800000Y-33600000D03*
X144800000Y-33600000D03*
X137800000Y-34600000D03*
X138800000Y-34600000D03*
X139800000Y-34600000D03*
X140800000Y-34600000D03*
X141800000Y-34600000D03*
X142800000Y-34600000D03*
X143800000Y-34600000D03*
X144800000Y-34600000D03*
X137800000Y-35600000D03*
X138800000Y-35600000D03*
X139800000Y-35600000D03*
X140800000Y-35600000D03*
X141800000Y-35600000D03*
X142800000Y-35600000D03*
X143800000Y-35600000D03*
X144800000Y-35600000D03*
X137800000Y-36600000D03*
X138800000Y-36600000D03*
X139800000Y-36600000D03*
X140800000Y-36600000D03*
X141800000Y-36600000D03*
X142800000Y-36600000D03*
X143800000Y-36600000D03*
X144800000Y-36600000D03*
X137800000Y-37600000D03*
X138800000Y-37600000D03*
X139800000Y-37600000D03*
X140800000Y-37600000D03*
X141800000Y-37600000D03*
X142800000Y-37600000D03*
X143800000Y-37600000D03*
X144800000Y-37600000D03*
X137800000Y-38600000D03*
X138800000Y-38600000D03*
X139800000Y-38600000D03*
X140800000Y-38600000D03*
X141800000Y-38600000D03*
X142800000Y-38600000D03*
X143800000Y-38600000D03*
X144800000Y-38600000D03*
X137800000Y-39600000D03*
X138800000Y-39600000D03*
X139800000Y-39600000D03*
X140800000Y-39600000D03*
X141800000Y-39600000D03*
X142800000Y-39600000D03*
X143800000Y-39600000D03*
X144800000Y-39600000D03*
X137800000Y-40600000D03*
X138800000Y-40600000D03*
X139800000Y-40600000D03*
X140800000Y-40600000D03*
X141800000Y-40600000D03*
X142800000Y-40600000D03*
X143800000Y-40600000D03*
X144800000Y-40600000D03*
X137800000Y-41600000D03*
X138800000Y-41600000D03*
X139800000Y-41600000D03*
X140800000Y-41600000D03*
X141800000Y-41600000D03*
X142800000Y-41600000D03*
X143800000Y-41600000D03*
X144800000Y-41600000D03*
X137800000Y-42600000D03*
X138800000Y-42600000D03*
X139800000Y-42600000D03*
X140800000Y-42600000D03*
X141800000Y-42600000D03*
X142800000Y-42600000D03*
X143800000Y-42600000D03*
X144800000Y-42600000D03*
X136800000Y-44600000D03*
X145800000Y-44600000D03*
X136800000Y-45600000D03*
X137800000Y-45600000D03*
X144800000Y-45600000D03*
X145800000Y-45600000D03*
D18*
X118800000Y-53200000D03*
X118800000Y-52400000D03*
X118800000Y-51600000D03*
X118800000Y-48400000D03*
X118800000Y-47600000D03*
X118800000Y-46800000D03*
X119600000Y-53200000D03*
X119600000Y-52400000D03*
X119600000Y-51600000D03*
X119600000Y-48400000D03*
X119600000Y-47600000D03*
X119600000Y-46800000D03*
X120400000Y-53200000D03*
X120400000Y-52400000D03*
X120400000Y-51600000D03*
X120400000Y-48400000D03*
X120400000Y-47600000D03*
X120400000Y-46800000D03*
X121200000Y-53200000D03*
X121200000Y-52400000D03*
X121200000Y-51600000D03*
X121200000Y-48400000D03*
X121200000Y-47600000D03*
X121200000Y-46800000D03*
X122000000Y-53200000D03*
X122000000Y-52400000D03*
X122000000Y-51600000D03*
X122000000Y-48400000D03*
X122000000Y-47600000D03*
X122000000Y-46800000D03*
X122800000Y-53200000D03*
X122800000Y-52400000D03*
X122800000Y-51600000D03*
X122800000Y-48400000D03*
X122800000Y-47600000D03*
X122800000Y-46800000D03*
X123600000Y-53200000D03*
X123600000Y-52400000D03*
X123600000Y-51600000D03*
X123600000Y-48400000D03*
X123600000Y-47600000D03*
X123600000Y-46800000D03*
X124400000Y-53200000D03*
X124400000Y-52400000D03*
X124400000Y-51600000D03*
X124400000Y-48400000D03*
X124400000Y-47600000D03*
X124400000Y-46800000D03*
X125200000Y-53200000D03*
X125200000Y-52400000D03*
X125200000Y-51600000D03*
X125200000Y-48400000D03*
X125200000Y-47600000D03*
X125200000Y-46800000D03*
X126000000Y-53200000D03*
X126000000Y-52400000D03*
X126000000Y-51600000D03*
X126000000Y-48400000D03*
X126000000Y-47600000D03*
X126000000Y-46800000D03*
X126800000Y-53200000D03*
X126800000Y-52400000D03*
X126800000Y-51600000D03*
X126800000Y-48400000D03*
X126800000Y-47600000D03*
X126800000Y-46800000D03*
X127600000Y-53200000D03*
X127600000Y-52400000D03*
X127600000Y-51600000D03*
X127600000Y-48400000D03*
X127600000Y-47600000D03*
X127600000Y-46800000D03*
X128400000Y-53200000D03*
X128400000Y-52400000D03*
X128400000Y-51600000D03*
X128400000Y-48400000D03*
X128400000Y-47600000D03*
X128400000Y-46800000D03*
X129200000Y-53200000D03*
X129200000Y-52400000D03*
X129200000Y-51600000D03*
X129200000Y-48400000D03*
X129200000Y-47600000D03*
X129200000Y-46800000D03*
X130000000Y-53200000D03*
X130000000Y-52400000D03*
X130000000Y-51600000D03*
X130000000Y-48400000D03*
X130000000Y-47600000D03*
X130000000Y-46800000D03*
X130800000Y-53200000D03*
X130800000Y-52400000D03*
X130800000Y-51600000D03*
X130800000Y-48400000D03*
X130800000Y-47600000D03*
X130800000Y-46800000D03*
X118800000Y-67200000D03*
X118800000Y-66400000D03*
X118800000Y-65600000D03*
X118800000Y-62400000D03*
X118800000Y-61600000D03*
X118800000Y-60800000D03*
X119600000Y-67200000D03*
X119600000Y-66400000D03*
X119600000Y-65600000D03*
X119600000Y-62400000D03*
X119600000Y-61600000D03*
X119600000Y-60800000D03*
X120400000Y-67200000D03*
X120400000Y-66400000D03*
X120400000Y-65600000D03*
X120400000Y-62400000D03*
X120400000Y-61600000D03*
X120400000Y-60800000D03*
X121200000Y-67200000D03*
X121200000Y-66400000D03*
X121200000Y-65600000D03*
X121200000Y-62400000D03*
X121200000Y-61600000D03*
X121200000Y-60800000D03*
X122000000Y-67200000D03*
X122000000Y-66400000D03*
X122000000Y-65600000D03*
X122000000Y-62400000D03*
X122000000Y-61600000D03*
X122000000Y-60800000D03*
X122800000Y-67200000D03*
X122800000Y-66400000D03*
X122800000Y-65600000D03*
X122800000Y-62400000D03*
X122800000Y-61600000D03*
X122800000Y-60800000D03*
X123600000Y-67200000D03*
X123600000Y-66400000D03*
X123600000Y-65600000D03*
X123600000Y-62400000D03*
X123600000Y-61600000D03*
X123600000Y-60800000D03*
X124400000Y-67200000D03*
X124400000Y-66400000D03*
X124400000Y-65600000D03*
X124400000Y-62400000D03*
X124400000Y-61600000D03*
X124400000Y-60800000D03*
X125200000Y-67200000D03*
X125200000Y-66400000D03*
X125200000Y-65600000D03*
X125200000Y-62400000D03*
X125200000Y-61600000D03*
X125200000Y-60800000D03*
X126000000Y-67200000D03*
X126000000Y-66400000D03*
X126000000Y-65600000D03*
X126000000Y-62400000D03*
X126000000Y-61600000D03*
X126000000Y-60800000D03*
X126800000Y-67200000D03*
X126800000Y-66400000D03*
X126800000Y-65600000D03*
X126800000Y-62400000D03*
X126800000Y-61600000D03*
X126800000Y-60800000D03*
X127600000Y-67200000D03*
X127600000Y-66400000D03*
X127600000Y-65600000D03*
X127600000Y-62400000D03*
X127600000Y-61600000D03*
X127600000Y-60800000D03*
X128400000Y-67200000D03*
X128400000Y-66400000D03*
X128400000Y-65600000D03*
X128400000Y-62400000D03*
X128400000Y-61600000D03*
X128400000Y-60800000D03*
X129200000Y-67200000D03*
X129200000Y-66400000D03*
X129200000Y-65600000D03*
X129200000Y-62400000D03*
X129200000Y-61600000D03*
X129200000Y-60800000D03*
X130000000Y-67200000D03*
X130000000Y-66400000D03*
X130000000Y-65600000D03*
X130000000Y-62400000D03*
X130000000Y-61600000D03*
X130000000Y-60800000D03*
X130800000Y-67200000D03*
X130800000Y-66400000D03*
X130800000Y-65600000D03*
X130800000Y-62400000D03*
X130800000Y-61600000D03*
X130800000Y-60800000D03*
D19*
X146900000Y-67275000D03*
X146900000Y-66625000D03*
X146900000Y-64675000D03*
X146900000Y-64025000D03*
X146900000Y-62075000D03*
X146900000Y-61425000D03*
X146900000Y-59475000D03*
X146900000Y-57525000D03*
X146900000Y-54925000D03*
X146900000Y-54275000D03*
X146250000Y-67925000D03*
X146250000Y-67275000D03*
X146250000Y-66625000D03*
X146250000Y-65975000D03*
X146250000Y-65325000D03*
X146250000Y-64675000D03*
X146250000Y-63375000D03*
X146250000Y-56875000D03*
X146250000Y-56225000D03*
X146250000Y-55575000D03*
X146250000Y-54925000D03*
X146250000Y-54275000D03*
X146250000Y-53625000D03*
X145600000Y-67925000D03*
X145600000Y-67275000D03*
X145600000Y-66625000D03*
X145600000Y-65975000D03*
X145600000Y-65325000D03*
X145600000Y-64025000D03*
X145600000Y-62725000D03*
X145600000Y-62075000D03*
X145600000Y-61425000D03*
X145600000Y-60775000D03*
X145600000Y-60125000D03*
X145600000Y-59475000D03*
X145600000Y-58825000D03*
X145600000Y-58175000D03*
X145600000Y-57525000D03*
X145600000Y-56875000D03*
X145600000Y-56225000D03*
X145600000Y-55575000D03*
X145600000Y-54925000D03*
X145600000Y-54275000D03*
X145600000Y-53625000D03*
X144950000Y-67275000D03*
X144950000Y-66625000D03*
X144950000Y-64025000D03*
X144950000Y-63375000D03*
X144950000Y-58175000D03*
X144950000Y-54275000D03*
X144300000Y-67925000D03*
X144300000Y-67275000D03*
X144300000Y-66625000D03*
X144300000Y-65975000D03*
X144300000Y-63375000D03*
X144300000Y-62725000D03*
X144300000Y-62075000D03*
X144300000Y-61425000D03*
X144300000Y-60775000D03*
X144300000Y-60125000D03*
X144300000Y-59475000D03*
X144300000Y-58175000D03*
X144300000Y-57525000D03*
X144300000Y-56225000D03*
X144300000Y-55575000D03*
X144300000Y-54925000D03*
X144300000Y-54275000D03*
X144300000Y-53625000D03*
X143650000Y-67925000D03*
X143650000Y-67275000D03*
X143650000Y-66625000D03*
X143650000Y-65975000D03*
X143650000Y-65325000D03*
X143650000Y-62725000D03*
X143650000Y-60775000D03*
X143650000Y-60125000D03*
X143650000Y-58825000D03*
X143650000Y-57525000D03*
X143650000Y-56225000D03*
X143650000Y-55575000D03*
X143650000Y-54925000D03*
X143650000Y-54275000D03*
X143650000Y-53625000D03*
X143000000Y-67275000D03*
X143000000Y-66625000D03*
X143000000Y-58825000D03*
X143000000Y-56875000D03*
X143000000Y-54925000D03*
X143000000Y-54275000D03*
X142350000Y-67925000D03*
X142350000Y-67275000D03*
X142350000Y-66625000D03*
X142350000Y-65975000D03*
X142350000Y-65325000D03*
X142350000Y-56225000D03*
X142350000Y-55575000D03*
X142350000Y-54925000D03*
X142350000Y-54275000D03*
X142350000Y-53625000D03*
X141700000Y-67925000D03*
X141700000Y-67275000D03*
X141700000Y-66625000D03*
X141700000Y-65975000D03*
X141700000Y-65325000D03*
X141700000Y-64675000D03*
X141700000Y-56225000D03*
X141700000Y-55575000D03*
X141700000Y-54925000D03*
X141700000Y-54275000D03*
X141050000Y-67275000D03*
X141050000Y-66625000D03*
X141050000Y-65325000D03*
X141050000Y-64675000D03*
X141050000Y-57525000D03*
X141050000Y-54925000D03*
X141050000Y-54275000D03*
X140400000Y-67925000D03*
X140400000Y-67275000D03*
X140400000Y-66625000D03*
X140400000Y-65975000D03*
X140400000Y-65325000D03*
X140400000Y-61425000D03*
X140400000Y-60125000D03*
X140400000Y-58825000D03*
X140400000Y-57525000D03*
X140400000Y-56225000D03*
X140400000Y-55575000D03*
X140400000Y-54925000D03*
X140400000Y-54275000D03*
X140400000Y-53625000D03*
X139750000Y-67925000D03*
X139750000Y-67275000D03*
X139750000Y-66625000D03*
X139750000Y-65975000D03*
X139750000Y-65325000D03*
X139750000Y-61425000D03*
X139750000Y-60125000D03*
X139750000Y-59475000D03*
X139750000Y-57525000D03*
X139750000Y-56875000D03*
X139750000Y-56225000D03*
X139750000Y-54275000D03*
X139750000Y-53625000D03*
X139100000Y-67275000D03*
X139100000Y-66625000D03*
X139100000Y-65975000D03*
X139100000Y-64675000D03*
X139100000Y-64025000D03*
X139100000Y-63375000D03*
X139100000Y-62075000D03*
X139100000Y-61425000D03*
X139100000Y-60125000D03*
X139100000Y-59475000D03*
X139100000Y-58175000D03*
X139100000Y-54925000D03*
X139100000Y-54275000D03*
X138450000Y-67925000D03*
X138450000Y-67275000D03*
X138450000Y-66625000D03*
X138450000Y-65325000D03*
X138450000Y-64675000D03*
X138450000Y-62075000D03*
X138450000Y-61425000D03*
X138450000Y-59475000D03*
X138450000Y-58175000D03*
X138450000Y-57525000D03*
X138450000Y-56225000D03*
X138450000Y-55575000D03*
X138450000Y-54925000D03*
X138450000Y-54275000D03*
X138450000Y-53625000D03*
X137800000Y-67925000D03*
X137800000Y-67275000D03*
X137800000Y-65975000D03*
X137800000Y-65325000D03*
X137800000Y-64675000D03*
X137800000Y-64025000D03*
X137800000Y-63375000D03*
X137800000Y-62725000D03*
X137800000Y-60775000D03*
X137800000Y-59475000D03*
X137800000Y-57525000D03*
X137800000Y-56225000D03*
X137800000Y-54925000D03*
X137800000Y-54275000D03*
X137800000Y-53625000D03*
X137150000Y-66625000D03*
X137150000Y-65975000D03*
X137150000Y-65325000D03*
X137150000Y-64675000D03*
X137150000Y-63375000D03*
X137150000Y-62725000D03*
X137150000Y-62075000D03*
X137150000Y-61425000D03*
X137150000Y-60125000D03*
X137150000Y-59475000D03*
X137150000Y-58825000D03*
X137150000Y-58175000D03*
X137150000Y-57525000D03*
X137150000Y-56875000D03*
X137150000Y-56225000D03*
X137150000Y-55575000D03*
X137150000Y-54275000D03*
X136500000Y-67925000D03*
X136500000Y-67275000D03*
X136500000Y-65975000D03*
X136500000Y-64675000D03*
X136500000Y-63375000D03*
X136500000Y-62725000D03*
X136500000Y-62075000D03*
X136500000Y-61425000D03*
X136500000Y-60775000D03*
X136500000Y-60125000D03*
X136500000Y-59475000D03*
X136500000Y-58825000D03*
X136500000Y-58175000D03*
X136500000Y-57525000D03*
X136500000Y-56875000D03*
X136500000Y-56225000D03*
X136500000Y-55575000D03*
X136500000Y-54925000D03*
X136500000Y-54275000D03*
X136500000Y-53625000D03*
X135850000Y-67925000D03*
X135850000Y-66625000D03*
X135850000Y-65325000D03*
X135850000Y-64025000D03*
X135850000Y-63375000D03*
X135850000Y-62075000D03*
X135850000Y-61425000D03*
X135850000Y-60125000D03*
X135850000Y-59475000D03*
X135850000Y-58175000D03*
X135850000Y-57525000D03*
X135850000Y-56225000D03*
X135850000Y-55575000D03*
X135850000Y-54275000D03*
X147550000Y-53625000D03*
X147550000Y-54275000D03*
X147550000Y-54925000D03*
X147550000Y-55575000D03*
X147550000Y-56225000D03*
X147550000Y-57525000D03*
X147550000Y-58175000D03*
X147550000Y-59475000D03*
X147550000Y-60125000D03*
X147550000Y-61425000D03*
X147550000Y-62075000D03*
X147550000Y-63375000D03*
X147550000Y-64025000D03*
X147550000Y-65325000D03*
X147550000Y-65975000D03*
X147550000Y-66625000D03*
X147550000Y-67275000D03*
X147550000Y-67925000D03*
X148200000Y-67925000D03*
X148200000Y-67275000D03*
X148200000Y-66625000D03*
X148200000Y-65325000D03*
X148200000Y-64025000D03*
X148200000Y-63375000D03*
X148200000Y-62075000D03*
X148200000Y-61425000D03*
X148200000Y-60125000D03*
X148200000Y-59475000D03*
X148200000Y-58175000D03*
X148200000Y-57525000D03*
X148200000Y-56225000D03*
X148200000Y-55575000D03*
X148200000Y-54925000D03*
X148200000Y-54275000D03*
X148200000Y-53625000D03*
X148850000Y-54275000D03*
X148850000Y-55575000D03*
X148850000Y-56225000D03*
X148850000Y-56875000D03*
X148850000Y-57525000D03*
X148850000Y-58825000D03*
X148850000Y-60775000D03*
X148850000Y-62725000D03*
X148850000Y-63375000D03*
X148850000Y-64025000D03*
X148850000Y-64675000D03*
X148850000Y-65325000D03*
X148850000Y-65975000D03*
X148850000Y-66625000D03*
X148850000Y-67275000D03*
X149500000Y-67925000D03*
X149500000Y-67275000D03*
X149500000Y-66625000D03*
X149500000Y-65975000D03*
X149500000Y-65325000D03*
X149500000Y-64675000D03*
X149500000Y-64025000D03*
X149500000Y-63375000D03*
X149500000Y-62725000D03*
X149500000Y-62075000D03*
X149500000Y-61425000D03*
X149500000Y-60775000D03*
X149500000Y-60125000D03*
X149500000Y-59475000D03*
X149500000Y-58175000D03*
X149500000Y-57525000D03*
X149500000Y-56875000D03*
X149500000Y-56225000D03*
X149500000Y-55575000D03*
X149500000Y-54925000D03*
X149500000Y-54275000D03*
X149500000Y-53625000D03*
X150150000Y-54275000D03*
X150150000Y-55575000D03*
X150150000Y-56225000D03*
X150150000Y-57525000D03*
X150150000Y-58175000D03*
X150150000Y-59475000D03*
X150150000Y-60125000D03*
X150150000Y-61425000D03*
X150150000Y-62075000D03*
X150150000Y-63375000D03*
X150150000Y-64025000D03*
X150150000Y-65325000D03*
X150150000Y-65975000D03*
X150150000Y-67275000D03*
X135850000Y-53625000D03*
X150150000Y-53625000D03*
X137150000Y-54925000D03*
X139750000Y-54925000D03*
X139750000Y-55575000D03*
X139100000Y-57525000D03*
X137800000Y-58175000D03*
X137800000Y-60125000D03*
X138450000Y-60125000D03*
X137150000Y-60775000D03*
X137800000Y-61425000D03*
X144950000Y-58825000D03*
X144950000Y-60125000D03*
X144950000Y-60775000D03*
X144950000Y-61425000D03*
X144950000Y-62725000D03*
X144300000Y-58825000D03*
X143650000Y-58175000D03*
X143650000Y-59475000D03*
X144300000Y-64675000D03*
X143000000Y-64025000D03*
X142350000Y-64025000D03*
X143650000Y-63375000D03*
X143000000Y-63375000D03*
X143000000Y-62725000D03*
X142350000Y-62725000D03*
X143650000Y-62075000D03*
X143650000Y-61425000D03*
X143000000Y-62075000D03*
X143000000Y-61425000D03*
X142350000Y-63375000D03*
X142350000Y-62075000D03*
X142350000Y-61425000D03*
X142350000Y-60775000D03*
X142350000Y-60125000D03*
X142350000Y-59475000D03*
X142350000Y-58825000D03*
X141700000Y-63375000D03*
X141700000Y-58825000D03*
X141700000Y-59475000D03*
X141700000Y-60125000D03*
X141700000Y-60775000D03*
X141700000Y-61425000D03*
X141700000Y-62075000D03*
X141700000Y-62725000D03*
X141050000Y-64025000D03*
X141050000Y-58825000D03*
X141050000Y-63375000D03*
X141050000Y-62725000D03*
X141050000Y-62075000D03*
X141050000Y-61425000D03*
X141050000Y-60775000D03*
X141050000Y-60125000D03*
X141050000Y-59475000D03*
X140400000Y-64675000D03*
X140400000Y-64025000D03*
X140400000Y-63375000D03*
X140400000Y-62725000D03*
X140400000Y-62075000D03*
X139750000Y-64025000D03*
X139750000Y-62725000D03*
X139750000Y-62075000D03*
X138450000Y-62725000D03*
X136500000Y-64025000D03*
X138450000Y-64025000D03*
X139100000Y-62725000D03*
X140400000Y-59475000D03*
X140400000Y-60775000D03*
X142350000Y-57525000D03*
X143000000Y-59475000D03*
X143000000Y-60125000D03*
X143000000Y-60775000D03*
X150150000Y-67925000D03*
D20*
X156845000Y-55168000D03*
X156845000Y-60148000D03*
D21*
X154483000Y-40811000D03*
X157683000Y-40811000D03*
X157683000Y-46311000D03*
X154483000Y-46311000D03*
D22*
X166807000Y-46515000D03*
X173807000Y-46515000D03*
D23*
X178432000Y-49765000D03*
X162182000Y-49765000D03*
D24*
X160507000Y-47115000D03*
X180107000Y-47115000D03*
D25*
X163057000Y-49765000D03*
X163557000Y-49765000D03*
X164057000Y-49765000D03*
X164557000Y-49765000D03*
X165057000Y-49765000D03*
X165557000Y-49765000D03*
X166057000Y-49765000D03*
X166557000Y-49765000D03*
X167057000Y-49765000D03*
X167557000Y-49765000D03*
X168057000Y-49765000D03*
X168557000Y-49765000D03*
X169057000Y-49765000D03*
X169557000Y-49765000D03*
X170057000Y-49765000D03*
X170557000Y-49765000D03*
X171057000Y-49765000D03*
X171557000Y-49765000D03*
X172057000Y-49765000D03*
X172557000Y-49765000D03*
X173057000Y-49765000D03*
X173557000Y-49765000D03*
X174057000Y-49765000D03*
X174557000Y-49765000D03*
X175057000Y-49765000D03*
X175557000Y-49765000D03*
X176057000Y-49765000D03*
X176557000Y-49765000D03*
X177057000Y-49765000D03*
X177557000Y-49765000D03*
D26*
X205010000Y-27629000D03*
X198510000Y-27629000D03*
X198510000Y-36379000D03*
X205010000Y-36379000D03*
D27*
X194810000Y-32004000D03*
D28*
X199610000Y-39244000D03*
X199610000Y-55244000D03*
D29*
X194810000Y-39394000D03*
X194810000Y-55094000D03*
D27*
X194210000Y-43744000D03*
X194210000Y-46244000D03*
X194210000Y-48244000D03*
X194210000Y-50744000D03*
D30*
X188407000Y-48163000D03*
X189357000Y-48163000D03*
X190307000Y-48163000D03*
X188407000Y-45563000D03*
X190307000Y-45563000D03*
D31*
X191043560Y-62169040D03*
X191043560Y-64071500D03*
X193253360Y-63116460D03*
D32*
X196906500Y-59452000D03*
X196906500Y-59952000D03*
D33*
X196856500Y-60452000D03*
D32*
X196906500Y-60952000D03*
X196906500Y-61452000D03*
X196031500Y-61452000D03*
X196031500Y-60952000D03*
D33*
X196081500Y-60452000D03*
D32*
X196031500Y-59952000D03*
X196031500Y-59452000D03*
D34*
X200300000Y-68351000D03*
X200300000Y-67951000D03*
X200300000Y-67551000D03*
X200300000Y-67151000D03*
X200300000Y-66751000D03*
X200300000Y-66351000D03*
X200300000Y-65951000D03*
X200300000Y-65551000D03*
X200300000Y-65151000D03*
X200300000Y-64751000D03*
X200300000Y-64351000D03*
X200300000Y-63951000D03*
X200300000Y-63551000D03*
X200300000Y-63151000D03*
X200300000Y-62751000D03*
X200300000Y-62351000D03*
X200300000Y-61951000D03*
X200300000Y-61551000D03*
X200300000Y-61151000D03*
D35*
X164906000Y-94234000D03*
X164906000Y-95504000D03*
X164906000Y-96774000D03*
X164906000Y-98044000D03*
X159706000Y-98044000D03*
X159706000Y-96774000D03*
X159706000Y-95504000D03*
X159706000Y-94234000D03*
D36*
X177544000Y-97052000D03*
X170944000Y-97052000D03*
D37*
X174994000Y-94152000D03*
X173494000Y-94152000D03*
D38*
X188821000Y-83461000D03*
D39*
X187071000Y-83411000D03*
D38*
X185321000Y-83461000D03*
D40*
X188871000Y-81661000D03*
X185271000Y-81661000D03*
D38*
X188821000Y-79861000D03*
D41*
X187071000Y-79861000D03*
D38*
X185321000Y-79861000D03*
D42*
X183071000Y-84861000D03*
X183071000Y-84461000D03*
X183071000Y-84061000D03*
X183071000Y-83661000D03*
X183071000Y-83261000D03*
X183071000Y-82861000D03*
X183071000Y-82461000D03*
X183071000Y-82061000D03*
X183071000Y-81661000D03*
X183071000Y-81261000D03*
X183071000Y-80861000D03*
X183071000Y-80461000D03*
X183071000Y-80061000D03*
X183071000Y-79661000D03*
X183071000Y-79261000D03*
X183071000Y-78861000D03*
X183071000Y-78461000D03*
D43*
X183871000Y-77661000D03*
X184271000Y-77661000D03*
X184671000Y-77661000D03*
X185071000Y-77661000D03*
X185471000Y-77661000D03*
X185871000Y-77661000D03*
X186271000Y-77661000D03*
X186671000Y-77661000D03*
X187071000Y-77661000D03*
X187471000Y-77661000D03*
X187871000Y-77661000D03*
X188271000Y-77661000D03*
X188671000Y-77661000D03*
X189071000Y-77661000D03*
X189471000Y-77661000D03*
X189871000Y-77661000D03*
X190271000Y-77661000D03*
D42*
X191071000Y-78461000D03*
X191071000Y-78861000D03*
X191071000Y-79261000D03*
X191071000Y-79661000D03*
X191071000Y-80061000D03*
X191071000Y-80461000D03*
X191071000Y-80861000D03*
X191071000Y-81261000D03*
X191071000Y-81661000D03*
X191071000Y-82061000D03*
X191071000Y-82461000D03*
X191071000Y-82861000D03*
X191071000Y-83261000D03*
X191071000Y-83661000D03*
X191071000Y-84061000D03*
X191071000Y-84461000D03*
X191071000Y-84861000D03*
D43*
X190271000Y-85661000D03*
X189871000Y-85661000D03*
X189471000Y-85661000D03*
X189071000Y-85661000D03*
X188671000Y-85661000D03*
X188271000Y-85661000D03*
X187871000Y-85661000D03*
X187471000Y-85661000D03*
X187071000Y-85661000D03*
X186671000Y-85661000D03*
X186271000Y-85661000D03*
X185871000Y-85661000D03*
X185471000Y-85661000D03*
X185071000Y-85661000D03*
X184671000Y-85661000D03*
X184271000Y-85661000D03*
X183871000Y-85661000D03*
D44*
X138000000Y-91450000D03*
X139250000Y-91450000D03*
X140500000Y-91450000D03*
X141750000Y-91450000D03*
X143000000Y-91450000D03*
X144250000Y-91450000D03*
X145500000Y-91450000D03*
X146750000Y-91450000D03*
X148000000Y-91450000D03*
D45*
X134900000Y-96400000D03*
X151100000Y-96400000D03*
D46*
X133186000Y-80484000D03*
X133186000Y-81134000D03*
X133186000Y-81784000D03*
X133186000Y-82434000D03*
X133186000Y-83084000D03*
X133186000Y-83734000D03*
X133186000Y-84384000D03*
X133186000Y-85034000D03*
X133186000Y-85684000D03*
X133186000Y-86334000D03*
X133186000Y-86984000D03*
X133186000Y-87634000D03*
X133186000Y-88284000D03*
X133186000Y-88934000D03*
X125386000Y-88934000D03*
X125386000Y-88284000D03*
X125386000Y-87634000D03*
X125386000Y-86984000D03*
X125386000Y-86334000D03*
X125386000Y-85684000D03*
X125386000Y-85034000D03*
X125386000Y-84384000D03*
X125386000Y-83734000D03*
X125386000Y-83084000D03*
X125386000Y-82434000D03*
X125386000Y-81784000D03*
X125386000Y-81134000D03*
X125386000Y-80484000D03*
D47*
X121704000Y-83990000D03*
X120104000Y-86190000D03*
X121704000Y-86190000D03*
X120104000Y-83990000D03*
D48*
X118100000Y-97000000D03*
X113900000Y-97000000D03*
D49*
X111720000Y-93726000D03*
X106720000Y-93726000D03*
D50*
X102779000Y-85901000D03*
D13*
X105029000Y-90551000D03*
X105029000Y-90051000D03*
X105029000Y-89551000D03*
X105029000Y-89051000D03*
X105029000Y-88551000D03*
X105029000Y-88051000D03*
D50*
X102779000Y-92701000D03*
D35*
X110303000Y-86360000D03*
X110303000Y-85090000D03*
X110303000Y-83820000D03*
X110303000Y-82550000D03*
X115503000Y-82550000D03*
X115503000Y-83820000D03*
X115503000Y-85090000D03*
X115503000Y-86360000D03*
D51*
X113157000Y-73025000D03*
X113157000Y-73787000D03*
X111633000Y-73025000D03*
X111633000Y-73787000D03*
D52*
X113157000Y-72136000D03*
X111633000Y-72136000D03*
X113157000Y-74676000D03*
X111633000Y-74676000D03*
D53*
X112764000Y-58161500D03*
X112764000Y-59186500D03*
X112264000Y-58161500D03*
X112264000Y-59186500D03*
X111764000Y-58161500D03*
X111764000Y-59186500D03*
X111264000Y-58161500D03*
X111264000Y-59186500D03*
D54*
X109728000Y-35941000D03*
X107696000Y-35941000D03*
D30*
X110810000Y-31399000D03*
X111760000Y-31399000D03*
X112710000Y-31399000D03*
X110810000Y-28799000D03*
X112710000Y-28799000D03*
D13*
X105763000Y-47034000D03*
X105763000Y-47534000D03*
X105763000Y-48034000D03*
X105763000Y-48534000D03*
X105763000Y-49034000D03*
X105763000Y-49534000D03*
D55*
X103663000Y-44884000D03*
X103663000Y-54684000D03*
D13*
X105763000Y-50034000D03*
X105763000Y-50534000D03*
X105763000Y-51034000D03*
X105763000Y-51534000D03*
X105763000Y-52034000D03*
X105763000Y-52534000D03*
D56*
X100962000Y-39473000D03*
X100962000Y-36473000D03*
D57*
X105262000Y-39273000D03*
X105262000Y-38623000D03*
X105262000Y-37973000D03*
X105262000Y-37323000D03*
X105262000Y-36673000D03*
D50*
X102965000Y-24600000D03*
D13*
X105215000Y-29250000D03*
X105215000Y-28750000D03*
X105215000Y-28250000D03*
X105215000Y-27750000D03*
X105215000Y-27250000D03*
X105215000Y-26750000D03*
D50*
X102965000Y-31400000D03*
D58*
X104471600Y-20624800D03*
D59*
X102971600Y-19124800D03*
X102971600Y-22124800D03*
D60*
X162941000Y-81360000D03*
X162941000Y-91360000D03*
X177546000Y-66722000D03*
X177546000Y-56722000D03*
D61*
X154432000Y-76962000D03*
X156210000Y-76962000D03*
X181991000Y-92710000D03*
X181991000Y-90932000D03*
X130175000Y-70485000D03*
X130175000Y-72263000D03*
X130175000Y-43561000D03*
X130175000Y-41783000D03*
X120523000Y-70485000D03*
X120523000Y-72263000D03*
X123063000Y-43561000D03*
X123063000Y-41783000D03*
X124968000Y-70485000D03*
X124968000Y-72263000D03*
X131699000Y-43561000D03*
X131699000Y-41783000D03*
X151257000Y-34290000D03*
X149479000Y-34290000D03*
X131064000Y-30480000D03*
X132842000Y-30480000D03*
X132842000Y-34036000D03*
X131064000Y-34036000D03*
X132842000Y-35560000D03*
X131064000Y-35560000D03*
X115189000Y-78740000D03*
X115189000Y-76962000D03*
X151130000Y-49403000D03*
X151130000Y-51181000D03*
X149479000Y-44958000D03*
X151257000Y-44958000D03*
X145796000Y-51181000D03*
X145796000Y-49403000D03*
X142748000Y-47879000D03*
X144526000Y-47879000D03*
X147193000Y-51181000D03*
X147193000Y-49403000D03*
X147574000Y-47879000D03*
X145796000Y-47879000D03*
X111887000Y-80518000D03*
X113665000Y-80518000D03*
X142748000Y-50927000D03*
X142748000Y-49149000D03*
X139700000Y-47879000D03*
X141478000Y-47879000D03*
D62*
X111506000Y-70231000D03*
X111506000Y-68199000D03*
D63*
X185801000Y-49911000D03*
X187833000Y-49911000D03*
X113538000Y-33909000D03*
X111506000Y-33909000D03*
X113538000Y-35941000D03*
X111506000Y-35941000D03*
D62*
X108966000Y-28448000D03*
X108966000Y-30480000D03*
D61*
X137033000Y-83439000D03*
X138811000Y-83439000D03*
D63*
X185801000Y-51943000D03*
X187833000Y-51943000D03*
X186944000Y-43561000D03*
X188976000Y-43561000D03*
D61*
X128143000Y-23241000D03*
X128143000Y-25019000D03*
X110236000Y-24638000D03*
X110236000Y-22860000D03*
X156210000Y-80264000D03*
X154432000Y-80264000D03*
X118237000Y-81280000D03*
X116459000Y-81280000D03*
X199009000Y-92710000D03*
X200787000Y-92710000D03*
X117729000Y-84074000D03*
X117729000Y-85852000D03*
X160528000Y-62103000D03*
X160528000Y-60325000D03*
D63*
X188976000Y-39497000D03*
X186944000Y-39497000D03*
X188976000Y-41529000D03*
X186944000Y-41529000D03*
D61*
X151257000Y-41402000D03*
X149479000Y-41402000D03*
X178181000Y-80772000D03*
X176403000Y-80772000D03*
X200152000Y-80899000D03*
X200152000Y-82677000D03*
X180086000Y-77597000D03*
X178308000Y-77597000D03*
X200279000Y-85217000D03*
X200279000Y-86995000D03*
X197104000Y-85217000D03*
X195326000Y-85217000D03*
X178181000Y-79248000D03*
X176403000Y-79248000D03*
X177800000Y-69723000D03*
X179578000Y-69723000D03*
X177800000Y-71247000D03*
X179578000Y-71247000D03*
X186944000Y-72136000D03*
X186944000Y-73914000D03*
X172212000Y-83947000D03*
X172212000Y-85725000D03*
X186436000Y-66675000D03*
X186436000Y-68453000D03*
X139192000Y-71247000D03*
X137414000Y-71247000D03*
X172212000Y-82677000D03*
X170434000Y-82677000D03*
X184912000Y-66675000D03*
X184912000Y-68453000D03*
X153797000Y-92202000D03*
X155575000Y-92202000D03*
X131699000Y-71247000D03*
X133477000Y-71247000D03*
X147320000Y-88138000D03*
X149098000Y-88138000D03*
X172212000Y-81153000D03*
X170434000Y-81153000D03*
X188341000Y-72136000D03*
X188341000Y-73914000D03*
X139192000Y-72771000D03*
X137414000Y-72771000D03*
X180467000Y-87757000D03*
X178689000Y-87757000D03*
X131699000Y-72771000D03*
X133477000Y-72771000D03*
X194945000Y-74168000D03*
X194945000Y-72390000D03*
X180848000Y-94234000D03*
X182626000Y-94234000D03*
X196469000Y-74168000D03*
X196469000Y-72390000D03*
X180340000Y-74803000D03*
X180340000Y-73025000D03*
X183261000Y-92075000D03*
X183261000Y-90297000D03*
X197739000Y-92710000D03*
X195961000Y-92710000D03*
X192405000Y-88519000D03*
X192405000Y-90297000D03*
X193929000Y-90297000D03*
X193929000Y-88519000D03*
X143637000Y-72771000D03*
X143637000Y-70993000D03*
X198501000Y-85217000D03*
X198501000Y-86995000D03*
X198120000Y-90297000D03*
X198120000Y-88519000D03*
X145415000Y-72771000D03*
X145415000Y-70993000D03*
X196723000Y-90297000D03*
X196723000Y-88519000D03*
X195326000Y-90297000D03*
X195326000Y-88519000D03*
X145415000Y-69723000D03*
X143637000Y-69723000D03*
X175133000Y-87757000D03*
X176911000Y-87757000D03*
X141859000Y-72771000D03*
X141859000Y-70993000D03*
X193929000Y-78359000D03*
X195707000Y-78359000D03*
X178181000Y-89281000D03*
X179959000Y-89281000D03*
X200152000Y-78740000D03*
X200152000Y-76962000D03*
X174498000Y-89281000D03*
X176276000Y-89281000D03*
X198628000Y-78740000D03*
X198628000Y-76962000D03*
X175133000Y-90805000D03*
X176911000Y-90805000D03*
X197104000Y-78740000D03*
X197104000Y-76962000D03*
X179197000Y-92710000D03*
X179197000Y-90932000D03*
X180594000Y-92710000D03*
X180594000Y-90932000D03*
D63*
X141605000Y-88011000D03*
X139573000Y-88011000D03*
D61*
X178816000Y-73025000D03*
X178816000Y-74803000D03*
X198882000Y-75565000D03*
X197104000Y-75565000D03*
X154559000Y-62103000D03*
X156337000Y-62103000D03*
X151257000Y-43307000D03*
X149479000Y-43307000D03*
X148590000Y-49403000D03*
X148590000Y-51181000D03*
X155575000Y-97917000D03*
X153797000Y-97917000D03*
X157480000Y-96139000D03*
X155702000Y-96139000D03*
D64*
X191407000Y-36703000D03*
X187053000Y-36703000D03*
D49*
X151297000Y-85090000D03*
X156297000Y-85090000D03*
D65*
X193926000Y-69342000D03*
X196726000Y-69342000D03*
D66*
X187030000Y-32766000D03*
X191430000Y-32766000D03*
D54*
X132588000Y-32258000D03*
X130556000Y-32258000D03*
D67*
X113538000Y-70231000D03*
X113538000Y-68199000D03*
X111633000Y-63119000D03*
X111633000Y-61087000D03*
X113411000Y-63119000D03*
X113411000Y-61087000D03*
D54*
X191643000Y-51943000D03*
X189611000Y-51943000D03*
X191770000Y-55118000D03*
X189738000Y-55118000D03*
X135255000Y-78867000D03*
X137287000Y-78867000D03*
D67*
X170434000Y-88519000D03*
X170434000Y-90551000D03*
D68*
X196215000Y-81223000D03*
X196215000Y-83623000D03*
D69*
X183642000Y-74371000D03*
X183642000Y-71171000D03*
X191643000Y-75387000D03*
X191643000Y-72187000D03*
D70*
X176962000Y-84709000D03*
X180162000Y-84709000D03*
D68*
X185928000Y-89732000D03*
X185928000Y-92132000D03*
X189738000Y-89986000D03*
X189738000Y-92386000D03*
D71*
X174752000Y-83312000D03*
X174752000Y-86106000D03*
D72*
X172931000Y-79644000D03*
X172931000Y-78994000D03*
X172931000Y-78344000D03*
X170731000Y-78344000D03*
X170731000Y-78994000D03*
X170731000Y-79644000D03*
D73*
X171831000Y-79344000D03*
D74*
X171831000Y-78344000D03*
D75*
X176895000Y-52140500D03*
X176395000Y-52140500D03*
D76*
X175895000Y-52190500D03*
D75*
X175395000Y-52140500D03*
X174895000Y-52140500D03*
X174895000Y-53015500D03*
X175395000Y-53015500D03*
D76*
X175895000Y-52965500D03*
D75*
X176395000Y-53015500D03*
X176895000Y-53015500D03*
D32*
X196031500Y-62373000D03*
X196031500Y-62873000D03*
D33*
X196081500Y-63373000D03*
D32*
X196031500Y-63873000D03*
X196031500Y-64373000D03*
X196906500Y-64373000D03*
X196906500Y-63873000D03*
D33*
X196856500Y-63373000D03*
D32*
X196906500Y-62873000D03*
X196906500Y-62373000D03*
X196031500Y-65675000D03*
X196031500Y-66175000D03*
D33*
X196081500Y-66675000D03*
D32*
X196031500Y-67175000D03*
X196031500Y-67675000D03*
X196906500Y-67675000D03*
X196906500Y-67175000D03*
D33*
X196856500Y-66675000D03*
D32*
X196906500Y-66175000D03*
X196906500Y-65675000D03*
D30*
X156525000Y-87472900D03*
X155575000Y-87472900D03*
X154625000Y-87472900D03*
X154625000Y-90073100D03*
X155575000Y-90073100D03*
X156525000Y-90073100D03*
D75*
X173974000Y-52140500D03*
X173474000Y-52140500D03*
D76*
X172974000Y-52190500D03*
D75*
X172474000Y-52140500D03*
X171974000Y-52140500D03*
X171974000Y-53015500D03*
X172474000Y-53015500D03*
D76*
X172974000Y-52965500D03*
D75*
X173474000Y-53015500D03*
X173974000Y-53015500D03*
D30*
X171130000Y-63088900D03*
X170180000Y-63088900D03*
X169230000Y-63088900D03*
X169230000Y-65689100D03*
X170180000Y-65689100D03*
X171130000Y-65689100D03*
D48*
X141478000Y-78232000D03*
X145678000Y-78232000D03*
D77*
X126238000Y-70231000D03*
X126238000Y-71247000D03*
X127127000Y-70231000D03*
X127127000Y-71247000D03*
X128016000Y-70231000D03*
X128016000Y-71247000D03*
X128905000Y-70231000D03*
X128905000Y-71247000D03*
X126111000Y-43815000D03*
X126111000Y-42799000D03*
X127000000Y-43815000D03*
X127000000Y-42799000D03*
X127889000Y-43815000D03*
X127889000Y-42799000D03*
X128778000Y-43815000D03*
X128778000Y-42799000D03*
X122428000Y-39624000D03*
X122428000Y-40640000D03*
X116586000Y-70231000D03*
X116586000Y-71247000D03*
X117475000Y-70231000D03*
X117475000Y-71247000D03*
X118364000Y-70231000D03*
X118364000Y-71247000D03*
X119253000Y-70231000D03*
X119253000Y-71247000D03*
X119126000Y-43815000D03*
X119126000Y-42799000D03*
X120015000Y-43815000D03*
X120015000Y-42799000D03*
X120904000Y-43815000D03*
X120904000Y-42799000D03*
X121793000Y-43815000D03*
X121793000Y-42799000D03*
X121539000Y-40640000D03*
X121539000Y-39624000D03*
X121793000Y-70231000D03*
X121793000Y-71247000D03*
X125222000Y-43815000D03*
X125222000Y-42799000D03*
X127254000Y-40640000D03*
X127254000Y-39624000D03*
X128143000Y-39624000D03*
X128143000Y-40640000D03*
X107569000Y-56007000D03*
X107569000Y-57023000D03*
X108458000Y-56007000D03*
X108458000Y-57023000D03*
X144526000Y-51435000D03*
X144526000Y-50419000D03*
D78*
X112268000Y-77470000D03*
X113284000Y-77470000D03*
X112268000Y-78359000D03*
X113284000Y-78359000D03*
D77*
X111760000Y-56007000D03*
X111760000Y-57023000D03*
X112649000Y-56007000D03*
X112649000Y-57023000D03*
D78*
X108204000Y-34544000D03*
X109220000Y-34544000D03*
X112522000Y-42037000D03*
X111506000Y-42037000D03*
X190119000Y-50419000D03*
X191135000Y-50419000D03*
X124079000Y-79756000D03*
X123063000Y-79756000D03*
D77*
X134874000Y-88519000D03*
X134874000Y-89535000D03*
D78*
X123063000Y-82296000D03*
X122047000Y-82296000D03*
D77*
X135763000Y-85471000D03*
X135763000Y-84455000D03*
D78*
X120777000Y-82550000D03*
X119761000Y-82550000D03*
D77*
X126492000Y-24003000D03*
X126492000Y-25019000D03*
X111506000Y-24257000D03*
X111506000Y-23241000D03*
D78*
X120777000Y-87630000D03*
X119761000Y-87630000D03*
X168402000Y-70358000D03*
X167386000Y-70358000D03*
X171958000Y-70358000D03*
X170942000Y-70358000D03*
D77*
X110998000Y-15621000D03*
X110998000Y-16637000D03*
D78*
X109982000Y-17526000D03*
X110998000Y-17526000D03*
D77*
X110998000Y-21209000D03*
X110998000Y-20193000D03*
D78*
X132207000Y-69850000D03*
X133223000Y-69850000D03*
X176911000Y-77724000D03*
X175895000Y-77724000D03*
X156591000Y-48387000D03*
X157607000Y-48387000D03*
X155575000Y-48387000D03*
X154559000Y-48387000D03*
D77*
X154432000Y-59690000D03*
X154432000Y-58674000D03*
X154432000Y-56642000D03*
X154432000Y-55626000D03*
D78*
X109347000Y-81407000D03*
X110363000Y-81407000D03*
D77*
X167132000Y-97536000D03*
X167132000Y-98552000D03*
X110998000Y-18415000D03*
X110998000Y-19431000D03*
D78*
X117475000Y-47625000D03*
X116459000Y-47625000D03*
D77*
X123317000Y-40640000D03*
X123317000Y-39624000D03*
D78*
X124333000Y-40640000D03*
X125349000Y-40640000D03*
D77*
X132207000Y-68961000D03*
X132207000Y-67945000D03*
X120650000Y-39624000D03*
X120650000Y-40640000D03*
X123571000Y-70231000D03*
X123571000Y-71247000D03*
X117983000Y-56134000D03*
X117983000Y-57150000D03*
X126365000Y-40640000D03*
X126365000Y-39624000D03*
X129032000Y-39624000D03*
X129032000Y-40640000D03*
X122682000Y-70231000D03*
X122682000Y-71247000D03*
X118999000Y-56134000D03*
X118999000Y-57150000D03*
X109982000Y-57023000D03*
X109982000Y-56007000D03*
D78*
X169164000Y-70358000D03*
X170180000Y-70358000D03*
X133096000Y-37973000D03*
X132080000Y-37973000D03*
X150368000Y-36703000D03*
X151384000Y-36703000D03*
X142875000Y-88646000D03*
X143891000Y-88646000D03*
X112268000Y-76581000D03*
X113284000Y-76581000D03*
D77*
X111379000Y-77470000D03*
X111379000Y-76454000D03*
D78*
X143764000Y-49530000D03*
X144780000Y-49530000D03*
X112268000Y-79248000D03*
X113284000Y-79248000D03*
D77*
X111379000Y-78359000D03*
X111379000Y-79375000D03*
X108966000Y-67564000D03*
X108966000Y-66548000D03*
X109855000Y-67564000D03*
X109855000Y-66548000D03*
X110871000Y-57023000D03*
X110871000Y-56007000D03*
D78*
X108712000Y-71374000D03*
X109728000Y-71374000D03*
X111506000Y-38735000D03*
X112522000Y-38735000D03*
D77*
X113792000Y-58547000D03*
X113792000Y-59563000D03*
D78*
X109347000Y-40259000D03*
X110363000Y-40259000D03*
X111506000Y-40259000D03*
X112522000Y-40259000D03*
X123698000Y-91821000D03*
X124714000Y-91821000D03*
D77*
X113919000Y-29718000D03*
X113919000Y-28702000D03*
X113919000Y-30480000D03*
X113919000Y-31496000D03*
D78*
X112522000Y-41148000D03*
X111506000Y-41148000D03*
X135763000Y-87503000D03*
X134747000Y-87503000D03*
X135763000Y-86614000D03*
X134747000Y-86614000D03*
D77*
X189611000Y-62611000D03*
X189611000Y-63627000D03*
D78*
X193294000Y-65786000D03*
X194310000Y-65786000D03*
X190119000Y-49530000D03*
X191135000Y-49530000D03*
X193294000Y-66675000D03*
X194310000Y-66675000D03*
X194310000Y-67564000D03*
X193294000Y-67564000D03*
D77*
X151511000Y-66167000D03*
X151511000Y-65151000D03*
D78*
X132080000Y-28956000D03*
X131064000Y-28956000D03*
X125349000Y-29845000D03*
X126365000Y-29845000D03*
X149352000Y-29845000D03*
X150368000Y-29845000D03*
X109347000Y-80518000D03*
X110363000Y-80518000D03*
D77*
X126492000Y-22860000D03*
X126492000Y-21844000D03*
D78*
X128270000Y-21971000D03*
X129286000Y-21971000D03*
X117221000Y-82550000D03*
X118237000Y-82550000D03*
D77*
X168275000Y-97536000D03*
X168275000Y-98552000D03*
D78*
X157734000Y-98044000D03*
X156718000Y-98044000D03*
X133096000Y-36957000D03*
X132080000Y-36957000D03*
X112522000Y-37846000D03*
X111506000Y-37846000D03*
X143891000Y-25273000D03*
X142875000Y-25273000D03*
X108585000Y-50927000D03*
X107569000Y-50927000D03*
D77*
X109601000Y-51181000D03*
X109601000Y-50165000D03*
D78*
X152273000Y-87249000D03*
X153289000Y-87249000D03*
X153289000Y-88138000D03*
X152273000Y-88138000D03*
X141097000Y-25273000D03*
X140081000Y-25273000D03*
X176911000Y-76835000D03*
X175895000Y-76835000D03*
X113919000Y-94742000D03*
X114935000Y-94742000D03*
D77*
X174752000Y-76708000D03*
X174752000Y-77724000D03*
D78*
X175895000Y-75946000D03*
X176911000Y-75946000D03*
X156591000Y-49403000D03*
X155575000Y-49403000D03*
X113919000Y-93345000D03*
X114935000Y-93345000D03*
D77*
X147574000Y-76581000D03*
X147574000Y-77597000D03*
X148463000Y-76581000D03*
X148463000Y-77597000D03*
D78*
X150368000Y-35814000D03*
X151384000Y-35814000D03*
X150368000Y-37592000D03*
X151384000Y-37592000D03*
D61*
X125476000Y-90551000D03*
X123698000Y-90551000D03*
D78*
X163449000Y-65532000D03*
X164465000Y-65532000D03*
X163449000Y-73025000D03*
X164465000Y-73025000D03*
D79*
X151384000Y-47879000D03*
X149606000Y-47879000D03*
D80*
X150495000Y-47879000D03*
D61*
X164592000Y-75057000D03*
X162814000Y-75057000D03*
X159639000Y-75057000D03*
X161417000Y-75057000D03*
X154432000Y-78740000D03*
X156210000Y-78740000D03*
X138811000Y-85471000D03*
X137033000Y-85471000D03*
X156464000Y-75057000D03*
X158242000Y-75057000D03*
X163830000Y-76962000D03*
X163830000Y-78740000D03*
X165354000Y-78740000D03*
X165354000Y-76962000D03*
D78*
X169545000Y-53721000D03*
X170561000Y-53721000D03*
X163830000Y-62992000D03*
X162814000Y-62992000D03*
X163830000Y-63881000D03*
X162814000Y-63881000D03*
D61*
X168402000Y-67564000D03*
X170180000Y-67564000D03*
D63*
X164465000Y-53213000D03*
X162433000Y-53213000D03*
D78*
X163449000Y-67183000D03*
X164465000Y-67183000D03*
X164465000Y-68072000D03*
X163449000Y-68072000D03*
X163449000Y-69596000D03*
X164465000Y-69596000D03*
X164465000Y-70485000D03*
X163449000Y-70485000D03*
X167132000Y-59309000D03*
X166116000Y-59309000D03*
X165481000Y-58420000D03*
X166497000Y-58420000D03*
X163449000Y-71755000D03*
X164465000Y-71755000D03*
X120777000Y-88900000D03*
X119761000Y-88900000D03*
X119761000Y-89789000D03*
X120777000Y-89789000D03*
D77*
X134874000Y-80899000D03*
X134874000Y-81915000D03*
X135763000Y-80899000D03*
X135763000Y-81915000D03*
D78*
X119761000Y-90932000D03*
X120777000Y-90932000D03*
X120777000Y-91821000D03*
X119761000Y-91821000D03*
X121666000Y-80645000D03*
X120650000Y-80645000D03*
D79*
X157734000Y-78740000D03*
X157734000Y-76962000D03*
X159258000Y-76962000D03*
X159258000Y-78740000D03*
X160782000Y-78740000D03*
X160782000Y-76962000D03*
X162306000Y-76962000D03*
X162306000Y-78740000D03*
X179832000Y-54102000D03*
X178054000Y-54102000D03*
D63*
X168275000Y-53213000D03*
X166243000Y-53213000D03*
D81*
X170010000Y-73317000D03*
X167810000Y-71717000D03*
X167810000Y-73317000D03*
X170010000Y-71717000D03*
D78*
X121666000Y-79756000D03*
X120650000Y-79756000D03*
D79*
X158242000Y-64389000D03*
X156464000Y-64389000D03*
D82*
X170434000Y-60920000D03*
X170434000Y-55920000D03*
D49*
X162600000Y-55880000D03*
X167600000Y-55880000D03*
D77*
X168021000Y-60960000D03*
X168021000Y-61976000D03*
X168021000Y-63881000D03*
X168021000Y-62865000D03*
D61*
X119126000Y-79756000D03*
X117348000Y-79756000D03*
D63*
X114808000Y-88265000D03*
X112776000Y-88265000D03*
D62*
X167640000Y-96266000D03*
X167640000Y-94234000D03*
D54*
X109093000Y-88265000D03*
X111125000Y-88265000D03*
D78*
X116840000Y-87630000D03*
X117856000Y-87630000D03*
D77*
X191643000Y-45212000D03*
X191643000Y-46228000D03*
D83*
X105918000Y-97409000D03*
X108458000Y-97409000D03*
X110998000Y-97409000D03*
D52*
X128016000Y-20447000D03*
X129540000Y-20447000D03*
X128016000Y-17907000D03*
X129540000Y-17907000D03*
D51*
X128016000Y-19558000D03*
X128016000Y-18796000D03*
X129540000Y-19558000D03*
X129540000Y-18796000D03*
X129540000Y-14478000D03*
X129540000Y-15240000D03*
X128016000Y-14478000D03*
X128016000Y-15240000D03*
D52*
X129540000Y-13589000D03*
X128016000Y-13589000D03*
X129540000Y-16129000D03*
X128016000Y-16129000D03*
M02*
