M48
;DRILL file {KiCad 4.1.0-alpha+201608171232+7063~46~ubuntu14.04.1-product} date Tue Aug 30 16:53:04 2016
;FORMAT={-:-/ absolute / inch / decimal}
FMAT,2
INCH,TZ
T1C0.016
T2C0.039
T3C0.110
%
G90
G05
M72
T1
X4.504Y-3.074
X4.532Y-3.174
X4.532Y-3.224
X4.556Y-2.798
X4.574Y-3.504
X4.582Y-3.174
X4.582Y-3.224
X4.6117Y-3.6486
X4.6189Y-3.5786
X4.624Y-3.278
X4.6241Y-3.6157
X4.628Y-2.816
X4.628Y-2.866
X4.65Y-3.55
X4.668Y-3.2399
X4.677Y-3.2761
X4.678Y-2.816
X4.678Y-2.866
X4.69Y-3.35
X4.6945Y-3.394
X4.7Y-2.7
X4.734Y-3.0946
X4.7366Y-3.3068
X4.7374Y-2.7357
X4.765Y-3.575
X4.7658Y-3.4762
X4.766Y-2.844
X4.774Y-3.074
X4.786Y-3.044
X4.8031Y-3.575
X4.8078Y-3.0936
X4.8342Y-3.2079
X4.836Y-2.792
X4.845Y-3.575
X4.88Y-3.575
X4.9606Y-3.575
X4.9938Y-3.247
X5.Y-3.575
X5.005Y-2.95
X5.01Y-3.22
X5.0275Y-3.1806
X5.0307Y-2.9931
X5.0394Y-3.575
X5.0525Y-3.5362
X5.0557Y-3.1665
X5.0614Y-3.0001
X5.082Y-3.512
X5.087Y-3.1705
X5.1181Y-3.575
X5.1575Y-3.575
X5.1969Y-3.575
X5.218Y-3.254
X5.2362Y-3.575
X5.244Y-3.28
X5.267Y-3.3063
X5.2731Y-3.0069
X5.2756Y-3.575
X5.299Y-3.3232
X5.3Y-3.12
X5.3Y-3.17
X5.315Y-3.575
X5.326Y-3.412
X5.328Y-3.344
X5.3316Y-3.3021
X5.35Y-3.12
X5.35Y-3.17
X5.3543Y-3.575
X5.3937Y-3.575
X5.4331Y-3.575
X5.4596Y-3.3522
X5.4724Y-3.575
X5.49Y-3.3826
X5.4901Y-2.8722
X5.505Y-3.435
X5.5118Y-3.575
X5.5125Y-3.4675
X5.5132Y-2.9597
X5.55Y-3.465
X5.5512Y-3.575
X5.5812Y-3.4738
X5.5906Y-3.575
X5.672Y-3.396
X5.946Y-3.578
X5.9502Y-3.7028
X6.0433Y-3.4646
X6.1614Y-3.4941
X6.232Y-3.4997
X6.2337Y-3.544
X6.3057Y-3.6142
X6.3602Y-3.6811
X6.4016Y-3.6506
X6.6634Y-3.5797
X6.7126Y-3.6614
X6.7421Y-3.6024
X6.7815Y-3.622
X6.7815Y-3.6516
T2
X4.3701Y-2.7921
X4.3701Y-2.8921
X4.3701Y-2.9921
X4.4701Y-2.7921
X4.4701Y-2.8921
X4.4701Y-2.9921
T3
X4.3701Y-3.8386
X6.1024Y-3.8386
T0
M30
