G04 #@! TF.FileFunction,Copper,L2,Bot,Signal*
%FSLAX46Y46*%
G04 Gerber Fmt 4.6, Leading zero omitted, Abs format (unit mm)*
G04 Created by KiCad (PCBNEW 4.1.0-alpha+201608171232+7063~46~ubuntu14.04.1-product) date Tue Aug 30 16:52:41 2016*
%MOMM*%
%LPD*%
G01*
G04 APERTURE LIST*
%ADD10C,0.600000*%
%ADD11C,0.550000*%
%ADD12C,6.000000*%
%ADD13R,1.778000X1.778000*%
%ADD14C,1.778000*%
%ADD15O,1.778000X1.778000*%
%ADD16C,0.600000*%
%ADD17C,0.508000*%
%ADD18C,1.016000*%
%ADD19C,0.304800*%
%ADD20C,0.250000*%
%ADD21C,0.203200*%
%ADD22C,0.355600*%
%ADD23C,0.254000*%
G04 APERTURE END LIST*
D10*
D11*
X115722400Y-71069200D03*
X114401600Y-78079600D03*
X151028400Y-90881200D03*
X144068800Y-86258400D03*
X135280400Y-86664800D03*
X135331200Y-84937600D03*
X116179600Y-89001600D03*
X121056400Y-72237600D03*
X117551200Y-71526400D03*
X118821200Y-71526400D03*
X117551200Y-72796400D03*
X118821200Y-72796400D03*
X115112800Y-80619600D03*
X116382800Y-80619600D03*
X115112800Y-81889600D03*
X116382800Y-81889600D03*
X135890000Y-80518000D03*
X134620000Y-80518000D03*
X135890000Y-79248000D03*
D12*
X155000000Y-97500000D03*
X111000000Y-97500000D03*
D13*
X113540000Y-76000000D03*
D14*
X113540000Y-73460000D03*
X113540000Y-70920000D03*
X111000000Y-73460000D03*
D15*
X111000000Y-76000000D03*
D14*
X111000000Y-70920000D03*
D11*
X134620000Y-79248000D03*
D16*
X153500000Y-88000000D03*
X133936719Y-76375281D03*
X140035596Y-75177003D03*
X139448762Y-72953610D03*
X119380000Y-68580000D03*
X172250000Y-92750000D03*
X172250000Y-92000000D03*
X161548200Y-93500000D03*
X151135005Y-94050180D03*
X122834400Y-70916800D03*
X117449600Y-83261200D03*
X119239793Y-86207600D03*
X129082800Y-89204800D03*
X121564400Y-77317600D03*
X120310617Y-83993933D03*
X119126000Y-85090000D03*
X156500000Y-88750000D03*
X120330348Y-69487047D03*
X141762339Y-88234662D03*
X142000000Y-90805000D03*
X138674279Y-85146601D03*
X137000000Y-90805000D03*
X122787799Y-81481564D03*
X122000000Y-90805000D03*
X126842402Y-82473996D03*
X130000000Y-90805000D03*
X127254000Y-81788000D03*
X131000000Y-90805000D03*
X127699624Y-80787202D03*
X132000000Y-90805000D03*
X128415461Y-80429997D03*
X133000000Y-90805000D03*
X129209043Y-80531220D03*
X134000000Y-90805000D03*
X134595390Y-84408528D03*
X135000000Y-90805000D03*
X135423191Y-83873885D03*
X136000000Y-90805000D03*
X139446583Y-85918905D03*
X138000000Y-90805000D03*
X139827000Y-87249000D03*
X139000000Y-90805000D03*
X140017500Y-88074500D03*
X140000000Y-90805000D03*
X140970000Y-88011000D03*
X141000000Y-90805000D03*
X120243600Y-78602438D03*
X118110000Y-90170000D03*
X126000000Y-90805000D03*
X117136221Y-92674235D03*
X128334464Y-89818474D03*
X117451631Y-91839611D03*
X122118819Y-78578296D03*
X128000000Y-90805000D03*
X117320610Y-90896261D03*
X121259600Y-78079600D03*
X127000000Y-90805000D03*
X128559203Y-76202707D03*
X123952000Y-90805000D03*
X127779410Y-76023983D03*
X123063000Y-90805000D03*
X121050242Y-88295358D03*
X121031000Y-90805000D03*
X127127000Y-74930000D03*
X160163934Y-91800000D03*
X133197600Y-83312000D03*
X171250000Y-91500000D03*
X162600000Y-92725852D03*
X170500000Y-93000000D03*
X133780554Y-83979712D03*
X132537200Y-82651600D03*
X169250000Y-90924910D03*
X118794961Y-83213488D03*
X158336000Y-90017600D03*
X158293494Y-88891706D03*
X118566413Y-82293742D03*
D17*
X116382800Y-80619600D02*
X116382800Y-80060800D01*
X116382800Y-80060800D02*
X114401600Y-78079600D01*
X135280400Y-86664800D02*
X135280400Y-84988400D01*
X135280400Y-84988400D02*
X135331200Y-84937600D01*
X144068800Y-86258400D02*
X144068800Y-86866322D01*
X144068800Y-86866322D02*
X148083678Y-90881200D01*
X148083678Y-90881200D02*
X150639492Y-90881200D01*
X150639492Y-90881200D02*
X151028400Y-90881200D01*
D18*
X138908352Y-81148752D02*
X144068800Y-86309200D01*
X135890000Y-80518000D02*
X136520752Y-81148752D01*
X136520752Y-81148752D02*
X138908352Y-81148752D01*
D19*
X141931643Y-75436491D02*
X153500000Y-87004848D01*
X153500000Y-87004848D02*
X153500000Y-88000000D01*
X140035596Y-75177003D02*
X135134997Y-75177003D01*
X135134997Y-75177003D02*
X134236718Y-76075282D01*
X134236718Y-76075282D02*
X133936719Y-76375281D01*
X139448762Y-72953610D02*
X141931643Y-75436491D01*
X138836400Y-72593200D02*
X139448762Y-72953610D01*
X136550400Y-72593200D02*
X138836400Y-72593200D01*
X135890000Y-71932800D02*
X136550400Y-72593200D01*
X133299200Y-71932800D02*
X135890000Y-71932800D01*
X132740400Y-71374000D02*
X133299200Y-71932800D01*
X131114800Y-71374000D02*
X132740400Y-71374000D01*
X130606800Y-70866000D02*
X131114800Y-71374000D01*
X129082800Y-70866000D02*
X130606800Y-70866000D01*
X128625600Y-70408800D02*
X129082800Y-70866000D01*
X127609600Y-70408800D02*
X128625600Y-70408800D01*
X127254000Y-70053200D02*
X127609600Y-70408800D01*
X126288800Y-70053200D02*
X127254000Y-70053200D01*
X126034800Y-69799200D02*
X126288800Y-70053200D01*
X125018800Y-69799200D02*
X126034800Y-69799200D01*
X124815600Y-69596000D02*
X125018800Y-69799200D01*
X122885200Y-69596000D02*
X124815600Y-69596000D01*
X122275600Y-68986400D02*
X122885200Y-69596000D01*
X120802400Y-68986400D02*
X122275600Y-68986400D01*
X120396000Y-68580000D02*
X120802400Y-68986400D01*
X119380000Y-68580000D02*
X120396000Y-68580000D01*
D17*
X172250000Y-92500000D02*
X172250000Y-92000000D01*
X172250000Y-93500000D02*
X172250000Y-92500000D01*
X172250000Y-92500000D02*
X172250000Y-92750000D01*
X171995999Y-93754001D02*
X172250000Y-93500000D01*
X161801238Y-93754001D02*
X171995999Y-93754001D01*
D20*
X161548200Y-93500000D02*
X161547237Y-93500000D01*
X161547237Y-93500000D02*
X161302053Y-93254816D01*
D17*
X151930369Y-93254816D02*
X152545184Y-93254816D01*
X152545184Y-93254816D02*
X153200000Y-92600000D01*
X153200000Y-92600000D02*
X158145184Y-92600000D01*
X158145184Y-92600000D02*
X158800000Y-93254816D01*
X158800000Y-93254816D02*
X161302053Y-93254816D01*
X161302053Y-93254816D02*
X161801238Y-93754001D01*
X151135005Y-94050180D02*
X151930369Y-93254816D01*
X151141199Y-94000000D02*
X151141199Y-94043986D01*
X151141199Y-94043986D02*
X151135005Y-94050180D01*
D18*
X149924366Y-95199200D02*
X149941999Y-95199200D01*
X149941999Y-95199200D02*
X151141199Y-94000000D01*
X147116800Y-95199200D02*
X149924366Y-95199200D01*
X147116800Y-95199200D02*
X129266564Y-95199200D01*
X129266564Y-95199200D02*
X129215764Y-95250000D01*
D17*
X115859922Y-95250000D02*
X129215764Y-95250000D01*
X129215764Y-95250000D02*
X129235200Y-95230564D01*
D19*
X122834400Y-70916800D02*
X120751246Y-70916800D01*
X120751246Y-70916800D02*
X119513045Y-69678599D01*
X119513045Y-69678599D02*
X110404127Y-69678599D01*
X110404127Y-69678599D02*
X109758599Y-70324127D01*
X109758599Y-74758599D02*
X110111001Y-75111001D01*
X109758599Y-70324127D02*
X109758599Y-74758599D01*
X110111001Y-75111001D02*
X111000000Y-76000000D01*
D17*
X109169200Y-86207600D02*
X109169200Y-88559278D01*
X109169200Y-88559278D02*
X115859922Y-95250000D01*
X129235200Y-95230564D02*
X129235200Y-89781464D01*
X129235200Y-89781464D02*
X129082800Y-89629064D01*
X129082800Y-89629064D02*
X129082800Y-89204800D01*
X109169200Y-86207600D02*
X109118400Y-86156800D01*
X109118400Y-86156800D02*
X109118400Y-83261200D01*
X119239793Y-86207600D02*
X109169200Y-86207600D01*
X109118400Y-83261200D02*
X109118400Y-77881600D01*
X109118400Y-77881600D02*
X111000000Y-76000000D01*
X117449600Y-83261200D02*
X109118400Y-83261200D01*
D21*
X118609438Y-77317600D02*
X115387819Y-74095981D01*
X115387818Y-73951842D02*
X115133812Y-73697836D01*
X121564400Y-77317600D02*
X118609438Y-77317600D01*
X115387819Y-74095981D02*
X115387818Y-73951842D01*
X115133811Y-72721495D02*
X114278504Y-71866188D01*
X115133812Y-73697836D02*
X115133811Y-72721495D01*
X114278504Y-71866188D02*
X113540000Y-71866188D01*
X113540000Y-71866188D02*
X113540000Y-70920000D01*
D22*
X120222067Y-83993933D02*
X120310617Y-83993933D01*
X119126000Y-85090000D02*
X120222067Y-83993933D01*
D19*
X120330348Y-69487047D02*
X120944111Y-70100810D01*
X120944111Y-70100810D02*
X124606501Y-70100810D01*
X124606501Y-70100810D02*
X124809701Y-70304010D01*
X124809701Y-70304010D02*
X125825701Y-70304010D01*
X134914960Y-74262468D02*
X140043710Y-74262468D01*
X125825701Y-70304010D02*
X126079701Y-70558010D01*
X126079701Y-70558010D02*
X127044902Y-70558010D01*
X127044902Y-70558010D02*
X127400501Y-70913610D01*
X152883643Y-88750000D02*
X156500000Y-88750000D01*
X127400501Y-70913610D02*
X128416502Y-70913610D01*
X128416502Y-70913610D02*
X129381702Y-71878810D01*
X129381702Y-71878810D02*
X132531302Y-71878810D01*
X152598442Y-88464799D02*
X152883643Y-88750000D01*
X132531302Y-71878810D02*
X134914960Y-74262468D01*
X140043710Y-74262468D02*
X152598442Y-86817200D01*
X152598442Y-86817200D02*
X152598442Y-88464799D01*
X142000000Y-88472323D02*
X141762339Y-88234662D01*
X142000000Y-90805000D02*
X142000000Y-88472323D01*
X138374280Y-85446600D02*
X138674279Y-85146601D01*
X137000000Y-86820880D02*
X138374280Y-85446600D01*
X137000000Y-90805000D02*
X137000000Y-86820880D01*
D21*
X122000000Y-90805000D02*
X122000000Y-82269363D01*
X122487800Y-81781563D02*
X122787799Y-81481564D01*
X122000000Y-82269363D02*
X122487800Y-81781563D01*
D19*
X126842402Y-82473996D02*
X130000000Y-85631594D01*
X130000000Y-85631594D02*
X130000000Y-90805000D01*
X127934999Y-82087999D02*
X131000000Y-85153000D01*
X131000000Y-85153000D02*
X131000000Y-90805000D01*
X127254000Y-81788000D02*
X127553999Y-82087999D01*
X127553999Y-82087999D02*
X127934999Y-82087999D01*
X127699624Y-80909761D02*
X127699624Y-80787202D01*
X132000000Y-90805000D02*
X132000000Y-85210137D01*
X132000000Y-85210137D02*
X127699624Y-80909761D01*
X128415461Y-80854261D02*
X128415461Y-80429997D01*
X128415461Y-80867015D02*
X128415461Y-80854261D01*
X133000000Y-85451554D02*
X128415461Y-80867015D01*
X133000000Y-90805000D02*
X133000000Y-85451554D01*
X129509042Y-80831219D02*
X129209043Y-80531220D01*
X134000000Y-85322177D02*
X129509042Y-80831219D01*
X134000000Y-90805000D02*
X134000000Y-85322177D01*
X135000000Y-90805000D02*
X134644546Y-90449546D01*
X134644546Y-90449546D02*
X134644546Y-84959370D01*
X134644546Y-84959370D02*
X134595390Y-85008526D01*
X134595390Y-85008526D02*
X134595390Y-84408528D01*
X136000000Y-84450694D02*
X135723190Y-84173884D01*
X135723190Y-84173884D02*
X135423191Y-83873885D01*
X136000000Y-90805000D02*
X136000000Y-84450694D01*
X139146584Y-86218904D02*
X139446583Y-85918905D01*
X138000000Y-87365488D02*
X139146584Y-86218904D01*
X138000000Y-90805000D02*
X138000000Y-87365488D01*
X139827000Y-87249000D02*
X139527001Y-87548999D01*
X139527001Y-87548999D02*
X139527001Y-87599445D01*
X139527001Y-87599445D02*
X139000000Y-88126446D01*
X139000000Y-88126446D02*
X139000000Y-90380736D01*
X139000000Y-90380736D02*
X139000000Y-90805000D01*
X140017500Y-88074500D02*
X140017500Y-90787500D01*
X140017500Y-90787500D02*
X140000000Y-90805000D01*
X140970000Y-88011000D02*
X140970000Y-90775000D01*
X140970000Y-90775000D02*
X141000000Y-90805000D01*
D21*
X118682880Y-78602438D02*
X119819336Y-78602438D01*
X114429441Y-74348999D02*
X118682880Y-78602438D01*
X114428999Y-74348999D02*
X114429441Y-74348999D01*
X119819336Y-78602438D02*
X120243600Y-78602438D01*
D17*
X113540000Y-73460000D02*
X114428999Y-74348999D01*
D21*
X118110000Y-90170000D02*
X118110000Y-90594264D01*
X118922337Y-91406601D02*
X125398399Y-91406601D01*
X118110000Y-90594264D02*
X118922337Y-91406601D01*
X125398399Y-91406601D02*
X125700001Y-91104999D01*
X125700001Y-91104999D02*
X126000000Y-90805000D01*
X127379111Y-92655930D02*
X118809687Y-92655930D01*
X118809687Y-92655930D02*
X118238279Y-93227338D01*
X128634463Y-90118473D02*
X128634463Y-91400578D01*
X128334464Y-89818474D02*
X128634463Y-90118473D01*
X118238279Y-93227338D02*
X117689324Y-93227338D01*
X117436220Y-92974234D02*
X117136221Y-92674235D01*
X117689324Y-93227338D02*
X117436220Y-92974234D01*
X128634463Y-91400578D02*
X127379111Y-92655930D01*
X117843345Y-92231325D02*
X117751630Y-92139610D01*
X128000000Y-90805000D02*
X126573675Y-92231325D01*
X126573675Y-92231325D02*
X117843345Y-92231325D01*
X117751630Y-92139610D02*
X117451631Y-91839611D01*
X114632200Y-76000000D02*
X115510216Y-76000000D01*
X118758216Y-79248000D02*
X121449115Y-79248000D01*
X115510216Y-76000000D02*
X118758216Y-79248000D01*
X121449115Y-79248000D02*
X121818820Y-78878295D01*
X121818820Y-78878295D02*
X122118819Y-78578296D01*
D17*
X113540000Y-76000000D02*
X114632200Y-76000000D01*
D21*
X117744874Y-90896261D02*
X117320610Y-90896261D01*
X125995189Y-91809811D02*
X118737037Y-91809811D01*
X117823487Y-90896261D02*
X117744874Y-90896261D01*
X118737037Y-91809811D02*
X117823487Y-90896261D01*
X127000000Y-90805000D02*
X125995189Y-91809811D01*
X114730601Y-72888511D02*
X114111489Y-72269399D01*
X114730601Y-73864851D02*
X114730601Y-72888511D01*
X121259600Y-78079600D02*
X120900811Y-77720811D01*
X114984608Y-74118858D02*
X114730601Y-73864851D01*
X118442422Y-77720810D02*
X114984608Y-74262996D01*
X120900811Y-77720811D02*
X118442422Y-77720810D01*
X114111489Y-72269399D02*
X112968511Y-72269399D01*
X114984608Y-74262996D02*
X114984608Y-74118858D01*
X112968511Y-72269399D02*
X112190601Y-72269399D01*
D17*
X111000000Y-73460000D02*
X112190601Y-72269399D01*
D19*
X123952000Y-90805000D02*
X123952000Y-80822535D01*
X123952000Y-80822535D02*
X128259204Y-76515331D01*
X128259204Y-76515331D02*
X128259204Y-76502706D01*
X128259204Y-76502706D02*
X128559203Y-76202707D01*
X123440201Y-80620424D02*
X127779410Y-76281215D01*
X123440201Y-81794718D02*
X123440201Y-80620424D01*
X123063000Y-82171919D02*
X123440201Y-81794718D01*
X123063000Y-90805000D02*
X123063000Y-82171919D01*
X127779410Y-76281215D02*
X127779410Y-76023983D01*
X121050242Y-87871094D02*
X121050242Y-88295358D01*
X127127000Y-74930000D02*
X127127000Y-76219715D01*
X121050242Y-82296473D02*
X121050242Y-87871094D01*
X127127000Y-76219715D02*
X121050242Y-82296473D01*
X121031000Y-90805000D02*
X121031000Y-88314600D01*
X121031000Y-88314600D02*
X121050242Y-88295358D01*
X160163934Y-91800000D02*
X160386614Y-91577320D01*
X159770191Y-91406257D02*
X160163934Y-91800000D01*
X133197600Y-83312000D02*
X133995627Y-82513973D01*
X133995627Y-82513973D02*
X137678210Y-82513974D01*
X150497157Y-91992421D02*
X150518148Y-92013412D01*
X137678210Y-82513974D02*
X147156657Y-91992421D01*
X147156657Y-91992421D02*
X150497157Y-91992421D01*
X150518148Y-92013412D02*
X151538653Y-92013411D01*
X151538653Y-92013411D02*
X152145808Y-91406257D01*
X152145808Y-91406257D02*
X159770191Y-91406257D01*
X171250000Y-91500217D02*
X171250000Y-91500000D01*
X171172897Y-91577320D02*
X171250000Y-91500217D01*
X160386614Y-91577320D02*
X171172897Y-91577320D01*
X162807119Y-92932971D02*
X162600000Y-92725852D01*
X162600000Y-92725852D02*
X162346849Y-92472701D01*
X170182971Y-92932971D02*
X162807119Y-92932971D01*
X134741482Y-83018784D02*
X133780554Y-83979712D01*
X151747752Y-92518221D02*
X150309050Y-92518222D01*
X162346849Y-92472701D02*
X159061633Y-92472701D01*
X150288058Y-92497232D02*
X146947558Y-92497232D01*
X159061633Y-92472701D02*
X158500000Y-91911068D01*
X158500000Y-91911068D02*
X152354906Y-91911068D01*
X152354906Y-91911068D02*
X151747752Y-92518221D01*
X150309050Y-92518222D02*
X150288058Y-92497232D01*
X146947558Y-92497232D02*
X137469110Y-83018784D01*
X137469110Y-83018784D02*
X134741482Y-83018784D01*
D20*
X170500000Y-93000000D02*
X170432971Y-92932971D01*
X170432971Y-92932971D02*
X170182971Y-92932971D01*
D19*
X137887308Y-82009162D02*
X147365756Y-91487610D01*
X133179638Y-82009162D02*
X137887308Y-82009162D01*
X132537200Y-82651600D02*
X133179638Y-82009162D01*
X160833297Y-90924910D02*
X168825736Y-90924910D01*
X160809834Y-90901447D02*
X160833297Y-90924910D01*
X151936707Y-90901447D02*
X160809834Y-90901447D01*
X150706256Y-91487610D02*
X150727247Y-91508601D01*
X150727247Y-91508601D02*
X151329553Y-91508601D01*
X147365756Y-91487610D02*
X150706256Y-91487610D01*
X151329553Y-91508601D02*
X151936707Y-90901447D01*
X168825736Y-90924910D02*
X169250000Y-90924910D01*
X158336000Y-90017600D02*
X148259612Y-90017600D01*
X148259612Y-90017600D02*
X147170790Y-88928778D01*
X147170790Y-88928778D02*
X147170790Y-86699506D01*
X129310133Y-73250411D02*
X127056699Y-73250411D01*
X127056699Y-73250411D02*
X125015611Y-75291499D01*
X147170790Y-86699506D02*
X138003777Y-77532493D01*
X138003777Y-77532493D02*
X133414465Y-77532493D01*
X133414465Y-77532493D02*
X132779506Y-76897534D01*
X132779506Y-76897534D02*
X132779506Y-76719784D01*
X132779506Y-76719784D02*
X129310133Y-73250411D01*
X125015611Y-75291499D02*
X125015610Y-77417103D01*
X125015610Y-77417103D02*
X119219225Y-83213488D01*
X119219225Y-83213488D02*
X118794961Y-83213488D01*
X138212876Y-77027682D02*
X147685194Y-86500000D01*
X147685194Y-88685194D02*
X147685194Y-86500000D01*
X148500000Y-89500000D02*
X147685194Y-88685194D01*
X157000000Y-89500000D02*
X148500000Y-89500000D01*
X157608294Y-88891706D02*
X157000000Y-89500000D01*
X158293494Y-88891706D02*
X157608294Y-88891706D01*
X126847599Y-72745601D02*
X129519232Y-72745600D01*
X133284317Y-76688435D02*
X133623564Y-77027682D01*
X129519232Y-72745600D02*
X133284316Y-76510684D01*
X124510800Y-77151869D02*
X124510800Y-75082400D01*
X119368927Y-82293742D02*
X124510800Y-77151869D01*
X118566413Y-82293742D02*
X119368927Y-82293742D01*
X133623564Y-77027682D02*
X138212876Y-77027682D01*
X133284316Y-76510684D02*
X133284317Y-76688435D01*
X124510800Y-75082400D02*
X126847599Y-72745601D01*
D23*
G36*
X118444935Y-68653263D02*
X118444838Y-68765167D01*
X118496913Y-68891199D01*
X110404127Y-68891199D01*
X110102802Y-68951136D01*
X109847351Y-69121823D01*
X109201823Y-69767351D01*
X109031136Y-70022802D01*
X108971199Y-70324127D01*
X108971199Y-74758599D01*
X109031136Y-75059924D01*
X109201823Y-75315375D01*
X109539144Y-75652696D01*
X109476000Y-75970143D01*
X109476000Y-76029857D01*
X109515305Y-76227459D01*
X108489782Y-77252982D01*
X108297071Y-77541394D01*
X108229400Y-77881600D01*
X108229400Y-86156800D01*
X108280200Y-86412190D01*
X108280200Y-88559278D01*
X108347871Y-88899484D01*
X108470117Y-89082438D01*
X108540582Y-89187896D01*
X115231304Y-95878618D01*
X115519716Y-96071329D01*
X115859922Y-96139000D01*
X128528432Y-96139000D01*
X128778357Y-96305994D01*
X129215764Y-96393000D01*
X129471152Y-96342200D01*
X149941999Y-96342200D01*
X150379406Y-96255194D01*
X150750222Y-96007423D01*
X151949422Y-94808223D01*
X152049660Y-94658206D01*
X152876627Y-94658206D01*
X155000000Y-96781580D01*
X157123373Y-94658206D01*
X156746916Y-94231315D01*
X155363069Y-93811613D01*
X153923948Y-93953434D01*
X153253084Y-94231315D01*
X152876627Y-94658206D01*
X152049660Y-94658206D01*
X152197193Y-94437407D01*
X152244912Y-94197509D01*
X152298605Y-94143816D01*
X152545184Y-94143816D01*
X152885390Y-94076145D01*
X153173802Y-93883434D01*
X153568236Y-93489000D01*
X157776948Y-93489000D01*
X158171382Y-93883434D01*
X158459795Y-94076146D01*
X158800000Y-94143816D01*
X160869756Y-94143816D01*
X161017873Y-94292192D01*
X161127867Y-94337866D01*
X161172620Y-94382619D01*
X161461032Y-94575330D01*
X161801238Y-94643001D01*
X171995999Y-94643001D01*
X172336205Y-94575330D01*
X172624617Y-94382619D01*
X172878618Y-94128618D01*
X173071330Y-93840205D01*
X173139000Y-93500000D01*
X173139000Y-93047189D01*
X173184838Y-92936799D01*
X173185162Y-92564833D01*
X173139000Y-92453112D01*
X173139000Y-92297189D01*
X173184838Y-92186799D01*
X173185162Y-91814833D01*
X173043117Y-91471057D01*
X172780327Y-91207808D01*
X172436799Y-91065162D01*
X172081873Y-91064853D01*
X172043117Y-90971057D01*
X171780327Y-90707808D01*
X171436799Y-90565162D01*
X171064833Y-90564838D01*
X170721057Y-90706883D01*
X170637875Y-90789920D01*
X170185118Y-90789920D01*
X170185162Y-90739743D01*
X170043117Y-90395967D01*
X169780327Y-90132718D01*
X169436799Y-89990072D01*
X169064833Y-89989748D01*
X168721057Y-90131793D01*
X168715330Y-90137510D01*
X160927791Y-90137510D01*
X160809834Y-90114047D01*
X159270917Y-90114047D01*
X159271162Y-89832433D01*
X159129117Y-89488657D01*
X159074127Y-89433571D01*
X159085686Y-89422033D01*
X159228332Y-89078505D01*
X159228656Y-88706539D01*
X159086611Y-88362763D01*
X158823821Y-88099514D01*
X158480293Y-87956868D01*
X158108327Y-87956544D01*
X157764551Y-88098589D01*
X157758824Y-88104306D01*
X157608294Y-88104306D01*
X157306969Y-88164243D01*
X157264638Y-88192528D01*
X157030327Y-87957808D01*
X156686799Y-87815162D01*
X156314833Y-87814838D01*
X155971057Y-87956883D01*
X155965330Y-87962600D01*
X154435033Y-87962600D01*
X154435162Y-87814833D01*
X154293117Y-87471057D01*
X154287400Y-87465330D01*
X154287400Y-87004848D01*
X154227463Y-86703523D01*
X154056776Y-86448072D01*
X141047256Y-73438552D01*
X174804000Y-80585419D01*
X174804000Y-99289800D01*
X158220056Y-99289800D01*
X158268685Y-99246916D01*
X158688387Y-97863069D01*
X158546566Y-96423948D01*
X158268685Y-95753084D01*
X157841794Y-95376627D01*
X155718420Y-97500000D01*
X155732563Y-97514142D01*
X155014142Y-98232563D01*
X155000000Y-98218420D01*
X154985858Y-98232563D01*
X154267437Y-97514142D01*
X154281580Y-97500000D01*
X152158206Y-95376627D01*
X151731315Y-95753084D01*
X151311613Y-97136931D01*
X151453434Y-98576052D01*
X151731315Y-99246916D01*
X151779944Y-99289800D01*
X114220056Y-99289800D01*
X114268685Y-99246916D01*
X114688387Y-97863069D01*
X114546566Y-96423948D01*
X114268685Y-95753084D01*
X113841794Y-95376627D01*
X111718420Y-97500000D01*
X111732563Y-97514142D01*
X111014142Y-98232563D01*
X111000000Y-98218420D01*
X110985858Y-98232563D01*
X110267437Y-97514142D01*
X110281580Y-97500000D01*
X108158206Y-95376627D01*
X107731315Y-95753084D01*
X107720200Y-95789733D01*
X107720200Y-94658206D01*
X108876627Y-94658206D01*
X111000000Y-96781580D01*
X113123373Y-94658206D01*
X112746916Y-94231315D01*
X111363069Y-93811613D01*
X109923948Y-93953434D01*
X109253084Y-94231315D01*
X108876627Y-94658206D01*
X107720200Y-94658206D01*
X107720200Y-66382657D01*
X118444935Y-68653263D01*
X118444935Y-68653263D01*
G37*
X118444935Y-68653263D02*
X118444838Y-68765167D01*
X118496913Y-68891199D01*
X110404127Y-68891199D01*
X110102802Y-68951136D01*
X109847351Y-69121823D01*
X109201823Y-69767351D01*
X109031136Y-70022802D01*
X108971199Y-70324127D01*
X108971199Y-74758599D01*
X109031136Y-75059924D01*
X109201823Y-75315375D01*
X109539144Y-75652696D01*
X109476000Y-75970143D01*
X109476000Y-76029857D01*
X109515305Y-76227459D01*
X108489782Y-77252982D01*
X108297071Y-77541394D01*
X108229400Y-77881600D01*
X108229400Y-86156800D01*
X108280200Y-86412190D01*
X108280200Y-88559278D01*
X108347871Y-88899484D01*
X108470117Y-89082438D01*
X108540582Y-89187896D01*
X115231304Y-95878618D01*
X115519716Y-96071329D01*
X115859922Y-96139000D01*
X128528432Y-96139000D01*
X128778357Y-96305994D01*
X129215764Y-96393000D01*
X129471152Y-96342200D01*
X149941999Y-96342200D01*
X150379406Y-96255194D01*
X150750222Y-96007423D01*
X151949422Y-94808223D01*
X152049660Y-94658206D01*
X152876627Y-94658206D01*
X155000000Y-96781580D01*
X157123373Y-94658206D01*
X156746916Y-94231315D01*
X155363069Y-93811613D01*
X153923948Y-93953434D01*
X153253084Y-94231315D01*
X152876627Y-94658206D01*
X152049660Y-94658206D01*
X152197193Y-94437407D01*
X152244912Y-94197509D01*
X152298605Y-94143816D01*
X152545184Y-94143816D01*
X152885390Y-94076145D01*
X153173802Y-93883434D01*
X153568236Y-93489000D01*
X157776948Y-93489000D01*
X158171382Y-93883434D01*
X158459795Y-94076146D01*
X158800000Y-94143816D01*
X160869756Y-94143816D01*
X161017873Y-94292192D01*
X161127867Y-94337866D01*
X161172620Y-94382619D01*
X161461032Y-94575330D01*
X161801238Y-94643001D01*
X171995999Y-94643001D01*
X172336205Y-94575330D01*
X172624617Y-94382619D01*
X172878618Y-94128618D01*
X173071330Y-93840205D01*
X173139000Y-93500000D01*
X173139000Y-93047189D01*
X173184838Y-92936799D01*
X173185162Y-92564833D01*
X173139000Y-92453112D01*
X173139000Y-92297189D01*
X173184838Y-92186799D01*
X173185162Y-91814833D01*
X173043117Y-91471057D01*
X172780327Y-91207808D01*
X172436799Y-91065162D01*
X172081873Y-91064853D01*
X172043117Y-90971057D01*
X171780327Y-90707808D01*
X171436799Y-90565162D01*
X171064833Y-90564838D01*
X170721057Y-90706883D01*
X170637875Y-90789920D01*
X170185118Y-90789920D01*
X170185162Y-90739743D01*
X170043117Y-90395967D01*
X169780327Y-90132718D01*
X169436799Y-89990072D01*
X169064833Y-89989748D01*
X168721057Y-90131793D01*
X168715330Y-90137510D01*
X160927791Y-90137510D01*
X160809834Y-90114047D01*
X159270917Y-90114047D01*
X159271162Y-89832433D01*
X159129117Y-89488657D01*
X159074127Y-89433571D01*
X159085686Y-89422033D01*
X159228332Y-89078505D01*
X159228656Y-88706539D01*
X159086611Y-88362763D01*
X158823821Y-88099514D01*
X158480293Y-87956868D01*
X158108327Y-87956544D01*
X157764551Y-88098589D01*
X157758824Y-88104306D01*
X157608294Y-88104306D01*
X157306969Y-88164243D01*
X157264638Y-88192528D01*
X157030327Y-87957808D01*
X156686799Y-87815162D01*
X156314833Y-87814838D01*
X155971057Y-87956883D01*
X155965330Y-87962600D01*
X154435033Y-87962600D01*
X154435162Y-87814833D01*
X154293117Y-87471057D01*
X154287400Y-87465330D01*
X154287400Y-87004848D01*
X154227463Y-86703523D01*
X154056776Y-86448072D01*
X141047256Y-73438552D01*
X174804000Y-80585419D01*
X174804000Y-99289800D01*
X158220056Y-99289800D01*
X158268685Y-99246916D01*
X158688387Y-97863069D01*
X158546566Y-96423948D01*
X158268685Y-95753084D01*
X157841794Y-95376627D01*
X155718420Y-97500000D01*
X155732563Y-97514142D01*
X155014142Y-98232563D01*
X155000000Y-98218420D01*
X154985858Y-98232563D01*
X154267437Y-97514142D01*
X154281580Y-97500000D01*
X152158206Y-95376627D01*
X151731315Y-95753084D01*
X151311613Y-97136931D01*
X151453434Y-98576052D01*
X151731315Y-99246916D01*
X151779944Y-99289800D01*
X114220056Y-99289800D01*
X114268685Y-99246916D01*
X114688387Y-97863069D01*
X114546566Y-96423948D01*
X114268685Y-95753084D01*
X113841794Y-95376627D01*
X111718420Y-97500000D01*
X111732563Y-97514142D01*
X111014142Y-98232563D01*
X111000000Y-98218420D01*
X110985858Y-98232563D01*
X110267437Y-97514142D01*
X110281580Y-97500000D01*
X108158206Y-95376627D01*
X107731315Y-95753084D01*
X107720200Y-95789733D01*
X107720200Y-94658206D01*
X108876627Y-94658206D01*
X111000000Y-96781580D01*
X113123373Y-94658206D01*
X112746916Y-94231315D01*
X111363069Y-93811613D01*
X109923948Y-93953434D01*
X109253084Y-94231315D01*
X108876627Y-94658206D01*
X107720200Y-94658206D01*
X107720200Y-66382657D01*
X118444935Y-68653263D01*
G36*
X120262842Y-87760247D02*
X120258050Y-87765031D01*
X120115404Y-88108559D01*
X120115080Y-88480525D01*
X120243600Y-88791568D01*
X120243600Y-90269889D01*
X120238808Y-90274673D01*
X120096162Y-90618201D01*
X120096117Y-90670001D01*
X119227447Y-90670001D01*
X119006521Y-90449075D01*
X119044838Y-90356799D01*
X119045162Y-89984833D01*
X118903117Y-89641057D01*
X118640327Y-89377808D01*
X118296799Y-89235162D01*
X117924833Y-89234838D01*
X117581057Y-89376883D01*
X117317808Y-89639673D01*
X117184322Y-89961142D01*
X117135443Y-89961099D01*
X116791667Y-90103144D01*
X116528418Y-90365934D01*
X116385772Y-90709462D01*
X116385448Y-91081428D01*
X116527493Y-91425204D01*
X116586683Y-91484498D01*
X116516793Y-91652812D01*
X116516515Y-91971723D01*
X116344029Y-92143908D01*
X116201383Y-92487436D01*
X116201059Y-92859402D01*
X116343104Y-93203178D01*
X116605894Y-93466427D01*
X116949422Y-93609073D01*
X117029419Y-93609143D01*
X117168469Y-93748193D01*
X117407439Y-93907868D01*
X117689324Y-93963938D01*
X118238279Y-93963938D01*
X118520164Y-93907868D01*
X118759134Y-93748193D01*
X119114797Y-93392530D01*
X127379111Y-93392530D01*
X127660996Y-93336460D01*
X127899966Y-93176785D01*
X128346200Y-92730551D01*
X128346200Y-94361000D01*
X116228158Y-94361000D01*
X110058200Y-88191042D01*
X110058200Y-87096600D01*
X118942604Y-87096600D01*
X119052994Y-87142438D01*
X119424960Y-87142762D01*
X119768736Y-87000717D01*
X120031985Y-86737927D01*
X120174631Y-86394399D01*
X120174955Y-86022433D01*
X120032910Y-85678657D01*
X119934787Y-85580362D01*
X120041072Y-85324400D01*
X120262842Y-85102631D01*
X120262842Y-87760247D01*
X120262842Y-87760247D01*
G37*
X120262842Y-87760247D02*
X120258050Y-87765031D01*
X120115404Y-88108559D01*
X120115080Y-88480525D01*
X120243600Y-88791568D01*
X120243600Y-90269889D01*
X120238808Y-90274673D01*
X120096162Y-90618201D01*
X120096117Y-90670001D01*
X119227447Y-90670001D01*
X119006521Y-90449075D01*
X119044838Y-90356799D01*
X119045162Y-89984833D01*
X118903117Y-89641057D01*
X118640327Y-89377808D01*
X118296799Y-89235162D01*
X117924833Y-89234838D01*
X117581057Y-89376883D01*
X117317808Y-89639673D01*
X117184322Y-89961142D01*
X117135443Y-89961099D01*
X116791667Y-90103144D01*
X116528418Y-90365934D01*
X116385772Y-90709462D01*
X116385448Y-91081428D01*
X116527493Y-91425204D01*
X116586683Y-91484498D01*
X116516793Y-91652812D01*
X116516515Y-91971723D01*
X116344029Y-92143908D01*
X116201383Y-92487436D01*
X116201059Y-92859402D01*
X116343104Y-93203178D01*
X116605894Y-93466427D01*
X116949422Y-93609073D01*
X117029419Y-93609143D01*
X117168469Y-93748193D01*
X117407439Y-93907868D01*
X117689324Y-93963938D01*
X118238279Y-93963938D01*
X118520164Y-93907868D01*
X118759134Y-93748193D01*
X119114797Y-93392530D01*
X127379111Y-93392530D01*
X127660996Y-93336460D01*
X127899966Y-93176785D01*
X128346200Y-92730551D01*
X128346200Y-94361000D01*
X116228158Y-94361000D01*
X110058200Y-88191042D01*
X110058200Y-87096600D01*
X118942604Y-87096600D01*
X119052994Y-87142438D01*
X119424960Y-87142762D01*
X119768736Y-87000717D01*
X120031985Y-86737927D01*
X120174631Y-86394399D01*
X120174955Y-86022433D01*
X120032910Y-85678657D01*
X119934787Y-85580362D01*
X120041072Y-85324400D01*
X120262842Y-85102631D01*
X120262842Y-87760247D01*
G36*
X132028954Y-77082784D02*
X132052043Y-77198859D01*
X132222730Y-77454310D01*
X132857689Y-78089269D01*
X133113140Y-78259956D01*
X133414465Y-78319893D01*
X137677625Y-78319893D01*
X146383390Y-87025658D01*
X146383390Y-88928778D01*
X146443327Y-89230103D01*
X146614014Y-89485554D01*
X147702836Y-90574376D01*
X147891160Y-90700210D01*
X147691908Y-90700210D01*
X138444084Y-81452386D01*
X138188633Y-81281699D01*
X137887308Y-81221762D01*
X133179643Y-81221762D01*
X133179638Y-81221761D01*
X132878313Y-81281699D01*
X132622862Y-81452386D01*
X132358804Y-81716444D01*
X132352033Y-81716438D01*
X132008257Y-81858483D01*
X131828901Y-82037526D01*
X130144199Y-80352824D01*
X130144205Y-80346053D01*
X130002160Y-80002277D01*
X129739370Y-79739028D01*
X129395842Y-79596382D01*
X129023876Y-79596058D01*
X128934343Y-79633052D01*
X128602260Y-79495159D01*
X128230294Y-79494835D01*
X127886518Y-79636880D01*
X127670846Y-79852176D01*
X127514457Y-79852040D01*
X127170681Y-79994085D01*
X126907432Y-80256875D01*
X126764786Y-80600403D01*
X126764462Y-80972369D01*
X126766662Y-80977692D01*
X126725057Y-80994883D01*
X126461808Y-81257673D01*
X126319162Y-81601201D01*
X126319095Y-81678550D01*
X126313459Y-81680879D01*
X126050210Y-81943669D01*
X125907564Y-82287197D01*
X125907240Y-82659163D01*
X126049285Y-83002939D01*
X126312075Y-83266188D01*
X126655603Y-83408834D01*
X126663695Y-83408841D01*
X129212600Y-85957746D01*
X129212600Y-88269912D01*
X128897633Y-88269638D01*
X128553857Y-88411683D01*
X128290608Y-88674473D01*
X128203870Y-88883360D01*
X128149297Y-88883312D01*
X127805521Y-89025357D01*
X127542272Y-89288147D01*
X127399626Y-89631675D01*
X127399341Y-89958418D01*
X127186799Y-89870162D01*
X126814833Y-89869838D01*
X126499649Y-90000069D01*
X126186799Y-89870162D01*
X125814833Y-89869838D01*
X125471057Y-90011883D01*
X125207808Y-90274673D01*
X125065162Y-90618201D01*
X125065117Y-90670001D01*
X124887118Y-90670001D01*
X124887162Y-90619833D01*
X124745117Y-90276057D01*
X124739400Y-90270330D01*
X124739400Y-81148687D01*
X128754336Y-77133751D01*
X129088146Y-76995824D01*
X129351395Y-76733034D01*
X129494041Y-76389506D01*
X129494365Y-76017540D01*
X129352320Y-75673764D01*
X129089530Y-75410515D01*
X128746002Y-75267869D01*
X128374036Y-75267545D01*
X128353783Y-75275914D01*
X128309737Y-75231791D01*
X128057569Y-75127081D01*
X128061838Y-75116799D01*
X128062162Y-74744833D01*
X127920117Y-74401057D01*
X127657327Y-74137808D01*
X127416509Y-74037811D01*
X128983981Y-74037811D01*
X132028954Y-77082784D01*
X132028954Y-77082784D01*
G37*
X132028954Y-77082784D02*
X132052043Y-77198859D01*
X132222730Y-77454310D01*
X132857689Y-78089269D01*
X133113140Y-78259956D01*
X133414465Y-78319893D01*
X137677625Y-78319893D01*
X146383390Y-87025658D01*
X146383390Y-88928778D01*
X146443327Y-89230103D01*
X146614014Y-89485554D01*
X147702836Y-90574376D01*
X147891160Y-90700210D01*
X147691908Y-90700210D01*
X138444084Y-81452386D01*
X138188633Y-81281699D01*
X137887308Y-81221762D01*
X133179643Y-81221762D01*
X133179638Y-81221761D01*
X132878313Y-81281699D01*
X132622862Y-81452386D01*
X132358804Y-81716444D01*
X132352033Y-81716438D01*
X132008257Y-81858483D01*
X131828901Y-82037526D01*
X130144199Y-80352824D01*
X130144205Y-80346053D01*
X130002160Y-80002277D01*
X129739370Y-79739028D01*
X129395842Y-79596382D01*
X129023876Y-79596058D01*
X128934343Y-79633052D01*
X128602260Y-79495159D01*
X128230294Y-79494835D01*
X127886518Y-79636880D01*
X127670846Y-79852176D01*
X127514457Y-79852040D01*
X127170681Y-79994085D01*
X126907432Y-80256875D01*
X126764786Y-80600403D01*
X126764462Y-80972369D01*
X126766662Y-80977692D01*
X126725057Y-80994883D01*
X126461808Y-81257673D01*
X126319162Y-81601201D01*
X126319095Y-81678550D01*
X126313459Y-81680879D01*
X126050210Y-81943669D01*
X125907564Y-82287197D01*
X125907240Y-82659163D01*
X126049285Y-83002939D01*
X126312075Y-83266188D01*
X126655603Y-83408834D01*
X126663695Y-83408841D01*
X129212600Y-85957746D01*
X129212600Y-88269912D01*
X128897633Y-88269638D01*
X128553857Y-88411683D01*
X128290608Y-88674473D01*
X128203870Y-88883360D01*
X128149297Y-88883312D01*
X127805521Y-89025357D01*
X127542272Y-89288147D01*
X127399626Y-89631675D01*
X127399341Y-89958418D01*
X127186799Y-89870162D01*
X126814833Y-89869838D01*
X126499649Y-90000069D01*
X126186799Y-89870162D01*
X125814833Y-89869838D01*
X125471057Y-90011883D01*
X125207808Y-90274673D01*
X125065162Y-90618201D01*
X125065117Y-90670001D01*
X124887118Y-90670001D01*
X124887162Y-90619833D01*
X124745117Y-90276057D01*
X124739400Y-90270330D01*
X124739400Y-81148687D01*
X128754336Y-77133751D01*
X129088146Y-76995824D01*
X129351395Y-76733034D01*
X129494041Y-76389506D01*
X129494365Y-76017540D01*
X129352320Y-75673764D01*
X129089530Y-75410515D01*
X128746002Y-75267869D01*
X128374036Y-75267545D01*
X128353783Y-75275914D01*
X128309737Y-75231791D01*
X128057569Y-75127081D01*
X128061838Y-75116799D01*
X128062162Y-74744833D01*
X127920117Y-74401057D01*
X127657327Y-74137808D01*
X127416509Y-74037811D01*
X128983981Y-74037811D01*
X132028954Y-77082784D01*
G36*
X118237361Y-79768855D02*
X118476331Y-79928530D01*
X118758216Y-79984600D01*
X120564517Y-79984600D01*
X119061995Y-81487122D01*
X118753212Y-81358904D01*
X118381246Y-81358580D01*
X118037470Y-81500625D01*
X117774221Y-81763415D01*
X117631575Y-82106943D01*
X117631384Y-82326358D01*
X117264433Y-82326038D01*
X117152712Y-82372200D01*
X110007400Y-82372200D01*
X110007400Y-78249836D01*
X110752592Y-77504644D01*
X111000000Y-77553857D01*
X111583210Y-77437849D01*
X112050611Y-77125542D01*
X112052843Y-77136765D01*
X112193191Y-77346809D01*
X112403235Y-77487157D01*
X112651000Y-77536440D01*
X114429000Y-77536440D01*
X114676765Y-77487157D01*
X114886809Y-77346809D01*
X115027157Y-77136765D01*
X115076440Y-76889000D01*
X115076440Y-76751816D01*
X115099212Y-76736600D01*
X115205106Y-76736600D01*
X118237361Y-79768855D01*
X118237361Y-79768855D01*
G37*
X118237361Y-79768855D02*
X118476331Y-79928530D01*
X118758216Y-79984600D01*
X120564517Y-79984600D01*
X119061995Y-81487122D01*
X118753212Y-81358904D01*
X118381246Y-81358580D01*
X118037470Y-81500625D01*
X117774221Y-81763415D01*
X117631575Y-82106943D01*
X117631384Y-82326358D01*
X117264433Y-82326038D01*
X117152712Y-82372200D01*
X110007400Y-82372200D01*
X110007400Y-78249836D01*
X110752592Y-77504644D01*
X111000000Y-77553857D01*
X111583210Y-77437849D01*
X112050611Y-77125542D01*
X112052843Y-77136765D01*
X112193191Y-77346809D01*
X112403235Y-77487157D01*
X112651000Y-77536440D01*
X114429000Y-77536440D01*
X114676765Y-77487157D01*
X114886809Y-77346809D01*
X115027157Y-77136765D01*
X115076440Y-76889000D01*
X115076440Y-76751816D01*
X115099212Y-76736600D01*
X115205106Y-76736600D01*
X118237361Y-79768855D01*
G36*
X120194470Y-71473576D02*
X120449921Y-71644263D01*
X120751246Y-71704200D01*
X122299289Y-71704200D01*
X122304073Y-71708992D01*
X122647601Y-71851638D01*
X123019567Y-71851962D01*
X123363343Y-71709917D01*
X123626592Y-71447127D01*
X123769238Y-71103599D01*
X123769426Y-70888210D01*
X124293968Y-70888210D01*
X124508376Y-71031473D01*
X124809701Y-71091410D01*
X125499549Y-71091410D01*
X125522925Y-71114786D01*
X125778376Y-71285473D01*
X126079701Y-71345410D01*
X126718750Y-71345410D01*
X126843723Y-71470383D01*
X126843725Y-71470386D01*
X126996856Y-71572705D01*
X127099175Y-71641073D01*
X127400500Y-71701010D01*
X128090350Y-71701010D01*
X128347540Y-71958200D01*
X126847599Y-71958201D01*
X126546274Y-72018138D01*
X126290823Y-72188825D01*
X123954024Y-74525624D01*
X123783337Y-74781075D01*
X123723400Y-75082400D01*
X123723400Y-76825717D01*
X122706030Y-77843087D01*
X122649146Y-77786104D01*
X122421513Y-77691582D01*
X122499238Y-77504399D01*
X122499562Y-77132433D01*
X122357517Y-76788657D01*
X122094727Y-76525408D01*
X121751199Y-76382762D01*
X121379233Y-76382438D01*
X121035457Y-76524483D01*
X120978841Y-76581000D01*
X118914548Y-76581000D01*
X116084448Y-73750900D01*
X116082706Y-73742141D01*
X116068348Y-73669958D01*
X116068347Y-73669956D01*
X116068346Y-73669952D01*
X115972193Y-73526051D01*
X115908673Y-73430987D01*
X115870412Y-73392726D01*
X115870411Y-72721494D01*
X115814341Y-72439609D01*
X115671709Y-72226147D01*
X115654666Y-72200640D01*
X114950705Y-71496679D01*
X115063735Y-71224472D01*
X115064264Y-70618188D01*
X115001381Y-70465999D01*
X119186893Y-70465999D01*
X120194470Y-71473576D01*
X120194470Y-71473576D01*
G37*
X120194470Y-71473576D02*
X120449921Y-71644263D01*
X120751246Y-71704200D01*
X122299289Y-71704200D01*
X122304073Y-71708992D01*
X122647601Y-71851638D01*
X123019567Y-71851962D01*
X123363343Y-71709917D01*
X123626592Y-71447127D01*
X123769238Y-71103599D01*
X123769426Y-70888210D01*
X124293968Y-70888210D01*
X124508376Y-71031473D01*
X124809701Y-71091410D01*
X125499549Y-71091410D01*
X125522925Y-71114786D01*
X125778376Y-71285473D01*
X126079701Y-71345410D01*
X126718750Y-71345410D01*
X126843723Y-71470383D01*
X126843725Y-71470386D01*
X126996856Y-71572705D01*
X127099175Y-71641073D01*
X127400500Y-71701010D01*
X128090350Y-71701010D01*
X128347540Y-71958200D01*
X126847599Y-71958201D01*
X126546274Y-72018138D01*
X126290823Y-72188825D01*
X123954024Y-74525624D01*
X123783337Y-74781075D01*
X123723400Y-75082400D01*
X123723400Y-76825717D01*
X122706030Y-77843087D01*
X122649146Y-77786104D01*
X122421513Y-77691582D01*
X122499238Y-77504399D01*
X122499562Y-77132433D01*
X122357517Y-76788657D01*
X122094727Y-76525408D01*
X121751199Y-76382762D01*
X121379233Y-76382438D01*
X121035457Y-76524483D01*
X120978841Y-76581000D01*
X118914548Y-76581000D01*
X116084448Y-73750900D01*
X116082706Y-73742141D01*
X116068348Y-73669958D01*
X116068347Y-73669956D01*
X116068346Y-73669952D01*
X115972193Y-73526051D01*
X115908673Y-73430987D01*
X115870412Y-73392726D01*
X115870411Y-72721494D01*
X115814341Y-72439609D01*
X115671709Y-72226147D01*
X115654666Y-72200640D01*
X114950705Y-71496679D01*
X115063735Y-71224472D01*
X115064264Y-70618188D01*
X115001381Y-70465999D01*
X119186893Y-70465999D01*
X120194470Y-71473576D01*
G36*
X111687662Y-70860957D02*
X111628618Y-70920000D01*
X111687662Y-70979044D01*
X111059044Y-71607662D01*
X111000000Y-71548618D01*
X110940957Y-71607662D01*
X110545999Y-71212704D01*
X110545999Y-70650279D01*
X110730279Y-70465999D01*
X111292704Y-70465999D01*
X111687662Y-70860957D01*
X111687662Y-70860957D01*
G37*
X111687662Y-70860957D02*
X111628618Y-70920000D01*
X111687662Y-70979044D01*
X111059044Y-71607662D01*
X111000000Y-71548618D01*
X110940957Y-71607662D01*
X110545999Y-71212704D01*
X110545999Y-70650279D01*
X110730279Y-70465999D01*
X111292704Y-70465999D01*
X111687662Y-70860957D01*
M02*
