G04 #@! TF.FileFunction,Copper,L1,Top,Signal*
%FSLAX46Y46*%
G04 Gerber Fmt 4.6, Leading zero omitted, Abs format (unit mm)*
G04 Created by KiCad (PCBNEW 4.1.0-alpha+201608171232+7063~46~ubuntu14.04.1-product) date Tue Aug 30 16:52:41 2016*
%MOMM*%
%LPD*%
G01*
G04 APERTURE LIST*
%ADD10C,0.600000*%
%ADD11R,0.250000X1.300000*%
%ADD12R,1.800000X3.000000*%
%ADD13C,0.550000*%
%ADD14R,1.700000X1.700000*%
%ADD15C,6.000000*%
%ADD16R,0.500000X0.550000*%
%ADD17R,1.016000X1.016000*%
%ADD18R,0.550000X0.500000*%
%ADD19R,1.778000X1.778000*%
%ADD20C,1.778000*%
%ADD21O,1.778000X1.778000*%
%ADD22R,1.524000X1.270000*%
%ADD23R,1.016000X0.762000*%
%ADD24R,1.016000X0.508000*%
%ADD25C,1.000000*%
%ADD26R,0.500000X2.400000*%
%ADD27R,2.200000X3.500000*%
%ADD28R,1.300000X0.250000*%
%ADD29R,3.000000X1.800000*%
%ADD30C,0.600000*%
%ADD31C,0.250000*%
%ADD32C,0.304800*%
%ADD33C,0.508000*%
%ADD34C,0.355600*%
%ADD35C,0.203200*%
%ADD36C,0.254000*%
G04 APERTURE END LIST*
D10*
D11*
X167250000Y-94750000D03*
X167750000Y-94750000D03*
X168250000Y-94750000D03*
X168750000Y-94750000D03*
X169250000Y-94750000D03*
X169750000Y-94750000D03*
D12*
X165750000Y-97000000D03*
X174250000Y-97000000D03*
D11*
X170250000Y-94750000D03*
X170750000Y-94750000D03*
X171250000Y-94750000D03*
X171750000Y-94750000D03*
X172250000Y-94750000D03*
X172750000Y-94750000D03*
D13*
X115722400Y-71069200D03*
X114401600Y-78079600D03*
X151028400Y-90881200D03*
X144068800Y-86258400D03*
D14*
X136990000Y-86000000D03*
X132010000Y-86000000D03*
D13*
X135280400Y-86664800D03*
X135331200Y-84937600D03*
X116179600Y-89001600D03*
X121056400Y-72237600D03*
X117551200Y-71526400D03*
X118821200Y-71526400D03*
X117551200Y-72796400D03*
X118821200Y-72796400D03*
X115112800Y-80619600D03*
X116382800Y-80619600D03*
X115112800Y-81889600D03*
X116382800Y-81889600D03*
X135890000Y-80518000D03*
X134620000Y-80518000D03*
X135890000Y-79248000D03*
D10*
G36*
X117714005Y-80512184D02*
X119128218Y-79097971D01*
X119481771Y-79451524D01*
X118067558Y-80865737D01*
X117714005Y-80512184D01*
X117714005Y-80512184D01*
G37*
G36*
X118279690Y-81077869D02*
X119693903Y-79663656D01*
X120047456Y-80017209D01*
X118633243Y-81431422D01*
X118279690Y-81077869D01*
X118279690Y-81077869D01*
G37*
G36*
X118845376Y-81643555D02*
X120259589Y-80229342D01*
X120613142Y-80582895D01*
X119198929Y-81997108D01*
X118845376Y-81643555D01*
X118845376Y-81643555D01*
G37*
G36*
X119411061Y-82209240D02*
X120825274Y-80795027D01*
X121178827Y-81148580D01*
X119764614Y-82562793D01*
X119411061Y-82209240D01*
X119411061Y-82209240D01*
G37*
G36*
X119976747Y-82774926D02*
X121390960Y-81360713D01*
X121744513Y-81714266D01*
X120330300Y-83128479D01*
X119976747Y-82774926D01*
X119976747Y-82774926D01*
G37*
G36*
X120542432Y-83340611D02*
X121956645Y-81926398D01*
X122310198Y-82279951D01*
X120895985Y-83694164D01*
X120542432Y-83340611D01*
X120542432Y-83340611D01*
G37*
G36*
X121108117Y-83906296D02*
X122522330Y-82492083D01*
X122875883Y-82845636D01*
X121461670Y-84259849D01*
X121108117Y-83906296D01*
X121108117Y-83906296D01*
G37*
G36*
X121673803Y-84471982D02*
X123088016Y-83057769D01*
X123441569Y-83411322D01*
X122027356Y-84825535D01*
X121673803Y-84471982D01*
X121673803Y-84471982D01*
G37*
G36*
X122239488Y-85037667D02*
X123653701Y-83623454D01*
X124007254Y-83977007D01*
X122593041Y-85391220D01*
X122239488Y-85037667D01*
X122239488Y-85037667D01*
G37*
G36*
X122805174Y-85603353D02*
X124219387Y-84189140D01*
X124572940Y-84542693D01*
X123158727Y-85956906D01*
X122805174Y-85603353D01*
X122805174Y-85603353D01*
G37*
G36*
X123370859Y-86169038D02*
X124785072Y-84754825D01*
X125138625Y-85108378D01*
X123724412Y-86522591D01*
X123370859Y-86169038D01*
X123370859Y-86169038D01*
G37*
G36*
X127047814Y-86522591D02*
X125633601Y-85108378D01*
X125987154Y-84754825D01*
X127401367Y-86169038D01*
X127047814Y-86522591D01*
X127047814Y-86522591D01*
G37*
G36*
X127613499Y-85956906D02*
X126199286Y-84542693D01*
X126552839Y-84189140D01*
X127967052Y-85603353D01*
X127613499Y-85956906D01*
X127613499Y-85956906D01*
G37*
G36*
X128179185Y-85391220D02*
X126764972Y-83977007D01*
X127118525Y-83623454D01*
X128532738Y-85037667D01*
X128179185Y-85391220D01*
X128179185Y-85391220D01*
G37*
G36*
X128744870Y-84825535D02*
X127330657Y-83411322D01*
X127684210Y-83057769D01*
X129098423Y-84471982D01*
X128744870Y-84825535D01*
X128744870Y-84825535D01*
G37*
G36*
X129310556Y-84259849D02*
X127896343Y-82845636D01*
X128249896Y-82492083D01*
X129664109Y-83906296D01*
X129310556Y-84259849D01*
X129310556Y-84259849D01*
G37*
G36*
X129876241Y-83694164D02*
X128462028Y-82279951D01*
X128815581Y-81926398D01*
X130229794Y-83340611D01*
X129876241Y-83694164D01*
X129876241Y-83694164D01*
G37*
G36*
X130441926Y-83128479D02*
X129027713Y-81714266D01*
X129381266Y-81360713D01*
X130795479Y-82774926D01*
X130441926Y-83128479D01*
X130441926Y-83128479D01*
G37*
G36*
X131007612Y-82562793D02*
X129593399Y-81148580D01*
X129946952Y-80795027D01*
X131361165Y-82209240D01*
X131007612Y-82562793D01*
X131007612Y-82562793D01*
G37*
G36*
X131573297Y-81997108D02*
X130159084Y-80582895D01*
X130512637Y-80229342D01*
X131926850Y-81643555D01*
X131573297Y-81997108D01*
X131573297Y-81997108D01*
G37*
G36*
X132138983Y-81431422D02*
X130724770Y-80017209D01*
X131078323Y-79663656D01*
X132492536Y-81077869D01*
X132138983Y-81431422D01*
X132138983Y-81431422D01*
G37*
G36*
X132704668Y-80865737D02*
X131290455Y-79451524D01*
X131644008Y-79097971D01*
X133058221Y-80512184D01*
X132704668Y-80865737D01*
X132704668Y-80865737D01*
G37*
G36*
X131290455Y-78249442D02*
X132704668Y-76835229D01*
X133058221Y-77188782D01*
X131644008Y-78602995D01*
X131290455Y-78249442D01*
X131290455Y-78249442D01*
G37*
G36*
X130724770Y-77683757D02*
X132138983Y-76269544D01*
X132492536Y-76623097D01*
X131078323Y-78037310D01*
X130724770Y-77683757D01*
X130724770Y-77683757D01*
G37*
G36*
X130159084Y-77118071D02*
X131573297Y-75703858D01*
X131926850Y-76057411D01*
X130512637Y-77471624D01*
X130159084Y-77118071D01*
X130159084Y-77118071D01*
G37*
G36*
X129593399Y-76552386D02*
X131007612Y-75138173D01*
X131361165Y-75491726D01*
X129946952Y-76905939D01*
X129593399Y-76552386D01*
X129593399Y-76552386D01*
G37*
G36*
X129027713Y-75986700D02*
X130441926Y-74572487D01*
X130795479Y-74926040D01*
X129381266Y-76340253D01*
X129027713Y-75986700D01*
X129027713Y-75986700D01*
G37*
G36*
X128462028Y-75421015D02*
X129876241Y-74006802D01*
X130229794Y-74360355D01*
X128815581Y-75774568D01*
X128462028Y-75421015D01*
X128462028Y-75421015D01*
G37*
G36*
X127896343Y-74855330D02*
X129310556Y-73441117D01*
X129664109Y-73794670D01*
X128249896Y-75208883D01*
X127896343Y-74855330D01*
X127896343Y-74855330D01*
G37*
G36*
X127330657Y-74289644D02*
X128744870Y-72875431D01*
X129098423Y-73228984D01*
X127684210Y-74643197D01*
X127330657Y-74289644D01*
X127330657Y-74289644D01*
G37*
G36*
X126764972Y-73723959D02*
X128179185Y-72309746D01*
X128532738Y-72663299D01*
X127118525Y-74077512D01*
X126764972Y-73723959D01*
X126764972Y-73723959D01*
G37*
G36*
X126199286Y-73158273D02*
X127613499Y-71744060D01*
X127967052Y-72097613D01*
X126552839Y-73511826D01*
X126199286Y-73158273D01*
X126199286Y-73158273D01*
G37*
G36*
X125633601Y-72592588D02*
X127047814Y-71178375D01*
X127401367Y-71531928D01*
X125987154Y-72946141D01*
X125633601Y-72592588D01*
X125633601Y-72592588D01*
G37*
G36*
X124785072Y-72946141D02*
X123370859Y-71531928D01*
X123724412Y-71178375D01*
X125138625Y-72592588D01*
X124785072Y-72946141D01*
X124785072Y-72946141D01*
G37*
G36*
X124219387Y-73511826D02*
X122805174Y-72097613D01*
X123158727Y-71744060D01*
X124572940Y-73158273D01*
X124219387Y-73511826D01*
X124219387Y-73511826D01*
G37*
G36*
X123653701Y-74077512D02*
X122239488Y-72663299D01*
X122593041Y-72309746D01*
X124007254Y-73723959D01*
X123653701Y-74077512D01*
X123653701Y-74077512D01*
G37*
G36*
X123088016Y-74643197D02*
X121673803Y-73228984D01*
X122027356Y-72875431D01*
X123441569Y-74289644D01*
X123088016Y-74643197D01*
X123088016Y-74643197D01*
G37*
G36*
X122522330Y-75208883D02*
X121108117Y-73794670D01*
X121461670Y-73441117D01*
X122875883Y-74855330D01*
X122522330Y-75208883D01*
X122522330Y-75208883D01*
G37*
G36*
X121956645Y-75774568D02*
X120542432Y-74360355D01*
X120895985Y-74006802D01*
X122310198Y-75421015D01*
X121956645Y-75774568D01*
X121956645Y-75774568D01*
G37*
G36*
X121390960Y-76340253D02*
X119976747Y-74926040D01*
X120330300Y-74572487D01*
X121744513Y-75986700D01*
X121390960Y-76340253D01*
X121390960Y-76340253D01*
G37*
G36*
X120825274Y-76905939D02*
X119411061Y-75491726D01*
X119764614Y-75138173D01*
X121178827Y-76552386D01*
X120825274Y-76905939D01*
X120825274Y-76905939D01*
G37*
G36*
X120259589Y-77471624D02*
X118845376Y-76057411D01*
X119198929Y-75703858D01*
X120613142Y-77118071D01*
X120259589Y-77471624D01*
X120259589Y-77471624D01*
G37*
G36*
X119693903Y-78037310D02*
X118279690Y-76623097D01*
X118633243Y-76269544D01*
X120047456Y-77683757D01*
X119693903Y-78037310D01*
X119693903Y-78037310D01*
G37*
G36*
X119128218Y-78602995D02*
X117714005Y-77188782D01*
X118067558Y-76835229D01*
X119481771Y-78249442D01*
X119128218Y-78602995D01*
X119128218Y-78602995D01*
G37*
D15*
X155000000Y-97500000D03*
X111000000Y-97500000D03*
D16*
X110172500Y-82486500D03*
X111188500Y-82486500D03*
X110172500Y-81496000D03*
X111188500Y-81496000D03*
X110172500Y-80518000D03*
X111188500Y-80518000D03*
D10*
G36*
X119751231Y-84159322D02*
X119362322Y-84548231D01*
X119008769Y-84194678D01*
X119397678Y-83805769D01*
X119751231Y-84159322D01*
X119751231Y-84159322D01*
G37*
G36*
X119727189Y-84913098D02*
X120116098Y-84524189D01*
X120469651Y-84877742D01*
X120080742Y-85266651D01*
X119727189Y-84913098D01*
X119727189Y-84913098D01*
G37*
D16*
X112894000Y-68796000D03*
X111878000Y-68796000D03*
D17*
X160495000Y-84836000D03*
X160495000Y-86614000D03*
X112522000Y-84201000D03*
X110744000Y-84201000D03*
D10*
G36*
X118232888Y-75108521D02*
X117843979Y-74719612D01*
X118197532Y-74366059D01*
X118586441Y-74754968D01*
X118232888Y-75108521D01*
X118232888Y-75108521D01*
G37*
G36*
X117479112Y-75084479D02*
X117868021Y-75473388D01*
X117514468Y-75826941D01*
X117125559Y-75438032D01*
X117479112Y-75084479D01*
X117479112Y-75084479D01*
G37*
D16*
X161139200Y-96453200D03*
X160123200Y-96453200D03*
D18*
X142000000Y-90008000D03*
X142000000Y-88992000D03*
X120000000Y-90008000D03*
X120000000Y-88992000D03*
X122000000Y-90000000D03*
X122000000Y-88984000D03*
X130000000Y-90008000D03*
X130000000Y-88992000D03*
X131000000Y-90008000D03*
X131000000Y-88992000D03*
X132000000Y-90000000D03*
X132000000Y-88984000D03*
X133000000Y-90008000D03*
X133000000Y-88992000D03*
X134000000Y-90008000D03*
X134000000Y-88992000D03*
X135000000Y-90000000D03*
X135000000Y-88984000D03*
X136000000Y-90008000D03*
X136000000Y-88992000D03*
X137000000Y-90016000D03*
X137000000Y-89000000D03*
X138000000Y-90000000D03*
X138000000Y-88984000D03*
X139000000Y-90000000D03*
X139000000Y-88984000D03*
X140000000Y-90016000D03*
X140000000Y-89000000D03*
X141000000Y-90008000D03*
X141000000Y-88992000D03*
X119000000Y-90008000D03*
X119000000Y-88992000D03*
X139000000Y-87000000D03*
X139000000Y-88016000D03*
X130000000Y-87000000D03*
X130000000Y-88016000D03*
D19*
X113540000Y-76000000D03*
D20*
X113540000Y-73460000D03*
X113540000Y-70920000D03*
X111000000Y-73460000D03*
D21*
X111000000Y-76000000D03*
D20*
X111000000Y-70920000D03*
D22*
X158463000Y-86614000D03*
X156431000Y-86614000D03*
D18*
X112242500Y-78638400D03*
X112242500Y-79654400D03*
D16*
X159957000Y-90000000D03*
X158941000Y-90000000D03*
X159957000Y-88924900D03*
X158941000Y-88924900D03*
X161037600Y-97824800D03*
X160021600Y-97824800D03*
X162095000Y-96440500D03*
X163111000Y-96440500D03*
X163111000Y-97837500D03*
X162095000Y-97837500D03*
X161139200Y-95234000D03*
X160123200Y-95234000D03*
D18*
X112262000Y-80496000D03*
X112262000Y-81512000D03*
D16*
X163104400Y-95246700D03*
X162088400Y-95246700D03*
X159992000Y-93500000D03*
X161008000Y-93500000D03*
D23*
X112115600Y-89966800D03*
X110591600Y-89966800D03*
X112115600Y-92506800D03*
X110591600Y-92506800D03*
D24*
X112115600Y-90855800D03*
X112115600Y-91617800D03*
X110591600Y-90855800D03*
X110591600Y-91617800D03*
D23*
X112141000Y-85852000D03*
X110617000Y-85852000D03*
X112141000Y-88392000D03*
X110617000Y-88392000D03*
D24*
X112141000Y-86741000D03*
X112141000Y-87503000D03*
X110617000Y-86741000D03*
X110617000Y-87503000D03*
D25*
X109000000Y-68000000D03*
X172593000Y-88773000D03*
X121000000Y-98000000D03*
D13*
X134620000Y-79248000D03*
D26*
X142000000Y-93000000D03*
X141000000Y-93000000D03*
X140000000Y-93000000D03*
X139000000Y-93000000D03*
X138000000Y-93000000D03*
X137000000Y-93000000D03*
X136000000Y-93000000D03*
X135000000Y-93000000D03*
X134000000Y-93000000D03*
X133000000Y-93000000D03*
X132000000Y-93000000D03*
X131000000Y-93000000D03*
X130000000Y-93000000D03*
X129000000Y-93000000D03*
X128000000Y-93000000D03*
X127000000Y-93000000D03*
X126000000Y-93000000D03*
X125000000Y-93000000D03*
X124000000Y-93000000D03*
X123000000Y-93000000D03*
X122000000Y-93000000D03*
X121000000Y-93000000D03*
X120000000Y-93000000D03*
X119000000Y-93000000D03*
D27*
X116500000Y-96000000D03*
X144500000Y-96000000D03*
D28*
X163299000Y-90551000D03*
X163299000Y-90051000D03*
X163299000Y-89551000D03*
X163299000Y-89051000D03*
X163299000Y-88551000D03*
X163299000Y-88051000D03*
D29*
X165549000Y-92401000D03*
X165549000Y-86201000D03*
D30*
X153500000Y-88000000D03*
X133936719Y-76375281D03*
X140035596Y-75177003D03*
X139448762Y-72953610D03*
X119380000Y-68580000D03*
X172250000Y-92750000D03*
X172250000Y-92000000D03*
X161548200Y-93500000D03*
X151135005Y-94050180D03*
X122834400Y-70916800D03*
X117449600Y-83261200D03*
X119239793Y-86207600D03*
X129082800Y-89204800D03*
X121564400Y-77317600D03*
X120310617Y-83993933D03*
X119126000Y-85090000D03*
X156500000Y-88750000D03*
X120330348Y-69487047D03*
X141762339Y-88234662D03*
X142000000Y-90805000D03*
X138674279Y-85146601D03*
X137000000Y-90805000D03*
X122787799Y-81481564D03*
X122000000Y-90805000D03*
X126842402Y-82473996D03*
X130000000Y-90805000D03*
X127254000Y-81788000D03*
X131000000Y-90805000D03*
X127699624Y-80787202D03*
X132000000Y-90805000D03*
X128415461Y-80429997D03*
X133000000Y-90805000D03*
X129209043Y-80531220D03*
X134000000Y-90805000D03*
X134595390Y-84408528D03*
X135000000Y-90805000D03*
X135423191Y-83873885D03*
X136000000Y-90805000D03*
X139446583Y-85918905D03*
X138000000Y-90805000D03*
X139827000Y-87249000D03*
X139000000Y-90805000D03*
X140017500Y-88074500D03*
X140000000Y-90805000D03*
X140970000Y-88011000D03*
X141000000Y-90805000D03*
X120243600Y-78602438D03*
X118110000Y-90170000D03*
X126000000Y-90805000D03*
X117136221Y-92674235D03*
X128334464Y-89818474D03*
X117451631Y-91839611D03*
X122118819Y-78578296D03*
X128000000Y-90805000D03*
X117320610Y-90896261D03*
X121259600Y-78079600D03*
X127000000Y-90805000D03*
X128559203Y-76202707D03*
X123952000Y-90805000D03*
X127779410Y-76023983D03*
X123063000Y-90805000D03*
X121050242Y-88295358D03*
X121031000Y-90805000D03*
X127127000Y-74930000D03*
X160163934Y-91800000D03*
X133197600Y-83312000D03*
X171250000Y-91500000D03*
X162600000Y-92725852D03*
X170500000Y-93000000D03*
X133780554Y-83979712D03*
X132537200Y-82651600D03*
X169250000Y-90924910D03*
X118794961Y-83213488D03*
X158336000Y-90017600D03*
X158293494Y-88891706D03*
X118566413Y-82293742D03*
D31*
X165549000Y-92401000D02*
X165549000Y-96799000D01*
X165549000Y-96799000D02*
X165750000Y-97000000D01*
X167750000Y-93500000D02*
X167481958Y-93500000D01*
X167481958Y-93500000D02*
X167250000Y-93731958D01*
X167250000Y-93731958D02*
X167250000Y-94750000D01*
X168200000Y-93500000D02*
X168250000Y-93550000D01*
X168250000Y-93550000D02*
X168250000Y-94750000D01*
X167750000Y-93500000D02*
X168200000Y-93500000D01*
X167750000Y-93500000D02*
X167750000Y-94750000D01*
D32*
X167012646Y-92314646D02*
X166349000Y-91651000D01*
D33*
X160495000Y-84836000D02*
X162351983Y-84836000D01*
X162351983Y-84836000D02*
X163831420Y-86315437D01*
X163831420Y-86315437D02*
X165382563Y-86315437D01*
X165382563Y-86315437D02*
X166349000Y-86301500D01*
X166349000Y-86301500D02*
X166349000Y-87903500D01*
X166349000Y-87903500D02*
X166349000Y-89250000D01*
D31*
X163199000Y-90551000D02*
X161801000Y-90551000D01*
X161801000Y-90551000D02*
X161750000Y-90500000D01*
X163199000Y-90051000D02*
X161940959Y-90051000D01*
X161940959Y-90051000D02*
X161750000Y-90241959D01*
X161750000Y-90241959D02*
X161750000Y-90250000D01*
D33*
X161750000Y-90500000D02*
X161750000Y-90250000D01*
X161750000Y-91000000D02*
X161750000Y-90500000D01*
X162000000Y-91250000D02*
X161750000Y-91000000D01*
X163768327Y-91250000D02*
X162000000Y-91250000D01*
X166349000Y-91651000D02*
X164169327Y-91651000D01*
X164169327Y-91651000D02*
X163768327Y-91250000D01*
X166349000Y-89250000D02*
X166349000Y-91651000D01*
X166349000Y-89250000D02*
X170450398Y-89250000D01*
X170450398Y-89250000D02*
X172446397Y-91245999D01*
X173850000Y-96292000D02*
X173850000Y-97900000D01*
X172446397Y-91245999D02*
X172611921Y-91245999D01*
X172611921Y-91245999D02*
X173850000Y-92484078D01*
X173850000Y-92484078D02*
X173850000Y-96292000D01*
X159000000Y-96818400D02*
X159000000Y-98518843D01*
X160123200Y-96453200D02*
X159365200Y-96453200D01*
X159365200Y-96453200D02*
X159000000Y-96818400D01*
X119163573Y-77153427D02*
X119163573Y-77122493D01*
X119163573Y-77122493D02*
X117496790Y-75455710D01*
X136000000Y-88992000D02*
X136000000Y-87384400D01*
X136000000Y-87384400D02*
X135280400Y-86664800D01*
X135000000Y-88984000D02*
X135000000Y-86945200D01*
X135000000Y-86945200D02*
X135280400Y-86664800D01*
X132174338Y-77719112D02*
X133091112Y-77719112D01*
X133091112Y-77719112D02*
X134620000Y-79248000D01*
X123689057Y-72627943D02*
X123553307Y-72627943D01*
X123553307Y-72627943D02*
X122781100Y-71855736D01*
X122781100Y-71855736D02*
X121438264Y-71855736D01*
X121438264Y-71855736D02*
X121331399Y-71962601D01*
X121331399Y-71962601D02*
X121056400Y-72237600D01*
D32*
X136164999Y-80792999D02*
X135890000Y-80518000D01*
X135331200Y-84937600D02*
X135720108Y-84937600D01*
X136299735Y-84357973D02*
X136299735Y-80927735D01*
X136299735Y-80927735D02*
X136164999Y-80792999D01*
X135720108Y-84937600D02*
X136299735Y-84357973D01*
X129235200Y-86868000D02*
X129235200Y-87276200D01*
X129235200Y-87276200D02*
X129336800Y-87377800D01*
X129336800Y-87377800D02*
X129336800Y-87932600D01*
X129336800Y-87932600D02*
X129420200Y-88016000D01*
X129420200Y-88016000D02*
X130000000Y-88016000D01*
D34*
X129235200Y-86258400D02*
X129235200Y-86868000D01*
X128992356Y-86015556D02*
X129235200Y-86258400D01*
X128214540Y-83941652D02*
X128992356Y-84719468D01*
X128992356Y-84719468D02*
X128992356Y-86015556D01*
D32*
X116179600Y-89001600D02*
X118990400Y-89001600D01*
X118990400Y-89001600D02*
X119000000Y-88992000D01*
X116028600Y-84177000D02*
X115112800Y-83261200D01*
X115112800Y-83261200D02*
X115112800Y-81889600D01*
X119380000Y-84177000D02*
X116028600Y-84177000D01*
X117496790Y-75455710D02*
X117496790Y-75455092D01*
X117496790Y-75455092D02*
X117194657Y-75152959D01*
X117194657Y-75152959D02*
X117194657Y-73541851D01*
X117194657Y-73541851D02*
X117551200Y-73185308D01*
X117551200Y-73185308D02*
X117551200Y-72796400D01*
D33*
X110617000Y-89103200D02*
X110617000Y-90170000D01*
X110617000Y-88392000D02*
X110617000Y-89103200D01*
D32*
X110667800Y-89154000D02*
X115638292Y-89154000D01*
X110617000Y-89103200D02*
X110667800Y-89154000D01*
X115638292Y-89154000D02*
X115790692Y-89001600D01*
X115790692Y-89001600D02*
X116179600Y-89001600D01*
D34*
X120082814Y-83022412D02*
X120082814Y-83263166D01*
X119380000Y-83965980D02*
X119380000Y-84177000D01*
X120082814Y-83263166D02*
X119380000Y-83965980D01*
X120860630Y-82244596D02*
X120082814Y-83022412D01*
D33*
X110617000Y-91821000D02*
X110617000Y-92710000D01*
X110617000Y-91059000D02*
X110617000Y-91821000D01*
X110617000Y-90170000D02*
X110617000Y-91059000D01*
X110617000Y-87503000D02*
X110617000Y-88392000D01*
X110617000Y-86741000D02*
X110617000Y-87503000D01*
X110617000Y-85852000D02*
X110617000Y-86741000D01*
X110744000Y-84201000D02*
X110744000Y-85725000D01*
X110744000Y-85725000D02*
X110617000Y-85852000D01*
X110172500Y-83672500D02*
X110215500Y-83672500D01*
X110215500Y-83672500D02*
X110744000Y-84201000D01*
D32*
X111000000Y-70920000D02*
X111000000Y-69674000D01*
X111000000Y-69674000D02*
X111878000Y-68796000D01*
X122000000Y-88984000D02*
X120857400Y-88984000D01*
X120857400Y-88984000D02*
X120857400Y-88992000D01*
X120857400Y-88992000D02*
X120000000Y-88992000D01*
D33*
X110172500Y-82486500D02*
X110172500Y-83672500D01*
X110172500Y-80518000D02*
X110172500Y-81496000D01*
X110172500Y-82486500D02*
X110172500Y-81496000D01*
D34*
X130000000Y-88016000D02*
X130000000Y-88992000D01*
X139000000Y-88016000D02*
X139000000Y-88984000D01*
X119000000Y-88992000D02*
X120000000Y-88992000D01*
X131000000Y-88992000D02*
X130000000Y-88992000D01*
X132000000Y-88984000D02*
X131008000Y-88984000D01*
X131008000Y-88984000D02*
X131000000Y-88992000D01*
X133000000Y-88992000D02*
X132008000Y-88992000D01*
X132008000Y-88992000D02*
X132000000Y-88984000D01*
X134000000Y-88992000D02*
X133000000Y-88992000D01*
X135000000Y-88984000D02*
X134008000Y-88984000D01*
X134008000Y-88984000D02*
X134000000Y-88992000D01*
X136000000Y-88992000D02*
X135008000Y-88992000D01*
X135008000Y-88992000D02*
X135000000Y-88984000D01*
X137000000Y-89000000D02*
X136008000Y-89000000D01*
X136008000Y-89000000D02*
X136000000Y-88992000D01*
X138000000Y-88984000D02*
X137016000Y-88984000D01*
X137016000Y-88984000D02*
X137000000Y-89000000D01*
X139000000Y-88984000D02*
X138000000Y-88984000D01*
X140000000Y-89000000D02*
X139016000Y-89000000D01*
X139016000Y-89000000D02*
X139000000Y-88984000D01*
X141000000Y-88992000D02*
X140008000Y-88992000D01*
X140008000Y-88992000D02*
X140000000Y-89000000D01*
X142000000Y-88992000D02*
X141000000Y-88992000D01*
D32*
X167750000Y-92314646D02*
X167012646Y-92314646D01*
X167750000Y-93500000D02*
X167750000Y-92314646D01*
D31*
X168250000Y-94750000D02*
X168250000Y-94295487D01*
D32*
X153500000Y-88000000D02*
X153500000Y-89165600D01*
X153500000Y-89165600D02*
X159568400Y-95234000D01*
X159568400Y-95234000D02*
X160123200Y-95234000D01*
X119080001Y-68879999D02*
X119380000Y-68580000D01*
X116689847Y-71270153D02*
X119080001Y-68879999D01*
X116689847Y-76176847D02*
X116689847Y-71270153D01*
X117348000Y-76835000D02*
X116689847Y-76176847D01*
X133512455Y-76375281D02*
X133936719Y-76375281D01*
X132386799Y-76375281D02*
X133512455Y-76375281D01*
X131608653Y-77153427D02*
X132386799Y-76375281D01*
X140035596Y-74752739D02*
X140035596Y-75177003D01*
X139448762Y-72953610D02*
X140035596Y-73540444D01*
X140035596Y-73540444D02*
X140035596Y-74752739D01*
D34*
X112649000Y-81534000D02*
X112627000Y-81512000D01*
X112627000Y-81512000D02*
X112262000Y-81512000D01*
X117348000Y-76835000D02*
X112649000Y-81534000D01*
X117729000Y-76835000D02*
X117348000Y-76835000D01*
X117820072Y-76926072D02*
X117729000Y-76835000D01*
X118597888Y-77719112D02*
X117820072Y-76941296D01*
X117820072Y-76941296D02*
X117820072Y-76926072D01*
D33*
X112262000Y-81512000D02*
X111204500Y-81512000D01*
X111204500Y-81512000D02*
X111188500Y-81496000D01*
X111188500Y-81496000D02*
X111188500Y-82486500D01*
D31*
X172000000Y-93250000D02*
X172250000Y-93250000D01*
X171750000Y-93500000D02*
X172000000Y-93250000D01*
X171750000Y-94750000D02*
X171750000Y-93500000D01*
X172000000Y-93250000D02*
X172500000Y-93250000D01*
X172250000Y-93250000D02*
X172250000Y-92750000D01*
X172250000Y-94750000D02*
X172250000Y-93250000D01*
D33*
X172250000Y-92000000D02*
X172250000Y-93250000D01*
D31*
X172250000Y-93250000D02*
X172500000Y-93250000D01*
X172500000Y-93250000D02*
X172750000Y-93500000D01*
X172750000Y-93500000D02*
X172750000Y-94750000D01*
X162088400Y-94040200D02*
X161548200Y-93500000D01*
X161548200Y-93500000D02*
X161008000Y-93500000D01*
X162088400Y-94040200D02*
X162088400Y-95246700D01*
D33*
X156431000Y-86614000D02*
X152687619Y-86614000D01*
X151435004Y-91553518D02*
X151435004Y-93750181D01*
X152687619Y-86614000D02*
X151435004Y-87866615D01*
X151435004Y-87866615D02*
X151435004Y-90208882D01*
X151757401Y-90531279D02*
X151757401Y-91231121D01*
X151435004Y-90208882D02*
X151757401Y-90531279D01*
X151435004Y-93750181D02*
X151135005Y-94050180D01*
X151757401Y-91231121D02*
X151435004Y-91553518D01*
D32*
X127648855Y-84507337D02*
X127648855Y-84786771D01*
X127648855Y-84786771D02*
X128319462Y-85457378D01*
X128319462Y-85457378D02*
X128319462Y-86710690D01*
X128319462Y-86710690D02*
X128719128Y-87110356D01*
X128719128Y-87110356D02*
X128719128Y-88841128D01*
X128719128Y-88841128D02*
X129082800Y-89204800D01*
D33*
X111000000Y-76000000D02*
X111000000Y-78638400D01*
X111000000Y-78638400D02*
X111000000Y-80037202D01*
D32*
X112242500Y-78638400D02*
X111000000Y-78638400D01*
X124254742Y-72062258D02*
X123979858Y-72062258D01*
X123979858Y-72062258D02*
X122834400Y-70916800D01*
D33*
X119163573Y-80547539D02*
X117449600Y-82261512D01*
X117449600Y-82261512D02*
X117449600Y-83261200D01*
X111188500Y-80518000D02*
X111188500Y-80225702D01*
X111188500Y-80225702D02*
X111000000Y-80037202D01*
X111604299Y-80641501D02*
X112262000Y-80641501D01*
X111000000Y-80037202D02*
X111604299Y-80641501D01*
X120098420Y-84895420D02*
X120098420Y-85348973D01*
X120098420Y-85348973D02*
X119239793Y-86207600D01*
D32*
X111000000Y-76000000D02*
X111000000Y-77704000D01*
D34*
X121992000Y-83375966D02*
X120472546Y-84895420D01*
X120472546Y-84895420D02*
X120098420Y-84895420D01*
D32*
X113540000Y-70920000D02*
X112298599Y-72161401D01*
X112298599Y-72161401D02*
X112298599Y-77364519D01*
X112298599Y-77364519D02*
X113123369Y-78189289D01*
X113123369Y-78189289D02*
X113123369Y-79353331D01*
X113123369Y-79353331D02*
X112822300Y-79654400D01*
X112822300Y-79654400D02*
X112242500Y-79654400D01*
D35*
X127083169Y-85073023D02*
X126088393Y-84078247D01*
X126088393Y-84078247D02*
X126088393Y-81657500D01*
X126088393Y-81657500D02*
X121748493Y-77317600D01*
X121748493Y-77317600D02*
X121564400Y-77317600D01*
D32*
X113690400Y-69037600D02*
X113540000Y-69188000D01*
X113540000Y-69188000D02*
X113540000Y-70920000D01*
X112894000Y-68796000D02*
X113448800Y-68796000D01*
X113448800Y-68796000D02*
X113690400Y-69037600D01*
D34*
X112522000Y-84201000D02*
X114071473Y-84201000D01*
X114071473Y-84201000D02*
X114960473Y-85090000D01*
X114960473Y-85090000D02*
X119126000Y-85090000D01*
X121426315Y-82810281D02*
X120310617Y-83925979D01*
X120310617Y-83925979D02*
X120310617Y-83993933D01*
X118215210Y-74737290D02*
X118215210Y-75073692D01*
X118215210Y-75073692D02*
X119729259Y-76587741D01*
D32*
X156500000Y-88750000D02*
X156500000Y-91388381D01*
X156500000Y-91388381D02*
X159551453Y-94439834D01*
X160730694Y-94439834D02*
X161145163Y-94854303D01*
X159551453Y-94439834D02*
X160730694Y-94439834D01*
X161145163Y-94854303D02*
X161145163Y-95234000D01*
X161145163Y-95234000D02*
X161139200Y-95234000D01*
X161037600Y-97212400D02*
X161139200Y-97110800D01*
X161139200Y-97110800D02*
X161139200Y-96453200D01*
X161037600Y-97824800D02*
X161037600Y-97212400D01*
X161139200Y-96453200D02*
X162082300Y-96453200D01*
X162082300Y-96453200D02*
X162095000Y-96440500D01*
X161139200Y-95234000D02*
X161139200Y-96453200D01*
X120030349Y-69787046D02*
X120330348Y-69487047D01*
X119517128Y-70300267D02*
X120030349Y-69787046D01*
X119517128Y-75244240D02*
X119517128Y-70300267D01*
X120294944Y-76022056D02*
X119517128Y-75244240D01*
X126517484Y-72062258D02*
X127295300Y-71284442D01*
X127295300Y-71284442D02*
X133338078Y-71284442D01*
X142062338Y-80008702D02*
X142062338Y-87934663D01*
X133338078Y-71284442D02*
X142062338Y-80008702D01*
X142062338Y-87934663D02*
X141762339Y-88234662D01*
D35*
X140973190Y-95754810D02*
X142000000Y-94728000D01*
X142000000Y-94728000D02*
X142000000Y-93000000D01*
X119000000Y-93000000D02*
X119000000Y-93973425D01*
X119000000Y-93973425D02*
X120781385Y-95754810D01*
X120781385Y-95754810D02*
X140973190Y-95754810D01*
D34*
X142000000Y-90805000D02*
X142000000Y-93000000D01*
X142000000Y-90008000D02*
X142000000Y-90805000D01*
X119000000Y-90008000D02*
X119000000Y-93000000D01*
D32*
X131042967Y-76587741D02*
X132573708Y-75057000D01*
X138674279Y-80190193D02*
X138674279Y-84722337D01*
X132573708Y-75057000D02*
X133541086Y-75057000D01*
X133541086Y-75057000D02*
X138674279Y-80190193D01*
X138674279Y-84722337D02*
X138674279Y-85146601D01*
D35*
X136398000Y-95351600D02*
X137000000Y-94749600D01*
X137000000Y-94749600D02*
X137000000Y-93000000D01*
X120948400Y-95351600D02*
X136398000Y-95351600D01*
X120000000Y-93000000D02*
X120000000Y-94403200D01*
X120000000Y-94403200D02*
X120948400Y-95351600D01*
D34*
X137000000Y-90805000D02*
X137000000Y-93000000D01*
X137000000Y-90016000D02*
X137000000Y-90805000D01*
X120000000Y-90008000D02*
X120000000Y-93000000D01*
D35*
X118597888Y-79981854D02*
X119263190Y-79316552D01*
X119263190Y-79316552D02*
X120622787Y-79316552D01*
X120622787Y-79316552D02*
X122487800Y-81181565D01*
X122487800Y-81181565D02*
X122787799Y-81481564D01*
D34*
X122000000Y-90805000D02*
X122000000Y-93000000D01*
X122000000Y-90000000D02*
X122000000Y-90805000D01*
D32*
X120860630Y-75456370D02*
X121638446Y-76234186D01*
X121638446Y-76234186D02*
X121806462Y-76234186D01*
X121806462Y-76234186D02*
X126542403Y-80970127D01*
X126542403Y-80970127D02*
X126542403Y-82173997D01*
X126542403Y-82173997D02*
X126842402Y-82473996D01*
D34*
X130000000Y-90805000D02*
X130000000Y-93000000D01*
X130000000Y-90008000D02*
X130000000Y-90805000D01*
D32*
X127047214Y-80511584D02*
X127047214Y-81156950D01*
X121426315Y-74890685D02*
X127047214Y-80511584D01*
X127047214Y-81156950D02*
X127254000Y-81363736D01*
X127254000Y-81363736D02*
X127254000Y-81788000D01*
D34*
X131000000Y-90805000D02*
X131000000Y-93000000D01*
X131000000Y-90008000D02*
X131000000Y-90805000D01*
D32*
X127635990Y-80787202D02*
X127699624Y-80787202D01*
X127579596Y-80843596D02*
X127635990Y-80787202D01*
X121992000Y-74325000D02*
X127699624Y-80032624D01*
X127699624Y-80032624D02*
X127699624Y-80362938D01*
X127699624Y-80362938D02*
X127699624Y-80787202D01*
D34*
X132000000Y-90805000D02*
X132000000Y-93000000D01*
X132000000Y-90000000D02*
X132000000Y-90805000D01*
D32*
X128415461Y-80005733D02*
X128415461Y-80429997D01*
X128415461Y-79617089D02*
X128415461Y-80005733D01*
X122557686Y-73759314D02*
X128415461Y-79617089D01*
D34*
X133000000Y-90805000D02*
X133000000Y-93000000D01*
X133000000Y-90008000D02*
X133000000Y-90805000D01*
D32*
X129209043Y-79279301D02*
X129209043Y-80106956D01*
X123123371Y-73193629D02*
X129209043Y-79279301D01*
X129209043Y-80106956D02*
X129209043Y-80531220D01*
D34*
X134000000Y-90805000D02*
X134000000Y-93000000D01*
X134000000Y-90008000D02*
X134000000Y-90805000D01*
D32*
X134595390Y-83534276D02*
X134595390Y-83984264D01*
X131608653Y-80547539D02*
X134595390Y-83534276D01*
X134595390Y-83984264D02*
X134595390Y-84408528D01*
D34*
X135000000Y-90805000D02*
X135000000Y-93000000D01*
X135000000Y-90000000D02*
X135000000Y-90805000D01*
D32*
X135423191Y-83449621D02*
X135423191Y-83873885D01*
X135423191Y-83230707D02*
X135423191Y-83449621D01*
X132174338Y-79981854D02*
X135423191Y-83230707D01*
D34*
X136000000Y-90805000D02*
X136000000Y-92177801D01*
X136000000Y-90008000D02*
X136000000Y-90805000D01*
X136000000Y-92177801D02*
X136000000Y-93000000D01*
D32*
X130477282Y-76022056D02*
X132013838Y-74485500D01*
X132013838Y-74485500D02*
X133683496Y-74485500D01*
X139446583Y-85494641D02*
X139446583Y-85918905D01*
X133683496Y-74485500D02*
X139446583Y-80248587D01*
X139446583Y-80248587D02*
X139446583Y-85494641D01*
D34*
X138000000Y-90805000D02*
X138000000Y-93000000D01*
X138000000Y-90000000D02*
X138000000Y-90805000D01*
D32*
X129911596Y-75456370D02*
X131517466Y-73850500D01*
X131517466Y-73850500D02*
X133762406Y-73850500D01*
X133762406Y-73850500D02*
X140164154Y-80252248D01*
X140164154Y-80252248D02*
X140164154Y-86911846D01*
X140164154Y-86911846D02*
X140126999Y-86949001D01*
X140126999Y-86949001D02*
X139827000Y-87249000D01*
D34*
X139000000Y-90805000D02*
X139000000Y-93000000D01*
X139000000Y-90000000D02*
X139000000Y-90805000D01*
D32*
X128426671Y-72415813D02*
X133041629Y-72415813D01*
X140317499Y-87774501D02*
X140017500Y-88074500D01*
X140668965Y-87359535D02*
X140317499Y-87711001D01*
X140668965Y-80043149D02*
X140668965Y-87359535D01*
X127648855Y-73193629D02*
X128426671Y-72415813D01*
X140317499Y-87711001D02*
X140317499Y-87774501D01*
X133041629Y-72415813D02*
X140668965Y-80043149D01*
D34*
X140000000Y-90805000D02*
X140000000Y-93000000D01*
X140000000Y-90016000D02*
X140000000Y-90805000D01*
D32*
X133236187Y-71896461D02*
X141269999Y-79930273D01*
X141269999Y-87711001D02*
X140970000Y-88011000D01*
X127083169Y-72627943D02*
X127814651Y-71896461D01*
X141269999Y-79930273D02*
X141269999Y-87711001D01*
X127814651Y-71896461D02*
X133236187Y-71896461D01*
D34*
X141000000Y-90805000D02*
X141000000Y-93000000D01*
X141000000Y-90008000D02*
X141000000Y-90805000D01*
X139000000Y-87000000D02*
X137990000Y-87000000D01*
X137990000Y-87000000D02*
X136990000Y-86000000D01*
D32*
X134879196Y-86000000D02*
X136990000Y-86000000D01*
D34*
X129345911Y-82810281D02*
X131107881Y-84572251D01*
X131107881Y-84572251D02*
X133451447Y-84572251D01*
X133451447Y-84572251D02*
X134879196Y-86000000D01*
D32*
X130000000Y-87000000D02*
X130000000Y-86000000D01*
D34*
X130000000Y-87000000D02*
X130000000Y-84595740D01*
X130000000Y-84595740D02*
X128780226Y-83375966D01*
X132010000Y-86000000D02*
X130000000Y-86000000D01*
D32*
X125000000Y-90805000D02*
X125000000Y-93000000D01*
X125000000Y-88551000D02*
X125000000Y-90805000D01*
D35*
X112141000Y-85852000D02*
X117344237Y-85852000D01*
X117344237Y-85852000D02*
X118366601Y-86874364D01*
X118366601Y-86874364D02*
X121337915Y-86874364D01*
X121337915Y-86874364D02*
X121779870Y-86432409D01*
X122557686Y-83941652D02*
X121779870Y-84719468D01*
X121779870Y-84719468D02*
X121779870Y-86432409D01*
X121779870Y-86432409D02*
X123606081Y-88258620D01*
X123606081Y-88258620D02*
X124707620Y-88258620D01*
D32*
X124707620Y-88258620D02*
X125000000Y-88551000D01*
X112115600Y-89966800D02*
X117906800Y-89966800D01*
X117906800Y-89966800D02*
X118110000Y-90170000D01*
D35*
X123901187Y-81570147D02*
X121914148Y-79583108D01*
X120556844Y-78637433D02*
X120243600Y-78602438D01*
X121502519Y-79583108D02*
X120556844Y-78637433D01*
X121914148Y-79583108D02*
X121502519Y-79583108D01*
X123901187Y-83729521D02*
X123901187Y-81570147D01*
X123123371Y-84507337D02*
X123901187Y-83729521D01*
X120243600Y-78689200D02*
X120243600Y-78602438D01*
D32*
X126000000Y-90805000D02*
X126000000Y-93000000D01*
X126000000Y-88184816D02*
X126000000Y-90805000D01*
X125568994Y-87753810D02*
X126000000Y-88184816D01*
X123743337Y-87753810D02*
X125568994Y-87753810D01*
X123123371Y-84507337D02*
X122345555Y-85285153D01*
X122345555Y-86356028D02*
X123743337Y-87753810D01*
X122345555Y-85285153D02*
X122345555Y-86356028D01*
D35*
X125984000Y-92984000D02*
X126000000Y-93000000D01*
D32*
X128334464Y-89394210D02*
X128334464Y-89818474D01*
X128214317Y-89274063D02*
X128334464Y-89394210D01*
X128214317Y-87335541D02*
X128214317Y-89274063D01*
X126517484Y-85638708D02*
X128214317Y-87335541D01*
X116711957Y-92674235D02*
X117136221Y-92674235D01*
X112115600Y-92506800D02*
X116544522Y-92506800D01*
X116544522Y-92506800D02*
X116711957Y-92674235D01*
D35*
X112141000Y-92710000D02*
X112176765Y-92674235D01*
D32*
X128634463Y-90118473D02*
X128334464Y-89818474D01*
X129000000Y-93000000D02*
X129000000Y-90484010D01*
X129000000Y-90484010D02*
X128634463Y-90118473D01*
D35*
X128968500Y-92968500D02*
X129000000Y-93000000D01*
D32*
X117094000Y-91839611D02*
X117451631Y-91839611D01*
D35*
X117027367Y-91839611D02*
X117094000Y-91839611D01*
D32*
X112115600Y-91617800D02*
X116872189Y-91617800D01*
X116872189Y-91617800D02*
X117094000Y-91839611D01*
D35*
X117008756Y-91821000D02*
X117027367Y-91839611D01*
D32*
X127700001Y-90505001D02*
X128000000Y-90805000D01*
X127682063Y-90487063D02*
X127700001Y-90505001D01*
X127682063Y-88439063D02*
X127682063Y-90487063D01*
X124881708Y-85638708D02*
X127682063Y-88439063D01*
X124254742Y-85638708D02*
X124881708Y-85638708D01*
D35*
X125032558Y-81492035D02*
X122418818Y-78878295D01*
X125032558Y-84860892D02*
X125032558Y-81492035D01*
X124254742Y-85638708D02*
X125032558Y-84860892D01*
X122418818Y-78878295D02*
X122118819Y-78578296D01*
D32*
X128000000Y-90805000D02*
X128000000Y-93000000D01*
X112115600Y-90855800D02*
X117280149Y-90855800D01*
X117280149Y-90855800D02*
X117320610Y-90896261D01*
D35*
X116896346Y-90896261D02*
X117320610Y-90896261D01*
X112141000Y-91059000D02*
X112303739Y-90896261D01*
X121699497Y-79179897D02*
X121259600Y-78740000D01*
X121259600Y-78740000D02*
X121259600Y-78079600D01*
X124466873Y-81565607D02*
X122081163Y-79179897D01*
X123689057Y-85073023D02*
X124466873Y-84295207D01*
X122081163Y-79179897D02*
X121699497Y-79179897D01*
X124466873Y-84295207D02*
X124466873Y-81565607D01*
D32*
X127000000Y-90805000D02*
X127000000Y-93000000D01*
X127000000Y-88470908D02*
X127000000Y-90805000D01*
X123689057Y-85073023D02*
X122911241Y-85850839D01*
X122911241Y-85850839D02*
X122911241Y-86207805D01*
X122911241Y-86207805D02*
X123952436Y-87249000D01*
X123952436Y-87249000D02*
X125778092Y-87249000D01*
X125778092Y-87249000D02*
X127000000Y-88470908D01*
D35*
X126936500Y-92936500D02*
X127000000Y-93000000D01*
D32*
X128559203Y-75677393D02*
X128559203Y-75778443D01*
X128559203Y-75778443D02*
X128559203Y-76202707D01*
X129345911Y-74890685D02*
X128559203Y-75677393D01*
D35*
X112141000Y-86741000D02*
X117663013Y-86741000D01*
X117663013Y-86741000D02*
X118199587Y-87277574D01*
X118199587Y-87277574D02*
X121835860Y-87277574D01*
X121835860Y-87277574D02*
X123952000Y-89393714D01*
X123952000Y-89393714D02*
X123952000Y-90380736D01*
X123952000Y-90380736D02*
X123952000Y-90805000D01*
D32*
X123952000Y-90805000D02*
X123952000Y-92952000D01*
X123952000Y-92952000D02*
X124000000Y-93000000D01*
X127779410Y-75599719D02*
X127779410Y-76023983D01*
X128780226Y-74325000D02*
X127779410Y-75325816D01*
X127779410Y-75325816D02*
X127779410Y-75599719D01*
D35*
X112141000Y-87503000D02*
X112852200Y-87503000D01*
X112852200Y-87503000D02*
X113029985Y-87680785D01*
X121668845Y-87680785D02*
X123063000Y-89074940D01*
X113029985Y-87680785D02*
X121668845Y-87680785D01*
X123063000Y-89074940D02*
X123063000Y-90380736D01*
X123063000Y-90380736D02*
X123063000Y-90805000D01*
D32*
X123000000Y-93000000D02*
X123000000Y-90868000D01*
X123000000Y-90868000D02*
X123063000Y-90805000D01*
D35*
X118656284Y-88295358D02*
X118745000Y-88295358D01*
X118745000Y-88295358D02*
X120625978Y-88295358D01*
X112141000Y-88392000D02*
X112852200Y-88392000D01*
X112852200Y-88392000D02*
X112948842Y-88295358D01*
X112948842Y-88295358D02*
X118745000Y-88295358D01*
X120625978Y-88295358D02*
X121050242Y-88295358D01*
D32*
X121031000Y-90805000D02*
X121031000Y-92969000D01*
X121031000Y-92969000D02*
X121000000Y-93000000D01*
X128214540Y-73759314D02*
X128214540Y-73842460D01*
X128214540Y-73842460D02*
X127127000Y-74930000D01*
D31*
X159992000Y-93500000D02*
X159992000Y-91971934D01*
X159992000Y-91971934D02*
X160163934Y-91800000D01*
D32*
X131255098Y-82487098D02*
X132080000Y-83312000D01*
X132080000Y-83312000D02*
X133197600Y-83312000D01*
X130477282Y-81678910D02*
X131255098Y-82456726D01*
X131255098Y-82456726D02*
X131255098Y-82487098D01*
D31*
X171250000Y-92500000D02*
X171250000Y-91500000D01*
X171250000Y-94750000D02*
X171250000Y-92500000D01*
X163104400Y-95246700D02*
X163104400Y-93230252D01*
X163104400Y-93230252D02*
X162600000Y-92725852D01*
D32*
X130689412Y-83089812D02*
X131579312Y-83979712D01*
X131579312Y-83979712D02*
X133780554Y-83979712D01*
X129911596Y-82244596D02*
X130689412Y-83022412D01*
X130689412Y-83022412D02*
X130689412Y-83089812D01*
D31*
X170750000Y-93250000D02*
X170500000Y-93000000D01*
X170750000Y-94750000D02*
X170750000Y-93250000D01*
D32*
X131042967Y-81113225D02*
X131042967Y-81157367D01*
X131042967Y-81157367D02*
X132537200Y-82651600D01*
D31*
X169250000Y-91349174D02*
X169250000Y-90924910D01*
X170250000Y-94750000D02*
X170250000Y-93850000D01*
X170250000Y-93850000D02*
X169250000Y-92850000D01*
X169250000Y-92850000D02*
X169250000Y-91349174D01*
X161731222Y-99559422D02*
X160021600Y-97849800D01*
X160021600Y-97849800D02*
X160021600Y-97824800D01*
X168076989Y-99559422D02*
X161731222Y-99559422D01*
X169250000Y-98386411D02*
X168076989Y-99559422D01*
X169250000Y-94750000D02*
X169250000Y-98386411D01*
X167890589Y-99109411D02*
X162709411Y-99109411D01*
X168750000Y-94750000D02*
X168750000Y-98250000D01*
X168750000Y-98250000D02*
X167890589Y-99109411D01*
X162095000Y-98495000D02*
X162095000Y-97837500D01*
X162709411Y-99109411D02*
X162095000Y-98495000D01*
D32*
X118794961Y-83178893D02*
X118794961Y-83213488D01*
X120294944Y-81678910D02*
X118794961Y-83178893D01*
X158941000Y-90000000D02*
X158353600Y-90000000D01*
X158353600Y-90000000D02*
X158336000Y-90017600D01*
X158326688Y-88924900D02*
X158293494Y-88891706D01*
X158941000Y-88924900D02*
X158326688Y-88924900D01*
X119729259Y-81113225D02*
X118566413Y-82276071D01*
X118566413Y-82276071D02*
X118566413Y-82293742D01*
X163111000Y-97837500D02*
X163111000Y-96440500D01*
D33*
X158463000Y-86614000D02*
X160495000Y-86614000D01*
D35*
X162208000Y-88188800D02*
X162208000Y-88290400D01*
X162208000Y-88290400D02*
X162208000Y-88413200D01*
D33*
X160495000Y-86614000D02*
X160495000Y-87630000D01*
X160495000Y-87630000D02*
X161155400Y-88290400D01*
X161155400Y-88290400D02*
X162208000Y-88290400D01*
D35*
X163199000Y-88051000D02*
X162345800Y-88051000D01*
X162345800Y-88051000D02*
X162208000Y-88188800D01*
X162208000Y-88413200D02*
X162345800Y-88551000D01*
X162345800Y-88551000D02*
X163199000Y-88551000D01*
X163199000Y-89551000D02*
X160406000Y-89551000D01*
X160406000Y-89551000D02*
X159957000Y-90000000D01*
X163199000Y-89051000D02*
X160083100Y-89051000D01*
X160083100Y-89051000D02*
X159957000Y-88924900D01*
D36*
G36*
X118237172Y-68609276D02*
X116133071Y-70713377D01*
X115962384Y-70968828D01*
X115902447Y-71270153D01*
X115902447Y-76176847D01*
X115962384Y-76478172D01*
X116133071Y-76733623D01*
X116216488Y-76817040D01*
X113910769Y-79122759D01*
X113910769Y-78189289D01*
X113850832Y-77887964D01*
X113680145Y-77632513D01*
X113584072Y-77536440D01*
X114429000Y-77536440D01*
X114676765Y-77487157D01*
X114886809Y-77346809D01*
X115027157Y-77136765D01*
X115076440Y-76889000D01*
X115076440Y-75111000D01*
X115027157Y-74863235D01*
X114886809Y-74653191D01*
X114676765Y-74512843D01*
X114648162Y-74507154D01*
X114831231Y-74324404D01*
X115063735Y-73764472D01*
X115064264Y-73158188D01*
X114832738Y-72597851D01*
X114425263Y-72189664D01*
X114831231Y-71784404D01*
X115063735Y-71224472D01*
X115064264Y-70618188D01*
X114832738Y-70057851D01*
X114404404Y-69628769D01*
X114327400Y-69596794D01*
X114327400Y-69474312D01*
X114417863Y-69338925D01*
X114477800Y-69037600D01*
X114417863Y-68736275D01*
X114247176Y-68480824D01*
X114005576Y-68239224D01*
X113750125Y-68068537D01*
X113550334Y-68028796D01*
X113391765Y-67922843D01*
X113144000Y-67873560D01*
X112644000Y-67873560D01*
X112396235Y-67922843D01*
X112375961Y-67936390D01*
X112254309Y-67886000D01*
X112161750Y-67886000D01*
X112003000Y-68044750D01*
X112003000Y-68488624D01*
X111996560Y-68521000D01*
X111996560Y-69071000D01*
X112003000Y-69103376D01*
X112003000Y-69547250D01*
X112161750Y-69706000D01*
X112254309Y-69706000D01*
X112375961Y-69655610D01*
X112396235Y-69669157D01*
X112596065Y-69708905D01*
X112248769Y-70055596D01*
X112075327Y-70473291D01*
X111628618Y-70920000D01*
X111687662Y-70979044D01*
X111059044Y-71607662D01*
X111000000Y-71548618D01*
X110552815Y-71995803D01*
X110137851Y-72167262D01*
X109708769Y-72595596D01*
X109476265Y-73155528D01*
X109475736Y-73761812D01*
X109707262Y-74322149D01*
X110134882Y-74750516D01*
X109922369Y-74892512D01*
X109592008Y-75386933D01*
X109476000Y-75970143D01*
X109476000Y-76029857D01*
X109592008Y-76613067D01*
X109922369Y-77107488D01*
X110111000Y-77233527D01*
X110111000Y-79608000D01*
X109664498Y-79608000D01*
X109664498Y-79662549D01*
X109562802Y-79704673D01*
X109384173Y-79883301D01*
X109287500Y-80116690D01*
X109287500Y-80221750D01*
X109446250Y-80380500D01*
X110047500Y-80380500D01*
X110047500Y-80243000D01*
X110151936Y-80243000D01*
X110178671Y-80377408D01*
X110291060Y-80545610D01*
X110291060Y-80793000D01*
X110297500Y-80825376D01*
X110297500Y-81188624D01*
X110291060Y-81221000D01*
X110291060Y-81771000D01*
X110297500Y-81803376D01*
X110297500Y-82179124D01*
X110291060Y-82211500D01*
X110291060Y-82761500D01*
X110047500Y-82761500D01*
X110047500Y-82624000D01*
X109446250Y-82624000D01*
X109287500Y-82782750D01*
X109287500Y-82887810D01*
X109384173Y-83121199D01*
X109562802Y-83299827D01*
X109664498Y-83341951D01*
X109664498Y-83396500D01*
X109671495Y-83396500D01*
X109601000Y-83566690D01*
X109601000Y-83788250D01*
X109759750Y-83947000D01*
X110490000Y-83947000D01*
X110490000Y-83693000D01*
X110998000Y-83693000D01*
X110998000Y-83947000D01*
X111252000Y-83947000D01*
X111252000Y-84455000D01*
X110998000Y-84455000D01*
X110998000Y-84867750D01*
X110871000Y-84994750D01*
X110871000Y-85661500D01*
X110985560Y-85661500D01*
X110985560Y-85896190D01*
X110871000Y-86010750D01*
X110871000Y-86709250D01*
X110902750Y-86741000D01*
X110871000Y-86772750D01*
X110871000Y-87471250D01*
X110902750Y-87503000D01*
X110871000Y-87534750D01*
X110871000Y-88233250D01*
X110985560Y-88347810D01*
X110985560Y-88582500D01*
X110871000Y-88582500D01*
X110871000Y-89084150D01*
X110845600Y-89109550D01*
X110845600Y-89776300D01*
X110960160Y-89776300D01*
X110960160Y-90010990D01*
X110845600Y-90125550D01*
X110845600Y-90824050D01*
X110877350Y-90855800D01*
X110845600Y-90887550D01*
X110845600Y-91586050D01*
X110877350Y-91617800D01*
X110845600Y-91649550D01*
X110845600Y-92348050D01*
X110960160Y-92462610D01*
X110960160Y-92697300D01*
X110845600Y-92697300D01*
X110845600Y-93364050D01*
X111004350Y-93522800D01*
X111225910Y-93522800D01*
X111342623Y-93474456D01*
X111359835Y-93485957D01*
X111607600Y-93535240D01*
X112623600Y-93535240D01*
X112871365Y-93485957D01*
X113081409Y-93345609D01*
X113115760Y-93294200D01*
X116249750Y-93294200D01*
X116410632Y-93401698D01*
X116573647Y-93434124D01*
X116605894Y-93466427D01*
X116949422Y-93609073D01*
X117321388Y-93609397D01*
X117665164Y-93467352D01*
X117928413Y-93204562D01*
X118071059Y-92861034D01*
X118071337Y-92542123D01*
X118102560Y-92510955D01*
X118102560Y-93854534D01*
X117959698Y-93711673D01*
X117726309Y-93615000D01*
X117166750Y-93615000D01*
X117008000Y-93773750D01*
X117008000Y-95492000D01*
X118076250Y-95492000D01*
X118235000Y-95333250D01*
X118235000Y-94572217D01*
X118292191Y-94657809D01*
X118502235Y-94798157D01*
X118750000Y-94847440D01*
X118832305Y-94847440D01*
X120260530Y-96275665D01*
X120493706Y-96431468D01*
X120070531Y-96606320D01*
X119607945Y-97068100D01*
X119357286Y-97671753D01*
X119356716Y-98325379D01*
X119606320Y-98929469D01*
X119966023Y-99289800D01*
X114220056Y-99289800D01*
X114268685Y-99246916D01*
X114688387Y-97863069D01*
X114570494Y-96666750D01*
X114765000Y-96666750D01*
X114765000Y-97876310D01*
X114861673Y-98109699D01*
X115040302Y-98288327D01*
X115273691Y-98385000D01*
X115833250Y-98385000D01*
X115992000Y-98226250D01*
X115992000Y-96508000D01*
X117008000Y-96508000D01*
X117008000Y-98226250D01*
X117166750Y-98385000D01*
X117726309Y-98385000D01*
X117959698Y-98288327D01*
X118138327Y-98109699D01*
X118235000Y-97876310D01*
X118235000Y-96666750D01*
X118076250Y-96508000D01*
X117008000Y-96508000D01*
X115992000Y-96508000D01*
X114923750Y-96508000D01*
X114765000Y-96666750D01*
X114570494Y-96666750D01*
X114546566Y-96423948D01*
X114268685Y-95753084D01*
X113841794Y-95376627D01*
X111718420Y-97500000D01*
X111732563Y-97514142D01*
X111014142Y-98232563D01*
X111000000Y-98218420D01*
X110985858Y-98232563D01*
X110267437Y-97514142D01*
X110281580Y-97500000D01*
X108158206Y-95376627D01*
X107731315Y-95753084D01*
X107720200Y-95789733D01*
X107720200Y-94658206D01*
X108876627Y-94658206D01*
X111000000Y-96781580D01*
X113123373Y-94658206D01*
X112746916Y-94231315D01*
X112392054Y-94123690D01*
X114765000Y-94123690D01*
X114765000Y-95333250D01*
X114923750Y-95492000D01*
X115992000Y-95492000D01*
X115992000Y-93773750D01*
X115833250Y-93615000D01*
X115273691Y-93615000D01*
X115040302Y-93711673D01*
X114861673Y-93890301D01*
X114765000Y-94123690D01*
X112392054Y-94123690D01*
X111363069Y-93811613D01*
X109923948Y-93953434D01*
X109253084Y-94231315D01*
X108876627Y-94658206D01*
X107720200Y-94658206D01*
X107720200Y-92856050D01*
X109448600Y-92856050D01*
X109448600Y-93014109D01*
X109545273Y-93247498D01*
X109723901Y-93426127D01*
X109957290Y-93522800D01*
X110178850Y-93522800D01*
X110337600Y-93364050D01*
X110337600Y-92697300D01*
X109607350Y-92697300D01*
X109448600Y-92856050D01*
X107720200Y-92856050D01*
X107720200Y-90316050D01*
X109448600Y-90316050D01*
X109448600Y-90474109D01*
X109448886Y-90474800D01*
X109448600Y-90475491D01*
X109448600Y-90570050D01*
X109516441Y-90637891D01*
X109545273Y-90707498D01*
X109693574Y-90855800D01*
X109545273Y-91004102D01*
X109516441Y-91073709D01*
X109448600Y-91141550D01*
X109448600Y-91236109D01*
X109448886Y-91236800D01*
X109448600Y-91237491D01*
X109448600Y-91332050D01*
X109516441Y-91399891D01*
X109545273Y-91469498D01*
X109693574Y-91617800D01*
X109545273Y-91766102D01*
X109516441Y-91835709D01*
X109448600Y-91903550D01*
X109448600Y-91998109D01*
X109448886Y-91998800D01*
X109448600Y-91999491D01*
X109448600Y-92157550D01*
X109607350Y-92316300D01*
X109630075Y-92316300D01*
X109723901Y-92410127D01*
X109957290Y-92506800D01*
X110178850Y-92506800D01*
X110337600Y-92348050D01*
X110337600Y-91649550D01*
X110305850Y-91617800D01*
X110337600Y-91586050D01*
X110337600Y-90887550D01*
X110305850Y-90855800D01*
X110337600Y-90824050D01*
X110337600Y-90125550D01*
X110178850Y-89966800D01*
X109957290Y-89966800D01*
X109723901Y-90063473D01*
X109630075Y-90157300D01*
X109607350Y-90157300D01*
X109448600Y-90316050D01*
X107720200Y-90316050D01*
X107720200Y-89459491D01*
X109448600Y-89459491D01*
X109448600Y-89617550D01*
X109607350Y-89776300D01*
X110337600Y-89776300D01*
X110337600Y-89274650D01*
X110363000Y-89249250D01*
X110363000Y-88582500D01*
X109632750Y-88582500D01*
X109474000Y-88741250D01*
X109474000Y-88899309D01*
X109570673Y-89132698D01*
X109604675Y-89166700D01*
X109545273Y-89226102D01*
X109448600Y-89459491D01*
X107720200Y-89459491D01*
X107720200Y-86201250D01*
X109474000Y-86201250D01*
X109474000Y-86359309D01*
X109474286Y-86360000D01*
X109474000Y-86360691D01*
X109474000Y-86455250D01*
X109541841Y-86523091D01*
X109570673Y-86592698D01*
X109718974Y-86741000D01*
X109570673Y-86889302D01*
X109541841Y-86958909D01*
X109474000Y-87026750D01*
X109474000Y-87121309D01*
X109474286Y-87122000D01*
X109474000Y-87122691D01*
X109474000Y-87217250D01*
X109541841Y-87285091D01*
X109570673Y-87354698D01*
X109718974Y-87503000D01*
X109570673Y-87651302D01*
X109541841Y-87720909D01*
X109474000Y-87788750D01*
X109474000Y-87883309D01*
X109474286Y-87884000D01*
X109474000Y-87884691D01*
X109474000Y-88042750D01*
X109632750Y-88201500D01*
X109655475Y-88201500D01*
X109749301Y-88295327D01*
X109982690Y-88392000D01*
X110204250Y-88392000D01*
X110363000Y-88233250D01*
X110363000Y-87534750D01*
X110331250Y-87503000D01*
X110363000Y-87471250D01*
X110363000Y-86772750D01*
X110331250Y-86741000D01*
X110363000Y-86709250D01*
X110363000Y-86010750D01*
X110204250Y-85852000D01*
X109982690Y-85852000D01*
X109749301Y-85948673D01*
X109655475Y-86042500D01*
X109632750Y-86042500D01*
X109474000Y-86201250D01*
X107720200Y-86201250D01*
X107720200Y-85344691D01*
X109474000Y-85344691D01*
X109474000Y-85502750D01*
X109632750Y-85661500D01*
X110363000Y-85661500D01*
X110363000Y-85312250D01*
X110490000Y-85185250D01*
X110490000Y-84455000D01*
X109759750Y-84455000D01*
X109601000Y-84613750D01*
X109601000Y-84835310D01*
X109672954Y-85009021D01*
X109570673Y-85111302D01*
X109474000Y-85344691D01*
X107720200Y-85344691D01*
X107720200Y-81792250D01*
X109287500Y-81792250D01*
X109287500Y-81897310D01*
X109326411Y-81991250D01*
X109287500Y-82085190D01*
X109287500Y-82190250D01*
X109446250Y-82349000D01*
X109658581Y-82349000D01*
X109796191Y-82406000D01*
X109888750Y-82406000D01*
X109945750Y-82349000D01*
X110047500Y-82349000D01*
X110047500Y-81633500D01*
X109945750Y-81633500D01*
X109888750Y-81576500D01*
X109796191Y-81576500D01*
X109658581Y-81633500D01*
X109446250Y-81633500D01*
X109287500Y-81792250D01*
X107720200Y-81792250D01*
X107720200Y-80814250D01*
X109287500Y-80814250D01*
X109287500Y-80919310D01*
X109323822Y-81007000D01*
X109287500Y-81094690D01*
X109287500Y-81199750D01*
X109446250Y-81358500D01*
X109628403Y-81358500D01*
X109796191Y-81428000D01*
X109888750Y-81428000D01*
X109958250Y-81358500D01*
X110047500Y-81358500D01*
X110047500Y-80655500D01*
X109958250Y-80655500D01*
X109888750Y-80586000D01*
X109796191Y-80586000D01*
X109628403Y-80655500D01*
X109446250Y-80655500D01*
X109287500Y-80814250D01*
X107720200Y-80814250D01*
X107720200Y-71004636D01*
X109448450Y-71004636D01*
X109534166Y-71435559D01*
X109750612Y-71540770D01*
X110371382Y-70920000D01*
X109750612Y-70299230D01*
X109534166Y-70404441D01*
X109448450Y-71004636D01*
X107720200Y-71004636D01*
X107720200Y-69670612D01*
X110379230Y-69670612D01*
X111000000Y-70291382D01*
X111585382Y-69706000D01*
X111594250Y-69706000D01*
X111753000Y-69547250D01*
X111753000Y-68933500D01*
X111151750Y-68933500D01*
X110993000Y-69092250D01*
X110993000Y-69197310D01*
X111073227Y-69390995D01*
X110915364Y-69368450D01*
X110484441Y-69454166D01*
X110379230Y-69670612D01*
X107720200Y-69670612D01*
X107720200Y-69043548D01*
X108068100Y-69392055D01*
X108671753Y-69642714D01*
X109325379Y-69643284D01*
X109929469Y-69393680D01*
X110392055Y-68931900D01*
X110615124Y-68394690D01*
X110993000Y-68394690D01*
X110993000Y-68499750D01*
X111151750Y-68658500D01*
X111753000Y-68658500D01*
X111753000Y-68044750D01*
X111594250Y-67886000D01*
X111501691Y-67886000D01*
X111268302Y-67982673D01*
X111089673Y-68161301D01*
X110993000Y-68394690D01*
X110615124Y-68394690D01*
X110642714Y-68328247D01*
X110643284Y-67674621D01*
X110393680Y-67070531D01*
X110239440Y-66916022D01*
X118237172Y-68609276D01*
X118237172Y-68609276D01*
G37*
X118237172Y-68609276D02*
X116133071Y-70713377D01*
X115962384Y-70968828D01*
X115902447Y-71270153D01*
X115902447Y-76176847D01*
X115962384Y-76478172D01*
X116133071Y-76733623D01*
X116216488Y-76817040D01*
X113910769Y-79122759D01*
X113910769Y-78189289D01*
X113850832Y-77887964D01*
X113680145Y-77632513D01*
X113584072Y-77536440D01*
X114429000Y-77536440D01*
X114676765Y-77487157D01*
X114886809Y-77346809D01*
X115027157Y-77136765D01*
X115076440Y-76889000D01*
X115076440Y-75111000D01*
X115027157Y-74863235D01*
X114886809Y-74653191D01*
X114676765Y-74512843D01*
X114648162Y-74507154D01*
X114831231Y-74324404D01*
X115063735Y-73764472D01*
X115064264Y-73158188D01*
X114832738Y-72597851D01*
X114425263Y-72189664D01*
X114831231Y-71784404D01*
X115063735Y-71224472D01*
X115064264Y-70618188D01*
X114832738Y-70057851D01*
X114404404Y-69628769D01*
X114327400Y-69596794D01*
X114327400Y-69474312D01*
X114417863Y-69338925D01*
X114477800Y-69037600D01*
X114417863Y-68736275D01*
X114247176Y-68480824D01*
X114005576Y-68239224D01*
X113750125Y-68068537D01*
X113550334Y-68028796D01*
X113391765Y-67922843D01*
X113144000Y-67873560D01*
X112644000Y-67873560D01*
X112396235Y-67922843D01*
X112375961Y-67936390D01*
X112254309Y-67886000D01*
X112161750Y-67886000D01*
X112003000Y-68044750D01*
X112003000Y-68488624D01*
X111996560Y-68521000D01*
X111996560Y-69071000D01*
X112003000Y-69103376D01*
X112003000Y-69547250D01*
X112161750Y-69706000D01*
X112254309Y-69706000D01*
X112375961Y-69655610D01*
X112396235Y-69669157D01*
X112596065Y-69708905D01*
X112248769Y-70055596D01*
X112075327Y-70473291D01*
X111628618Y-70920000D01*
X111687662Y-70979044D01*
X111059044Y-71607662D01*
X111000000Y-71548618D01*
X110552815Y-71995803D01*
X110137851Y-72167262D01*
X109708769Y-72595596D01*
X109476265Y-73155528D01*
X109475736Y-73761812D01*
X109707262Y-74322149D01*
X110134882Y-74750516D01*
X109922369Y-74892512D01*
X109592008Y-75386933D01*
X109476000Y-75970143D01*
X109476000Y-76029857D01*
X109592008Y-76613067D01*
X109922369Y-77107488D01*
X110111000Y-77233527D01*
X110111000Y-79608000D01*
X109664498Y-79608000D01*
X109664498Y-79662549D01*
X109562802Y-79704673D01*
X109384173Y-79883301D01*
X109287500Y-80116690D01*
X109287500Y-80221750D01*
X109446250Y-80380500D01*
X110047500Y-80380500D01*
X110047500Y-80243000D01*
X110151936Y-80243000D01*
X110178671Y-80377408D01*
X110291060Y-80545610D01*
X110291060Y-80793000D01*
X110297500Y-80825376D01*
X110297500Y-81188624D01*
X110291060Y-81221000D01*
X110291060Y-81771000D01*
X110297500Y-81803376D01*
X110297500Y-82179124D01*
X110291060Y-82211500D01*
X110291060Y-82761500D01*
X110047500Y-82761500D01*
X110047500Y-82624000D01*
X109446250Y-82624000D01*
X109287500Y-82782750D01*
X109287500Y-82887810D01*
X109384173Y-83121199D01*
X109562802Y-83299827D01*
X109664498Y-83341951D01*
X109664498Y-83396500D01*
X109671495Y-83396500D01*
X109601000Y-83566690D01*
X109601000Y-83788250D01*
X109759750Y-83947000D01*
X110490000Y-83947000D01*
X110490000Y-83693000D01*
X110998000Y-83693000D01*
X110998000Y-83947000D01*
X111252000Y-83947000D01*
X111252000Y-84455000D01*
X110998000Y-84455000D01*
X110998000Y-84867750D01*
X110871000Y-84994750D01*
X110871000Y-85661500D01*
X110985560Y-85661500D01*
X110985560Y-85896190D01*
X110871000Y-86010750D01*
X110871000Y-86709250D01*
X110902750Y-86741000D01*
X110871000Y-86772750D01*
X110871000Y-87471250D01*
X110902750Y-87503000D01*
X110871000Y-87534750D01*
X110871000Y-88233250D01*
X110985560Y-88347810D01*
X110985560Y-88582500D01*
X110871000Y-88582500D01*
X110871000Y-89084150D01*
X110845600Y-89109550D01*
X110845600Y-89776300D01*
X110960160Y-89776300D01*
X110960160Y-90010990D01*
X110845600Y-90125550D01*
X110845600Y-90824050D01*
X110877350Y-90855800D01*
X110845600Y-90887550D01*
X110845600Y-91586050D01*
X110877350Y-91617800D01*
X110845600Y-91649550D01*
X110845600Y-92348050D01*
X110960160Y-92462610D01*
X110960160Y-92697300D01*
X110845600Y-92697300D01*
X110845600Y-93364050D01*
X111004350Y-93522800D01*
X111225910Y-93522800D01*
X111342623Y-93474456D01*
X111359835Y-93485957D01*
X111607600Y-93535240D01*
X112623600Y-93535240D01*
X112871365Y-93485957D01*
X113081409Y-93345609D01*
X113115760Y-93294200D01*
X116249750Y-93294200D01*
X116410632Y-93401698D01*
X116573647Y-93434124D01*
X116605894Y-93466427D01*
X116949422Y-93609073D01*
X117321388Y-93609397D01*
X117665164Y-93467352D01*
X117928413Y-93204562D01*
X118071059Y-92861034D01*
X118071337Y-92542123D01*
X118102560Y-92510955D01*
X118102560Y-93854534D01*
X117959698Y-93711673D01*
X117726309Y-93615000D01*
X117166750Y-93615000D01*
X117008000Y-93773750D01*
X117008000Y-95492000D01*
X118076250Y-95492000D01*
X118235000Y-95333250D01*
X118235000Y-94572217D01*
X118292191Y-94657809D01*
X118502235Y-94798157D01*
X118750000Y-94847440D01*
X118832305Y-94847440D01*
X120260530Y-96275665D01*
X120493706Y-96431468D01*
X120070531Y-96606320D01*
X119607945Y-97068100D01*
X119357286Y-97671753D01*
X119356716Y-98325379D01*
X119606320Y-98929469D01*
X119966023Y-99289800D01*
X114220056Y-99289800D01*
X114268685Y-99246916D01*
X114688387Y-97863069D01*
X114570494Y-96666750D01*
X114765000Y-96666750D01*
X114765000Y-97876310D01*
X114861673Y-98109699D01*
X115040302Y-98288327D01*
X115273691Y-98385000D01*
X115833250Y-98385000D01*
X115992000Y-98226250D01*
X115992000Y-96508000D01*
X117008000Y-96508000D01*
X117008000Y-98226250D01*
X117166750Y-98385000D01*
X117726309Y-98385000D01*
X117959698Y-98288327D01*
X118138327Y-98109699D01*
X118235000Y-97876310D01*
X118235000Y-96666750D01*
X118076250Y-96508000D01*
X117008000Y-96508000D01*
X115992000Y-96508000D01*
X114923750Y-96508000D01*
X114765000Y-96666750D01*
X114570494Y-96666750D01*
X114546566Y-96423948D01*
X114268685Y-95753084D01*
X113841794Y-95376627D01*
X111718420Y-97500000D01*
X111732563Y-97514142D01*
X111014142Y-98232563D01*
X111000000Y-98218420D01*
X110985858Y-98232563D01*
X110267437Y-97514142D01*
X110281580Y-97500000D01*
X108158206Y-95376627D01*
X107731315Y-95753084D01*
X107720200Y-95789733D01*
X107720200Y-94658206D01*
X108876627Y-94658206D01*
X111000000Y-96781580D01*
X113123373Y-94658206D01*
X112746916Y-94231315D01*
X112392054Y-94123690D01*
X114765000Y-94123690D01*
X114765000Y-95333250D01*
X114923750Y-95492000D01*
X115992000Y-95492000D01*
X115992000Y-93773750D01*
X115833250Y-93615000D01*
X115273691Y-93615000D01*
X115040302Y-93711673D01*
X114861673Y-93890301D01*
X114765000Y-94123690D01*
X112392054Y-94123690D01*
X111363069Y-93811613D01*
X109923948Y-93953434D01*
X109253084Y-94231315D01*
X108876627Y-94658206D01*
X107720200Y-94658206D01*
X107720200Y-92856050D01*
X109448600Y-92856050D01*
X109448600Y-93014109D01*
X109545273Y-93247498D01*
X109723901Y-93426127D01*
X109957290Y-93522800D01*
X110178850Y-93522800D01*
X110337600Y-93364050D01*
X110337600Y-92697300D01*
X109607350Y-92697300D01*
X109448600Y-92856050D01*
X107720200Y-92856050D01*
X107720200Y-90316050D01*
X109448600Y-90316050D01*
X109448600Y-90474109D01*
X109448886Y-90474800D01*
X109448600Y-90475491D01*
X109448600Y-90570050D01*
X109516441Y-90637891D01*
X109545273Y-90707498D01*
X109693574Y-90855800D01*
X109545273Y-91004102D01*
X109516441Y-91073709D01*
X109448600Y-91141550D01*
X109448600Y-91236109D01*
X109448886Y-91236800D01*
X109448600Y-91237491D01*
X109448600Y-91332050D01*
X109516441Y-91399891D01*
X109545273Y-91469498D01*
X109693574Y-91617800D01*
X109545273Y-91766102D01*
X109516441Y-91835709D01*
X109448600Y-91903550D01*
X109448600Y-91998109D01*
X109448886Y-91998800D01*
X109448600Y-91999491D01*
X109448600Y-92157550D01*
X109607350Y-92316300D01*
X109630075Y-92316300D01*
X109723901Y-92410127D01*
X109957290Y-92506800D01*
X110178850Y-92506800D01*
X110337600Y-92348050D01*
X110337600Y-91649550D01*
X110305850Y-91617800D01*
X110337600Y-91586050D01*
X110337600Y-90887550D01*
X110305850Y-90855800D01*
X110337600Y-90824050D01*
X110337600Y-90125550D01*
X110178850Y-89966800D01*
X109957290Y-89966800D01*
X109723901Y-90063473D01*
X109630075Y-90157300D01*
X109607350Y-90157300D01*
X109448600Y-90316050D01*
X107720200Y-90316050D01*
X107720200Y-89459491D01*
X109448600Y-89459491D01*
X109448600Y-89617550D01*
X109607350Y-89776300D01*
X110337600Y-89776300D01*
X110337600Y-89274650D01*
X110363000Y-89249250D01*
X110363000Y-88582500D01*
X109632750Y-88582500D01*
X109474000Y-88741250D01*
X109474000Y-88899309D01*
X109570673Y-89132698D01*
X109604675Y-89166700D01*
X109545273Y-89226102D01*
X109448600Y-89459491D01*
X107720200Y-89459491D01*
X107720200Y-86201250D01*
X109474000Y-86201250D01*
X109474000Y-86359309D01*
X109474286Y-86360000D01*
X109474000Y-86360691D01*
X109474000Y-86455250D01*
X109541841Y-86523091D01*
X109570673Y-86592698D01*
X109718974Y-86741000D01*
X109570673Y-86889302D01*
X109541841Y-86958909D01*
X109474000Y-87026750D01*
X109474000Y-87121309D01*
X109474286Y-87122000D01*
X109474000Y-87122691D01*
X109474000Y-87217250D01*
X109541841Y-87285091D01*
X109570673Y-87354698D01*
X109718974Y-87503000D01*
X109570673Y-87651302D01*
X109541841Y-87720909D01*
X109474000Y-87788750D01*
X109474000Y-87883309D01*
X109474286Y-87884000D01*
X109474000Y-87884691D01*
X109474000Y-88042750D01*
X109632750Y-88201500D01*
X109655475Y-88201500D01*
X109749301Y-88295327D01*
X109982690Y-88392000D01*
X110204250Y-88392000D01*
X110363000Y-88233250D01*
X110363000Y-87534750D01*
X110331250Y-87503000D01*
X110363000Y-87471250D01*
X110363000Y-86772750D01*
X110331250Y-86741000D01*
X110363000Y-86709250D01*
X110363000Y-86010750D01*
X110204250Y-85852000D01*
X109982690Y-85852000D01*
X109749301Y-85948673D01*
X109655475Y-86042500D01*
X109632750Y-86042500D01*
X109474000Y-86201250D01*
X107720200Y-86201250D01*
X107720200Y-85344691D01*
X109474000Y-85344691D01*
X109474000Y-85502750D01*
X109632750Y-85661500D01*
X110363000Y-85661500D01*
X110363000Y-85312250D01*
X110490000Y-85185250D01*
X110490000Y-84455000D01*
X109759750Y-84455000D01*
X109601000Y-84613750D01*
X109601000Y-84835310D01*
X109672954Y-85009021D01*
X109570673Y-85111302D01*
X109474000Y-85344691D01*
X107720200Y-85344691D01*
X107720200Y-81792250D01*
X109287500Y-81792250D01*
X109287500Y-81897310D01*
X109326411Y-81991250D01*
X109287500Y-82085190D01*
X109287500Y-82190250D01*
X109446250Y-82349000D01*
X109658581Y-82349000D01*
X109796191Y-82406000D01*
X109888750Y-82406000D01*
X109945750Y-82349000D01*
X110047500Y-82349000D01*
X110047500Y-81633500D01*
X109945750Y-81633500D01*
X109888750Y-81576500D01*
X109796191Y-81576500D01*
X109658581Y-81633500D01*
X109446250Y-81633500D01*
X109287500Y-81792250D01*
X107720200Y-81792250D01*
X107720200Y-80814250D01*
X109287500Y-80814250D01*
X109287500Y-80919310D01*
X109323822Y-81007000D01*
X109287500Y-81094690D01*
X109287500Y-81199750D01*
X109446250Y-81358500D01*
X109628403Y-81358500D01*
X109796191Y-81428000D01*
X109888750Y-81428000D01*
X109958250Y-81358500D01*
X110047500Y-81358500D01*
X110047500Y-80655500D01*
X109958250Y-80655500D01*
X109888750Y-80586000D01*
X109796191Y-80586000D01*
X109628403Y-80655500D01*
X109446250Y-80655500D01*
X109287500Y-80814250D01*
X107720200Y-80814250D01*
X107720200Y-71004636D01*
X109448450Y-71004636D01*
X109534166Y-71435559D01*
X109750612Y-71540770D01*
X110371382Y-70920000D01*
X109750612Y-70299230D01*
X109534166Y-70404441D01*
X109448450Y-71004636D01*
X107720200Y-71004636D01*
X107720200Y-69670612D01*
X110379230Y-69670612D01*
X111000000Y-70291382D01*
X111585382Y-69706000D01*
X111594250Y-69706000D01*
X111753000Y-69547250D01*
X111753000Y-68933500D01*
X111151750Y-68933500D01*
X110993000Y-69092250D01*
X110993000Y-69197310D01*
X111073227Y-69390995D01*
X110915364Y-69368450D01*
X110484441Y-69454166D01*
X110379230Y-69670612D01*
X107720200Y-69670612D01*
X107720200Y-69043548D01*
X108068100Y-69392055D01*
X108671753Y-69642714D01*
X109325379Y-69643284D01*
X109929469Y-69393680D01*
X110392055Y-68931900D01*
X110615124Y-68394690D01*
X110993000Y-68394690D01*
X110993000Y-68499750D01*
X111151750Y-68658500D01*
X111753000Y-68658500D01*
X111753000Y-68044750D01*
X111594250Y-67886000D01*
X111501691Y-67886000D01*
X111268302Y-67982673D01*
X111089673Y-68161301D01*
X110993000Y-68394690D01*
X110615124Y-68394690D01*
X110642714Y-68328247D01*
X110643284Y-67674621D01*
X110393680Y-67070531D01*
X110239440Y-66916022D01*
X118237172Y-68609276D01*
G36*
X138513806Y-72902178D02*
X138513600Y-73138777D01*
X138655645Y-73482553D01*
X138918435Y-73745802D01*
X139248196Y-73882731D01*
X139248196Y-74641892D01*
X139243404Y-74646676D01*
X139100758Y-74990204D01*
X139100434Y-75362170D01*
X139242479Y-75705946D01*
X139505269Y-75969195D01*
X139848797Y-76111841D01*
X140220763Y-76112165D01*
X140564539Y-75970120D01*
X140827788Y-75707330D01*
X140970434Y-75363802D01*
X140970758Y-74991836D01*
X140828713Y-74648060D01*
X140822996Y-74642333D01*
X140822996Y-73540444D01*
X140791978Y-73384505D01*
X174804000Y-80585419D01*
X174804000Y-94919750D01*
X174700000Y-95023750D01*
X174700000Y-96492000D01*
X174778000Y-96492000D01*
X174778000Y-97508000D01*
X174700000Y-97508000D01*
X174700000Y-98976250D01*
X174804000Y-99080250D01*
X174804000Y-99289800D01*
X169421413Y-99289800D01*
X169787401Y-98923812D01*
X169952148Y-98677250D01*
X170010000Y-98386411D01*
X170010000Y-97666750D01*
X172715000Y-97666750D01*
X172715000Y-98626310D01*
X172811673Y-98859699D01*
X172990302Y-99038327D01*
X173223691Y-99135000D01*
X173641250Y-99135000D01*
X173800000Y-98976250D01*
X173800000Y-97508000D01*
X172873750Y-97508000D01*
X172715000Y-97666750D01*
X170010000Y-97666750D01*
X170010000Y-96024565D01*
X170125000Y-96047440D01*
X170375000Y-96047440D01*
X170500000Y-96022576D01*
X170625000Y-96047440D01*
X170875000Y-96047440D01*
X171000000Y-96022576D01*
X171125000Y-96047440D01*
X171375000Y-96047440D01*
X171500000Y-96022576D01*
X171625000Y-96047440D01*
X171875000Y-96047440D01*
X172000000Y-96022576D01*
X172125000Y-96047440D01*
X172375000Y-96047440D01*
X172500000Y-96022576D01*
X172625000Y-96047440D01*
X172715000Y-96047440D01*
X172715000Y-96333250D01*
X172873750Y-96492000D01*
X173800000Y-96492000D01*
X173800000Y-95023750D01*
X173641250Y-94865000D01*
X173522440Y-94865000D01*
X173522440Y-94100000D01*
X173510000Y-94037459D01*
X173510000Y-93500000D01*
X173488225Y-93390530D01*
X173452148Y-93209160D01*
X173287401Y-92962599D01*
X173184905Y-92860103D01*
X173185162Y-92564833D01*
X173139000Y-92453112D01*
X173139000Y-92297189D01*
X173184838Y-92186799D01*
X173185162Y-91814833D01*
X173043117Y-91471057D01*
X172780327Y-91207808D01*
X172436799Y-91065162D01*
X172081873Y-91064853D01*
X172043117Y-90971057D01*
X171780327Y-90707808D01*
X171436799Y-90565162D01*
X171064833Y-90564838D01*
X170721057Y-90706883D01*
X170457808Y-90969673D01*
X170315162Y-91313201D01*
X170314838Y-91685167D01*
X170456883Y-92028943D01*
X170490000Y-92062118D01*
X170490000Y-92064991D01*
X170314833Y-92064838D01*
X170010000Y-92190792D01*
X170010000Y-91487373D01*
X170042192Y-91455237D01*
X170184838Y-91111709D01*
X170185162Y-90739743D01*
X170043117Y-90395967D01*
X169780327Y-90132718D01*
X169436799Y-89990072D01*
X169064833Y-89989748D01*
X168721057Y-90131793D01*
X168457808Y-90394583D01*
X168315162Y-90738111D01*
X168314838Y-91110077D01*
X168456883Y-91453853D01*
X168490000Y-91487028D01*
X168490000Y-92850000D01*
X168547852Y-93140839D01*
X168712599Y-93387401D01*
X168777758Y-93452560D01*
X168625000Y-93452560D01*
X168521147Y-93473217D01*
X168501309Y-93465000D01*
X168471250Y-93465000D01*
X168448603Y-93487647D01*
X168377235Y-93501843D01*
X168255925Y-93582900D01*
X168234698Y-93561673D01*
X168048154Y-93484404D01*
X168028750Y-93465000D01*
X167971250Y-93465000D01*
X167951846Y-93484404D01*
X167765302Y-93561673D01*
X167758002Y-93568973D01*
X167758002Y-93465000D01*
X167668388Y-93465000D01*
X167684000Y-93427309D01*
X167684000Y-93009750D01*
X167525250Y-92851000D01*
X166057000Y-92851000D01*
X166057000Y-93777250D01*
X166215750Y-93936000D01*
X166505612Y-93936000D01*
X166490000Y-93973690D01*
X166490000Y-94266250D01*
X166648750Y-94425000D01*
X167375000Y-94425000D01*
X167375000Y-95075000D01*
X167123026Y-95075000D01*
X167009698Y-94961673D01*
X166776309Y-94865000D01*
X166358750Y-94865000D01*
X166200000Y-95023750D01*
X166200000Y-96492000D01*
X167126250Y-96492000D01*
X167285000Y-96333250D01*
X167285000Y-96035000D01*
X167990000Y-96035000D01*
X167990000Y-97935198D01*
X167575787Y-98349411D01*
X167285000Y-98349411D01*
X167285000Y-97666750D01*
X167126250Y-97508000D01*
X166200000Y-97508000D01*
X166200000Y-97528000D01*
X165300000Y-97528000D01*
X165300000Y-97508000D01*
X164373750Y-97508000D01*
X164215000Y-97666750D01*
X164215000Y-98349411D01*
X163961316Y-98349411D01*
X164008440Y-98112500D01*
X164008440Y-97562500D01*
X163959157Y-97314735D01*
X163898400Y-97223806D01*
X163898400Y-97054194D01*
X163959157Y-96963265D01*
X164008440Y-96715500D01*
X164008440Y-96165500D01*
X163959157Y-95917735D01*
X163906321Y-95838661D01*
X163952557Y-95769465D01*
X164001840Y-95521700D01*
X164001840Y-95373690D01*
X164215000Y-95373690D01*
X164215000Y-96333250D01*
X164373750Y-96492000D01*
X165300000Y-96492000D01*
X165300000Y-95023750D01*
X165141250Y-94865000D01*
X164723691Y-94865000D01*
X164490302Y-94961673D01*
X164311673Y-95140301D01*
X164215000Y-95373690D01*
X164001840Y-95373690D01*
X164001840Y-94971700D01*
X163952557Y-94723935D01*
X163864400Y-94592000D01*
X163864400Y-93911855D01*
X163922690Y-93936000D01*
X164882250Y-93936000D01*
X165041000Y-93777250D01*
X165041000Y-92851000D01*
X165021000Y-92851000D01*
X165021000Y-91951000D01*
X165041000Y-91951000D01*
X165041000Y-91024750D01*
X166057000Y-91024750D01*
X166057000Y-91951000D01*
X167525250Y-91951000D01*
X167684000Y-91792250D01*
X167684000Y-91374691D01*
X167587327Y-91141302D01*
X167408699Y-90962673D01*
X167175310Y-90866000D01*
X166215750Y-90866000D01*
X166057000Y-91024750D01*
X165041000Y-91024750D01*
X164882250Y-90866000D01*
X164557618Y-90866000D01*
X164584000Y-90802309D01*
X164584000Y-90772250D01*
X164425250Y-90613500D01*
X164409525Y-90613500D01*
X164487327Y-90535698D01*
X164564596Y-90349154D01*
X164584000Y-90329750D01*
X164584000Y-90272250D01*
X164564596Y-90252846D01*
X164487327Y-90066302D01*
X164466100Y-90045075D01*
X164547157Y-89923765D01*
X164561353Y-89852397D01*
X164584000Y-89829750D01*
X164584000Y-89799691D01*
X164575783Y-89779853D01*
X164596440Y-89676000D01*
X164596440Y-89426000D01*
X164571576Y-89301000D01*
X164596440Y-89176000D01*
X164596440Y-89098379D01*
X170949716Y-89098379D01*
X171199320Y-89702469D01*
X171661100Y-90165055D01*
X172264753Y-90415714D01*
X172918379Y-90416284D01*
X173522469Y-90166680D01*
X173985055Y-89704900D01*
X174235714Y-89101247D01*
X174236284Y-88447621D01*
X173986680Y-87843531D01*
X173524900Y-87380945D01*
X172921247Y-87130286D01*
X172267621Y-87129716D01*
X171663531Y-87379320D01*
X171200945Y-87841100D01*
X170950286Y-88444753D01*
X170949716Y-89098379D01*
X164596440Y-89098379D01*
X164596440Y-88926000D01*
X164571576Y-88801000D01*
X164596440Y-88676000D01*
X164596440Y-88426000D01*
X164571576Y-88301000D01*
X164596440Y-88176000D01*
X164596440Y-87926000D01*
X164558647Y-87736000D01*
X164882250Y-87736000D01*
X165041000Y-87577250D01*
X165041000Y-86651000D01*
X166057000Y-86651000D01*
X166057000Y-87577250D01*
X166215750Y-87736000D01*
X167175310Y-87736000D01*
X167408699Y-87639327D01*
X167587327Y-87460698D01*
X167684000Y-87227309D01*
X167684000Y-86809750D01*
X167525250Y-86651000D01*
X166057000Y-86651000D01*
X165041000Y-86651000D01*
X163572750Y-86651000D01*
X163414000Y-86809750D01*
X163414000Y-87227309D01*
X163435229Y-87278560D01*
X162649000Y-87278560D01*
X162468818Y-87314400D01*
X162345800Y-87314400D01*
X162063915Y-87370470D01*
X162017625Y-87401400D01*
X161580019Y-87401400D01*
X161601157Y-87369765D01*
X161650440Y-87122000D01*
X161650440Y-86106000D01*
X161601157Y-85858235D01*
X161515293Y-85729732D01*
X161541327Y-85703698D01*
X161638000Y-85470309D01*
X161638000Y-85248750D01*
X161563941Y-85174691D01*
X163414000Y-85174691D01*
X163414000Y-85592250D01*
X163572750Y-85751000D01*
X165041000Y-85751000D01*
X165041000Y-84824750D01*
X166057000Y-84824750D01*
X166057000Y-85751000D01*
X167525250Y-85751000D01*
X167684000Y-85592250D01*
X167684000Y-85174691D01*
X167587327Y-84941302D01*
X167408699Y-84762673D01*
X167175310Y-84666000D01*
X166215750Y-84666000D01*
X166057000Y-84824750D01*
X165041000Y-84824750D01*
X164882250Y-84666000D01*
X163922690Y-84666000D01*
X163689301Y-84762673D01*
X163510673Y-84941302D01*
X163414000Y-85174691D01*
X161563941Y-85174691D01*
X161479250Y-85090000D01*
X160749000Y-85090000D01*
X160749000Y-85344000D01*
X160241000Y-85344000D01*
X160241000Y-85090000D01*
X159510750Y-85090000D01*
X159352000Y-85248750D01*
X159352000Y-85356822D01*
X159225000Y-85331560D01*
X157701000Y-85331560D01*
X157453235Y-85380843D01*
X157447000Y-85385009D01*
X157440765Y-85380843D01*
X157193000Y-85331560D01*
X155669000Y-85331560D01*
X155421235Y-85380843D01*
X155211191Y-85521191D01*
X155075009Y-85725000D01*
X152687619Y-85725000D01*
X152347413Y-85792671D01*
X152113940Y-85948673D01*
X152059001Y-85985382D01*
X150806386Y-87237997D01*
X150613675Y-87526409D01*
X150546004Y-87866615D01*
X150546004Y-90208882D01*
X150613675Y-90549088D01*
X150772910Y-90787400D01*
X150806386Y-90837500D01*
X150850086Y-90881200D01*
X150806386Y-90924900D01*
X150613675Y-91213312D01*
X150546004Y-91553518D01*
X150546004Y-93317016D01*
X150342813Y-93519853D01*
X150200167Y-93863381D01*
X150199843Y-94235347D01*
X150341888Y-94579123D01*
X150604678Y-94842372D01*
X150948206Y-94985018D01*
X151320172Y-94985342D01*
X151663948Y-94843297D01*
X151849362Y-94658206D01*
X152876627Y-94658206D01*
X155000000Y-96781580D01*
X157123373Y-94658206D01*
X156746916Y-94231315D01*
X155363069Y-93811613D01*
X153923948Y-93953434D01*
X153253084Y-94231315D01*
X152876627Y-94658206D01*
X151849362Y-94658206D01*
X151927197Y-94580507D01*
X151973554Y-94468867D01*
X152063622Y-94378799D01*
X152256334Y-94090386D01*
X152324004Y-93750181D01*
X152324004Y-91921754D01*
X152386019Y-91859739D01*
X152425935Y-91800000D01*
X152578730Y-91571327D01*
X152646401Y-91231121D01*
X152646401Y-90531279D01*
X152578730Y-90191073D01*
X152386019Y-89902661D01*
X152324004Y-89840646D01*
X152324004Y-88234851D01*
X152565005Y-87993850D01*
X152564838Y-88185167D01*
X152706883Y-88528943D01*
X152712600Y-88534670D01*
X152712600Y-89165600D01*
X152772537Y-89466925D01*
X152943224Y-89722376D01*
X159011624Y-95790776D01*
X159267075Y-95961463D01*
X159275003Y-95963040D01*
X159238200Y-96051890D01*
X159238200Y-96156950D01*
X159396950Y-96315700D01*
X159998200Y-96315700D01*
X159998200Y-96178200D01*
X160241760Y-96178200D01*
X160241760Y-96728200D01*
X159998200Y-96728200D01*
X159998200Y-96590700D01*
X159396950Y-96590700D01*
X159238200Y-96749450D01*
X159238200Y-96854510D01*
X159331631Y-97080071D01*
X159313791Y-97091991D01*
X159173443Y-97302035D01*
X159124160Y-97549800D01*
X159124160Y-98099800D01*
X159173443Y-98347565D01*
X159313791Y-98557609D01*
X159523835Y-98697957D01*
X159771600Y-98747240D01*
X159844238Y-98747240D01*
X160386798Y-99289800D01*
X158220056Y-99289800D01*
X158268685Y-99246916D01*
X158688387Y-97863069D01*
X158546566Y-96423948D01*
X158268685Y-95753084D01*
X157841794Y-95376627D01*
X155718420Y-97500000D01*
X155732563Y-97514142D01*
X155014142Y-98232563D01*
X155000000Y-98218420D01*
X154985858Y-98232563D01*
X154267437Y-97514142D01*
X154281580Y-97500000D01*
X152158206Y-95376627D01*
X151731315Y-95753084D01*
X151311613Y-97136931D01*
X151453434Y-98576052D01*
X151731315Y-99246916D01*
X151779944Y-99289800D01*
X122033530Y-99289800D01*
X122392055Y-98931900D01*
X122642714Y-98328247D01*
X122643284Y-97674621D01*
X122393680Y-97070531D01*
X121990603Y-96666750D01*
X142765000Y-96666750D01*
X142765000Y-97876310D01*
X142861673Y-98109699D01*
X143040302Y-98288327D01*
X143273691Y-98385000D01*
X143833250Y-98385000D01*
X143992000Y-98226250D01*
X143992000Y-96508000D01*
X145008000Y-96508000D01*
X145008000Y-98226250D01*
X145166750Y-98385000D01*
X145726309Y-98385000D01*
X145959698Y-98288327D01*
X146138327Y-98109699D01*
X146235000Y-97876310D01*
X146235000Y-96666750D01*
X146076250Y-96508000D01*
X145008000Y-96508000D01*
X143992000Y-96508000D01*
X142923750Y-96508000D01*
X142765000Y-96666750D01*
X121990603Y-96666750D01*
X121931900Y-96607945D01*
X121651253Y-96491410D01*
X140973190Y-96491410D01*
X141255075Y-96435340D01*
X141494045Y-96275665D01*
X142520855Y-95248855D01*
X142583147Y-95155628D01*
X142680530Y-95009885D01*
X142736600Y-94728000D01*
X142736600Y-94614721D01*
X142765000Y-94572217D01*
X142765000Y-95333250D01*
X142923750Y-95492000D01*
X143992000Y-95492000D01*
X143992000Y-93773750D01*
X145008000Y-93773750D01*
X145008000Y-95492000D01*
X146076250Y-95492000D01*
X146235000Y-95333250D01*
X146235000Y-94123690D01*
X146138327Y-93890301D01*
X145959698Y-93711673D01*
X145726309Y-93615000D01*
X145166750Y-93615000D01*
X145008000Y-93773750D01*
X143992000Y-93773750D01*
X143833250Y-93615000D01*
X143273691Y-93615000D01*
X143040302Y-93711673D01*
X142897440Y-93854534D01*
X142897440Y-91800000D01*
X142848157Y-91552235D01*
X142812800Y-91499320D01*
X142812800Y-91285698D01*
X142934838Y-90991799D01*
X142935162Y-90619833D01*
X142877990Y-90481466D01*
X142922440Y-90258000D01*
X142922440Y-89758000D01*
X142873157Y-89510235D01*
X142859610Y-89489961D01*
X142910000Y-89368309D01*
X142910000Y-89275750D01*
X142751250Y-89117000D01*
X142307376Y-89117000D01*
X142275000Y-89110560D01*
X142090936Y-89110560D01*
X142291282Y-89027779D01*
X142452342Y-88867000D01*
X142751250Y-88867000D01*
X142910000Y-88708250D01*
X142910000Y-88615691D01*
X142813327Y-88382302D01*
X142740619Y-88309594D01*
X142789801Y-88235988D01*
X142849738Y-87934663D01*
X142849738Y-84201691D01*
X159352000Y-84201691D01*
X159352000Y-84423250D01*
X159510750Y-84582000D01*
X160241000Y-84582000D01*
X160241000Y-83851750D01*
X160749000Y-83851750D01*
X160749000Y-84582000D01*
X161479250Y-84582000D01*
X161638000Y-84423250D01*
X161638000Y-84201691D01*
X161541327Y-83968302D01*
X161362699Y-83789673D01*
X161129310Y-83693000D01*
X160907750Y-83693000D01*
X160749000Y-83851750D01*
X160241000Y-83851750D01*
X160082250Y-83693000D01*
X159860690Y-83693000D01*
X159627301Y-83789673D01*
X159448673Y-83968302D01*
X159352000Y-84201691D01*
X142849738Y-84201691D01*
X142849738Y-80008702D01*
X142789801Y-79707377D01*
X142619114Y-79451926D01*
X135412840Y-72245652D01*
X138513806Y-72902178D01*
X138513806Y-72902178D01*
G37*
X138513806Y-72902178D02*
X138513600Y-73138777D01*
X138655645Y-73482553D01*
X138918435Y-73745802D01*
X139248196Y-73882731D01*
X139248196Y-74641892D01*
X139243404Y-74646676D01*
X139100758Y-74990204D01*
X139100434Y-75362170D01*
X139242479Y-75705946D01*
X139505269Y-75969195D01*
X139848797Y-76111841D01*
X140220763Y-76112165D01*
X140564539Y-75970120D01*
X140827788Y-75707330D01*
X140970434Y-75363802D01*
X140970758Y-74991836D01*
X140828713Y-74648060D01*
X140822996Y-74642333D01*
X140822996Y-73540444D01*
X140791978Y-73384505D01*
X174804000Y-80585419D01*
X174804000Y-94919750D01*
X174700000Y-95023750D01*
X174700000Y-96492000D01*
X174778000Y-96492000D01*
X174778000Y-97508000D01*
X174700000Y-97508000D01*
X174700000Y-98976250D01*
X174804000Y-99080250D01*
X174804000Y-99289800D01*
X169421413Y-99289800D01*
X169787401Y-98923812D01*
X169952148Y-98677250D01*
X170010000Y-98386411D01*
X170010000Y-97666750D01*
X172715000Y-97666750D01*
X172715000Y-98626310D01*
X172811673Y-98859699D01*
X172990302Y-99038327D01*
X173223691Y-99135000D01*
X173641250Y-99135000D01*
X173800000Y-98976250D01*
X173800000Y-97508000D01*
X172873750Y-97508000D01*
X172715000Y-97666750D01*
X170010000Y-97666750D01*
X170010000Y-96024565D01*
X170125000Y-96047440D01*
X170375000Y-96047440D01*
X170500000Y-96022576D01*
X170625000Y-96047440D01*
X170875000Y-96047440D01*
X171000000Y-96022576D01*
X171125000Y-96047440D01*
X171375000Y-96047440D01*
X171500000Y-96022576D01*
X171625000Y-96047440D01*
X171875000Y-96047440D01*
X172000000Y-96022576D01*
X172125000Y-96047440D01*
X172375000Y-96047440D01*
X172500000Y-96022576D01*
X172625000Y-96047440D01*
X172715000Y-96047440D01*
X172715000Y-96333250D01*
X172873750Y-96492000D01*
X173800000Y-96492000D01*
X173800000Y-95023750D01*
X173641250Y-94865000D01*
X173522440Y-94865000D01*
X173522440Y-94100000D01*
X173510000Y-94037459D01*
X173510000Y-93500000D01*
X173488225Y-93390530D01*
X173452148Y-93209160D01*
X173287401Y-92962599D01*
X173184905Y-92860103D01*
X173185162Y-92564833D01*
X173139000Y-92453112D01*
X173139000Y-92297189D01*
X173184838Y-92186799D01*
X173185162Y-91814833D01*
X173043117Y-91471057D01*
X172780327Y-91207808D01*
X172436799Y-91065162D01*
X172081873Y-91064853D01*
X172043117Y-90971057D01*
X171780327Y-90707808D01*
X171436799Y-90565162D01*
X171064833Y-90564838D01*
X170721057Y-90706883D01*
X170457808Y-90969673D01*
X170315162Y-91313201D01*
X170314838Y-91685167D01*
X170456883Y-92028943D01*
X170490000Y-92062118D01*
X170490000Y-92064991D01*
X170314833Y-92064838D01*
X170010000Y-92190792D01*
X170010000Y-91487373D01*
X170042192Y-91455237D01*
X170184838Y-91111709D01*
X170185162Y-90739743D01*
X170043117Y-90395967D01*
X169780327Y-90132718D01*
X169436799Y-89990072D01*
X169064833Y-89989748D01*
X168721057Y-90131793D01*
X168457808Y-90394583D01*
X168315162Y-90738111D01*
X168314838Y-91110077D01*
X168456883Y-91453853D01*
X168490000Y-91487028D01*
X168490000Y-92850000D01*
X168547852Y-93140839D01*
X168712599Y-93387401D01*
X168777758Y-93452560D01*
X168625000Y-93452560D01*
X168521147Y-93473217D01*
X168501309Y-93465000D01*
X168471250Y-93465000D01*
X168448603Y-93487647D01*
X168377235Y-93501843D01*
X168255925Y-93582900D01*
X168234698Y-93561673D01*
X168048154Y-93484404D01*
X168028750Y-93465000D01*
X167971250Y-93465000D01*
X167951846Y-93484404D01*
X167765302Y-93561673D01*
X167758002Y-93568973D01*
X167758002Y-93465000D01*
X167668388Y-93465000D01*
X167684000Y-93427309D01*
X167684000Y-93009750D01*
X167525250Y-92851000D01*
X166057000Y-92851000D01*
X166057000Y-93777250D01*
X166215750Y-93936000D01*
X166505612Y-93936000D01*
X166490000Y-93973690D01*
X166490000Y-94266250D01*
X166648750Y-94425000D01*
X167375000Y-94425000D01*
X167375000Y-95075000D01*
X167123026Y-95075000D01*
X167009698Y-94961673D01*
X166776309Y-94865000D01*
X166358750Y-94865000D01*
X166200000Y-95023750D01*
X166200000Y-96492000D01*
X167126250Y-96492000D01*
X167285000Y-96333250D01*
X167285000Y-96035000D01*
X167990000Y-96035000D01*
X167990000Y-97935198D01*
X167575787Y-98349411D01*
X167285000Y-98349411D01*
X167285000Y-97666750D01*
X167126250Y-97508000D01*
X166200000Y-97508000D01*
X166200000Y-97528000D01*
X165300000Y-97528000D01*
X165300000Y-97508000D01*
X164373750Y-97508000D01*
X164215000Y-97666750D01*
X164215000Y-98349411D01*
X163961316Y-98349411D01*
X164008440Y-98112500D01*
X164008440Y-97562500D01*
X163959157Y-97314735D01*
X163898400Y-97223806D01*
X163898400Y-97054194D01*
X163959157Y-96963265D01*
X164008440Y-96715500D01*
X164008440Y-96165500D01*
X163959157Y-95917735D01*
X163906321Y-95838661D01*
X163952557Y-95769465D01*
X164001840Y-95521700D01*
X164001840Y-95373690D01*
X164215000Y-95373690D01*
X164215000Y-96333250D01*
X164373750Y-96492000D01*
X165300000Y-96492000D01*
X165300000Y-95023750D01*
X165141250Y-94865000D01*
X164723691Y-94865000D01*
X164490302Y-94961673D01*
X164311673Y-95140301D01*
X164215000Y-95373690D01*
X164001840Y-95373690D01*
X164001840Y-94971700D01*
X163952557Y-94723935D01*
X163864400Y-94592000D01*
X163864400Y-93911855D01*
X163922690Y-93936000D01*
X164882250Y-93936000D01*
X165041000Y-93777250D01*
X165041000Y-92851000D01*
X165021000Y-92851000D01*
X165021000Y-91951000D01*
X165041000Y-91951000D01*
X165041000Y-91024750D01*
X166057000Y-91024750D01*
X166057000Y-91951000D01*
X167525250Y-91951000D01*
X167684000Y-91792250D01*
X167684000Y-91374691D01*
X167587327Y-91141302D01*
X167408699Y-90962673D01*
X167175310Y-90866000D01*
X166215750Y-90866000D01*
X166057000Y-91024750D01*
X165041000Y-91024750D01*
X164882250Y-90866000D01*
X164557618Y-90866000D01*
X164584000Y-90802309D01*
X164584000Y-90772250D01*
X164425250Y-90613500D01*
X164409525Y-90613500D01*
X164487327Y-90535698D01*
X164564596Y-90349154D01*
X164584000Y-90329750D01*
X164584000Y-90272250D01*
X164564596Y-90252846D01*
X164487327Y-90066302D01*
X164466100Y-90045075D01*
X164547157Y-89923765D01*
X164561353Y-89852397D01*
X164584000Y-89829750D01*
X164584000Y-89799691D01*
X164575783Y-89779853D01*
X164596440Y-89676000D01*
X164596440Y-89426000D01*
X164571576Y-89301000D01*
X164596440Y-89176000D01*
X164596440Y-89098379D01*
X170949716Y-89098379D01*
X171199320Y-89702469D01*
X171661100Y-90165055D01*
X172264753Y-90415714D01*
X172918379Y-90416284D01*
X173522469Y-90166680D01*
X173985055Y-89704900D01*
X174235714Y-89101247D01*
X174236284Y-88447621D01*
X173986680Y-87843531D01*
X173524900Y-87380945D01*
X172921247Y-87130286D01*
X172267621Y-87129716D01*
X171663531Y-87379320D01*
X171200945Y-87841100D01*
X170950286Y-88444753D01*
X170949716Y-89098379D01*
X164596440Y-89098379D01*
X164596440Y-88926000D01*
X164571576Y-88801000D01*
X164596440Y-88676000D01*
X164596440Y-88426000D01*
X164571576Y-88301000D01*
X164596440Y-88176000D01*
X164596440Y-87926000D01*
X164558647Y-87736000D01*
X164882250Y-87736000D01*
X165041000Y-87577250D01*
X165041000Y-86651000D01*
X166057000Y-86651000D01*
X166057000Y-87577250D01*
X166215750Y-87736000D01*
X167175310Y-87736000D01*
X167408699Y-87639327D01*
X167587327Y-87460698D01*
X167684000Y-87227309D01*
X167684000Y-86809750D01*
X167525250Y-86651000D01*
X166057000Y-86651000D01*
X165041000Y-86651000D01*
X163572750Y-86651000D01*
X163414000Y-86809750D01*
X163414000Y-87227309D01*
X163435229Y-87278560D01*
X162649000Y-87278560D01*
X162468818Y-87314400D01*
X162345800Y-87314400D01*
X162063915Y-87370470D01*
X162017625Y-87401400D01*
X161580019Y-87401400D01*
X161601157Y-87369765D01*
X161650440Y-87122000D01*
X161650440Y-86106000D01*
X161601157Y-85858235D01*
X161515293Y-85729732D01*
X161541327Y-85703698D01*
X161638000Y-85470309D01*
X161638000Y-85248750D01*
X161563941Y-85174691D01*
X163414000Y-85174691D01*
X163414000Y-85592250D01*
X163572750Y-85751000D01*
X165041000Y-85751000D01*
X165041000Y-84824750D01*
X166057000Y-84824750D01*
X166057000Y-85751000D01*
X167525250Y-85751000D01*
X167684000Y-85592250D01*
X167684000Y-85174691D01*
X167587327Y-84941302D01*
X167408699Y-84762673D01*
X167175310Y-84666000D01*
X166215750Y-84666000D01*
X166057000Y-84824750D01*
X165041000Y-84824750D01*
X164882250Y-84666000D01*
X163922690Y-84666000D01*
X163689301Y-84762673D01*
X163510673Y-84941302D01*
X163414000Y-85174691D01*
X161563941Y-85174691D01*
X161479250Y-85090000D01*
X160749000Y-85090000D01*
X160749000Y-85344000D01*
X160241000Y-85344000D01*
X160241000Y-85090000D01*
X159510750Y-85090000D01*
X159352000Y-85248750D01*
X159352000Y-85356822D01*
X159225000Y-85331560D01*
X157701000Y-85331560D01*
X157453235Y-85380843D01*
X157447000Y-85385009D01*
X157440765Y-85380843D01*
X157193000Y-85331560D01*
X155669000Y-85331560D01*
X155421235Y-85380843D01*
X155211191Y-85521191D01*
X155075009Y-85725000D01*
X152687619Y-85725000D01*
X152347413Y-85792671D01*
X152113940Y-85948673D01*
X152059001Y-85985382D01*
X150806386Y-87237997D01*
X150613675Y-87526409D01*
X150546004Y-87866615D01*
X150546004Y-90208882D01*
X150613675Y-90549088D01*
X150772910Y-90787400D01*
X150806386Y-90837500D01*
X150850086Y-90881200D01*
X150806386Y-90924900D01*
X150613675Y-91213312D01*
X150546004Y-91553518D01*
X150546004Y-93317016D01*
X150342813Y-93519853D01*
X150200167Y-93863381D01*
X150199843Y-94235347D01*
X150341888Y-94579123D01*
X150604678Y-94842372D01*
X150948206Y-94985018D01*
X151320172Y-94985342D01*
X151663948Y-94843297D01*
X151849362Y-94658206D01*
X152876627Y-94658206D01*
X155000000Y-96781580D01*
X157123373Y-94658206D01*
X156746916Y-94231315D01*
X155363069Y-93811613D01*
X153923948Y-93953434D01*
X153253084Y-94231315D01*
X152876627Y-94658206D01*
X151849362Y-94658206D01*
X151927197Y-94580507D01*
X151973554Y-94468867D01*
X152063622Y-94378799D01*
X152256334Y-94090386D01*
X152324004Y-93750181D01*
X152324004Y-91921754D01*
X152386019Y-91859739D01*
X152425935Y-91800000D01*
X152578730Y-91571327D01*
X152646401Y-91231121D01*
X152646401Y-90531279D01*
X152578730Y-90191073D01*
X152386019Y-89902661D01*
X152324004Y-89840646D01*
X152324004Y-88234851D01*
X152565005Y-87993850D01*
X152564838Y-88185167D01*
X152706883Y-88528943D01*
X152712600Y-88534670D01*
X152712600Y-89165600D01*
X152772537Y-89466925D01*
X152943224Y-89722376D01*
X159011624Y-95790776D01*
X159267075Y-95961463D01*
X159275003Y-95963040D01*
X159238200Y-96051890D01*
X159238200Y-96156950D01*
X159396950Y-96315700D01*
X159998200Y-96315700D01*
X159998200Y-96178200D01*
X160241760Y-96178200D01*
X160241760Y-96728200D01*
X159998200Y-96728200D01*
X159998200Y-96590700D01*
X159396950Y-96590700D01*
X159238200Y-96749450D01*
X159238200Y-96854510D01*
X159331631Y-97080071D01*
X159313791Y-97091991D01*
X159173443Y-97302035D01*
X159124160Y-97549800D01*
X159124160Y-98099800D01*
X159173443Y-98347565D01*
X159313791Y-98557609D01*
X159523835Y-98697957D01*
X159771600Y-98747240D01*
X159844238Y-98747240D01*
X160386798Y-99289800D01*
X158220056Y-99289800D01*
X158268685Y-99246916D01*
X158688387Y-97863069D01*
X158546566Y-96423948D01*
X158268685Y-95753084D01*
X157841794Y-95376627D01*
X155718420Y-97500000D01*
X155732563Y-97514142D01*
X155014142Y-98232563D01*
X155000000Y-98218420D01*
X154985858Y-98232563D01*
X154267437Y-97514142D01*
X154281580Y-97500000D01*
X152158206Y-95376627D01*
X151731315Y-95753084D01*
X151311613Y-97136931D01*
X151453434Y-98576052D01*
X151731315Y-99246916D01*
X151779944Y-99289800D01*
X122033530Y-99289800D01*
X122392055Y-98931900D01*
X122642714Y-98328247D01*
X122643284Y-97674621D01*
X122393680Y-97070531D01*
X121990603Y-96666750D01*
X142765000Y-96666750D01*
X142765000Y-97876310D01*
X142861673Y-98109699D01*
X143040302Y-98288327D01*
X143273691Y-98385000D01*
X143833250Y-98385000D01*
X143992000Y-98226250D01*
X143992000Y-96508000D01*
X145008000Y-96508000D01*
X145008000Y-98226250D01*
X145166750Y-98385000D01*
X145726309Y-98385000D01*
X145959698Y-98288327D01*
X146138327Y-98109699D01*
X146235000Y-97876310D01*
X146235000Y-96666750D01*
X146076250Y-96508000D01*
X145008000Y-96508000D01*
X143992000Y-96508000D01*
X142923750Y-96508000D01*
X142765000Y-96666750D01*
X121990603Y-96666750D01*
X121931900Y-96607945D01*
X121651253Y-96491410D01*
X140973190Y-96491410D01*
X141255075Y-96435340D01*
X141494045Y-96275665D01*
X142520855Y-95248855D01*
X142583147Y-95155628D01*
X142680530Y-95009885D01*
X142736600Y-94728000D01*
X142736600Y-94614721D01*
X142765000Y-94572217D01*
X142765000Y-95333250D01*
X142923750Y-95492000D01*
X143992000Y-95492000D01*
X143992000Y-93773750D01*
X145008000Y-93773750D01*
X145008000Y-95492000D01*
X146076250Y-95492000D01*
X146235000Y-95333250D01*
X146235000Y-94123690D01*
X146138327Y-93890301D01*
X145959698Y-93711673D01*
X145726309Y-93615000D01*
X145166750Y-93615000D01*
X145008000Y-93773750D01*
X143992000Y-93773750D01*
X143833250Y-93615000D01*
X143273691Y-93615000D01*
X143040302Y-93711673D01*
X142897440Y-93854534D01*
X142897440Y-91800000D01*
X142848157Y-91552235D01*
X142812800Y-91499320D01*
X142812800Y-91285698D01*
X142934838Y-90991799D01*
X142935162Y-90619833D01*
X142877990Y-90481466D01*
X142922440Y-90258000D01*
X142922440Y-89758000D01*
X142873157Y-89510235D01*
X142859610Y-89489961D01*
X142910000Y-89368309D01*
X142910000Y-89275750D01*
X142751250Y-89117000D01*
X142307376Y-89117000D01*
X142275000Y-89110560D01*
X142090936Y-89110560D01*
X142291282Y-89027779D01*
X142452342Y-88867000D01*
X142751250Y-88867000D01*
X142910000Y-88708250D01*
X142910000Y-88615691D01*
X142813327Y-88382302D01*
X142740619Y-88309594D01*
X142789801Y-88235988D01*
X142849738Y-87934663D01*
X142849738Y-84201691D01*
X159352000Y-84201691D01*
X159352000Y-84423250D01*
X159510750Y-84582000D01*
X160241000Y-84582000D01*
X160241000Y-83851750D01*
X160749000Y-83851750D01*
X160749000Y-84582000D01*
X161479250Y-84582000D01*
X161638000Y-84423250D01*
X161638000Y-84201691D01*
X161541327Y-83968302D01*
X161362699Y-83789673D01*
X161129310Y-83693000D01*
X160907750Y-83693000D01*
X160749000Y-83851750D01*
X160241000Y-83851750D01*
X160082250Y-83693000D01*
X159860690Y-83693000D01*
X159627301Y-83789673D01*
X159448673Y-83968302D01*
X159352000Y-84201691D01*
X142849738Y-84201691D01*
X142849738Y-80008702D01*
X142789801Y-79707377D01*
X142619114Y-79451926D01*
X135412840Y-72245652D01*
X138513806Y-72902178D01*
G36*
X162014000Y-90559002D02*
X162133977Y-90559002D01*
X162188475Y-90613500D01*
X162172750Y-90613500D01*
X162014000Y-90772250D01*
X162014000Y-90802309D01*
X162110673Y-91035698D01*
X162289301Y-91214327D01*
X162522690Y-91311000D01*
X162815250Y-91311000D01*
X162974000Y-91152250D01*
X162974000Y-90551000D01*
X163624000Y-90551000D01*
X163624000Y-91027974D01*
X163510673Y-91141302D01*
X163414000Y-91374691D01*
X163414000Y-91792250D01*
X163514748Y-91892998D01*
X163414000Y-91892998D01*
X163414000Y-92247450D01*
X163393117Y-92196909D01*
X163130327Y-91933660D01*
X162786799Y-91791014D01*
X162414833Y-91790690D01*
X162071057Y-91932735D01*
X161807808Y-92195525D01*
X161665162Y-92539053D01*
X161665139Y-92565101D01*
X161363033Y-92564838D01*
X161308117Y-92587529D01*
X161258000Y-92577560D01*
X160758000Y-92577560D01*
X160752000Y-92578753D01*
X160752000Y-92534097D01*
X160956126Y-92330327D01*
X161098772Y-91986799D01*
X161099096Y-91614833D01*
X160957051Y-91271057D01*
X160694261Y-91007808D01*
X160397445Y-90884559D01*
X160454765Y-90873157D01*
X160664809Y-90732809D01*
X160805157Y-90522765D01*
X160851934Y-90287600D01*
X162014000Y-90287600D01*
X162014000Y-90559002D01*
X162014000Y-90559002D01*
G37*
X162014000Y-90559002D02*
X162133977Y-90559002D01*
X162188475Y-90613500D01*
X162172750Y-90613500D01*
X162014000Y-90772250D01*
X162014000Y-90802309D01*
X162110673Y-91035698D01*
X162289301Y-91214327D01*
X162522690Y-91311000D01*
X162815250Y-91311000D01*
X162974000Y-91152250D01*
X162974000Y-90551000D01*
X163624000Y-90551000D01*
X163624000Y-91027974D01*
X163510673Y-91141302D01*
X163414000Y-91374691D01*
X163414000Y-91792250D01*
X163514748Y-91892998D01*
X163414000Y-91892998D01*
X163414000Y-92247450D01*
X163393117Y-92196909D01*
X163130327Y-91933660D01*
X162786799Y-91791014D01*
X162414833Y-91790690D01*
X162071057Y-91932735D01*
X161807808Y-92195525D01*
X161665162Y-92539053D01*
X161665139Y-92565101D01*
X161363033Y-92564838D01*
X161308117Y-92587529D01*
X161258000Y-92577560D01*
X160758000Y-92577560D01*
X160752000Y-92578753D01*
X160752000Y-92534097D01*
X160956126Y-92330327D01*
X161098772Y-91986799D01*
X161099096Y-91614833D01*
X160957051Y-91271057D01*
X160694261Y-91007808D01*
X160397445Y-90884559D01*
X160454765Y-90873157D01*
X160664809Y-90732809D01*
X160805157Y-90522765D01*
X160851934Y-90287600D01*
X162014000Y-90287600D01*
X162014000Y-90559002D01*
G36*
X118090000Y-89215840D02*
X117906800Y-89179400D01*
X113141160Y-89179400D01*
X113239678Y-89031958D01*
X118090000Y-89031958D01*
X118090000Y-89215840D01*
X118090000Y-89215840D01*
G37*
X118090000Y-89215840D02*
X117906800Y-89179400D01*
X113141160Y-89179400D01*
X113239678Y-89031958D01*
X118090000Y-89031958D01*
X118090000Y-89215840D01*
G36*
X134304460Y-86574736D02*
X134568151Y-86750929D01*
X134879196Y-86812799D01*
X135006887Y-86787400D01*
X135492560Y-86787400D01*
X135492560Y-86850000D01*
X135541843Y-87097765D01*
X135682191Y-87307809D01*
X135892235Y-87448157D01*
X136140000Y-87497440D01*
X137337967Y-87497440D01*
X137415264Y-87574737D01*
X137656612Y-87736000D01*
X137678955Y-87750929D01*
X137990000Y-87812800D01*
X138170550Y-87812800D01*
X138248750Y-87891000D01*
X138692624Y-87891000D01*
X138725000Y-87897440D01*
X139082654Y-87897440D01*
X139082338Y-88259667D01*
X139137500Y-88393170D01*
X139137500Y-88509016D01*
X139090000Y-88623691D01*
X139090000Y-88716250D01*
X139137500Y-88763750D01*
X139137500Y-88859000D01*
X139232750Y-88859000D01*
X139248750Y-88875000D01*
X139270250Y-88875000D01*
X139275000Y-88879750D01*
X139275000Y-89102560D01*
X138725000Y-89102560D01*
X138692624Y-89109000D01*
X138307376Y-89109000D01*
X138275000Y-89102560D01*
X137725000Y-89102560D01*
X137692624Y-89109000D01*
X137248750Y-89109000D01*
X137239190Y-89118560D01*
X136752810Y-89118560D01*
X136751250Y-89117000D01*
X136307376Y-89117000D01*
X136275000Y-89110560D01*
X135752810Y-89110560D01*
X135751250Y-89109000D01*
X135307376Y-89109000D01*
X135275000Y-89102560D01*
X134725000Y-89102560D01*
X134692624Y-89109000D01*
X134248750Y-89109000D01*
X134247190Y-89110560D01*
X133725000Y-89110560D01*
X133692624Y-89117000D01*
X133307376Y-89117000D01*
X133275000Y-89110560D01*
X132752810Y-89110560D01*
X132751250Y-89109000D01*
X132307376Y-89109000D01*
X132275000Y-89102560D01*
X131725000Y-89102560D01*
X131692624Y-89109000D01*
X131248750Y-89109000D01*
X131247190Y-89110560D01*
X130725000Y-89110560D01*
X130692624Y-89117000D01*
X130307376Y-89117000D01*
X130275000Y-89110560D01*
X130017883Y-89110560D01*
X130017962Y-89019633D01*
X129875917Y-88675857D01*
X129862500Y-88662417D01*
X129862500Y-88615691D01*
X130090000Y-88615691D01*
X130090000Y-88708250D01*
X130137500Y-88755750D01*
X130137500Y-88867000D01*
X130262250Y-88867000D01*
X130296250Y-88901000D01*
X130401310Y-88901000D01*
X130483393Y-88867000D01*
X130862500Y-88867000D01*
X130862500Y-88755750D01*
X130910000Y-88708250D01*
X130910000Y-88615691D01*
X130906687Y-88607691D01*
X131090000Y-88607691D01*
X131090000Y-88700250D01*
X131137500Y-88747750D01*
X131137500Y-88867000D01*
X131751250Y-88867000D01*
X131759250Y-88859000D01*
X131862500Y-88859000D01*
X131862500Y-88755750D01*
X131910000Y-88708250D01*
X131910000Y-88615691D01*
X132090000Y-88615691D01*
X132090000Y-88708250D01*
X132137500Y-88755750D01*
X132137500Y-88859000D01*
X132240750Y-88859000D01*
X132248750Y-88867000D01*
X132862500Y-88867000D01*
X132862500Y-88747750D01*
X132910000Y-88700250D01*
X132910000Y-88615691D01*
X133090000Y-88615691D01*
X133090000Y-88708250D01*
X133137500Y-88755750D01*
X133137500Y-88867000D01*
X133862500Y-88867000D01*
X133862500Y-88755750D01*
X133910000Y-88708250D01*
X133910000Y-88615691D01*
X133906687Y-88607691D01*
X134090000Y-88607691D01*
X134090000Y-88700250D01*
X134137500Y-88747750D01*
X134137500Y-88867000D01*
X134751250Y-88867000D01*
X134759250Y-88859000D01*
X134862500Y-88859000D01*
X134862500Y-88755750D01*
X134910000Y-88708250D01*
X134910000Y-88615691D01*
X135090000Y-88615691D01*
X135090000Y-88708250D01*
X135137500Y-88755750D01*
X135137500Y-88859000D01*
X135240750Y-88859000D01*
X135248750Y-88867000D01*
X135862500Y-88867000D01*
X135862500Y-88747750D01*
X135910000Y-88700250D01*
X135910000Y-88623691D01*
X136090000Y-88623691D01*
X136090000Y-88716250D01*
X136137500Y-88763750D01*
X136137500Y-88867000D01*
X136240750Y-88867000D01*
X136248750Y-88875000D01*
X136862500Y-88875000D01*
X136862500Y-88755750D01*
X136910000Y-88708250D01*
X136910000Y-88615691D01*
X136906687Y-88607691D01*
X137090000Y-88607691D01*
X137090000Y-88700250D01*
X137137500Y-88747750D01*
X137137500Y-88875000D01*
X137751250Y-88875000D01*
X137767250Y-88859000D01*
X137862500Y-88859000D01*
X137862500Y-88763750D01*
X137910000Y-88716250D01*
X137910000Y-88623691D01*
X137862500Y-88509016D01*
X137862500Y-88299750D01*
X138090000Y-88299750D01*
X138090000Y-88392309D01*
X138134607Y-88500000D01*
X138090000Y-88607691D01*
X138090000Y-88700250D01*
X138137500Y-88747750D01*
X138137500Y-88859000D01*
X138497293Y-88859000D01*
X138598690Y-88901000D01*
X138703750Y-88901000D01*
X138745750Y-88859000D01*
X138862500Y-88859000D01*
X138862500Y-88747750D01*
X138910000Y-88700250D01*
X138910000Y-88607691D01*
X138862500Y-88493016D01*
X138862500Y-88141000D01*
X138745750Y-88141000D01*
X138703750Y-88099000D01*
X138598690Y-88099000D01*
X138500000Y-88139879D01*
X138401310Y-88099000D01*
X138296250Y-88099000D01*
X138254250Y-88141000D01*
X138248750Y-88141000D01*
X138090000Y-88299750D01*
X137862500Y-88299750D01*
X137862500Y-88257750D01*
X137703750Y-88099000D01*
X137598690Y-88099000D01*
X137480686Y-88147879D01*
X137401310Y-88115000D01*
X137296250Y-88115000D01*
X137137500Y-88273750D01*
X137137500Y-88493016D01*
X137090000Y-88607691D01*
X136906687Y-88607691D01*
X136862500Y-88501016D01*
X136862500Y-88273750D01*
X136703750Y-88115000D01*
X136598690Y-88115000D01*
X136509657Y-88151879D01*
X136401310Y-88107000D01*
X136296250Y-88107000D01*
X136137500Y-88265750D01*
X136137500Y-88509016D01*
X136090000Y-88623691D01*
X135910000Y-88623691D01*
X135910000Y-88607691D01*
X135862500Y-88493016D01*
X135862500Y-88265750D01*
X135703750Y-88107000D01*
X135598690Y-88107000D01*
X135509657Y-88143879D01*
X135401310Y-88099000D01*
X135296250Y-88099000D01*
X135137500Y-88257750D01*
X135137500Y-88501016D01*
X135090000Y-88615691D01*
X134910000Y-88615691D01*
X134862500Y-88501016D01*
X134862500Y-88257750D01*
X134703750Y-88099000D01*
X134598690Y-88099000D01*
X134490343Y-88143879D01*
X134401310Y-88107000D01*
X134296250Y-88107000D01*
X134137500Y-88265750D01*
X134137500Y-88493016D01*
X134090000Y-88607691D01*
X133906687Y-88607691D01*
X133862500Y-88501016D01*
X133862500Y-88265750D01*
X133703750Y-88107000D01*
X133598690Y-88107000D01*
X133500000Y-88147879D01*
X133401310Y-88107000D01*
X133296250Y-88107000D01*
X133137500Y-88265750D01*
X133137500Y-88501016D01*
X133090000Y-88615691D01*
X132910000Y-88615691D01*
X132910000Y-88607691D01*
X132862500Y-88493016D01*
X132862500Y-88265750D01*
X132703750Y-88107000D01*
X132598690Y-88107000D01*
X132509657Y-88143879D01*
X132401310Y-88099000D01*
X132296250Y-88099000D01*
X132137500Y-88257750D01*
X132137500Y-88501016D01*
X132090000Y-88615691D01*
X131910000Y-88615691D01*
X131862500Y-88501016D01*
X131862500Y-88257750D01*
X131703750Y-88099000D01*
X131598690Y-88099000D01*
X131490343Y-88143879D01*
X131401310Y-88107000D01*
X131296250Y-88107000D01*
X131137500Y-88265750D01*
X131137500Y-88493016D01*
X131090000Y-88607691D01*
X130906687Y-88607691D01*
X130863736Y-88504000D01*
X130910000Y-88392309D01*
X130910000Y-88299750D01*
X130751250Y-88141000D01*
X130737750Y-88141000D01*
X130703750Y-88107000D01*
X130598690Y-88107000D01*
X130516607Y-88141000D01*
X130483393Y-88141000D01*
X130401310Y-88107000D01*
X130296250Y-88107000D01*
X130262250Y-88141000D01*
X130137500Y-88141000D01*
X130137500Y-88501016D01*
X130090000Y-88615691D01*
X129862500Y-88615691D01*
X129862500Y-88141000D01*
X129737750Y-88141000D01*
X129725000Y-88128250D01*
X129725000Y-87897440D01*
X130275000Y-87897440D01*
X130307376Y-87891000D01*
X130751250Y-87891000D01*
X130910000Y-87732250D01*
X130910000Y-87639691D01*
X130859610Y-87518039D01*
X130873157Y-87497765D01*
X130886451Y-87430929D01*
X130912235Y-87448157D01*
X131160000Y-87497440D01*
X132860000Y-87497440D01*
X133107765Y-87448157D01*
X133317809Y-87307809D01*
X133458157Y-87097765D01*
X133507440Y-86850000D01*
X133507440Y-85777716D01*
X134304460Y-86574736D01*
X134304460Y-86574736D01*
G37*
X134304460Y-86574736D02*
X134568151Y-86750929D01*
X134879196Y-86812799D01*
X135006887Y-86787400D01*
X135492560Y-86787400D01*
X135492560Y-86850000D01*
X135541843Y-87097765D01*
X135682191Y-87307809D01*
X135892235Y-87448157D01*
X136140000Y-87497440D01*
X137337967Y-87497440D01*
X137415264Y-87574737D01*
X137656612Y-87736000D01*
X137678955Y-87750929D01*
X137990000Y-87812800D01*
X138170550Y-87812800D01*
X138248750Y-87891000D01*
X138692624Y-87891000D01*
X138725000Y-87897440D01*
X139082654Y-87897440D01*
X139082338Y-88259667D01*
X139137500Y-88393170D01*
X139137500Y-88509016D01*
X139090000Y-88623691D01*
X139090000Y-88716250D01*
X139137500Y-88763750D01*
X139137500Y-88859000D01*
X139232750Y-88859000D01*
X139248750Y-88875000D01*
X139270250Y-88875000D01*
X139275000Y-88879750D01*
X139275000Y-89102560D01*
X138725000Y-89102560D01*
X138692624Y-89109000D01*
X138307376Y-89109000D01*
X138275000Y-89102560D01*
X137725000Y-89102560D01*
X137692624Y-89109000D01*
X137248750Y-89109000D01*
X137239190Y-89118560D01*
X136752810Y-89118560D01*
X136751250Y-89117000D01*
X136307376Y-89117000D01*
X136275000Y-89110560D01*
X135752810Y-89110560D01*
X135751250Y-89109000D01*
X135307376Y-89109000D01*
X135275000Y-89102560D01*
X134725000Y-89102560D01*
X134692624Y-89109000D01*
X134248750Y-89109000D01*
X134247190Y-89110560D01*
X133725000Y-89110560D01*
X133692624Y-89117000D01*
X133307376Y-89117000D01*
X133275000Y-89110560D01*
X132752810Y-89110560D01*
X132751250Y-89109000D01*
X132307376Y-89109000D01*
X132275000Y-89102560D01*
X131725000Y-89102560D01*
X131692624Y-89109000D01*
X131248750Y-89109000D01*
X131247190Y-89110560D01*
X130725000Y-89110560D01*
X130692624Y-89117000D01*
X130307376Y-89117000D01*
X130275000Y-89110560D01*
X130017883Y-89110560D01*
X130017962Y-89019633D01*
X129875917Y-88675857D01*
X129862500Y-88662417D01*
X129862500Y-88615691D01*
X130090000Y-88615691D01*
X130090000Y-88708250D01*
X130137500Y-88755750D01*
X130137500Y-88867000D01*
X130262250Y-88867000D01*
X130296250Y-88901000D01*
X130401310Y-88901000D01*
X130483393Y-88867000D01*
X130862500Y-88867000D01*
X130862500Y-88755750D01*
X130910000Y-88708250D01*
X130910000Y-88615691D01*
X130906687Y-88607691D01*
X131090000Y-88607691D01*
X131090000Y-88700250D01*
X131137500Y-88747750D01*
X131137500Y-88867000D01*
X131751250Y-88867000D01*
X131759250Y-88859000D01*
X131862500Y-88859000D01*
X131862500Y-88755750D01*
X131910000Y-88708250D01*
X131910000Y-88615691D01*
X132090000Y-88615691D01*
X132090000Y-88708250D01*
X132137500Y-88755750D01*
X132137500Y-88859000D01*
X132240750Y-88859000D01*
X132248750Y-88867000D01*
X132862500Y-88867000D01*
X132862500Y-88747750D01*
X132910000Y-88700250D01*
X132910000Y-88615691D01*
X133090000Y-88615691D01*
X133090000Y-88708250D01*
X133137500Y-88755750D01*
X133137500Y-88867000D01*
X133862500Y-88867000D01*
X133862500Y-88755750D01*
X133910000Y-88708250D01*
X133910000Y-88615691D01*
X133906687Y-88607691D01*
X134090000Y-88607691D01*
X134090000Y-88700250D01*
X134137500Y-88747750D01*
X134137500Y-88867000D01*
X134751250Y-88867000D01*
X134759250Y-88859000D01*
X134862500Y-88859000D01*
X134862500Y-88755750D01*
X134910000Y-88708250D01*
X134910000Y-88615691D01*
X135090000Y-88615691D01*
X135090000Y-88708250D01*
X135137500Y-88755750D01*
X135137500Y-88859000D01*
X135240750Y-88859000D01*
X135248750Y-88867000D01*
X135862500Y-88867000D01*
X135862500Y-88747750D01*
X135910000Y-88700250D01*
X135910000Y-88623691D01*
X136090000Y-88623691D01*
X136090000Y-88716250D01*
X136137500Y-88763750D01*
X136137500Y-88867000D01*
X136240750Y-88867000D01*
X136248750Y-88875000D01*
X136862500Y-88875000D01*
X136862500Y-88755750D01*
X136910000Y-88708250D01*
X136910000Y-88615691D01*
X136906687Y-88607691D01*
X137090000Y-88607691D01*
X137090000Y-88700250D01*
X137137500Y-88747750D01*
X137137500Y-88875000D01*
X137751250Y-88875000D01*
X137767250Y-88859000D01*
X137862500Y-88859000D01*
X137862500Y-88763750D01*
X137910000Y-88716250D01*
X137910000Y-88623691D01*
X137862500Y-88509016D01*
X137862500Y-88299750D01*
X138090000Y-88299750D01*
X138090000Y-88392309D01*
X138134607Y-88500000D01*
X138090000Y-88607691D01*
X138090000Y-88700250D01*
X138137500Y-88747750D01*
X138137500Y-88859000D01*
X138497293Y-88859000D01*
X138598690Y-88901000D01*
X138703750Y-88901000D01*
X138745750Y-88859000D01*
X138862500Y-88859000D01*
X138862500Y-88747750D01*
X138910000Y-88700250D01*
X138910000Y-88607691D01*
X138862500Y-88493016D01*
X138862500Y-88141000D01*
X138745750Y-88141000D01*
X138703750Y-88099000D01*
X138598690Y-88099000D01*
X138500000Y-88139879D01*
X138401310Y-88099000D01*
X138296250Y-88099000D01*
X138254250Y-88141000D01*
X138248750Y-88141000D01*
X138090000Y-88299750D01*
X137862500Y-88299750D01*
X137862500Y-88257750D01*
X137703750Y-88099000D01*
X137598690Y-88099000D01*
X137480686Y-88147879D01*
X137401310Y-88115000D01*
X137296250Y-88115000D01*
X137137500Y-88273750D01*
X137137500Y-88493016D01*
X137090000Y-88607691D01*
X136906687Y-88607691D01*
X136862500Y-88501016D01*
X136862500Y-88273750D01*
X136703750Y-88115000D01*
X136598690Y-88115000D01*
X136509657Y-88151879D01*
X136401310Y-88107000D01*
X136296250Y-88107000D01*
X136137500Y-88265750D01*
X136137500Y-88509016D01*
X136090000Y-88623691D01*
X135910000Y-88623691D01*
X135910000Y-88607691D01*
X135862500Y-88493016D01*
X135862500Y-88265750D01*
X135703750Y-88107000D01*
X135598690Y-88107000D01*
X135509657Y-88143879D01*
X135401310Y-88099000D01*
X135296250Y-88099000D01*
X135137500Y-88257750D01*
X135137500Y-88501016D01*
X135090000Y-88615691D01*
X134910000Y-88615691D01*
X134862500Y-88501016D01*
X134862500Y-88257750D01*
X134703750Y-88099000D01*
X134598690Y-88099000D01*
X134490343Y-88143879D01*
X134401310Y-88107000D01*
X134296250Y-88107000D01*
X134137500Y-88265750D01*
X134137500Y-88493016D01*
X134090000Y-88607691D01*
X133906687Y-88607691D01*
X133862500Y-88501016D01*
X133862500Y-88265750D01*
X133703750Y-88107000D01*
X133598690Y-88107000D01*
X133500000Y-88147879D01*
X133401310Y-88107000D01*
X133296250Y-88107000D01*
X133137500Y-88265750D01*
X133137500Y-88501016D01*
X133090000Y-88615691D01*
X132910000Y-88615691D01*
X132910000Y-88607691D01*
X132862500Y-88493016D01*
X132862500Y-88265750D01*
X132703750Y-88107000D01*
X132598690Y-88107000D01*
X132509657Y-88143879D01*
X132401310Y-88099000D01*
X132296250Y-88099000D01*
X132137500Y-88257750D01*
X132137500Y-88501016D01*
X132090000Y-88615691D01*
X131910000Y-88615691D01*
X131862500Y-88501016D01*
X131862500Y-88257750D01*
X131703750Y-88099000D01*
X131598690Y-88099000D01*
X131490343Y-88143879D01*
X131401310Y-88107000D01*
X131296250Y-88107000D01*
X131137500Y-88265750D01*
X131137500Y-88493016D01*
X131090000Y-88607691D01*
X130906687Y-88607691D01*
X130863736Y-88504000D01*
X130910000Y-88392309D01*
X130910000Y-88299750D01*
X130751250Y-88141000D01*
X130737750Y-88141000D01*
X130703750Y-88107000D01*
X130598690Y-88107000D01*
X130516607Y-88141000D01*
X130483393Y-88141000D01*
X130401310Y-88107000D01*
X130296250Y-88107000D01*
X130262250Y-88141000D01*
X130137500Y-88141000D01*
X130137500Y-88501016D01*
X130090000Y-88615691D01*
X129862500Y-88615691D01*
X129862500Y-88141000D01*
X129737750Y-88141000D01*
X129725000Y-88128250D01*
X129725000Y-87897440D01*
X130275000Y-87897440D01*
X130307376Y-87891000D01*
X130751250Y-87891000D01*
X130910000Y-87732250D01*
X130910000Y-87639691D01*
X130859610Y-87518039D01*
X130873157Y-87497765D01*
X130886451Y-87430929D01*
X130912235Y-87448157D01*
X131160000Y-87497440D01*
X132860000Y-87497440D01*
X133107765Y-87448157D01*
X133317809Y-87307809D01*
X133458157Y-87097765D01*
X133507440Y-86850000D01*
X133507440Y-85777716D01*
X134304460Y-86574736D01*
G36*
X140783201Y-88945838D02*
X141151457Y-88946159D01*
X141232012Y-89026854D01*
X141275000Y-89044704D01*
X141275000Y-89110560D01*
X140725000Y-89110560D01*
X140725000Y-88921671D01*
X140783201Y-88945838D01*
X140783201Y-88945838D01*
G37*
X140783201Y-88945838D02*
X141151457Y-88946159D01*
X141232012Y-89026854D01*
X141275000Y-89044704D01*
X141275000Y-89110560D01*
X140725000Y-89110560D01*
X140725000Y-88921671D01*
X140783201Y-88945838D01*
G36*
X137886879Y-80516345D02*
X137886879Y-84511885D01*
X137840000Y-84502560D01*
X136140000Y-84502560D01*
X136111106Y-84508307D01*
X136215383Y-84404212D01*
X136358029Y-84060684D01*
X136358353Y-83688718D01*
X136216308Y-83344942D01*
X136210591Y-83339215D01*
X136210591Y-83230707D01*
X136150654Y-82929382D01*
X135979967Y-82673931D01*
X133677713Y-80371677D01*
X133656378Y-80264419D01*
X133516030Y-80054375D01*
X132303342Y-78841687D01*
X132334321Y-78810708D01*
X132334321Y-78586202D01*
X131909173Y-78161054D01*
X131889374Y-78180853D01*
X131869886Y-78161365D01*
X132616591Y-77414660D01*
X132636079Y-77434148D01*
X132616280Y-77453947D01*
X133041428Y-77879095D01*
X133265934Y-77879095D01*
X133596549Y-77548480D01*
X133693222Y-77315091D01*
X133693222Y-77286576D01*
X133749920Y-77310119D01*
X134121886Y-77310443D01*
X134465662Y-77168398D01*
X134502329Y-77131795D01*
X137886879Y-80516345D01*
X137886879Y-80516345D01*
G37*
X137886879Y-80516345D02*
X137886879Y-84511885D01*
X137840000Y-84502560D01*
X136140000Y-84502560D01*
X136111106Y-84508307D01*
X136215383Y-84404212D01*
X136358029Y-84060684D01*
X136358353Y-83688718D01*
X136216308Y-83344942D01*
X136210591Y-83339215D01*
X136210591Y-83230707D01*
X136150654Y-82929382D01*
X135979967Y-82673931D01*
X133677713Y-80371677D01*
X133656378Y-80264419D01*
X133516030Y-80054375D01*
X132303342Y-78841687D01*
X132334321Y-78810708D01*
X132334321Y-78586202D01*
X131909173Y-78161054D01*
X131889374Y-78180853D01*
X131869886Y-78161365D01*
X132616591Y-77414660D01*
X132636079Y-77434148D01*
X132616280Y-77453947D01*
X133041428Y-77879095D01*
X133265934Y-77879095D01*
X133596549Y-77548480D01*
X133693222Y-77315091D01*
X133693222Y-77286576D01*
X133749920Y-77310119D01*
X134121886Y-77310443D01*
X134465662Y-77168398D01*
X134502329Y-77131795D01*
X137886879Y-80516345D01*
G36*
X118460088Y-78850483D02*
X117256196Y-80054375D01*
X117115848Y-80264419D01*
X117066565Y-80512184D01*
X117115848Y-80759949D01*
X117256196Y-80969993D01*
X117370040Y-81083837D01*
X116820982Y-81632894D01*
X116628271Y-81921306D01*
X116560600Y-82261512D01*
X116560600Y-82964011D01*
X116514762Y-83074401D01*
X116514438Y-83446367D01*
X116656483Y-83790143D01*
X116919273Y-84053392D01*
X117262801Y-84196038D01*
X117634767Y-84196362D01*
X117978543Y-84054317D01*
X118146157Y-83886996D01*
X118264634Y-84005680D01*
X118379909Y-84053546D01*
X118373769Y-84068369D01*
X118373769Y-84277200D01*
X115297145Y-84277200D01*
X114646209Y-83626264D01*
X114382518Y-83450071D01*
X114358206Y-83445235D01*
X114071473Y-83388200D01*
X113590047Y-83388200D01*
X113487809Y-83235191D01*
X113277765Y-83094843D01*
X113030000Y-83045560D01*
X112014000Y-83045560D01*
X112012161Y-83045926D01*
X112036657Y-83009265D01*
X112085940Y-82761500D01*
X112085940Y-82409440D01*
X112537000Y-82409440D01*
X112784765Y-82360157D01*
X112870776Y-82302686D01*
X112960045Y-82284929D01*
X113223737Y-82108737D01*
X113223741Y-82108731D01*
X117471039Y-77861434D01*
X118460088Y-78850483D01*
X118460088Y-78850483D01*
G37*
X118460088Y-78850483D02*
X117256196Y-80054375D01*
X117115848Y-80264419D01*
X117066565Y-80512184D01*
X117115848Y-80759949D01*
X117256196Y-80969993D01*
X117370040Y-81083837D01*
X116820982Y-81632894D01*
X116628271Y-81921306D01*
X116560600Y-82261512D01*
X116560600Y-82964011D01*
X116514762Y-83074401D01*
X116514438Y-83446367D01*
X116656483Y-83790143D01*
X116919273Y-84053392D01*
X117262801Y-84196038D01*
X117634767Y-84196362D01*
X117978543Y-84054317D01*
X118146157Y-83886996D01*
X118264634Y-84005680D01*
X118379909Y-84053546D01*
X118373769Y-84068369D01*
X118373769Y-84277200D01*
X115297145Y-84277200D01*
X114646209Y-83626264D01*
X114382518Y-83450071D01*
X114358206Y-83445235D01*
X114071473Y-83388200D01*
X113590047Y-83388200D01*
X113487809Y-83235191D01*
X113277765Y-83094843D01*
X113030000Y-83045560D01*
X112014000Y-83045560D01*
X112012161Y-83045926D01*
X112036657Y-83009265D01*
X112085940Y-82761500D01*
X112085940Y-82409440D01*
X112537000Y-82409440D01*
X112784765Y-82360157D01*
X112870776Y-82302686D01*
X112960045Y-82284929D01*
X113223737Y-82108737D01*
X113223741Y-82108731D01*
X117471039Y-77861434D01*
X118460088Y-78850483D01*
G36*
X117640474Y-75648428D02*
X117666727Y-75674682D01*
X117602856Y-75738553D01*
X117505629Y-75641326D01*
X117477247Y-75669708D01*
X117477247Y-75404142D01*
X117640474Y-75648428D01*
X117640474Y-75648428D01*
G37*
X117640474Y-75648428D02*
X117666727Y-75674682D01*
X117602856Y-75738553D01*
X117505629Y-75641326D01*
X117477247Y-75669708D01*
X117477247Y-75404142D01*
X117640474Y-75648428D01*
G36*
X118729728Y-73982637D02*
X118655341Y-73908250D01*
X118445297Y-73767902D01*
X118197532Y-73718619D01*
X117949767Y-73767902D01*
X117739723Y-73908250D01*
X117477247Y-74170726D01*
X117477247Y-71596305D01*
X118729728Y-70343824D01*
X118729728Y-73982637D01*
X118729728Y-73982637D01*
G37*
X118729728Y-73982637D02*
X118655341Y-73908250D01*
X118445297Y-73767902D01*
X118197532Y-73718619D01*
X117949767Y-73767902D01*
X117739723Y-73908250D01*
X117477247Y-74170726D01*
X117477247Y-71596305D01*
X118729728Y-70343824D01*
X118729728Y-73982637D01*
G36*
X127222264Y-70511570D02*
X127086361Y-70538602D01*
X127047814Y-70530935D01*
X126800049Y-70580218D01*
X126590005Y-70720566D01*
X125386113Y-71924458D01*
X124182221Y-70720566D01*
X123972177Y-70580218D01*
X123724412Y-70530935D01*
X123689504Y-70537878D01*
X123627517Y-70387857D01*
X123364727Y-70124608D01*
X123021199Y-69981962D01*
X122649233Y-69981638D01*
X122305457Y-70123683D01*
X122042208Y-70386473D01*
X121899562Y-70730001D01*
X121899238Y-71101967D01*
X122041283Y-71445743D01*
X122299925Y-71704836D01*
X122188250Y-71816511D01*
X122135232Y-71851937D01*
X121781679Y-72205490D01*
X121696710Y-72332653D01*
X121569547Y-72417622D01*
X121215994Y-72771175D01*
X121131025Y-72898339D01*
X121003861Y-72983308D01*
X120650308Y-73336861D01*
X120565339Y-73464024D01*
X120438176Y-73548993D01*
X120304528Y-73682641D01*
X120304528Y-70626419D01*
X120508744Y-70422203D01*
X120515515Y-70422209D01*
X120859291Y-70280164D01*
X121122540Y-70017374D01*
X121265186Y-69673846D01*
X121265510Y-69301880D01*
X121242211Y-69245493D01*
X127222264Y-70511570D01*
X127222264Y-70511570D01*
G37*
X127222264Y-70511570D02*
X127086361Y-70538602D01*
X127047814Y-70530935D01*
X126800049Y-70580218D01*
X126590005Y-70720566D01*
X125386113Y-71924458D01*
X124182221Y-70720566D01*
X123972177Y-70580218D01*
X123724412Y-70530935D01*
X123689504Y-70537878D01*
X123627517Y-70387857D01*
X123364727Y-70124608D01*
X123021199Y-69981962D01*
X122649233Y-69981638D01*
X122305457Y-70123683D01*
X122042208Y-70386473D01*
X121899562Y-70730001D01*
X121899238Y-71101967D01*
X122041283Y-71445743D01*
X122299925Y-71704836D01*
X122188250Y-71816511D01*
X122135232Y-71851937D01*
X121781679Y-72205490D01*
X121696710Y-72332653D01*
X121569547Y-72417622D01*
X121215994Y-72771175D01*
X121131025Y-72898339D01*
X121003861Y-72983308D01*
X120650308Y-73336861D01*
X120565339Y-73464024D01*
X120438176Y-73548993D01*
X120304528Y-73682641D01*
X120304528Y-70626419D01*
X120508744Y-70422203D01*
X120515515Y-70422209D01*
X120859291Y-70280164D01*
X121122540Y-70017374D01*
X121265186Y-69673846D01*
X121265510Y-69301880D01*
X121242211Y-69245493D01*
X127222264Y-70511570D01*
M02*
