G04 #@! TF.FileFunction,Legend,Top*
%FSLAX46Y46*%
G04 Gerber Fmt 4.6, Leading zero omitted, Abs format (unit mm)*
G04 Created by KiCad (PCBNEW no-vcs-found-undefined) date Tue Nov  8 14:46:45 2016*
%MOMM*%
%LPD*%
G01*
G04 APERTURE LIST*
%ADD10C,0.600000*%
%ADD11C,0.300000*%
%ADD12C,0.150000*%
%ADD13C,0.254000*%
%ADD14C,0.012700*%
%ADD15C,0.062500*%
%ADD16C,0.010000*%
%ADD17C,0.200000*%
G04 APERTURE END LIST*
D10*
D11*
X149183285Y-76343000D02*
X149240428Y-76400142D01*
X149354714Y-76571571D01*
X149411857Y-76685857D01*
X149469000Y-76857285D01*
X149526142Y-77143000D01*
X149526142Y-77371571D01*
X149469000Y-77657285D01*
X149411857Y-77828714D01*
X149354714Y-77943000D01*
X149240428Y-78114428D01*
X149183285Y-78171571D01*
X148040428Y-76914428D02*
X148097571Y-76857285D01*
X148269000Y-76800142D01*
X148383285Y-76800142D01*
X148554714Y-76857285D01*
X148669000Y-76971571D01*
X148726142Y-77085857D01*
X148783285Y-77314428D01*
X148783285Y-77485857D01*
X148726142Y-77714428D01*
X148669000Y-77828714D01*
X148554714Y-77943000D01*
X148383285Y-78000142D01*
X148269000Y-78000142D01*
X148097571Y-77943000D01*
X148040428Y-77885857D01*
X147640428Y-76343000D02*
X147583285Y-76400142D01*
X147469000Y-76571571D01*
X147411857Y-76685857D01*
X147354714Y-76857285D01*
X147297571Y-77143000D01*
X147297571Y-77371571D01*
X147354714Y-77657285D01*
X147411857Y-77828714D01*
X147469000Y-77943000D01*
X147583285Y-78114428D01*
X147640428Y-78171571D01*
X145869000Y-77885857D02*
X145811857Y-77943000D01*
X145697571Y-78000142D01*
X145411857Y-78000142D01*
X145297571Y-77943000D01*
X145240428Y-77885857D01*
X145183285Y-77771571D01*
X145183285Y-77657285D01*
X145240428Y-77485857D01*
X145926142Y-76800142D01*
X145183285Y-76800142D01*
X144440428Y-78000142D02*
X144326142Y-78000142D01*
X144211857Y-77943000D01*
X144154714Y-77885857D01*
X144097571Y-77771571D01*
X144040428Y-77543000D01*
X144040428Y-77257285D01*
X144097571Y-77028714D01*
X144154714Y-76914428D01*
X144211857Y-76857285D01*
X144326142Y-76800142D01*
X144440428Y-76800142D01*
X144554714Y-76857285D01*
X144611857Y-76914428D01*
X144669000Y-77028714D01*
X144726142Y-77257285D01*
X144726142Y-77543000D01*
X144669000Y-77771571D01*
X144611857Y-77885857D01*
X144554714Y-77943000D01*
X144440428Y-78000142D01*
X142897571Y-76800142D02*
X143583285Y-76800142D01*
X143240428Y-76800142D02*
X143240428Y-78000142D01*
X143354714Y-77828714D01*
X143469000Y-77714428D01*
X143583285Y-77657285D01*
X141869000Y-78000142D02*
X142097571Y-78000142D01*
X142211857Y-77943000D01*
X142269000Y-77885857D01*
X142383285Y-77714428D01*
X142440428Y-77485857D01*
X142440428Y-77028714D01*
X142383285Y-76914428D01*
X142326142Y-76857285D01*
X142211857Y-76800142D01*
X141983285Y-76800142D01*
X141869000Y-76857285D01*
X141811857Y-76914428D01*
X141754714Y-77028714D01*
X141754714Y-77314428D01*
X141811857Y-77428714D01*
X141869000Y-77485857D01*
X141983285Y-77543000D01*
X142211857Y-77543000D01*
X142326142Y-77485857D01*
X142383285Y-77428714D01*
X142440428Y-77314428D01*
X159234428Y-83404142D02*
X159234428Y-84604142D01*
X158720142Y-83404142D02*
X158720142Y-84032714D01*
X158777285Y-84147000D01*
X158891571Y-84204142D01*
X159063000Y-84204142D01*
X159177285Y-84147000D01*
X159234428Y-84089857D01*
X158320142Y-84204142D02*
X157863000Y-84204142D01*
X158148714Y-84604142D02*
X158148714Y-83575571D01*
X158091571Y-83461285D01*
X157977285Y-83404142D01*
X157863000Y-83404142D01*
X157634428Y-84204142D02*
X157177285Y-84204142D01*
X157463000Y-84604142D02*
X157463000Y-83575571D01*
X157405857Y-83461285D01*
X157291571Y-83404142D01*
X157177285Y-83404142D01*
X156777285Y-84204142D02*
X156777285Y-83004142D01*
X156777285Y-84147000D02*
X156663000Y-84204142D01*
X156434428Y-84204142D01*
X156320142Y-84147000D01*
X156263000Y-84089857D01*
X156205857Y-83975571D01*
X156205857Y-83632714D01*
X156263000Y-83518428D01*
X156320142Y-83461285D01*
X156434428Y-83404142D01*
X156663000Y-83404142D01*
X156777285Y-83461285D01*
X155748714Y-83461285D02*
X155634428Y-83404142D01*
X155405857Y-83404142D01*
X155291571Y-83461285D01*
X155234428Y-83575571D01*
X155234428Y-83632714D01*
X155291571Y-83747000D01*
X155405857Y-83804142D01*
X155577285Y-83804142D01*
X155691571Y-83861285D01*
X155748714Y-83975571D01*
X155748714Y-84032714D01*
X155691571Y-84147000D01*
X155577285Y-84204142D01*
X155405857Y-84204142D01*
X155291571Y-84147000D01*
X154720142Y-83518428D02*
X154663000Y-83461285D01*
X154720142Y-83404142D01*
X154777285Y-83461285D01*
X154720142Y-83518428D01*
X154720142Y-83404142D01*
X154720142Y-84147000D02*
X154663000Y-84089857D01*
X154720142Y-84032714D01*
X154777285Y-84089857D01*
X154720142Y-84147000D01*
X154720142Y-84032714D01*
X153291571Y-84661285D02*
X154320142Y-83118428D01*
X152034428Y-84661285D02*
X153063000Y-83118428D01*
X151748714Y-84204142D02*
X151520142Y-83404142D01*
X151291571Y-83975571D01*
X151063000Y-83404142D01*
X150834428Y-84204142D01*
X150491571Y-84204142D02*
X150263000Y-83404142D01*
X150034428Y-83975571D01*
X149805857Y-83404142D01*
X149577285Y-84204142D01*
X149234428Y-84204142D02*
X149005857Y-83404142D01*
X148777285Y-83975571D01*
X148548714Y-83404142D01*
X148320142Y-84204142D01*
X147863000Y-83518428D02*
X147805857Y-83461285D01*
X147863000Y-83404142D01*
X147920142Y-83461285D01*
X147863000Y-83518428D01*
X147863000Y-83404142D01*
X147120142Y-83404142D02*
X147234428Y-83461285D01*
X147291571Y-83518428D01*
X147348714Y-83632714D01*
X147348714Y-83975571D01*
X147291571Y-84089857D01*
X147234428Y-84147000D01*
X147120142Y-84204142D01*
X146948714Y-84204142D01*
X146834428Y-84147000D01*
X146777285Y-84089857D01*
X146720142Y-83975571D01*
X146720142Y-83632714D01*
X146777285Y-83518428D01*
X146834428Y-83461285D01*
X146948714Y-83404142D01*
X147120142Y-83404142D01*
X146034428Y-83404142D02*
X146148714Y-83461285D01*
X146205857Y-83575571D01*
X146205857Y-84604142D01*
X145577285Y-83404142D02*
X145577285Y-84204142D01*
X145577285Y-84604142D02*
X145634428Y-84547000D01*
X145577285Y-84489857D01*
X145520142Y-84547000D01*
X145577285Y-84604142D01*
X145577285Y-84489857D01*
X145005857Y-83404142D02*
X145005857Y-84204142D01*
X145005857Y-84089857D02*
X144948714Y-84147000D01*
X144834428Y-84204142D01*
X144663000Y-84204142D01*
X144548714Y-84147000D01*
X144491571Y-84032714D01*
X144491571Y-83404142D01*
X144491571Y-84032714D02*
X144434428Y-84147000D01*
X144320142Y-84204142D01*
X144148714Y-84204142D01*
X144034428Y-84147000D01*
X143977285Y-84032714D01*
X143977285Y-83404142D01*
X142948714Y-83461285D02*
X143063000Y-83404142D01*
X143291571Y-83404142D01*
X143405857Y-83461285D01*
X143463000Y-83575571D01*
X143463000Y-84032714D01*
X143405857Y-84147000D01*
X143291571Y-84204142D01*
X143063000Y-84204142D01*
X142948714Y-84147000D01*
X142891571Y-84032714D01*
X142891571Y-83918428D01*
X143463000Y-83804142D01*
X142491571Y-83404142D02*
X141863000Y-84204142D01*
X142491571Y-84204142D02*
X141863000Y-83404142D01*
X141405857Y-83518428D02*
X141348714Y-83461285D01*
X141405857Y-83404142D01*
X141463000Y-83461285D01*
X141405857Y-83518428D01*
X141405857Y-83404142D01*
X140320142Y-83461285D02*
X140434428Y-83404142D01*
X140663000Y-83404142D01*
X140777285Y-83461285D01*
X140834428Y-83518428D01*
X140891571Y-83632714D01*
X140891571Y-83975571D01*
X140834428Y-84089857D01*
X140777285Y-84147000D01*
X140663000Y-84204142D01*
X140434428Y-84204142D01*
X140320142Y-84147000D01*
X139634428Y-83404142D02*
X139748714Y-83461285D01*
X139805857Y-83518428D01*
X139863000Y-83632714D01*
X139863000Y-83975571D01*
X139805857Y-84089857D01*
X139748714Y-84147000D01*
X139634428Y-84204142D01*
X139463000Y-84204142D01*
X139348714Y-84147000D01*
X139291571Y-84089857D01*
X139234428Y-83975571D01*
X139234428Y-83632714D01*
X139291571Y-83518428D01*
X139348714Y-83461285D01*
X139463000Y-83404142D01*
X139634428Y-83404142D01*
X138720142Y-83404142D02*
X138720142Y-84204142D01*
X138720142Y-84089857D02*
X138663000Y-84147000D01*
X138548714Y-84204142D01*
X138377285Y-84204142D01*
X138263000Y-84147000D01*
X138205857Y-84032714D01*
X138205857Y-83404142D01*
X138205857Y-84032714D02*
X138148714Y-84147000D01*
X138034428Y-84204142D01*
X137863000Y-84204142D01*
X137748714Y-84147000D01*
X137691571Y-84032714D01*
X137691571Y-83404142D01*
X95482833Y-91482333D02*
X96498833Y-91482333D01*
X95990833Y-93260333D02*
X95990833Y-91482333D01*
X97091500Y-93260333D02*
X97091500Y-91482333D01*
X97853500Y-93260333D02*
X97853500Y-92329000D01*
X97768833Y-92159666D01*
X97599500Y-92075000D01*
X97345500Y-92075000D01*
X97176166Y-92159666D01*
X97091500Y-92244333D01*
X99377500Y-93175666D02*
X99208166Y-93260333D01*
X98869500Y-93260333D01*
X98700166Y-93175666D01*
X98615500Y-93006333D01*
X98615500Y-92329000D01*
X98700166Y-92159666D01*
X98869500Y-92075000D01*
X99208166Y-92075000D01*
X99377500Y-92159666D01*
X99462166Y-92329000D01*
X99462166Y-92498333D01*
X98615500Y-92667666D01*
X101578833Y-93260333D02*
X101578833Y-91482333D01*
X101578833Y-92159666D02*
X101748166Y-92075000D01*
X102086833Y-92075000D01*
X102256166Y-92159666D01*
X102340833Y-92244333D01*
X102425500Y-92413666D01*
X102425500Y-92921666D01*
X102340833Y-93091000D01*
X102256166Y-93175666D01*
X102086833Y-93260333D01*
X101748166Y-93260333D01*
X101578833Y-93175666D01*
X103441500Y-93260333D02*
X103272166Y-93175666D01*
X103187500Y-93091000D01*
X103102833Y-92921666D01*
X103102833Y-92413666D01*
X103187500Y-92244333D01*
X103272166Y-92159666D01*
X103441500Y-92075000D01*
X103695500Y-92075000D01*
X103864833Y-92159666D01*
X103949500Y-92244333D01*
X104034166Y-92413666D01*
X104034166Y-92921666D01*
X103949500Y-93091000D01*
X103864833Y-93175666D01*
X103695500Y-93260333D01*
X103441500Y-93260333D01*
X105558166Y-93260333D02*
X105558166Y-92329000D01*
X105473500Y-92159666D01*
X105304166Y-92075000D01*
X104965500Y-92075000D01*
X104796166Y-92159666D01*
X105558166Y-93175666D02*
X105388833Y-93260333D01*
X104965500Y-93260333D01*
X104796166Y-93175666D01*
X104711500Y-93006333D01*
X104711500Y-92837000D01*
X104796166Y-92667666D01*
X104965500Y-92583000D01*
X105388833Y-92583000D01*
X105558166Y-92498333D01*
X106404833Y-93260333D02*
X106404833Y-92075000D01*
X106404833Y-92413666D02*
X106489500Y-92244333D01*
X106574166Y-92159666D01*
X106743500Y-92075000D01*
X106912833Y-92075000D01*
X108267500Y-93260333D02*
X108267500Y-91482333D01*
X108267500Y-93175666D02*
X108098166Y-93260333D01*
X107759500Y-93260333D01*
X107590166Y-93175666D01*
X107505500Y-93091000D01*
X107420833Y-92921666D01*
X107420833Y-92413666D01*
X107505500Y-92244333D01*
X107590166Y-92159666D01*
X107759500Y-92075000D01*
X108098166Y-92075000D01*
X108267500Y-92159666D01*
X109198833Y-91482333D02*
X109029500Y-91821000D01*
X109876166Y-93175666D02*
X110045500Y-93260333D01*
X110384166Y-93260333D01*
X110553500Y-93175666D01*
X110638166Y-93006333D01*
X110638166Y-92921666D01*
X110553500Y-92752333D01*
X110384166Y-92667666D01*
X110130166Y-92667666D01*
X109960833Y-92583000D01*
X109876166Y-92413666D01*
X109876166Y-92329000D01*
X109960833Y-92159666D01*
X110130166Y-92075000D01*
X110384166Y-92075000D01*
X110553500Y-92159666D01*
X112500833Y-92075000D02*
X113178166Y-92075000D01*
X112754833Y-91482333D02*
X112754833Y-93006333D01*
X112839500Y-93175666D01*
X113008833Y-93260333D01*
X113178166Y-93260333D01*
X113770833Y-93260333D02*
X113770833Y-91482333D01*
X114532833Y-93260333D02*
X114532833Y-92329000D01*
X114448166Y-92159666D01*
X114278833Y-92075000D01*
X114024833Y-92075000D01*
X113855500Y-92159666D01*
X113770833Y-92244333D01*
X115379500Y-93260333D02*
X115379500Y-92075000D01*
X115379500Y-91482333D02*
X115294833Y-91567000D01*
X115379500Y-91651666D01*
X115464166Y-91567000D01*
X115379500Y-91482333D01*
X115379500Y-91651666D01*
X116988166Y-93175666D02*
X116818833Y-93260333D01*
X116480166Y-93260333D01*
X116310833Y-93175666D01*
X116226166Y-93091000D01*
X116141500Y-92921666D01*
X116141500Y-92413666D01*
X116226166Y-92244333D01*
X116310833Y-92159666D01*
X116480166Y-92075000D01*
X116818833Y-92075000D01*
X116988166Y-92159666D01*
X117750166Y-93260333D02*
X117750166Y-91482333D01*
X117919500Y-92583000D02*
X118427500Y-93260333D01*
X118427500Y-92075000D02*
X117750166Y-92752333D01*
X119189500Y-92075000D02*
X119189500Y-93260333D01*
X119189500Y-92244333D02*
X119274166Y-92159666D01*
X119443500Y-92075000D01*
X119697500Y-92075000D01*
X119866833Y-92159666D01*
X119951500Y-92329000D01*
X119951500Y-93260333D01*
X121475500Y-93175666D02*
X121306166Y-93260333D01*
X120967500Y-93260333D01*
X120798166Y-93175666D01*
X120713500Y-93006333D01*
X120713500Y-92329000D01*
X120798166Y-92159666D01*
X120967500Y-92075000D01*
X121306166Y-92075000D01*
X121475500Y-92159666D01*
X121560166Y-92329000D01*
X121560166Y-92498333D01*
X120713500Y-92667666D01*
X122237500Y-93175666D02*
X122406833Y-93260333D01*
X122745500Y-93260333D01*
X122914833Y-93175666D01*
X122999500Y-93006333D01*
X122999500Y-92921666D01*
X122914833Y-92752333D01*
X122745500Y-92667666D01*
X122491500Y-92667666D01*
X122322166Y-92583000D01*
X122237500Y-92413666D01*
X122237500Y-92329000D01*
X122322166Y-92159666D01*
X122491500Y-92075000D01*
X122745500Y-92075000D01*
X122914833Y-92159666D01*
X123676833Y-93175666D02*
X123846166Y-93260333D01*
X124184833Y-93260333D01*
X124354166Y-93175666D01*
X124438833Y-93006333D01*
X124438833Y-92921666D01*
X124354166Y-92752333D01*
X124184833Y-92667666D01*
X123930833Y-92667666D01*
X123761500Y-92583000D01*
X123676833Y-92413666D01*
X123676833Y-92329000D01*
X123761500Y-92159666D01*
X123930833Y-92075000D01*
X124184833Y-92075000D01*
X124354166Y-92159666D01*
X126301500Y-92075000D02*
X126978833Y-92075000D01*
X126555500Y-91482333D02*
X126555500Y-93006333D01*
X126640166Y-93175666D01*
X126809500Y-93260333D01*
X126978833Y-93260333D01*
X127825500Y-93260333D02*
X127656166Y-93175666D01*
X127571500Y-93091000D01*
X127486833Y-92921666D01*
X127486833Y-92413666D01*
X127571500Y-92244333D01*
X127656166Y-92159666D01*
X127825500Y-92075000D01*
X128079500Y-92075000D01*
X128248833Y-92159666D01*
X128333500Y-92244333D01*
X128418166Y-92413666D01*
X128418166Y-92921666D01*
X128333500Y-93091000D01*
X128248833Y-93175666D01*
X128079500Y-93260333D01*
X127825500Y-93260333D01*
X130534833Y-93260333D02*
X130534833Y-91482333D01*
X130534833Y-92159666D02*
X130704166Y-92075000D01*
X131042833Y-92075000D01*
X131212166Y-92159666D01*
X131296833Y-92244333D01*
X131381500Y-92413666D01*
X131381500Y-92921666D01*
X131296833Y-93091000D01*
X131212166Y-93175666D01*
X131042833Y-93260333D01*
X130704166Y-93260333D01*
X130534833Y-93175666D01*
X132820833Y-93175666D02*
X132651500Y-93260333D01*
X132312833Y-93260333D01*
X132143500Y-93175666D01*
X132058833Y-93006333D01*
X132058833Y-92329000D01*
X132143500Y-92159666D01*
X132312833Y-92075000D01*
X132651500Y-92075000D01*
X132820833Y-92159666D01*
X132905500Y-92329000D01*
X132905500Y-92498333D01*
X132058833Y-92667666D01*
X135953500Y-93260333D02*
X134937500Y-93260333D01*
X135445500Y-93260333D02*
X135445500Y-91482333D01*
X135276166Y-91736333D01*
X135106833Y-91905666D01*
X134937500Y-91990333D01*
X136715500Y-93091000D02*
X136800166Y-93175666D01*
X136715500Y-93260333D01*
X136630833Y-93175666D01*
X136715500Y-93091000D01*
X136715500Y-93260333D01*
X137477500Y-91651666D02*
X137562166Y-91567000D01*
X137731500Y-91482333D01*
X138154833Y-91482333D01*
X138324166Y-91567000D01*
X138408833Y-91651666D01*
X138493500Y-91821000D01*
X138493500Y-91990333D01*
X138408833Y-92244333D01*
X137392833Y-93260333D01*
X138493500Y-93260333D01*
X139255500Y-93260333D02*
X139255500Y-92075000D01*
X139255500Y-92244333D02*
X139340166Y-92159666D01*
X139509500Y-92075000D01*
X139763500Y-92075000D01*
X139932833Y-92159666D01*
X140017500Y-92329000D01*
X140017500Y-93260333D01*
X140017500Y-92329000D02*
X140102166Y-92159666D01*
X140271500Y-92075000D01*
X140525500Y-92075000D01*
X140694833Y-92159666D01*
X140779500Y-92329000D01*
X140779500Y-93260333D01*
X141626166Y-93260333D02*
X141626166Y-92075000D01*
X141626166Y-92244333D02*
X141710833Y-92159666D01*
X141880166Y-92075000D01*
X142134166Y-92075000D01*
X142303500Y-92159666D01*
X142388166Y-92329000D01*
X142388166Y-93260333D01*
X142388166Y-92329000D02*
X142472833Y-92159666D01*
X142642166Y-92075000D01*
X142896166Y-92075000D01*
X143065500Y-92159666D01*
X143150166Y-92329000D01*
X143150166Y-93260333D01*
X143996833Y-93091000D02*
X144081500Y-93175666D01*
X143996833Y-93260333D01*
X143912166Y-93175666D01*
X143996833Y-93091000D01*
X143996833Y-93260333D01*
X143996833Y-92583000D02*
X143912166Y-91567000D01*
X143996833Y-91482333D01*
X144081500Y-91567000D01*
X143996833Y-92583000D01*
X143996833Y-91482333D01*
X144843500Y-93091000D02*
X144928166Y-93175666D01*
X144843500Y-93260333D01*
X144758833Y-93175666D01*
X144843500Y-93091000D01*
X144843500Y-93260333D01*
X144843500Y-92583000D02*
X144758833Y-91567000D01*
X144843500Y-91482333D01*
X144928166Y-91567000D01*
X144843500Y-92583000D01*
X144843500Y-91482333D01*
X145690166Y-93091000D02*
X145774833Y-93175666D01*
X145690166Y-93260333D01*
X145605500Y-93175666D01*
X145690166Y-93091000D01*
X145690166Y-93260333D01*
X145690166Y-92583000D02*
X145605500Y-91567000D01*
X145690166Y-91482333D01*
X145774833Y-91567000D01*
X145690166Y-92583000D01*
X145690166Y-91482333D01*
D12*
X124500000Y-75100000D02*
X124500000Y-81100000D01*
X122000000Y-81100000D02*
X122000000Y-75100000D01*
X124500000Y-81100000D02*
X122000000Y-81100000D01*
X122000000Y-75100000D02*
X124500000Y-75100000D01*
X151500000Y-81100000D02*
X151500000Y-75100000D01*
X154000000Y-75100000D02*
X154000000Y-81100000D01*
X151500000Y-75100000D02*
X154000000Y-75100000D01*
X154000000Y-81100000D02*
X151500000Y-81100000D01*
X110500000Y-81100000D02*
X110500000Y-75100000D01*
X110500000Y-75100000D02*
X113000000Y-75100000D01*
X113000000Y-75100000D02*
X113000000Y-81100000D01*
X113000000Y-81100000D02*
X110500000Y-81100000D01*
D11*
X132357142Y-84157142D02*
X131671428Y-84157142D01*
X132014285Y-82957142D02*
X132014285Y-84157142D01*
X131271428Y-83585714D02*
X130871428Y-83585714D01*
X130700000Y-82957142D02*
X131271428Y-82957142D01*
X131271428Y-84157142D01*
X130700000Y-84157142D01*
X129500000Y-82957142D02*
X129900000Y-83528571D01*
X130185714Y-82957142D02*
X130185714Y-84157142D01*
X129728571Y-84157142D01*
X129614285Y-84100000D01*
X129557142Y-84042857D01*
X129500000Y-83928571D01*
X129500000Y-83757142D01*
X129557142Y-83642857D01*
X129614285Y-83585714D01*
X129728571Y-83528571D01*
X130185714Y-83528571D01*
X128985714Y-83585714D02*
X128585714Y-83585714D01*
X128414285Y-82957142D02*
X128985714Y-82957142D01*
X128985714Y-84157142D01*
X128414285Y-84157142D01*
X127957142Y-83014285D02*
X127785714Y-82957142D01*
X127500000Y-82957142D01*
X127385714Y-83014285D01*
X127328571Y-83071428D01*
X127271428Y-83185714D01*
X127271428Y-83300000D01*
X127328571Y-83414285D01*
X127385714Y-83471428D01*
X127500000Y-83528571D01*
X127728571Y-83585714D01*
X127842857Y-83642857D01*
X127900000Y-83700000D01*
X127957142Y-83814285D01*
X127957142Y-83928571D01*
X127900000Y-84042857D01*
X127842857Y-84100000D01*
X127728571Y-84157142D01*
X127442857Y-84157142D01*
X127271428Y-84100000D01*
X126757142Y-83414285D02*
X125842857Y-83414285D01*
X125271428Y-82957142D02*
X125271428Y-84157142D01*
X124814285Y-84157142D01*
X124700000Y-84100000D01*
X124642857Y-84042857D01*
X124585714Y-83928571D01*
X124585714Y-83757142D01*
X124642857Y-83642857D01*
X124700000Y-83585714D01*
X124814285Y-83528571D01*
X125271428Y-83528571D01*
X123385714Y-83071428D02*
X123442857Y-83014285D01*
X123614285Y-82957142D01*
X123728571Y-82957142D01*
X123900000Y-83014285D01*
X124014285Y-83128571D01*
X124071428Y-83242857D01*
X124128571Y-83471428D01*
X124128571Y-83642857D01*
X124071428Y-83871428D01*
X124014285Y-83985714D01*
X123900000Y-84100000D01*
X123728571Y-84157142D01*
X123614285Y-84157142D01*
X123442857Y-84100000D01*
X123385714Y-84042857D01*
X122471428Y-83585714D02*
X122300000Y-83528571D01*
X122242857Y-83471428D01*
X122185714Y-83357142D01*
X122185714Y-83185714D01*
X122242857Y-83071428D01*
X122300000Y-83014285D01*
X122414285Y-82957142D01*
X122871428Y-82957142D01*
X122871428Y-84157142D01*
X122471428Y-84157142D01*
X122357142Y-84100000D01*
X122300000Y-84042857D01*
X122242857Y-83928571D01*
X122242857Y-83814285D01*
X122300000Y-83700000D01*
X122357142Y-83642857D01*
X122471428Y-83585714D01*
X122871428Y-83585714D01*
X121785714Y-84157142D02*
X121042857Y-84157142D01*
X121442857Y-83700000D01*
X121271428Y-83700000D01*
X121157142Y-83642857D01*
X121100000Y-83585714D01*
X121042857Y-83471428D01*
X121042857Y-83185714D01*
X121100000Y-83071428D01*
X121157142Y-83014285D01*
X121271428Y-82957142D01*
X121614285Y-82957142D01*
X121728571Y-83014285D01*
X121785714Y-83071428D01*
X120528571Y-83414285D02*
X119614285Y-83414285D01*
X119214285Y-84157142D02*
X118528571Y-84157142D01*
X118871428Y-82957142D02*
X118871428Y-84157142D01*
X117900000Y-84157142D02*
X117671428Y-84157142D01*
X117557142Y-84100000D01*
X117442857Y-83985714D01*
X117385714Y-83757142D01*
X117385714Y-83357142D01*
X117442857Y-83128571D01*
X117557142Y-83014285D01*
X117671428Y-82957142D01*
X117900000Y-82957142D01*
X118014285Y-83014285D01*
X118128571Y-83128571D01*
X118185714Y-83357142D01*
X118185714Y-83757142D01*
X118128571Y-83985714D01*
X118014285Y-84100000D01*
X117900000Y-84157142D01*
X116871428Y-84157142D02*
X116871428Y-83185714D01*
X116814285Y-83071428D01*
X116757142Y-83014285D01*
X116642857Y-82957142D01*
X116414285Y-82957142D01*
X116300000Y-83014285D01*
X116242857Y-83071428D01*
X116185714Y-83185714D01*
X116185714Y-84157142D01*
X114928571Y-83071428D02*
X114985714Y-83014285D01*
X115157142Y-82957142D01*
X115271428Y-82957142D01*
X115442857Y-83014285D01*
X115557142Y-83128571D01*
X115614285Y-83242857D01*
X115671428Y-83471428D01*
X115671428Y-83642857D01*
X115614285Y-83871428D01*
X115557142Y-83985714D01*
X115442857Y-84100000D01*
X115271428Y-84157142D01*
X115157142Y-84157142D01*
X114985714Y-84100000D01*
X114928571Y-84042857D01*
X114414285Y-82957142D02*
X114414285Y-84157142D01*
X114414285Y-83585714D02*
X113728571Y-83585714D01*
X113728571Y-82957142D02*
X113728571Y-84157142D01*
X113157142Y-83414285D02*
X112242857Y-83414285D01*
X111271428Y-83585714D02*
X111100000Y-83528571D01*
X111042857Y-83471428D01*
X110985714Y-83357142D01*
X110985714Y-83185714D01*
X111042857Y-83071428D01*
X111100000Y-83014285D01*
X111214285Y-82957142D01*
X111671428Y-82957142D01*
X111671428Y-84157142D01*
X111271428Y-84157142D01*
X111157142Y-84100000D01*
X111100000Y-84042857D01*
X111042857Y-83928571D01*
X111042857Y-83814285D01*
X111100000Y-83700000D01*
X111157142Y-83642857D01*
X111271428Y-83585714D01*
X111671428Y-83585714D01*
X110642857Y-84157142D02*
X109957142Y-84157142D01*
X110300000Y-82957142D02*
X110300000Y-84157142D01*
X109557142Y-82957142D02*
X109557142Y-84157142D01*
X108871428Y-82957142D01*
X108871428Y-84157142D01*
X106700000Y-82957142D02*
X107100000Y-83528571D01*
X107385714Y-82957142D02*
X107385714Y-84157142D01*
X106928571Y-84157142D01*
X106814285Y-84100000D01*
X106757142Y-84042857D01*
X106700000Y-83928571D01*
X106700000Y-83757142D01*
X106757142Y-83642857D01*
X106814285Y-83585714D01*
X106928571Y-83528571D01*
X107385714Y-83528571D01*
X105728571Y-83014285D02*
X105842857Y-82957142D01*
X106071428Y-82957142D01*
X106185714Y-83014285D01*
X106242857Y-83128571D01*
X106242857Y-83585714D01*
X106185714Y-83700000D01*
X106071428Y-83757142D01*
X105842857Y-83757142D01*
X105728571Y-83700000D01*
X105671428Y-83585714D01*
X105671428Y-83471428D01*
X106242857Y-83357142D01*
X105271428Y-83757142D02*
X104985714Y-82957142D01*
X104700000Y-83757142D01*
X104242857Y-83071428D02*
X104185714Y-83014285D01*
X104242857Y-82957142D01*
X104300000Y-83014285D01*
X104242857Y-83071428D01*
X104242857Y-82957142D01*
X103728571Y-83300000D02*
X103157142Y-83300000D01*
X103842857Y-82957142D02*
X103442857Y-84157142D01*
X103042857Y-82957142D01*
D12*
X83500000Y-81000000D02*
X81000000Y-81000000D01*
X83500000Y-75000000D02*
X83500000Y-81000000D01*
X81000000Y-75000000D02*
X83500000Y-75000000D01*
X81000000Y-81000000D02*
X81000000Y-75000000D01*
X136000000Y-72500000D02*
X160000000Y-72500000D01*
X136000000Y-74500000D02*
X136000000Y-72500000D01*
X129500000Y-74500000D02*
X136000000Y-74500000D01*
X129500000Y-72500000D02*
X129500000Y-74500000D01*
X105500000Y-72500000D02*
X129500000Y-72500000D01*
X105500000Y-74500000D02*
X105500000Y-72500000D01*
X99000000Y-74500000D02*
X105500000Y-74500000D01*
X99000000Y-72500000D02*
X99000000Y-74500000D01*
X75000000Y-72500000D02*
X99000000Y-72500000D01*
X160000000Y-72500000D02*
X160000000Y-85000000D01*
X75000000Y-85000000D02*
X75000000Y-72500000D01*
X75000000Y-85000000D02*
X160000000Y-85000000D01*
D13*
X90758000Y-75738000D02*
X89742000Y-75738000D01*
X90758000Y-77262000D02*
X89742000Y-77262000D01*
X90758000Y-77988000D02*
X89742000Y-77988000D01*
X90758000Y-79512000D02*
X89742000Y-79512000D01*
D14*
X144830800Y-81292700D02*
X144830800Y-81277460D01*
X144846040Y-81290160D02*
X144825720Y-81290160D01*
X144823180Y-81295240D02*
X144823180Y-81264760D01*
X144858740Y-81300320D02*
X144820640Y-81300320D01*
X144899380Y-81310480D02*
X144813020Y-81310480D01*
X144813020Y-81310480D02*
X144813020Y-81213960D01*
X146359880Y-81285080D02*
X146344640Y-81285080D01*
X146362420Y-81305400D02*
X146362420Y-81264760D01*
X146319240Y-81297780D02*
X146364960Y-81297780D01*
X146372580Y-81213960D02*
X146372580Y-81310480D01*
X146372580Y-81310480D02*
X146044920Y-81310480D01*
X146944080Y-80215740D02*
X146758660Y-80215740D01*
X146944080Y-80203040D02*
X146761200Y-80203040D01*
X146944080Y-80190340D02*
X146761200Y-80190340D01*
X146941540Y-80177640D02*
X146758660Y-80177640D01*
X146946620Y-80164940D02*
X146946620Y-80987900D01*
X146756120Y-80261460D02*
X146756120Y-80164940D01*
X146756120Y-80164940D02*
X146946620Y-80164940D01*
X147444460Y-81290160D02*
X147444460Y-81211420D01*
X147629880Y-81290160D02*
X147629880Y-81216500D01*
D15*
X147513040Y-81259680D02*
X147464780Y-81259680D01*
X147609560Y-81262220D02*
X147561300Y-81262220D01*
D16*
X147535900Y-81292700D02*
X147434300Y-81292700D01*
X147434300Y-81292700D02*
X147434300Y-80035400D01*
X147383500Y-79743300D02*
X147396200Y-79756000D01*
X147396200Y-79743300D02*
X147078700Y-79743300D01*
X147624800Y-79959200D02*
X147637500Y-79984600D01*
X147637500Y-79997300D02*
X147637500Y-79984600D01*
X147637500Y-79984600D02*
X147637500Y-79971900D01*
X147637500Y-79971900D02*
X147396200Y-79743300D01*
X147535900Y-81292700D02*
X147637500Y-81292700D01*
X147637500Y-81292700D02*
X147637500Y-79997300D01*
D17*
X148031200Y-79832200D02*
X148526500Y-79832200D01*
X148526500Y-79832200D02*
X148678900Y-79971900D01*
X148678900Y-80873600D02*
X148678900Y-81038700D01*
X148678900Y-81038700D02*
X148526500Y-81191100D01*
X148526500Y-81191100D02*
X148043900Y-81191100D01*
D12*
X143974839Y-80518000D02*
G75*
G03X143974839Y-80518000I-172739J0D01*
G01*
D17*
X144005300Y-80518000D02*
X144437100Y-80518000D01*
D12*
X142933439Y-81127600D02*
G75*
G03X142933439Y-81127600I-172739J0D01*
G01*
D17*
X143167100Y-80695800D02*
X142913100Y-80949800D01*
X143370300Y-80695800D02*
X143167100Y-80695800D01*
X143865600Y-81191100D02*
X143370300Y-80695800D01*
X144259300Y-81191100D02*
X143865600Y-81191100D01*
X144437100Y-80505300D02*
X144437100Y-81013300D01*
X144437100Y-81013300D02*
X144259300Y-81191100D01*
X144437100Y-79946500D02*
X144437100Y-80518000D01*
X144272000Y-79768700D02*
X144437100Y-79946500D01*
X143878300Y-79768700D02*
X144272000Y-79768700D01*
X143370300Y-80276700D02*
X143878300Y-79768700D01*
X143179800Y-80276700D02*
X143370300Y-80276700D01*
X142887700Y-79984600D02*
X143179800Y-80276700D01*
D12*
X142946139Y-79819500D02*
G75*
G03X142946139Y-79819500I-172739J0D01*
G01*
X145079739Y-79832200D02*
G75*
G03X145079739Y-79832200I-172739J0D01*
G01*
D17*
X144907000Y-81216500D02*
X144907000Y-80086200D01*
X145122900Y-81216500D02*
X144907000Y-81216500D01*
D12*
X145778239Y-80340200D02*
G75*
G03X145778239Y-80340200I-172739J0D01*
G01*
D17*
X145605500Y-80746600D02*
X145122900Y-81216500D01*
X145605500Y-80772000D02*
X145605500Y-80568800D01*
X146050000Y-81216500D02*
X145605500Y-80772000D01*
X146278600Y-81216500D02*
X146050000Y-81216500D01*
X146278600Y-80048100D02*
X146278600Y-81216500D01*
D12*
X146451339Y-79832200D02*
G75*
G03X146451339Y-79832200I-172739J0D01*
G01*
X147022839Y-81203800D02*
G75*
G03X147022839Y-81203800I-172739J0D01*
G01*
D17*
X146850100Y-80975200D02*
X146850100Y-80264000D01*
D12*
X147022839Y-79832200D02*
G75*
G03X147022839Y-79832200I-172739J0D01*
G01*
D17*
X147358100Y-79844900D02*
X147078700Y-79844900D01*
X147535900Y-80010000D02*
X147358100Y-79844900D01*
X147535900Y-81191100D02*
X147535900Y-80010000D01*
X148678900Y-80441800D02*
X148678900Y-79997300D01*
X148031200Y-79832200D02*
X147891500Y-79971900D01*
X147891500Y-81000600D02*
X147891500Y-79997300D01*
X148043900Y-81189300D02*
X147891500Y-81038700D01*
D12*
X148851639Y-80670400D02*
G75*
G03X148851639Y-80670400I-172739J0D01*
G01*
D13*
X86288333Y-76953571D02*
X86227857Y-77014047D01*
X86046428Y-77074523D01*
X85925476Y-77074523D01*
X85744047Y-77014047D01*
X85623095Y-76893095D01*
X85562619Y-76772142D01*
X85502142Y-76530238D01*
X85502142Y-76348809D01*
X85562619Y-76106904D01*
X85623095Y-75985952D01*
X85744047Y-75865000D01*
X85925476Y-75804523D01*
X86046428Y-75804523D01*
X86227857Y-75865000D01*
X86288333Y-75925476D01*
X87497857Y-77074523D02*
X86772142Y-77074523D01*
X87135000Y-77074523D02*
X87135000Y-75804523D01*
X87014047Y-75985952D01*
X86893095Y-76106904D01*
X86772142Y-76167380D01*
X86288333Y-79203571D02*
X86227857Y-79264047D01*
X86046428Y-79324523D01*
X85925476Y-79324523D01*
X85744047Y-79264047D01*
X85623095Y-79143095D01*
X85562619Y-79022142D01*
X85502142Y-78780238D01*
X85502142Y-78598809D01*
X85562619Y-78356904D01*
X85623095Y-78235952D01*
X85744047Y-78115000D01*
X85925476Y-78054523D01*
X86046428Y-78054523D01*
X86227857Y-78115000D01*
X86288333Y-78175476D01*
X86772142Y-78175476D02*
X86832619Y-78115000D01*
X86953571Y-78054523D01*
X87255952Y-78054523D01*
X87376904Y-78115000D01*
X87437380Y-78175476D01*
X87497857Y-78296428D01*
X87497857Y-78417380D01*
X87437380Y-78598809D01*
X86711666Y-79324523D01*
X87497857Y-79324523D01*
D12*
X99761904Y-84202380D02*
X99761904Y-83202380D01*
X100142857Y-83202380D01*
X100238095Y-83250000D01*
X100285714Y-83297619D01*
X100333333Y-83392857D01*
X100333333Y-83535714D01*
X100285714Y-83630952D01*
X100238095Y-83678571D01*
X100142857Y-83726190D01*
X99761904Y-83726190D01*
X100714285Y-83297619D02*
X100761904Y-83250000D01*
X100857142Y-83202380D01*
X101095238Y-83202380D01*
X101190476Y-83250000D01*
X101238095Y-83297619D01*
X101285714Y-83392857D01*
X101285714Y-83488095D01*
X101238095Y-83630952D01*
X100666666Y-84202380D01*
X101285714Y-84202380D01*
X134261904Y-84452380D02*
X134261904Y-83452380D01*
X134642857Y-83452380D01*
X134738095Y-83500000D01*
X134785714Y-83547619D01*
X134833333Y-83642857D01*
X134833333Y-83785714D01*
X134785714Y-83880952D01*
X134738095Y-83928571D01*
X134642857Y-83976190D01*
X134261904Y-83976190D01*
X135785714Y-84452380D02*
X135214285Y-84452380D01*
X135500000Y-84452380D02*
X135500000Y-83452380D01*
X135404761Y-83595238D01*
X135309523Y-83690476D01*
X135214285Y-83738095D01*
M02*
