G04 #@! TF.FileFunction,Profile,NP*
%FSLAX46Y46*%
G04 Gerber Fmt 4.6, Leading zero omitted, Abs format (unit mm)*
G04 Created by KiCad (PCBNEW 4.1.0-alpha+201608171232+7063~46~ubuntu14.04.1-product) date Tue Aug 30 16:08:06 2016*
%MOMM*%
%LPD*%
G01*
G04 APERTURE LIST*
%ADD10C,0.600000*%
%ADD11C,0.150000*%
G04 APERTURE END LIST*
D10*
D11*
X124500000Y-75100000D02*
X124500000Y-81100000D01*
X122000000Y-81100000D02*
X122000000Y-75100000D01*
X124500000Y-81100000D02*
X122000000Y-81100000D01*
X122000000Y-75100000D02*
X124500000Y-75100000D01*
X151500000Y-81100000D02*
X151500000Y-75100000D01*
X154000000Y-75100000D02*
X154000000Y-81100000D01*
X151500000Y-75100000D02*
X154000000Y-75100000D01*
X154000000Y-81100000D02*
X151500000Y-81100000D01*
X110500000Y-81100000D02*
X110500000Y-75100000D01*
X110500000Y-75100000D02*
X113000000Y-75100000D01*
X113000000Y-75100000D02*
X113000000Y-81100000D01*
X113000000Y-81100000D02*
X110500000Y-81100000D01*
X83500000Y-81000000D02*
X81000000Y-81000000D01*
X83500000Y-75000000D02*
X83500000Y-81000000D01*
X81000000Y-75000000D02*
X83500000Y-75000000D01*
X81000000Y-81000000D02*
X81000000Y-75000000D01*
X136000000Y-72500000D02*
X160000000Y-72500000D01*
X136000000Y-74500000D02*
X136000000Y-72500000D01*
X129500000Y-74500000D02*
X136000000Y-74500000D01*
X129500000Y-72500000D02*
X129500000Y-74500000D01*
X105500000Y-72500000D02*
X129500000Y-72500000D01*
X105500000Y-74500000D02*
X105500000Y-72500000D01*
X99000000Y-74500000D02*
X105500000Y-74500000D01*
X99000000Y-72500000D02*
X99000000Y-74500000D01*
X75000000Y-72500000D02*
X99000000Y-72500000D01*
X160000000Y-72500000D02*
X160000000Y-85000000D01*
X75000000Y-85000000D02*
X75000000Y-72500000D01*
X75000000Y-85000000D02*
X160000000Y-85000000D01*
M02*
