G04 #@! TF.FileFunction,Soldermask,Bot*
%FSLAX46Y46*%
G04 Gerber Fmt 4.6, Leading zero omitted, Abs format (unit mm)*
G04 Created by KiCad (PCBNEW no-vcs-found-undefined) date Tue Nov  8 14:46:45 2016*
%MOMM*%
%LPD*%
G01*
G04 APERTURE LIST*
%ADD10C,0.600000*%
%ADD11C,0.150000*%
%ADD12C,5.480000*%
%ADD13C,6.400000*%
%ADD14C,1.254000*%
%ADD15R,1.924000X1.400000*%
%ADD16C,2.600000*%
G04 APERTURE END LIST*
D10*
D11*
X124500000Y-75100000D02*
X124500000Y-81100000D01*
X122000000Y-81100000D02*
X122000000Y-75100000D01*
X124500000Y-81100000D02*
X122000000Y-81100000D01*
X122000000Y-75100000D02*
X124500000Y-75100000D01*
X151500000Y-81100000D02*
X151500000Y-75100000D01*
X154000000Y-75100000D02*
X154000000Y-81100000D01*
X151500000Y-75100000D02*
X154000000Y-75100000D01*
X154000000Y-81100000D02*
X151500000Y-81100000D01*
X110500000Y-81100000D02*
X110500000Y-75100000D01*
X110500000Y-75100000D02*
X113000000Y-75100000D01*
X113000000Y-75100000D02*
X113000000Y-81100000D01*
X113000000Y-81100000D02*
X110500000Y-81100000D01*
X83500000Y-81000000D02*
X81000000Y-81000000D01*
X83500000Y-75000000D02*
X83500000Y-81000000D01*
X81000000Y-75000000D02*
X83500000Y-75000000D01*
X81000000Y-81000000D02*
X81000000Y-75000000D01*
X136000000Y-72500000D02*
X160000000Y-72500000D01*
X136000000Y-74500000D02*
X136000000Y-72500000D01*
X129500000Y-74500000D02*
X136000000Y-74500000D01*
X129500000Y-72500000D02*
X129500000Y-74500000D01*
X105500000Y-72500000D02*
X129500000Y-72500000D01*
X105500000Y-74500000D02*
X105500000Y-72500000D01*
X99000000Y-74500000D02*
X105500000Y-74500000D01*
X99000000Y-72500000D02*
X99000000Y-74500000D01*
X75000000Y-72500000D02*
X99000000Y-72500000D01*
X160000000Y-72500000D02*
X160000000Y-85000000D01*
X75000000Y-85000000D02*
X75000000Y-72500000D01*
X75000000Y-85000000D02*
X160000000Y-85000000D01*
D12*
X158000000Y-80000000D03*
D13*
X117500000Y-74500000D03*
X77000000Y-80000000D03*
D14*
X149000000Y-74500000D03*
X85500000Y-82500000D03*
D15*
X88500000Y-79750000D03*
X88500000Y-76250000D03*
X94500000Y-76250000D03*
X94500000Y-79750000D03*
X140500000Y-79750000D03*
X140500000Y-76250000D03*
X146500000Y-76250000D03*
X146500000Y-79750000D03*
D16*
X79000000Y-74000000D03*
X158500000Y-75000000D03*
M02*
