<?xml version="1.0" ?><svg height="24px" version="1.1" viewBox="0 0 24 24" width="24px" xmlns="http://www.w3.org/2000/svg"><title/><desc/><defs/><g fill="none" fill-rule="evenodd" stroke="none" stroke-width="1"><g transform="translate(-287.000000, -659.000000)"><g id="slice" transform="translate(215.000000, 119.000000)"/><path d="M299,682 C305.075133,682 310,677.075133 310,671 C310,664.924867 305.075133,660 299,660 C292.924867,660 288,664.924867 288,671 C288,677.075133 292.924867,682 299,682 Z M299,681 C304.522848,681 309,676.522848 309,671 C309,665.477152 304.522848,661 299,661 C293.477152,661 289,665.477152 289,671 C289,676.522848 293.477152,681 299,681 Z M297.336149,677.348581 L297.336149,670.999619 L296.045873,670.999619 L296.045873,668.895097 L297.336149,668.895097 L297.336149,667.622408 C297.336149,665.905769 297.849398,664.667894 299.728971,664.667894 L301.964998,664.667894 L301.964998,666.768095 L300.390493,666.768095 C299.602028,666.768095 299.422354,667.292038 299.422354,667.840712 L299.422354,668.895097 L301.848788,668.895097 L301.517597,670.999619 L299.422354,670.999619 L299.422354,677.348581 L297.336149,677.348581 Z" fill="#000000"/></g></g></svg>
