<?xml version="1.0" ?><svg height="24px" version="1.1" viewBox="0 0 24 24" width="24px" xmlns="http://www.w3.org/2000/svg"><title/><desc/><defs/><g fill="none" fill-rule="evenodd" stroke="none" stroke-width="1"><g transform="translate(-215.000000, -659.000000)"><g id="slice" transform="translate(215.000000, 119.000000)"/><path d="M227,682 C233.075133,682 238,677.075133 238,671 C238,664.924867 233.075133,660 227,660 C220.924867,660 216,664.924867 216,671 C216,677.075133 220.924867,682 227,682 Z M227,681 C232.522848,681 237,676.522848 237,671 C237,665.477152 232.522848,661 227,661 C221.477152,661 217,665.477152 217,671 C217,676.522848 221.477152,681 227,681 Z M231.052451,666.760121 C230.609168,666.256141 229.977531,665.935037 229.278489,665.923401 C227.93632,665.901061 226.848073,667.035205 226.848073,668.456476 C226.848073,668.658188 226.869574,668.854888 226.911035,669.043713 C224.891148,668.912696 223.100305,667.860883 221.901652,666.275398 C221.692449,666.655316 221.572566,667.099357 221.572566,667.575022 C221.572566,668.475496 222.001634,669.27466 222.653765,669.74652 C222.255378,669.728932 221.880625,669.608331 221.552961,669.410482 C221.552724,669.421296 221.552724,669.432113 221.552724,669.44312 C221.552724,670.700635 222.390484,671.755593 223.502305,672.001344 C223.298373,672.059131 223.083662,672.089373 222.86202,672.087903 C222.705414,672.086864 222.553132,672.069498 222.404758,672.038315 C222.714002,673.069605 223.611526,673.822148 224.675074,673.84703 C223.843296,674.537489 222.795385,674.948704 221.656674,674.946355 C221.460502,674.945951 221.267054,674.933274 221.076923,674.908887 C222.152495,675.646882 223.429984,676.076563 224.802479,676.076923 C229.272803,676.078096 231.717435,672.187821 231.717435,668.813482 C231.717435,668.702773 231.715006,668.592657 231.710386,668.483072 C232.185239,668.129244 232.597248,667.685623 232.923077,667.179047 C232.487257,667.375506 232.018801,667.505985 231.527245,667.560717 C232.028988,667.251921 232.414403,666.757702 232.595827,666.165045 C232.126186,666.449847 231.606081,666.654088 231.052451,666.760121 Z" fill="#000000"/></g></g></svg>
