<?xml version="1.0" ?>
<!DOCTYPE svg>
<svg enable-background="new 0 0 64 64" height="64px" id="Layer_1" version="1.1" viewBox="0 0 64 64" width="64px" xml:space="preserve" xmlns="http://www.w3.org/2000/svg" xmlns:xlink="http://www.w3.org/1999/xlink">

<path d="M4.55,32c0,10.864,6.312,20.255,15.471,24.704L6.926,20.828C5.402,24.242,4.55,28.019,4.55,32z M50.532,30.615  c0-3.395-1.22-5.743-2.263-7.571c-1.394-2.261-2.697-4.174-2.697-6.438c0-2.521,1.912-4.871,4.611-4.871  c0.119,0,0.233,0.015,0.354,0.021c-4.885-4.474-11.389-7.204-18.538-7.204c-9.591,0-18.025,4.918-22.937,12.371  c0.646,0.02,1.252,0.033,1.77,0.033c2.869,0,7.314-0.351,7.314-0.351c1.479-0.086,1.656,2.089,0.176,2.265  c0,0-1.487,0.173-3.143,0.261l9.998,29.733l6.007-18.017L26.909,19.13c-1.479-0.088-2.879-0.261-2.879-0.261  c-1.481-0.089-1.308-2.351,0.174-2.265c0,0,4.532,0.351,7.229,0.351c2.872,0,7.316-0.351,7.316-0.351  c1.479-0.086,1.655,2.089,0.176,2.265c0,0-1.489,0.173-3.141,0.261l9.92,29.508l2.739-9.147  C49.832,35.921,50.532,32.966,50.532,30.615z M32.482,34.398l-8.237,23.935c2.46,0.726,5.061,1.118,7.754,1.118  c3.196,0,6.263-0.553,9.116-1.555c-0.073-0.117-0.141-0.241-0.195-0.381L32.482,34.398z M56.089,18.83  c0.116,0.875,0.185,1.812,0.185,2.823c0,2.786-0.521,5.917-2.088,9.832l-8.385,24.242c8.163-4.759,13.65-13.601,13.65-23.728  C59.451,27.226,58.23,22.741,56.089,18.83z M0,32c0,17.646,14.356,32,31.999,32C49.643,64,64,49.646,64,32  C64,14.355,49.643,0,31.999,0C14.356,0,0,14.355,0,32z M1.468,32c0-16.834,13.697-30.529,30.531-30.529  c16.837,0,30.534,13.695,30.534,30.529c0,16.835-13.697,30.533-30.534,30.533C15.165,62.533,1.468,48.835,1.468,32z"/>
</svg>