G04 #@! TF.FileFunction,Legend,Top*
%FSLAX46Y46*%
G04 Gerber Fmt 4.6, Leading zero omitted, Abs format (unit mm)*
G04 Created by KiCad (PCBNEW 4.1.0-alpha+201608171232+7063~46~ubuntu14.04.1-product) date Tue Aug 30 11:53:26 2016*
%MOMM*%
%LPD*%
G01*
G04 APERTURE LIST*
%ADD10C,0.600000*%
%ADD11C,0.250000*%
%ADD12C,0.300000*%
%ADD13C,0.275000*%
%ADD14C,0.150000*%
%ADD15C,0.254000*%
G04 APERTURE END LIST*
D10*
D11*
X98433333Y-78552380D02*
X98100000Y-78076190D01*
X97861904Y-78552380D02*
X97861904Y-77552380D01*
X98242857Y-77552380D01*
X98338095Y-77600000D01*
X98385714Y-77647619D01*
X98433333Y-77742857D01*
X98433333Y-77885714D01*
X98385714Y-77980952D01*
X98338095Y-78028571D01*
X98242857Y-78076190D01*
X97861904Y-78076190D01*
X99242857Y-78504761D02*
X99147619Y-78552380D01*
X98957142Y-78552380D01*
X98861904Y-78504761D01*
X98814285Y-78409523D01*
X98814285Y-78028571D01*
X98861904Y-77933333D01*
X98957142Y-77885714D01*
X99147619Y-77885714D01*
X99242857Y-77933333D01*
X99290476Y-78028571D01*
X99290476Y-78123809D01*
X98814285Y-78219047D01*
X99623809Y-77885714D02*
X99861904Y-78552380D01*
X100100000Y-77885714D01*
X100480952Y-78457142D02*
X100528571Y-78504761D01*
X100480952Y-78552380D01*
X100433333Y-78504761D01*
X100480952Y-78457142D01*
X100480952Y-78552380D01*
X100909523Y-78266666D02*
X101385714Y-78266666D01*
X100814285Y-78552380D02*
X101147619Y-77552380D01*
X101480952Y-78552380D01*
D12*
X100750000Y-71378571D02*
X101607142Y-71378571D01*
X101178571Y-72878571D02*
X101178571Y-71378571D01*
X102107142Y-72092857D02*
X102607142Y-72092857D01*
X102821428Y-72878571D02*
X102107142Y-72878571D01*
X102107142Y-71378571D01*
X102821428Y-71378571D01*
X104321428Y-72878571D02*
X103821428Y-72164285D01*
X103464285Y-72878571D02*
X103464285Y-71378571D01*
X104035714Y-71378571D01*
X104178571Y-71450000D01*
X104250000Y-71521428D01*
X104321428Y-71664285D01*
X104321428Y-71878571D01*
X104250000Y-72021428D01*
X104178571Y-72092857D01*
X104035714Y-72164285D01*
X103464285Y-72164285D01*
X104964285Y-72092857D02*
X105464285Y-72092857D01*
X105678571Y-72878571D02*
X104964285Y-72878571D01*
X104964285Y-71378571D01*
X105678571Y-71378571D01*
X106250000Y-72807142D02*
X106464285Y-72878571D01*
X106821428Y-72878571D01*
X106964285Y-72807142D01*
X107035714Y-72735714D01*
X107107142Y-72592857D01*
X107107142Y-72450000D01*
X107035714Y-72307142D01*
X106964285Y-72235714D01*
X106821428Y-72164285D01*
X106535714Y-72092857D01*
X106392857Y-72021428D01*
X106321428Y-71950000D01*
X106250000Y-71807142D01*
X106250000Y-71664285D01*
X106321428Y-71521428D01*
X106392857Y-71450000D01*
X106535714Y-71378571D01*
X106892857Y-71378571D01*
X107107142Y-71450000D01*
D13*
X96952380Y-75397619D02*
X96952380Y-74297619D01*
X97371428Y-74297619D01*
X97476190Y-74350000D01*
X97528571Y-74402380D01*
X97580952Y-74507142D01*
X97580952Y-74664285D01*
X97528571Y-74769047D01*
X97476190Y-74821428D01*
X97371428Y-74873809D01*
X96952380Y-74873809D01*
X98680952Y-75292857D02*
X98628571Y-75345238D01*
X98471428Y-75397619D01*
X98366666Y-75397619D01*
X98209523Y-75345238D01*
X98104761Y-75240476D01*
X98052380Y-75135714D01*
X98000000Y-74926190D01*
X98000000Y-74769047D01*
X98052380Y-74559523D01*
X98104761Y-74454761D01*
X98209523Y-74350000D01*
X98366666Y-74297619D01*
X98471428Y-74297619D01*
X98628571Y-74350000D01*
X98680952Y-74402380D01*
X99519047Y-74821428D02*
X99676190Y-74873809D01*
X99728571Y-74926190D01*
X99780952Y-75030952D01*
X99780952Y-75188095D01*
X99728571Y-75292857D01*
X99676190Y-75345238D01*
X99571428Y-75397619D01*
X99152380Y-75397619D01*
X99152380Y-74297619D01*
X99519047Y-74297619D01*
X99623809Y-74350000D01*
X99676190Y-74402380D01*
X99728571Y-74507142D01*
X99728571Y-74611904D01*
X99676190Y-74716666D01*
X99623809Y-74769047D01*
X99519047Y-74821428D01*
X99152380Y-74821428D01*
X100723809Y-74664285D02*
X100723809Y-75397619D01*
X100461904Y-74245238D02*
X100200000Y-75030952D01*
X100880952Y-75030952D01*
X101300000Y-74978571D02*
X102138095Y-74978571D01*
X102661904Y-75397619D02*
X102661904Y-74297619D01*
X103080952Y-74297619D01*
X103185714Y-74350000D01*
X103238095Y-74402380D01*
X103290476Y-74507142D01*
X103290476Y-74664285D01*
X103238095Y-74769047D01*
X103185714Y-74821428D01*
X103080952Y-74873809D01*
X102661904Y-74873809D01*
X103657142Y-74297619D02*
X103919047Y-75397619D01*
X104128571Y-74611904D01*
X104338095Y-75397619D01*
X104600000Y-74297619D01*
X105647619Y-75397619D02*
X105280952Y-74873809D01*
X105019047Y-75397619D02*
X105019047Y-74297619D01*
X105438095Y-74297619D01*
X105542857Y-74350000D01*
X105595238Y-74402380D01*
X105647619Y-74507142D01*
X105647619Y-74664285D01*
X105595238Y-74769047D01*
X105542857Y-74821428D01*
X105438095Y-74873809D01*
X105019047Y-74873809D01*
X106119047Y-74978571D02*
X106957142Y-74978571D01*
X107847619Y-74821428D02*
X108004761Y-74873809D01*
X108057142Y-74926190D01*
X108109523Y-75030952D01*
X108109523Y-75188095D01*
X108057142Y-75292857D01*
X108004761Y-75345238D01*
X107900000Y-75397619D01*
X107480952Y-75397619D01*
X107480952Y-74297619D01*
X107847619Y-74297619D01*
X107952380Y-74350000D01*
X108004761Y-74402380D01*
X108057142Y-74507142D01*
X108057142Y-74611904D01*
X108004761Y-74716666D01*
X107952380Y-74769047D01*
X107847619Y-74821428D01*
X107480952Y-74821428D01*
X108423809Y-74297619D02*
X109052380Y-74297619D01*
X108738095Y-75397619D02*
X108738095Y-74297619D01*
X109419047Y-75397619D02*
X109419047Y-74297619D01*
X110047619Y-75397619D01*
X110047619Y-74297619D01*
D14*
X90000000Y-70000000D02*
X90000000Y-80000000D01*
X126000000Y-70000000D02*
X90000000Y-70000000D01*
X126000000Y-80000000D02*
X126000000Y-70000000D01*
X90000000Y-80000000D02*
X126000000Y-80000000D01*
D15*
X116595500Y-79000500D02*
X116341500Y-79000500D01*
X116595500Y-70999500D02*
X116341500Y-70999500D01*
X116595500Y-79000500D02*
X116595500Y-70999500D01*
D14*
D15*
X118249523Y-75937380D02*
X116979523Y-75937380D01*
X116979523Y-75453571D01*
X117040000Y-75332619D01*
X117100476Y-75272142D01*
X117221428Y-75211666D01*
X117402857Y-75211666D01*
X117523809Y-75272142D01*
X117584285Y-75332619D01*
X117644761Y-75453571D01*
X117644761Y-75937380D01*
X118249523Y-74002142D02*
X118249523Y-74727857D01*
X118249523Y-74365000D02*
X116979523Y-74365000D01*
X117160952Y-74485952D01*
X117281904Y-74606904D01*
X117342380Y-74727857D01*
M02*
