G04 #@! TF.FileFunction,Legend,Bot*
%FSLAX46Y46*%
G04 Gerber Fmt 4.6, Leading zero omitted, Abs format (unit mm)*
G04 Created by KiCad (PCBNEW 4.1.0-alpha+201608171232+7063~46~ubuntu14.04.1-product) date Tue Aug 30 11:53:26 2016*
%MOMM*%
%LPD*%
G01*
G04 APERTURE LIST*
%ADD10C,0.600000*%
%ADD11C,0.254000*%
%ADD12C,0.150000*%
%ADD13C,0.100000*%
%ADD14C,0.381000*%
G04 APERTURE END LIST*
D10*
D11*
X118989928Y-74252666D02*
X119038309Y-74204285D01*
X119135071Y-74059142D01*
X119183452Y-73962380D01*
X119231833Y-73817238D01*
X119280214Y-73575333D01*
X119280214Y-73381809D01*
X119231833Y-73139904D01*
X119183452Y-72994761D01*
X119135071Y-72898000D01*
X119038309Y-72752857D01*
X118989928Y-72704476D01*
X118022309Y-73768857D02*
X118070690Y-73817238D01*
X118215833Y-73865619D01*
X118312595Y-73865619D01*
X118457738Y-73817238D01*
X118554500Y-73720476D01*
X118602880Y-73623714D01*
X118651261Y-73430190D01*
X118651261Y-73285047D01*
X118602880Y-73091523D01*
X118554500Y-72994761D01*
X118457738Y-72898000D01*
X118312595Y-72849619D01*
X118215833Y-72849619D01*
X118070690Y-72898000D01*
X118022309Y-72946380D01*
X117683642Y-74252666D02*
X117635261Y-74204285D01*
X117538500Y-74059142D01*
X117490119Y-73962380D01*
X117441738Y-73817238D01*
X117393357Y-73575333D01*
X117393357Y-73381809D01*
X117441738Y-73139904D01*
X117490119Y-72994761D01*
X117538500Y-72898000D01*
X117635261Y-72752857D01*
X117683642Y-72704476D01*
X116183833Y-72946380D02*
X116135452Y-72898000D01*
X116038690Y-72849619D01*
X115796785Y-72849619D01*
X115700023Y-72898000D01*
X115651642Y-72946380D01*
X115603261Y-73043142D01*
X115603261Y-73139904D01*
X115651642Y-73285047D01*
X116232214Y-73865619D01*
X115603261Y-73865619D01*
X114974309Y-72849619D02*
X114877547Y-72849619D01*
X114780785Y-72898000D01*
X114732404Y-72946380D01*
X114684023Y-73043142D01*
X114635642Y-73236666D01*
X114635642Y-73478571D01*
X114684023Y-73672095D01*
X114732404Y-73768857D01*
X114780785Y-73817238D01*
X114877547Y-73865619D01*
X114974309Y-73865619D01*
X115071071Y-73817238D01*
X115119452Y-73768857D01*
X115167833Y-73672095D01*
X115216214Y-73478571D01*
X115216214Y-73236666D01*
X115167833Y-73043142D01*
X115119452Y-72946380D01*
X115071071Y-72898000D01*
X114974309Y-72849619D01*
X113668023Y-73865619D02*
X114248595Y-73865619D01*
X113958309Y-73865619D02*
X113958309Y-72849619D01*
X114055071Y-72994761D01*
X114151833Y-73091523D01*
X114248595Y-73139904D01*
X112797166Y-72849619D02*
X112990690Y-72849619D01*
X113087452Y-72898000D01*
X113135833Y-72946380D01*
X113232595Y-73091523D01*
X113280976Y-73285047D01*
X113280976Y-73672095D01*
X113232595Y-73768857D01*
X113184214Y-73817238D01*
X113087452Y-73865619D01*
X112893928Y-73865619D01*
X112797166Y-73817238D01*
X112748785Y-73768857D01*
X112700404Y-73672095D01*
X112700404Y-73430190D01*
X112748785Y-73333428D01*
X112797166Y-73285047D01*
X112893928Y-73236666D01*
X113087452Y-73236666D01*
X113184214Y-73285047D01*
X113232595Y-73333428D01*
X113280976Y-73430190D01*
X119292309Y-71643119D02*
X119292309Y-70627119D01*
X118856880Y-71643119D02*
X118856880Y-71110928D01*
X118905261Y-71014166D01*
X119002023Y-70965785D01*
X119147166Y-70965785D01*
X119243928Y-71014166D01*
X119292309Y-71062547D01*
X118518214Y-70965785D02*
X118131166Y-70965785D01*
X118373071Y-70627119D02*
X118373071Y-71497976D01*
X118324690Y-71594738D01*
X118227928Y-71643119D01*
X118131166Y-71643119D01*
X117937642Y-70965785D02*
X117550595Y-70965785D01*
X117792500Y-70627119D02*
X117792500Y-71497976D01*
X117744119Y-71594738D01*
X117647357Y-71643119D01*
X117550595Y-71643119D01*
X117211928Y-70965785D02*
X117211928Y-71981785D01*
X117211928Y-71014166D02*
X117115166Y-70965785D01*
X116921642Y-70965785D01*
X116824880Y-71014166D01*
X116776500Y-71062547D01*
X116728119Y-71159309D01*
X116728119Y-71449595D01*
X116776500Y-71546357D01*
X116824880Y-71594738D01*
X116921642Y-71643119D01*
X117115166Y-71643119D01*
X117211928Y-71594738D01*
X116341071Y-71594738D02*
X116244309Y-71643119D01*
X116050785Y-71643119D01*
X115954023Y-71594738D01*
X115905642Y-71497976D01*
X115905642Y-71449595D01*
X115954023Y-71352833D01*
X116050785Y-71304452D01*
X116195928Y-71304452D01*
X116292690Y-71256071D01*
X116341071Y-71159309D01*
X116341071Y-71110928D01*
X116292690Y-71014166D01*
X116195928Y-70965785D01*
X116050785Y-70965785D01*
X115954023Y-71014166D01*
X115470214Y-71546357D02*
X115421833Y-71594738D01*
X115470214Y-71643119D01*
X115518595Y-71594738D01*
X115470214Y-71546357D01*
X115470214Y-71643119D01*
X115470214Y-71014166D02*
X115421833Y-71062547D01*
X115470214Y-71110928D01*
X115518595Y-71062547D01*
X115470214Y-71014166D01*
X115470214Y-71110928D01*
X114260690Y-70578738D02*
X115131547Y-71885023D01*
X113196309Y-70578738D02*
X114067166Y-71885023D01*
X112954404Y-70965785D02*
X112760880Y-71643119D01*
X112567357Y-71159309D01*
X112373833Y-71643119D01*
X112180309Y-70965785D01*
X111890023Y-70965785D02*
X111696500Y-71643119D01*
X111502976Y-71159309D01*
X111309452Y-71643119D01*
X111115928Y-70965785D01*
X110825642Y-70965785D02*
X110632119Y-71643119D01*
X110438595Y-71159309D01*
X110245071Y-71643119D01*
X110051547Y-70965785D01*
X109664500Y-71546357D02*
X109616119Y-71594738D01*
X109664500Y-71643119D01*
X109712880Y-71594738D01*
X109664500Y-71546357D01*
X109664500Y-71643119D01*
X109035547Y-71643119D02*
X109132309Y-71594738D01*
X109180690Y-71546357D01*
X109229071Y-71449595D01*
X109229071Y-71159309D01*
X109180690Y-71062547D01*
X109132309Y-71014166D01*
X109035547Y-70965785D01*
X108890404Y-70965785D01*
X108793642Y-71014166D01*
X108745261Y-71062547D01*
X108696880Y-71159309D01*
X108696880Y-71449595D01*
X108745261Y-71546357D01*
X108793642Y-71594738D01*
X108890404Y-71643119D01*
X109035547Y-71643119D01*
X108116309Y-71643119D02*
X108213071Y-71594738D01*
X108261452Y-71497976D01*
X108261452Y-70627119D01*
X107729261Y-71643119D02*
X107729261Y-70965785D01*
X107729261Y-70627119D02*
X107777642Y-70675500D01*
X107729261Y-70723880D01*
X107680880Y-70675500D01*
X107729261Y-70627119D01*
X107729261Y-70723880D01*
X107245452Y-71643119D02*
X107245452Y-70965785D01*
X107245452Y-71062547D02*
X107197071Y-71014166D01*
X107100309Y-70965785D01*
X106955166Y-70965785D01*
X106858404Y-71014166D01*
X106810023Y-71110928D01*
X106810023Y-71643119D01*
X106810023Y-71110928D02*
X106761642Y-71014166D01*
X106664880Y-70965785D01*
X106519738Y-70965785D01*
X106422976Y-71014166D01*
X106374595Y-71110928D01*
X106374595Y-71643119D01*
X105503738Y-71594738D02*
X105600500Y-71643119D01*
X105794023Y-71643119D01*
X105890785Y-71594738D01*
X105939166Y-71497976D01*
X105939166Y-71110928D01*
X105890785Y-71014166D01*
X105794023Y-70965785D01*
X105600500Y-70965785D01*
X105503738Y-71014166D01*
X105455357Y-71110928D01*
X105455357Y-71207690D01*
X105939166Y-71304452D01*
X105116690Y-71643119D02*
X104584500Y-70965785D01*
X105116690Y-70965785D02*
X104584500Y-71643119D01*
X104197452Y-71546357D02*
X104149071Y-71594738D01*
X104197452Y-71643119D01*
X104245833Y-71594738D01*
X104197452Y-71546357D01*
X104197452Y-71643119D01*
X103278214Y-71594738D02*
X103374976Y-71643119D01*
X103568500Y-71643119D01*
X103665261Y-71594738D01*
X103713642Y-71546357D01*
X103762023Y-71449595D01*
X103762023Y-71159309D01*
X103713642Y-71062547D01*
X103665261Y-71014166D01*
X103568500Y-70965785D01*
X103374976Y-70965785D01*
X103278214Y-71014166D01*
X102697642Y-71643119D02*
X102794404Y-71594738D01*
X102842785Y-71546357D01*
X102891166Y-71449595D01*
X102891166Y-71159309D01*
X102842785Y-71062547D01*
X102794404Y-71014166D01*
X102697642Y-70965785D01*
X102552500Y-70965785D01*
X102455738Y-71014166D01*
X102407357Y-71062547D01*
X102358976Y-71159309D01*
X102358976Y-71449595D01*
X102407357Y-71546357D01*
X102455738Y-71594738D01*
X102552500Y-71643119D01*
X102697642Y-71643119D01*
X101923547Y-71643119D02*
X101923547Y-70965785D01*
X101923547Y-71062547D02*
X101875166Y-71014166D01*
X101778404Y-70965785D01*
X101633261Y-70965785D01*
X101536500Y-71014166D01*
X101488119Y-71110928D01*
X101488119Y-71643119D01*
X101488119Y-71110928D02*
X101439738Y-71014166D01*
X101342976Y-70965785D01*
X101197833Y-70965785D01*
X101101071Y-71014166D01*
X101052690Y-71110928D01*
X101052690Y-71643119D01*
D12*
X90000000Y-70000000D02*
X90000000Y-80000000D01*
X126000000Y-70000000D02*
X90000000Y-70000000D01*
X126000000Y-80000000D02*
X126000000Y-70000000D01*
X90000000Y-80000000D02*
X126000000Y-80000000D01*
D13*
X109250000Y-77500000D02*
X110000000Y-76750000D01*
X110500000Y-75000000D02*
X110500000Y-74000000D01*
X109250000Y-72500000D02*
X110000000Y-73250000D01*
X106750000Y-72500000D02*
X109250000Y-72500000D01*
X106750000Y-72500000D02*
X106000000Y-73250000D01*
X105500000Y-76000000D02*
X105500000Y-74000000D01*
X106750000Y-77500000D02*
X106000000Y-76750000D01*
X109250000Y-77500000D02*
X106750000Y-77500000D01*
X110500000Y-75000000D02*
X110500000Y-76000000D01*
D14*
X110257166Y-79523166D02*
X110003166Y-79607833D01*
X109579833Y-79607833D01*
X109410500Y-79523166D01*
X109325833Y-79438500D01*
X109241166Y-79269166D01*
X109241166Y-79099833D01*
X109325833Y-78930500D01*
X109410500Y-78845833D01*
X109579833Y-78761166D01*
X109918500Y-78676500D01*
X110087833Y-78591833D01*
X110172500Y-78507166D01*
X110257166Y-78337833D01*
X110257166Y-78168500D01*
X110172500Y-77999166D01*
X110087833Y-77914500D01*
X109918500Y-77829833D01*
X109495166Y-77829833D01*
X109241166Y-77914500D01*
X108648500Y-77829833D02*
X108225166Y-79607833D01*
X107886500Y-78337833D01*
X107547833Y-79607833D01*
X107124500Y-77829833D01*
X105515833Y-79607833D02*
X106531833Y-79607833D01*
X106023833Y-79607833D02*
X106023833Y-77829833D01*
X106193166Y-78083833D01*
X106362500Y-78253166D01*
X106531833Y-78337833D01*
D12*
M02*
