G04 #@! TF.FileFunction,Legend,Top*
%FSLAX46Y46*%
G04 Gerber Fmt 4.6, Leading zero omitted, Abs format (unit mm)*
G04 Created by KiCad (PCBNEW no-vcs-found-undefined) date Tue Nov  8 14:50:56 2016*
%MOMM*%
%LPD*%
G01*
G04 APERTURE LIST*
%ADD10C,0.600000*%
%ADD11C,0.222250*%
%ADD12C,0.300000*%
%ADD13C,0.150000*%
%ADD14C,0.254000*%
%ADD15C,0.127000*%
%ADD16C,0.012700*%
%ADD17C,0.062500*%
%ADD18C,0.010000*%
%ADD19C,0.200000*%
%ADD20C,0.050000*%
%ADD21C,0.250000*%
G04 APERTURE END LIST*
D10*
D11*
X117496166Y-139742333D02*
X116607166Y-139742333D01*
X117496166Y-139361333D02*
X117030500Y-139361333D01*
X116945833Y-139403666D01*
X116903500Y-139488333D01*
X116903500Y-139615333D01*
X116945833Y-139700000D01*
X116988166Y-139742333D01*
X116903500Y-139065000D02*
X116903500Y-138726333D01*
X116607166Y-138938000D02*
X117369166Y-138938000D01*
X117453833Y-138895666D01*
X117496166Y-138811000D01*
X117496166Y-138726333D01*
X116903500Y-138557000D02*
X116903500Y-138218333D01*
X116607166Y-138430000D02*
X117369166Y-138430000D01*
X117453833Y-138387666D01*
X117496166Y-138303000D01*
X117496166Y-138218333D01*
X116903500Y-137922000D02*
X117792500Y-137922000D01*
X116945833Y-137922000D02*
X116903500Y-137837333D01*
X116903500Y-137668000D01*
X116945833Y-137583333D01*
X116988166Y-137541000D01*
X117072833Y-137498666D01*
X117326833Y-137498666D01*
X117411500Y-137541000D01*
X117453833Y-137583333D01*
X117496166Y-137668000D01*
X117496166Y-137837333D01*
X117453833Y-137922000D01*
X117453833Y-137160000D02*
X117496166Y-137075333D01*
X117496166Y-136906000D01*
X117453833Y-136821333D01*
X117369166Y-136779000D01*
X117326833Y-136779000D01*
X117242166Y-136821333D01*
X117199833Y-136906000D01*
X117199833Y-137033000D01*
X117157500Y-137117666D01*
X117072833Y-137160000D01*
X117030500Y-137160000D01*
X116945833Y-137117666D01*
X116903500Y-137033000D01*
X116903500Y-136906000D01*
X116945833Y-136821333D01*
X117411500Y-136398000D02*
X117453833Y-136355666D01*
X117496166Y-136398000D01*
X117453833Y-136440333D01*
X117411500Y-136398000D01*
X117496166Y-136398000D01*
X116945833Y-136398000D02*
X116988166Y-136355666D01*
X117030500Y-136398000D01*
X116988166Y-136440333D01*
X116945833Y-136398000D01*
X117030500Y-136398000D01*
X116564833Y-135339666D02*
X117707833Y-136101666D01*
X116564833Y-134408333D02*
X117707833Y-135170333D01*
X116903500Y-134196666D02*
X117496166Y-134027333D01*
X117072833Y-133858000D01*
X117496166Y-133688666D01*
X116903500Y-133519333D01*
X116903500Y-133265333D02*
X117496166Y-133096000D01*
X117072833Y-132926666D01*
X117496166Y-132757333D01*
X116903500Y-132588000D01*
X116903500Y-132334000D02*
X117496166Y-132164666D01*
X117072833Y-131995333D01*
X117496166Y-131826000D01*
X116903500Y-131656666D01*
X117411500Y-131318000D02*
X117453833Y-131275666D01*
X117496166Y-131318000D01*
X117453833Y-131360333D01*
X117411500Y-131318000D01*
X117496166Y-131318000D01*
X117496166Y-130767666D02*
X117453833Y-130852333D01*
X117411500Y-130894666D01*
X117326833Y-130937000D01*
X117072833Y-130937000D01*
X116988166Y-130894666D01*
X116945833Y-130852333D01*
X116903500Y-130767666D01*
X116903500Y-130640666D01*
X116945833Y-130556000D01*
X116988166Y-130513666D01*
X117072833Y-130471333D01*
X117326833Y-130471333D01*
X117411500Y-130513666D01*
X117453833Y-130556000D01*
X117496166Y-130640666D01*
X117496166Y-130767666D01*
X117496166Y-129963333D02*
X117453833Y-130048000D01*
X117369166Y-130090333D01*
X116607166Y-130090333D01*
X117496166Y-129624666D02*
X116903500Y-129624666D01*
X116607166Y-129624666D02*
X116649500Y-129667000D01*
X116691833Y-129624666D01*
X116649500Y-129582333D01*
X116607166Y-129624666D01*
X116691833Y-129624666D01*
X117496166Y-129201333D02*
X116903500Y-129201333D01*
X116988166Y-129201333D02*
X116945833Y-129159000D01*
X116903500Y-129074333D01*
X116903500Y-128947333D01*
X116945833Y-128862666D01*
X117030500Y-128820333D01*
X117496166Y-128820333D01*
X117030500Y-128820333D02*
X116945833Y-128778000D01*
X116903500Y-128693333D01*
X116903500Y-128566333D01*
X116945833Y-128481666D01*
X117030500Y-128439333D01*
X117496166Y-128439333D01*
X117453833Y-127677333D02*
X117496166Y-127762000D01*
X117496166Y-127931333D01*
X117453833Y-128016000D01*
X117369166Y-128058333D01*
X117030500Y-128058333D01*
X116945833Y-128016000D01*
X116903500Y-127931333D01*
X116903500Y-127762000D01*
X116945833Y-127677333D01*
X117030500Y-127635000D01*
X117115166Y-127635000D01*
X117199833Y-128058333D01*
X117496166Y-127338666D02*
X116903500Y-126873000D01*
X116903500Y-127338666D02*
X117496166Y-126873000D01*
X117411500Y-126534333D02*
X117453833Y-126492000D01*
X117496166Y-126534333D01*
X117453833Y-126576666D01*
X117411500Y-126534333D01*
X117496166Y-126534333D01*
X117453833Y-125730000D02*
X117496166Y-125814666D01*
X117496166Y-125984000D01*
X117453833Y-126068666D01*
X117411500Y-126111000D01*
X117326833Y-126153333D01*
X117072833Y-126153333D01*
X116988166Y-126111000D01*
X116945833Y-126068666D01*
X116903500Y-125984000D01*
X116903500Y-125814666D01*
X116945833Y-125730000D01*
X117496166Y-125222000D02*
X117453833Y-125306666D01*
X117411500Y-125349000D01*
X117326833Y-125391333D01*
X117072833Y-125391333D01*
X116988166Y-125349000D01*
X116945833Y-125306666D01*
X116903500Y-125222000D01*
X116903500Y-125095000D01*
X116945833Y-125010333D01*
X116988166Y-124968000D01*
X117072833Y-124925666D01*
X117326833Y-124925666D01*
X117411500Y-124968000D01*
X117453833Y-125010333D01*
X117496166Y-125095000D01*
X117496166Y-125222000D01*
X117496166Y-124544666D02*
X116903500Y-124544666D01*
X116988166Y-124544666D02*
X116945833Y-124502333D01*
X116903500Y-124417666D01*
X116903500Y-124290666D01*
X116945833Y-124206000D01*
X117030500Y-124163666D01*
X117496166Y-124163666D01*
X117030500Y-124163666D02*
X116945833Y-124121333D01*
X116903500Y-124036666D01*
X116903500Y-123909666D01*
X116945833Y-123825000D01*
X117030500Y-123782666D01*
X117496166Y-123782666D01*
X116120333Y-129730500D02*
X116078000Y-129772833D01*
X115951000Y-129857500D01*
X115866333Y-129899833D01*
X115739333Y-129942166D01*
X115527666Y-129984500D01*
X115358333Y-129984500D01*
X115146666Y-129942166D01*
X115019666Y-129899833D01*
X114935000Y-129857500D01*
X114808000Y-129772833D01*
X114765666Y-129730500D01*
X115697000Y-128883833D02*
X115739333Y-128926166D01*
X115781666Y-129053166D01*
X115781666Y-129137833D01*
X115739333Y-129264833D01*
X115654666Y-129349500D01*
X115570000Y-129391833D01*
X115400666Y-129434166D01*
X115273666Y-129434166D01*
X115104333Y-129391833D01*
X115019666Y-129349500D01*
X114935000Y-129264833D01*
X114892666Y-129137833D01*
X114892666Y-129053166D01*
X114935000Y-128926166D01*
X114977333Y-128883833D01*
X116120333Y-128587500D02*
X116078000Y-128545166D01*
X115951000Y-128460500D01*
X115866333Y-128418166D01*
X115739333Y-128375833D01*
X115527666Y-128333500D01*
X115358333Y-128333500D01*
X115146666Y-128375833D01*
X115019666Y-128418166D01*
X114935000Y-128460500D01*
X114808000Y-128545166D01*
X114765666Y-128587500D01*
X114977333Y-127275166D02*
X114935000Y-127232833D01*
X114892666Y-127148166D01*
X114892666Y-126936500D01*
X114935000Y-126851833D01*
X114977333Y-126809500D01*
X115062000Y-126767166D01*
X115146666Y-126767166D01*
X115273666Y-126809500D01*
X115781666Y-127317500D01*
X115781666Y-126767166D01*
X114892666Y-126216833D02*
X114892666Y-126132166D01*
X114935000Y-126047500D01*
X114977333Y-126005166D01*
X115062000Y-125962833D01*
X115231333Y-125920500D01*
X115443000Y-125920500D01*
X115612333Y-125962833D01*
X115697000Y-126005166D01*
X115739333Y-126047500D01*
X115781666Y-126132166D01*
X115781666Y-126216833D01*
X115739333Y-126301500D01*
X115697000Y-126343833D01*
X115612333Y-126386166D01*
X115443000Y-126428500D01*
X115231333Y-126428500D01*
X115062000Y-126386166D01*
X114977333Y-126343833D01*
X114935000Y-126301500D01*
X114892666Y-126216833D01*
X115781666Y-125073833D02*
X115781666Y-125581833D01*
X115781666Y-125327833D02*
X114892666Y-125327833D01*
X115019666Y-125412500D01*
X115104333Y-125497166D01*
X115146666Y-125581833D01*
X114892666Y-124311833D02*
X114892666Y-124481166D01*
X114935000Y-124565833D01*
X114977333Y-124608166D01*
X115104333Y-124692833D01*
X115273666Y-124735166D01*
X115612333Y-124735166D01*
X115697000Y-124692833D01*
X115739333Y-124650500D01*
X115781666Y-124565833D01*
X115781666Y-124396500D01*
X115739333Y-124311833D01*
X115697000Y-124269500D01*
X115612333Y-124227166D01*
X115400666Y-124227166D01*
X115316000Y-124269500D01*
X115273666Y-124311833D01*
X115231333Y-124396500D01*
X115231333Y-124565833D01*
X115273666Y-124650500D01*
X115316000Y-124692833D01*
X115400666Y-124735166D01*
D12*
X113296914Y-116502571D02*
X112796914Y-115788285D01*
X112439771Y-116502571D02*
X112439771Y-115002571D01*
X113011200Y-115002571D01*
X113154057Y-115074000D01*
X113225485Y-115145428D01*
X113296914Y-115288285D01*
X113296914Y-115502571D01*
X113225485Y-115645428D01*
X113154057Y-115716857D01*
X113011200Y-115788285D01*
X112439771Y-115788285D01*
X114154057Y-116502571D02*
X114011200Y-116431142D01*
X113939771Y-116359714D01*
X113868342Y-116216857D01*
X113868342Y-115788285D01*
X113939771Y-115645428D01*
X114011200Y-115574000D01*
X114154057Y-115502571D01*
X114368342Y-115502571D01*
X114511200Y-115574000D01*
X114582628Y-115645428D01*
X114654057Y-115788285D01*
X114654057Y-116216857D01*
X114582628Y-116359714D01*
X114511200Y-116431142D01*
X114368342Y-116502571D01*
X114154057Y-116502571D01*
X115296914Y-116502571D02*
X115296914Y-115002571D01*
X115296914Y-115716857D02*
X116154057Y-115716857D01*
X116154057Y-116502571D02*
X116154057Y-115002571D01*
X116796914Y-116431142D02*
X117011200Y-116502571D01*
X117368342Y-116502571D01*
X117511200Y-116431142D01*
X117582628Y-116359714D01*
X117654057Y-116216857D01*
X117654057Y-116074000D01*
X117582628Y-115931142D01*
X117511200Y-115859714D01*
X117368342Y-115788285D01*
X117082628Y-115716857D01*
X116939771Y-115645428D01*
X116868342Y-115574000D01*
X116796914Y-115431142D01*
X116796914Y-115288285D01*
X116868342Y-115145428D01*
X116939771Y-115074000D01*
X117082628Y-115002571D01*
X117439771Y-115002571D01*
X117654057Y-115074000D01*
X107206171Y-168176342D02*
X106491885Y-168676342D01*
X107206171Y-169033485D02*
X105706171Y-169033485D01*
X105706171Y-168462057D01*
X105777600Y-168319200D01*
X105849028Y-168247771D01*
X105991885Y-168176342D01*
X106206171Y-168176342D01*
X106349028Y-168247771D01*
X106420457Y-168319200D01*
X106491885Y-168462057D01*
X106491885Y-169033485D01*
X107134742Y-166962057D02*
X107206171Y-167104914D01*
X107206171Y-167390628D01*
X107134742Y-167533485D01*
X106991885Y-167604914D01*
X106420457Y-167604914D01*
X106277600Y-167533485D01*
X106206171Y-167390628D01*
X106206171Y-167104914D01*
X106277600Y-166962057D01*
X106420457Y-166890628D01*
X106563314Y-166890628D01*
X106706171Y-167604914D01*
X106206171Y-166390628D02*
X107206171Y-166033485D01*
X106206171Y-165676342D01*
X107063314Y-165104914D02*
X107134742Y-165033485D01*
X107206171Y-165104914D01*
X107134742Y-165176342D01*
X107063314Y-165104914D01*
X107206171Y-165104914D01*
X106420457Y-163890628D02*
X106491885Y-163676342D01*
X106563314Y-163604914D01*
X106706171Y-163533485D01*
X106920457Y-163533485D01*
X107063314Y-163604914D01*
X107134742Y-163676342D01*
X107206171Y-163819200D01*
X107206171Y-164390628D01*
X105706171Y-164390628D01*
X105706171Y-163890628D01*
X105777600Y-163747771D01*
X105849028Y-163676342D01*
X105991885Y-163604914D01*
X106134742Y-163604914D01*
X106277600Y-163676342D01*
X106349028Y-163747771D01*
X106420457Y-163890628D01*
X106420457Y-164390628D01*
X103642857Y-169571428D02*
X103642857Y-168885714D01*
X104842857Y-169228571D02*
X103642857Y-169228571D01*
X104214285Y-168485714D02*
X104214285Y-168085714D01*
X104842857Y-167914285D02*
X104842857Y-168485714D01*
X103642857Y-168485714D01*
X103642857Y-167914285D01*
X104842857Y-166714285D02*
X104271428Y-167114285D01*
X104842857Y-167400000D02*
X103642857Y-167400000D01*
X103642857Y-166942857D01*
X103700000Y-166828571D01*
X103757142Y-166771428D01*
X103871428Y-166714285D01*
X104042857Y-166714285D01*
X104157142Y-166771428D01*
X104214285Y-166828571D01*
X104271428Y-166942857D01*
X104271428Y-167400000D01*
X104214285Y-166200000D02*
X104214285Y-165800000D01*
X104842857Y-165628571D02*
X104842857Y-166200000D01*
X103642857Y-166200000D01*
X103642857Y-165628571D01*
X104785714Y-165171428D02*
X104842857Y-165000000D01*
X104842857Y-164714285D01*
X104785714Y-164600000D01*
X104728571Y-164542857D01*
X104614285Y-164485714D01*
X104500000Y-164485714D01*
X104385714Y-164542857D01*
X104328571Y-164600000D01*
X104271428Y-164714285D01*
X104214285Y-164942857D01*
X104157142Y-165057142D01*
X104100000Y-165114285D01*
X103985714Y-165171428D01*
X103871428Y-165171428D01*
X103757142Y-165114285D01*
X103700000Y-165057142D01*
X103642857Y-164942857D01*
X103642857Y-164657142D01*
X103700000Y-164485714D01*
X104385714Y-163971428D02*
X104385714Y-163057142D01*
X104842857Y-162485714D02*
X103642857Y-162485714D01*
X103642857Y-162028571D01*
X103700000Y-161914285D01*
X103757142Y-161857142D01*
X103871428Y-161800000D01*
X104042857Y-161800000D01*
X104157142Y-161857142D01*
X104214285Y-161914285D01*
X104271428Y-162028571D01*
X104271428Y-162485714D01*
X104728571Y-160600000D02*
X104785714Y-160657142D01*
X104842857Y-160828571D01*
X104842857Y-160942857D01*
X104785714Y-161114285D01*
X104671428Y-161228571D01*
X104557142Y-161285714D01*
X104328571Y-161342857D01*
X104157142Y-161342857D01*
X103928571Y-161285714D01*
X103814285Y-161228571D01*
X103700000Y-161114285D01*
X103642857Y-160942857D01*
X103642857Y-160828571D01*
X103700000Y-160657142D01*
X103757142Y-160600000D01*
X104214285Y-159685714D02*
X104271428Y-159514285D01*
X104328571Y-159457142D01*
X104442857Y-159400000D01*
X104614285Y-159400000D01*
X104728571Y-159457142D01*
X104785714Y-159514285D01*
X104842857Y-159628571D01*
X104842857Y-160085714D01*
X103642857Y-160085714D01*
X103642857Y-159685714D01*
X103700000Y-159571428D01*
X103757142Y-159514285D01*
X103871428Y-159457142D01*
X103985714Y-159457142D01*
X104100000Y-159514285D01*
X104157142Y-159571428D01*
X104214285Y-159685714D01*
X104214285Y-160085714D01*
X103757142Y-158942857D02*
X103700000Y-158885714D01*
X103642857Y-158771428D01*
X103642857Y-158485714D01*
X103700000Y-158371428D01*
X103757142Y-158314285D01*
X103871428Y-158257142D01*
X103985714Y-158257142D01*
X104157142Y-158314285D01*
X104842857Y-159000000D01*
X104842857Y-158257142D01*
X104385714Y-157742857D02*
X104385714Y-156828571D01*
X104842857Y-156257142D02*
X103642857Y-156257142D01*
X103642857Y-155457142D02*
X103642857Y-155228571D01*
X103700000Y-155114285D01*
X103814285Y-155000000D01*
X104042857Y-154942857D01*
X104442857Y-154942857D01*
X104671428Y-155000000D01*
X104785714Y-155114285D01*
X104842857Y-155228571D01*
X104842857Y-155457142D01*
X104785714Y-155571428D01*
X104671428Y-155685714D01*
X104442857Y-155742857D01*
X104042857Y-155742857D01*
X103814285Y-155685714D01*
X103700000Y-155571428D01*
X103642857Y-155457142D01*
X120439857Y-171041142D02*
X120582714Y-171112571D01*
X120868428Y-171112571D01*
X121011285Y-171041142D01*
X121082714Y-170898285D01*
X121082714Y-170826857D01*
X121011285Y-170684000D01*
X120868428Y-170612571D01*
X120654142Y-170612571D01*
X120511285Y-170541142D01*
X120439857Y-170398285D01*
X120439857Y-170326857D01*
X120511285Y-170184000D01*
X120654142Y-170112571D01*
X120868428Y-170112571D01*
X121011285Y-170184000D01*
X121725571Y-170112571D02*
X121725571Y-171612571D01*
X121725571Y-170184000D02*
X121868428Y-170112571D01*
X122154142Y-170112571D01*
X122297000Y-170184000D01*
X122368428Y-170255428D01*
X122439857Y-170398285D01*
X122439857Y-170826857D01*
X122368428Y-170969714D01*
X122297000Y-171041142D01*
X122154142Y-171112571D01*
X121868428Y-171112571D01*
X121725571Y-171041142D01*
X123082714Y-171112571D02*
X123082714Y-169612571D01*
X123225571Y-170541142D02*
X123654142Y-171112571D01*
X123654142Y-170112571D02*
X123082714Y-170684000D01*
X108875771Y-164821142D02*
X110018628Y-164821142D01*
X109447200Y-165392571D02*
X109447200Y-164249714D01*
X111875771Y-164821142D02*
X113018628Y-164821142D01*
X109304342Y-167942571D02*
X109304342Y-166942571D01*
X109304342Y-167085428D02*
X109375771Y-167014000D01*
X109518628Y-166942571D01*
X109732914Y-166942571D01*
X109875771Y-167014000D01*
X109947200Y-167156857D01*
X109947200Y-167942571D01*
X109947200Y-167156857D02*
X110018628Y-167014000D01*
X110161485Y-166942571D01*
X110375771Y-166942571D01*
X110518628Y-167014000D01*
X110590057Y-167156857D01*
X110590057Y-167942571D01*
X111304342Y-167942571D02*
X111304342Y-166942571D01*
X111304342Y-166442571D02*
X111232914Y-166514000D01*
X111304342Y-166585428D01*
X111375771Y-166514000D01*
X111304342Y-166442571D01*
X111304342Y-166585428D01*
X112661485Y-167871142D02*
X112518628Y-167942571D01*
X112232914Y-167942571D01*
X112090057Y-167871142D01*
X112018628Y-167799714D01*
X111947200Y-167656857D01*
X111947200Y-167228285D01*
X112018628Y-167085428D01*
X112090057Y-167014000D01*
X112232914Y-166942571D01*
X112518628Y-166942571D01*
X112661485Y-167014000D01*
D13*
X102500000Y-152750000D02*
X102500000Y-173500000D01*
X102500000Y-137500000D02*
X102500000Y-132715000D01*
X113800000Y-137500000D02*
X113800000Y-152750000D01*
X102500000Y-137500000D02*
X113800000Y-137500000D01*
X102500000Y-152750000D02*
X113800000Y-152750000D01*
X102500000Y-116000000D02*
X102500000Y-119253000D01*
X109347000Y-132715000D02*
X102500000Y-132715000D01*
X109347000Y-119253000D02*
X109347000Y-132715000D01*
X102500000Y-119253000D02*
X109347000Y-119253000D01*
X99500000Y-113284000D02*
X99500000Y-116000000D01*
X110900000Y-113284000D02*
X99500000Y-113284000D01*
X110900000Y-106680000D02*
X110900000Y-113284000D01*
X99500000Y-106680000D02*
X110900000Y-106680000D01*
X102500000Y-173500000D02*
X125000000Y-173500000D01*
X125000000Y-100000000D02*
X125000000Y-173500000D01*
X99500000Y-100000000D02*
X125000000Y-100000000D01*
X99500000Y-116000000D02*
X102500000Y-116000000D01*
X99500000Y-100000000D02*
X99500000Y-106680000D01*
D14*
X120300000Y-155600000D02*
X120300000Y-153750000D01*
X120300000Y-133250000D02*
X120300000Y-131400000D01*
X120300000Y-131400000D02*
X120340000Y-131400000D01*
X120340000Y-155600000D02*
X120300000Y-155600000D01*
X116255800Y-119837200D02*
X115239800Y-119837200D01*
X116255800Y-121361200D02*
X115239800Y-121361200D01*
X116562000Y-147508000D02*
X116562000Y-146492000D01*
X115038000Y-147508000D02*
X115038000Y-146492000D01*
D15*
X115112800Y-119024400D02*
X115951000Y-119024400D01*
X115112800Y-117246400D02*
X115951000Y-117246400D01*
X115163600Y-123393200D02*
X116001800Y-123393200D01*
X115163600Y-121615200D02*
X116001800Y-121615200D01*
D14*
X113538001Y-163499800D02*
X113284001Y-163499800D01*
X113284001Y-163499800D02*
X111252001Y-163499800D01*
X111252001Y-163499800D02*
X110998001Y-163245800D01*
X110998001Y-163245800D02*
X110744001Y-163499800D01*
X110744001Y-163499800D02*
X108712001Y-163499800D01*
X108712001Y-163499800D02*
X108458001Y-163245800D01*
X108458001Y-163245800D02*
X108458001Y-161213800D01*
X113538001Y-163245800D02*
X113284001Y-163499800D01*
X113284001Y-160959800D02*
X113538001Y-161213800D01*
X113030001Y-160959800D02*
X113538001Y-160959800D01*
X108712001Y-160959800D02*
X110744001Y-160959800D01*
X110744001Y-160959800D02*
X110998001Y-161213800D01*
X110998001Y-161213800D02*
X111252001Y-160959800D01*
X111252001Y-160959800D02*
X113030001Y-160959800D01*
X108712001Y-160959800D02*
X108458001Y-161213800D01*
X113538001Y-163499800D02*
X113538001Y-160959800D01*
X122631200Y-107137200D02*
X121615200Y-107137200D01*
X122631200Y-108661200D02*
X121615200Y-108661200D01*
D16*
X114604800Y-135242300D02*
X114620040Y-135242300D01*
X114607340Y-135257540D02*
X114607340Y-135237220D01*
X114602260Y-135234680D02*
X114632740Y-135234680D01*
X114597180Y-135270240D02*
X114597180Y-135232140D01*
X114587020Y-135310880D02*
X114587020Y-135224520D01*
X114587020Y-135224520D02*
X114683540Y-135224520D01*
X114612420Y-136771380D02*
X114612420Y-136756140D01*
X114592100Y-136773920D02*
X114632740Y-136773920D01*
X114599720Y-136730740D02*
X114599720Y-136776460D01*
X114683540Y-136784080D02*
X114587020Y-136784080D01*
X114587020Y-136784080D02*
X114587020Y-136456420D01*
X115681760Y-137355580D02*
X115681760Y-137170160D01*
X115694460Y-137355580D02*
X115694460Y-137172700D01*
X115707160Y-137355580D02*
X115707160Y-137172700D01*
X115719860Y-137353040D02*
X115719860Y-137170160D01*
X115732560Y-137358120D02*
X114909600Y-137358120D01*
X115636040Y-137167620D02*
X115732560Y-137167620D01*
X115732560Y-137167620D02*
X115732560Y-137358120D01*
X114607340Y-137855960D02*
X114686080Y-137855960D01*
X114607340Y-138041380D02*
X114681000Y-138041380D01*
D17*
X114637820Y-137924540D02*
X114637820Y-137876280D01*
X114635280Y-138021060D02*
X114635280Y-137972800D01*
D18*
X114604800Y-137947400D02*
X114604800Y-137845800D01*
X114604800Y-137845800D02*
X115862100Y-137845800D01*
X116154200Y-137795000D02*
X116141500Y-137807700D01*
X116154200Y-137807700D02*
X116154200Y-137490200D01*
X115938300Y-138036300D02*
X115912900Y-138049000D01*
X115900200Y-138049000D02*
X115912900Y-138049000D01*
X115912900Y-138049000D02*
X115925600Y-138049000D01*
X115925600Y-138049000D02*
X116154200Y-137807700D01*
X114604800Y-137947400D02*
X114604800Y-138049000D01*
X114604800Y-138049000D02*
X115900200Y-138049000D01*
D19*
X116065300Y-138442700D02*
X116065300Y-138938000D01*
X116065300Y-138938000D02*
X115925600Y-139090400D01*
X115023900Y-139090400D02*
X114858800Y-139090400D01*
X114858800Y-139090400D02*
X114706400Y-138938000D01*
X114706400Y-138938000D02*
X114706400Y-138455400D01*
D13*
X115552239Y-134213600D02*
G75*
G03X115552239Y-134213600I-172739J0D01*
G01*
D19*
X115379500Y-134416800D02*
X115379500Y-134848600D01*
D13*
X114942639Y-133172200D02*
G75*
G03X114942639Y-133172200I-172739J0D01*
G01*
D19*
X115201700Y-133578600D02*
X114947700Y-133324600D01*
X115201700Y-133781800D02*
X115201700Y-133578600D01*
X114706400Y-134277100D02*
X115201700Y-133781800D01*
X114706400Y-134670800D02*
X114706400Y-134277100D01*
X115392200Y-134848600D02*
X114884200Y-134848600D01*
X114884200Y-134848600D02*
X114706400Y-134670800D01*
X115951000Y-134848600D02*
X115379500Y-134848600D01*
X116128800Y-134683500D02*
X115951000Y-134848600D01*
X116128800Y-134289800D02*
X116128800Y-134683500D01*
X115620800Y-133781800D02*
X116128800Y-134289800D01*
X115620800Y-133591300D02*
X115620800Y-133781800D01*
X115912900Y-133299200D02*
X115620800Y-133591300D01*
D13*
X116250739Y-133184900D02*
G75*
G03X116250739Y-133184900I-172739J0D01*
G01*
X116238039Y-135318500D02*
G75*
G03X116238039Y-135318500I-172739J0D01*
G01*
D19*
X114681000Y-135318500D02*
X115811300Y-135318500D01*
X114681000Y-135534400D02*
X114681000Y-135318500D01*
D13*
X115730039Y-136017000D02*
G75*
G03X115730039Y-136017000I-172739J0D01*
G01*
D19*
X115150900Y-136017000D02*
X114681000Y-135534400D01*
X115125500Y-136017000D02*
X115328700Y-136017000D01*
X114681000Y-136461500D02*
X115125500Y-136017000D01*
X114681000Y-136690100D02*
X114681000Y-136461500D01*
X115849400Y-136690100D02*
X114681000Y-136690100D01*
D13*
X116238039Y-136690100D02*
G75*
G03X116238039Y-136690100I-172739J0D01*
G01*
X114866439Y-137261600D02*
G75*
G03X114866439Y-137261600I-172739J0D01*
G01*
D19*
X114922300Y-137261600D02*
X115633500Y-137261600D01*
D13*
X116238039Y-137261600D02*
G75*
G03X116238039Y-137261600I-172739J0D01*
G01*
D19*
X116052600Y-137769600D02*
X116052600Y-137490200D01*
X115887500Y-137947400D02*
X116052600Y-137769600D01*
X114706400Y-137947400D02*
X115887500Y-137947400D01*
X115455700Y-139090400D02*
X115900200Y-139090400D01*
X116065300Y-138442700D02*
X115925600Y-138303000D01*
X114896900Y-138303000D02*
X115900200Y-138303000D01*
X114708200Y-138455400D02*
X114858800Y-138303000D01*
D13*
X115399839Y-139090400D02*
G75*
G03X115399839Y-139090400I-172739J0D01*
G01*
D14*
X121292620Y-118544340D02*
X122397520Y-119209820D01*
X121079260Y-118262400D02*
X124292360Y-120202960D01*
X121754900Y-119961660D02*
X121953020Y-119570500D01*
X121953020Y-119570500D02*
X122260360Y-119245380D01*
X122204480Y-119143780D02*
X121848880Y-119468900D01*
X121848880Y-119468900D02*
X121775220Y-119712740D01*
X121775220Y-119712740D02*
X121754900Y-119961660D01*
X121229120Y-119484140D02*
X121320560Y-119809260D01*
X121246900Y-119075200D02*
X121229120Y-119476520D01*
X121051320Y-119118380D02*
X121323100Y-119951500D01*
X121434860Y-118714520D02*
X121147840Y-119153940D01*
X121279920Y-118663720D02*
X121079260Y-119039640D01*
X122971560Y-118579900D02*
X122793760Y-118800880D01*
X122796300Y-117957600D02*
X122976640Y-118254780D01*
X121610120Y-118219220D02*
X122588020Y-118074440D01*
X122712480Y-118008400D02*
X122938540Y-118198900D01*
X122557540Y-118074440D02*
X123093480Y-118460520D01*
X122293380Y-118117620D02*
X122991880Y-118577360D01*
X121991120Y-118153180D02*
X122880120Y-118727220D01*
X121719340Y-118221760D02*
X122742960Y-118859300D01*
X121513600Y-118287800D02*
X122656600Y-118953280D01*
D20*
X123012200Y-118770400D02*
X122897900Y-118884700D01*
X122900440Y-118882160D02*
X122689620Y-119080280D01*
X123106180Y-118630700D02*
X123007120Y-118772940D01*
X123240800Y-118506240D02*
X123108720Y-118628160D01*
X122836940Y-117807740D02*
X123240800Y-118506240D01*
X122659140Y-117916960D02*
X122831860Y-117807740D01*
X122544840Y-117965220D02*
X122659140Y-117916960D01*
X122270520Y-118010940D02*
X122542300Y-117962680D01*
X121607580Y-118099840D02*
X122270520Y-118010940D01*
X121536460Y-118120160D02*
X121607580Y-118099840D01*
X121503440Y-118143020D02*
X121536460Y-118120160D01*
X121457720Y-118191280D02*
X121500900Y-118145560D01*
X121363740Y-118310660D02*
X121457720Y-118191280D01*
X121033540Y-118833900D02*
X121165620Y-118630700D01*
X120964960Y-118970200D02*
X121033540Y-118830200D01*
X120949720Y-119065040D02*
X120964960Y-118973600D01*
X120949720Y-119181880D02*
X120949720Y-119067580D01*
X120962420Y-119245380D02*
X120949720Y-119184420D01*
X121251980Y-120058180D02*
X120964960Y-119242840D01*
X121279920Y-120088660D02*
X121251980Y-120058180D01*
X121325640Y-120106440D02*
X121285000Y-120091200D01*
X121366280Y-120096280D02*
X121325640Y-120106440D01*
X121406920Y-120063260D02*
X121366280Y-120096280D01*
X121437400Y-119994680D02*
X121406920Y-120063260D01*
X121452640Y-119880380D02*
X121437400Y-119994680D01*
X121445020Y-119768620D02*
X121452640Y-119880380D01*
X121422160Y-119644160D02*
X121445020Y-119768620D01*
X121391680Y-119560340D02*
X121422160Y-119644160D01*
X121361200Y-119501920D02*
X121391680Y-119560340D01*
X121373900Y-119214900D02*
X121361200Y-119501920D01*
X121358660Y-119146320D02*
X121373900Y-119214900D01*
X121363740Y-119087900D02*
X121361200Y-119146320D01*
X121447560Y-118963440D02*
X121363740Y-119087900D01*
X121526300Y-118823740D02*
X121447560Y-118963440D01*
X122021600Y-119128540D02*
X121526300Y-118823740D01*
X121777760Y-119349520D02*
X122024140Y-119126000D01*
X121724420Y-119428260D02*
X121777760Y-119349520D01*
X121681240Y-119517160D02*
X121724420Y-119428260D01*
X121648220Y-119644160D02*
X121681240Y-119522240D01*
X121632980Y-119778780D02*
X121648220Y-119644160D01*
X121635520Y-119905780D02*
X121632980Y-119778780D01*
X121645680Y-119979440D02*
X121635420Y-119905780D01*
X121663460Y-120027700D02*
X121645680Y-119979440D01*
X121681240Y-120050560D02*
X121663460Y-120028950D01*
X121719340Y-120075960D02*
X121686320Y-120055640D01*
X121800620Y-120088660D02*
X121721880Y-120075960D01*
X122123200Y-119555260D02*
X122047000Y-119672100D01*
X122047000Y-119672100D02*
X121800620Y-120088660D01*
X122207020Y-119461280D02*
X122123200Y-119555260D01*
X122262900Y-119413020D02*
X122207020Y-119461280D01*
X122384820Y-119324120D02*
X122262900Y-119413020D01*
D14*
X124099320Y-120355360D02*
G75*
G03X124322840Y-120060720I-35560J259080D01*
G01*
X120027700Y-120111520D02*
G75*
G03X120248680Y-120352820I231140J-10160D01*
G01*
X122344180Y-116596160D02*
G75*
G03X122054620Y-116596160I-144780J-144780D01*
G01*
X120030240Y-120075960D02*
X122008900Y-116652040D01*
X120327420Y-120357900D02*
X124091700Y-120355360D01*
X122384820Y-116646960D02*
X124312680Y-119992140D01*
D19*
X121292620Y-112720120D02*
X123725940Y-115140740D01*
D14*
X124255637Y-113883440D02*
G75*
G03X124255637Y-113883440I-1802237J0D01*
G01*
D15*
X115773200Y-112522000D02*
G75*
G03X115773200Y-112522000I-127000J0D01*
G01*
D14*
X115773200Y-109220000D02*
G75*
G03X113487200Y-109220000I-1143000J-1143000D01*
G01*
X114503200Y-108458000D02*
X114503200Y-108585000D01*
X114503200Y-108585000D02*
X114884200Y-108585000D01*
X114884200Y-108585000D02*
X114884200Y-108458000D01*
X114884200Y-108458000D02*
X114503200Y-108458000D01*
X114630200Y-109982000D02*
X115265200Y-109982000D01*
X114503200Y-109855000D02*
X115392200Y-109855000D01*
X115392200Y-109855000D02*
X115392200Y-110236000D01*
X115392200Y-110236000D02*
X114503200Y-110236000D01*
X114503200Y-110236000D02*
X114503200Y-109855000D01*
X115900200Y-109855000D02*
X115900200Y-109474000D01*
X115900200Y-109474000D02*
X116027200Y-109474000D01*
X116027200Y-109474000D02*
X116027200Y-109855000D01*
X115900200Y-109474000D02*
X115900200Y-109601000D01*
X115900200Y-109347000D02*
X116027200Y-109728000D01*
X115900200Y-109474000D02*
X115900200Y-109601000D01*
X115773200Y-109347000D02*
X115773200Y-109855000D01*
X115773200Y-109855000D02*
X116154200Y-109855000D01*
X116154200Y-109855000D02*
X116154200Y-109347000D01*
X113741200Y-109220000D02*
X113741200Y-108712000D01*
X113741200Y-108712000D02*
X113868200Y-108712000D01*
X113868200Y-108712000D02*
X113868200Y-109220000D01*
X116047809Y-112522000D02*
G75*
G03X116047809Y-112522000I-401609J0D01*
G01*
X115646200Y-112014000D02*
X115773200Y-109982000D01*
X113741200Y-112522000D02*
X113741200Y-112903000D01*
X113741200Y-112903000D02*
X114249200Y-112903000D01*
X114249200Y-112903000D02*
X114249200Y-112649000D01*
X113233200Y-109347000D02*
X116154200Y-109347000D01*
X113741200Y-112522000D02*
X113487200Y-109474000D01*
X113741200Y-112522000D02*
X115138200Y-112522000D01*
X112725200Y-112903000D02*
X116789200Y-108966000D01*
X112598200Y-108839000D02*
X116789200Y-113030000D01*
D13*
X112443000Y-114275400D02*
X116862600Y-114275400D01*
X116862600Y-114173800D02*
X112493800Y-114173800D01*
X112443000Y-113970600D02*
X116913400Y-113970600D01*
X112443000Y-113818200D02*
X116862600Y-113818200D01*
X116913400Y-114072200D02*
X112493800Y-114072200D01*
X116913400Y-113919800D02*
X112493800Y-113919800D01*
X112443000Y-113767400D02*
X116913400Y-113767400D01*
X116913400Y-113665800D02*
X112493800Y-113665800D01*
X116964200Y-114377000D02*
X112392200Y-114377000D01*
X112392200Y-114377000D02*
X112392200Y-113615000D01*
X112392200Y-113615000D02*
X116964200Y-113615000D01*
X116964200Y-113615000D02*
X116964200Y-114377000D01*
D14*
X118541523Y-149019380D02*
X117271523Y-149019380D01*
X117271523Y-148535571D01*
X117332000Y-148414619D01*
X117392476Y-148354142D01*
X117513428Y-148293666D01*
X117694857Y-148293666D01*
X117815809Y-148354142D01*
X117876285Y-148414619D01*
X117936761Y-148535571D01*
X117936761Y-149019380D01*
X117392476Y-147809857D02*
X117332000Y-147749380D01*
X117271523Y-147628428D01*
X117271523Y-147326047D01*
X117332000Y-147205095D01*
X117392476Y-147144619D01*
X117513428Y-147084142D01*
X117634380Y-147084142D01*
X117815809Y-147144619D01*
X118541523Y-147870333D01*
X118541523Y-147084142D01*
X118884095Y-166753419D02*
X118884095Y-165737419D01*
X119271142Y-165737419D01*
X119367904Y-165785800D01*
X119416285Y-165834180D01*
X119464666Y-165930942D01*
X119464666Y-166076085D01*
X119416285Y-166172847D01*
X119367904Y-166221228D01*
X119271142Y-166269609D01*
X118884095Y-166269609D01*
X120335523Y-166076085D02*
X120335523Y-166753419D01*
X120093619Y-165689038D02*
X119851714Y-166414752D01*
X120480666Y-166414752D01*
D13*
D21*
X118679933Y-120930942D02*
X118632314Y-120978561D01*
X118489457Y-121026180D01*
X118394219Y-121026180D01*
X118251361Y-120978561D01*
X118156123Y-120883323D01*
X118108504Y-120788085D01*
X118060885Y-120597609D01*
X118060885Y-120454752D01*
X118108504Y-120264276D01*
X118156123Y-120169038D01*
X118251361Y-120073800D01*
X118394219Y-120026180D01*
X118489457Y-120026180D01*
X118632314Y-120073800D01*
X118679933Y-120121419D01*
X119632314Y-121026180D02*
X119060885Y-121026180D01*
X119346600Y-121026180D02*
X119346600Y-120026180D01*
X119251361Y-120169038D01*
X119156123Y-120264276D01*
X119060885Y-120311895D01*
X108533333Y-157557142D02*
X108485714Y-157604761D01*
X108342857Y-157652380D01*
X108247619Y-157652380D01*
X108104761Y-157604761D01*
X108009523Y-157509523D01*
X107961904Y-157414285D01*
X107914285Y-157223809D01*
X107914285Y-157080952D01*
X107961904Y-156890476D01*
X108009523Y-156795238D01*
X108104761Y-156700000D01*
X108247619Y-156652380D01*
X108342857Y-156652380D01*
X108485714Y-156700000D01*
X108533333Y-156747619D01*
X108914285Y-156747619D02*
X108961904Y-156700000D01*
X109057142Y-156652380D01*
X109295238Y-156652380D01*
X109390476Y-156700000D01*
X109438095Y-156747619D01*
X109485714Y-156842857D01*
X109485714Y-156938095D01*
X109438095Y-157080952D01*
X108866666Y-157652380D01*
X109485714Y-157652380D01*
X113033333Y-157557142D02*
X112985714Y-157604761D01*
X112842857Y-157652380D01*
X112747619Y-157652380D01*
X112604761Y-157604761D01*
X112509523Y-157509523D01*
X112461904Y-157414285D01*
X112414285Y-157223809D01*
X112414285Y-157080952D01*
X112461904Y-156890476D01*
X112509523Y-156795238D01*
X112604761Y-156700000D01*
X112747619Y-156652380D01*
X112842857Y-156652380D01*
X112985714Y-156700000D01*
X113033333Y-156747619D01*
X113366666Y-156652380D02*
X113985714Y-156652380D01*
X113652380Y-157033333D01*
X113795238Y-157033333D01*
X113890476Y-157080952D01*
X113938095Y-157128571D01*
X113985714Y-157223809D01*
X113985714Y-157461904D01*
X113938095Y-157557142D01*
X113890476Y-157604761D01*
X113795238Y-157652380D01*
X113509523Y-157652380D01*
X113414285Y-157604761D01*
X113366666Y-157557142D01*
X110831333Y-157506942D02*
X110783714Y-157554561D01*
X110640857Y-157602180D01*
X110545619Y-157602180D01*
X110402761Y-157554561D01*
X110307523Y-157459323D01*
X110259904Y-157364085D01*
X110212285Y-157173609D01*
X110212285Y-157030752D01*
X110259904Y-156840276D01*
X110307523Y-156745038D01*
X110402761Y-156649800D01*
X110545619Y-156602180D01*
X110640857Y-156602180D01*
X110783714Y-156649800D01*
X110831333Y-156697419D01*
X111688476Y-156935514D02*
X111688476Y-157602180D01*
X111450380Y-156554561D02*
X111212285Y-157268847D01*
X111831333Y-157268847D01*
X116284142Y-150392466D02*
X116331761Y-150440085D01*
X116379380Y-150582942D01*
X116379380Y-150678180D01*
X116331761Y-150821038D01*
X116236523Y-150916276D01*
X116141285Y-150963895D01*
X115950809Y-151011514D01*
X115807952Y-151011514D01*
X115617476Y-150963895D01*
X115522238Y-150916276D01*
X115427000Y-150821038D01*
X115379380Y-150678180D01*
X115379380Y-150582942D01*
X115427000Y-150440085D01*
X115474619Y-150392466D01*
X116379380Y-149916276D02*
X116379380Y-149725800D01*
X116331761Y-149630561D01*
X116284142Y-149582942D01*
X116141285Y-149487704D01*
X115950809Y-149440085D01*
X115569857Y-149440085D01*
X115474619Y-149487704D01*
X115427000Y-149535323D01*
X115379380Y-149630561D01*
X115379380Y-149821038D01*
X115427000Y-149916276D01*
X115474619Y-149963895D01*
X115569857Y-150011514D01*
X115807952Y-150011514D01*
X115903190Y-149963895D01*
X115950809Y-149916276D01*
X115998428Y-149821038D01*
X115998428Y-149630561D01*
X115950809Y-149535323D01*
X115903190Y-149487704D01*
X115807952Y-149440085D01*
X118578333Y-118562380D02*
X118102142Y-118562380D01*
X118102142Y-117562380D01*
X119435476Y-118562380D02*
X118864047Y-118562380D01*
X119149761Y-118562380D02*
X119149761Y-117562380D01*
X119054523Y-117705238D01*
X118959285Y-117800476D01*
X118864047Y-117848095D01*
X118654533Y-122931180D02*
X118178342Y-122931180D01*
X118178342Y-121931180D01*
X118940247Y-122026419D02*
X118987866Y-121978800D01*
X119083104Y-121931180D01*
X119321200Y-121931180D01*
X119416438Y-121978800D01*
X119464057Y-122026419D01*
X119511676Y-122121657D01*
X119511676Y-122216895D01*
X119464057Y-122359752D01*
X118892628Y-122931180D01*
X119511676Y-122931180D01*
X121933333Y-106457142D02*
X121885714Y-106504761D01*
X121742857Y-106552380D01*
X121647619Y-106552380D01*
X121504761Y-106504761D01*
X121409523Y-106409523D01*
X121361904Y-106314285D01*
X121314285Y-106123809D01*
X121314285Y-105980952D01*
X121361904Y-105790476D01*
X121409523Y-105695238D01*
X121504761Y-105600000D01*
X121647619Y-105552380D01*
X121742857Y-105552380D01*
X121885714Y-105600000D01*
X121933333Y-105647619D01*
X122838095Y-105552380D02*
X122361904Y-105552380D01*
X122314285Y-106028571D01*
X122361904Y-105980952D01*
X122457142Y-105933333D01*
X122695238Y-105933333D01*
X122790476Y-105980952D01*
X122838095Y-106028571D01*
X122885714Y-106123809D01*
X122885714Y-106361904D01*
X122838095Y-106457142D01*
X122790476Y-106504761D01*
X122695238Y-106552380D01*
X122457142Y-106552380D01*
X122361904Y-106504761D01*
X122314285Y-106457142D01*
X116957142Y-106666666D02*
X117004761Y-106714285D01*
X117052380Y-106857142D01*
X117052380Y-106952380D01*
X117004761Y-107095238D01*
X116909523Y-107190476D01*
X116814285Y-107238095D01*
X116623809Y-107285714D01*
X116480952Y-107285714D01*
X116290476Y-107238095D01*
X116195238Y-107190476D01*
X116100000Y-107095238D01*
X116052380Y-106952380D01*
X116052380Y-106857142D01*
X116100000Y-106714285D01*
X116147619Y-106666666D01*
X116052380Y-105809523D02*
X116052380Y-106000000D01*
X116100000Y-106095238D01*
X116147619Y-106142857D01*
X116290476Y-106238095D01*
X116480952Y-106285714D01*
X116861904Y-106285714D01*
X116957142Y-106238095D01*
X117004761Y-106190476D01*
X117052380Y-106095238D01*
X117052380Y-105904761D01*
X117004761Y-105809523D01*
X116957142Y-105761904D01*
X116861904Y-105714285D01*
X116623809Y-105714285D01*
X116528571Y-105761904D01*
X116480952Y-105809523D01*
X116433333Y-105904761D01*
X116433333Y-106095238D01*
X116480952Y-106190476D01*
X116528571Y-106238095D01*
X116623809Y-106285714D01*
X118257142Y-110666666D02*
X118304761Y-110714285D01*
X118352380Y-110857142D01*
X118352380Y-110952380D01*
X118304761Y-111095238D01*
X118209523Y-111190476D01*
X118114285Y-111238095D01*
X117923809Y-111285714D01*
X117780952Y-111285714D01*
X117590476Y-111238095D01*
X117495238Y-111190476D01*
X117400000Y-111095238D01*
X117352380Y-110952380D01*
X117352380Y-110857142D01*
X117400000Y-110714285D01*
X117447619Y-110666666D01*
X117352380Y-110333333D02*
X117352380Y-109666666D01*
X118352380Y-110095238D01*
X116957142Y-104666666D02*
X117004761Y-104714285D01*
X117052380Y-104857142D01*
X117052380Y-104952380D01*
X117004761Y-105095238D01*
X116909523Y-105190476D01*
X116814285Y-105238095D01*
X116623809Y-105285714D01*
X116480952Y-105285714D01*
X116290476Y-105238095D01*
X116195238Y-105190476D01*
X116100000Y-105095238D01*
X116052380Y-104952380D01*
X116052380Y-104857142D01*
X116100000Y-104714285D01*
X116147619Y-104666666D01*
X116480952Y-104095238D02*
X116433333Y-104190476D01*
X116385714Y-104238095D01*
X116290476Y-104285714D01*
X116242857Y-104285714D01*
X116147619Y-104238095D01*
X116100000Y-104190476D01*
X116052380Y-104095238D01*
X116052380Y-103904761D01*
X116100000Y-103809523D01*
X116147619Y-103761904D01*
X116242857Y-103714285D01*
X116290476Y-103714285D01*
X116385714Y-103761904D01*
X116433333Y-103809523D01*
X116480952Y-103904761D01*
X116480952Y-104095238D01*
X116528571Y-104190476D01*
X116576190Y-104238095D01*
X116671428Y-104285714D01*
X116861904Y-104285714D01*
X116957142Y-104238095D01*
X117004761Y-104190476D01*
X117052380Y-104095238D01*
X117052380Y-103904761D01*
X117004761Y-103809523D01*
X116957142Y-103761904D01*
X116861904Y-103714285D01*
X116671428Y-103714285D01*
X116576190Y-103761904D01*
X116528571Y-103809523D01*
X116480952Y-103904761D01*
X119233333Y-107152380D02*
X118900000Y-106676190D01*
X118661904Y-107152380D02*
X118661904Y-106152380D01*
X119042857Y-106152380D01*
X119138095Y-106200000D01*
X119185714Y-106247619D01*
X119233333Y-106342857D01*
X119233333Y-106485714D01*
X119185714Y-106580952D01*
X119138095Y-106628571D01*
X119042857Y-106676190D01*
X118661904Y-106676190D01*
X120185714Y-107152380D02*
X119614285Y-107152380D01*
X119900000Y-107152380D02*
X119900000Y-106152380D01*
X119804761Y-106295238D01*
X119709523Y-106390476D01*
X119614285Y-106438095D01*
D14*
D13*
D14*
X121498811Y-114632167D02*
X121498811Y-112932167D01*
X122070240Y-112932167D01*
X122213097Y-113013120D01*
X122284525Y-113094072D01*
X122355954Y-113255977D01*
X122355954Y-113498834D01*
X122284525Y-113660739D01*
X122213097Y-113741691D01*
X122070240Y-113822643D01*
X121498811Y-113822643D01*
X122998811Y-114632167D02*
X122998811Y-112932167D01*
X122998811Y-113579786D02*
X123141668Y-113498834D01*
X123427382Y-113498834D01*
X123570240Y-113579786D01*
X123641668Y-113660739D01*
X123713097Y-113822643D01*
X123713097Y-114308358D01*
X123641668Y-114470262D01*
X123570240Y-114551215D01*
X123427382Y-114632167D01*
X123141668Y-114632167D01*
X122998811Y-114551215D01*
X106468333Y-104663119D02*
X106468333Y-105388833D01*
X106419952Y-105533976D01*
X106323190Y-105630738D01*
X106178047Y-105679119D01*
X106081285Y-105679119D01*
X107484333Y-105679119D02*
X106903761Y-105679119D01*
X107194047Y-105679119D02*
X107194047Y-104663119D01*
X107097285Y-104808261D01*
X107000523Y-104905023D01*
X106903761Y-104953404D01*
X104270023Y-134922380D02*
X103000023Y-134922380D01*
X103000023Y-134438571D01*
X103060500Y-134317619D01*
X103120976Y-134257142D01*
X103241928Y-134196666D01*
X103423357Y-134196666D01*
X103544309Y-134257142D01*
X103604785Y-134317619D01*
X103665261Y-134438571D01*
X103665261Y-134922380D01*
X104270023Y-132987142D02*
X104270023Y-133712857D01*
X104270023Y-133350000D02*
X103000023Y-133350000D01*
X103181452Y-133470952D01*
X103302404Y-133591904D01*
X103362880Y-133712857D01*
M02*
