G04 #@! TF.FileFunction,Copper,L2,Bot,Signal*
%FSLAX46Y46*%
G04 Gerber Fmt 4.6, Leading zero omitted, Abs format (unit mm)*
G04 Created by KiCad (PCBNEW no-vcs-found-undefined) date Tue Nov  8 14:51:07 2016*
%MOMM*%
%LPD*%
G01*
G04 APERTURE LIST*
%ADD10C,0.600000*%
%ADD11C,0.900000*%
%ADD12C,1.000000*%
%ADD13C,7.000000*%
%ADD14C,6.000000*%
%ADD15O,2.200000X1.300000*%
%ADD16C,1.524000*%
%ADD17O,3.000000X1.524000*%
%ADD18R,6.000000X1.600000*%
%ADD19R,2.000000X0.550000*%
%ADD20R,3.000000X1.200000*%
%ADD21C,0.600000*%
%ADD22C,0.250000*%
%ADD23C,1.016000*%
%ADD24C,0.304800*%
%ADD25C,0.203200*%
%ADD26C,0.508000*%
%ADD27C,0.762000*%
%ADD28C,0.254000*%
G04 APERTURE END LIST*
D10*
D11*
X121650000Y-148000000D03*
X121600000Y-149300000D03*
X121650000Y-150550000D03*
X115750000Y-155850000D03*
D12*
X104394000Y-171458000D03*
X123012200Y-161600000D03*
X102362000Y-102200000D03*
D11*
X123799600Y-109804200D03*
X120700800Y-109931200D03*
X118643400Y-115189000D03*
X113842800Y-114884200D03*
X121615200Y-151739600D03*
X122800000Y-142000000D03*
X122800000Y-140900000D03*
X111125000Y-136118600D03*
D13*
X114000000Y-100000000D03*
X111000000Y-172500000D03*
D14*
X122000000Y-126000000D03*
D11*
X109067600Y-136093200D03*
D15*
X101300000Y-114300000D03*
X101300000Y-105700000D03*
D16*
X111800000Y-122500000D03*
X111800000Y-125000000D03*
X111800000Y-127000000D03*
X111800000Y-129500000D03*
D17*
X111200000Y-118150000D03*
X111200000Y-133850000D03*
D18*
X105500000Y-136508600D03*
X105500000Y-153708600D03*
D19*
X115100000Y-142908600D03*
X115100000Y-144008600D03*
X115100000Y-145108600D03*
X115100000Y-146208600D03*
X115100000Y-147308600D03*
X115100000Y-148408600D03*
X115100000Y-149508600D03*
X115100000Y-150608600D03*
X115100000Y-151708600D03*
D20*
X104000000Y-153508600D03*
X104000000Y-136708600D03*
D21*
X118050000Y-136150000D03*
X108800000Y-155200000D03*
X119253000Y-111226600D03*
X118287800Y-105613200D03*
X118560904Y-109937496D03*
X118948200Y-106984800D03*
X116898004Y-147898004D03*
X116681293Y-146087261D03*
X122483600Y-138958600D03*
X121664420Y-137034580D03*
X120588286Y-113080800D03*
X122166857Y-137914857D03*
X121081800Y-116281200D03*
X121350000Y-136100000D03*
X117967923Y-113834810D03*
X116616978Y-142879599D03*
X116956790Y-143649085D03*
X116866013Y-144477071D03*
X120950000Y-144750000D03*
X118599998Y-146200000D03*
X120950000Y-146250000D03*
X118500006Y-152050000D03*
X120396000Y-157353000D03*
X117133051Y-150633051D03*
D22*
X104000000Y-153408600D02*
X103500000Y-153908600D01*
X103500000Y-153908600D02*
X103500000Y-155000000D01*
X103500000Y-155000000D02*
X103700000Y-155200000D01*
X103700000Y-155200000D02*
X108800000Y-155200000D01*
D23*
X105500000Y-153708600D02*
X103402900Y-153708600D01*
X103402900Y-153708600D02*
X103300000Y-153811500D01*
X103300000Y-156005000D02*
X103314500Y-156019500D01*
X103300000Y-153811500D02*
X103300000Y-156005000D01*
D22*
X118050000Y-136150000D02*
X111156400Y-136150000D01*
X111156400Y-136150000D02*
X111125000Y-136118600D01*
D23*
X103314500Y-136492200D02*
X103314500Y-134429500D01*
X103330900Y-136508600D02*
X103314500Y-136492200D01*
X105500000Y-136508600D02*
X103330900Y-136508600D01*
X105500000Y-153708600D02*
X105500000Y-155728500D01*
X105500000Y-155728500D02*
X105981500Y-156210000D01*
X105500000Y-136508600D02*
X105500000Y-134847500D01*
X106680000Y-134683500D02*
X106743500Y-134747000D01*
X105664000Y-134683500D02*
X106680000Y-134683500D01*
X105500000Y-134847500D02*
X105664000Y-134683500D01*
D24*
X119984799Y-110926601D02*
X120904000Y-110007400D01*
X119253000Y-111226600D02*
X119552999Y-110926601D01*
X119552999Y-110926601D02*
X119984799Y-110926601D01*
D22*
X104000000Y-136608600D02*
X108552200Y-136608600D01*
X108552200Y-136608600D02*
X109067600Y-136093200D01*
D25*
X118560904Y-109937496D02*
X119634000Y-108864400D01*
X118568307Y-105613200D02*
X118287800Y-105613200D01*
X119634000Y-108864400D02*
X119634000Y-106678893D01*
X119634000Y-106678893D02*
X118568307Y-105613200D01*
D26*
X104145400Y-115087400D02*
X110845600Y-115087400D01*
X110845600Y-115087400D02*
X118948200Y-106984800D01*
X101750000Y-114300000D02*
X103358000Y-114300000D01*
X103358000Y-114300000D02*
X104145400Y-115087400D01*
D24*
X116381770Y-148408600D02*
X115100000Y-148408600D01*
X116898004Y-147898004D02*
X116387408Y-148408600D01*
X116387408Y-148408600D02*
X116381770Y-148408600D01*
X116512739Y-146087261D02*
X116512739Y-146100661D01*
X116404800Y-146208600D02*
X115100000Y-146208600D01*
X116512739Y-146100661D02*
X116404800Y-146208600D01*
X116681293Y-146087261D02*
X116512739Y-146087261D01*
D22*
X115100000Y-146108600D02*
X116659954Y-146108600D01*
X116659954Y-146108600D02*
X116681293Y-146087261D01*
D26*
X120573800Y-105714800D02*
X120573800Y-105664000D01*
X120573800Y-105664000D02*
X118917801Y-104008001D01*
X118917801Y-104008001D02*
X102283999Y-104008001D01*
X102283999Y-104008001D02*
X101750000Y-104542000D01*
X101750000Y-104542000D02*
X101750000Y-105700000D01*
D27*
X122275600Y-107416600D02*
X120573800Y-105714800D01*
X122275600Y-120269000D02*
X122275600Y-107416600D01*
X118364999Y-124179601D02*
X122275600Y-120269000D01*
X124206000Y-137236200D02*
X124206000Y-133585802D01*
X124206000Y-133585802D02*
X118364999Y-127744801D01*
X118364999Y-127744801D02*
X118364999Y-124179601D01*
X122483600Y-138958600D02*
X124206000Y-137236200D01*
X122278790Y-134379565D02*
X122278790Y-136420210D01*
X122278790Y-136420210D02*
X121664420Y-137034580D01*
X116411390Y-128512165D02*
X122278790Y-134379565D01*
X120351580Y-119472048D02*
X116411390Y-123412238D01*
X116411390Y-123412238D02*
X116411390Y-128512165D01*
X120351580Y-117455980D02*
X120351580Y-119472048D01*
X120588286Y-113080800D02*
X120119790Y-113549296D01*
X120119790Y-113549296D02*
X120119790Y-117224190D01*
X120119790Y-117224190D02*
X120351580Y-117455980D01*
X123240800Y-136840914D02*
X122166857Y-137914857D01*
X117402991Y-128143279D02*
X123240800Y-133981088D01*
X123240800Y-133981088D02*
X123240800Y-136840914D01*
X117373400Y-124815600D02*
X117373400Y-128113688D01*
X117373400Y-128113688D02*
X117402991Y-128143279D01*
X117402991Y-124786009D02*
X117373400Y-124815600D01*
X117402991Y-123781123D02*
X117402991Y-124786009D01*
X117966523Y-123217591D02*
X117402991Y-123781123D01*
X121313590Y-119870524D02*
X117966523Y-123217591D01*
X121313590Y-116937254D02*
X121313590Y-119870524D01*
X121081800Y-116281200D02*
X121081800Y-116705464D01*
X121081800Y-116705464D02*
X121313590Y-116937254D01*
D26*
X117967923Y-113834810D02*
X115576381Y-116226352D01*
X115576381Y-116226352D02*
X115576381Y-128926381D01*
X115576381Y-128926381D02*
X121350000Y-134700000D01*
X121350000Y-134700000D02*
X121350000Y-136100000D01*
D22*
X115141400Y-142850000D02*
X116587379Y-142850000D01*
X116587379Y-142850000D02*
X116616978Y-142879599D01*
D24*
X116616978Y-142879599D02*
X115129001Y-142879599D01*
X115100000Y-144008600D02*
X116203200Y-144008600D01*
X116203200Y-144008600D02*
X116303200Y-143908600D01*
X116303200Y-143908600D02*
X116303200Y-143878411D01*
X116303200Y-143878411D02*
X116532526Y-143649085D01*
X116532526Y-143649085D02*
X116956790Y-143649085D01*
D22*
X115100000Y-143908600D02*
X116350000Y-143908600D01*
X116350000Y-143908600D02*
X116303200Y-143908600D01*
X115100000Y-145008600D02*
X116334484Y-145008600D01*
X116334484Y-145008600D02*
X116866013Y-144477071D01*
X115100000Y-147308600D02*
X116566396Y-147308600D01*
X116566396Y-147308600D02*
X119124996Y-144750000D01*
X119124996Y-144750000D02*
X120950000Y-144750000D01*
D24*
X118599998Y-146624264D02*
X118599998Y-146200000D01*
X118400000Y-146824262D02*
X118599998Y-146624264D01*
X118400000Y-147513400D02*
X118400000Y-146824262D01*
X115100000Y-149508600D02*
X116404800Y-149508600D01*
X116404800Y-149508600D02*
X118400000Y-147513400D01*
X118400000Y-147513400D02*
X118400000Y-147500000D01*
D22*
X118400000Y-146824262D02*
X118400000Y-147500000D01*
D24*
X115100000Y-150608600D02*
X116167136Y-150608600D01*
X116167136Y-150608600D02*
X120525736Y-146250000D01*
X120525736Y-146250000D02*
X120950000Y-146250000D01*
D27*
X118500006Y-155457006D02*
X118500006Y-152474264D01*
X120396000Y-157353000D02*
X118500006Y-155457006D01*
X118500006Y-152474264D02*
X118500006Y-152050000D01*
D24*
X115100000Y-151708600D02*
X116341400Y-151708600D01*
X117133051Y-150916949D02*
X117133051Y-150633051D01*
X116341400Y-151708600D02*
X117133051Y-150916949D01*
D26*
X109956600Y-120663400D02*
X109956600Y-131336600D01*
X109956600Y-131336600D02*
X111200000Y-132580000D01*
X111200000Y-132580000D02*
X111200000Y-133850000D01*
X111200000Y-118150000D02*
X111200000Y-119420000D01*
X111200000Y-119420000D02*
X109956600Y-120663400D01*
D28*
G36*
X121259600Y-107837441D02*
X121259600Y-112330905D01*
X120977093Y-112142139D01*
X120588286Y-112064801D01*
X120199479Y-112142139D01*
X119869865Y-112362380D01*
X119401370Y-112830876D01*
X119181128Y-113160489D01*
X119181128Y-113160490D01*
X119103790Y-113549296D01*
X119103790Y-117224190D01*
X119149896Y-117455980D01*
X119181128Y-117612997D01*
X119335580Y-117844149D01*
X119335580Y-119051207D01*
X116465381Y-121921407D01*
X116465381Y-116594588D01*
X118386397Y-114673572D01*
X118496866Y-114627927D01*
X118760115Y-114365137D01*
X118902761Y-114021609D01*
X118903085Y-113649643D01*
X118761040Y-113305867D01*
X118498250Y-113042618D01*
X118154722Y-112899972D01*
X117782756Y-112899648D01*
X117438980Y-113041693D01*
X117175731Y-113304483D01*
X117129374Y-113416123D01*
X114947763Y-115597734D01*
X114755052Y-115886146D01*
X114687381Y-116226352D01*
X114687381Y-128926381D01*
X114755052Y-129266587D01*
X114929833Y-129528165D01*
X114947763Y-129554999D01*
X120461000Y-135068236D01*
X120461000Y-135802811D01*
X120415162Y-135913201D01*
X120414838Y-136285167D01*
X120556883Y-136628943D01*
X120700491Y-136772802D01*
X120648421Y-137034580D01*
X120725758Y-137423387D01*
X120946000Y-137753000D01*
X121155243Y-137892813D01*
X121150858Y-137914857D01*
X121228195Y-138303664D01*
X121448437Y-138633277D01*
X121522471Y-138682745D01*
X121467601Y-138958600D01*
X121544938Y-139347407D01*
X121765180Y-139677020D01*
X122094793Y-139897262D01*
X122483600Y-139974599D01*
X122872407Y-139897262D01*
X123202020Y-139677020D01*
X124290000Y-138589041D01*
X124290000Y-160554449D01*
X123944100Y-160207945D01*
X123340447Y-159957286D01*
X122686821Y-159956716D01*
X122082731Y-160206320D01*
X121620145Y-160668100D01*
X121369486Y-161271753D01*
X121368916Y-161925379D01*
X121618520Y-162529469D01*
X122080300Y-162992055D01*
X122683953Y-163242714D01*
X123337579Y-163243284D01*
X123941669Y-162993680D01*
X124290000Y-162645956D01*
X124290000Y-172790000D01*
X119137576Y-172790000D01*
X119352854Y-172575098D01*
X119776517Y-171554803D01*
X119777481Y-170450044D01*
X119355599Y-169429011D01*
X118575098Y-168647146D01*
X117554803Y-168223483D01*
X116450044Y-168222519D01*
X115429011Y-168644401D01*
X114647146Y-169424902D01*
X114223483Y-170445197D01*
X114222519Y-171549956D01*
X114644401Y-172570989D01*
X114863030Y-172790000D01*
X105385257Y-172790000D01*
X105786055Y-172389900D01*
X106036714Y-171786247D01*
X106037284Y-171132621D01*
X105787680Y-170528531D01*
X105325900Y-170065945D01*
X104722247Y-169815286D01*
X104068621Y-169814716D01*
X103464531Y-170064320D01*
X103210000Y-170318408D01*
X103210000Y-155143600D01*
X104833250Y-155143600D01*
X104992000Y-154984850D01*
X104992000Y-154743600D01*
X105626310Y-154743600D01*
X105859699Y-154646927D01*
X106008000Y-154498625D01*
X106008000Y-154984850D01*
X106166750Y-155143600D01*
X108626310Y-155143600D01*
X108859699Y-155046927D01*
X109038327Y-154868298D01*
X109135000Y-154634909D01*
X109135000Y-154267350D01*
X108976250Y-154108600D01*
X106135000Y-154108600D01*
X106135000Y-153967350D01*
X105976250Y-153808600D01*
X104972000Y-153808600D01*
X104972000Y-153460000D01*
X113800000Y-153460000D01*
X114071705Y-153405954D01*
X114302046Y-153252046D01*
X114455954Y-153021705D01*
X114510000Y-152750000D01*
X114510000Y-152631040D01*
X116100000Y-152631040D01*
X116347765Y-152581757D01*
X116533208Y-152457847D01*
X116642725Y-152436063D01*
X116898176Y-152265376D01*
X117680124Y-151483428D01*
X117561344Y-151661194D01*
X117484006Y-152050000D01*
X117484006Y-155457006D01*
X117548513Y-155781306D01*
X117561344Y-155845813D01*
X117781586Y-156175426D01*
X119677579Y-158071420D01*
X120007193Y-158291661D01*
X120396000Y-158368999D01*
X120784807Y-158291661D01*
X121114420Y-158071420D01*
X121334661Y-157741807D01*
X121411999Y-157353000D01*
X121334661Y-156964193D01*
X121114420Y-156634579D01*
X119516006Y-155036166D01*
X119516006Y-152050000D01*
X119438668Y-151661194D01*
X119218426Y-151331580D01*
X118888812Y-151111338D01*
X118500006Y-151034000D01*
X118111200Y-151111338D01*
X117787402Y-151327694D01*
X117841009Y-151247465D01*
X117925243Y-151163378D01*
X118067889Y-150819850D01*
X118068213Y-150447884D01*
X117926168Y-150104108D01*
X117855736Y-150033552D01*
X120721688Y-147167600D01*
X120763201Y-147184838D01*
X121135167Y-147185162D01*
X121478943Y-147043117D01*
X121742192Y-146780327D01*
X121884838Y-146436799D01*
X121885162Y-146064833D01*
X121743117Y-145721057D01*
X121522291Y-145499845D01*
X121742192Y-145280327D01*
X121884838Y-144936799D01*
X121885162Y-144564833D01*
X121743117Y-144221057D01*
X121480327Y-143957808D01*
X121136799Y-143815162D01*
X120764833Y-143814838D01*
X120421057Y-143956883D01*
X120387882Y-143990000D01*
X119124996Y-143990000D01*
X118834157Y-144047852D01*
X118587595Y-144212599D01*
X117358244Y-145441950D01*
X117247573Y-145331085D01*
X117394956Y-145270188D01*
X117658205Y-145007398D01*
X117800851Y-144663870D01*
X117801175Y-144291904D01*
X117751845Y-144172517D01*
X117891628Y-143835884D01*
X117891952Y-143463918D01*
X117749907Y-143120142D01*
X117551942Y-142921831D01*
X117552140Y-142694432D01*
X117410095Y-142350656D01*
X117147305Y-142087407D01*
X116803777Y-141944761D01*
X116431811Y-141944437D01*
X116255821Y-142017154D01*
X116100000Y-141986160D01*
X114510000Y-141986160D01*
X114510000Y-137500000D01*
X114455954Y-137228295D01*
X114302046Y-136997954D01*
X114071705Y-136844046D01*
X113800000Y-136790000D01*
X104972000Y-136790000D01*
X104972000Y-136408600D01*
X105976250Y-136408600D01*
X106135000Y-136249850D01*
X106135000Y-136108600D01*
X108976250Y-136108600D01*
X109135000Y-135949850D01*
X109135000Y-135582291D01*
X109038327Y-135348902D01*
X108859699Y-135170273D01*
X108626310Y-135073600D01*
X106166750Y-135073600D01*
X106008000Y-135232350D01*
X106008000Y-135718575D01*
X105859699Y-135570273D01*
X105626310Y-135473600D01*
X104992000Y-135473600D01*
X104992000Y-135232350D01*
X104833250Y-135073600D01*
X103210000Y-135073600D01*
X103210000Y-133425000D01*
X109107710Y-133425000D01*
X109023173Y-133850000D01*
X109129513Y-134384609D01*
X109432345Y-134837828D01*
X109885564Y-135140660D01*
X110420173Y-135247000D01*
X111979827Y-135247000D01*
X112514436Y-135140660D01*
X112967655Y-134837828D01*
X113270487Y-134384609D01*
X113376827Y-133850000D01*
X113270487Y-133315391D01*
X112967655Y-132862172D01*
X112514436Y-132559340D01*
X112067195Y-132470379D01*
X112021329Y-132239794D01*
X111828618Y-131951382D01*
X110845600Y-130968364D01*
X110845600Y-130521316D01*
X111007630Y-130683629D01*
X111520900Y-130896757D01*
X112076661Y-130897242D01*
X112590303Y-130685010D01*
X112983629Y-130292370D01*
X113196757Y-129779100D01*
X113197242Y-129223339D01*
X112985010Y-128709697D01*
X112592370Y-128316371D01*
X112432772Y-128250100D01*
X112590303Y-128185010D01*
X112983629Y-127792370D01*
X113196757Y-127279100D01*
X113197242Y-126723339D01*
X112985010Y-126209697D01*
X112775658Y-125999979D01*
X112983629Y-125792370D01*
X113196757Y-125279100D01*
X113197242Y-124723339D01*
X112985010Y-124209697D01*
X112592370Y-123816371D01*
X112432772Y-123750100D01*
X112590303Y-123685010D01*
X112983629Y-123292370D01*
X113196757Y-122779100D01*
X113197242Y-122223339D01*
X112985010Y-121709697D01*
X112592370Y-121316371D01*
X112079100Y-121103243D01*
X111523339Y-121102758D01*
X111009697Y-121314990D01*
X110845600Y-121478801D01*
X110845600Y-121031636D01*
X111828618Y-120048618D01*
X111885826Y-119963000D01*
X112021329Y-119760206D01*
X112067195Y-119529621D01*
X112514436Y-119440660D01*
X112967655Y-119137828D01*
X113270487Y-118684609D01*
X113376827Y-118150000D01*
X113270487Y-117615391D01*
X112967655Y-117162172D01*
X112514436Y-116859340D01*
X111979827Y-116753000D01*
X110420173Y-116753000D01*
X109885564Y-116859340D01*
X109432345Y-117162172D01*
X109129513Y-117615391D01*
X109023173Y-118150000D01*
X109101345Y-118543000D01*
X103210000Y-118543000D01*
X103210000Y-116000000D01*
X103155954Y-115728295D01*
X103002046Y-115497954D01*
X102771705Y-115344046D01*
X102554595Y-115300860D01*
X102692623Y-115208632D01*
X102705741Y-115189000D01*
X102989764Y-115189000D01*
X103516782Y-115716018D01*
X103805194Y-115908729D01*
X104145400Y-115976400D01*
X110845600Y-115976400D01*
X111185806Y-115908729D01*
X111474218Y-115716018D01*
X117758519Y-109431717D01*
X117626066Y-109750697D01*
X117625742Y-110122663D01*
X117767787Y-110466439D01*
X118030577Y-110729688D01*
X118374105Y-110872334D01*
X118746071Y-110872658D01*
X119089847Y-110730613D01*
X119353096Y-110467823D01*
X119495742Y-110124295D01*
X119495812Y-110044298D01*
X120154855Y-109385255D01*
X120314530Y-109146285D01*
X120370600Y-108864400D01*
X120370600Y-106948440D01*
X121259600Y-107837441D01*
X121259600Y-107837441D01*
G37*
X121259600Y-107837441D02*
X121259600Y-112330905D01*
X120977093Y-112142139D01*
X120588286Y-112064801D01*
X120199479Y-112142139D01*
X119869865Y-112362380D01*
X119401370Y-112830876D01*
X119181128Y-113160489D01*
X119181128Y-113160490D01*
X119103790Y-113549296D01*
X119103790Y-117224190D01*
X119149896Y-117455980D01*
X119181128Y-117612997D01*
X119335580Y-117844149D01*
X119335580Y-119051207D01*
X116465381Y-121921407D01*
X116465381Y-116594588D01*
X118386397Y-114673572D01*
X118496866Y-114627927D01*
X118760115Y-114365137D01*
X118902761Y-114021609D01*
X118903085Y-113649643D01*
X118761040Y-113305867D01*
X118498250Y-113042618D01*
X118154722Y-112899972D01*
X117782756Y-112899648D01*
X117438980Y-113041693D01*
X117175731Y-113304483D01*
X117129374Y-113416123D01*
X114947763Y-115597734D01*
X114755052Y-115886146D01*
X114687381Y-116226352D01*
X114687381Y-128926381D01*
X114755052Y-129266587D01*
X114929833Y-129528165D01*
X114947763Y-129554999D01*
X120461000Y-135068236D01*
X120461000Y-135802811D01*
X120415162Y-135913201D01*
X120414838Y-136285167D01*
X120556883Y-136628943D01*
X120700491Y-136772802D01*
X120648421Y-137034580D01*
X120725758Y-137423387D01*
X120946000Y-137753000D01*
X121155243Y-137892813D01*
X121150858Y-137914857D01*
X121228195Y-138303664D01*
X121448437Y-138633277D01*
X121522471Y-138682745D01*
X121467601Y-138958600D01*
X121544938Y-139347407D01*
X121765180Y-139677020D01*
X122094793Y-139897262D01*
X122483600Y-139974599D01*
X122872407Y-139897262D01*
X123202020Y-139677020D01*
X124290000Y-138589041D01*
X124290000Y-160554449D01*
X123944100Y-160207945D01*
X123340447Y-159957286D01*
X122686821Y-159956716D01*
X122082731Y-160206320D01*
X121620145Y-160668100D01*
X121369486Y-161271753D01*
X121368916Y-161925379D01*
X121618520Y-162529469D01*
X122080300Y-162992055D01*
X122683953Y-163242714D01*
X123337579Y-163243284D01*
X123941669Y-162993680D01*
X124290000Y-162645956D01*
X124290000Y-172790000D01*
X119137576Y-172790000D01*
X119352854Y-172575098D01*
X119776517Y-171554803D01*
X119777481Y-170450044D01*
X119355599Y-169429011D01*
X118575098Y-168647146D01*
X117554803Y-168223483D01*
X116450044Y-168222519D01*
X115429011Y-168644401D01*
X114647146Y-169424902D01*
X114223483Y-170445197D01*
X114222519Y-171549956D01*
X114644401Y-172570989D01*
X114863030Y-172790000D01*
X105385257Y-172790000D01*
X105786055Y-172389900D01*
X106036714Y-171786247D01*
X106037284Y-171132621D01*
X105787680Y-170528531D01*
X105325900Y-170065945D01*
X104722247Y-169815286D01*
X104068621Y-169814716D01*
X103464531Y-170064320D01*
X103210000Y-170318408D01*
X103210000Y-155143600D01*
X104833250Y-155143600D01*
X104992000Y-154984850D01*
X104992000Y-154743600D01*
X105626310Y-154743600D01*
X105859699Y-154646927D01*
X106008000Y-154498625D01*
X106008000Y-154984850D01*
X106166750Y-155143600D01*
X108626310Y-155143600D01*
X108859699Y-155046927D01*
X109038327Y-154868298D01*
X109135000Y-154634909D01*
X109135000Y-154267350D01*
X108976250Y-154108600D01*
X106135000Y-154108600D01*
X106135000Y-153967350D01*
X105976250Y-153808600D01*
X104972000Y-153808600D01*
X104972000Y-153460000D01*
X113800000Y-153460000D01*
X114071705Y-153405954D01*
X114302046Y-153252046D01*
X114455954Y-153021705D01*
X114510000Y-152750000D01*
X114510000Y-152631040D01*
X116100000Y-152631040D01*
X116347765Y-152581757D01*
X116533208Y-152457847D01*
X116642725Y-152436063D01*
X116898176Y-152265376D01*
X117680124Y-151483428D01*
X117561344Y-151661194D01*
X117484006Y-152050000D01*
X117484006Y-155457006D01*
X117548513Y-155781306D01*
X117561344Y-155845813D01*
X117781586Y-156175426D01*
X119677579Y-158071420D01*
X120007193Y-158291661D01*
X120396000Y-158368999D01*
X120784807Y-158291661D01*
X121114420Y-158071420D01*
X121334661Y-157741807D01*
X121411999Y-157353000D01*
X121334661Y-156964193D01*
X121114420Y-156634579D01*
X119516006Y-155036166D01*
X119516006Y-152050000D01*
X119438668Y-151661194D01*
X119218426Y-151331580D01*
X118888812Y-151111338D01*
X118500006Y-151034000D01*
X118111200Y-151111338D01*
X117787402Y-151327694D01*
X117841009Y-151247465D01*
X117925243Y-151163378D01*
X118067889Y-150819850D01*
X118068213Y-150447884D01*
X117926168Y-150104108D01*
X117855736Y-150033552D01*
X120721688Y-147167600D01*
X120763201Y-147184838D01*
X121135167Y-147185162D01*
X121478943Y-147043117D01*
X121742192Y-146780327D01*
X121884838Y-146436799D01*
X121885162Y-146064833D01*
X121743117Y-145721057D01*
X121522291Y-145499845D01*
X121742192Y-145280327D01*
X121884838Y-144936799D01*
X121885162Y-144564833D01*
X121743117Y-144221057D01*
X121480327Y-143957808D01*
X121136799Y-143815162D01*
X120764833Y-143814838D01*
X120421057Y-143956883D01*
X120387882Y-143990000D01*
X119124996Y-143990000D01*
X118834157Y-144047852D01*
X118587595Y-144212599D01*
X117358244Y-145441950D01*
X117247573Y-145331085D01*
X117394956Y-145270188D01*
X117658205Y-145007398D01*
X117800851Y-144663870D01*
X117801175Y-144291904D01*
X117751845Y-144172517D01*
X117891628Y-143835884D01*
X117891952Y-143463918D01*
X117749907Y-143120142D01*
X117551942Y-142921831D01*
X117552140Y-142694432D01*
X117410095Y-142350656D01*
X117147305Y-142087407D01*
X116803777Y-141944761D01*
X116431811Y-141944437D01*
X116255821Y-142017154D01*
X116100000Y-141986160D01*
X114510000Y-141986160D01*
X114510000Y-137500000D01*
X114455954Y-137228295D01*
X114302046Y-136997954D01*
X114071705Y-136844046D01*
X113800000Y-136790000D01*
X104972000Y-136790000D01*
X104972000Y-136408600D01*
X105976250Y-136408600D01*
X106135000Y-136249850D01*
X106135000Y-136108600D01*
X108976250Y-136108600D01*
X109135000Y-135949850D01*
X109135000Y-135582291D01*
X109038327Y-135348902D01*
X108859699Y-135170273D01*
X108626310Y-135073600D01*
X106166750Y-135073600D01*
X106008000Y-135232350D01*
X106008000Y-135718575D01*
X105859699Y-135570273D01*
X105626310Y-135473600D01*
X104992000Y-135473600D01*
X104992000Y-135232350D01*
X104833250Y-135073600D01*
X103210000Y-135073600D01*
X103210000Y-133425000D01*
X109107710Y-133425000D01*
X109023173Y-133850000D01*
X109129513Y-134384609D01*
X109432345Y-134837828D01*
X109885564Y-135140660D01*
X110420173Y-135247000D01*
X111979827Y-135247000D01*
X112514436Y-135140660D01*
X112967655Y-134837828D01*
X113270487Y-134384609D01*
X113376827Y-133850000D01*
X113270487Y-133315391D01*
X112967655Y-132862172D01*
X112514436Y-132559340D01*
X112067195Y-132470379D01*
X112021329Y-132239794D01*
X111828618Y-131951382D01*
X110845600Y-130968364D01*
X110845600Y-130521316D01*
X111007630Y-130683629D01*
X111520900Y-130896757D01*
X112076661Y-130897242D01*
X112590303Y-130685010D01*
X112983629Y-130292370D01*
X113196757Y-129779100D01*
X113197242Y-129223339D01*
X112985010Y-128709697D01*
X112592370Y-128316371D01*
X112432772Y-128250100D01*
X112590303Y-128185010D01*
X112983629Y-127792370D01*
X113196757Y-127279100D01*
X113197242Y-126723339D01*
X112985010Y-126209697D01*
X112775658Y-125999979D01*
X112983629Y-125792370D01*
X113196757Y-125279100D01*
X113197242Y-124723339D01*
X112985010Y-124209697D01*
X112592370Y-123816371D01*
X112432772Y-123750100D01*
X112590303Y-123685010D01*
X112983629Y-123292370D01*
X113196757Y-122779100D01*
X113197242Y-122223339D01*
X112985010Y-121709697D01*
X112592370Y-121316371D01*
X112079100Y-121103243D01*
X111523339Y-121102758D01*
X111009697Y-121314990D01*
X110845600Y-121478801D01*
X110845600Y-121031636D01*
X111828618Y-120048618D01*
X111885826Y-119963000D01*
X112021329Y-119760206D01*
X112067195Y-119529621D01*
X112514436Y-119440660D01*
X112967655Y-119137828D01*
X113270487Y-118684609D01*
X113376827Y-118150000D01*
X113270487Y-117615391D01*
X112967655Y-117162172D01*
X112514436Y-116859340D01*
X111979827Y-116753000D01*
X110420173Y-116753000D01*
X109885564Y-116859340D01*
X109432345Y-117162172D01*
X109129513Y-117615391D01*
X109023173Y-118150000D01*
X109101345Y-118543000D01*
X103210000Y-118543000D01*
X103210000Y-116000000D01*
X103155954Y-115728295D01*
X103002046Y-115497954D01*
X102771705Y-115344046D01*
X102554595Y-115300860D01*
X102692623Y-115208632D01*
X102705741Y-115189000D01*
X102989764Y-115189000D01*
X103516782Y-115716018D01*
X103805194Y-115908729D01*
X104145400Y-115976400D01*
X110845600Y-115976400D01*
X111185806Y-115908729D01*
X111474218Y-115716018D01*
X117758519Y-109431717D01*
X117626066Y-109750697D01*
X117625742Y-110122663D01*
X117767787Y-110466439D01*
X118030577Y-110729688D01*
X118374105Y-110872334D01*
X118746071Y-110872658D01*
X119089847Y-110730613D01*
X119353096Y-110467823D01*
X119495742Y-110124295D01*
X119495812Y-110044298D01*
X120154855Y-109385255D01*
X120314530Y-109146285D01*
X120370600Y-108864400D01*
X120370600Y-106948440D01*
X121259600Y-107837441D01*
G36*
X124290000Y-132232961D02*
X119380999Y-127323961D01*
X119380999Y-124600441D01*
X122994021Y-120987420D01*
X123214262Y-120657807D01*
X123263412Y-120410710D01*
X123291600Y-120269000D01*
X123291600Y-107416600D01*
X123244945Y-107182046D01*
X123214262Y-107027793D01*
X122994021Y-106698180D01*
X121292220Y-104996380D01*
X120962607Y-104776138D01*
X120938349Y-104771313D01*
X119546419Y-103379383D01*
X119497396Y-103346627D01*
X119492865Y-103343599D01*
X120264699Y-103343599D01*
X120528281Y-103981515D01*
X121015918Y-104470004D01*
X121653373Y-104734699D01*
X122343599Y-104735301D01*
X122981515Y-104471719D01*
X123470004Y-103984082D01*
X123734699Y-103346627D01*
X123735301Y-102656401D01*
X123471719Y-102018485D01*
X122984082Y-101529996D01*
X122346627Y-101265301D01*
X121656401Y-101264699D01*
X121018485Y-101528281D01*
X120529996Y-102015918D01*
X120265301Y-102653373D01*
X120264699Y-103343599D01*
X119492865Y-103343599D01*
X119258007Y-103186672D01*
X118917801Y-103119001D01*
X103759411Y-103119001D01*
X104004714Y-102528247D01*
X104005284Y-101874621D01*
X103755680Y-101270531D01*
X103293900Y-100807945D01*
X103058023Y-100710000D01*
X124290000Y-100710000D01*
X124290000Y-132232961D01*
X124290000Y-132232961D01*
G37*
X124290000Y-132232961D02*
X119380999Y-127323961D01*
X119380999Y-124600441D01*
X122994021Y-120987420D01*
X123214262Y-120657807D01*
X123263412Y-120410710D01*
X123291600Y-120269000D01*
X123291600Y-107416600D01*
X123244945Y-107182046D01*
X123214262Y-107027793D01*
X122994021Y-106698180D01*
X121292220Y-104996380D01*
X120962607Y-104776138D01*
X120938349Y-104771313D01*
X119546419Y-103379383D01*
X119497396Y-103346627D01*
X119492865Y-103343599D01*
X120264699Y-103343599D01*
X120528281Y-103981515D01*
X121015918Y-104470004D01*
X121653373Y-104734699D01*
X122343599Y-104735301D01*
X122981515Y-104471719D01*
X123470004Y-103984082D01*
X123734699Y-103346627D01*
X123735301Y-102656401D01*
X123471719Y-102018485D01*
X122984082Y-101529996D01*
X122346627Y-101265301D01*
X121656401Y-101264699D01*
X121018485Y-101528281D01*
X120529996Y-102015918D01*
X120265301Y-102653373D01*
X120264699Y-103343599D01*
X119492865Y-103343599D01*
X119258007Y-103186672D01*
X118917801Y-103119001D01*
X103759411Y-103119001D01*
X104004714Y-102528247D01*
X104005284Y-101874621D01*
X103755680Y-101270531D01*
X103293900Y-100807945D01*
X103058023Y-100710000D01*
X124290000Y-100710000D01*
X124290000Y-132232961D01*
M02*
