M48
;DRILL file {KiCad no-vcs-found-undefined} date Tue Nov  8 14:50:59 2016
;FORMAT={-:-/ absolute / metric / decimal}
FMAT,2
METRIC,TZ
T1C0.400
T2C0.500
T3C0.700
T4C0.800
T5C2.800
T6C5.500
%
G90
G05
M71
T1
X108.8Y-155.2
X116.617Y-142.88
X116.681Y-146.087
X116.866Y-144.477
X116.898Y-147.898
X116.957Y-143.649
X117.133Y-150.633
X117.968Y-113.835
X118.05Y-136.15
X118.288Y-105.613
X118.5Y-152.05
X118.561Y-109.937
X118.6Y-146.2
X118.948Y-106.985
X119.253Y-111.227
X120.396Y-157.353
X120.588Y-113.081
X120.95Y-144.75
X120.95Y-146.25
X121.082Y-116.281
X121.35Y-136.1
X121.664Y-137.035
X122.167Y-137.915
X122.484Y-138.959
T3
X109.068Y-136.093
X111.125Y-136.119
X113.843Y-114.884
X115.75Y-155.85
X118.643Y-115.189
X120.701Y-109.931
X121.6Y-149.3
X121.615Y-151.74
X121.65Y-148.
X121.65Y-150.55
X122.8Y-140.9
X122.8Y-142.
X123.8Y-109.804
T4
X111.8Y-122.5
X111.8Y-125.
X111.8Y-127.
X111.8Y-129.5
T5
X122.Y-126.
T6
X111.Y-172.5
X114.Y-100.
T2
X100.8Y-105.7G85X101.8Y-105.7
G05
X100.8Y-114.3G85X101.8Y-114.3
G05
T4
X111.9Y-118.15G85X110.5Y-118.15
G05
X111.9Y-133.85G85X110.5Y-133.85
G05
T0
M30
