G04 #@! TF.FileFunction,Paste,Top*
%FSLAX46Y46*%
G04 Gerber Fmt 4.6, Leading zero omitted, Abs format (unit mm)*
G04 Created by KiCad (PCBNEW no-vcs-found-undefined) date Tue Nov  8 14:50:56 2016*
%MOMM*%
%LPD*%
G01*
G04 APERTURE LIST*
%ADD10C,0.600000*%
%ADD11C,0.150000*%
%ADD12R,1.280000X0.230000*%
%ADD13R,2.580000X2.380000*%
%ADD14R,0.780000X1.580000*%
%ADD15R,2.080000X2.980000*%
%ADD16R,0.996000X0.996000*%
%ADD17R,0.480000X0.530000*%
%ADD18R,1.422400X1.168400*%
%ADD19R,0.530000X0.480000*%
%ADD20O,2.180000X1.280000*%
%ADD21R,1.580000X1.510000*%
%ADD22R,2.390000X2.390000*%
%ADD23C,1.504000*%
%ADD24O,2.980000X1.504000*%
G04 APERTURE END LIST*
D10*
D11*
X102500000Y-152750000D02*
X102500000Y-173500000D01*
X102500000Y-137500000D02*
X102500000Y-132715000D01*
X113800000Y-137500000D02*
X113800000Y-152750000D01*
X102500000Y-137500000D02*
X113800000Y-137500000D01*
X102500000Y-152750000D02*
X113800000Y-152750000D01*
X102500000Y-116000000D02*
X102500000Y-119253000D01*
X109347000Y-132715000D02*
X102500000Y-132715000D01*
X109347000Y-119253000D02*
X109347000Y-132715000D01*
X102500000Y-119253000D02*
X109347000Y-119253000D01*
X99500000Y-113284000D02*
X99500000Y-116000000D01*
X110900000Y-113284000D02*
X99500000Y-113284000D01*
X110900000Y-106680000D02*
X110900000Y-113284000D01*
X99500000Y-106680000D02*
X110900000Y-106680000D01*
X102500000Y-173500000D02*
X125000000Y-173500000D01*
X125000000Y-100000000D02*
X125000000Y-173500000D01*
X99500000Y-100000000D02*
X125000000Y-100000000D01*
X99500000Y-116000000D02*
X102500000Y-116000000D01*
X99500000Y-100000000D02*
X99500000Y-106680000D01*
D12*
X119750000Y-133750000D03*
X119750000Y-134250000D03*
X119750000Y-134750000D03*
X119750000Y-135250000D03*
X119750000Y-135750000D03*
X119750000Y-136250000D03*
X119750000Y-136750000D03*
X119750000Y-137250000D03*
X119750000Y-137750000D03*
X119750000Y-138250000D03*
X119750000Y-138750000D03*
X119750000Y-139250000D03*
X119750000Y-139750000D03*
X119750000Y-140250000D03*
X119750000Y-140750000D03*
X119750000Y-141250000D03*
X119750000Y-141750000D03*
X119750000Y-142250000D03*
X119750000Y-142750000D03*
X119750000Y-143250000D03*
X119750000Y-143750000D03*
X119750000Y-144250000D03*
X119750000Y-144750000D03*
X119750000Y-145250000D03*
X119750000Y-145750000D03*
X119750000Y-146250000D03*
X119750000Y-146750000D03*
X119750000Y-147250000D03*
X119750000Y-147750000D03*
X119750000Y-148250000D03*
X119750000Y-148750000D03*
X119750000Y-149250000D03*
X119750000Y-149750000D03*
X119750000Y-150250000D03*
X119750000Y-150750000D03*
X119750000Y-151250000D03*
X119750000Y-151750000D03*
X119750000Y-152250000D03*
X119750000Y-152750000D03*
X119750000Y-153250000D03*
D13*
X121850000Y-131600000D03*
X121850000Y-155400000D03*
D14*
X118884000Y-163367000D03*
X120384000Y-163367000D03*
D15*
X116334000Y-166267000D03*
X122934000Y-166267000D03*
D16*
X116636800Y-120599200D03*
X114858800Y-120599200D03*
D17*
X108712000Y-158419800D03*
X109728000Y-158419800D03*
X112268000Y-158419800D03*
X113284000Y-158419800D03*
X110490000Y-158419800D03*
X111506000Y-158419800D03*
D16*
X115800000Y-147889000D03*
X115800000Y-146111000D03*
D18*
X116560600Y-118135400D03*
X114528600Y-118135400D03*
X116611400Y-122504200D03*
X114579400Y-122504200D03*
D16*
X123012200Y-107899200D03*
X121234200Y-107899200D03*
D19*
X117856000Y-106045000D03*
X117856000Y-107061000D03*
X117856000Y-107899200D03*
X117856000Y-108915200D03*
X117881400Y-105130600D03*
X117881400Y-104114600D03*
D17*
X119938800Y-107899200D03*
X118922800Y-107899200D03*
D20*
X101300000Y-114300000D03*
X101300000Y-105700000D03*
D21*
X103700000Y-105935000D03*
X107550000Y-114065000D03*
X110050000Y-105935000D03*
X110050000Y-114065000D03*
D22*
X106400000Y-134000000D03*
D23*
X111800000Y-122500000D03*
X111800000Y-125000000D03*
X111800000Y-127000000D03*
X111800000Y-129500000D03*
D24*
X111200000Y-118150000D03*
X111200000Y-133850000D03*
D22*
X106400000Y-118000000D03*
M02*
