G04 #@! TF.FileFunction,Copper,L1,Top,Signal*
%FSLAX46Y46*%
G04 Gerber Fmt 4.6, Leading zero omitted, Abs format (unit mm)*
G04 Created by KiCad (PCBNEW no-vcs-found-undefined) date Tue Nov  8 14:51:07 2016*
%MOMM*%
%LPD*%
G01*
G04 APERTURE LIST*
%ADD10C,0.600000*%
%ADD11R,1.300000X0.250000*%
%ADD12R,2.600000X2.400000*%
%ADD13C,0.900000*%
%ADD14C,7.000000*%
%ADD15C,6.000000*%
%ADD16R,0.800000X1.600000*%
%ADD17R,2.100000X3.000000*%
%ADD18C,1.000000*%
%ADD19R,1.016000X1.016000*%
%ADD20R,0.500000X0.550000*%
%ADD21R,1.524000X1.270000*%
%ADD22R,1.500000X2.500000*%
%ADD23O,1.500000X2.500000*%
%ADD24R,0.550000X0.500000*%
%ADD25O,2.200000X1.300000*%
%ADD26R,1.600000X1.530000*%
%ADD27R,2.400000X2.400000*%
%ADD28R,5.000000X2.600000*%
%ADD29C,1.524000*%
%ADD30O,3.000000X1.524000*%
%ADD31C,0.600000*%
%ADD32C,0.250000*%
%ADD33C,0.508000*%
%ADD34C,0.304800*%
%ADD35C,0.762000*%
%ADD36C,0.203200*%
%ADD37C,0.254000*%
G04 APERTURE END LIST*
D10*
D11*
X119750000Y-133750000D03*
X119750000Y-134250000D03*
X119750000Y-134750000D03*
X119750000Y-135250000D03*
X119750000Y-135750000D03*
X119750000Y-136250000D03*
X119750000Y-136750000D03*
X119750000Y-137250000D03*
X119750000Y-137750000D03*
X119750000Y-138250000D03*
X119750000Y-138750000D03*
X119750000Y-139250000D03*
X119750000Y-139750000D03*
X119750000Y-140250000D03*
X119750000Y-140750000D03*
X119750000Y-141250000D03*
X119750000Y-141750000D03*
X119750000Y-142250000D03*
X119750000Y-142750000D03*
X119750000Y-143250000D03*
X119750000Y-143750000D03*
X119750000Y-144250000D03*
X119750000Y-144750000D03*
X119750000Y-145250000D03*
X119750000Y-145750000D03*
X119750000Y-146250000D03*
X119750000Y-146750000D03*
X119750000Y-147250000D03*
X119750000Y-147750000D03*
X119750000Y-148250000D03*
X119750000Y-148750000D03*
X119750000Y-149250000D03*
X119750000Y-149750000D03*
X119750000Y-150250000D03*
X119750000Y-150750000D03*
X119750000Y-151250000D03*
X119750000Y-151750000D03*
X119750000Y-152250000D03*
X119750000Y-152750000D03*
X119750000Y-153250000D03*
D12*
X121850000Y-131600000D03*
X121850000Y-155400000D03*
D13*
X121650000Y-148000000D03*
X121600000Y-149300000D03*
X121650000Y-150550000D03*
X115750000Y-155850000D03*
X123799600Y-109804200D03*
X120700800Y-109931200D03*
X118643400Y-115189000D03*
X113842800Y-114884200D03*
X121615200Y-151739600D03*
X122800000Y-142000000D03*
X122800000Y-140900000D03*
X111125000Y-136118600D03*
D14*
X114000000Y-100000000D03*
X111000000Y-172500000D03*
D15*
X122000000Y-126000000D03*
D16*
X118884000Y-163367000D03*
X120384000Y-163367000D03*
D17*
X116334000Y-166267000D03*
X122934000Y-166267000D03*
D18*
X104394000Y-171458000D03*
X102362000Y-102235000D03*
X123012200Y-161594800D03*
D19*
X116636800Y-120599200D03*
X114858800Y-120599200D03*
D20*
X108712000Y-158419800D03*
X109728000Y-158419800D03*
X112268000Y-158419800D03*
X113284000Y-158419800D03*
X110490000Y-158419800D03*
X111506000Y-158419800D03*
D19*
X115800000Y-147889000D03*
X115800000Y-146111000D03*
D21*
X116560600Y-118135400D03*
X114528600Y-118135400D03*
X116611400Y-122504200D03*
X114579400Y-122504200D03*
D22*
X112268001Y-162229800D03*
D23*
X109728001Y-162229800D03*
D19*
X123012200Y-107899200D03*
X121234200Y-107899200D03*
D24*
X117856000Y-106045000D03*
X117856000Y-107061000D03*
X117856000Y-107899200D03*
X117856000Y-108915200D03*
X117881400Y-105130600D03*
X117881400Y-104114600D03*
D20*
X119938800Y-107899200D03*
X118922800Y-107899200D03*
D13*
X109067600Y-136093200D03*
D25*
X101300000Y-114300000D03*
X101300000Y-105700000D03*
D26*
X103700000Y-105935000D03*
X107550000Y-114065000D03*
X110050000Y-105935000D03*
X110050000Y-114065000D03*
D27*
X106400000Y-134000000D03*
D28*
X106000000Y-134000000D03*
X106000000Y-118000000D03*
D29*
X111800000Y-122500000D03*
X111800000Y-125000000D03*
X111800000Y-127000000D03*
X111800000Y-129500000D03*
D30*
X111200000Y-118150000D03*
X111200000Y-133850000D03*
D27*
X106400000Y-118000000D03*
D31*
X118050000Y-136150000D03*
X108800000Y-155200000D03*
X119253000Y-111226600D03*
X118287800Y-105613200D03*
X118560904Y-109937496D03*
X118948200Y-106984800D03*
X116898004Y-147898004D03*
X116681293Y-146087261D03*
X122483600Y-138958600D03*
X121664420Y-137034580D03*
X120588286Y-113080800D03*
X122166857Y-137914857D03*
X121081800Y-116281200D03*
X121350000Y-136100000D03*
X117967923Y-113834810D03*
X116616978Y-142879599D03*
X116956790Y-143649085D03*
X116866013Y-144477071D03*
X120950000Y-144750000D03*
X118599998Y-146200000D03*
X120950000Y-146250000D03*
X118500006Y-152050000D03*
X120396000Y-157353000D03*
X117133051Y-150633051D03*
D32*
X118750000Y-139750000D02*
X119750000Y-139750000D01*
X118750000Y-140250000D02*
X119750000Y-140250000D01*
X118750000Y-140250000D02*
X118182550Y-140250000D01*
X118182550Y-140250000D02*
X117883975Y-139951425D01*
X118750000Y-139750000D02*
X118085400Y-139750000D01*
X118085400Y-139750000D02*
X117883975Y-139951425D01*
D33*
X116611400Y-122504200D02*
X116611400Y-122783952D01*
X116611400Y-122783952D02*
X114452400Y-124942952D01*
X114452400Y-124942952D02*
X114452400Y-126866650D01*
X114452400Y-126866650D02*
X116706481Y-129120730D01*
X116706481Y-129120730D02*
X116706481Y-138773931D01*
X116706481Y-138773931D02*
X117883975Y-139951425D01*
X116636800Y-120599200D02*
X116636800Y-122478800D01*
X116636800Y-122478800D02*
X116611400Y-122504200D01*
D32*
X118750000Y-141750000D02*
X119750000Y-141750000D01*
X118750000Y-142250000D02*
X119750000Y-142250000D01*
D34*
X117700000Y-142250000D02*
X117256400Y-142250000D01*
D32*
X118750000Y-142250000D02*
X117700000Y-142250000D01*
D34*
X117700000Y-141750000D02*
X117112000Y-141750000D01*
D32*
X118750000Y-141750000D02*
X117700000Y-141750000D01*
D35*
X116476192Y-119447992D02*
X114960400Y-119447992D01*
X114960400Y-119447992D02*
X112539310Y-119447992D01*
D33*
X114858800Y-120599200D02*
X114858800Y-119549592D01*
X114858800Y-119549592D02*
X114960400Y-119447992D01*
D35*
X116538399Y-119510199D02*
X116476192Y-119447992D01*
X112539310Y-119447992D02*
X111865284Y-120122018D01*
X111865284Y-120122018D02*
X111846504Y-120122018D01*
X111846504Y-120122018D02*
X110032800Y-121935722D01*
X110032800Y-121935722D02*
X110032800Y-128879600D01*
X110032800Y-128879600D02*
X110653200Y-129500000D01*
X110653200Y-129500000D02*
X111800000Y-129500000D01*
X116560600Y-118135400D02*
X116560600Y-119510199D01*
X111800000Y-129500000D02*
X113777400Y-129500000D01*
X113777400Y-129500000D02*
X115065049Y-130787649D01*
X115065049Y-130787649D02*
X115065049Y-140030154D01*
X115065049Y-140030154D02*
X117083719Y-142048824D01*
D34*
X117256400Y-142250000D02*
X117112000Y-142067390D01*
X117112000Y-142067390D02*
X117112000Y-142105600D01*
D35*
X117112000Y-142054958D02*
X117112000Y-142067390D01*
D34*
X117112000Y-142105600D02*
X117112000Y-141750000D01*
X117112000Y-141750000D02*
X115189000Y-139827000D01*
X115189000Y-139827000D02*
X115189000Y-139808669D01*
X115189000Y-139808669D02*
X114993052Y-139612721D01*
D32*
X119750000Y-135750000D02*
X120774998Y-135750000D01*
X120774998Y-135750000D02*
X121274998Y-135250000D01*
X121274998Y-135250000D02*
X121800000Y-135250000D01*
X121800000Y-135250000D02*
X123249999Y-136699999D01*
X123249999Y-136699999D02*
X123249999Y-140450001D01*
X123249999Y-140450001D02*
X122800000Y-140900000D01*
X119750000Y-135750000D02*
X118450000Y-135750000D01*
X118450000Y-135750000D02*
X118050000Y-136150000D01*
X119750000Y-148750000D02*
X120650000Y-148750000D01*
X120655490Y-148744510D02*
X121000000Y-148744510D01*
X120650000Y-148750000D02*
X120655490Y-148744510D01*
X121000000Y-147750000D02*
X121000000Y-148250000D01*
X121000000Y-148250000D02*
X121000000Y-148744510D01*
X119750000Y-148250000D02*
X121000000Y-148250000D01*
X121000000Y-147250000D02*
X121000000Y-147750000D01*
X121000000Y-148744510D02*
X120963484Y-148781026D01*
X119750000Y-147750000D02*
X121000000Y-147750000D01*
X119750000Y-147250000D02*
X121000000Y-147250000D01*
X119750000Y-150250000D02*
X121453800Y-150250000D01*
X121453800Y-150250000D02*
X121615200Y-150088600D01*
X119750000Y-150750000D02*
X121362200Y-150750000D01*
X119750000Y-151250000D02*
X120527070Y-151250000D01*
X120527070Y-151250000D02*
X120534070Y-151257000D01*
X108712000Y-158419800D02*
X108712000Y-155288000D01*
X108712000Y-155288000D02*
X108800000Y-155200000D01*
D36*
X120534070Y-151257000D02*
X120978804Y-151701734D01*
X120978804Y-151701734D02*
X120978804Y-151739600D01*
X120978804Y-151739600D02*
X121615200Y-151739600D01*
D33*
X117881400Y-104114600D02*
X117856400Y-104114600D01*
X117856400Y-104114600D02*
X114000000Y-100258200D01*
X114000000Y-100258200D02*
X114000000Y-100000000D01*
D34*
X117856000Y-108915200D02*
X117856000Y-110198146D01*
X118884454Y-111226600D02*
X119253000Y-111226600D01*
X117856000Y-110198146D02*
X118884454Y-111226600D01*
D33*
X121615200Y-150088600D02*
X121615200Y-151003000D01*
X121615200Y-151003000D02*
X121615200Y-151739600D01*
X121362200Y-150750000D02*
X121615200Y-151003000D01*
X120963484Y-149436884D02*
X121615200Y-150088600D01*
X120963484Y-148781026D02*
X120963484Y-149436884D01*
D32*
X123367800Y-127367800D02*
X122000000Y-126000000D01*
X104500000Y-153408600D02*
X104500000Y-154258600D01*
X104500000Y-154258600D02*
X108661200Y-158419800D01*
X108661200Y-158419800D02*
X108712000Y-158419800D01*
X117850000Y-149750000D02*
X117850000Y-150800000D01*
X117850000Y-150800000D02*
X110950000Y-157700000D01*
X110950000Y-157700000D02*
X110684800Y-157700000D01*
X119750000Y-149250000D02*
X118350000Y-149250000D01*
X118350000Y-149250000D02*
X117850000Y-149750000D01*
X110684800Y-157700000D02*
X110490000Y-157894800D01*
X110490000Y-157894800D02*
X110490000Y-158419800D01*
D34*
X110490000Y-158419800D02*
X110490000Y-158394800D01*
X109728000Y-158419800D02*
X109728000Y-158999600D01*
X109728000Y-158999600D02*
X109728000Y-159232600D01*
X110490000Y-158419800D02*
X109728000Y-158419800D01*
D33*
X109728000Y-160471799D02*
X109728000Y-159232600D01*
X109728001Y-162229800D02*
X109728000Y-160471799D01*
D32*
X119750000Y-149750000D02*
X118850000Y-149750000D01*
X118850000Y-149750000D02*
X118335187Y-150264813D01*
X118335187Y-150264813D02*
X118335187Y-151160508D01*
X118335187Y-151160508D02*
X111506000Y-157989694D01*
X111506000Y-157989694D02*
X111506000Y-158419800D01*
D34*
X112268000Y-158419800D02*
X112268000Y-159232600D01*
X111506000Y-158419800D02*
X112268000Y-158419800D01*
D33*
X112268000Y-160471799D02*
X112268000Y-159232600D01*
X112268001Y-162229800D02*
X112268000Y-160471799D01*
D34*
X118750001Y-128809974D02*
X118750000Y-133750000D01*
X118755218Y-128804758D02*
X118750001Y-128809974D01*
X118532223Y-123735553D02*
X118301483Y-123966293D01*
X118532223Y-121017777D02*
X118532223Y-123735553D01*
X121234200Y-108712000D02*
X123601373Y-111079173D01*
X123601373Y-115948627D02*
X118532223Y-121017777D01*
X118301483Y-123966293D02*
X118301483Y-128351024D01*
X121234200Y-107899200D02*
X121234200Y-108712000D01*
X118301483Y-128351024D02*
X118755218Y-128804758D01*
X123601373Y-111079173D02*
X123601373Y-115948627D01*
D32*
X119750000Y-133750000D02*
X118750000Y-133750000D01*
D34*
X119938800Y-107899200D02*
X121234200Y-107899200D01*
D36*
X117932118Y-135250000D02*
X118896800Y-135250000D01*
X118896800Y-135250000D02*
X119750000Y-135250000D01*
X118560904Y-109937496D02*
X118860903Y-110237495D01*
X117675001Y-120653355D02*
X117675001Y-123312705D01*
X117262091Y-123725615D02*
X117262091Y-134579973D01*
X121764409Y-112874409D02*
X121764409Y-116563947D01*
X118860903Y-110237495D02*
X119127495Y-110237495D01*
X119127495Y-110237495D02*
X121764409Y-112874409D01*
X117262091Y-134579973D02*
X117932118Y-135250000D01*
X121764409Y-116563947D02*
X117675001Y-120653355D01*
X117675001Y-123312705D02*
X117262091Y-123725615D01*
D34*
X117856000Y-106045000D02*
X117856000Y-105613200D01*
X117856000Y-105613200D02*
X117856000Y-105156000D01*
D36*
X118287800Y-105613200D02*
X117856000Y-105613200D01*
D34*
X117856000Y-105156000D02*
X117881400Y-105130600D01*
D36*
X122167620Y-112693420D02*
X118922800Y-109448600D01*
X118078212Y-123547496D02*
X118078212Y-120820370D01*
X117798399Y-134151599D02*
X117798399Y-123827309D01*
X122167620Y-116730962D02*
X122167620Y-112693420D01*
X118922800Y-109448600D02*
X118922800Y-108377400D01*
X117798399Y-123827309D02*
X118078212Y-123547496D01*
X118078212Y-120820370D02*
X122167620Y-116730962D01*
X118922800Y-108377400D02*
X118922800Y-107899200D01*
X118750000Y-134250000D02*
X119750000Y-134250000D01*
X118750000Y-134750000D02*
X119750000Y-134750000D01*
X117948542Y-134696200D02*
X117798399Y-134546057D01*
X117798399Y-134546057D02*
X117798399Y-134151599D01*
X118011400Y-134750000D02*
X117957600Y-134696200D01*
X117957600Y-134696200D02*
X117948542Y-134696200D01*
X118750000Y-134750000D02*
X118011400Y-134750000D01*
X118750000Y-134250000D02*
X117896800Y-134250000D01*
X117896800Y-134250000D02*
X117798399Y-134151599D01*
D34*
X118922800Y-107899200D02*
X118922800Y-107010200D01*
X118922800Y-107010200D02*
X118948200Y-106984800D01*
X117856000Y-107899200D02*
X117856000Y-107061000D01*
X118922800Y-107899200D02*
X117856000Y-107899200D01*
X116898004Y-147898004D02*
X115809004Y-147898004D01*
X115809004Y-147898004D02*
X115800000Y-147889000D01*
X116898004Y-147898004D02*
X116898004Y-146936440D01*
X116898004Y-146936440D02*
X118584444Y-145250000D01*
X118584444Y-145250000D02*
X118659628Y-145250000D01*
D36*
X118896800Y-145250000D02*
X119750000Y-145250000D01*
X118659628Y-145250000D02*
X118896800Y-145250000D01*
D34*
X116681293Y-146087261D02*
X116981292Y-145787262D01*
X116981292Y-145787262D02*
X116981292Y-145768708D01*
X116981292Y-145768708D02*
X118500000Y-144250000D01*
X115800000Y-146111000D02*
X116657554Y-146111000D01*
X116657554Y-146111000D02*
X116681293Y-146087261D01*
D32*
X118500000Y-144250000D02*
X119750000Y-144250000D01*
X119750000Y-139250000D02*
X122192200Y-139250000D01*
X122192200Y-139250000D02*
X122483600Y-138958600D01*
X119750000Y-138750000D02*
X122275000Y-138750000D01*
X122275000Y-138750000D02*
X122483600Y-138958600D01*
D33*
X120164022Y-113080800D02*
X120588286Y-113080800D01*
X110831403Y-104063800D02*
X119848403Y-113080800D01*
X105606200Y-104063800D02*
X110831403Y-104063800D01*
X103735000Y-105935000D02*
X105606200Y-104063800D01*
X103700000Y-105935000D02*
X103735000Y-105935000D01*
X119848403Y-113080800D02*
X120164022Y-113080800D01*
D32*
X119750000Y-137250000D02*
X121449000Y-137250000D01*
X121449000Y-137250000D02*
X121664420Y-137034580D01*
X119750000Y-136750000D02*
X121379840Y-136750000D01*
X121379840Y-136750000D02*
X121664420Y-137034580D01*
D33*
X104150000Y-105935000D02*
X104185000Y-105935000D01*
D32*
X119750000Y-138250000D02*
X121831714Y-138250000D01*
X121831714Y-138250000D02*
X122166857Y-137914857D01*
X119750000Y-137750000D02*
X122002000Y-137750000D01*
X122002000Y-137750000D02*
X122166857Y-137914857D01*
D35*
X107708000Y-115792000D02*
X107550000Y-115634000D01*
X107550000Y-115634000D02*
X107550000Y-114065000D01*
X109312000Y-115792000D02*
X107708000Y-115792000D01*
X121081800Y-116281200D02*
X121031000Y-116332000D01*
X121031000Y-116332000D02*
X109852000Y-116332000D01*
X109852000Y-116332000D02*
X109312000Y-115792000D01*
D33*
X117950000Y-112200000D02*
X117967923Y-112217923D01*
X111701327Y-105935000D02*
X117950000Y-112183673D01*
X117950000Y-112183673D02*
X117950000Y-112200000D01*
X117967923Y-112217923D02*
X117967923Y-113834810D01*
D32*
X121200000Y-136250000D02*
X121350000Y-136100000D01*
X119750000Y-136250000D02*
X121200000Y-136250000D01*
D33*
X111701327Y-105935000D02*
X110050000Y-105935000D01*
X110500000Y-105935000D02*
X111701327Y-105935000D01*
X111800000Y-122500000D02*
X114575200Y-122500000D01*
X114575200Y-122500000D02*
X114579400Y-122504200D01*
D32*
X118750000Y-142750000D02*
X119750000Y-142750000D01*
X118750000Y-142750000D02*
X117850000Y-142750000D01*
X117776610Y-142823390D02*
X116673187Y-142823390D01*
X117850000Y-142750000D02*
X117776610Y-142823390D01*
X116673187Y-142823390D02*
X116616978Y-142879599D01*
D36*
X118750000Y-143250000D02*
X119750000Y-143250000D01*
X117355875Y-143250000D02*
X117256789Y-143349086D01*
X118750000Y-143250000D02*
X117355875Y-143250000D01*
X117256789Y-143349086D02*
X116956790Y-143649085D01*
X118750000Y-143250000D02*
X117506400Y-143250000D01*
X118750000Y-143750000D02*
X119750000Y-143750000D01*
D32*
X117800335Y-143750000D02*
X117073264Y-144477071D01*
X118750000Y-143750000D02*
X117800335Y-143750000D01*
X117073264Y-144477071D02*
X116866013Y-144477071D01*
D36*
X118750000Y-143750000D02*
X117896800Y-143750000D01*
D32*
X120950000Y-144750000D02*
X119750000Y-144750000D01*
X118896800Y-145753200D02*
X118599998Y-146050002D01*
X118599998Y-146050002D02*
X118599998Y-146200000D01*
X118896800Y-145750000D02*
X118896800Y-145753200D01*
D36*
X118896800Y-145750000D02*
X119750000Y-145750000D01*
X120950000Y-146250000D02*
X119750000Y-146250000D01*
D32*
X117896800Y-140750000D02*
X118800000Y-140750000D01*
X118800000Y-140750000D02*
X119750000Y-140750000D01*
D36*
X116150871Y-129350871D02*
X116150871Y-139004071D01*
X116150871Y-139004071D02*
X117896800Y-140750000D01*
X113080800Y-126280800D02*
X116150871Y-129350871D01*
D33*
X111800000Y-125000000D02*
X112561999Y-125761999D01*
X112561999Y-125761999D02*
X113080800Y-126280800D01*
D32*
X118750000Y-141250000D02*
X119750000Y-141250000D01*
X118750000Y-141250000D02*
X117518711Y-141250000D01*
D36*
X115747660Y-139478949D02*
X117518711Y-141250000D01*
X115747660Y-129768460D02*
X115747660Y-139478949D01*
X112979200Y-127000000D02*
X115747660Y-129768460D01*
D33*
X111800000Y-127000000D02*
X112979200Y-127000000D01*
D32*
X119750000Y-152250000D02*
X118700006Y-152250000D01*
X118700006Y-152250000D02*
X118500006Y-152050000D01*
X119750000Y-151750000D02*
X118800006Y-151750000D01*
X118800006Y-151750000D02*
X118500006Y-152050000D01*
D35*
X120384000Y-163367000D02*
X120384000Y-157365000D01*
X120384000Y-157365000D02*
X120396000Y-157353000D01*
D36*
X119750000Y-153250000D02*
X117893200Y-153250000D01*
X117893200Y-153250000D02*
X117856000Y-153212800D01*
X117856000Y-153212800D02*
X117856000Y-152984200D01*
X119750000Y-152750000D02*
X117896800Y-152750000D01*
X117896800Y-152750000D02*
X117856000Y-152790800D01*
X117856000Y-152790800D02*
X117856000Y-152984200D01*
D35*
X117627400Y-156946600D02*
X118884000Y-158203200D01*
X118884000Y-158203200D02*
X118884000Y-163367000D01*
X117627400Y-153060400D02*
X117627400Y-156946600D01*
X117703600Y-152984200D02*
X117627400Y-153060400D01*
X117856000Y-152984200D02*
X117703600Y-152984200D01*
D36*
X117133051Y-148513749D02*
X117133051Y-150208787D01*
X119750000Y-146750000D02*
X118896800Y-146750000D01*
X117133051Y-150208787D02*
X117133051Y-150633051D01*
X118896800Y-146750000D02*
X117133051Y-148513749D01*
D35*
X111200000Y-118150000D02*
X114514000Y-118150000D01*
X114514000Y-118150000D02*
X114528600Y-118135400D01*
X106400000Y-134000000D02*
X111050000Y-134000000D01*
X111050000Y-134000000D02*
X111200000Y-133850000D01*
X106400000Y-118000000D02*
X111050000Y-118000000D01*
X111050000Y-118000000D02*
X111200000Y-118150000D01*
D37*
G36*
X115886110Y-142288055D02*
X115824786Y-142349272D01*
X115682140Y-142692800D01*
X115681816Y-143064766D01*
X115823861Y-143408542D01*
X116021826Y-143606853D01*
X116021628Y-143834252D01*
X116070958Y-143953639D01*
X115931175Y-144290272D01*
X115930851Y-144662238D01*
X116052049Y-144955560D01*
X115292000Y-144955560D01*
X115044235Y-145004843D01*
X114834191Y-145145191D01*
X114693843Y-145355235D01*
X114644560Y-145603000D01*
X114644560Y-146619000D01*
X114693843Y-146866765D01*
X114782868Y-147000000D01*
X114693843Y-147133235D01*
X114644560Y-147381000D01*
X114644560Y-148397000D01*
X114693843Y-148644765D01*
X114834191Y-148854809D01*
X115044235Y-148995157D01*
X115292000Y-149044440D01*
X116308000Y-149044440D01*
X116396451Y-149026846D01*
X116396451Y-150047229D01*
X116340859Y-150102724D01*
X116198213Y-150446252D01*
X116197889Y-150818218D01*
X116339934Y-151161994D01*
X116376537Y-151198661D01*
X110622882Y-156952316D01*
X110393961Y-156997852D01*
X110147399Y-157162599D01*
X109952599Y-157357399D01*
X109859080Y-157497360D01*
X109478000Y-157497360D01*
X109230235Y-157546643D01*
X109209961Y-157560190D01*
X109088309Y-157509800D01*
X108995750Y-157509800D01*
X108837000Y-157668550D01*
X108837000Y-158112424D01*
X108830560Y-158144800D01*
X108830560Y-158694800D01*
X108837000Y-158727176D01*
X108837000Y-159171050D01*
X108848880Y-159182930D01*
X108839000Y-159232600D01*
X108839000Y-160653163D01*
X108748658Y-160713528D01*
X108448428Y-161162854D01*
X108343001Y-161692871D01*
X108343001Y-162766729D01*
X108448428Y-163296746D01*
X108748658Y-163746072D01*
X109197984Y-164046302D01*
X109728001Y-164151729D01*
X110258018Y-164046302D01*
X110707344Y-163746072D01*
X110873933Y-163496754D01*
X110919844Y-163727565D01*
X111060192Y-163937609D01*
X111270236Y-164077957D01*
X111518001Y-164127240D01*
X113018001Y-164127240D01*
X113265766Y-164077957D01*
X113475810Y-163937609D01*
X113616158Y-163727565D01*
X113665441Y-163479800D01*
X113665441Y-160979800D01*
X113616158Y-160732035D01*
X113475810Y-160521991D01*
X113265766Y-160381643D01*
X113157000Y-160360008D01*
X113157000Y-159232600D01*
X113147120Y-159182930D01*
X113159000Y-159171050D01*
X113159000Y-158727176D01*
X113165440Y-158694800D01*
X113165440Y-158546800D01*
X113409000Y-158546800D01*
X113409000Y-159171050D01*
X113567750Y-159329800D01*
X113660309Y-159329800D01*
X113893698Y-159233127D01*
X114072327Y-159054499D01*
X114169000Y-158821110D01*
X114169000Y-158705550D01*
X114010250Y-158546800D01*
X113409000Y-158546800D01*
X113165440Y-158546800D01*
X113165440Y-158144800D01*
X113159000Y-158112424D01*
X113159000Y-157668550D01*
X113409000Y-157668550D01*
X113409000Y-158292800D01*
X114010250Y-158292800D01*
X114169000Y-158134050D01*
X114169000Y-158018490D01*
X114072327Y-157785101D01*
X113893698Y-157606473D01*
X113660309Y-157509800D01*
X113567750Y-157509800D01*
X113409000Y-157668550D01*
X113159000Y-157668550D01*
X113030473Y-157540023D01*
X116611400Y-153959097D01*
X116611400Y-156946600D01*
X116649537Y-157138327D01*
X116688738Y-157335407D01*
X116908980Y-157665020D01*
X117868000Y-158624041D01*
X117868000Y-162408939D01*
X117836560Y-162567000D01*
X117836560Y-164167000D01*
X117874931Y-164359905D01*
X117743698Y-164228673D01*
X117510309Y-164132000D01*
X116619750Y-164132000D01*
X116461000Y-164290750D01*
X116461000Y-166140000D01*
X117860250Y-166140000D01*
X118019000Y-165981250D01*
X118019000Y-164640690D01*
X117989965Y-164570593D01*
X118026191Y-164624809D01*
X118236235Y-164765157D01*
X118484000Y-164814440D01*
X119284000Y-164814440D01*
X119531765Y-164765157D01*
X119634000Y-164696845D01*
X119736235Y-164765157D01*
X119984000Y-164814440D01*
X120784000Y-164814440D01*
X121031765Y-164765157D01*
X121241809Y-164624809D01*
X121278035Y-164570593D01*
X121249000Y-164640690D01*
X121249000Y-165981250D01*
X121407750Y-166140000D01*
X122807000Y-166140000D01*
X122807000Y-164290750D01*
X122648250Y-164132000D01*
X121757691Y-164132000D01*
X121524302Y-164228673D01*
X121393069Y-164359905D01*
X121431440Y-164167000D01*
X121431440Y-162567000D01*
X121400000Y-162408939D01*
X121400000Y-161995408D01*
X121618520Y-162524269D01*
X122080300Y-162986855D01*
X122683953Y-163237514D01*
X123337579Y-163238084D01*
X123941669Y-162988480D01*
X124290000Y-162640756D01*
X124290000Y-164206431D01*
X124110309Y-164132000D01*
X123219750Y-164132000D01*
X123061000Y-164290750D01*
X123061000Y-166140000D01*
X123081000Y-166140000D01*
X123081000Y-166394000D01*
X123061000Y-166394000D01*
X123061000Y-168243250D01*
X123219750Y-168402000D01*
X124110309Y-168402000D01*
X124290000Y-168327569D01*
X124290000Y-172790000D01*
X119137576Y-172790000D01*
X119352854Y-172575098D01*
X119776517Y-171554803D01*
X119777481Y-170450044D01*
X119355599Y-169429011D01*
X118575098Y-168647146D01*
X117746106Y-168302919D01*
X117922327Y-168126699D01*
X118019000Y-167893310D01*
X118019000Y-166552750D01*
X121249000Y-166552750D01*
X121249000Y-167893310D01*
X121345673Y-168126699D01*
X121524302Y-168305327D01*
X121757691Y-168402000D01*
X122648250Y-168402000D01*
X122807000Y-168243250D01*
X122807000Y-166394000D01*
X121407750Y-166394000D01*
X121249000Y-166552750D01*
X118019000Y-166552750D01*
X117860250Y-166394000D01*
X116461000Y-166394000D01*
X116461000Y-166414000D01*
X116207000Y-166414000D01*
X116207000Y-166394000D01*
X114807750Y-166394000D01*
X114649000Y-166552750D01*
X114649000Y-167893310D01*
X114745673Y-168126699D01*
X114924302Y-168305327D01*
X115157691Y-168402000D01*
X116015667Y-168402000D01*
X115429011Y-168644401D01*
X114647146Y-169424902D01*
X114223483Y-170445197D01*
X114222519Y-171549956D01*
X114644401Y-172570989D01*
X114863030Y-172790000D01*
X105385257Y-172790000D01*
X105786055Y-172389900D01*
X106036714Y-171786247D01*
X106037284Y-171132621D01*
X105787680Y-170528531D01*
X105325900Y-170065945D01*
X104722247Y-169815286D01*
X104068621Y-169814716D01*
X103464531Y-170064320D01*
X103210000Y-170318408D01*
X103210000Y-164640690D01*
X114649000Y-164640690D01*
X114649000Y-165981250D01*
X114807750Y-166140000D01*
X116207000Y-166140000D01*
X116207000Y-164290750D01*
X116048250Y-164132000D01*
X115157691Y-164132000D01*
X114924302Y-164228673D01*
X114745673Y-164407301D01*
X114649000Y-164640690D01*
X103210000Y-164640690D01*
X103210000Y-158705550D01*
X107827000Y-158705550D01*
X107827000Y-158821110D01*
X107923673Y-159054499D01*
X108102302Y-159233127D01*
X108335691Y-159329800D01*
X108428250Y-159329800D01*
X108587000Y-159171050D01*
X108587000Y-158546800D01*
X107985750Y-158546800D01*
X107827000Y-158705550D01*
X103210000Y-158705550D01*
X103210000Y-158018490D01*
X107827000Y-158018490D01*
X107827000Y-158134050D01*
X107985750Y-158292800D01*
X108587000Y-158292800D01*
X108587000Y-157668550D01*
X108428250Y-157509800D01*
X108335691Y-157509800D01*
X108102302Y-157606473D01*
X107923673Y-157785101D01*
X107827000Y-158018490D01*
X103210000Y-158018490D01*
X103210000Y-153460000D01*
X113800000Y-153460000D01*
X114071705Y-153405954D01*
X114302046Y-153252046D01*
X114455954Y-153021705D01*
X114510000Y-152750000D01*
X114510000Y-140911945D01*
X115886110Y-142288055D01*
X115886110Y-142288055D01*
G37*
X115886110Y-142288055D02*
X115824786Y-142349272D01*
X115682140Y-142692800D01*
X115681816Y-143064766D01*
X115823861Y-143408542D01*
X116021826Y-143606853D01*
X116021628Y-143834252D01*
X116070958Y-143953639D01*
X115931175Y-144290272D01*
X115930851Y-144662238D01*
X116052049Y-144955560D01*
X115292000Y-144955560D01*
X115044235Y-145004843D01*
X114834191Y-145145191D01*
X114693843Y-145355235D01*
X114644560Y-145603000D01*
X114644560Y-146619000D01*
X114693843Y-146866765D01*
X114782868Y-147000000D01*
X114693843Y-147133235D01*
X114644560Y-147381000D01*
X114644560Y-148397000D01*
X114693843Y-148644765D01*
X114834191Y-148854809D01*
X115044235Y-148995157D01*
X115292000Y-149044440D01*
X116308000Y-149044440D01*
X116396451Y-149026846D01*
X116396451Y-150047229D01*
X116340859Y-150102724D01*
X116198213Y-150446252D01*
X116197889Y-150818218D01*
X116339934Y-151161994D01*
X116376537Y-151198661D01*
X110622882Y-156952316D01*
X110393961Y-156997852D01*
X110147399Y-157162599D01*
X109952599Y-157357399D01*
X109859080Y-157497360D01*
X109478000Y-157497360D01*
X109230235Y-157546643D01*
X109209961Y-157560190D01*
X109088309Y-157509800D01*
X108995750Y-157509800D01*
X108837000Y-157668550D01*
X108837000Y-158112424D01*
X108830560Y-158144800D01*
X108830560Y-158694800D01*
X108837000Y-158727176D01*
X108837000Y-159171050D01*
X108848880Y-159182930D01*
X108839000Y-159232600D01*
X108839000Y-160653163D01*
X108748658Y-160713528D01*
X108448428Y-161162854D01*
X108343001Y-161692871D01*
X108343001Y-162766729D01*
X108448428Y-163296746D01*
X108748658Y-163746072D01*
X109197984Y-164046302D01*
X109728001Y-164151729D01*
X110258018Y-164046302D01*
X110707344Y-163746072D01*
X110873933Y-163496754D01*
X110919844Y-163727565D01*
X111060192Y-163937609D01*
X111270236Y-164077957D01*
X111518001Y-164127240D01*
X113018001Y-164127240D01*
X113265766Y-164077957D01*
X113475810Y-163937609D01*
X113616158Y-163727565D01*
X113665441Y-163479800D01*
X113665441Y-160979800D01*
X113616158Y-160732035D01*
X113475810Y-160521991D01*
X113265766Y-160381643D01*
X113157000Y-160360008D01*
X113157000Y-159232600D01*
X113147120Y-159182930D01*
X113159000Y-159171050D01*
X113159000Y-158727176D01*
X113165440Y-158694800D01*
X113165440Y-158546800D01*
X113409000Y-158546800D01*
X113409000Y-159171050D01*
X113567750Y-159329800D01*
X113660309Y-159329800D01*
X113893698Y-159233127D01*
X114072327Y-159054499D01*
X114169000Y-158821110D01*
X114169000Y-158705550D01*
X114010250Y-158546800D01*
X113409000Y-158546800D01*
X113165440Y-158546800D01*
X113165440Y-158144800D01*
X113159000Y-158112424D01*
X113159000Y-157668550D01*
X113409000Y-157668550D01*
X113409000Y-158292800D01*
X114010250Y-158292800D01*
X114169000Y-158134050D01*
X114169000Y-158018490D01*
X114072327Y-157785101D01*
X113893698Y-157606473D01*
X113660309Y-157509800D01*
X113567750Y-157509800D01*
X113409000Y-157668550D01*
X113159000Y-157668550D01*
X113030473Y-157540023D01*
X116611400Y-153959097D01*
X116611400Y-156946600D01*
X116649537Y-157138327D01*
X116688738Y-157335407D01*
X116908980Y-157665020D01*
X117868000Y-158624041D01*
X117868000Y-162408939D01*
X117836560Y-162567000D01*
X117836560Y-164167000D01*
X117874931Y-164359905D01*
X117743698Y-164228673D01*
X117510309Y-164132000D01*
X116619750Y-164132000D01*
X116461000Y-164290750D01*
X116461000Y-166140000D01*
X117860250Y-166140000D01*
X118019000Y-165981250D01*
X118019000Y-164640690D01*
X117989965Y-164570593D01*
X118026191Y-164624809D01*
X118236235Y-164765157D01*
X118484000Y-164814440D01*
X119284000Y-164814440D01*
X119531765Y-164765157D01*
X119634000Y-164696845D01*
X119736235Y-164765157D01*
X119984000Y-164814440D01*
X120784000Y-164814440D01*
X121031765Y-164765157D01*
X121241809Y-164624809D01*
X121278035Y-164570593D01*
X121249000Y-164640690D01*
X121249000Y-165981250D01*
X121407750Y-166140000D01*
X122807000Y-166140000D01*
X122807000Y-164290750D01*
X122648250Y-164132000D01*
X121757691Y-164132000D01*
X121524302Y-164228673D01*
X121393069Y-164359905D01*
X121431440Y-164167000D01*
X121431440Y-162567000D01*
X121400000Y-162408939D01*
X121400000Y-161995408D01*
X121618520Y-162524269D01*
X122080300Y-162986855D01*
X122683953Y-163237514D01*
X123337579Y-163238084D01*
X123941669Y-162988480D01*
X124290000Y-162640756D01*
X124290000Y-164206431D01*
X124110309Y-164132000D01*
X123219750Y-164132000D01*
X123061000Y-164290750D01*
X123061000Y-166140000D01*
X123081000Y-166140000D01*
X123081000Y-166394000D01*
X123061000Y-166394000D01*
X123061000Y-168243250D01*
X123219750Y-168402000D01*
X124110309Y-168402000D01*
X124290000Y-168327569D01*
X124290000Y-172790000D01*
X119137576Y-172790000D01*
X119352854Y-172575098D01*
X119776517Y-171554803D01*
X119777481Y-170450044D01*
X119355599Y-169429011D01*
X118575098Y-168647146D01*
X117746106Y-168302919D01*
X117922327Y-168126699D01*
X118019000Y-167893310D01*
X118019000Y-166552750D01*
X121249000Y-166552750D01*
X121249000Y-167893310D01*
X121345673Y-168126699D01*
X121524302Y-168305327D01*
X121757691Y-168402000D01*
X122648250Y-168402000D01*
X122807000Y-168243250D01*
X122807000Y-166394000D01*
X121407750Y-166394000D01*
X121249000Y-166552750D01*
X118019000Y-166552750D01*
X117860250Y-166394000D01*
X116461000Y-166394000D01*
X116461000Y-166414000D01*
X116207000Y-166414000D01*
X116207000Y-166394000D01*
X114807750Y-166394000D01*
X114649000Y-166552750D01*
X114649000Y-167893310D01*
X114745673Y-168126699D01*
X114924302Y-168305327D01*
X115157691Y-168402000D01*
X116015667Y-168402000D01*
X115429011Y-168644401D01*
X114647146Y-169424902D01*
X114223483Y-170445197D01*
X114222519Y-171549956D01*
X114644401Y-172570989D01*
X114863030Y-172790000D01*
X105385257Y-172790000D01*
X105786055Y-172389900D01*
X106036714Y-171786247D01*
X106037284Y-171132621D01*
X105787680Y-170528531D01*
X105325900Y-170065945D01*
X104722247Y-169815286D01*
X104068621Y-169814716D01*
X103464531Y-170064320D01*
X103210000Y-170318408D01*
X103210000Y-164640690D01*
X114649000Y-164640690D01*
X114649000Y-165981250D01*
X114807750Y-166140000D01*
X116207000Y-166140000D01*
X116207000Y-164290750D01*
X116048250Y-164132000D01*
X115157691Y-164132000D01*
X114924302Y-164228673D01*
X114745673Y-164407301D01*
X114649000Y-164640690D01*
X103210000Y-164640690D01*
X103210000Y-158705550D01*
X107827000Y-158705550D01*
X107827000Y-158821110D01*
X107923673Y-159054499D01*
X108102302Y-159233127D01*
X108335691Y-159329800D01*
X108428250Y-159329800D01*
X108587000Y-159171050D01*
X108587000Y-158546800D01*
X107985750Y-158546800D01*
X107827000Y-158705550D01*
X103210000Y-158705550D01*
X103210000Y-158018490D01*
X107827000Y-158018490D01*
X107827000Y-158134050D01*
X107985750Y-158292800D01*
X108587000Y-158292800D01*
X108587000Y-157668550D01*
X108428250Y-157509800D01*
X108335691Y-157509800D01*
X108102302Y-157606473D01*
X107923673Y-157785101D01*
X107827000Y-158018490D01*
X103210000Y-158018490D01*
X103210000Y-153460000D01*
X113800000Y-153460000D01*
X114071705Y-153405954D01*
X114302046Y-153252046D01*
X114455954Y-153021705D01*
X114510000Y-152750000D01*
X114510000Y-140911945D01*
X115886110Y-142288055D01*
G36*
X124290000Y-160549249D02*
X123944100Y-160202745D01*
X123340447Y-159952086D01*
X122686821Y-159951516D01*
X122082731Y-160201120D01*
X121620145Y-160662900D01*
X121400000Y-161193067D01*
X121400000Y-157413328D01*
X121412000Y-157353000D01*
X121388528Y-157235000D01*
X121564250Y-157235000D01*
X121723000Y-157076250D01*
X121723000Y-155527000D01*
X121977000Y-155527000D01*
X121977000Y-157076250D01*
X122135750Y-157235000D01*
X123276310Y-157235000D01*
X123509699Y-157138327D01*
X123688327Y-156959698D01*
X123785000Y-156726309D01*
X123785000Y-155685750D01*
X123626250Y-155527000D01*
X121977000Y-155527000D01*
X121723000Y-155527000D01*
X120073750Y-155527000D01*
X119915000Y-155685750D01*
X119915000Y-156475940D01*
X119677580Y-156634579D01*
X119665580Y-156646580D01*
X119445338Y-156976193D01*
X119445338Y-156976194D01*
X119387020Y-157269379D01*
X118643400Y-156525760D01*
X118643400Y-153986600D01*
X118919818Y-153986600D01*
X119100000Y-154022440D01*
X119936229Y-154022440D01*
X119915000Y-154073691D01*
X119915000Y-155114250D01*
X120073750Y-155273000D01*
X121723000Y-155273000D01*
X121723000Y-153723750D01*
X121977000Y-153723750D01*
X121977000Y-155273000D01*
X123626250Y-155273000D01*
X123785000Y-155114250D01*
X123785000Y-154073691D01*
X123688327Y-153840302D01*
X123509699Y-153661673D01*
X123276310Y-153565000D01*
X122135750Y-153565000D01*
X121977000Y-153723750D01*
X121723000Y-153723750D01*
X121564250Y-153565000D01*
X121009647Y-153565000D01*
X121047440Y-153375000D01*
X121047440Y-153125000D01*
X121022576Y-153000000D01*
X121047440Y-152875000D01*
X121047440Y-152625000D01*
X121022576Y-152500000D01*
X121047440Y-152375000D01*
X121047440Y-152125000D01*
X121022576Y-152000000D01*
X121047440Y-151875000D01*
X121047440Y-151625000D01*
X121026783Y-151521147D01*
X121035000Y-151501309D01*
X121035000Y-151471250D01*
X121012353Y-151448603D01*
X120998157Y-151377235D01*
X120917100Y-151255925D01*
X120938327Y-151234698D01*
X121015596Y-151048154D01*
X121035000Y-151028750D01*
X121035000Y-150971250D01*
X121015596Y-150951846D01*
X120938327Y-150765302D01*
X120923025Y-150750000D01*
X120938327Y-150734698D01*
X121015596Y-150548154D01*
X121035000Y-150528750D01*
X121035000Y-150471250D01*
X121015596Y-150451846D01*
X120938327Y-150265302D01*
X120917100Y-150244075D01*
X120998157Y-150122765D01*
X121012353Y-150051397D01*
X121035000Y-150028750D01*
X121035000Y-149998691D01*
X121026783Y-149978853D01*
X121047440Y-149875000D01*
X121047440Y-149625000D01*
X121022576Y-149500000D01*
X121047440Y-149375000D01*
X121047440Y-149125000D01*
X121026783Y-149021147D01*
X121035000Y-149001309D01*
X121035000Y-148971250D01*
X121012353Y-148948603D01*
X120998157Y-148877235D01*
X120917100Y-148755925D01*
X120938327Y-148734698D01*
X121015596Y-148548154D01*
X121035000Y-148528750D01*
X121035000Y-148471250D01*
X121015596Y-148451846D01*
X120938327Y-148265302D01*
X120923025Y-148250000D01*
X120938327Y-148234698D01*
X121015596Y-148048154D01*
X121035000Y-148028750D01*
X121035000Y-147971250D01*
X121015596Y-147951846D01*
X120938327Y-147765302D01*
X120923025Y-147750000D01*
X120938327Y-147734698D01*
X121015596Y-147548154D01*
X121035000Y-147528750D01*
X121035000Y-147471250D01*
X121015596Y-147451846D01*
X120938327Y-147265302D01*
X120917100Y-147244075D01*
X120956568Y-147185006D01*
X121135167Y-147185162D01*
X121478943Y-147043117D01*
X121742192Y-146780327D01*
X121884838Y-146436799D01*
X121885162Y-146064833D01*
X121743117Y-145721057D01*
X121522291Y-145499845D01*
X121742192Y-145280327D01*
X121884838Y-144936799D01*
X121885162Y-144564833D01*
X121743117Y-144221057D01*
X121480327Y-143957808D01*
X121136799Y-143815162D01*
X121047440Y-143815084D01*
X121047440Y-143625000D01*
X121022576Y-143500000D01*
X121047440Y-143375000D01*
X121047440Y-143125000D01*
X121022576Y-143000000D01*
X121047440Y-142875000D01*
X121047440Y-142625000D01*
X121022576Y-142500000D01*
X121047440Y-142375000D01*
X121047440Y-142125000D01*
X121022576Y-142000000D01*
X121047440Y-141875000D01*
X121047440Y-141625000D01*
X121022576Y-141500000D01*
X121047440Y-141375000D01*
X121047440Y-141125000D01*
X121022576Y-141000000D01*
X121047440Y-140875000D01*
X121047440Y-140625000D01*
X121022576Y-140500000D01*
X121047440Y-140375000D01*
X121047440Y-140125000D01*
X121024565Y-140010000D01*
X122192200Y-140010000D01*
X122483039Y-139952148D01*
X122570548Y-139893676D01*
X122668767Y-139893762D01*
X123012543Y-139751717D01*
X123275792Y-139488927D01*
X123418438Y-139145399D01*
X123418762Y-138773433D01*
X123276717Y-138429657D01*
X123056923Y-138209479D01*
X123101695Y-138101656D01*
X123102019Y-137729690D01*
X122959974Y-137385914D01*
X122697184Y-137122665D01*
X122599379Y-137082053D01*
X122599582Y-136849413D01*
X122457537Y-136505637D01*
X122271396Y-136319171D01*
X122284838Y-136286799D01*
X122285162Y-135914833D01*
X122143117Y-135571057D01*
X121880327Y-135307808D01*
X121536799Y-135165162D01*
X121164833Y-135164838D01*
X121047440Y-135213344D01*
X121047440Y-135125000D01*
X121022576Y-135000000D01*
X121047440Y-134875000D01*
X121047440Y-134625000D01*
X121022576Y-134500000D01*
X121047440Y-134375000D01*
X121047440Y-134125000D01*
X121022576Y-134000000D01*
X121047440Y-133875000D01*
X121047440Y-133625000D01*
X121009647Y-133435000D01*
X121564250Y-133435000D01*
X121723000Y-133276250D01*
X121723000Y-131727000D01*
X121977000Y-131727000D01*
X121977000Y-133276250D01*
X122135750Y-133435000D01*
X123276310Y-133435000D01*
X123509699Y-133338327D01*
X123688327Y-133159698D01*
X123785000Y-132926309D01*
X123785000Y-131885750D01*
X123626250Y-131727000D01*
X121977000Y-131727000D01*
X121723000Y-131727000D01*
X120073750Y-131727000D01*
X119915000Y-131885750D01*
X119915000Y-132926309D01*
X119936229Y-132977560D01*
X119537400Y-132977560D01*
X119537400Y-130273691D01*
X119915000Y-130273691D01*
X119915000Y-131314250D01*
X120073750Y-131473000D01*
X121723000Y-131473000D01*
X121723000Y-129923750D01*
X121977000Y-129923750D01*
X121977000Y-131473000D01*
X123626250Y-131473000D01*
X123785000Y-131314250D01*
X123785000Y-130273691D01*
X123688327Y-130040302D01*
X123509699Y-129861673D01*
X123276310Y-129765000D01*
X122135750Y-129765000D01*
X121977000Y-129923750D01*
X121723000Y-129923750D01*
X121564250Y-129765000D01*
X120423690Y-129765000D01*
X120190301Y-129861673D01*
X120011673Y-130040302D01*
X119915000Y-130273691D01*
X119537400Y-130273691D01*
X119537401Y-128831049D01*
X119542618Y-128804834D01*
X119542610Y-128804795D01*
X119542618Y-128804757D01*
X119512302Y-128652349D01*
X119482710Y-128503503D01*
X119482687Y-128503469D01*
X119482680Y-128503432D01*
X119396910Y-128375068D01*
X119312047Y-128248036D01*
X119312016Y-128248015D01*
X119311993Y-128247981D01*
X119088883Y-128024872D01*
X119088883Y-124292445D01*
X119088999Y-124292329D01*
X119259686Y-124036878D01*
X119319623Y-123735553D01*
X119319623Y-121343929D01*
X124158149Y-116505403D01*
X124290000Y-116308074D01*
X124290000Y-160549249D01*
X124290000Y-160549249D01*
G37*
X124290000Y-160549249D02*
X123944100Y-160202745D01*
X123340447Y-159952086D01*
X122686821Y-159951516D01*
X122082731Y-160201120D01*
X121620145Y-160662900D01*
X121400000Y-161193067D01*
X121400000Y-157413328D01*
X121412000Y-157353000D01*
X121388528Y-157235000D01*
X121564250Y-157235000D01*
X121723000Y-157076250D01*
X121723000Y-155527000D01*
X121977000Y-155527000D01*
X121977000Y-157076250D01*
X122135750Y-157235000D01*
X123276310Y-157235000D01*
X123509699Y-157138327D01*
X123688327Y-156959698D01*
X123785000Y-156726309D01*
X123785000Y-155685750D01*
X123626250Y-155527000D01*
X121977000Y-155527000D01*
X121723000Y-155527000D01*
X120073750Y-155527000D01*
X119915000Y-155685750D01*
X119915000Y-156475940D01*
X119677580Y-156634579D01*
X119665580Y-156646580D01*
X119445338Y-156976193D01*
X119445338Y-156976194D01*
X119387020Y-157269379D01*
X118643400Y-156525760D01*
X118643400Y-153986600D01*
X118919818Y-153986600D01*
X119100000Y-154022440D01*
X119936229Y-154022440D01*
X119915000Y-154073691D01*
X119915000Y-155114250D01*
X120073750Y-155273000D01*
X121723000Y-155273000D01*
X121723000Y-153723750D01*
X121977000Y-153723750D01*
X121977000Y-155273000D01*
X123626250Y-155273000D01*
X123785000Y-155114250D01*
X123785000Y-154073691D01*
X123688327Y-153840302D01*
X123509699Y-153661673D01*
X123276310Y-153565000D01*
X122135750Y-153565000D01*
X121977000Y-153723750D01*
X121723000Y-153723750D01*
X121564250Y-153565000D01*
X121009647Y-153565000D01*
X121047440Y-153375000D01*
X121047440Y-153125000D01*
X121022576Y-153000000D01*
X121047440Y-152875000D01*
X121047440Y-152625000D01*
X121022576Y-152500000D01*
X121047440Y-152375000D01*
X121047440Y-152125000D01*
X121022576Y-152000000D01*
X121047440Y-151875000D01*
X121047440Y-151625000D01*
X121026783Y-151521147D01*
X121035000Y-151501309D01*
X121035000Y-151471250D01*
X121012353Y-151448603D01*
X120998157Y-151377235D01*
X120917100Y-151255925D01*
X120938327Y-151234698D01*
X121015596Y-151048154D01*
X121035000Y-151028750D01*
X121035000Y-150971250D01*
X121015596Y-150951846D01*
X120938327Y-150765302D01*
X120923025Y-150750000D01*
X120938327Y-150734698D01*
X121015596Y-150548154D01*
X121035000Y-150528750D01*
X121035000Y-150471250D01*
X121015596Y-150451846D01*
X120938327Y-150265302D01*
X120917100Y-150244075D01*
X120998157Y-150122765D01*
X121012353Y-150051397D01*
X121035000Y-150028750D01*
X121035000Y-149998691D01*
X121026783Y-149978853D01*
X121047440Y-149875000D01*
X121047440Y-149625000D01*
X121022576Y-149500000D01*
X121047440Y-149375000D01*
X121047440Y-149125000D01*
X121026783Y-149021147D01*
X121035000Y-149001309D01*
X121035000Y-148971250D01*
X121012353Y-148948603D01*
X120998157Y-148877235D01*
X120917100Y-148755925D01*
X120938327Y-148734698D01*
X121015596Y-148548154D01*
X121035000Y-148528750D01*
X121035000Y-148471250D01*
X121015596Y-148451846D01*
X120938327Y-148265302D01*
X120923025Y-148250000D01*
X120938327Y-148234698D01*
X121015596Y-148048154D01*
X121035000Y-148028750D01*
X121035000Y-147971250D01*
X121015596Y-147951846D01*
X120938327Y-147765302D01*
X120923025Y-147750000D01*
X120938327Y-147734698D01*
X121015596Y-147548154D01*
X121035000Y-147528750D01*
X121035000Y-147471250D01*
X121015596Y-147451846D01*
X120938327Y-147265302D01*
X120917100Y-147244075D01*
X120956568Y-147185006D01*
X121135167Y-147185162D01*
X121478943Y-147043117D01*
X121742192Y-146780327D01*
X121884838Y-146436799D01*
X121885162Y-146064833D01*
X121743117Y-145721057D01*
X121522291Y-145499845D01*
X121742192Y-145280327D01*
X121884838Y-144936799D01*
X121885162Y-144564833D01*
X121743117Y-144221057D01*
X121480327Y-143957808D01*
X121136799Y-143815162D01*
X121047440Y-143815084D01*
X121047440Y-143625000D01*
X121022576Y-143500000D01*
X121047440Y-143375000D01*
X121047440Y-143125000D01*
X121022576Y-143000000D01*
X121047440Y-142875000D01*
X121047440Y-142625000D01*
X121022576Y-142500000D01*
X121047440Y-142375000D01*
X121047440Y-142125000D01*
X121022576Y-142000000D01*
X121047440Y-141875000D01*
X121047440Y-141625000D01*
X121022576Y-141500000D01*
X121047440Y-141375000D01*
X121047440Y-141125000D01*
X121022576Y-141000000D01*
X121047440Y-140875000D01*
X121047440Y-140625000D01*
X121022576Y-140500000D01*
X121047440Y-140375000D01*
X121047440Y-140125000D01*
X121024565Y-140010000D01*
X122192200Y-140010000D01*
X122483039Y-139952148D01*
X122570548Y-139893676D01*
X122668767Y-139893762D01*
X123012543Y-139751717D01*
X123275792Y-139488927D01*
X123418438Y-139145399D01*
X123418762Y-138773433D01*
X123276717Y-138429657D01*
X123056923Y-138209479D01*
X123101695Y-138101656D01*
X123102019Y-137729690D01*
X122959974Y-137385914D01*
X122697184Y-137122665D01*
X122599379Y-137082053D01*
X122599582Y-136849413D01*
X122457537Y-136505637D01*
X122271396Y-136319171D01*
X122284838Y-136286799D01*
X122285162Y-135914833D01*
X122143117Y-135571057D01*
X121880327Y-135307808D01*
X121536799Y-135165162D01*
X121164833Y-135164838D01*
X121047440Y-135213344D01*
X121047440Y-135125000D01*
X121022576Y-135000000D01*
X121047440Y-134875000D01*
X121047440Y-134625000D01*
X121022576Y-134500000D01*
X121047440Y-134375000D01*
X121047440Y-134125000D01*
X121022576Y-134000000D01*
X121047440Y-133875000D01*
X121047440Y-133625000D01*
X121009647Y-133435000D01*
X121564250Y-133435000D01*
X121723000Y-133276250D01*
X121723000Y-131727000D01*
X121977000Y-131727000D01*
X121977000Y-133276250D01*
X122135750Y-133435000D01*
X123276310Y-133435000D01*
X123509699Y-133338327D01*
X123688327Y-133159698D01*
X123785000Y-132926309D01*
X123785000Y-131885750D01*
X123626250Y-131727000D01*
X121977000Y-131727000D01*
X121723000Y-131727000D01*
X120073750Y-131727000D01*
X119915000Y-131885750D01*
X119915000Y-132926309D01*
X119936229Y-132977560D01*
X119537400Y-132977560D01*
X119537400Y-130273691D01*
X119915000Y-130273691D01*
X119915000Y-131314250D01*
X120073750Y-131473000D01*
X121723000Y-131473000D01*
X121723000Y-129923750D01*
X121977000Y-129923750D01*
X121977000Y-131473000D01*
X123626250Y-131473000D01*
X123785000Y-131314250D01*
X123785000Y-130273691D01*
X123688327Y-130040302D01*
X123509699Y-129861673D01*
X123276310Y-129765000D01*
X122135750Y-129765000D01*
X121977000Y-129923750D01*
X121723000Y-129923750D01*
X121564250Y-129765000D01*
X120423690Y-129765000D01*
X120190301Y-129861673D01*
X120011673Y-130040302D01*
X119915000Y-130273691D01*
X119537400Y-130273691D01*
X119537401Y-128831049D01*
X119542618Y-128804834D01*
X119542610Y-128804795D01*
X119542618Y-128804757D01*
X119512302Y-128652349D01*
X119482710Y-128503503D01*
X119482687Y-128503469D01*
X119482680Y-128503432D01*
X119396910Y-128375068D01*
X119312047Y-128248036D01*
X119312016Y-128248015D01*
X119311993Y-128247981D01*
X119088883Y-128024872D01*
X119088883Y-124292445D01*
X119088999Y-124292329D01*
X119259686Y-124036878D01*
X119319623Y-123735553D01*
X119319623Y-121343929D01*
X124158149Y-116505403D01*
X124290000Y-116308074D01*
X124290000Y-160549249D01*
G36*
X117650233Y-135930530D02*
X117932118Y-135986600D01*
X118465000Y-135986600D01*
X118465000Y-136001309D01*
X118473217Y-136021147D01*
X118452560Y-136125000D01*
X118452560Y-136375000D01*
X118477424Y-136500000D01*
X118452560Y-136625000D01*
X118452560Y-136875000D01*
X118477424Y-137000000D01*
X118452560Y-137125000D01*
X118452560Y-137375000D01*
X118477424Y-137500000D01*
X118452560Y-137625000D01*
X118452560Y-137875000D01*
X118477424Y-138000000D01*
X118452560Y-138125000D01*
X118452560Y-138375000D01*
X118477424Y-138500000D01*
X118452560Y-138625000D01*
X118452560Y-138875000D01*
X118475435Y-138990000D01*
X118179786Y-138990000D01*
X117595481Y-138405695D01*
X117595481Y-135893946D01*
X117650233Y-135930530D01*
X117650233Y-135930530D01*
G37*
X117650233Y-135930530D02*
X117932118Y-135986600D01*
X118465000Y-135986600D01*
X118465000Y-136001309D01*
X118473217Y-136021147D01*
X118452560Y-136125000D01*
X118452560Y-136375000D01*
X118477424Y-136500000D01*
X118452560Y-136625000D01*
X118452560Y-136875000D01*
X118477424Y-137000000D01*
X118452560Y-137125000D01*
X118452560Y-137375000D01*
X118477424Y-137500000D01*
X118452560Y-137625000D01*
X118452560Y-137875000D01*
X118477424Y-138000000D01*
X118452560Y-138125000D01*
X118452560Y-138375000D01*
X118477424Y-138500000D01*
X118452560Y-138625000D01*
X118452560Y-138875000D01*
X118475435Y-138990000D01*
X118179786Y-138990000D01*
X117595481Y-138405695D01*
X117595481Y-135893946D01*
X117650233Y-135930530D01*
G36*
X110264393Y-130438662D02*
X110328900Y-130451493D01*
X110653200Y-130516000D01*
X110840293Y-130516000D01*
X111007630Y-130683629D01*
X111520900Y-130896757D01*
X112076661Y-130897242D01*
X112590303Y-130685010D01*
X112759608Y-130516000D01*
X113356560Y-130516000D01*
X114049049Y-131208490D01*
X114049049Y-136839539D01*
X113800000Y-136790000D01*
X103210000Y-136790000D01*
X103210000Y-135869936D01*
X103252235Y-135898157D01*
X103500000Y-135947440D01*
X108500000Y-135947440D01*
X108747765Y-135898157D01*
X108957809Y-135757809D01*
X109098157Y-135547765D01*
X109147440Y-135300000D01*
X109147440Y-135016000D01*
X109698998Y-135016000D01*
X109885564Y-135140660D01*
X110420173Y-135247000D01*
X111979827Y-135247000D01*
X112514436Y-135140660D01*
X112967655Y-134837828D01*
X113270487Y-134384609D01*
X113376827Y-133850000D01*
X113270487Y-133315391D01*
X112967655Y-132862172D01*
X112514436Y-132559340D01*
X111979827Y-132453000D01*
X110420173Y-132453000D01*
X110057000Y-132525239D01*
X110057000Y-130300086D01*
X110264393Y-130438662D01*
X110264393Y-130438662D01*
G37*
X110264393Y-130438662D02*
X110328900Y-130451493D01*
X110653200Y-130516000D01*
X110840293Y-130516000D01*
X111007630Y-130683629D01*
X111520900Y-130896757D01*
X112076661Y-130897242D01*
X112590303Y-130685010D01*
X112759608Y-130516000D01*
X113356560Y-130516000D01*
X114049049Y-131208490D01*
X114049049Y-136839539D01*
X113800000Y-136790000D01*
X103210000Y-136790000D01*
X103210000Y-135869936D01*
X103252235Y-135898157D01*
X103500000Y-135947440D01*
X108500000Y-135947440D01*
X108747765Y-135898157D01*
X108957809Y-135757809D01*
X109098157Y-135547765D01*
X109147440Y-135300000D01*
X109147440Y-135016000D01*
X109698998Y-135016000D01*
X109885564Y-135140660D01*
X110420173Y-135247000D01*
X111979827Y-135247000D01*
X112514436Y-135140660D01*
X112967655Y-134837828D01*
X113270487Y-134384609D01*
X113376827Y-133850000D01*
X113270487Y-133315391D01*
X112967655Y-132862172D01*
X112514436Y-132559340D01*
X111979827Y-132453000D01*
X110420173Y-132453000D01*
X110057000Y-132525239D01*
X110057000Y-130300086D01*
X110264393Y-130438662D01*
G36*
X117078923Y-112569832D02*
X117078923Y-113537621D01*
X117033085Y-113648011D01*
X117032761Y-114019977D01*
X117174806Y-114363753D01*
X117437596Y-114627002D01*
X117781124Y-114769648D01*
X118153090Y-114769972D01*
X118496866Y-114627927D01*
X118760115Y-114365137D01*
X118902761Y-114021609D01*
X118903085Y-113649643D01*
X118856923Y-113537922D01*
X118856923Y-113346556D01*
X119219785Y-113709418D01*
X119508197Y-113902129D01*
X119848403Y-113969800D01*
X120291097Y-113969800D01*
X120401487Y-114015638D01*
X120773453Y-114015962D01*
X121027809Y-113910865D01*
X121027809Y-115275940D01*
X120826411Y-115316000D01*
X111265619Y-115316000D01*
X111307809Y-115287809D01*
X111448157Y-115077765D01*
X111497440Y-114830000D01*
X111497440Y-113643278D01*
X111555954Y-113555705D01*
X111610000Y-113284000D01*
X111610000Y-107100909D01*
X117078923Y-112569832D01*
X117078923Y-112569832D01*
G37*
X117078923Y-112569832D02*
X117078923Y-113537621D01*
X117033085Y-113648011D01*
X117032761Y-114019977D01*
X117174806Y-114363753D01*
X117437596Y-114627002D01*
X117781124Y-114769648D01*
X118153090Y-114769972D01*
X118496866Y-114627927D01*
X118760115Y-114365137D01*
X118902761Y-114021609D01*
X118903085Y-113649643D01*
X118856923Y-113537922D01*
X118856923Y-113346556D01*
X119219785Y-113709418D01*
X119508197Y-113902129D01*
X119848403Y-113969800D01*
X120291097Y-113969800D01*
X120401487Y-114015638D01*
X120773453Y-114015962D01*
X121027809Y-113910865D01*
X121027809Y-115275940D01*
X120826411Y-115316000D01*
X111265619Y-115316000D01*
X111307809Y-115287809D01*
X111448157Y-115077765D01*
X111497440Y-114830000D01*
X111497440Y-113643278D01*
X111555954Y-113555705D01*
X111610000Y-113284000D01*
X111610000Y-107100909D01*
X117078923Y-112569832D01*
G36*
X120268391Y-108865009D02*
X120478435Y-109005357D01*
X120506253Y-109010890D01*
X120506737Y-109013325D01*
X120677424Y-109268776D01*
X122813973Y-111405325D01*
X122813973Y-112360386D01*
X122688475Y-112172565D01*
X119659400Y-109143490D01*
X119659400Y-108815792D01*
X119688800Y-108821640D01*
X120188800Y-108821640D01*
X120233475Y-108812754D01*
X120268391Y-108865009D01*
X120268391Y-108865009D01*
G37*
X120268391Y-108865009D02*
X120478435Y-109005357D01*
X120506253Y-109010890D01*
X120506737Y-109013325D01*
X120677424Y-109268776D01*
X122813973Y-111405325D01*
X122813973Y-112360386D01*
X122688475Y-112172565D01*
X119659400Y-109143490D01*
X119659400Y-108815792D01*
X119688800Y-108821640D01*
X120188800Y-108821640D01*
X120233475Y-108812754D01*
X120268391Y-108865009D01*
G36*
X101432531Y-100841320D02*
X100969945Y-101303100D01*
X100719286Y-101906753D01*
X100718716Y-102560379D01*
X100968320Y-103164469D01*
X101430100Y-103627055D01*
X102033753Y-103877714D01*
X102687379Y-103878284D01*
X103291469Y-103628680D01*
X103754055Y-103166900D01*
X104004714Y-102563247D01*
X104005284Y-101909621D01*
X103755680Y-101305531D01*
X103293900Y-100842945D01*
X102973733Y-100710000D01*
X124290000Y-100710000D01*
X124290000Y-110719726D01*
X124158149Y-110522397D01*
X122677952Y-109042200D01*
X122726450Y-109042200D01*
X122885200Y-108883450D01*
X122885200Y-108026200D01*
X123139200Y-108026200D01*
X123139200Y-108883450D01*
X123297950Y-109042200D01*
X123646509Y-109042200D01*
X123879898Y-108945527D01*
X124058527Y-108766899D01*
X124155200Y-108533510D01*
X124155200Y-108184950D01*
X123996450Y-108026200D01*
X123139200Y-108026200D01*
X122885200Y-108026200D01*
X122865200Y-108026200D01*
X122865200Y-107772200D01*
X122885200Y-107772200D01*
X122885200Y-106914950D01*
X123139200Y-106914950D01*
X123139200Y-107772200D01*
X123996450Y-107772200D01*
X124155200Y-107613450D01*
X124155200Y-107264890D01*
X124058527Y-107031501D01*
X123879898Y-106852873D01*
X123646509Y-106756200D01*
X123297950Y-106756200D01*
X123139200Y-106914950D01*
X122885200Y-106914950D01*
X122726450Y-106756200D01*
X122377891Y-106756200D01*
X122144502Y-106852873D01*
X122118468Y-106878907D01*
X121989965Y-106793043D01*
X121742200Y-106743760D01*
X120726200Y-106743760D01*
X120478435Y-106793043D01*
X120268391Y-106933391D01*
X120233475Y-106985646D01*
X120188800Y-106976760D01*
X119883208Y-106976760D01*
X119883362Y-106799633D01*
X119741317Y-106455857D01*
X119478527Y-106192608D01*
X119134999Y-106049962D01*
X119118850Y-106049948D01*
X119222638Y-105799999D01*
X119222962Y-105428033D01*
X119080917Y-105084257D01*
X118818127Y-104821008D01*
X118789633Y-104809176D01*
X118754557Y-104632835D01*
X118741010Y-104612561D01*
X118791400Y-104490909D01*
X118791400Y-104398350D01*
X118632650Y-104239600D01*
X118188776Y-104239600D01*
X118156400Y-104233160D01*
X117606400Y-104233160D01*
X117574024Y-104239600D01*
X117130150Y-104239600D01*
X116971400Y-104398350D01*
X116971400Y-104490909D01*
X117021790Y-104612561D01*
X117008243Y-104632835D01*
X116958960Y-104880600D01*
X116958960Y-105380600D01*
X116989981Y-105536553D01*
X116982843Y-105547235D01*
X116933560Y-105795000D01*
X116933560Y-106295000D01*
X116982843Y-106542765D01*
X116989682Y-106553000D01*
X116982843Y-106563235D01*
X116933560Y-106811000D01*
X116933560Y-107311000D01*
X116967196Y-107480100D01*
X116933560Y-107649200D01*
X116933560Y-108149200D01*
X116982843Y-108396965D01*
X116996390Y-108417239D01*
X116946000Y-108538891D01*
X116946000Y-108631450D01*
X117104750Y-108790200D01*
X117548624Y-108790200D01*
X117581000Y-108796640D01*
X118003000Y-108796640D01*
X118003000Y-109040200D01*
X117983000Y-109040200D01*
X117983000Y-109062200D01*
X117729000Y-109062200D01*
X117729000Y-109040200D01*
X117104750Y-109040200D01*
X117084895Y-109060056D01*
X111763130Y-103738291D01*
X116971400Y-103738291D01*
X116971400Y-103830850D01*
X117130150Y-103989600D01*
X117754400Y-103989600D01*
X117754400Y-103388350D01*
X118008400Y-103388350D01*
X118008400Y-103989600D01*
X118632650Y-103989600D01*
X118791400Y-103830850D01*
X118791400Y-103738291D01*
X118694727Y-103504902D01*
X118533425Y-103343599D01*
X120264699Y-103343599D01*
X120528281Y-103981515D01*
X121015918Y-104470004D01*
X121653373Y-104734699D01*
X122343599Y-104735301D01*
X122981515Y-104471719D01*
X123470004Y-103984082D01*
X123734699Y-103346627D01*
X123735301Y-102656401D01*
X123471719Y-102018485D01*
X122984082Y-101529996D01*
X122346627Y-101265301D01*
X121656401Y-101264699D01*
X121018485Y-101528281D01*
X120529996Y-102015918D01*
X120265301Y-102653373D01*
X120264699Y-103343599D01*
X118533425Y-103343599D01*
X118516099Y-103326273D01*
X118282710Y-103229600D01*
X118167150Y-103229600D01*
X118008400Y-103388350D01*
X117754400Y-103388350D01*
X117595650Y-103229600D01*
X117480090Y-103229600D01*
X117246701Y-103326273D01*
X117068073Y-103504902D01*
X116971400Y-103738291D01*
X111763130Y-103738291D01*
X111460021Y-103435182D01*
X111327489Y-103346627D01*
X111171609Y-103242471D01*
X110831403Y-103174800D01*
X105606200Y-103174800D01*
X105265994Y-103242471D01*
X104977582Y-103435182D01*
X103890204Y-104522560D01*
X102900000Y-104522560D01*
X102652235Y-104571843D01*
X102508158Y-104668113D01*
X102275739Y-104512815D01*
X101783991Y-104415000D01*
X100816009Y-104415000D01*
X100324261Y-104512815D01*
X100210000Y-104589162D01*
X100210000Y-100710000D01*
X101750351Y-100710000D01*
X101432531Y-100841320D01*
X101432531Y-100841320D01*
G37*
X101432531Y-100841320D02*
X100969945Y-101303100D01*
X100719286Y-101906753D01*
X100718716Y-102560379D01*
X100968320Y-103164469D01*
X101430100Y-103627055D01*
X102033753Y-103877714D01*
X102687379Y-103878284D01*
X103291469Y-103628680D01*
X103754055Y-103166900D01*
X104004714Y-102563247D01*
X104005284Y-101909621D01*
X103755680Y-101305531D01*
X103293900Y-100842945D01*
X102973733Y-100710000D01*
X124290000Y-100710000D01*
X124290000Y-110719726D01*
X124158149Y-110522397D01*
X122677952Y-109042200D01*
X122726450Y-109042200D01*
X122885200Y-108883450D01*
X122885200Y-108026200D01*
X123139200Y-108026200D01*
X123139200Y-108883450D01*
X123297950Y-109042200D01*
X123646509Y-109042200D01*
X123879898Y-108945527D01*
X124058527Y-108766899D01*
X124155200Y-108533510D01*
X124155200Y-108184950D01*
X123996450Y-108026200D01*
X123139200Y-108026200D01*
X122885200Y-108026200D01*
X122865200Y-108026200D01*
X122865200Y-107772200D01*
X122885200Y-107772200D01*
X122885200Y-106914950D01*
X123139200Y-106914950D01*
X123139200Y-107772200D01*
X123996450Y-107772200D01*
X124155200Y-107613450D01*
X124155200Y-107264890D01*
X124058527Y-107031501D01*
X123879898Y-106852873D01*
X123646509Y-106756200D01*
X123297950Y-106756200D01*
X123139200Y-106914950D01*
X122885200Y-106914950D01*
X122726450Y-106756200D01*
X122377891Y-106756200D01*
X122144502Y-106852873D01*
X122118468Y-106878907D01*
X121989965Y-106793043D01*
X121742200Y-106743760D01*
X120726200Y-106743760D01*
X120478435Y-106793043D01*
X120268391Y-106933391D01*
X120233475Y-106985646D01*
X120188800Y-106976760D01*
X119883208Y-106976760D01*
X119883362Y-106799633D01*
X119741317Y-106455857D01*
X119478527Y-106192608D01*
X119134999Y-106049962D01*
X119118850Y-106049948D01*
X119222638Y-105799999D01*
X119222962Y-105428033D01*
X119080917Y-105084257D01*
X118818127Y-104821008D01*
X118789633Y-104809176D01*
X118754557Y-104632835D01*
X118741010Y-104612561D01*
X118791400Y-104490909D01*
X118791400Y-104398350D01*
X118632650Y-104239600D01*
X118188776Y-104239600D01*
X118156400Y-104233160D01*
X117606400Y-104233160D01*
X117574024Y-104239600D01*
X117130150Y-104239600D01*
X116971400Y-104398350D01*
X116971400Y-104490909D01*
X117021790Y-104612561D01*
X117008243Y-104632835D01*
X116958960Y-104880600D01*
X116958960Y-105380600D01*
X116989981Y-105536553D01*
X116982843Y-105547235D01*
X116933560Y-105795000D01*
X116933560Y-106295000D01*
X116982843Y-106542765D01*
X116989682Y-106553000D01*
X116982843Y-106563235D01*
X116933560Y-106811000D01*
X116933560Y-107311000D01*
X116967196Y-107480100D01*
X116933560Y-107649200D01*
X116933560Y-108149200D01*
X116982843Y-108396965D01*
X116996390Y-108417239D01*
X116946000Y-108538891D01*
X116946000Y-108631450D01*
X117104750Y-108790200D01*
X117548624Y-108790200D01*
X117581000Y-108796640D01*
X118003000Y-108796640D01*
X118003000Y-109040200D01*
X117983000Y-109040200D01*
X117983000Y-109062200D01*
X117729000Y-109062200D01*
X117729000Y-109040200D01*
X117104750Y-109040200D01*
X117084895Y-109060056D01*
X111763130Y-103738291D01*
X116971400Y-103738291D01*
X116971400Y-103830850D01*
X117130150Y-103989600D01*
X117754400Y-103989600D01*
X117754400Y-103388350D01*
X118008400Y-103388350D01*
X118008400Y-103989600D01*
X118632650Y-103989600D01*
X118791400Y-103830850D01*
X118791400Y-103738291D01*
X118694727Y-103504902D01*
X118533425Y-103343599D01*
X120264699Y-103343599D01*
X120528281Y-103981515D01*
X121015918Y-104470004D01*
X121653373Y-104734699D01*
X122343599Y-104735301D01*
X122981515Y-104471719D01*
X123470004Y-103984082D01*
X123734699Y-103346627D01*
X123735301Y-102656401D01*
X123471719Y-102018485D01*
X122984082Y-101529996D01*
X122346627Y-101265301D01*
X121656401Y-101264699D01*
X121018485Y-101528281D01*
X120529996Y-102015918D01*
X120265301Y-102653373D01*
X120264699Y-103343599D01*
X118533425Y-103343599D01*
X118516099Y-103326273D01*
X118282710Y-103229600D01*
X118167150Y-103229600D01*
X118008400Y-103388350D01*
X117754400Y-103388350D01*
X117595650Y-103229600D01*
X117480090Y-103229600D01*
X117246701Y-103326273D01*
X117068073Y-103504902D01*
X116971400Y-103738291D01*
X111763130Y-103738291D01*
X111460021Y-103435182D01*
X111327489Y-103346627D01*
X111171609Y-103242471D01*
X110831403Y-103174800D01*
X105606200Y-103174800D01*
X105265994Y-103242471D01*
X104977582Y-103435182D01*
X103890204Y-104522560D01*
X102900000Y-104522560D01*
X102652235Y-104571843D01*
X102508158Y-104668113D01*
X102275739Y-104512815D01*
X101783991Y-104415000D01*
X100816009Y-104415000D01*
X100324261Y-104512815D01*
X100210000Y-104589162D01*
X100210000Y-100710000D01*
X101750351Y-100710000D01*
X101432531Y-100841320D01*
M02*
