G04 #@! TF.FileFunction,Soldermask,Bot*
%FSLAX46Y46*%
G04 Gerber Fmt 4.6, Leading zero omitted, Abs format (unit mm)*
G04 Created by KiCad (PCBNEW no-vcs-found-undefined) date Tue Nov  8 14:50:56 2016*
%MOMM*%
%LPD*%
G01*
G04 APERTURE LIST*
%ADD10C,0.600000*%
%ADD11C,0.150000*%
%ADD12C,1.254000*%
%ADD13C,2.600000*%
%ADD14C,7.400000*%
%ADD15C,6.400000*%
%ADD16O,2.600000X1.700000*%
%ADD17O,1.500000X1.910000*%
%ADD18C,1.924000*%
%ADD19O,3.400000X1.924000*%
%ADD20R,2.400000X0.950000*%
%ADD21R,3.010000X1.210000*%
G04 APERTURE END LIST*
D10*
D11*
X102500000Y-152750000D02*
X102500000Y-173500000D01*
X102500000Y-137500000D02*
X102500000Y-132715000D01*
X113800000Y-137500000D02*
X113800000Y-152750000D01*
X102500000Y-137500000D02*
X113800000Y-137500000D01*
X102500000Y-152750000D02*
X113800000Y-152750000D01*
X102500000Y-116000000D02*
X102500000Y-119253000D01*
X109347000Y-132715000D02*
X102500000Y-132715000D01*
X109347000Y-119253000D02*
X109347000Y-132715000D01*
X102500000Y-119253000D02*
X109347000Y-119253000D01*
X99500000Y-113284000D02*
X99500000Y-116000000D01*
X110900000Y-113284000D02*
X99500000Y-113284000D01*
X110900000Y-106680000D02*
X110900000Y-113284000D01*
X99500000Y-106680000D02*
X110900000Y-106680000D01*
X102500000Y-173500000D02*
X125000000Y-173500000D01*
X125000000Y-100000000D02*
X125000000Y-173500000D01*
X99500000Y-100000000D02*
X125000000Y-100000000D01*
X99500000Y-116000000D02*
X102500000Y-116000000D01*
X99500000Y-100000000D02*
X99500000Y-106680000D01*
D12*
X104394000Y-171458000D03*
X123012200Y-161600000D03*
X102362000Y-102200000D03*
D13*
X117000000Y-171000000D03*
D14*
X114000000Y-100000000D03*
X111000000Y-172500000D03*
D15*
X122000000Y-126000000D03*
D13*
X122000000Y-103000000D03*
D16*
X101300000Y-114300000D03*
X101300000Y-105700000D03*
D17*
X105550000Y-106700000D03*
X105550000Y-113300000D03*
D18*
X111800000Y-122500000D03*
X111800000Y-125000000D03*
X111800000Y-127000000D03*
X111800000Y-129500000D03*
D19*
X111200000Y-118150000D03*
X111200000Y-133850000D03*
D20*
X115100000Y-142908600D03*
X115100000Y-144008600D03*
X115100000Y-145108600D03*
X115100000Y-146208600D03*
X115100000Y-147308600D03*
X115100000Y-148408600D03*
X115100000Y-149508600D03*
X115100000Y-150608600D03*
X115100000Y-151708600D03*
D21*
X104000000Y-153508600D03*
X104000000Y-136708600D03*
M02*
