G04 #@! TF.FileFunction,Profile,NP*
%FSLAX46Y46*%
G04 Gerber Fmt 4.6, Leading zero omitted, Abs format (unit mm)*
G04 Created by KiCad (PCBNEW no-vcs-found-undefined) date Tue Nov  8 15:57:13 2016*
%MOMM*%
%LPD*%
G01*
G04 APERTURE LIST*
%ADD10C,0.100000*%
%ADD11C,0.254000*%
G04 APERTURE END LIST*
D10*
D11*
X201250000Y-58800000D02*
X201250000Y-70700000D01*
X207000000Y-70700000D02*
X207000000Y-72500000D01*
X207000000Y-54000000D02*
X207000000Y-58800000D01*
X201250000Y-58800000D02*
X207000000Y-58800000D01*
X207000000Y-70700000D02*
X201250000Y-70700000D01*
X207000000Y-35500000D02*
X207000000Y-37700000D01*
X195750000Y-28500000D02*
X195750000Y-35500000D01*
X207000000Y-25500000D02*
X207000000Y-28500000D01*
X195750000Y-28500000D02*
X207000000Y-28500000D01*
X207000000Y-35500000D02*
X195750000Y-35500000D01*
X197000000Y-40500000D02*
X197000000Y-54000000D01*
X203500000Y-37700000D02*
X203500000Y-40500000D01*
X197000000Y-40500000D02*
X203500000Y-40500000D01*
X197000000Y-54000000D02*
X207000000Y-54000000D01*
X203500000Y-37700000D02*
X207000000Y-37700000D01*
X203500000Y-72500000D02*
X207000000Y-72500000D01*
X203500000Y-100000000D02*
X203500000Y-72500000D01*
X181000000Y-25500000D02*
X207000000Y-25500000D01*
X181000000Y-35500000D02*
X181000000Y-25500000D01*
X154000000Y-35500000D02*
X181000000Y-35500000D01*
X154000000Y-25500000D02*
X154000000Y-35500000D01*
X148000000Y-25500000D02*
X154000000Y-25500000D01*
X148000000Y-11000000D02*
X148000000Y-25500000D01*
X100000000Y-11000000D02*
X148000000Y-11000000D01*
X100000000Y-100000000D02*
X100000000Y-11000000D01*
X100000000Y-100000000D02*
X203500000Y-100000000D01*
M02*
