G04 #@! TF.FileFunction,Soldermask,Bot*
%FSLAX46Y46*%
G04 Gerber Fmt 4.6, Leading zero omitted, Abs format (unit mm)*
G04 Created by KiCad (PCBNEW no-vcs-found-undefined) date Tue Nov  8 15:57:13 2016*
%MOMM*%
%LPD*%
G01*
G04 APERTURE LIST*
%ADD10C,0.100000*%
%ADD11C,1.016000*%
%ADD12C,0.254000*%
%ADD13R,0.901600X0.901600*%
%ADD14R,1.501600X1.101600*%
%ADD15R,0.601600X0.651600*%
%ADD16O,1.724000X1.400000*%
%ADD17C,1.724000*%
%ADD18O,3.200000X1.724000*%
%ADD19R,2.400000X1.800000*%
%ADD20C,1.000000*%
%ADD21R,0.600000X0.600000*%
%ADD22R,1.622400X1.622400*%
%ADD23C,0.900000*%
%ADD24O,2.000000X1.400000*%
%ADD25C,0.650000*%
%ADD26C,6.200000*%
%ADD27C,1.254000*%
%ADD28R,0.651600X0.601600*%
%ADD29C,2.400000*%
%ADD30C,7.200000*%
%ADD31O,3.700000X1.700000*%
%ADD32O,1.700000X3.700000*%
G04 APERTURE END LIST*
D10*
D11*
X152146000Y-27559000D02*
X152146000Y-30988000D01*
X130683000Y-11938000D02*
X131953000Y-11938000D01*
X130683000Y-14478000D02*
X132207000Y-14478000D01*
X130683000Y-11811000D02*
X130683000Y-14478000D01*
X109982000Y-11938000D02*
X108458000Y-11938000D01*
X109982000Y-14478000D02*
X108585000Y-14478000D01*
X109982000Y-11938000D02*
X109982000Y-14478000D01*
X108712000Y-25146000D02*
X108712000Y-26543000D01*
X111379000Y-25146000D02*
X111379000Y-26543000D01*
X108712000Y-25146000D02*
X111379000Y-25146000D01*
X116459000Y-27559000D02*
X115189000Y-27559000D01*
X116459000Y-30226000D02*
X115062000Y-30226000D01*
X116459000Y-27559000D02*
X116459000Y-30226000D01*
X131953000Y-25146000D02*
X131953000Y-26670000D01*
X129413000Y-25146000D02*
X129413000Y-26670000D01*
X131953000Y-25146000D02*
X129413000Y-25146000D01*
X152146000Y-27559000D02*
X153162000Y-27559000D01*
X152273000Y-30988000D02*
X153162000Y-30988000D01*
X151765000Y-75565000D02*
X151765000Y-74295000D01*
X149352000Y-75565000D02*
X149352000Y-74168000D01*
X151765000Y-75565000D02*
X149352000Y-75565000D01*
X113919000Y-66929000D02*
X115316000Y-66929000D01*
X113919000Y-64262000D02*
X115316000Y-64262000D01*
X113919000Y-66929000D02*
X113919000Y-64262000D01*
X113919000Y-48641000D02*
X115316000Y-48641000D01*
X113919000Y-51435000D02*
X115316000Y-51435000D01*
X113919000Y-48641000D02*
X113919000Y-51435000D01*
D12*
X201250000Y-58800000D02*
X201250000Y-70700000D01*
X207000000Y-70700000D02*
X207000000Y-72500000D01*
X207000000Y-54000000D02*
X207000000Y-58800000D01*
X201250000Y-58800000D02*
X207000000Y-58800000D01*
X207000000Y-70700000D02*
X201250000Y-70700000D01*
X207000000Y-35500000D02*
X207000000Y-37700000D01*
X195750000Y-28500000D02*
X195750000Y-35500000D01*
X207000000Y-25500000D02*
X207000000Y-28500000D01*
X195750000Y-28500000D02*
X207000000Y-28500000D01*
X207000000Y-35500000D02*
X195750000Y-35500000D01*
X197000000Y-40500000D02*
X197000000Y-54000000D01*
X203500000Y-37700000D02*
X203500000Y-40500000D01*
X197000000Y-40500000D02*
X203500000Y-40500000D01*
X197000000Y-54000000D02*
X207000000Y-54000000D01*
X203500000Y-37700000D02*
X207000000Y-37700000D01*
X203500000Y-72500000D02*
X207000000Y-72500000D01*
X203500000Y-100000000D02*
X203500000Y-72500000D01*
X181000000Y-25500000D02*
X207000000Y-25500000D01*
X181000000Y-35500000D02*
X181000000Y-25500000D01*
X154000000Y-35500000D02*
X181000000Y-35500000D01*
X154000000Y-25500000D02*
X154000000Y-35500000D01*
X148000000Y-25500000D02*
X154000000Y-25500000D01*
X148000000Y-11000000D02*
X148000000Y-25500000D01*
X100000000Y-11000000D02*
X148000000Y-11000000D01*
X100000000Y-100000000D02*
X100000000Y-11000000D01*
X100000000Y-100000000D02*
X203500000Y-100000000D01*
D13*
X125238000Y-28200000D03*
X126762000Y-28200000D03*
D14*
X197892560Y-94449960D03*
X197892560Y-92547500D03*
X200102360Y-93502540D03*
D15*
X139792000Y-33100000D03*
X140808000Y-33100000D03*
D13*
X149238000Y-28200000D03*
X150762000Y-28200000D03*
X141223000Y-28956000D03*
X142747000Y-28956000D03*
X141238000Y-27438000D03*
X142762000Y-27438000D03*
X133238000Y-28200000D03*
X134762000Y-28200000D03*
D16*
X205010000Y-27629000D03*
X198510000Y-27629000D03*
X198510000Y-36379000D03*
X205010000Y-36379000D03*
D17*
X194810000Y-32004000D03*
D18*
X194810000Y-39394000D03*
X194810000Y-55094000D03*
D17*
X194210000Y-43744000D03*
X194210000Y-46244000D03*
X194210000Y-48244000D03*
X194210000Y-50744000D03*
D19*
X206000000Y-57726000D03*
X201400000Y-57726000D03*
X201400000Y-71776000D03*
X206000000Y-71776000D03*
D20*
X200300000Y-60071000D03*
X200300000Y-69431000D03*
D21*
X184871000Y-80861000D03*
X185571000Y-80861000D03*
X186271000Y-80861000D03*
X186271000Y-80161000D03*
X186271000Y-79461000D03*
X187871000Y-79461000D03*
X187871000Y-80161000D03*
X187871000Y-80861000D03*
X188571000Y-80861000D03*
X189271000Y-80861000D03*
X189271000Y-82461000D03*
X188571000Y-82461000D03*
X187871000Y-82461000D03*
X187871000Y-83161000D03*
X187871000Y-83861000D03*
X186271000Y-83861000D03*
X186271000Y-83161000D03*
X186271000Y-82461000D03*
X185571000Y-82461000D03*
X184871000Y-82461000D03*
D22*
X187071000Y-81661000D03*
D23*
X116000000Y-97850000D03*
X116000000Y-96150000D03*
D24*
X102112000Y-41573000D03*
X105582000Y-41573000D03*
X105582000Y-34373000D03*
X102112000Y-34373000D03*
D25*
X104262000Y-39973000D03*
X104262000Y-35973000D03*
D15*
X156392000Y-69700000D03*
X157408000Y-69700000D03*
D26*
X130000000Y-97500000D03*
D27*
X201803000Y-98298000D03*
X106553000Y-17272000D03*
X101727000Y-98298000D03*
D23*
X143578000Y-77382000D03*
X143578000Y-79082000D03*
D15*
X139908000Y-56700000D03*
X138892000Y-56700000D03*
X139892000Y-58500000D03*
X140908000Y-58500000D03*
X138308000Y-58500000D03*
X137292000Y-58500000D03*
D28*
X139750000Y-61842000D03*
X139750000Y-62858000D03*
D15*
X139408000Y-60100000D03*
X138392000Y-60100000D03*
X144908000Y-64900000D03*
X143892000Y-64900000D03*
X143308000Y-38500000D03*
X142292000Y-38500000D03*
X142808000Y-33100000D03*
X141792000Y-33100000D03*
D28*
X144000000Y-57508000D03*
X144000000Y-56492000D03*
D15*
X162108000Y-71200000D03*
X161092000Y-71200000D03*
X143808000Y-53600000D03*
X142792000Y-53600000D03*
X161092000Y-70200000D03*
X162108000Y-70200000D03*
X157408000Y-71300000D03*
X156392000Y-71300000D03*
X143642000Y-61100000D03*
X144658000Y-61100000D03*
X148908000Y-61100000D03*
X147892000Y-61100000D03*
D28*
X125730000Y-86106000D03*
X125730000Y-85090000D03*
D15*
X159608000Y-70900000D03*
X158592000Y-70900000D03*
D28*
X157700000Y-67592000D03*
X157700000Y-68608000D03*
X146600000Y-58508000D03*
X146600000Y-57492000D03*
X147200000Y-65708000D03*
X147200000Y-64692000D03*
X158900000Y-67592000D03*
X158900000Y-68608000D03*
D15*
X148608000Y-63400000D03*
X147592000Y-63400000D03*
X143692000Y-63700000D03*
X144708000Y-63700000D03*
X144192000Y-58400000D03*
X145208000Y-58400000D03*
D28*
X136300000Y-64092000D03*
X136300000Y-65108000D03*
D15*
X135492000Y-68600000D03*
X136508000Y-68600000D03*
X135492000Y-67300000D03*
X136508000Y-67300000D03*
X135492000Y-66000000D03*
X136508000Y-66000000D03*
X141842000Y-58500000D03*
X142858000Y-58500000D03*
X186690000Y-77216000D03*
X185674000Y-77216000D03*
X142992000Y-62700000D03*
X144008000Y-62700000D03*
X145792000Y-61100000D03*
X146808000Y-61100000D03*
X147608000Y-56700000D03*
X146592000Y-56700000D03*
X144892000Y-62400000D03*
X145908000Y-62400000D03*
X150008000Y-62500000D03*
X148992000Y-62500000D03*
X145908000Y-59200000D03*
X144892000Y-59200000D03*
X124460000Y-49149000D03*
X125476000Y-49149000D03*
D28*
X134366000Y-58293000D03*
X134366000Y-57277000D03*
X133477000Y-58293000D03*
X133477000Y-57277000D03*
X156591000Y-74295000D03*
X156591000Y-75311000D03*
D15*
X147092000Y-62500000D03*
X148108000Y-62500000D03*
X197358000Y-68580000D03*
X198374000Y-68580000D03*
X157480000Y-74041000D03*
X158496000Y-74041000D03*
D28*
X151257000Y-53086000D03*
X151257000Y-54102000D03*
D15*
X179451000Y-75565000D03*
X180467000Y-75565000D03*
X185039000Y-63500000D03*
X186055000Y-63500000D03*
X185039000Y-64389000D03*
X186055000Y-64389000D03*
X142875000Y-45466000D03*
X141859000Y-45466000D03*
D28*
X146200000Y-41592000D03*
X146200000Y-42608000D03*
D15*
X144145000Y-38481000D03*
X145161000Y-38481000D03*
D28*
X141300000Y-42008000D03*
X141300000Y-40992000D03*
X140300000Y-39992000D03*
X140300000Y-41008000D03*
X137400000Y-41008000D03*
X137400000Y-39992000D03*
D26*
X146000000Y-13000000D03*
D29*
X184000000Y-28500000D03*
D30*
X192000000Y-26000000D03*
D29*
X188000000Y-97500000D03*
D30*
X195000000Y-99000000D03*
D26*
X103000000Y-13000000D03*
D15*
X159208000Y-69700000D03*
X158192000Y-69700000D03*
X153797000Y-67691000D03*
X154813000Y-67691000D03*
D28*
X159893000Y-75311000D03*
X159893000Y-74295000D03*
X155702000Y-74295000D03*
X155702000Y-75311000D03*
X196469000Y-94107000D03*
X196469000Y-93091000D03*
D15*
X151992000Y-62900000D03*
X153008000Y-62900000D03*
D31*
X150400000Y-74300000D03*
D32*
X115200000Y-65600000D03*
X115200000Y-28900000D03*
X152900000Y-28900000D03*
D31*
X110000000Y-26500000D03*
X130700000Y-26500000D03*
D32*
X132000000Y-13200000D03*
X108700000Y-13200000D03*
X115200000Y-50000000D03*
M02*
