G04 #@! TF.FileFunction,Copper,L1,Top,Signal*
%FSLAX46Y46*%
G04 Gerber Fmt 4.6, Leading zero omitted, Abs format (unit mm)*
G04 Created by KiCad (PCBNEW 4.1.0-alpha+201608171232+7063~46~ubuntu14.04.1-product) date Tue Aug 30 11:53:06 2016*
%MOMM*%
%LPD*%
G01*
G04 APERTURE LIST*
%ADD10C,0.600000*%
%ADD11C,1.000000*%
%ADD12C,6.000000*%
%ADD13R,3.000000X2.400000*%
%ADD14R,1.300000X0.250000*%
%ADD15R,3.800000X2.800000*%
%ADD16C,0.800000*%
%ADD17C,0.508000*%
%ADD18C,0.250000*%
%ADD19C,0.254000*%
G04 APERTURE END LIST*
D10*
D11*
X118600000Y-77700000D03*
X98000000Y-72200000D03*
D12*
X123000000Y-75000000D03*
X93000000Y-75000000D03*
D13*
X114600000Y-71600000D03*
D14*
X112350000Y-76250000D03*
X112350000Y-75750000D03*
X112350000Y-75250000D03*
X112350000Y-74750000D03*
X112350000Y-74250000D03*
X112350000Y-73750000D03*
D15*
X114200000Y-78200000D03*
X114200000Y-71800000D03*
D13*
X114600000Y-78400000D03*
D16*
X117288000Y-71120000D03*
X100012500Y-71247000D03*
X108966000Y-71247000D03*
X93726000Y-78994000D03*
X94742000Y-70993000D03*
X121412000Y-71120000D03*
X121666000Y-78994000D03*
X96533518Y-78753518D03*
X102629518Y-78753518D03*
X105042518Y-78753518D03*
X106820518Y-78753518D03*
X108852518Y-78753518D03*
X111591085Y-78753518D03*
X111000000Y-75000000D03*
D17*
X114880000Y-71120000D02*
X117288000Y-71120000D01*
X114200000Y-71800000D02*
X114880000Y-71120000D01*
X108400315Y-71247000D02*
X100012500Y-71247000D01*
X108966000Y-71247000D02*
X108400315Y-71247000D01*
X113647000Y-71247000D02*
X108966000Y-71247000D01*
X114200000Y-71800000D02*
X113647000Y-71247000D01*
X93000000Y-75000000D02*
X93000000Y-78994000D01*
X93000000Y-78994000D02*
X93726000Y-78994000D01*
X93000000Y-75000000D02*
X93000000Y-70993000D01*
X93000000Y-70993000D02*
X94742000Y-70993000D01*
X123000000Y-75000000D02*
X123000000Y-71120000D01*
X123000000Y-71120000D02*
X121412000Y-71120000D01*
X123000000Y-75000000D02*
X123000000Y-78930000D01*
X123000000Y-78930000D02*
X122936000Y-78994000D01*
X122936000Y-78994000D02*
X121666000Y-78994000D01*
X96533518Y-78753518D02*
X93000000Y-75220000D01*
X93000000Y-75220000D02*
X93000000Y-75000000D01*
X102629518Y-78753518D02*
X96533518Y-78753518D01*
X105042518Y-78753518D02*
X102629518Y-78753518D01*
X106820518Y-78753518D02*
X105042518Y-78753518D01*
X108852518Y-78753518D02*
X106820518Y-78753518D01*
X111591085Y-78753518D02*
X108852518Y-78753518D01*
D18*
X114000000Y-76000000D02*
X114577539Y-76577539D01*
X114577539Y-76577539D02*
X114577539Y-77961194D01*
X114577539Y-77961194D02*
X112383409Y-77961194D01*
X112383409Y-77961194D02*
X111591085Y-78753518D01*
X112350000Y-76250000D02*
X113750000Y-76250000D01*
X113750000Y-76250000D02*
X114000000Y-76000000D01*
X114000000Y-76000000D02*
X113750000Y-75750000D01*
X113750000Y-75750000D02*
X112350000Y-75750000D01*
X114000000Y-74000000D02*
X114000000Y-76000000D01*
X113750000Y-73750000D02*
X114000000Y-74000000D01*
X112350000Y-73750000D02*
X113750000Y-73750000D01*
X111000000Y-75000000D02*
X111250000Y-75250000D01*
X111250000Y-75250000D02*
X112350000Y-75250000D01*
X111250000Y-74750000D02*
X111000000Y-75000000D01*
X112350000Y-74750000D02*
X111250000Y-74750000D01*
D19*
G36*
X97070531Y-70806320D02*
X96607945Y-71268100D01*
X96357286Y-71871753D01*
X96356716Y-72525379D01*
X96606320Y-73129469D01*
X97068100Y-73592055D01*
X97671753Y-73842714D01*
X98325379Y-73843284D01*
X98929469Y-73593680D01*
X99392055Y-73131900D01*
X99642714Y-72528247D01*
X99643284Y-71874621D01*
X99393680Y-71270531D01*
X98931900Y-70807945D01*
X98696023Y-70710000D01*
X111665000Y-70710000D01*
X111665000Y-71133250D01*
X111823750Y-71292000D01*
X113692000Y-71292000D01*
X113692000Y-71272000D01*
X114708000Y-71272000D01*
X114708000Y-71292000D01*
X116576250Y-71292000D01*
X116735000Y-71133250D01*
X116735000Y-70710000D01*
X125290000Y-70710000D01*
X125290000Y-72052141D01*
X125259718Y-72021859D01*
X125123372Y-72158205D01*
X124746916Y-71731315D01*
X123363069Y-71311613D01*
X121923948Y-71453434D01*
X121253084Y-71731315D01*
X120876627Y-72158206D01*
X123000000Y-74281580D01*
X123014142Y-74267437D01*
X123732563Y-74985858D01*
X123718420Y-75000000D01*
X123732563Y-75014142D01*
X123014142Y-75732563D01*
X123000000Y-75718420D01*
X120876627Y-77841794D01*
X121253084Y-78268685D01*
X122636931Y-78688387D01*
X124076052Y-78546566D01*
X124746916Y-78268685D01*
X125123372Y-77841795D01*
X125259718Y-77978141D01*
X125290000Y-77947859D01*
X125290000Y-79290000D01*
X119054337Y-79290000D01*
X119529469Y-79093680D01*
X119992055Y-78631900D01*
X120242714Y-78028247D01*
X120243284Y-77374621D01*
X120128731Y-77097380D01*
X120158206Y-77123373D01*
X122281580Y-75000000D01*
X120158206Y-72876627D01*
X119731315Y-73253084D01*
X119311613Y-74636931D01*
X119453434Y-76076052D01*
X119561960Y-76338058D01*
X119531900Y-76307945D01*
X118928247Y-76057286D01*
X118274621Y-76056716D01*
X117670531Y-76306320D01*
X117207945Y-76768100D01*
X116957286Y-77371753D01*
X116956716Y-78025379D01*
X117206320Y-78629469D01*
X117668100Y-79092055D01*
X118144804Y-79290000D01*
X116735000Y-79290000D01*
X116735000Y-78866750D01*
X116576250Y-78708000D01*
X114708000Y-78708000D01*
X114708000Y-78728000D01*
X113692000Y-78728000D01*
X113692000Y-78708000D01*
X111823750Y-78708000D01*
X111665000Y-78866750D01*
X111665000Y-79290000D01*
X90710000Y-79290000D01*
X90710000Y-77947859D01*
X90740282Y-77978141D01*
X90876628Y-77841795D01*
X91253084Y-78268685D01*
X92636931Y-78688387D01*
X94076052Y-78546566D01*
X94746916Y-78268685D01*
X95123373Y-77841794D01*
X93000000Y-75718420D01*
X92985858Y-75732563D01*
X92267437Y-75014142D01*
X92281580Y-75000000D01*
X93718420Y-75000000D01*
X95841794Y-77123373D01*
X96268685Y-76746916D01*
X96688387Y-75363069D01*
X96672807Y-75204971D01*
X109964821Y-75204971D01*
X110122058Y-75585515D01*
X110412954Y-75876919D01*
X110793223Y-76034820D01*
X111065000Y-76035057D01*
X111065000Y-76258002D01*
X111184977Y-76258002D01*
X111239475Y-76312500D01*
X111223750Y-76312500D01*
X111065000Y-76471250D01*
X111065000Y-76501309D01*
X111161673Y-76734698D01*
X111340301Y-76913327D01*
X111573690Y-77010000D01*
X111665000Y-77010000D01*
X111665000Y-77533250D01*
X111823750Y-77692000D01*
X112465000Y-77692000D01*
X112465000Y-77733250D01*
X112623750Y-77892000D01*
X114092000Y-77892000D01*
X114092000Y-76723750D01*
X113933250Y-76565000D01*
X113692000Y-76565000D01*
X113692000Y-76323750D01*
X114708000Y-76323750D01*
X114708000Y-77692000D01*
X115108000Y-77692000D01*
X115108000Y-77892000D01*
X116576250Y-77892000D01*
X116735000Y-77733250D01*
X116735000Y-76673691D01*
X116638327Y-76440302D01*
X116459699Y-76261673D01*
X116226310Y-76165000D01*
X114866750Y-76165000D01*
X114708000Y-76323750D01*
X113692000Y-76323750D01*
X113557254Y-76189004D01*
X113615596Y-76048154D01*
X113635000Y-76028750D01*
X113635000Y-75971250D01*
X113615596Y-75951846D01*
X113538327Y-75765302D01*
X113517100Y-75744075D01*
X113598157Y-75622765D01*
X113612353Y-75551397D01*
X113635000Y-75528750D01*
X113635000Y-75498691D01*
X113626783Y-75478853D01*
X113647440Y-75375000D01*
X113647440Y-75125000D01*
X113622576Y-75000000D01*
X113647440Y-74875000D01*
X113647440Y-74625000D01*
X113622576Y-74500000D01*
X113647440Y-74375000D01*
X113647440Y-74125000D01*
X113626783Y-74021147D01*
X113635000Y-74001309D01*
X113635000Y-73971250D01*
X113612353Y-73948603D01*
X113598157Y-73877235D01*
X113555242Y-73813008D01*
X113692000Y-73676250D01*
X113692000Y-73435000D01*
X113933250Y-73435000D01*
X114092000Y-73276250D01*
X114092000Y-72308000D01*
X114708000Y-72308000D01*
X114708000Y-73676250D01*
X114866750Y-73835000D01*
X116226310Y-73835000D01*
X116459699Y-73738327D01*
X116638327Y-73559698D01*
X116735000Y-73326309D01*
X116735000Y-72266750D01*
X116576250Y-72108000D01*
X115108000Y-72108000D01*
X115108000Y-72308000D01*
X114708000Y-72308000D01*
X114092000Y-72308000D01*
X114092000Y-72108000D01*
X112623750Y-72108000D01*
X112465000Y-72266750D01*
X112465000Y-72308000D01*
X111823750Y-72308000D01*
X111665000Y-72466750D01*
X111665000Y-72990000D01*
X111573690Y-72990000D01*
X111340301Y-73086673D01*
X111161673Y-73265302D01*
X111065000Y-73498691D01*
X111065000Y-73528750D01*
X111223750Y-73687500D01*
X111228621Y-73687500D01*
X111101843Y-73877235D01*
X111087647Y-73948603D01*
X111071188Y-73965062D01*
X110795029Y-73964821D01*
X110414485Y-74122058D01*
X110123081Y-74412954D01*
X109965180Y-74793223D01*
X109964821Y-75204971D01*
X96672807Y-75204971D01*
X96546566Y-73923948D01*
X96268685Y-73253084D01*
X95841794Y-72876627D01*
X93718420Y-75000000D01*
X92281580Y-75000000D01*
X92267437Y-74985858D01*
X92985858Y-74267437D01*
X93000000Y-74281580D01*
X95123373Y-72158206D01*
X94746916Y-71731315D01*
X93363069Y-71311613D01*
X91923948Y-71453434D01*
X91253084Y-71731315D01*
X90876628Y-72158205D01*
X90740282Y-72021859D01*
X90710000Y-72052141D01*
X90710000Y-70710000D01*
X97303644Y-70710000D01*
X97070531Y-70806320D01*
X97070531Y-70806320D01*
G37*
X97070531Y-70806320D02*
X96607945Y-71268100D01*
X96357286Y-71871753D01*
X96356716Y-72525379D01*
X96606320Y-73129469D01*
X97068100Y-73592055D01*
X97671753Y-73842714D01*
X98325379Y-73843284D01*
X98929469Y-73593680D01*
X99392055Y-73131900D01*
X99642714Y-72528247D01*
X99643284Y-71874621D01*
X99393680Y-71270531D01*
X98931900Y-70807945D01*
X98696023Y-70710000D01*
X111665000Y-70710000D01*
X111665000Y-71133250D01*
X111823750Y-71292000D01*
X113692000Y-71292000D01*
X113692000Y-71272000D01*
X114708000Y-71272000D01*
X114708000Y-71292000D01*
X116576250Y-71292000D01*
X116735000Y-71133250D01*
X116735000Y-70710000D01*
X125290000Y-70710000D01*
X125290000Y-72052141D01*
X125259718Y-72021859D01*
X125123372Y-72158205D01*
X124746916Y-71731315D01*
X123363069Y-71311613D01*
X121923948Y-71453434D01*
X121253084Y-71731315D01*
X120876627Y-72158206D01*
X123000000Y-74281580D01*
X123014142Y-74267437D01*
X123732563Y-74985858D01*
X123718420Y-75000000D01*
X123732563Y-75014142D01*
X123014142Y-75732563D01*
X123000000Y-75718420D01*
X120876627Y-77841794D01*
X121253084Y-78268685D01*
X122636931Y-78688387D01*
X124076052Y-78546566D01*
X124746916Y-78268685D01*
X125123372Y-77841795D01*
X125259718Y-77978141D01*
X125290000Y-77947859D01*
X125290000Y-79290000D01*
X119054337Y-79290000D01*
X119529469Y-79093680D01*
X119992055Y-78631900D01*
X120242714Y-78028247D01*
X120243284Y-77374621D01*
X120128731Y-77097380D01*
X120158206Y-77123373D01*
X122281580Y-75000000D01*
X120158206Y-72876627D01*
X119731315Y-73253084D01*
X119311613Y-74636931D01*
X119453434Y-76076052D01*
X119561960Y-76338058D01*
X119531900Y-76307945D01*
X118928247Y-76057286D01*
X118274621Y-76056716D01*
X117670531Y-76306320D01*
X117207945Y-76768100D01*
X116957286Y-77371753D01*
X116956716Y-78025379D01*
X117206320Y-78629469D01*
X117668100Y-79092055D01*
X118144804Y-79290000D01*
X116735000Y-79290000D01*
X116735000Y-78866750D01*
X116576250Y-78708000D01*
X114708000Y-78708000D01*
X114708000Y-78728000D01*
X113692000Y-78728000D01*
X113692000Y-78708000D01*
X111823750Y-78708000D01*
X111665000Y-78866750D01*
X111665000Y-79290000D01*
X90710000Y-79290000D01*
X90710000Y-77947859D01*
X90740282Y-77978141D01*
X90876628Y-77841795D01*
X91253084Y-78268685D01*
X92636931Y-78688387D01*
X94076052Y-78546566D01*
X94746916Y-78268685D01*
X95123373Y-77841794D01*
X93000000Y-75718420D01*
X92985858Y-75732563D01*
X92267437Y-75014142D01*
X92281580Y-75000000D01*
X93718420Y-75000000D01*
X95841794Y-77123373D01*
X96268685Y-76746916D01*
X96688387Y-75363069D01*
X96672807Y-75204971D01*
X109964821Y-75204971D01*
X110122058Y-75585515D01*
X110412954Y-75876919D01*
X110793223Y-76034820D01*
X111065000Y-76035057D01*
X111065000Y-76258002D01*
X111184977Y-76258002D01*
X111239475Y-76312500D01*
X111223750Y-76312500D01*
X111065000Y-76471250D01*
X111065000Y-76501309D01*
X111161673Y-76734698D01*
X111340301Y-76913327D01*
X111573690Y-77010000D01*
X111665000Y-77010000D01*
X111665000Y-77533250D01*
X111823750Y-77692000D01*
X112465000Y-77692000D01*
X112465000Y-77733250D01*
X112623750Y-77892000D01*
X114092000Y-77892000D01*
X114092000Y-76723750D01*
X113933250Y-76565000D01*
X113692000Y-76565000D01*
X113692000Y-76323750D01*
X114708000Y-76323750D01*
X114708000Y-77692000D01*
X115108000Y-77692000D01*
X115108000Y-77892000D01*
X116576250Y-77892000D01*
X116735000Y-77733250D01*
X116735000Y-76673691D01*
X116638327Y-76440302D01*
X116459699Y-76261673D01*
X116226310Y-76165000D01*
X114866750Y-76165000D01*
X114708000Y-76323750D01*
X113692000Y-76323750D01*
X113557254Y-76189004D01*
X113615596Y-76048154D01*
X113635000Y-76028750D01*
X113635000Y-75971250D01*
X113615596Y-75951846D01*
X113538327Y-75765302D01*
X113517100Y-75744075D01*
X113598157Y-75622765D01*
X113612353Y-75551397D01*
X113635000Y-75528750D01*
X113635000Y-75498691D01*
X113626783Y-75478853D01*
X113647440Y-75375000D01*
X113647440Y-75125000D01*
X113622576Y-75000000D01*
X113647440Y-74875000D01*
X113647440Y-74625000D01*
X113622576Y-74500000D01*
X113647440Y-74375000D01*
X113647440Y-74125000D01*
X113626783Y-74021147D01*
X113635000Y-74001309D01*
X113635000Y-73971250D01*
X113612353Y-73948603D01*
X113598157Y-73877235D01*
X113555242Y-73813008D01*
X113692000Y-73676250D01*
X113692000Y-73435000D01*
X113933250Y-73435000D01*
X114092000Y-73276250D01*
X114092000Y-72308000D01*
X114708000Y-72308000D01*
X114708000Y-73676250D01*
X114866750Y-73835000D01*
X116226310Y-73835000D01*
X116459699Y-73738327D01*
X116638327Y-73559698D01*
X116735000Y-73326309D01*
X116735000Y-72266750D01*
X116576250Y-72108000D01*
X115108000Y-72108000D01*
X115108000Y-72308000D01*
X114708000Y-72308000D01*
X114092000Y-72308000D01*
X114092000Y-72108000D01*
X112623750Y-72108000D01*
X112465000Y-72266750D01*
X112465000Y-72308000D01*
X111823750Y-72308000D01*
X111665000Y-72466750D01*
X111665000Y-72990000D01*
X111573690Y-72990000D01*
X111340301Y-73086673D01*
X111161673Y-73265302D01*
X111065000Y-73498691D01*
X111065000Y-73528750D01*
X111223750Y-73687500D01*
X111228621Y-73687500D01*
X111101843Y-73877235D01*
X111087647Y-73948603D01*
X111071188Y-73965062D01*
X110795029Y-73964821D01*
X110414485Y-74122058D01*
X110123081Y-74412954D01*
X109965180Y-74793223D01*
X109964821Y-75204971D01*
X96672807Y-75204971D01*
X96546566Y-73923948D01*
X96268685Y-73253084D01*
X95841794Y-72876627D01*
X93718420Y-75000000D01*
X92281580Y-75000000D01*
X92267437Y-74985858D01*
X92985858Y-74267437D01*
X93000000Y-74281580D01*
X95123373Y-72158206D01*
X94746916Y-71731315D01*
X93363069Y-71311613D01*
X91923948Y-71453434D01*
X91253084Y-71731315D01*
X90876628Y-72158205D01*
X90740282Y-72021859D01*
X90710000Y-72052141D01*
X90710000Y-70710000D01*
X97303644Y-70710000D01*
X97070531Y-70806320D01*
M02*
