G04 #@! TF.FileFunction,Soldermask,Top*
%FSLAX46Y46*%
G04 Gerber Fmt 4.6, Leading zero omitted, Abs format (unit mm)*
G04 Created by KiCad (PCBNEW 4.1.0-alpha+201608171232+7063~46~ubuntu14.04.1-product) date Tue Aug 30 16:53:00 2016*
%MOMM*%
%LPD*%
G01*
G04 APERTURE LIST*
%ADD10C,0.600000*%
%ADD11C,0.150000*%
%ADD12R,0.650000X1.700000*%
%ADD13R,2.200000X3.400000*%
%ADD14R,2.100000X2.100000*%
%ADD15C,6.400000*%
%ADD16R,0.900000X0.950000*%
%ADD17R,1.117600X1.117600*%
%ADD18R,0.950000X0.900000*%
%ADD19R,1.879600X1.879600*%
%ADD20C,1.879600*%
%ADD21O,1.879600X1.879600*%
%ADD22R,1.625600X1.371600*%
%ADD23R,0.651600X0.601600*%
%ADD24R,0.601600X0.651600*%
%ADD25R,1.117600X0.863600*%
%ADD26R,1.117600X0.609600*%
%ADD27C,1.254000*%
%ADD28R,0.900000X2.800000*%
%ADD29R,2.600000X3.900000*%
%ADD30R,1.700000X0.650000*%
%ADD31R,3.400000X2.200000*%
G04 APERTURE END LIST*
D10*
D11*
X175514000Y-99999800D02*
X175514000Y-80010000D01*
X107010200Y-99999800D02*
X107010200Y-65506600D01*
X175514000Y-80010000D02*
X107010200Y-65506600D01*
X107010200Y-99999800D02*
X175514000Y-99999800D01*
D12*
X167250000Y-94750000D03*
X167750000Y-94750000D03*
X168250000Y-94750000D03*
X168750000Y-94750000D03*
X169250000Y-94750000D03*
X169750000Y-94750000D03*
D13*
X165750000Y-97000000D03*
X174250000Y-97000000D03*
D12*
X170250000Y-94750000D03*
X170750000Y-94750000D03*
X171250000Y-94750000D03*
X171750000Y-94750000D03*
X172250000Y-94750000D03*
X172750000Y-94750000D03*
D14*
X136990000Y-86000000D03*
X132010000Y-86000000D03*
D10*
G36*
X117431162Y-80512184D02*
X119128218Y-78815128D01*
X119764614Y-79451524D01*
X118067558Y-81148580D01*
X117431162Y-80512184D01*
X117431162Y-80512184D01*
G37*
G36*
X117996847Y-81077869D02*
X119693903Y-79380813D01*
X120330299Y-80017209D01*
X118633243Y-81714265D01*
X117996847Y-81077869D01*
X117996847Y-81077869D01*
G37*
G36*
X118562533Y-81643555D02*
X120259589Y-79946499D01*
X120895985Y-80582895D01*
X119198929Y-82279951D01*
X118562533Y-81643555D01*
X118562533Y-81643555D01*
G37*
G36*
X119128218Y-82209240D02*
X120825274Y-80512184D01*
X121461670Y-81148580D01*
X119764614Y-82845636D01*
X119128218Y-82209240D01*
X119128218Y-82209240D01*
G37*
G36*
X119693904Y-82774926D02*
X121390960Y-81077870D01*
X122027356Y-81714266D01*
X120330300Y-83411322D01*
X119693904Y-82774926D01*
X119693904Y-82774926D01*
G37*
G36*
X120259589Y-83340611D02*
X121956645Y-81643555D01*
X122593041Y-82279951D01*
X120895985Y-83977007D01*
X120259589Y-83340611D01*
X120259589Y-83340611D01*
G37*
G36*
X120825274Y-83906296D02*
X122522330Y-82209240D01*
X123158726Y-82845636D01*
X121461670Y-84542692D01*
X120825274Y-83906296D01*
X120825274Y-83906296D01*
G37*
G36*
X121390960Y-84471982D02*
X123088016Y-82774926D01*
X123724412Y-83411322D01*
X122027356Y-85108378D01*
X121390960Y-84471982D01*
X121390960Y-84471982D01*
G37*
G36*
X121956645Y-85037667D02*
X123653701Y-83340611D01*
X124290097Y-83977007D01*
X122593041Y-85674063D01*
X121956645Y-85037667D01*
X121956645Y-85037667D01*
G37*
G36*
X122522331Y-85603353D02*
X124219387Y-83906297D01*
X124855783Y-84542693D01*
X123158727Y-86239749D01*
X122522331Y-85603353D01*
X122522331Y-85603353D01*
G37*
G36*
X123088016Y-86169038D02*
X124785072Y-84471982D01*
X125421468Y-85108378D01*
X123724412Y-86805434D01*
X123088016Y-86169038D01*
X123088016Y-86169038D01*
G37*
G36*
X127047814Y-86805434D02*
X125350758Y-85108378D01*
X125987154Y-84471982D01*
X127684210Y-86169038D01*
X127047814Y-86805434D01*
X127047814Y-86805434D01*
G37*
G36*
X127613499Y-86239749D02*
X125916443Y-84542693D01*
X126552839Y-83906297D01*
X128249895Y-85603353D01*
X127613499Y-86239749D01*
X127613499Y-86239749D01*
G37*
G36*
X128179185Y-85674063D02*
X126482129Y-83977007D01*
X127118525Y-83340611D01*
X128815581Y-85037667D01*
X128179185Y-85674063D01*
X128179185Y-85674063D01*
G37*
G36*
X128744870Y-85108378D02*
X127047814Y-83411322D01*
X127684210Y-82774926D01*
X129381266Y-84471982D01*
X128744870Y-85108378D01*
X128744870Y-85108378D01*
G37*
G36*
X129310556Y-84542692D02*
X127613500Y-82845636D01*
X128249896Y-82209240D01*
X129946952Y-83906296D01*
X129310556Y-84542692D01*
X129310556Y-84542692D01*
G37*
G36*
X129876241Y-83977007D02*
X128179185Y-82279951D01*
X128815581Y-81643555D01*
X130512637Y-83340611D01*
X129876241Y-83977007D01*
X129876241Y-83977007D01*
G37*
G36*
X130441926Y-83411322D02*
X128744870Y-81714266D01*
X129381266Y-81077870D01*
X131078322Y-82774926D01*
X130441926Y-83411322D01*
X130441926Y-83411322D01*
G37*
G36*
X131007612Y-82845636D02*
X129310556Y-81148580D01*
X129946952Y-80512184D01*
X131644008Y-82209240D01*
X131007612Y-82845636D01*
X131007612Y-82845636D01*
G37*
G36*
X131573297Y-82279951D02*
X129876241Y-80582895D01*
X130512637Y-79946499D01*
X132209693Y-81643555D01*
X131573297Y-82279951D01*
X131573297Y-82279951D01*
G37*
G36*
X132138983Y-81714265D02*
X130441927Y-80017209D01*
X131078323Y-79380813D01*
X132775379Y-81077869D01*
X132138983Y-81714265D01*
X132138983Y-81714265D01*
G37*
G36*
X132704668Y-81148580D02*
X131007612Y-79451524D01*
X131644008Y-78815128D01*
X133341064Y-80512184D01*
X132704668Y-81148580D01*
X132704668Y-81148580D01*
G37*
G36*
X131007612Y-78249442D02*
X132704668Y-76552386D01*
X133341064Y-77188782D01*
X131644008Y-78885838D01*
X131007612Y-78249442D01*
X131007612Y-78249442D01*
G37*
G36*
X130441927Y-77683757D02*
X132138983Y-75986701D01*
X132775379Y-76623097D01*
X131078323Y-78320153D01*
X130441927Y-77683757D01*
X130441927Y-77683757D01*
G37*
G36*
X129876241Y-77118071D02*
X131573297Y-75421015D01*
X132209693Y-76057411D01*
X130512637Y-77754467D01*
X129876241Y-77118071D01*
X129876241Y-77118071D01*
G37*
G36*
X129310556Y-76552386D02*
X131007612Y-74855330D01*
X131644008Y-75491726D01*
X129946952Y-77188782D01*
X129310556Y-76552386D01*
X129310556Y-76552386D01*
G37*
G36*
X128744870Y-75986700D02*
X130441926Y-74289644D01*
X131078322Y-74926040D01*
X129381266Y-76623096D01*
X128744870Y-75986700D01*
X128744870Y-75986700D01*
G37*
G36*
X128179185Y-75421015D02*
X129876241Y-73723959D01*
X130512637Y-74360355D01*
X128815581Y-76057411D01*
X128179185Y-75421015D01*
X128179185Y-75421015D01*
G37*
G36*
X127613500Y-74855330D02*
X129310556Y-73158274D01*
X129946952Y-73794670D01*
X128249896Y-75491726D01*
X127613500Y-74855330D01*
X127613500Y-74855330D01*
G37*
G36*
X127047814Y-74289644D02*
X128744870Y-72592588D01*
X129381266Y-73228984D01*
X127684210Y-74926040D01*
X127047814Y-74289644D01*
X127047814Y-74289644D01*
G37*
G36*
X126482129Y-73723959D02*
X128179185Y-72026903D01*
X128815581Y-72663299D01*
X127118525Y-74360355D01*
X126482129Y-73723959D01*
X126482129Y-73723959D01*
G37*
G36*
X125916443Y-73158273D02*
X127613499Y-71461217D01*
X128249895Y-72097613D01*
X126552839Y-73794669D01*
X125916443Y-73158273D01*
X125916443Y-73158273D01*
G37*
G36*
X125350758Y-72592588D02*
X127047814Y-70895532D01*
X127684210Y-71531928D01*
X125987154Y-73228984D01*
X125350758Y-72592588D01*
X125350758Y-72592588D01*
G37*
G36*
X124785072Y-73228984D02*
X123088016Y-71531928D01*
X123724412Y-70895532D01*
X125421468Y-72592588D01*
X124785072Y-73228984D01*
X124785072Y-73228984D01*
G37*
G36*
X124219387Y-73794669D02*
X122522331Y-72097613D01*
X123158727Y-71461217D01*
X124855783Y-73158273D01*
X124219387Y-73794669D01*
X124219387Y-73794669D01*
G37*
G36*
X123653701Y-74360355D02*
X121956645Y-72663299D01*
X122593041Y-72026903D01*
X124290097Y-73723959D01*
X123653701Y-74360355D01*
X123653701Y-74360355D01*
G37*
G36*
X123088016Y-74926040D02*
X121390960Y-73228984D01*
X122027356Y-72592588D01*
X123724412Y-74289644D01*
X123088016Y-74926040D01*
X123088016Y-74926040D01*
G37*
G36*
X122522330Y-75491726D02*
X120825274Y-73794670D01*
X121461670Y-73158274D01*
X123158726Y-74855330D01*
X122522330Y-75491726D01*
X122522330Y-75491726D01*
G37*
G36*
X121956645Y-76057411D02*
X120259589Y-74360355D01*
X120895985Y-73723959D01*
X122593041Y-75421015D01*
X121956645Y-76057411D01*
X121956645Y-76057411D01*
G37*
G36*
X121390960Y-76623096D02*
X119693904Y-74926040D01*
X120330300Y-74289644D01*
X122027356Y-75986700D01*
X121390960Y-76623096D01*
X121390960Y-76623096D01*
G37*
G36*
X120825274Y-77188782D02*
X119128218Y-75491726D01*
X119764614Y-74855330D01*
X121461670Y-76552386D01*
X120825274Y-77188782D01*
X120825274Y-77188782D01*
G37*
G36*
X120259589Y-77754467D02*
X118562533Y-76057411D01*
X119198929Y-75421015D01*
X120895985Y-77118071D01*
X120259589Y-77754467D01*
X120259589Y-77754467D01*
G37*
G36*
X119693903Y-78320153D02*
X117996847Y-76623097D01*
X118633243Y-75986701D01*
X120330299Y-77683757D01*
X119693903Y-78320153D01*
X119693903Y-78320153D01*
G37*
G36*
X119128218Y-78885838D02*
X117431162Y-77188782D01*
X118067558Y-76552386D01*
X119764614Y-78249442D01*
X119128218Y-78885838D01*
X119128218Y-78885838D01*
G37*
D15*
X155000000Y-97500000D03*
X111000000Y-97500000D03*
D16*
X110172500Y-82486500D03*
X111188500Y-82486500D03*
X110172500Y-81496000D03*
X111188500Y-81496000D03*
X110172500Y-80518000D03*
X111188500Y-80518000D03*
D10*
G36*
X120034074Y-84159322D02*
X119362322Y-84831074D01*
X118725926Y-84194678D01*
X119397678Y-83522926D01*
X120034074Y-84159322D01*
X120034074Y-84159322D01*
G37*
G36*
X119444346Y-84913098D02*
X120116098Y-84241346D01*
X120752494Y-84877742D01*
X120080742Y-85549494D01*
X119444346Y-84913098D01*
X119444346Y-84913098D01*
G37*
D16*
X112894000Y-68796000D03*
X111878000Y-68796000D03*
D17*
X160495000Y-84836000D03*
X160495000Y-86614000D03*
X112522000Y-84201000D03*
X110744000Y-84201000D03*
D10*
G36*
X118232888Y-75391364D02*
X117561136Y-74719612D01*
X118197532Y-74083216D01*
X118869284Y-74754968D01*
X118232888Y-75391364D01*
X118232888Y-75391364D01*
G37*
G36*
X117479112Y-74801636D02*
X118150864Y-75473388D01*
X117514468Y-76109784D01*
X116842716Y-75438032D01*
X117479112Y-74801636D01*
X117479112Y-74801636D01*
G37*
D16*
X161139200Y-96453200D03*
X160123200Y-96453200D03*
D18*
X142000000Y-90008000D03*
X142000000Y-88992000D03*
X120000000Y-90008000D03*
X120000000Y-88992000D03*
X122000000Y-90000000D03*
X122000000Y-88984000D03*
X130000000Y-90008000D03*
X130000000Y-88992000D03*
X131000000Y-90008000D03*
X131000000Y-88992000D03*
X132000000Y-90000000D03*
X132000000Y-88984000D03*
X133000000Y-90008000D03*
X133000000Y-88992000D03*
X134000000Y-90008000D03*
X134000000Y-88992000D03*
X135000000Y-90000000D03*
X135000000Y-88984000D03*
X136000000Y-90008000D03*
X136000000Y-88992000D03*
X137000000Y-90016000D03*
X137000000Y-89000000D03*
X138000000Y-90000000D03*
X138000000Y-88984000D03*
X139000000Y-90000000D03*
X139000000Y-88984000D03*
X140000000Y-90016000D03*
X140000000Y-89000000D03*
X141000000Y-90008000D03*
X141000000Y-88992000D03*
X119000000Y-90008000D03*
X119000000Y-88992000D03*
X139000000Y-87000000D03*
X139000000Y-88016000D03*
X130000000Y-87000000D03*
X130000000Y-88016000D03*
D19*
X113540000Y-76000000D03*
D20*
X113540000Y-73460000D03*
X113540000Y-70920000D03*
X111000000Y-73460000D03*
D21*
X111000000Y-76000000D03*
D20*
X111000000Y-70920000D03*
D22*
X158463000Y-86614000D03*
X156431000Y-86614000D03*
D23*
X112242500Y-78638400D03*
X112242500Y-79654400D03*
D24*
X159957000Y-90000000D03*
X158941000Y-90000000D03*
X159957000Y-88924900D03*
X158941000Y-88924900D03*
X161037600Y-97824800D03*
X160021600Y-97824800D03*
X162095000Y-96440500D03*
X163111000Y-96440500D03*
X163111000Y-97837500D03*
X162095000Y-97837500D03*
X161139200Y-95234000D03*
X160123200Y-95234000D03*
D23*
X112262000Y-80496000D03*
X112262000Y-81512000D03*
D24*
X163104400Y-95246700D03*
X162088400Y-95246700D03*
X159992000Y-93500000D03*
X161008000Y-93500000D03*
D25*
X112115600Y-89966800D03*
X110591600Y-89966800D03*
X112115600Y-92506800D03*
X110591600Y-92506800D03*
D26*
X112115600Y-90855800D03*
X112115600Y-91617800D03*
X110591600Y-90855800D03*
X110591600Y-91617800D03*
D25*
X112141000Y-85852000D03*
X110617000Y-85852000D03*
X112141000Y-88392000D03*
X110617000Y-88392000D03*
D26*
X112141000Y-86741000D03*
X112141000Y-87503000D03*
X110617000Y-86741000D03*
X110617000Y-87503000D03*
D27*
X109000000Y-68000000D03*
X172593000Y-88773000D03*
X121000000Y-98000000D03*
D28*
X142000000Y-93000000D03*
X141000000Y-93000000D03*
X140000000Y-93000000D03*
X139000000Y-93000000D03*
X138000000Y-93000000D03*
X137000000Y-93000000D03*
X136000000Y-93000000D03*
X135000000Y-93000000D03*
X134000000Y-93000000D03*
X133000000Y-93000000D03*
X132000000Y-93000000D03*
X131000000Y-93000000D03*
X130000000Y-93000000D03*
X129000000Y-93000000D03*
X128000000Y-93000000D03*
X127000000Y-93000000D03*
X126000000Y-93000000D03*
X125000000Y-93000000D03*
X124000000Y-93000000D03*
X123000000Y-93000000D03*
X122000000Y-93000000D03*
X121000000Y-93000000D03*
X120000000Y-93000000D03*
X119000000Y-93000000D03*
D29*
X116500000Y-96000000D03*
X144500000Y-96000000D03*
D30*
X163299000Y-90551000D03*
X163299000Y-90051000D03*
X163299000Y-89551000D03*
X163299000Y-89051000D03*
X163299000Y-88551000D03*
X163299000Y-88051000D03*
D31*
X165549000Y-92401000D03*
X165549000Y-86201000D03*
M02*
