G04 #@! TF.FileFunction,Legend,Bot*
%FSLAX46Y46*%
G04 Gerber Fmt 4.6, Leading zero omitted, Abs format (unit mm)*
G04 Created by KiCad (PCBNEW 4.1.0-alpha+201608171232+7063~46~ubuntu14.04.1-product) date Tue Aug 30 16:53:00 2016*
%MOMM*%
%LPD*%
G01*
G04 APERTURE LIST*
%ADD10C,0.600000*%
%ADD11C,0.300000*%
%ADD12C,0.200000*%
%ADD13C,0.175000*%
%ADD14C,0.250000*%
%ADD15C,0.150000*%
%ADD16C,0.254000*%
%ADD17C,0.508000*%
%ADD18C,0.127000*%
%ADD19C,0.100000*%
%ADD20C,0.700000*%
%ADD21C,0.400000*%
%ADD22C,0.500000*%
%ADD23C,0.350000*%
G04 APERTURE END LIST*
D10*
D11*
X148082600Y-98163771D02*
X148082600Y-96663771D01*
X147439742Y-98163771D02*
X147439742Y-97378057D01*
X147511171Y-97235200D01*
X147654028Y-97163771D01*
X147868314Y-97163771D01*
X148011171Y-97235200D01*
X148082600Y-97306628D01*
X146939742Y-97163771D02*
X146368314Y-97163771D01*
X146725457Y-96663771D02*
X146725457Y-97949485D01*
X146654028Y-98092342D01*
X146511171Y-98163771D01*
X146368314Y-98163771D01*
X146082600Y-97163771D02*
X145511171Y-97163771D01*
X145868314Y-96663771D02*
X145868314Y-97949485D01*
X145796885Y-98092342D01*
X145654028Y-98163771D01*
X145511171Y-98163771D01*
X145011171Y-97163771D02*
X145011171Y-98663771D01*
X145011171Y-97235200D02*
X144868314Y-97163771D01*
X144582600Y-97163771D01*
X144439742Y-97235200D01*
X144368314Y-97306628D01*
X144296885Y-97449485D01*
X144296885Y-97878057D01*
X144368314Y-98020914D01*
X144439742Y-98092342D01*
X144582600Y-98163771D01*
X144868314Y-98163771D01*
X145011171Y-98092342D01*
X143725457Y-98092342D02*
X143582600Y-98163771D01*
X143296885Y-98163771D01*
X143154028Y-98092342D01*
X143082600Y-97949485D01*
X143082600Y-97878057D01*
X143154028Y-97735200D01*
X143296885Y-97663771D01*
X143511171Y-97663771D01*
X143654028Y-97592342D01*
X143725457Y-97449485D01*
X143725457Y-97378057D01*
X143654028Y-97235200D01*
X143511171Y-97163771D01*
X143296885Y-97163771D01*
X143154028Y-97235200D01*
X142439742Y-98020914D02*
X142368314Y-98092342D01*
X142439742Y-98163771D01*
X142511171Y-98092342D01*
X142439742Y-98020914D01*
X142439742Y-98163771D01*
X142439742Y-97235200D02*
X142368314Y-97306628D01*
X142439742Y-97378057D01*
X142511171Y-97306628D01*
X142439742Y-97235200D01*
X142439742Y-97378057D01*
X140654028Y-96592342D02*
X141939742Y-98520914D01*
X139082600Y-96592342D02*
X140368314Y-98520914D01*
X138725457Y-97163771D02*
X138439742Y-98163771D01*
X138154028Y-97449485D01*
X137868314Y-98163771D01*
X137582600Y-97163771D01*
X137154028Y-97163771D02*
X136868314Y-98163771D01*
X136582600Y-97449485D01*
X136296885Y-98163771D01*
X136011171Y-97163771D01*
X135582600Y-97163771D02*
X135296885Y-98163771D01*
X135011171Y-97449485D01*
X134725457Y-98163771D01*
X134439742Y-97163771D01*
X133868314Y-98020914D02*
X133796885Y-98092342D01*
X133868314Y-98163771D01*
X133939742Y-98092342D01*
X133868314Y-98020914D01*
X133868314Y-98163771D01*
X132939742Y-98163771D02*
X133082600Y-98092342D01*
X133154028Y-98020914D01*
X133225457Y-97878057D01*
X133225457Y-97449485D01*
X133154028Y-97306628D01*
X133082600Y-97235200D01*
X132939742Y-97163771D01*
X132725457Y-97163771D01*
X132582600Y-97235200D01*
X132511171Y-97306628D01*
X132439742Y-97449485D01*
X132439742Y-97878057D01*
X132511171Y-98020914D01*
X132582600Y-98092342D01*
X132725457Y-98163771D01*
X132939742Y-98163771D01*
X131582600Y-98163771D02*
X131725457Y-98092342D01*
X131796885Y-97949485D01*
X131796885Y-96663771D01*
X131011171Y-98163771D02*
X131011171Y-97163771D01*
X131011171Y-96663771D02*
X131082600Y-96735200D01*
X131011171Y-96806628D01*
X130939742Y-96735200D01*
X131011171Y-96663771D01*
X131011171Y-96806628D01*
X130296885Y-98163771D02*
X130296885Y-97163771D01*
X130296885Y-97306628D02*
X130225457Y-97235200D01*
X130082600Y-97163771D01*
X129868314Y-97163771D01*
X129725457Y-97235200D01*
X129654028Y-97378057D01*
X129654028Y-98163771D01*
X129654028Y-97378057D02*
X129582600Y-97235200D01*
X129439742Y-97163771D01*
X129225457Y-97163771D01*
X129082600Y-97235200D01*
X129011171Y-97378057D01*
X129011171Y-98163771D01*
X127725457Y-98092342D02*
X127868314Y-98163771D01*
X128154028Y-98163771D01*
X128296885Y-98092342D01*
X128368314Y-97949485D01*
X128368314Y-97378057D01*
X128296885Y-97235200D01*
X128154028Y-97163771D01*
X127868314Y-97163771D01*
X127725457Y-97235200D01*
X127654028Y-97378057D01*
X127654028Y-97520914D01*
X128368314Y-97663771D01*
X127154028Y-98163771D02*
X126368314Y-97163771D01*
X127154028Y-97163771D02*
X126368314Y-98163771D01*
X125796885Y-98020914D02*
X125725457Y-98092342D01*
X125796885Y-98163771D01*
X125868314Y-98092342D01*
X125796885Y-98020914D01*
X125796885Y-98163771D01*
X124439742Y-98092342D02*
X124582600Y-98163771D01*
X124868314Y-98163771D01*
X125011171Y-98092342D01*
X125082600Y-98020914D01*
X125154028Y-97878057D01*
X125154028Y-97449485D01*
X125082600Y-97306628D01*
X125011171Y-97235200D01*
X124868314Y-97163771D01*
X124582600Y-97163771D01*
X124439742Y-97235200D01*
X123582600Y-98163771D02*
X123725457Y-98092342D01*
X123796885Y-98020914D01*
X123868314Y-97878057D01*
X123868314Y-97449485D01*
X123796885Y-97306628D01*
X123725457Y-97235200D01*
X123582600Y-97163771D01*
X123368314Y-97163771D01*
X123225457Y-97235200D01*
X123154028Y-97306628D01*
X123082600Y-97449485D01*
X123082600Y-97878057D01*
X123154028Y-98020914D01*
X123225457Y-98092342D01*
X123368314Y-98163771D01*
X123582600Y-98163771D01*
X122439742Y-98163771D02*
X122439742Y-97163771D01*
X122439742Y-97306628D02*
X122368314Y-97235200D01*
X122225457Y-97163771D01*
X122011171Y-97163771D01*
X121868314Y-97235200D01*
X121796885Y-97378057D01*
X121796885Y-98163771D01*
X121796885Y-97378057D02*
X121725457Y-97235200D01*
X121582600Y-97163771D01*
X121368314Y-97163771D01*
X121225457Y-97235200D01*
X121154028Y-97378057D01*
X121154028Y-98163771D01*
X119368314Y-96592342D02*
X120654028Y-98520914D01*
D12*
X109346923Y-70442200D02*
X109423114Y-70394580D01*
X109537400Y-70394580D01*
X109651685Y-70442200D01*
X109727876Y-70537438D01*
X109765971Y-70632676D01*
X109804066Y-70823152D01*
X109804066Y-70966009D01*
X109765971Y-71156485D01*
X109727876Y-71251723D01*
X109651685Y-71346961D01*
X109537400Y-71394580D01*
X109461209Y-71394580D01*
X109346923Y-71346961D01*
X109308828Y-71299342D01*
X109308828Y-70966009D01*
X109461209Y-70966009D01*
X108965971Y-71394580D02*
X108965971Y-70394580D01*
X108508828Y-71394580D01*
X108508828Y-70394580D01*
X108127876Y-71394580D02*
X108127876Y-70394580D01*
X107937400Y-70394580D01*
X107823114Y-70442200D01*
X107746923Y-70537438D01*
X107708828Y-70632676D01*
X107670733Y-70823152D01*
X107670733Y-70966009D01*
X107708828Y-71156485D01*
X107746923Y-71251723D01*
X107823114Y-71346961D01*
X107937400Y-71394580D01*
X108127876Y-71394580D01*
X109804066Y-75525380D02*
X109537400Y-76525380D01*
X109270733Y-75525380D01*
X109004066Y-76525380D02*
X109004066Y-75525380D01*
X108813590Y-75525380D01*
X108699304Y-75573000D01*
X108623114Y-75668238D01*
X108585019Y-75763476D01*
X108546923Y-75953952D01*
X108546923Y-76096809D01*
X108585019Y-76287285D01*
X108623114Y-76382523D01*
X108699304Y-76477761D01*
X108813590Y-76525380D01*
X109004066Y-76525380D01*
X108204066Y-76525380D02*
X108204066Y-75525380D01*
X108013590Y-75525380D01*
X107899304Y-75573000D01*
X107823114Y-75668238D01*
X107785019Y-75763476D01*
X107746923Y-75953952D01*
X107746923Y-76096809D01*
X107785019Y-76287285D01*
X107823114Y-76382523D01*
X107899304Y-76477761D01*
X108013590Y-76525380D01*
X108204066Y-76525380D01*
X116338295Y-71318380D02*
X116604961Y-70842190D01*
X116795438Y-71318380D02*
X116795438Y-70318380D01*
X116490676Y-70318380D01*
X116414485Y-70366000D01*
X116376390Y-70413619D01*
X116338295Y-70508857D01*
X116338295Y-70651714D01*
X116376390Y-70746952D01*
X116414485Y-70794571D01*
X116490676Y-70842190D01*
X116795438Y-70842190D01*
X116033533Y-71270761D02*
X115919247Y-71318380D01*
X115728771Y-71318380D01*
X115652580Y-71270761D01*
X115614485Y-71223142D01*
X115576390Y-71127904D01*
X115576390Y-71032666D01*
X115614485Y-70937428D01*
X115652580Y-70889809D01*
X115728771Y-70842190D01*
X115881152Y-70794571D01*
X115957342Y-70746952D01*
X115995438Y-70699333D01*
X116033533Y-70604095D01*
X116033533Y-70508857D01*
X115995438Y-70413619D01*
X115957342Y-70366000D01*
X115881152Y-70318380D01*
X115690676Y-70318380D01*
X115576390Y-70366000D01*
X115347819Y-70318380D02*
X114890676Y-70318380D01*
X115119247Y-71318380D02*
X115119247Y-70318380D01*
X116827171Y-73912361D02*
X116712885Y-73959980D01*
X116522409Y-73959980D01*
X116446219Y-73912361D01*
X116408123Y-73864742D01*
X116370028Y-73769504D01*
X116370028Y-73674266D01*
X116408123Y-73579028D01*
X116446219Y-73531409D01*
X116522409Y-73483790D01*
X116674790Y-73436171D01*
X116750980Y-73388552D01*
X116789076Y-73340933D01*
X116827171Y-73245695D01*
X116827171Y-73150457D01*
X116789076Y-73055219D01*
X116750980Y-73007600D01*
X116674790Y-72959980D01*
X116484314Y-72959980D01*
X116370028Y-73007600D01*
X115570028Y-73864742D02*
X115608123Y-73912361D01*
X115722409Y-73959980D01*
X115798600Y-73959980D01*
X115912885Y-73912361D01*
X115989076Y-73817123D01*
X116027171Y-73721885D01*
X116065266Y-73531409D01*
X116065266Y-73388552D01*
X116027171Y-73198076D01*
X115989076Y-73102838D01*
X115912885Y-73007600D01*
X115798600Y-72959980D01*
X115722409Y-72959980D01*
X115608123Y-73007600D01*
X115570028Y-73055219D01*
X115227171Y-73959980D02*
X115227171Y-72959980D01*
X114770028Y-73959980D02*
X115112885Y-73388552D01*
X114770028Y-72959980D02*
X115227171Y-73531409D01*
X117284342Y-76474580D02*
X117284342Y-75474580D01*
X117017676Y-76188866D01*
X116751009Y-75474580D01*
X116751009Y-76474580D01*
X116370057Y-76474580D02*
X116370057Y-75474580D01*
X116027200Y-76426961D02*
X115912914Y-76474580D01*
X115722438Y-76474580D01*
X115646247Y-76426961D01*
X115608152Y-76379342D01*
X115570057Y-76284104D01*
X115570057Y-76188866D01*
X115608152Y-76093628D01*
X115646247Y-76046009D01*
X115722438Y-75998390D01*
X115874819Y-75950771D01*
X115951009Y-75903152D01*
X115989104Y-75855533D01*
X116027200Y-75760295D01*
X116027200Y-75665057D01*
X115989104Y-75569819D01*
X115951009Y-75522200D01*
X115874819Y-75474580D01*
X115684342Y-75474580D01*
X115570057Y-75522200D01*
X115074819Y-75474580D02*
X114922438Y-75474580D01*
X114846247Y-75522200D01*
X114770057Y-75617438D01*
X114731961Y-75807914D01*
X114731961Y-76141247D01*
X114770057Y-76331723D01*
X114846247Y-76426961D01*
X114922438Y-76474580D01*
X115074819Y-76474580D01*
X115151009Y-76426961D01*
X115227200Y-76331723D01*
X115265295Y-76141247D01*
X115265295Y-75807914D01*
X115227200Y-75617438D01*
X115151009Y-75522200D01*
X115074819Y-75474580D01*
D13*
X109761200Y-74036180D02*
X109761200Y-73036180D01*
X109527866Y-73750466D01*
X109294533Y-73036180D01*
X109294533Y-74036180D01*
X108827866Y-73036180D02*
X108694533Y-73036180D01*
X108627866Y-73083800D01*
X108561200Y-73179038D01*
X108527866Y-73369514D01*
X108527866Y-73702847D01*
X108561200Y-73893323D01*
X108627866Y-73988561D01*
X108694533Y-74036180D01*
X108827866Y-74036180D01*
X108894533Y-73988561D01*
X108961200Y-73893323D01*
X108994533Y-73702847D01*
X108994533Y-73369514D01*
X108961200Y-73179038D01*
X108894533Y-73083800D01*
X108827866Y-73036180D01*
X108261200Y-73988561D02*
X108161200Y-74036180D01*
X107994533Y-74036180D01*
X107927866Y-73988561D01*
X107894533Y-73940942D01*
X107861200Y-73845704D01*
X107861200Y-73750466D01*
X107894533Y-73655228D01*
X107927866Y-73607609D01*
X107994533Y-73559990D01*
X108127866Y-73512371D01*
X108194533Y-73464752D01*
X108227866Y-73417133D01*
X108261200Y-73321895D01*
X108261200Y-73226657D01*
X108227866Y-73131419D01*
X108194533Y-73083800D01*
X108127866Y-73036180D01*
X107961200Y-73036180D01*
X107861200Y-73083800D01*
X107561200Y-74036180D02*
X107561200Y-73036180D01*
D14*
X168826904Y-82324380D02*
X168826904Y-81324380D01*
X168826904Y-81800571D02*
X168255476Y-81800571D01*
X168255476Y-82324380D02*
X168255476Y-81324380D01*
X167636428Y-82324380D02*
X167731666Y-82276761D01*
X167779285Y-82229142D01*
X167826904Y-82133904D01*
X167826904Y-81848190D01*
X167779285Y-81752952D01*
X167731666Y-81705333D01*
X167636428Y-81657714D01*
X167493571Y-81657714D01*
X167398333Y-81705333D01*
X167350714Y-81752952D01*
X167303095Y-81848190D01*
X167303095Y-82133904D01*
X167350714Y-82229142D01*
X167398333Y-82276761D01*
X167493571Y-82324380D01*
X167636428Y-82324380D01*
X166969761Y-81657714D02*
X166779285Y-82324380D01*
X166588809Y-81848190D01*
X166398333Y-82324380D01*
X166207857Y-81657714D01*
X165207857Y-81657714D02*
X164826904Y-81657714D01*
X165065000Y-81324380D02*
X165065000Y-82181523D01*
X165017380Y-82276761D01*
X164922142Y-82324380D01*
X164826904Y-82324380D01*
X164350714Y-82324380D02*
X164445952Y-82276761D01*
X164493571Y-82229142D01*
X164541190Y-82133904D01*
X164541190Y-81848190D01*
X164493571Y-81752952D01*
X164445952Y-81705333D01*
X164350714Y-81657714D01*
X164207857Y-81657714D01*
X164112619Y-81705333D01*
X164065000Y-81752952D01*
X164017380Y-81848190D01*
X164017380Y-82133904D01*
X164065000Y-82229142D01*
X164112619Y-82276761D01*
X164207857Y-82324380D01*
X164350714Y-82324380D01*
X162445952Y-82276761D02*
X162541190Y-82324380D01*
X162731666Y-82324380D01*
X162826904Y-82276761D01*
X162874523Y-82181523D01*
X162874523Y-81800571D01*
X162826904Y-81705333D01*
X162731666Y-81657714D01*
X162541190Y-81657714D01*
X162445952Y-81705333D01*
X162398333Y-81800571D01*
X162398333Y-81895809D01*
X162874523Y-81991047D01*
X161969761Y-81657714D02*
X161969761Y-82324380D01*
X161969761Y-81752952D02*
X161922142Y-81705333D01*
X161826904Y-81657714D01*
X161684047Y-81657714D01*
X161588809Y-81705333D01*
X161541190Y-81800571D01*
X161541190Y-82324380D01*
X161207857Y-81657714D02*
X160826904Y-81657714D01*
X161065000Y-81324380D02*
X161065000Y-82181523D01*
X161017380Y-82276761D01*
X160922142Y-82324380D01*
X160826904Y-82324380D01*
X160112619Y-82276761D02*
X160207857Y-82324380D01*
X160398333Y-82324380D01*
X160493571Y-82276761D01*
X160541190Y-82181523D01*
X160541190Y-81800571D01*
X160493571Y-81705333D01*
X160398333Y-81657714D01*
X160207857Y-81657714D01*
X160112619Y-81705333D01*
X160065000Y-81800571D01*
X160065000Y-81895809D01*
X160541190Y-81991047D01*
X159636428Y-82324380D02*
X159636428Y-81657714D01*
X159636428Y-81848190D02*
X159588809Y-81752952D01*
X159541190Y-81705333D01*
X159445952Y-81657714D01*
X159350714Y-81657714D01*
X158255476Y-82324380D02*
X158255476Y-81324380D01*
X158017380Y-81324380D01*
X157874523Y-81372000D01*
X157779285Y-81467238D01*
X157731666Y-81562476D01*
X157684047Y-81752952D01*
X157684047Y-81895809D01*
X157731666Y-82086285D01*
X157779285Y-82181523D01*
X157874523Y-82276761D01*
X158017380Y-82324380D01*
X158255476Y-82324380D01*
X156922142Y-81800571D02*
X157255476Y-81800571D01*
X157255476Y-82324380D02*
X157255476Y-81324380D01*
X156779285Y-81324380D01*
X156398333Y-81324380D02*
X156398333Y-82133904D01*
X156350714Y-82229142D01*
X156303095Y-82276761D01*
X156207857Y-82324380D01*
X156017380Y-82324380D01*
X155922142Y-82276761D01*
X155874523Y-82229142D01*
X155826904Y-82133904D01*
X155826904Y-81324380D01*
X154588809Y-82324380D02*
X154588809Y-81657714D01*
X154588809Y-81752952D02*
X154541190Y-81705333D01*
X154445952Y-81657714D01*
X154303095Y-81657714D01*
X154207857Y-81705333D01*
X154160238Y-81800571D01*
X154160238Y-82324380D01*
X154160238Y-81800571D02*
X154112619Y-81705333D01*
X154017380Y-81657714D01*
X153874523Y-81657714D01*
X153779285Y-81705333D01*
X153731666Y-81800571D01*
X153731666Y-82324380D01*
X153112619Y-82324380D02*
X153207857Y-82276761D01*
X153255476Y-82229142D01*
X153303095Y-82133904D01*
X153303095Y-81848190D01*
X153255476Y-81752952D01*
X153207857Y-81705333D01*
X153112619Y-81657714D01*
X152969761Y-81657714D01*
X152874523Y-81705333D01*
X152826904Y-81752952D01*
X152779285Y-81848190D01*
X152779285Y-82133904D01*
X152826904Y-82229142D01*
X152874523Y-82276761D01*
X152969761Y-82324380D01*
X153112619Y-82324380D01*
X151922142Y-82324380D02*
X151922142Y-81324380D01*
X151922142Y-82276761D02*
X152017380Y-82324380D01*
X152207857Y-82324380D01*
X152303095Y-82276761D01*
X152350714Y-82229142D01*
X152398333Y-82133904D01*
X152398333Y-81848190D01*
X152350714Y-81752952D01*
X152303095Y-81705333D01*
X152207857Y-81657714D01*
X152017380Y-81657714D01*
X151922142Y-81705333D01*
X151065000Y-82276761D02*
X151160238Y-82324380D01*
X151350714Y-82324380D01*
X151445952Y-82276761D01*
X151493571Y-82181523D01*
X151493571Y-81800571D01*
X151445952Y-81705333D01*
X151350714Y-81657714D01*
X151160238Y-81657714D01*
X151065000Y-81705333D01*
X151017380Y-81800571D01*
X151017380Y-81895809D01*
X151493571Y-81991047D01*
X150588809Y-82229142D02*
X150541190Y-82276761D01*
X150588809Y-82324380D01*
X150636428Y-82276761D01*
X150588809Y-82229142D01*
X150588809Y-82324380D01*
X150588809Y-81705333D02*
X150541190Y-81752952D01*
X150588809Y-81800571D01*
X150636428Y-81752952D01*
X150588809Y-81705333D01*
X150588809Y-81800571D01*
X168303095Y-85824380D02*
X168874523Y-85824380D01*
X168588809Y-85824380D02*
X168588809Y-84824380D01*
X168684047Y-84967238D01*
X168779285Y-85062476D01*
X168874523Y-85110095D01*
X167874523Y-85729142D02*
X167826904Y-85776761D01*
X167874523Y-85824380D01*
X167922142Y-85776761D01*
X167874523Y-85729142D01*
X167874523Y-85824380D01*
X166636428Y-85824380D02*
X166636428Y-84824380D01*
X166255476Y-84824380D01*
X166160238Y-84872000D01*
X166112619Y-84919619D01*
X166065000Y-85014857D01*
X166065000Y-85157714D01*
X166112619Y-85252952D01*
X166160238Y-85300571D01*
X166255476Y-85348190D01*
X166636428Y-85348190D01*
X165636428Y-85824380D02*
X165636428Y-85157714D01*
X165636428Y-85348190D02*
X165588809Y-85252952D01*
X165541190Y-85205333D01*
X165445952Y-85157714D01*
X165350714Y-85157714D01*
X164636428Y-85776761D02*
X164731666Y-85824380D01*
X164922142Y-85824380D01*
X165017380Y-85776761D01*
X165065000Y-85681523D01*
X165065000Y-85300571D01*
X165017380Y-85205333D01*
X164922142Y-85157714D01*
X164731666Y-85157714D01*
X164636428Y-85205333D01*
X164588809Y-85300571D01*
X164588809Y-85395809D01*
X165065000Y-85491047D01*
X164207857Y-85776761D02*
X164112619Y-85824380D01*
X163922142Y-85824380D01*
X163826904Y-85776761D01*
X163779285Y-85681523D01*
X163779285Y-85633904D01*
X163826904Y-85538666D01*
X163922142Y-85491047D01*
X164065000Y-85491047D01*
X164160238Y-85443428D01*
X164207857Y-85348190D01*
X164207857Y-85300571D01*
X164160238Y-85205333D01*
X164065000Y-85157714D01*
X163922142Y-85157714D01*
X163826904Y-85205333D01*
X163398333Y-85776761D02*
X163303095Y-85824380D01*
X163112619Y-85824380D01*
X163017380Y-85776761D01*
X162969761Y-85681523D01*
X162969761Y-85633904D01*
X163017380Y-85538666D01*
X163112619Y-85491047D01*
X163255476Y-85491047D01*
X163350714Y-85443428D01*
X163398333Y-85348190D01*
X163398333Y-85300571D01*
X163350714Y-85205333D01*
X163255476Y-85157714D01*
X163112619Y-85157714D01*
X163017380Y-85205333D01*
X161350714Y-85824380D02*
X161350714Y-85300571D01*
X161398333Y-85205333D01*
X161493571Y-85157714D01*
X161684047Y-85157714D01*
X161779285Y-85205333D01*
X161350714Y-85776761D02*
X161445952Y-85824380D01*
X161684047Y-85824380D01*
X161779285Y-85776761D01*
X161826904Y-85681523D01*
X161826904Y-85586285D01*
X161779285Y-85491047D01*
X161684047Y-85443428D01*
X161445952Y-85443428D01*
X161350714Y-85395809D01*
X160874523Y-85157714D02*
X160874523Y-85824380D01*
X160874523Y-85252952D02*
X160826904Y-85205333D01*
X160731666Y-85157714D01*
X160588809Y-85157714D01*
X160493571Y-85205333D01*
X160445952Y-85300571D01*
X160445952Y-85824380D01*
X159541190Y-85824380D02*
X159541190Y-84824380D01*
X159541190Y-85776761D02*
X159636428Y-85824380D01*
X159826904Y-85824380D01*
X159922142Y-85776761D01*
X159969761Y-85729142D01*
X160017380Y-85633904D01*
X160017380Y-85348190D01*
X159969761Y-85252952D01*
X159922142Y-85205333D01*
X159826904Y-85157714D01*
X159636428Y-85157714D01*
X159541190Y-85205333D01*
X158303095Y-85824380D02*
X158303095Y-84824380D01*
X157874523Y-85824380D02*
X157874523Y-85300571D01*
X157922142Y-85205333D01*
X158017380Y-85157714D01*
X158160238Y-85157714D01*
X158255476Y-85205333D01*
X158303095Y-85252952D01*
X157255476Y-85824380D02*
X157350714Y-85776761D01*
X157398333Y-85729142D01*
X157445952Y-85633904D01*
X157445952Y-85348190D01*
X157398333Y-85252952D01*
X157350714Y-85205333D01*
X157255476Y-85157714D01*
X157112619Y-85157714D01*
X157017380Y-85205333D01*
X156969761Y-85252952D01*
X156922142Y-85348190D01*
X156922142Y-85633904D01*
X156969761Y-85729142D01*
X157017380Y-85776761D01*
X157112619Y-85824380D01*
X157255476Y-85824380D01*
X156350714Y-85824380D02*
X156445952Y-85776761D01*
X156493571Y-85681523D01*
X156493571Y-84824380D01*
X155541190Y-85824380D02*
X155541190Y-84824380D01*
X155541190Y-85776761D02*
X155636428Y-85824380D01*
X155826904Y-85824380D01*
X155922142Y-85776761D01*
X155969761Y-85729142D01*
X156017380Y-85633904D01*
X156017380Y-85348190D01*
X155969761Y-85252952D01*
X155922142Y-85205333D01*
X155826904Y-85157714D01*
X155636428Y-85157714D01*
X155541190Y-85205333D01*
X153922142Y-85776761D02*
X154017380Y-85824380D01*
X154207857Y-85824380D01*
X154303095Y-85776761D01*
X154350714Y-85681523D01*
X154350714Y-85300571D01*
X154303095Y-85205333D01*
X154207857Y-85157714D01*
X154017380Y-85157714D01*
X153922142Y-85205333D01*
X153874523Y-85300571D01*
X153874523Y-85395809D01*
X154350714Y-85491047D01*
X153445952Y-85824380D02*
X153445952Y-85157714D01*
X153445952Y-84824380D02*
X153493571Y-84872000D01*
X153445952Y-84919619D01*
X153398333Y-84872000D01*
X153445952Y-84824380D01*
X153445952Y-84919619D01*
X153112619Y-85157714D02*
X152731666Y-85157714D01*
X152969761Y-84824380D02*
X152969761Y-85681523D01*
X152922142Y-85776761D01*
X152826904Y-85824380D01*
X152731666Y-85824380D01*
X152398333Y-85824380D02*
X152398333Y-84824380D01*
X151969761Y-85824380D02*
X151969761Y-85300571D01*
X152017380Y-85205333D01*
X152112619Y-85157714D01*
X152255476Y-85157714D01*
X152350714Y-85205333D01*
X152398333Y-85252952D01*
X151112619Y-85776761D02*
X151207857Y-85824380D01*
X151398333Y-85824380D01*
X151493571Y-85776761D01*
X151541190Y-85681523D01*
X151541190Y-85300571D01*
X151493571Y-85205333D01*
X151398333Y-85157714D01*
X151207857Y-85157714D01*
X151112619Y-85205333D01*
X151065000Y-85300571D01*
X151065000Y-85395809D01*
X151541190Y-85491047D01*
X150636428Y-85824380D02*
X150636428Y-85157714D01*
X150636428Y-85348190D02*
X150588809Y-85252952D01*
X150541190Y-85205333D01*
X150445952Y-85157714D01*
X150350714Y-85157714D01*
X149303095Y-84824380D02*
X149303095Y-85014857D01*
X148922142Y-84824380D02*
X148922142Y-85014857D01*
X148303095Y-84824380D02*
X148112619Y-84824380D01*
X148017380Y-84872000D01*
X147922142Y-84967238D01*
X147874523Y-85157714D01*
X147874523Y-85491047D01*
X147922142Y-85681523D01*
X148017380Y-85776761D01*
X148112619Y-85824380D01*
X148303095Y-85824380D01*
X148398333Y-85776761D01*
X148493571Y-85681523D01*
X148541190Y-85491047D01*
X148541190Y-85157714D01*
X148493571Y-84967238D01*
X148398333Y-84872000D01*
X148303095Y-84824380D01*
X147493571Y-85776761D02*
X147350714Y-85824380D01*
X147112619Y-85824380D01*
X147017380Y-85776761D01*
X146969761Y-85729142D01*
X146922142Y-85633904D01*
X146922142Y-85538666D01*
X146969761Y-85443428D01*
X147017380Y-85395809D01*
X147112619Y-85348190D01*
X147303095Y-85300571D01*
X147398333Y-85252952D01*
X147445952Y-85205333D01*
X147493571Y-85110095D01*
X147493571Y-85014857D01*
X147445952Y-84919619D01*
X147398333Y-84872000D01*
X147303095Y-84824380D01*
X147065000Y-84824380D01*
X146922142Y-84872000D01*
X145588809Y-85824380D02*
X145684047Y-85776761D01*
X145731666Y-85681523D01*
X145731666Y-84824380D01*
X145065000Y-85824380D02*
X145160238Y-85776761D01*
X145207857Y-85729142D01*
X145255476Y-85633904D01*
X145255476Y-85348190D01*
X145207857Y-85252952D01*
X145160238Y-85205333D01*
X145065000Y-85157714D01*
X144922142Y-85157714D01*
X144826904Y-85205333D01*
X144779285Y-85252952D01*
X144731666Y-85348190D01*
X144731666Y-85633904D01*
X144779285Y-85729142D01*
X144826904Y-85776761D01*
X144922142Y-85824380D01*
X145065000Y-85824380D01*
X143874523Y-85157714D02*
X143874523Y-85967238D01*
X143922142Y-86062476D01*
X143969761Y-86110095D01*
X144065000Y-86157714D01*
X144207857Y-86157714D01*
X144303095Y-86110095D01*
X143874523Y-85776761D02*
X143969761Y-85824380D01*
X144160238Y-85824380D01*
X144255476Y-85776761D01*
X144303095Y-85729142D01*
X144350714Y-85633904D01*
X144350714Y-85348190D01*
X144303095Y-85252952D01*
X144255476Y-85205333D01*
X144160238Y-85157714D01*
X143969761Y-85157714D01*
X143874523Y-85205333D01*
X143255476Y-85824380D02*
X143350714Y-85776761D01*
X143398333Y-85729142D01*
X143445952Y-85633904D01*
X143445952Y-85348190D01*
X143398333Y-85252952D01*
X143350714Y-85205333D01*
X143255476Y-85157714D01*
X143112619Y-85157714D01*
X143017380Y-85205333D01*
X142969761Y-85252952D01*
X142922142Y-85348190D01*
X142922142Y-85633904D01*
X142969761Y-85729142D01*
X143017380Y-85776761D01*
X143112619Y-85824380D01*
X143255476Y-85824380D01*
X142541190Y-84824380D02*
X142541190Y-85014857D01*
X142160238Y-84824380D02*
X142160238Y-85014857D01*
X140969761Y-85824380D02*
X140969761Y-84824380D01*
X140969761Y-85205333D02*
X140874523Y-85157714D01*
X140684047Y-85157714D01*
X140588809Y-85205333D01*
X140541190Y-85252952D01*
X140493571Y-85348190D01*
X140493571Y-85633904D01*
X140541190Y-85729142D01*
X140588809Y-85776761D01*
X140684047Y-85824380D01*
X140874523Y-85824380D01*
X140969761Y-85776761D01*
X139636428Y-85157714D02*
X139636428Y-85824380D01*
X140065000Y-85157714D02*
X140065000Y-85681523D01*
X140017380Y-85776761D01*
X139922142Y-85824380D01*
X139779285Y-85824380D01*
X139684047Y-85776761D01*
X139636428Y-85729142D01*
X139303095Y-85157714D02*
X138922142Y-85157714D01*
X139160238Y-84824380D02*
X139160238Y-85681523D01*
X139112619Y-85776761D01*
X139017380Y-85824380D01*
X138922142Y-85824380D01*
X138731666Y-85157714D02*
X138350714Y-85157714D01*
X138588809Y-84824380D02*
X138588809Y-85681523D01*
X138541190Y-85776761D01*
X138445952Y-85824380D01*
X138350714Y-85824380D01*
X137874523Y-85824380D02*
X137969761Y-85776761D01*
X138017380Y-85729142D01*
X138065000Y-85633904D01*
X138065000Y-85348190D01*
X138017380Y-85252952D01*
X137969761Y-85205333D01*
X137874523Y-85157714D01*
X137731666Y-85157714D01*
X137636428Y-85205333D01*
X137588809Y-85252952D01*
X137541190Y-85348190D01*
X137541190Y-85633904D01*
X137588809Y-85729142D01*
X137636428Y-85776761D01*
X137731666Y-85824380D01*
X137874523Y-85824380D01*
X137112619Y-85157714D02*
X137112619Y-85824380D01*
X137112619Y-85252952D02*
X137065000Y-85205333D01*
X136969761Y-85157714D01*
X136826904Y-85157714D01*
X136731666Y-85205333D01*
X136684047Y-85300571D01*
X136684047Y-85824380D01*
X135303095Y-85824380D02*
X135398333Y-85776761D01*
X135445952Y-85729142D01*
X135493571Y-85633904D01*
X135493571Y-85348190D01*
X135445952Y-85252952D01*
X135398333Y-85205333D01*
X135303095Y-85157714D01*
X135160238Y-85157714D01*
X135065000Y-85205333D01*
X135017380Y-85252952D01*
X134969761Y-85348190D01*
X134969761Y-85633904D01*
X135017380Y-85729142D01*
X135065000Y-85776761D01*
X135160238Y-85824380D01*
X135303095Y-85824380D01*
X134541190Y-85824380D02*
X134541190Y-85157714D01*
X134541190Y-85348190D02*
X134493571Y-85252952D01*
X134445952Y-85205333D01*
X134350714Y-85157714D01*
X134255476Y-85157714D01*
X133207857Y-84776761D02*
X134065000Y-86062476D01*
X132445952Y-85824380D02*
X132445952Y-85300571D01*
X132493571Y-85205333D01*
X132588809Y-85157714D01*
X132779285Y-85157714D01*
X132874523Y-85205333D01*
X132445952Y-85776761D02*
X132541190Y-85824380D01*
X132779285Y-85824380D01*
X132874523Y-85776761D01*
X132922142Y-85681523D01*
X132922142Y-85586285D01*
X132874523Y-85491047D01*
X132779285Y-85443428D01*
X132541190Y-85443428D01*
X132445952Y-85395809D01*
X131969761Y-85157714D02*
X131969761Y-85824380D01*
X131969761Y-85252952D02*
X131922142Y-85205333D01*
X131826904Y-85157714D01*
X131684047Y-85157714D01*
X131588809Y-85205333D01*
X131541190Y-85300571D01*
X131541190Y-85824380D01*
X130636428Y-85824380D02*
X130636428Y-84824380D01*
X130636428Y-85776761D02*
X130731666Y-85824380D01*
X130922142Y-85824380D01*
X131017380Y-85776761D01*
X131065000Y-85729142D01*
X131112619Y-85633904D01*
X131112619Y-85348190D01*
X131065000Y-85252952D01*
X131017380Y-85205333D01*
X130922142Y-85157714D01*
X130731666Y-85157714D01*
X130636428Y-85205333D01*
X129445952Y-84824380D02*
X129445952Y-85014857D01*
X129065000Y-84824380D02*
X129065000Y-85014857D01*
X128065000Y-85824380D02*
X128398333Y-85348190D01*
X128636428Y-85824380D02*
X128636428Y-84824380D01*
X128255476Y-84824380D01*
X128160238Y-84872000D01*
X128112619Y-84919619D01*
X128065000Y-85014857D01*
X128065000Y-85157714D01*
X128112619Y-85252952D01*
X128160238Y-85300571D01*
X128255476Y-85348190D01*
X128636428Y-85348190D01*
X127636428Y-85824380D02*
X127636428Y-85157714D01*
X127636428Y-84824380D02*
X127684047Y-84872000D01*
X127636428Y-84919619D01*
X127588809Y-84872000D01*
X127636428Y-84824380D01*
X127636428Y-84919619D01*
X126731666Y-85157714D02*
X126731666Y-85967238D01*
X126779285Y-86062476D01*
X126826904Y-86110095D01*
X126922142Y-86157714D01*
X127065000Y-86157714D01*
X127160238Y-86110095D01*
X126731666Y-85776761D02*
X126826904Y-85824380D01*
X127017380Y-85824380D01*
X127112619Y-85776761D01*
X127160238Y-85729142D01*
X127207857Y-85633904D01*
X127207857Y-85348190D01*
X127160238Y-85252952D01*
X127112619Y-85205333D01*
X127017380Y-85157714D01*
X126826904Y-85157714D01*
X126731666Y-85205333D01*
X126255476Y-85824380D02*
X126255476Y-84824380D01*
X125826904Y-85824380D02*
X125826904Y-85300571D01*
X125874523Y-85205333D01*
X125969761Y-85157714D01*
X126112619Y-85157714D01*
X126207857Y-85205333D01*
X126255476Y-85252952D01*
X125493571Y-85157714D02*
X125112619Y-85157714D01*
X125350714Y-84824380D02*
X125350714Y-85681523D01*
X125303095Y-85776761D01*
X125207857Y-85824380D01*
X125112619Y-85824380D01*
X123588809Y-85824380D02*
X123588809Y-85300571D01*
X123636428Y-85205333D01*
X123731666Y-85157714D01*
X123922142Y-85157714D01*
X124017380Y-85205333D01*
X123588809Y-85776761D02*
X123684047Y-85824380D01*
X123922142Y-85824380D01*
X124017380Y-85776761D01*
X124065000Y-85681523D01*
X124065000Y-85586285D01*
X124017380Y-85491047D01*
X123922142Y-85443428D01*
X123684047Y-85443428D01*
X123588809Y-85395809D01*
X123112619Y-85824380D02*
X123112619Y-85157714D01*
X123112619Y-85348190D02*
X123065000Y-85252952D01*
X123017380Y-85205333D01*
X122922142Y-85157714D01*
X122826904Y-85157714D01*
X122493571Y-85824380D02*
X122493571Y-85157714D01*
X122493571Y-85348190D02*
X122445952Y-85252952D01*
X122398333Y-85205333D01*
X122303095Y-85157714D01*
X122207857Y-85157714D01*
X121731666Y-85824380D02*
X121826904Y-85776761D01*
X121874523Y-85729142D01*
X121922142Y-85633904D01*
X121922142Y-85348190D01*
X121874523Y-85252952D01*
X121826904Y-85205333D01*
X121731666Y-85157714D01*
X121588809Y-85157714D01*
X121493571Y-85205333D01*
X121445952Y-85252952D01*
X121398333Y-85348190D01*
X121398333Y-85633904D01*
X121445952Y-85729142D01*
X121493571Y-85776761D01*
X121588809Y-85824380D01*
X121731666Y-85824380D01*
X121065000Y-85157714D02*
X120874523Y-85824380D01*
X120684047Y-85348190D01*
X120493571Y-85824380D01*
X120303095Y-85157714D01*
X119969761Y-84824380D02*
X119969761Y-85014857D01*
X119588809Y-84824380D02*
X119588809Y-85014857D01*
X118398333Y-85824380D02*
X118398333Y-84824380D01*
X118398333Y-85205333D02*
X118303095Y-85157714D01*
X118112619Y-85157714D01*
X118017380Y-85205333D01*
X117969761Y-85252952D01*
X117922142Y-85348190D01*
X117922142Y-85633904D01*
X117969761Y-85729142D01*
X118017380Y-85776761D01*
X118112619Y-85824380D01*
X118303095Y-85824380D01*
X118398333Y-85776761D01*
X117065000Y-85157714D02*
X117065000Y-85824380D01*
X117493571Y-85157714D02*
X117493571Y-85681523D01*
X117445952Y-85776761D01*
X117350714Y-85824380D01*
X117207857Y-85824380D01*
X117112619Y-85776761D01*
X117065000Y-85729142D01*
X116731666Y-85157714D02*
X116350714Y-85157714D01*
X116588809Y-84824380D02*
X116588809Y-85681523D01*
X116541190Y-85776761D01*
X116445952Y-85824380D01*
X116350714Y-85824380D01*
X116160238Y-85157714D02*
X115779285Y-85157714D01*
X116017380Y-84824380D02*
X116017380Y-85681523D01*
X115969761Y-85776761D01*
X115874523Y-85824380D01*
X115779285Y-85824380D01*
X115303095Y-85824380D02*
X115398333Y-85776761D01*
X115445952Y-85729142D01*
X115493571Y-85633904D01*
X115493571Y-85348190D01*
X115445952Y-85252952D01*
X115398333Y-85205333D01*
X115303095Y-85157714D01*
X115160238Y-85157714D01*
X115065000Y-85205333D01*
X115017380Y-85252952D01*
X114969761Y-85348190D01*
X114969761Y-85633904D01*
X115017380Y-85729142D01*
X115065000Y-85776761D01*
X115160238Y-85824380D01*
X115303095Y-85824380D01*
X114541190Y-85157714D02*
X114541190Y-85824380D01*
X114541190Y-85252952D02*
X114493571Y-85205333D01*
X114398333Y-85157714D01*
X114255476Y-85157714D01*
X114160238Y-85205333D01*
X114112619Y-85300571D01*
X114112619Y-85824380D01*
X113636428Y-85729142D02*
X113588809Y-85776761D01*
X113636428Y-85824380D01*
X113684047Y-85776761D01*
X113636428Y-85729142D01*
X113636428Y-85824380D01*
X168874523Y-86669619D02*
X168826904Y-86622000D01*
X168731666Y-86574380D01*
X168493571Y-86574380D01*
X168398333Y-86622000D01*
X168350714Y-86669619D01*
X168303095Y-86764857D01*
X168303095Y-86860095D01*
X168350714Y-87002952D01*
X168922142Y-87574380D01*
X168303095Y-87574380D01*
X167874523Y-87479142D02*
X167826904Y-87526761D01*
X167874523Y-87574380D01*
X167922142Y-87526761D01*
X167874523Y-87479142D01*
X167874523Y-87574380D01*
X166636428Y-87574380D02*
X166636428Y-86574380D01*
X166255476Y-86574380D01*
X166160238Y-86622000D01*
X166112619Y-86669619D01*
X166065000Y-86764857D01*
X166065000Y-86907714D01*
X166112619Y-87002952D01*
X166160238Y-87050571D01*
X166255476Y-87098190D01*
X166636428Y-87098190D01*
X165636428Y-87574380D02*
X165636428Y-86907714D01*
X165636428Y-87098190D02*
X165588809Y-87002952D01*
X165541190Y-86955333D01*
X165445952Y-86907714D01*
X165350714Y-86907714D01*
X164636428Y-87526761D02*
X164731666Y-87574380D01*
X164922142Y-87574380D01*
X165017380Y-87526761D01*
X165065000Y-87431523D01*
X165065000Y-87050571D01*
X165017380Y-86955333D01*
X164922142Y-86907714D01*
X164731666Y-86907714D01*
X164636428Y-86955333D01*
X164588809Y-87050571D01*
X164588809Y-87145809D01*
X165065000Y-87241047D01*
X164207857Y-87526761D02*
X164112619Y-87574380D01*
X163922142Y-87574380D01*
X163826904Y-87526761D01*
X163779285Y-87431523D01*
X163779285Y-87383904D01*
X163826904Y-87288666D01*
X163922142Y-87241047D01*
X164065000Y-87241047D01*
X164160238Y-87193428D01*
X164207857Y-87098190D01*
X164207857Y-87050571D01*
X164160238Y-86955333D01*
X164065000Y-86907714D01*
X163922142Y-86907714D01*
X163826904Y-86955333D01*
X163398333Y-87526761D02*
X163303095Y-87574380D01*
X163112619Y-87574380D01*
X163017380Y-87526761D01*
X162969761Y-87431523D01*
X162969761Y-87383904D01*
X163017380Y-87288666D01*
X163112619Y-87241047D01*
X163255476Y-87241047D01*
X163350714Y-87193428D01*
X163398333Y-87098190D01*
X163398333Y-87050571D01*
X163350714Y-86955333D01*
X163255476Y-86907714D01*
X163112619Y-86907714D01*
X163017380Y-86955333D01*
X161826904Y-86574380D02*
X161826904Y-86764857D01*
X161445952Y-86574380D02*
X161445952Y-86764857D01*
X161017380Y-87574380D02*
X161017380Y-86574380D01*
X160636428Y-86574380D01*
X160541190Y-86622000D01*
X160493571Y-86669619D01*
X160445952Y-86764857D01*
X160445952Y-86907714D01*
X160493571Y-87002952D01*
X160541190Y-87050571D01*
X160636428Y-87098190D01*
X161017380Y-87098190D01*
X159874523Y-87574380D02*
X159969761Y-87526761D01*
X160017380Y-87479142D01*
X160065000Y-87383904D01*
X160065000Y-87098190D01*
X160017380Y-87002952D01*
X159969761Y-86955333D01*
X159874523Y-86907714D01*
X159731666Y-86907714D01*
X159636428Y-86955333D01*
X159588809Y-87002952D01*
X159541190Y-87098190D01*
X159541190Y-87383904D01*
X159588809Y-87479142D01*
X159636428Y-87526761D01*
X159731666Y-87574380D01*
X159874523Y-87574380D01*
X159207857Y-86907714D02*
X159017380Y-87574380D01*
X158826904Y-87098190D01*
X158636428Y-87574380D01*
X158445952Y-86907714D01*
X157684047Y-87526761D02*
X157779285Y-87574380D01*
X157969761Y-87574380D01*
X158065000Y-87526761D01*
X158112619Y-87431523D01*
X158112619Y-87050571D01*
X158065000Y-86955333D01*
X157969761Y-86907714D01*
X157779285Y-86907714D01*
X157684047Y-86955333D01*
X157636428Y-87050571D01*
X157636428Y-87145809D01*
X158112619Y-87241047D01*
X157207857Y-87574380D02*
X157207857Y-86907714D01*
X157207857Y-87098190D02*
X157160238Y-87002952D01*
X157112619Y-86955333D01*
X157017380Y-86907714D01*
X156922142Y-86907714D01*
X156636428Y-86574380D02*
X156636428Y-86764857D01*
X156255476Y-86574380D02*
X156255476Y-86764857D01*
X155065000Y-87574380D02*
X155065000Y-86574380D01*
X155065000Y-86955333D02*
X154969761Y-86907714D01*
X154779285Y-86907714D01*
X154684047Y-86955333D01*
X154636428Y-87002952D01*
X154588809Y-87098190D01*
X154588809Y-87383904D01*
X154636428Y-87479142D01*
X154684047Y-87526761D01*
X154779285Y-87574380D01*
X154969761Y-87574380D01*
X155065000Y-87526761D01*
X153731666Y-86907714D02*
X153731666Y-87574380D01*
X154160238Y-86907714D02*
X154160238Y-87431523D01*
X154112619Y-87526761D01*
X154017380Y-87574380D01*
X153874523Y-87574380D01*
X153779285Y-87526761D01*
X153731666Y-87479142D01*
X153398333Y-86907714D02*
X153017380Y-86907714D01*
X153255476Y-86574380D02*
X153255476Y-87431523D01*
X153207857Y-87526761D01*
X153112619Y-87574380D01*
X153017380Y-87574380D01*
X152826904Y-86907714D02*
X152445952Y-86907714D01*
X152684047Y-86574380D02*
X152684047Y-87431523D01*
X152636428Y-87526761D01*
X152541190Y-87574380D01*
X152445952Y-87574380D01*
X151969761Y-87574380D02*
X152065000Y-87526761D01*
X152112619Y-87479142D01*
X152160238Y-87383904D01*
X152160238Y-87098190D01*
X152112619Y-87002952D01*
X152065000Y-86955333D01*
X151969761Y-86907714D01*
X151826904Y-86907714D01*
X151731666Y-86955333D01*
X151684047Y-87002952D01*
X151636428Y-87098190D01*
X151636428Y-87383904D01*
X151684047Y-87479142D01*
X151731666Y-87526761D01*
X151826904Y-87574380D01*
X151969761Y-87574380D01*
X151207857Y-86907714D02*
X151207857Y-87574380D01*
X151207857Y-87002952D02*
X151160238Y-86955333D01*
X151065000Y-86907714D01*
X150922142Y-86907714D01*
X150826904Y-86955333D01*
X150779285Y-87050571D01*
X150779285Y-87574380D01*
X149684047Y-86907714D02*
X149303095Y-86907714D01*
X149541190Y-86574380D02*
X149541190Y-87431523D01*
X149493571Y-87526761D01*
X149398333Y-87574380D01*
X149303095Y-87574380D01*
X148826904Y-87574380D02*
X148922142Y-87526761D01*
X148969761Y-87479142D01*
X149017380Y-87383904D01*
X149017380Y-87098190D01*
X148969761Y-87002952D01*
X148922142Y-86955333D01*
X148826904Y-86907714D01*
X148684047Y-86907714D01*
X148588809Y-86955333D01*
X148541190Y-87002952D01*
X148493571Y-87098190D01*
X148493571Y-87383904D01*
X148541190Y-87479142D01*
X148588809Y-87526761D01*
X148684047Y-87574380D01*
X148826904Y-87574380D01*
X147445952Y-86907714D02*
X147065000Y-86907714D01*
X147303095Y-86574380D02*
X147303095Y-87431523D01*
X147255476Y-87526761D01*
X147160238Y-87574380D01*
X147065000Y-87574380D01*
X146303095Y-86907714D02*
X146303095Y-87574380D01*
X146731666Y-86907714D02*
X146731666Y-87431523D01*
X146684047Y-87526761D01*
X146588809Y-87574380D01*
X146445952Y-87574380D01*
X146350714Y-87526761D01*
X146303095Y-87479142D01*
X145826904Y-87574380D02*
X145826904Y-86907714D01*
X145826904Y-87098190D02*
X145779285Y-87002952D01*
X145731666Y-86955333D01*
X145636428Y-86907714D01*
X145541190Y-86907714D01*
X145207857Y-86907714D02*
X145207857Y-87574380D01*
X145207857Y-87002952D02*
X145160238Y-86955333D01*
X145065000Y-86907714D01*
X144922142Y-86907714D01*
X144826904Y-86955333D01*
X144779285Y-87050571D01*
X144779285Y-87574380D01*
X143398333Y-87574380D02*
X143493571Y-87526761D01*
X143541190Y-87479142D01*
X143588809Y-87383904D01*
X143588809Y-87098190D01*
X143541190Y-87002952D01*
X143493571Y-86955333D01*
X143398333Y-86907714D01*
X143255476Y-86907714D01*
X143160238Y-86955333D01*
X143112619Y-87002952D01*
X143065000Y-87098190D01*
X143065000Y-87383904D01*
X143112619Y-87479142D01*
X143160238Y-87526761D01*
X143255476Y-87574380D01*
X143398333Y-87574380D01*
X142636428Y-86907714D02*
X142636428Y-87574380D01*
X142636428Y-87002952D02*
X142588809Y-86955333D01*
X142493571Y-86907714D01*
X142350714Y-86907714D01*
X142255476Y-86955333D01*
X142207857Y-87050571D01*
X142207857Y-87574380D01*
X141684047Y-87526761D02*
X141684047Y-87574380D01*
X141731666Y-87669619D01*
X141779285Y-87717238D01*
X140636428Y-86907714D02*
X140255476Y-86907714D01*
X140493571Y-86574380D02*
X140493571Y-87431523D01*
X140445952Y-87526761D01*
X140350714Y-87574380D01*
X140255476Y-87574380D01*
X139922142Y-87574380D02*
X139922142Y-86574380D01*
X139493571Y-87574380D02*
X139493571Y-87050571D01*
X139541190Y-86955333D01*
X139636428Y-86907714D01*
X139779285Y-86907714D01*
X139874523Y-86955333D01*
X139922142Y-87002952D01*
X138636428Y-87526761D02*
X138731666Y-87574380D01*
X138922142Y-87574380D01*
X139017380Y-87526761D01*
X139065000Y-87431523D01*
X139065000Y-87050571D01*
X139017380Y-86955333D01*
X138922142Y-86907714D01*
X138731666Y-86907714D01*
X138636428Y-86955333D01*
X138588809Y-87050571D01*
X138588809Y-87145809D01*
X139065000Y-87241047D01*
X138160238Y-86907714D02*
X138160238Y-87574380D01*
X138160238Y-87002952D02*
X138112619Y-86955333D01*
X138017380Y-86907714D01*
X137874523Y-86907714D01*
X137779285Y-86955333D01*
X137731666Y-87050571D01*
X137731666Y-87574380D01*
X136493571Y-87574380D02*
X136493571Y-86907714D01*
X136493571Y-87098190D02*
X136445952Y-87002952D01*
X136398333Y-86955333D01*
X136303095Y-86907714D01*
X136207857Y-86907714D01*
X135493571Y-87526761D02*
X135588809Y-87574380D01*
X135779285Y-87574380D01*
X135874523Y-87526761D01*
X135922142Y-87431523D01*
X135922142Y-87050571D01*
X135874523Y-86955333D01*
X135779285Y-86907714D01*
X135588809Y-86907714D01*
X135493571Y-86955333D01*
X135445952Y-87050571D01*
X135445952Y-87145809D01*
X135922142Y-87241047D01*
X134874523Y-87574380D02*
X134969761Y-87526761D01*
X135017380Y-87431523D01*
X135017380Y-86574380D01*
X134112619Y-87526761D02*
X134207857Y-87574380D01*
X134398333Y-87574380D01*
X134493571Y-87526761D01*
X134541190Y-87431523D01*
X134541190Y-87050571D01*
X134493571Y-86955333D01*
X134398333Y-86907714D01*
X134207857Y-86907714D01*
X134112619Y-86955333D01*
X134065000Y-87050571D01*
X134065000Y-87145809D01*
X134541190Y-87241047D01*
X133207857Y-87574380D02*
X133207857Y-87050571D01*
X133255476Y-86955333D01*
X133350714Y-86907714D01*
X133541190Y-86907714D01*
X133636428Y-86955333D01*
X133207857Y-87526761D02*
X133303095Y-87574380D01*
X133541190Y-87574380D01*
X133636428Y-87526761D01*
X133684047Y-87431523D01*
X133684047Y-87336285D01*
X133636428Y-87241047D01*
X133541190Y-87193428D01*
X133303095Y-87193428D01*
X133207857Y-87145809D01*
X132779285Y-87526761D02*
X132684047Y-87574380D01*
X132493571Y-87574380D01*
X132398333Y-87526761D01*
X132350714Y-87431523D01*
X132350714Y-87383904D01*
X132398333Y-87288666D01*
X132493571Y-87241047D01*
X132636428Y-87241047D01*
X132731666Y-87193428D01*
X132779285Y-87098190D01*
X132779285Y-87050571D01*
X132731666Y-86955333D01*
X132636428Y-86907714D01*
X132493571Y-86907714D01*
X132398333Y-86955333D01*
X131541190Y-87526761D02*
X131636428Y-87574380D01*
X131826904Y-87574380D01*
X131922142Y-87526761D01*
X131969761Y-87431523D01*
X131969761Y-87050571D01*
X131922142Y-86955333D01*
X131826904Y-86907714D01*
X131636428Y-86907714D01*
X131541190Y-86955333D01*
X131493571Y-87050571D01*
X131493571Y-87145809D01*
X131969761Y-87241047D01*
X130303095Y-87574380D02*
X130303095Y-86907714D01*
X130303095Y-86574380D02*
X130350714Y-86622000D01*
X130303095Y-86669619D01*
X130255476Y-86622000D01*
X130303095Y-86574380D01*
X130303095Y-86669619D01*
X129969761Y-86907714D02*
X129588809Y-86907714D01*
X129826904Y-86574380D02*
X129826904Y-87431523D01*
X129779285Y-87526761D01*
X129684047Y-87574380D01*
X129588809Y-87574380D01*
X129255476Y-87479142D02*
X129207857Y-87526761D01*
X129255476Y-87574380D01*
X129303095Y-87526761D01*
X129255476Y-87479142D01*
X129255476Y-87574380D01*
X168922142Y-88324380D02*
X168303095Y-88324380D01*
X168636428Y-88705333D01*
X168493571Y-88705333D01*
X168398333Y-88752952D01*
X168350714Y-88800571D01*
X168303095Y-88895809D01*
X168303095Y-89133904D01*
X168350714Y-89229142D01*
X168398333Y-89276761D01*
X168493571Y-89324380D01*
X168779285Y-89324380D01*
X168874523Y-89276761D01*
X168922142Y-89229142D01*
X167874523Y-89229142D02*
X167826904Y-89276761D01*
X167874523Y-89324380D01*
X167922142Y-89276761D01*
X167874523Y-89229142D01*
X167874523Y-89324380D01*
X166065000Y-89324380D02*
X166398333Y-88848190D01*
X166636428Y-89324380D02*
X166636428Y-88324380D01*
X166255476Y-88324380D01*
X166160238Y-88372000D01*
X166112619Y-88419619D01*
X166065000Y-88514857D01*
X166065000Y-88657714D01*
X166112619Y-88752952D01*
X166160238Y-88800571D01*
X166255476Y-88848190D01*
X166636428Y-88848190D01*
X165255476Y-89276761D02*
X165350714Y-89324380D01*
X165541190Y-89324380D01*
X165636428Y-89276761D01*
X165684047Y-89181523D01*
X165684047Y-88800571D01*
X165636428Y-88705333D01*
X165541190Y-88657714D01*
X165350714Y-88657714D01*
X165255476Y-88705333D01*
X165207857Y-88800571D01*
X165207857Y-88895809D01*
X165684047Y-88991047D01*
X164636428Y-89324380D02*
X164731666Y-89276761D01*
X164779285Y-89181523D01*
X164779285Y-88324380D01*
X163874523Y-89276761D02*
X163969761Y-89324380D01*
X164160238Y-89324380D01*
X164255476Y-89276761D01*
X164303095Y-89181523D01*
X164303095Y-88800571D01*
X164255476Y-88705333D01*
X164160238Y-88657714D01*
X163969761Y-88657714D01*
X163874523Y-88705333D01*
X163826904Y-88800571D01*
X163826904Y-88895809D01*
X164303095Y-88991047D01*
X162969761Y-89324380D02*
X162969761Y-88800571D01*
X163017380Y-88705333D01*
X163112619Y-88657714D01*
X163303095Y-88657714D01*
X163398333Y-88705333D01*
X162969761Y-89276761D02*
X163065000Y-89324380D01*
X163303095Y-89324380D01*
X163398333Y-89276761D01*
X163445952Y-89181523D01*
X163445952Y-89086285D01*
X163398333Y-88991047D01*
X163303095Y-88943428D01*
X163065000Y-88943428D01*
X162969761Y-88895809D01*
X162541190Y-89276761D02*
X162445952Y-89324380D01*
X162255476Y-89324380D01*
X162160238Y-89276761D01*
X162112619Y-89181523D01*
X162112619Y-89133904D01*
X162160238Y-89038666D01*
X162255476Y-88991047D01*
X162398333Y-88991047D01*
X162493571Y-88943428D01*
X162541190Y-88848190D01*
X162541190Y-88800571D01*
X162493571Y-88705333D01*
X162398333Y-88657714D01*
X162255476Y-88657714D01*
X162160238Y-88705333D01*
X161303095Y-89276761D02*
X161398333Y-89324380D01*
X161588809Y-89324380D01*
X161684047Y-89276761D01*
X161731666Y-89181523D01*
X161731666Y-88800571D01*
X161684047Y-88705333D01*
X161588809Y-88657714D01*
X161398333Y-88657714D01*
X161303095Y-88705333D01*
X161255476Y-88800571D01*
X161255476Y-88895809D01*
X161731666Y-88991047D01*
X160207857Y-88657714D02*
X159826904Y-88657714D01*
X160065000Y-88324380D02*
X160065000Y-89181523D01*
X160017380Y-89276761D01*
X159922142Y-89324380D01*
X159826904Y-89324380D01*
X159493571Y-89324380D02*
X159493571Y-88324380D01*
X159065000Y-89324380D02*
X159065000Y-88800571D01*
X159112619Y-88705333D01*
X159207857Y-88657714D01*
X159350714Y-88657714D01*
X159445952Y-88705333D01*
X159493571Y-88752952D01*
X158207857Y-89276761D02*
X158303095Y-89324380D01*
X158493571Y-89324380D01*
X158588809Y-89276761D01*
X158636428Y-89181523D01*
X158636428Y-88800571D01*
X158588809Y-88705333D01*
X158493571Y-88657714D01*
X158303095Y-88657714D01*
X158207857Y-88705333D01*
X158160238Y-88800571D01*
X158160238Y-88895809D01*
X158636428Y-88991047D01*
X156969761Y-88657714D02*
X156969761Y-89657714D01*
X156969761Y-88705333D02*
X156874523Y-88657714D01*
X156684047Y-88657714D01*
X156588809Y-88705333D01*
X156541190Y-88752952D01*
X156493571Y-88848190D01*
X156493571Y-89133904D01*
X156541190Y-89229142D01*
X156588809Y-89276761D01*
X156684047Y-89324380D01*
X156874523Y-89324380D01*
X156969761Y-89276761D01*
X156065000Y-89324380D02*
X156065000Y-88657714D01*
X156065000Y-88848190D02*
X156017380Y-88752952D01*
X155969761Y-88705333D01*
X155874523Y-88657714D01*
X155779285Y-88657714D01*
X155065000Y-89276761D02*
X155160238Y-89324380D01*
X155350714Y-89324380D01*
X155445952Y-89276761D01*
X155493571Y-89181523D01*
X155493571Y-88800571D01*
X155445952Y-88705333D01*
X155350714Y-88657714D01*
X155160238Y-88657714D01*
X155065000Y-88705333D01*
X155017380Y-88800571D01*
X155017380Y-88895809D01*
X155493571Y-88991047D01*
X154636428Y-89276761D02*
X154541190Y-89324380D01*
X154350714Y-89324380D01*
X154255476Y-89276761D01*
X154207857Y-89181523D01*
X154207857Y-89133904D01*
X154255476Y-89038666D01*
X154350714Y-88991047D01*
X154493571Y-88991047D01*
X154588809Y-88943428D01*
X154636428Y-88848190D01*
X154636428Y-88800571D01*
X154588809Y-88705333D01*
X154493571Y-88657714D01*
X154350714Y-88657714D01*
X154255476Y-88705333D01*
X153826904Y-89276761D02*
X153731666Y-89324380D01*
X153541190Y-89324380D01*
X153445952Y-89276761D01*
X153398333Y-89181523D01*
X153398333Y-89133904D01*
X153445952Y-89038666D01*
X153541190Y-88991047D01*
X153684047Y-88991047D01*
X153779285Y-88943428D01*
X153826904Y-88848190D01*
X153826904Y-88800571D01*
X153779285Y-88705333D01*
X153684047Y-88657714D01*
X153541190Y-88657714D01*
X153445952Y-88705333D01*
X152588809Y-89276761D02*
X152684047Y-89324380D01*
X152874523Y-89324380D01*
X152969761Y-89276761D01*
X153017380Y-89181523D01*
X153017380Y-88800571D01*
X152969761Y-88705333D01*
X152874523Y-88657714D01*
X152684047Y-88657714D01*
X152588809Y-88705333D01*
X152541190Y-88800571D01*
X152541190Y-88895809D01*
X153017380Y-88991047D01*
X151684047Y-89324380D02*
X151684047Y-88324380D01*
X151684047Y-89276761D02*
X151779285Y-89324380D01*
X151969761Y-89324380D01*
X152065000Y-89276761D01*
X152112619Y-89229142D01*
X152160238Y-89133904D01*
X152160238Y-88848190D01*
X152112619Y-88752952D01*
X152065000Y-88705333D01*
X151969761Y-88657714D01*
X151779285Y-88657714D01*
X151684047Y-88705333D01*
X150445952Y-89324380D02*
X150445952Y-88324380D01*
X150445952Y-88705333D02*
X150350714Y-88657714D01*
X150160238Y-88657714D01*
X150065000Y-88705333D01*
X150017380Y-88752952D01*
X149969761Y-88848190D01*
X149969761Y-89133904D01*
X150017380Y-89229142D01*
X150065000Y-89276761D01*
X150160238Y-89324380D01*
X150350714Y-89324380D01*
X150445952Y-89276761D01*
X149112619Y-88657714D02*
X149112619Y-89324380D01*
X149541190Y-88657714D02*
X149541190Y-89181523D01*
X149493571Y-89276761D01*
X149398333Y-89324380D01*
X149255476Y-89324380D01*
X149160238Y-89276761D01*
X149112619Y-89229142D01*
X148779285Y-88657714D02*
X148398333Y-88657714D01*
X148636428Y-88324380D02*
X148636428Y-89181523D01*
X148588809Y-89276761D01*
X148493571Y-89324380D01*
X148398333Y-89324380D01*
X148207857Y-88657714D02*
X147826904Y-88657714D01*
X148065000Y-88324380D02*
X148065000Y-89181523D01*
X148017380Y-89276761D01*
X147922142Y-89324380D01*
X147826904Y-89324380D01*
X147350714Y-89324380D02*
X147445952Y-89276761D01*
X147493571Y-89229142D01*
X147541190Y-89133904D01*
X147541190Y-88848190D01*
X147493571Y-88752952D01*
X147445952Y-88705333D01*
X147350714Y-88657714D01*
X147207857Y-88657714D01*
X147112619Y-88705333D01*
X147065000Y-88752952D01*
X147017380Y-88848190D01*
X147017380Y-89133904D01*
X147065000Y-89229142D01*
X147112619Y-89276761D01*
X147207857Y-89324380D01*
X147350714Y-89324380D01*
X146588809Y-88657714D02*
X146588809Y-89324380D01*
X146588809Y-88752952D02*
X146541190Y-88705333D01*
X146445952Y-88657714D01*
X146303095Y-88657714D01*
X146207857Y-88705333D01*
X146160238Y-88800571D01*
X146160238Y-89324380D01*
X144636428Y-89705333D02*
X144684047Y-89657714D01*
X144779285Y-89514857D01*
X144826904Y-89419619D01*
X144874523Y-89276761D01*
X144922142Y-89038666D01*
X144922142Y-88848190D01*
X144874523Y-88610095D01*
X144826904Y-88467238D01*
X144779285Y-88372000D01*
X144684047Y-88229142D01*
X144636428Y-88181523D01*
X144303095Y-89276761D02*
X144207857Y-89324380D01*
X144017380Y-89324380D01*
X143922142Y-89276761D01*
X143874523Y-89181523D01*
X143874523Y-89133904D01*
X143922142Y-89038666D01*
X144017380Y-88991047D01*
X144160238Y-88991047D01*
X144255476Y-88943428D01*
X144303095Y-88848190D01*
X144303095Y-88800571D01*
X144255476Y-88705333D01*
X144160238Y-88657714D01*
X144017380Y-88657714D01*
X143922142Y-88705333D01*
X143541190Y-89705333D02*
X143493571Y-89657714D01*
X143398333Y-89514857D01*
X143350714Y-89419619D01*
X143303095Y-89276761D01*
X143255476Y-89038666D01*
X143255476Y-88848190D01*
X143303095Y-88610095D01*
X143350714Y-88467238D01*
X143398333Y-88372000D01*
X143493571Y-88229142D01*
X143541190Y-88181523D01*
X142160238Y-88657714D02*
X141779285Y-88657714D01*
X142017380Y-89324380D02*
X142017380Y-88467238D01*
X141969761Y-88372000D01*
X141874523Y-88324380D01*
X141779285Y-88324380D01*
X141445952Y-89324380D02*
X141445952Y-88657714D01*
X141445952Y-88848190D02*
X141398333Y-88752952D01*
X141350714Y-88705333D01*
X141255476Y-88657714D01*
X141160238Y-88657714D01*
X140684047Y-89324380D02*
X140779285Y-89276761D01*
X140826904Y-89229142D01*
X140874523Y-89133904D01*
X140874523Y-88848190D01*
X140826904Y-88752952D01*
X140779285Y-88705333D01*
X140684047Y-88657714D01*
X140541190Y-88657714D01*
X140445952Y-88705333D01*
X140398333Y-88752952D01*
X140350714Y-88848190D01*
X140350714Y-89133904D01*
X140398333Y-89229142D01*
X140445952Y-89276761D01*
X140541190Y-89324380D01*
X140684047Y-89324380D01*
X139922142Y-89324380D02*
X139922142Y-88657714D01*
X139922142Y-88752952D02*
X139874523Y-88705333D01*
X139779285Y-88657714D01*
X139636428Y-88657714D01*
X139541190Y-88705333D01*
X139493571Y-88800571D01*
X139493571Y-89324380D01*
X139493571Y-88800571D02*
X139445952Y-88705333D01*
X139350714Y-88657714D01*
X139207857Y-88657714D01*
X139112619Y-88705333D01*
X139065000Y-88800571D01*
X139065000Y-89324380D01*
X137826904Y-88657714D02*
X137826904Y-89657714D01*
X137826904Y-88705333D02*
X137731666Y-88657714D01*
X137541190Y-88657714D01*
X137445952Y-88705333D01*
X137398333Y-88752952D01*
X137350714Y-88848190D01*
X137350714Y-89133904D01*
X137398333Y-89229142D01*
X137445952Y-89276761D01*
X137541190Y-89324380D01*
X137731666Y-89324380D01*
X137826904Y-89276761D01*
X136779285Y-89324380D02*
X136874523Y-89276761D01*
X136922142Y-89229142D01*
X136969761Y-89133904D01*
X136969761Y-88848190D01*
X136922142Y-88752952D01*
X136874523Y-88705333D01*
X136779285Y-88657714D01*
X136636428Y-88657714D01*
X136541190Y-88705333D01*
X136493571Y-88752952D01*
X136445952Y-88848190D01*
X136445952Y-89133904D01*
X136493571Y-89229142D01*
X136541190Y-89276761D01*
X136636428Y-89324380D01*
X136779285Y-89324380D01*
X136017380Y-89324380D02*
X136017380Y-88657714D01*
X136017380Y-88324380D02*
X136065000Y-88372000D01*
X136017380Y-88419619D01*
X135969761Y-88372000D01*
X136017380Y-88324380D01*
X136017380Y-88419619D01*
X135541190Y-88657714D02*
X135541190Y-89324380D01*
X135541190Y-88752952D02*
X135493571Y-88705333D01*
X135398333Y-88657714D01*
X135255476Y-88657714D01*
X135160238Y-88705333D01*
X135112619Y-88800571D01*
X135112619Y-89324380D01*
X134779285Y-88657714D02*
X134398333Y-88657714D01*
X134636428Y-88324380D02*
X134636428Y-89181523D01*
X134588809Y-89276761D01*
X134493571Y-89324380D01*
X134398333Y-89324380D01*
X132779285Y-89324380D02*
X133350714Y-89324380D01*
X133065000Y-89324380D02*
X133065000Y-88324380D01*
X133160238Y-88467238D01*
X133255476Y-88562476D01*
X133350714Y-88610095D01*
X132350714Y-89229142D02*
X132303095Y-89276761D01*
X132350714Y-89324380D01*
X132398333Y-89276761D01*
X132350714Y-89229142D01*
X132350714Y-89324380D01*
X168874523Y-92538666D02*
X168398333Y-92538666D01*
X168969761Y-92824380D02*
X168636428Y-91824380D01*
X168303095Y-92824380D01*
X168112619Y-92157714D02*
X167731666Y-92157714D01*
X167969761Y-92824380D02*
X167969761Y-91967238D01*
X167922142Y-91872000D01*
X167826904Y-91824380D01*
X167731666Y-91824380D01*
X167541190Y-92157714D02*
X167160238Y-92157714D01*
X167398333Y-91824380D02*
X167398333Y-92681523D01*
X167350714Y-92776761D01*
X167255476Y-92824380D01*
X167160238Y-92824380D01*
X166445952Y-92776761D02*
X166541190Y-92824380D01*
X166731666Y-92824380D01*
X166826904Y-92776761D01*
X166874523Y-92681523D01*
X166874523Y-92300571D01*
X166826904Y-92205333D01*
X166731666Y-92157714D01*
X166541190Y-92157714D01*
X166445952Y-92205333D01*
X166398333Y-92300571D01*
X166398333Y-92395809D01*
X166874523Y-92491047D01*
X165969761Y-92824380D02*
X165969761Y-92157714D01*
X165969761Y-92348190D02*
X165922142Y-92252952D01*
X165874523Y-92205333D01*
X165779285Y-92157714D01*
X165684047Y-92157714D01*
X164731666Y-92157714D02*
X164350714Y-92157714D01*
X164588809Y-91824380D02*
X164588809Y-92681523D01*
X164541190Y-92776761D01*
X164445952Y-92824380D01*
X164350714Y-92824380D01*
X164017380Y-92824380D02*
X164017380Y-91824380D01*
X163588809Y-92824380D02*
X163588809Y-92300571D01*
X163636428Y-92205333D01*
X163731666Y-92157714D01*
X163874523Y-92157714D01*
X163969761Y-92205333D01*
X164017380Y-92252952D01*
X163112619Y-92824380D02*
X163112619Y-92157714D01*
X163112619Y-91824380D02*
X163160238Y-91872000D01*
X163112619Y-91919619D01*
X163065000Y-91872000D01*
X163112619Y-91824380D01*
X163112619Y-91919619D01*
X162684047Y-92776761D02*
X162588809Y-92824380D01*
X162398333Y-92824380D01*
X162303095Y-92776761D01*
X162255476Y-92681523D01*
X162255476Y-92633904D01*
X162303095Y-92538666D01*
X162398333Y-92491047D01*
X162541190Y-92491047D01*
X162636428Y-92443428D01*
X162684047Y-92348190D01*
X162684047Y-92300571D01*
X162636428Y-92205333D01*
X162541190Y-92157714D01*
X162398333Y-92157714D01*
X162303095Y-92205333D01*
X161065000Y-92157714D02*
X161065000Y-93157714D01*
X161065000Y-92205333D02*
X160969761Y-92157714D01*
X160779285Y-92157714D01*
X160684047Y-92205333D01*
X160636428Y-92252952D01*
X160588809Y-92348190D01*
X160588809Y-92633904D01*
X160636428Y-92729142D01*
X160684047Y-92776761D01*
X160779285Y-92824380D01*
X160969761Y-92824380D01*
X161065000Y-92776761D01*
X160017380Y-92824380D02*
X160112619Y-92776761D01*
X160160238Y-92729142D01*
X160207857Y-92633904D01*
X160207857Y-92348190D01*
X160160238Y-92252952D01*
X160112619Y-92205333D01*
X160017380Y-92157714D01*
X159874523Y-92157714D01*
X159779285Y-92205333D01*
X159731666Y-92252952D01*
X159684047Y-92348190D01*
X159684047Y-92633904D01*
X159731666Y-92729142D01*
X159779285Y-92776761D01*
X159874523Y-92824380D01*
X160017380Y-92824380D01*
X159255476Y-92824380D02*
X159255476Y-92157714D01*
X159255476Y-91824380D02*
X159303095Y-91872000D01*
X159255476Y-91919619D01*
X159207857Y-91872000D01*
X159255476Y-91824380D01*
X159255476Y-91919619D01*
X158779285Y-92157714D02*
X158779285Y-92824380D01*
X158779285Y-92252952D02*
X158731666Y-92205333D01*
X158636428Y-92157714D01*
X158493571Y-92157714D01*
X158398333Y-92205333D01*
X158350714Y-92300571D01*
X158350714Y-92824380D01*
X158017380Y-92157714D02*
X157636428Y-92157714D01*
X157874523Y-91824380D02*
X157874523Y-92681523D01*
X157826904Y-92776761D01*
X157731666Y-92824380D01*
X157636428Y-92824380D01*
X156636428Y-92157714D02*
X156398333Y-92824380D01*
X156160238Y-92157714D02*
X156398333Y-92824380D01*
X156493571Y-93062476D01*
X156541190Y-93110095D01*
X156636428Y-93157714D01*
X155636428Y-92824380D02*
X155731666Y-92776761D01*
X155779285Y-92729142D01*
X155826904Y-92633904D01*
X155826904Y-92348190D01*
X155779285Y-92252952D01*
X155731666Y-92205333D01*
X155636428Y-92157714D01*
X155493571Y-92157714D01*
X155398333Y-92205333D01*
X155350714Y-92252952D01*
X155303095Y-92348190D01*
X155303095Y-92633904D01*
X155350714Y-92729142D01*
X155398333Y-92776761D01*
X155493571Y-92824380D01*
X155636428Y-92824380D01*
X154445952Y-92157714D02*
X154445952Y-92824380D01*
X154874523Y-92157714D02*
X154874523Y-92681523D01*
X154826904Y-92776761D01*
X154731666Y-92824380D01*
X154588809Y-92824380D01*
X154493571Y-92776761D01*
X154445952Y-92729142D01*
X153207857Y-92824380D02*
X153207857Y-92157714D01*
X153207857Y-92252952D02*
X153160238Y-92205333D01*
X153065000Y-92157714D01*
X152922142Y-92157714D01*
X152826904Y-92205333D01*
X152779285Y-92300571D01*
X152779285Y-92824380D01*
X152779285Y-92300571D02*
X152731666Y-92205333D01*
X152636428Y-92157714D01*
X152493571Y-92157714D01*
X152398333Y-92205333D01*
X152350714Y-92300571D01*
X152350714Y-92824380D01*
X151445952Y-92157714D02*
X151445952Y-92824380D01*
X151874523Y-92157714D02*
X151874523Y-92681523D01*
X151826904Y-92776761D01*
X151731666Y-92824380D01*
X151588809Y-92824380D01*
X151493571Y-92776761D01*
X151445952Y-92729142D01*
X151017380Y-92776761D02*
X150922142Y-92824380D01*
X150731666Y-92824380D01*
X150636428Y-92776761D01*
X150588809Y-92681523D01*
X150588809Y-92633904D01*
X150636428Y-92538666D01*
X150731666Y-92491047D01*
X150874523Y-92491047D01*
X150969761Y-92443428D01*
X151017380Y-92348190D01*
X151017380Y-92300571D01*
X150969761Y-92205333D01*
X150874523Y-92157714D01*
X150731666Y-92157714D01*
X150636428Y-92205333D01*
X150303095Y-92157714D02*
X149922142Y-92157714D01*
X150160238Y-91824380D02*
X150160238Y-92681523D01*
X150112619Y-92776761D01*
X150017380Y-92824380D01*
X149922142Y-92824380D01*
X148398333Y-92157714D02*
X148398333Y-92824380D01*
X148826904Y-92157714D02*
X148826904Y-92681523D01*
X148779285Y-92776761D01*
X148684047Y-92824380D01*
X148541190Y-92824380D01*
X148445952Y-92776761D01*
X148398333Y-92729142D01*
X147969761Y-92776761D02*
X147874523Y-92824380D01*
X147684047Y-92824380D01*
X147588809Y-92776761D01*
X147541190Y-92681523D01*
X147541190Y-92633904D01*
X147588809Y-92538666D01*
X147684047Y-92491047D01*
X147826904Y-92491047D01*
X147922142Y-92443428D01*
X147969761Y-92348190D01*
X147969761Y-92300571D01*
X147922142Y-92205333D01*
X147826904Y-92157714D01*
X147684047Y-92157714D01*
X147588809Y-92205333D01*
X146731666Y-92776761D02*
X146826904Y-92824380D01*
X147017380Y-92824380D01*
X147112619Y-92776761D01*
X147160238Y-92681523D01*
X147160238Y-92300571D01*
X147112619Y-92205333D01*
X147017380Y-92157714D01*
X146826904Y-92157714D01*
X146731666Y-92205333D01*
X146684047Y-92300571D01*
X146684047Y-92395809D01*
X147160238Y-92491047D01*
X145065000Y-92824380D02*
X145065000Y-92300571D01*
X145112619Y-92205333D01*
X145207857Y-92157714D01*
X145398333Y-92157714D01*
X145493571Y-92205333D01*
X145065000Y-92776761D02*
X145160238Y-92824380D01*
X145398333Y-92824380D01*
X145493571Y-92776761D01*
X145541190Y-92681523D01*
X145541190Y-92586285D01*
X145493571Y-92491047D01*
X145398333Y-92443428D01*
X145160238Y-92443428D01*
X145065000Y-92395809D01*
X144588809Y-92157714D02*
X144588809Y-92824380D01*
X144588809Y-92252952D02*
X144541190Y-92205333D01*
X144445952Y-92157714D01*
X144303095Y-92157714D01*
X144207857Y-92205333D01*
X144160238Y-92300571D01*
X144160238Y-92824380D01*
X142541190Y-92776761D02*
X142636428Y-92824380D01*
X142826904Y-92824380D01*
X142922142Y-92776761D01*
X142969761Y-92681523D01*
X142969761Y-92300571D01*
X142922142Y-92205333D01*
X142826904Y-92157714D01*
X142636428Y-92157714D01*
X142541190Y-92205333D01*
X142493571Y-92300571D01*
X142493571Y-92395809D01*
X142969761Y-92491047D01*
X142160238Y-92824380D02*
X141636428Y-92157714D01*
X142160238Y-92157714D02*
X141636428Y-92824380D01*
X141398333Y-92157714D02*
X141017380Y-92157714D01*
X141255476Y-91824380D02*
X141255476Y-92681523D01*
X141207857Y-92776761D01*
X141112619Y-92824380D01*
X141017380Y-92824380D01*
X140303095Y-92776761D02*
X140398333Y-92824380D01*
X140588809Y-92824380D01*
X140684047Y-92776761D01*
X140731666Y-92681523D01*
X140731666Y-92300571D01*
X140684047Y-92205333D01*
X140588809Y-92157714D01*
X140398333Y-92157714D01*
X140303095Y-92205333D01*
X140255476Y-92300571D01*
X140255476Y-92395809D01*
X140731666Y-92491047D01*
X139826904Y-92824380D02*
X139826904Y-92157714D01*
X139826904Y-92348190D02*
X139779285Y-92252952D01*
X139731666Y-92205333D01*
X139636428Y-92157714D01*
X139541190Y-92157714D01*
X139207857Y-92157714D02*
X139207857Y-92824380D01*
X139207857Y-92252952D02*
X139160238Y-92205333D01*
X139065000Y-92157714D01*
X138922142Y-92157714D01*
X138826904Y-92205333D01*
X138779285Y-92300571D01*
X138779285Y-92824380D01*
X137874523Y-92824380D02*
X137874523Y-92300571D01*
X137922142Y-92205333D01*
X138017380Y-92157714D01*
X138207857Y-92157714D01*
X138303095Y-92205333D01*
X137874523Y-92776761D02*
X137969761Y-92824380D01*
X138207857Y-92824380D01*
X138303095Y-92776761D01*
X138350714Y-92681523D01*
X138350714Y-92586285D01*
X138303095Y-92491047D01*
X138207857Y-92443428D01*
X137969761Y-92443428D01*
X137874523Y-92395809D01*
X137255476Y-92824380D02*
X137350714Y-92776761D01*
X137398333Y-92681523D01*
X137398333Y-91824380D01*
X136112619Y-91824380D02*
X136112619Y-92633904D01*
X136065000Y-92729142D01*
X136017380Y-92776761D01*
X135922142Y-92824380D01*
X135731666Y-92824380D01*
X135636428Y-92776761D01*
X135588809Y-92729142D01*
X135541190Y-92633904D01*
X135541190Y-91824380D01*
X135112619Y-92776761D02*
X134969761Y-92824380D01*
X134731666Y-92824380D01*
X134636428Y-92776761D01*
X134588809Y-92729142D01*
X134541190Y-92633904D01*
X134541190Y-92538666D01*
X134588809Y-92443428D01*
X134636428Y-92395809D01*
X134731666Y-92348190D01*
X134922142Y-92300571D01*
X135017380Y-92252952D01*
X135065000Y-92205333D01*
X135112619Y-92110095D01*
X135112619Y-92014857D01*
X135065000Y-91919619D01*
X135017380Y-91872000D01*
X134922142Y-91824380D01*
X134684047Y-91824380D01*
X134541190Y-91872000D01*
X133779285Y-92300571D02*
X133636428Y-92348190D01*
X133588809Y-92395809D01*
X133541190Y-92491047D01*
X133541190Y-92633904D01*
X133588809Y-92729142D01*
X133636428Y-92776761D01*
X133731666Y-92824380D01*
X134112619Y-92824380D01*
X134112619Y-91824380D01*
X133779285Y-91824380D01*
X133684047Y-91872000D01*
X133636428Y-91919619D01*
X133588809Y-92014857D01*
X133588809Y-92110095D01*
X133636428Y-92205333D01*
X133684047Y-92252952D01*
X133779285Y-92300571D01*
X134112619Y-92300571D01*
X132350714Y-92824380D02*
X132350714Y-91824380D01*
X132255476Y-92443428D02*
X131969761Y-92824380D01*
X131969761Y-92157714D02*
X132350714Y-92538666D01*
X131160238Y-92776761D02*
X131255476Y-92824380D01*
X131445952Y-92824380D01*
X131541190Y-92776761D01*
X131588809Y-92681523D01*
X131588809Y-92300571D01*
X131541190Y-92205333D01*
X131445952Y-92157714D01*
X131255476Y-92157714D01*
X131160238Y-92205333D01*
X131112619Y-92300571D01*
X131112619Y-92395809D01*
X131588809Y-92491047D01*
X130779285Y-92157714D02*
X130541190Y-92824380D01*
X130303095Y-92157714D02*
X130541190Y-92824380D01*
X130636428Y-93062476D01*
X130684047Y-93110095D01*
X130779285Y-93157714D01*
X129922142Y-92824380D02*
X129922142Y-91824380D01*
X129922142Y-92205333D02*
X129826904Y-92157714D01*
X129636428Y-92157714D01*
X129541190Y-92205333D01*
X129493571Y-92252952D01*
X129445952Y-92348190D01*
X129445952Y-92633904D01*
X129493571Y-92729142D01*
X129541190Y-92776761D01*
X129636428Y-92824380D01*
X129826904Y-92824380D01*
X129922142Y-92776761D01*
X128874523Y-92824380D02*
X128969761Y-92776761D01*
X129017380Y-92729142D01*
X129065000Y-92633904D01*
X129065000Y-92348190D01*
X129017380Y-92252952D01*
X128969761Y-92205333D01*
X128874523Y-92157714D01*
X128731666Y-92157714D01*
X128636428Y-92205333D01*
X128588809Y-92252952D01*
X128541190Y-92348190D01*
X128541190Y-92633904D01*
X128588809Y-92729142D01*
X128636428Y-92776761D01*
X128731666Y-92824380D01*
X128874523Y-92824380D01*
X127684047Y-92824380D02*
X127684047Y-92300571D01*
X127731666Y-92205333D01*
X127826904Y-92157714D01*
X128017380Y-92157714D01*
X128112619Y-92205333D01*
X127684047Y-92776761D02*
X127779285Y-92824380D01*
X128017380Y-92824380D01*
X128112619Y-92776761D01*
X128160238Y-92681523D01*
X128160238Y-92586285D01*
X128112619Y-92491047D01*
X128017380Y-92443428D01*
X127779285Y-92443428D01*
X127684047Y-92395809D01*
X127207857Y-92824380D02*
X127207857Y-92157714D01*
X127207857Y-92348190D02*
X127160238Y-92252952D01*
X127112619Y-92205333D01*
X127017380Y-92157714D01*
X126922142Y-92157714D01*
X126160238Y-92824380D02*
X126160238Y-91824380D01*
X126160238Y-92776761D02*
X126255476Y-92824380D01*
X126445952Y-92824380D01*
X126541190Y-92776761D01*
X126588809Y-92729142D01*
X126636428Y-92633904D01*
X126636428Y-92348190D01*
X126588809Y-92252952D01*
X126541190Y-92205333D01*
X126445952Y-92157714D01*
X126255476Y-92157714D01*
X126160238Y-92205333D01*
X125065000Y-92157714D02*
X124684047Y-92157714D01*
X124922142Y-92824380D02*
X124922142Y-91967238D01*
X124874523Y-91872000D01*
X124779285Y-91824380D01*
X124684047Y-91824380D01*
X124207857Y-92824380D02*
X124303095Y-92776761D01*
X124350714Y-92729142D01*
X124398333Y-92633904D01*
X124398333Y-92348190D01*
X124350714Y-92252952D01*
X124303095Y-92205333D01*
X124207857Y-92157714D01*
X124065000Y-92157714D01*
X123969761Y-92205333D01*
X123922142Y-92252952D01*
X123874523Y-92348190D01*
X123874523Y-92633904D01*
X123922142Y-92729142D01*
X123969761Y-92776761D01*
X124065000Y-92824380D01*
X124207857Y-92824380D01*
X123445952Y-92824380D02*
X123445952Y-92157714D01*
X123445952Y-92348190D02*
X123398333Y-92252952D01*
X123350714Y-92205333D01*
X123255476Y-92157714D01*
X123160238Y-92157714D01*
X122065000Y-92824380D02*
X122065000Y-91824380D01*
X121826904Y-91824380D01*
X121684047Y-91872000D01*
X121588809Y-91967238D01*
X121541190Y-92062476D01*
X121493571Y-92252952D01*
X121493571Y-92395809D01*
X121541190Y-92586285D01*
X121588809Y-92681523D01*
X121684047Y-92776761D01*
X121826904Y-92824380D01*
X122065000Y-92824380D01*
X120731666Y-92300571D02*
X121065000Y-92300571D01*
X121065000Y-92824380D02*
X121065000Y-91824380D01*
X120588809Y-91824380D01*
X120207857Y-91824380D02*
X120207857Y-92633904D01*
X120160238Y-92729142D01*
X120112619Y-92776761D01*
X120017380Y-92824380D01*
X119826904Y-92824380D01*
X119731666Y-92776761D01*
X119684047Y-92729142D01*
X119636428Y-92633904D01*
X119636428Y-91824380D01*
X117969761Y-92824380D02*
X117969761Y-92300571D01*
X118017380Y-92205333D01*
X118112619Y-92157714D01*
X118303095Y-92157714D01*
X118398333Y-92205333D01*
X117969761Y-92776761D02*
X118065000Y-92824380D01*
X118303095Y-92824380D01*
X118398333Y-92776761D01*
X118445952Y-92681523D01*
X118445952Y-92586285D01*
X118398333Y-92491047D01*
X118303095Y-92443428D01*
X118065000Y-92443428D01*
X117969761Y-92395809D01*
X117065000Y-92776761D02*
X117160238Y-92824380D01*
X117350714Y-92824380D01*
X117445952Y-92776761D01*
X117493571Y-92729142D01*
X117541190Y-92633904D01*
X117541190Y-92348190D01*
X117493571Y-92252952D01*
X117445952Y-92205333D01*
X117350714Y-92157714D01*
X117160238Y-92157714D01*
X117065000Y-92205333D01*
X116207857Y-92776761D02*
X116303095Y-92824380D01*
X116493571Y-92824380D01*
X116588809Y-92776761D01*
X116636428Y-92729142D01*
X116684047Y-92633904D01*
X116684047Y-92348190D01*
X116636428Y-92252952D01*
X116588809Y-92205333D01*
X116493571Y-92157714D01*
X116303095Y-92157714D01*
X116207857Y-92205333D01*
X115398333Y-92776761D02*
X115493571Y-92824380D01*
X115684047Y-92824380D01*
X115779285Y-92776761D01*
X115826904Y-92681523D01*
X115826904Y-92300571D01*
X115779285Y-92205333D01*
X115684047Y-92157714D01*
X115493571Y-92157714D01*
X115398333Y-92205333D01*
X115350714Y-92300571D01*
X115350714Y-92395809D01*
X115826904Y-92491047D01*
X114969761Y-92776761D02*
X114874523Y-92824380D01*
X114684047Y-92824380D01*
X114588809Y-92776761D01*
X114541190Y-92681523D01*
X114541190Y-92633904D01*
X114588809Y-92538666D01*
X114684047Y-92491047D01*
X114826904Y-92491047D01*
X114922142Y-92443428D01*
X114969761Y-92348190D01*
X114969761Y-92300571D01*
X114922142Y-92205333D01*
X114826904Y-92157714D01*
X114684047Y-92157714D01*
X114588809Y-92205333D01*
X114160238Y-92776761D02*
X114065000Y-92824380D01*
X113874523Y-92824380D01*
X113779285Y-92776761D01*
X113731666Y-92681523D01*
X113731666Y-92633904D01*
X113779285Y-92538666D01*
X113874523Y-92491047D01*
X114017380Y-92491047D01*
X114112619Y-92443428D01*
X114160238Y-92348190D01*
X114160238Y-92300571D01*
X114112619Y-92205333D01*
X114017380Y-92157714D01*
X113874523Y-92157714D01*
X113779285Y-92205333D01*
X113303095Y-92729142D02*
X113255476Y-92776761D01*
X113303095Y-92824380D01*
X113350714Y-92776761D01*
X113303095Y-92729142D01*
X113303095Y-92824380D01*
D15*
X175514000Y-99999800D02*
X175514000Y-80010000D01*
X107010200Y-99999800D02*
X107010200Y-65506600D01*
X175514000Y-80010000D02*
X107010200Y-65506600D01*
X107010200Y-99999800D02*
X175514000Y-99999800D01*
D16*
X122555000Y-76504800D02*
X126111000Y-83616800D01*
X126111000Y-83616800D02*
X118999000Y-83616800D01*
X118999000Y-83616800D02*
X120332500Y-80949800D01*
X120332500Y-80949800D02*
X120777000Y-80060800D01*
X120777000Y-80060800D02*
X122555000Y-76504800D01*
X124333000Y-80124300D02*
X118999000Y-83616800D01*
X121958100Y-80060800D02*
X120777000Y-80060800D01*
X120332500Y-80949800D02*
X120650000Y-80949800D01*
X123317000Y-82537300D02*
X123164600Y-82537300D01*
X124269500Y-81140300D02*
X124269500Y-82219800D01*
X123825000Y-82537300D02*
X123825000Y-82410300D01*
X123888500Y-82346800D02*
X123888500Y-81330800D01*
X123888500Y-82346800D02*
X123952000Y-82346800D01*
X122174721Y-79997478D02*
G75*
G02X123761500Y-80505300I466639J-1274902D01*
G01*
X122173915Y-79998914D02*
G75*
G02X121958100Y-80060800I-182795J230214D01*
G01*
X120649301Y-80950274D02*
G75*
G02X121158000Y-81140300I64199J-604046D01*
G01*
X121980461Y-81586376D02*
G75*
G02X121158000Y-81140300I147819J1253796D01*
G01*
X122492708Y-81331966D02*
G75*
G02X123444000Y-82092800I-285688J-1332334D01*
G01*
X122554915Y-81776765D02*
G75*
G02X123126500Y-82537300I-284395J-808795D01*
G01*
X122115275Y-81649293D02*
G75*
G02X122555000Y-81775300I-825195J-3709947D01*
G01*
X123443967Y-82410400D02*
G75*
G02X123317000Y-82537300I-190467J63600D01*
G01*
X123443068Y-82093474D02*
G75*
G02X123444000Y-82410300I-316568J-159346D01*
G01*
X123886935Y-81332645D02*
G75*
G02X123190000Y-80886300I153965J1007685D01*
G01*
X124077549Y-80822942D02*
G75*
G02X123761500Y-80505300I478971J792622D01*
G01*
X124080048Y-80824375D02*
G75*
G02X124269500Y-81140300I-168688J-315925D01*
G01*
X124269500Y-82219800D02*
G75*
G02X123888500Y-82600800I-381000J0D01*
G01*
X123886071Y-82603345D02*
G75*
G02X123825000Y-82537300I2429J63505D01*
G01*
X123825000Y-82410300D02*
G75*
G02X123888500Y-82346800I63500J0D01*
G01*
X123952000Y-82346800D02*
G75*
G02X124079000Y-82473800I0J-127000D01*
G01*
D12*
X127541020Y-73893680D02*
X129974340Y-71473060D01*
D16*
X130504037Y-72730360D02*
G75*
G03X130504037Y-72730360I-1802237J0D01*
G01*
X132638800Y-79248000D02*
X144449800Y-79248000D01*
X144449800Y-82296000D02*
X132638800Y-82296000D01*
X131782820Y-78265020D02*
X131729480Y-78211680D01*
X131010660Y-78211680D02*
X130733800Y-78486000D01*
X137591800Y-73279000D02*
X136725660Y-75394820D01*
X134741920Y-77782420D02*
X134706360Y-77817980D01*
X132836920Y-78486000D02*
X132321300Y-78486000D01*
X137591800Y-73279000D02*
X136730740Y-73898760D01*
X135013700Y-74236580D02*
X132864860Y-74041000D01*
X130815080Y-75557380D02*
X130667760Y-76156820D01*
X130609340Y-76835000D02*
X130609340Y-77216000D01*
X130710940Y-78440280D02*
X130733800Y-78486000D01*
X131368800Y-79756000D02*
X131183380Y-79570580D01*
X136197340Y-74930000D02*
X135915400Y-75277980D01*
X133888480Y-76029820D02*
X133578600Y-76090780D01*
X131023360Y-77360780D02*
X130853180Y-77548740D01*
X130609340Y-77216000D02*
X130611880Y-77213460D01*
X131668520Y-76141580D02*
X131676140Y-76136500D01*
X132943600Y-75633580D02*
X133461760Y-75559920D01*
X134810500Y-75344020D02*
X136197340Y-74930000D01*
X131368800Y-79883000D02*
X130860800Y-79121000D01*
X130733800Y-78658720D02*
X130733800Y-78613000D01*
X131495800Y-79756000D02*
X131005580Y-79265780D01*
X130733800Y-78994000D02*
X130629660Y-79100680D01*
X129979420Y-79128620D02*
X129844800Y-78994000D01*
X129844800Y-78994000D02*
X130141980Y-78574900D01*
X130025140Y-77373480D02*
X129971800Y-77279500D01*
X129250440Y-76634340D02*
X128828800Y-76454000D01*
X128828800Y-76454000D02*
X127812800Y-76073000D01*
X127812800Y-76073000D02*
X127947420Y-76611480D01*
X128127760Y-78673960D02*
X128150620Y-78696820D01*
X128930400Y-78994000D02*
X129286000Y-78994000D01*
X129832100Y-78994000D02*
X129844800Y-78994000D01*
X128752600Y-77802740D02*
X128778000Y-78193900D01*
X137210800Y-73787000D02*
X136197340Y-74424540D01*
D17*
X136197340Y-74424540D02*
X135051800Y-74424540D01*
X135051800Y-74424540D02*
X134035800Y-74295000D01*
X134035800Y-74295000D02*
X132384800Y-74295000D01*
X132384800Y-74295000D02*
X131749800Y-74676000D01*
X131749800Y-74676000D02*
X131241800Y-75184000D01*
X131241800Y-75184000D02*
X130987800Y-75692000D01*
X130987800Y-75692000D02*
X130860800Y-76708000D01*
X130860800Y-76708000D02*
X131368800Y-76073000D01*
X131368800Y-76073000D02*
X132003800Y-75692000D01*
X132003800Y-75692000D02*
X131749800Y-75184000D01*
X131749800Y-75184000D02*
X131368800Y-75692000D01*
X132130800Y-75692000D02*
X132765800Y-75311000D01*
X132765800Y-75311000D02*
X133273800Y-75311000D01*
X133273800Y-75311000D02*
X133400800Y-75311000D01*
X133400800Y-75311000D02*
X134543800Y-75184000D01*
X134543800Y-75184000D02*
X135813800Y-74803000D01*
X135813800Y-74803000D02*
X136321800Y-74676000D01*
X136321800Y-74676000D02*
X131749800Y-74676000D01*
X131749800Y-74676000D02*
X131749800Y-74930000D01*
X131749800Y-75184000D02*
X131749800Y-74930000D01*
X131749800Y-74930000D02*
X136702800Y-74853800D01*
X131622800Y-75311000D02*
X133273800Y-75311000D01*
X137210800Y-73787000D02*
X136702800Y-74676000D01*
X136702800Y-74676000D02*
X136575800Y-75184000D01*
X136575800Y-75184000D02*
X136197340Y-75692000D01*
X136197340Y-75692000D02*
X136197340Y-75311000D01*
X136197340Y-75311000D02*
X136575800Y-74424540D01*
X136067800Y-75819000D02*
X135686800Y-76327000D01*
X135686800Y-76327000D02*
X135432800Y-76708000D01*
X135432800Y-76708000D02*
X134543800Y-77597000D01*
X134543800Y-77597000D02*
X134035800Y-77978000D01*
X134035800Y-77978000D02*
X133146800Y-78232000D01*
X133146800Y-78232000D02*
X132257800Y-78232000D01*
X132257800Y-78232000D02*
X131495800Y-77724000D01*
X131495800Y-77724000D02*
X131114800Y-77851000D01*
X131114800Y-77851000D02*
X130860800Y-78105000D01*
X130860800Y-78105000D02*
X131114800Y-77597000D01*
X131114800Y-77597000D02*
X131622800Y-77089000D01*
X131622800Y-77089000D02*
X132308600Y-76682600D01*
X132308600Y-76682600D02*
X133705600Y-76200000D01*
X133705600Y-76200000D02*
X134315200Y-76200000D01*
X134315200Y-76200000D02*
X135051800Y-75946000D01*
X135051800Y-75946000D02*
X135813800Y-75565000D01*
X135686800Y-75946000D02*
X134924800Y-76581000D01*
X134924800Y-76581000D02*
X134797800Y-76454000D01*
X134797800Y-76454000D02*
X134670800Y-76454000D01*
X134670800Y-76454000D02*
X133527800Y-76581000D01*
X133527800Y-76581000D02*
X132511800Y-76835000D01*
X132511800Y-76835000D02*
X131876800Y-77343000D01*
X131876800Y-77343000D02*
X131749800Y-77470000D01*
X131749800Y-77470000D02*
X131876800Y-77724000D01*
X131876800Y-77724000D02*
X132130800Y-77724000D01*
X132130800Y-77724000D02*
X132511800Y-77851000D01*
X132511800Y-77851000D02*
X133146800Y-77851000D01*
X133146800Y-77851000D02*
X133527800Y-77724000D01*
X133527800Y-77724000D02*
X134035800Y-77597000D01*
X134035800Y-77597000D02*
X134670800Y-77089000D01*
X134670800Y-77089000D02*
X134797800Y-76962000D01*
X134797800Y-76962000D02*
X134670800Y-76835000D01*
X134670800Y-76835000D02*
X134162800Y-76835000D01*
X134162800Y-76835000D02*
X133146800Y-77089000D01*
X133146800Y-77089000D02*
X132892800Y-77089000D01*
X132892800Y-77089000D02*
X132384800Y-77343000D01*
X132384800Y-77343000D02*
X132384800Y-77470000D01*
X132384800Y-77470000D02*
X132511800Y-77597000D01*
X132511800Y-77597000D02*
X132892800Y-77470000D01*
X132892800Y-77470000D02*
X134162800Y-77216000D01*
D16*
X129542540Y-78869540D02*
X129570480Y-78897480D01*
X129159000Y-77800200D02*
X129159000Y-77792580D01*
X130098800Y-78254860D02*
X130098800Y-78232000D01*
X130098800Y-78232000D02*
X130098800Y-77978000D01*
X130098800Y-77978000D02*
X129971800Y-77978000D01*
X129971800Y-77978000D02*
X129844800Y-77978000D01*
X129844800Y-77978000D02*
X129844800Y-78613000D01*
X129971800Y-77978000D02*
X129971800Y-78105000D01*
X129971800Y-78105000D02*
X129971800Y-78486000D01*
X129971800Y-78486000D02*
X129971800Y-78613000D01*
X129971800Y-78613000D02*
X129971800Y-78740000D01*
X129844800Y-77978000D02*
X129463800Y-77978000D01*
X129463800Y-77978000D02*
X129209800Y-77978000D01*
X129209800Y-77978000D02*
X129717800Y-78867000D01*
X129463800Y-77978000D02*
X129463800Y-78486000D01*
X129971800Y-78105000D02*
X129336800Y-78105000D01*
X130098800Y-78232000D02*
X129336800Y-78232000D01*
X130098800Y-78359000D02*
X129336800Y-78359000D01*
X129971800Y-78486000D02*
X129336800Y-78486000D01*
X129971800Y-78613000D02*
X129463800Y-78613000D01*
X129209800Y-77851000D02*
X130098800Y-77851000D01*
X129209800Y-77724000D02*
X130098800Y-77724000D01*
X129209800Y-77597000D02*
X129971800Y-77597000D01*
X129209800Y-77470000D02*
X129971800Y-77470000D01*
X129082800Y-77343000D02*
X129971800Y-77343000D01*
X129082800Y-77216000D02*
X129844800Y-77216000D01*
X128955800Y-77089000D02*
X129717800Y-77089000D01*
X128955800Y-76962000D02*
X129590800Y-76962000D01*
X128828800Y-76835000D02*
X129336800Y-76835000D01*
X128066800Y-76708000D02*
X128193800Y-76708000D01*
X128193800Y-76708000D02*
X128320800Y-76708000D01*
X128320800Y-76708000D02*
X129209800Y-76708000D01*
X128828800Y-76581000D02*
X128066800Y-76581000D01*
X128574800Y-76454000D02*
X127939800Y-76454000D01*
X128447800Y-76327000D02*
X127939800Y-76327000D01*
X128320800Y-76708000D02*
X128320800Y-77216000D01*
X128193800Y-76708000D02*
X128193800Y-77216000D01*
X128574800Y-77216000D02*
X128066800Y-77216000D01*
X128574800Y-77343000D02*
X128066800Y-77343000D01*
X128701800Y-77470000D02*
X128066800Y-77470000D01*
X128701800Y-77597000D02*
X127939800Y-77597000D01*
X128701800Y-77724000D02*
X127939800Y-77724000D01*
X128701800Y-77851000D02*
X127939800Y-77851000D01*
X128701800Y-77978000D02*
X127939800Y-77978000D01*
X128701800Y-78105000D02*
X127939800Y-78105000D01*
X128701800Y-78232000D02*
X127939800Y-78232000D01*
X128778000Y-78359000D02*
X127939800Y-78359000D01*
X128828800Y-78486000D02*
X128066800Y-78486000D01*
X128828800Y-78613000D02*
X128193800Y-78613000D01*
X128955800Y-78740000D02*
X128320800Y-78740000D01*
X129082800Y-78867000D02*
X128574800Y-78867000D01*
X131114800Y-80772000D02*
G75*
G02X132638800Y-79248000I1524000J0D01*
G01*
X144449800Y-79248000D02*
G75*
G02X145973800Y-80772000I0J-1524000D01*
G01*
X145973800Y-80772000D02*
G75*
G02X144449800Y-82296000I-1524000J0D01*
G01*
X132638800Y-82296000D02*
G75*
G02X131114800Y-80772000I0J1524000D01*
G01*
X132321300Y-78488066D02*
G75*
G02X131782820Y-78265020I0J761526D01*
G01*
X131010660Y-78209140D02*
G75*
G02X131729480Y-78211680I358140J-360680D01*
G01*
X136723264Y-75400447D02*
G75*
G02X134741920Y-77782420I-8344044J4925607D01*
G01*
X134702733Y-77820013D02*
G75*
G02X132836920Y-78486000I-1738813J1924813D01*
G01*
X136728752Y-73896522D02*
G75*
G02X135013700Y-74236580I-1268012J1900222D01*
G01*
X130814536Y-75553585D02*
G75*
G02X132864860Y-74041000I2144304J-760715D01*
G01*
X130607560Y-76834243D02*
G75*
G02X130667760Y-76156820I3049780J70363D01*
G01*
X131181349Y-79571559D02*
G75*
G02X130733800Y-78486000I1086611J1083019D01*
G01*
X135915341Y-75279778D02*
G75*
G02X133888480Y-76029820I-2631381J3997218D01*
G01*
X131024273Y-77360156D02*
G75*
G02X133578600Y-76090780I3654147J-4148444D01*
G01*
X130732955Y-78486069D02*
G75*
G02X130853180Y-77548740I762845J378529D01*
G01*
X130613441Y-77211765D02*
G75*
G02X131668520Y-76141580I3831299J-2722035D01*
G01*
X131679930Y-76133934D02*
G75*
G02X132943600Y-75633580I2134890J-3545866D01*
G01*
X134804179Y-75344186D02*
G75*
G02X133461760Y-75559920I-1812319J6992786D01*
G01*
X131239778Y-79883280D02*
G75*
G02X130733800Y-78658720I1228842J1224560D01*
G01*
X131002058Y-79265710D02*
G75*
G02X130733800Y-78613000I653762J650170D01*
G01*
X130628934Y-79099954D02*
G75*
G02X130271520Y-79248000I-357414J357414D01*
G01*
X130271520Y-79249612D02*
G75*
G02X129979420Y-79128620I0J413092D01*
G01*
X130227674Y-78130901D02*
G75*
G02X130141980Y-78574900I-1195674J501D01*
G01*
X130025594Y-77375321D02*
G75*
G02X130225800Y-78130400I-1323794J-755079D01*
G01*
X129249800Y-76635511D02*
G75*
G02X129971800Y-77279500I-601340J-1400909D01*
G01*
X127947948Y-76614136D02*
G75*
G02X127883920Y-77548740I-1478808J-368184D01*
G01*
X127813083Y-77917487D02*
G75*
G02X127883920Y-77548740I992857J447D01*
G01*
X128126746Y-78674974D02*
G75*
G02X127812800Y-77917040I757934J757934D01*
G01*
X128730297Y-78970453D02*
G75*
G02X128150620Y-78696820I205183J1185493D01*
G01*
X128931727Y-78995303D02*
G75*
G02X128732280Y-78971140I-1327J824263D01*
G01*
X128398595Y-76855066D02*
G75*
G02X128752600Y-77845920I-1408755J-1061974D01*
G01*
X129280140Y-78989613D02*
G75*
G02X128778000Y-78193900I709440J1003993D01*
G01*
X129846588Y-78995791D02*
G75*
G02X129542540Y-78869540I752J431051D01*
G01*
X129569140Y-78897046D02*
G75*
G02X129159000Y-77800200I1118940J1043506D01*
G01*
X128651820Y-76761180D02*
G75*
G02X129159000Y-77792580I-991420J-1127920D01*
G01*
X130098356Y-78256371D02*
G75*
G02X129844800Y-78867000I-865696J1511D01*
G01*
D18*
X114122200Y-81813400D02*
G75*
G03X114122200Y-81813400I-127000J0D01*
G01*
D16*
X113868200Y-78511400D02*
G75*
G02X116154200Y-78511400I1143000J-1143000D01*
G01*
X115138200Y-77749400D02*
X115138200Y-77876400D01*
X115138200Y-77876400D02*
X114757200Y-77876400D01*
X114757200Y-77876400D02*
X114757200Y-77749400D01*
X114757200Y-77749400D02*
X115138200Y-77749400D01*
X115011200Y-79273400D02*
X114376200Y-79273400D01*
X115138200Y-79146400D02*
X114249200Y-79146400D01*
X114249200Y-79146400D02*
X114249200Y-79527400D01*
X114249200Y-79527400D02*
X115138200Y-79527400D01*
X115138200Y-79527400D02*
X115138200Y-79146400D01*
X113741200Y-79146400D02*
X113741200Y-78765400D01*
X113741200Y-78765400D02*
X113614200Y-78765400D01*
X113614200Y-78765400D02*
X113614200Y-79146400D01*
X113741200Y-78765400D02*
X113741200Y-78892400D01*
X113741200Y-78638400D02*
X113614200Y-79019400D01*
X113741200Y-78765400D02*
X113741200Y-78892400D01*
X113868200Y-78638400D02*
X113868200Y-79146400D01*
X113868200Y-79146400D02*
X113487200Y-79146400D01*
X113487200Y-79146400D02*
X113487200Y-78638400D01*
X115900200Y-78511400D02*
X115900200Y-78003400D01*
X115900200Y-78003400D02*
X115773200Y-78003400D01*
X115773200Y-78003400D02*
X115773200Y-78511400D01*
X114396809Y-81813400D02*
G75*
G03X114396809Y-81813400I-401609J0D01*
G01*
X113995200Y-81305400D02*
X113868200Y-79273400D01*
X115900200Y-81813400D02*
X115900200Y-82194400D01*
X115900200Y-82194400D02*
X115392200Y-82194400D01*
X115392200Y-82194400D02*
X115392200Y-81940400D01*
X116408200Y-78638400D02*
X113487200Y-78638400D01*
X115900200Y-81813400D02*
X116154200Y-78765400D01*
X115900200Y-81813400D02*
X114503200Y-81813400D01*
X116916200Y-82194400D02*
X112852200Y-78257400D01*
X117043200Y-78130400D02*
X112852200Y-82321400D01*
D15*
X117198400Y-83566800D02*
X112778800Y-83566800D01*
X112778800Y-83465200D02*
X117147600Y-83465200D01*
X117198400Y-83262000D02*
X112728000Y-83262000D01*
X117198400Y-83109600D02*
X112778800Y-83109600D01*
X112728000Y-83363600D02*
X117147600Y-83363600D01*
X112728000Y-83211200D02*
X117147600Y-83211200D01*
X117198400Y-83058800D02*
X112728000Y-83058800D01*
X112728000Y-82957200D02*
X117147600Y-82957200D01*
X112677200Y-83668400D02*
X117249200Y-83668400D01*
X117249200Y-83668400D02*
X117249200Y-82906400D01*
X117249200Y-82906400D02*
X112677200Y-82906400D01*
X112677200Y-82906400D02*
X112677200Y-83668400D01*
D19*
X163004500Y-94996000D02*
X161632900Y-94996000D01*
X161632900Y-94996000D02*
X161582100Y-94996000D01*
X161582100Y-94996000D02*
X160324800Y-96240600D01*
X164528500Y-95110300D02*
X164426900Y-95110300D01*
X164376100Y-95046800D02*
X164376100Y-95034100D01*
X164376100Y-95034100D02*
X165671500Y-95034100D01*
X165671500Y-95034100D02*
X165696900Y-95034100D01*
X165696900Y-95034100D02*
X166319200Y-95529400D01*
X164376100Y-98056700D02*
X164376100Y-95046800D01*
X168033700Y-95097600D02*
X168109900Y-95097600D01*
X168186100Y-95034100D02*
X166941500Y-95034100D01*
X166941500Y-95034100D02*
X166357300Y-95516700D01*
X168186100Y-98031300D02*
X168186100Y-95046800D01*
X168922700Y-97624900D02*
X168833800Y-97624900D01*
X169265600Y-97624900D02*
X169329100Y-97624900D01*
X169405300Y-97688400D02*
X168795700Y-97688400D01*
X168795700Y-97688400D02*
X168770300Y-97688400D01*
X168770300Y-97688400D02*
X168770300Y-95669100D01*
X169405300Y-95669100D02*
X169405300Y-97688400D01*
X170903900Y-95059500D02*
X170789600Y-95059500D01*
X171030900Y-94983300D02*
X170726100Y-94983300D01*
X170726100Y-94983300D02*
X170726100Y-98018600D01*
X171208700Y-95072200D02*
X171272200Y-95059500D01*
X171323000Y-94983300D02*
X171335700Y-94983300D01*
X171335700Y-94983300D02*
X171348400Y-94983300D01*
X171348400Y-94983300D02*
X171348400Y-98132900D01*
X171043600Y-94983300D02*
X171323000Y-94983300D01*
D20*
X171043600Y-98056700D02*
X171043600Y-95326200D01*
X164706300Y-95338900D02*
X164706300Y-97942400D01*
X172821600Y-95326200D02*
X173824900Y-95326200D01*
X172199300Y-95935800D02*
X172199300Y-97866200D01*
X174421800Y-95973900D02*
X174421800Y-96215200D01*
X174421800Y-97942400D02*
X173837600Y-98513900D01*
X174409100Y-97955100D02*
X174409100Y-97193100D01*
X173850300Y-98513900D02*
X172808900Y-98513900D01*
D21*
X162081459Y-96901000D02*
G75*
G03X162081459Y-96901000I-359659J0D01*
G01*
D20*
X162229800Y-96901000D02*
X163449000Y-96901000D01*
D21*
X159147535Y-95161100D02*
G75*
G03X159147535Y-95161100I-359435J0D01*
G01*
D20*
X159156400Y-95516700D02*
X160020000Y-96410400D01*
D22*
X160578800Y-96507300D02*
X160020000Y-96507300D01*
D20*
X161696400Y-95326200D02*
X160604200Y-96393000D01*
X162918300Y-95326200D02*
X161696400Y-95326200D01*
X163449000Y-95808800D02*
X162966400Y-95300800D01*
X163449000Y-95834200D02*
X163449000Y-98069400D01*
X163449000Y-98069400D02*
X163017200Y-98501200D01*
X163017200Y-98501200D02*
X161696400Y-98501200D01*
X161696400Y-98501200D02*
X160553400Y-97383600D01*
D22*
X160553400Y-97282000D02*
X160020000Y-97282000D01*
D20*
X159207200Y-98196400D02*
X160045400Y-97383600D01*
D21*
X159206466Y-98552000D02*
G75*
G03X159206466Y-98552000I-329466J0D01*
G01*
X165069529Y-98463100D02*
G75*
G03X165069529Y-98463100I-363229J0D01*
G01*
D20*
X165608000Y-95351600D02*
X164719000Y-95351600D01*
D21*
X166690118Y-97180400D02*
G75*
G03X166690118Y-97180400I-370918J0D01*
G01*
D20*
X166243000Y-95859600D02*
X165608000Y-95351600D01*
X166319200Y-96647000D02*
X166319200Y-95935800D01*
X167030400Y-95351600D02*
X166420800Y-95859600D01*
X167868600Y-95351600D02*
X167030400Y-95351600D01*
X167868600Y-97942400D02*
X167868600Y-95351600D01*
D21*
X168215559Y-98450400D02*
G75*
G03X168215559Y-98450400I-359659J0D01*
G01*
X169448618Y-95250000D02*
G75*
G03X169448618Y-95250000I-373518J0D01*
G01*
D20*
X169087800Y-95783400D02*
X169087800Y-97383600D01*
D21*
X169454124Y-98475800D02*
G75*
G03X169454124Y-98475800I-366324J0D01*
G01*
D20*
X169600600Y-98501200D02*
X170586400Y-98501200D01*
X170586400Y-98501200D02*
X171043600Y-98044000D01*
X172212000Y-97904300D02*
X172770800Y-98488500D01*
X172821600Y-95338900D02*
X172186600Y-95948500D01*
X174421800Y-95923100D02*
X173913800Y-95415100D01*
D21*
X174746547Y-96697800D02*
G75*
G03X174746547Y-96697800I-337447J0D01*
G01*
D15*
D16*
X129890068Y-73519727D02*
X129890068Y-71819727D01*
X129318640Y-71819727D01*
X129175782Y-71900680D01*
X129104354Y-71981632D01*
X129032925Y-72143537D01*
X129032925Y-72386394D01*
X129104354Y-72548299D01*
X129175782Y-72629251D01*
X129318640Y-72710203D01*
X129890068Y-72710203D01*
X128390068Y-73519727D02*
X128390068Y-71819727D01*
X128390068Y-72467346D02*
X128247211Y-72386394D01*
X127961497Y-72386394D01*
X127818640Y-72467346D01*
X127747211Y-72548299D01*
X127675782Y-72710203D01*
X127675782Y-73195918D01*
X127747211Y-73357822D01*
X127818640Y-73438775D01*
X127961497Y-73519727D01*
X128247211Y-73519727D01*
X128390068Y-73438775D01*
D22*
X143428434Y-78522081D02*
X144095100Y-77569700D01*
X144571291Y-78522081D02*
X144571291Y-76522081D01*
X143809386Y-76522081D01*
X143618910Y-76617320D01*
X143523672Y-76712558D01*
X143428434Y-76903034D01*
X143428434Y-77188748D01*
X143523672Y-77379224D01*
X143618910Y-77474462D01*
X143809386Y-77569700D01*
X144571291Y-77569700D01*
X142285577Y-78522081D02*
X142476053Y-78426843D01*
X142571291Y-78331605D01*
X142666529Y-78141129D01*
X142666529Y-77569700D01*
X142571291Y-77379224D01*
X142476053Y-77283986D01*
X142285577Y-77188748D01*
X141999862Y-77188748D01*
X141809386Y-77283986D01*
X141714148Y-77379224D01*
X141618910Y-77569700D01*
X141618910Y-78141129D01*
X141714148Y-78331605D01*
X141809386Y-78426843D01*
X141999862Y-78522081D01*
X142285577Y-78522081D01*
X140761767Y-78522081D02*
X140761767Y-76522081D01*
X140761767Y-77474462D02*
X139618910Y-77474462D01*
X139618910Y-78522081D02*
X139618910Y-76522081D01*
X138761767Y-78426843D02*
X138476053Y-78522081D01*
X137999862Y-78522081D01*
X137809386Y-78426843D01*
X137714148Y-78331605D01*
X137618910Y-78141129D01*
X137618910Y-77950653D01*
X137714148Y-77760177D01*
X137809386Y-77664939D01*
X137999862Y-77569700D01*
X138380815Y-77474462D01*
X138571291Y-77379224D01*
X138666529Y-77283986D01*
X138761767Y-77093510D01*
X138761767Y-76903034D01*
X138666529Y-76712558D01*
X138571291Y-76617320D01*
X138380815Y-76522081D01*
X137904624Y-76522081D01*
X137618910Y-76617320D01*
D23*
X144006993Y-81457800D02*
X144091660Y-81542466D01*
X144345660Y-81627133D01*
X144514993Y-81627133D01*
X144768993Y-81542466D01*
X144938326Y-81373133D01*
X145022993Y-81203800D01*
X145107660Y-80865133D01*
X145107660Y-80611133D01*
X145022993Y-80272466D01*
X144938326Y-80103133D01*
X144768993Y-79933800D01*
X144514993Y-79849133D01*
X144345660Y-79849133D01*
X144091660Y-79933800D01*
X144006993Y-80018466D01*
X142990993Y-81627133D02*
X143160326Y-81542466D01*
X143244993Y-81457800D01*
X143329660Y-81288466D01*
X143329660Y-80780466D01*
X143244993Y-80611133D01*
X143160326Y-80526466D01*
X142990993Y-80441800D01*
X142736993Y-80441800D01*
X142567660Y-80526466D01*
X142482993Y-80611133D01*
X142398326Y-80780466D01*
X142398326Y-81288466D01*
X142482993Y-81457800D01*
X142567660Y-81542466D01*
X142736993Y-81627133D01*
X142990993Y-81627133D01*
X141636326Y-81627133D02*
X141636326Y-80441800D01*
X141636326Y-80611133D02*
X141551660Y-80526466D01*
X141382326Y-80441800D01*
X141128326Y-80441800D01*
X140958993Y-80526466D01*
X140874326Y-80695800D01*
X140874326Y-81627133D01*
X140874326Y-80695800D02*
X140789660Y-80526466D01*
X140620326Y-80441800D01*
X140366326Y-80441800D01*
X140196993Y-80526466D01*
X140112326Y-80695800D01*
X140112326Y-81627133D01*
X139265660Y-80441800D02*
X139265660Y-82219800D01*
X139265660Y-80526466D02*
X139096326Y-80441800D01*
X138757660Y-80441800D01*
X138588326Y-80526466D01*
X138503660Y-80611133D01*
X138418993Y-80780466D01*
X138418993Y-81288466D01*
X138503660Y-81457800D01*
X138588326Y-81542466D01*
X138757660Y-81627133D01*
X139096326Y-81627133D01*
X139265660Y-81542466D01*
X137402993Y-81627133D02*
X137572326Y-81542466D01*
X137656993Y-81373133D01*
X137656993Y-79849133D01*
X136725660Y-81627133D02*
X136725660Y-80441800D01*
X136725660Y-79849133D02*
X136810326Y-79933800D01*
X136725660Y-80018466D01*
X136640993Y-79933800D01*
X136725660Y-79849133D01*
X136725660Y-80018466D01*
X135116993Y-81627133D02*
X135116993Y-80695800D01*
X135201660Y-80526466D01*
X135370993Y-80441800D01*
X135709660Y-80441800D01*
X135878993Y-80526466D01*
X135116993Y-81542466D02*
X135286326Y-81627133D01*
X135709660Y-81627133D01*
X135878993Y-81542466D01*
X135963660Y-81373133D01*
X135963660Y-81203800D01*
X135878993Y-81034466D01*
X135709660Y-80949800D01*
X135286326Y-80949800D01*
X135116993Y-80865133D01*
X134270326Y-80441800D02*
X134270326Y-81627133D01*
X134270326Y-80611133D02*
X134185660Y-80526466D01*
X134016326Y-80441800D01*
X133762326Y-80441800D01*
X133592993Y-80526466D01*
X133508326Y-80695800D01*
X133508326Y-81627133D01*
X132915660Y-80441800D02*
X132238326Y-80441800D01*
X132661660Y-79849133D02*
X132661660Y-81373133D01*
X132576993Y-81542466D01*
X132407660Y-81627133D01*
X132238326Y-81627133D01*
M02*
