G04 #@! TF.FileFunction,Legend,Bot*
%FSLAX46Y46*%
G04 Gerber Fmt 4.6, Leading zero omitted, Abs format (unit mm)*
G04 Created by KiCad (PCBNEW no-vcs-found-undefined) date Tue Nov  8 15:57:13 2016*
%MOMM*%
%LPD*%
G01*
G04 APERTURE LIST*
%ADD10C,0.100000*%
%ADD11C,0.254000*%
%ADD12C,0.127000*%
%ADD13C,0.050000*%
%ADD14C,0.150000*%
%ADD15C,0.200000*%
%ADD16C,0.508000*%
%ADD17C,0.190500*%
%ADD18C,0.158750*%
%ADD19C,0.500000*%
%ADD20C,0.350000*%
G04 APERTURE END LIST*
D10*
D11*
X201250000Y-58800000D02*
X201250000Y-70700000D01*
X207000000Y-70700000D02*
X207000000Y-72500000D01*
X207000000Y-54000000D02*
X207000000Y-58800000D01*
X201250000Y-58800000D02*
X207000000Y-58800000D01*
X207000000Y-70700000D02*
X201250000Y-70700000D01*
X207000000Y-35500000D02*
X207000000Y-37700000D01*
X195750000Y-28500000D02*
X195750000Y-35500000D01*
X207000000Y-25500000D02*
X207000000Y-28500000D01*
X195750000Y-28500000D02*
X207000000Y-28500000D01*
X207000000Y-35500000D02*
X195750000Y-35500000D01*
X197000000Y-40500000D02*
X197000000Y-54000000D01*
X203500000Y-37700000D02*
X203500000Y-40500000D01*
X197000000Y-40500000D02*
X203500000Y-40500000D01*
X197000000Y-54000000D02*
X207000000Y-54000000D01*
X203500000Y-37700000D02*
X207000000Y-37700000D01*
X203500000Y-72500000D02*
X207000000Y-72500000D01*
X203500000Y-100000000D02*
X203500000Y-72500000D01*
X181000000Y-25500000D02*
X207000000Y-25500000D01*
X181000000Y-35500000D02*
X181000000Y-25500000D01*
X154000000Y-35500000D02*
X181000000Y-35500000D01*
X154000000Y-25500000D02*
X154000000Y-35500000D01*
X148000000Y-25500000D02*
X154000000Y-25500000D01*
X148000000Y-11000000D02*
X148000000Y-25500000D01*
X100000000Y-11000000D02*
X148000000Y-11000000D01*
X100000000Y-100000000D02*
X100000000Y-11000000D01*
X100000000Y-100000000D02*
X203500000Y-100000000D01*
D12*
X127397000Y-27615800D02*
X126381000Y-27615800D01*
X127397000Y-28784200D02*
X126381000Y-28784200D01*
X127397000Y-27615800D02*
X127397000Y-28784200D01*
X124603000Y-28784200D02*
X125619000Y-28784200D01*
X125619000Y-27565000D02*
X124603000Y-27565000D01*
D10*
X126260000Y-28200000D02*
X125740000Y-28200000D01*
X126090000Y-28090000D02*
X126090000Y-28310000D01*
X126090000Y-28090000D02*
X125980000Y-28190000D01*
X126090000Y-28310000D02*
X125990000Y-28210000D01*
X125900000Y-28090000D02*
X125900000Y-28310000D01*
D13*
X126110000Y-27950000D02*
X125980000Y-27840000D01*
X125970000Y-27820000D02*
X126050000Y-27830000D01*
X125970000Y-27820000D02*
X125970000Y-27900000D01*
X125780000Y-27820000D02*
X125780000Y-27900000D01*
X125780000Y-27820000D02*
X125860000Y-27830000D01*
X125920000Y-27950000D02*
X125790000Y-27840000D01*
D14*
X126546100Y-27336400D02*
X126000000Y-26764900D01*
X125987300Y-26764900D02*
X126406400Y-26853800D01*
X125987300Y-26777600D02*
X126038100Y-27171300D01*
X125199900Y-26777600D02*
X125250700Y-27171300D01*
X125199900Y-26764900D02*
X125619000Y-26853800D01*
X125758700Y-27336400D02*
X125212600Y-26764900D01*
D11*
X124590300Y-27628500D02*
X124437900Y-27755500D01*
X124590300Y-28720700D02*
X124450600Y-28593700D01*
X124437900Y-27755500D02*
X124437900Y-28581000D01*
X124603000Y-28682600D02*
X124603000Y-27641200D01*
X199635000Y-92077600D02*
X199635000Y-92788800D01*
X198796800Y-92077600D02*
X199635000Y-92077600D01*
X198796800Y-94922400D02*
X199635000Y-94922400D01*
X199635000Y-94211200D02*
X199635000Y-94922400D01*
X140300000Y-33544500D02*
X140554000Y-33544500D01*
X140300000Y-33544500D02*
X140046000Y-33544500D01*
X140300000Y-32655500D02*
X140046000Y-32655500D01*
X140300000Y-32655500D02*
X140554000Y-32655500D01*
D12*
X151397000Y-27615800D02*
X150381000Y-27615800D01*
X151397000Y-28784200D02*
X150381000Y-28784200D01*
X151397000Y-27615800D02*
X151397000Y-28784200D01*
X148603000Y-28784200D02*
X149619000Y-28784200D01*
X149619000Y-27565000D02*
X148603000Y-27565000D01*
D10*
X150260000Y-28200000D02*
X149740000Y-28200000D01*
X150090000Y-28090000D02*
X150090000Y-28310000D01*
X150090000Y-28090000D02*
X149980000Y-28190000D01*
X150090000Y-28310000D02*
X149990000Y-28210000D01*
X149900000Y-28090000D02*
X149900000Y-28310000D01*
D13*
X150110000Y-27950000D02*
X149980000Y-27840000D01*
X149970000Y-27820000D02*
X150050000Y-27830000D01*
X149970000Y-27820000D02*
X149970000Y-27900000D01*
X149780000Y-27820000D02*
X149780000Y-27900000D01*
X149780000Y-27820000D02*
X149860000Y-27830000D01*
X149920000Y-27950000D02*
X149790000Y-27840000D01*
D14*
X150546100Y-27336400D02*
X150000000Y-26764900D01*
X149987300Y-26764900D02*
X150406400Y-26853800D01*
X149987300Y-26777600D02*
X150038100Y-27171300D01*
X149199900Y-26777600D02*
X149250700Y-27171300D01*
X149199900Y-26764900D02*
X149619000Y-26853800D01*
X149758700Y-27336400D02*
X149212600Y-26764900D01*
D11*
X148590300Y-27628500D02*
X148437900Y-27755500D01*
X148590300Y-28720700D02*
X148450600Y-28593700D01*
X148437900Y-27755500D02*
X148437900Y-28581000D01*
X148603000Y-28682600D02*
X148603000Y-27641200D01*
D12*
X143382000Y-28371800D02*
X142366000Y-28371800D01*
X143382000Y-29540200D02*
X142366000Y-29540200D01*
X143382000Y-28371800D02*
X143382000Y-29540200D01*
X140588000Y-29540200D02*
X141604000Y-29540200D01*
X141604000Y-28321000D02*
X140588000Y-28321000D01*
D10*
X142245000Y-28956000D02*
X141725000Y-28956000D01*
X142075000Y-28846000D02*
X142075000Y-29066000D01*
X142075000Y-28846000D02*
X141965000Y-28946000D01*
X142075000Y-29066000D02*
X141975000Y-28966000D01*
X141885000Y-28846000D02*
X141885000Y-29066000D01*
D13*
X142095000Y-28706000D02*
X141965000Y-28596000D01*
X141955000Y-28576000D02*
X142035000Y-28586000D01*
X141955000Y-28576000D02*
X141955000Y-28656000D01*
X141765000Y-28576000D02*
X141765000Y-28656000D01*
X141765000Y-28576000D02*
X141845000Y-28586000D01*
X141905000Y-28706000D02*
X141775000Y-28596000D01*
D14*
X142531100Y-28092400D02*
X141985000Y-27520900D01*
X141972300Y-27520900D02*
X142391400Y-27609800D01*
X141972300Y-27533600D02*
X142023100Y-27927300D01*
X141184900Y-27533600D02*
X141235700Y-27927300D01*
X141184900Y-27520900D02*
X141604000Y-27609800D01*
X141743700Y-28092400D02*
X141197600Y-27520900D01*
D11*
X140575300Y-28384500D02*
X140422900Y-28511500D01*
X140575300Y-29476700D02*
X140435600Y-29349700D01*
X140422900Y-28511500D02*
X140422900Y-29337000D01*
X140588000Y-29438600D02*
X140588000Y-28397200D01*
D12*
X143397000Y-26853800D02*
X142381000Y-26853800D01*
X143397000Y-28022200D02*
X142381000Y-28022200D01*
X143397000Y-26853800D02*
X143397000Y-28022200D01*
X140603000Y-28022200D02*
X141619000Y-28022200D01*
X141619000Y-26803000D02*
X140603000Y-26803000D01*
D10*
X142260000Y-27438000D02*
X141740000Y-27438000D01*
X142090000Y-27328000D02*
X142090000Y-27548000D01*
X142090000Y-27328000D02*
X141980000Y-27428000D01*
X142090000Y-27548000D02*
X141990000Y-27448000D01*
X141900000Y-27328000D02*
X141900000Y-27548000D01*
D13*
X142110000Y-27188000D02*
X141980000Y-27078000D01*
X141970000Y-27058000D02*
X142050000Y-27068000D01*
X141970000Y-27058000D02*
X141970000Y-27138000D01*
X141780000Y-27058000D02*
X141780000Y-27138000D01*
X141780000Y-27058000D02*
X141860000Y-27068000D01*
X141920000Y-27188000D02*
X141790000Y-27078000D01*
D14*
X142546100Y-26574400D02*
X142000000Y-26002900D01*
X141987300Y-26002900D02*
X142406400Y-26091800D01*
X141987300Y-26015600D02*
X142038100Y-26409300D01*
X141199900Y-26015600D02*
X141250700Y-26409300D01*
X141199900Y-26002900D02*
X141619000Y-26091800D01*
X141758700Y-26574400D02*
X141212600Y-26002900D01*
D11*
X140590300Y-26866500D02*
X140437900Y-26993500D01*
X140590300Y-27958700D02*
X140450600Y-27831700D01*
X140437900Y-26993500D02*
X140437900Y-27819000D01*
X140603000Y-27920600D02*
X140603000Y-26879200D01*
D12*
X135397000Y-27615800D02*
X134381000Y-27615800D01*
X135397000Y-28784200D02*
X134381000Y-28784200D01*
X135397000Y-27615800D02*
X135397000Y-28784200D01*
X132603000Y-28784200D02*
X133619000Y-28784200D01*
X133619000Y-27565000D02*
X132603000Y-27565000D01*
D10*
X134260000Y-28200000D02*
X133740000Y-28200000D01*
X134090000Y-28090000D02*
X134090000Y-28310000D01*
X134090000Y-28090000D02*
X133980000Y-28190000D01*
X134090000Y-28310000D02*
X133990000Y-28210000D01*
X133900000Y-28090000D02*
X133900000Y-28310000D01*
D13*
X134110000Y-27950000D02*
X133980000Y-27840000D01*
X133970000Y-27820000D02*
X134050000Y-27830000D01*
X133970000Y-27820000D02*
X133970000Y-27900000D01*
X133780000Y-27820000D02*
X133780000Y-27900000D01*
X133780000Y-27820000D02*
X133860000Y-27830000D01*
X133920000Y-27950000D02*
X133790000Y-27840000D01*
D14*
X134546100Y-27336400D02*
X134000000Y-26764900D01*
X133987300Y-26764900D02*
X134406400Y-26853800D01*
X133987300Y-26777600D02*
X134038100Y-27171300D01*
X133199900Y-26777600D02*
X133250700Y-27171300D01*
X133199900Y-26764900D02*
X133619000Y-26853800D01*
X133758700Y-27336400D02*
X133212600Y-26764900D01*
D11*
X132590300Y-27628500D02*
X132437900Y-27755500D01*
X132590300Y-28720700D02*
X132450600Y-28593700D01*
X132437900Y-27755500D02*
X132437900Y-28581000D01*
X132603000Y-28682600D02*
X132603000Y-27641200D01*
X131191000Y-78232000D02*
X134747000Y-85344000D01*
X134747000Y-85344000D02*
X127635000Y-85344000D01*
X127635000Y-85344000D02*
X128968500Y-82677000D01*
X128968500Y-82677000D02*
X129413000Y-81788000D01*
X129413000Y-81788000D02*
X131191000Y-78232000D01*
X132969000Y-81851500D02*
X127635000Y-85344000D01*
X130594100Y-81788000D02*
X129413000Y-81788000D01*
X128968500Y-82677000D02*
X129286000Y-82677000D01*
X131953000Y-84264500D02*
X131800600Y-84264500D01*
X132905500Y-82867500D02*
X132905500Y-83947000D01*
X132461000Y-84264500D02*
X132461000Y-84137500D01*
X132524500Y-84074000D02*
X132524500Y-83058000D01*
X132524500Y-84074000D02*
X132588000Y-84074000D01*
X130810721Y-81724678D02*
G75*
G02X132397500Y-82232500I466639J-1274902D01*
G01*
X130809915Y-81726114D02*
G75*
G02X130594100Y-81788000I-182795J230214D01*
G01*
X129285301Y-82677474D02*
G75*
G02X129794000Y-82867500I64199J-604046D01*
G01*
X130616461Y-83313576D02*
G75*
G02X129794000Y-82867500I147819J1253796D01*
G01*
X131128708Y-83059166D02*
G75*
G02X132080000Y-83820000I-285688J-1332334D01*
G01*
X131190915Y-83503965D02*
G75*
G02X131762500Y-84264500I-284395J-808795D01*
G01*
X130751275Y-83376493D02*
G75*
G02X131191000Y-83502500I-825195J-3709947D01*
G01*
X132079967Y-84137600D02*
G75*
G02X131953000Y-84264500I-190467J63600D01*
G01*
X132079068Y-83820674D02*
G75*
G02X132080000Y-84137500I-316568J-159346D01*
G01*
X132522935Y-83059845D02*
G75*
G02X131826000Y-82613500I153965J1007685D01*
G01*
X132713549Y-82550142D02*
G75*
G02X132397500Y-82232500I478971J792622D01*
G01*
X132716048Y-82551575D02*
G75*
G02X132905500Y-82867500I-168688J-315925D01*
G01*
X132905500Y-83947000D02*
G75*
G02X132524500Y-84328000I-381000J0D01*
G01*
X132522071Y-84330545D02*
G75*
G02X132461000Y-84264500I2429J63505D01*
G01*
X132461000Y-84137500D02*
G75*
G02X132524500Y-84074000I63500J0D01*
G01*
X132588000Y-84074000D02*
G75*
G02X132715000Y-84201000I0J-127000D01*
G01*
X156900000Y-70144500D02*
X156646000Y-70144500D01*
X156900000Y-70144500D02*
X157154000Y-70144500D01*
X156900000Y-69255500D02*
X157154000Y-69255500D01*
X156900000Y-69255500D02*
X156646000Y-69255500D01*
X139400000Y-56255500D02*
X139654000Y-56255500D01*
X139400000Y-56255500D02*
X139146000Y-56255500D01*
X139400000Y-57144500D02*
X139146000Y-57144500D01*
X139400000Y-57144500D02*
X139654000Y-57144500D01*
X140400000Y-58944500D02*
X140146000Y-58944500D01*
X140400000Y-58944500D02*
X140654000Y-58944500D01*
X140400000Y-58055500D02*
X140654000Y-58055500D01*
X140400000Y-58055500D02*
X140146000Y-58055500D01*
X137800000Y-58055500D02*
X138054000Y-58055500D01*
X137800000Y-58055500D02*
X137546000Y-58055500D01*
X137800000Y-58944500D02*
X137546000Y-58944500D01*
X137800000Y-58944500D02*
X138054000Y-58944500D01*
X139305500Y-62350000D02*
X139305500Y-62096000D01*
X139305500Y-62350000D02*
X139305500Y-62604000D01*
X140194500Y-62350000D02*
X140194500Y-62604000D01*
X140194500Y-62350000D02*
X140194500Y-62096000D01*
X138900000Y-59655500D02*
X139154000Y-59655500D01*
X138900000Y-59655500D02*
X138646000Y-59655500D01*
X138900000Y-60544500D02*
X138646000Y-60544500D01*
X138900000Y-60544500D02*
X139154000Y-60544500D01*
X144400000Y-64455500D02*
X144146000Y-64455500D01*
X144400000Y-64455500D02*
X144654000Y-64455500D01*
X144400000Y-65344500D02*
X144654000Y-65344500D01*
X144400000Y-65344500D02*
X144146000Y-65344500D01*
X142800000Y-38055500D02*
X143054000Y-38055500D01*
X142800000Y-38055500D02*
X142546000Y-38055500D01*
X142800000Y-38944500D02*
X142546000Y-38944500D01*
X142800000Y-38944500D02*
X143054000Y-38944500D01*
X142300000Y-32655500D02*
X142554000Y-32655500D01*
X142300000Y-32655500D02*
X142046000Y-32655500D01*
X142300000Y-33544500D02*
X142046000Y-33544500D01*
X142300000Y-33544500D02*
X142554000Y-33544500D01*
X144444500Y-57000000D02*
X144444500Y-57254000D01*
X144444500Y-57000000D02*
X144444500Y-56746000D01*
X143555500Y-57000000D02*
X143555500Y-56746000D01*
X143555500Y-57000000D02*
X143555500Y-57254000D01*
X161600000Y-70755500D02*
X161854000Y-70755500D01*
X161600000Y-70755500D02*
X161346000Y-70755500D01*
X161600000Y-71644500D02*
X161346000Y-71644500D01*
X161600000Y-71644500D02*
X161854000Y-71644500D01*
X143300000Y-53155500D02*
X143554000Y-53155500D01*
X143300000Y-53155500D02*
X143046000Y-53155500D01*
X143300000Y-54044500D02*
X143046000Y-54044500D01*
X143300000Y-54044500D02*
X143554000Y-54044500D01*
X161600000Y-70644500D02*
X161854000Y-70644500D01*
X161600000Y-70644500D02*
X161346000Y-70644500D01*
X161600000Y-69755500D02*
X161346000Y-69755500D01*
X161600000Y-69755500D02*
X161854000Y-69755500D01*
X156900000Y-70855500D02*
X156646000Y-70855500D01*
X156900000Y-70855500D02*
X157154000Y-70855500D01*
X156900000Y-71744500D02*
X157154000Y-71744500D01*
X156900000Y-71744500D02*
X156646000Y-71744500D01*
X144150000Y-61544500D02*
X143896000Y-61544500D01*
X144150000Y-61544500D02*
X144404000Y-61544500D01*
X144150000Y-60655500D02*
X144404000Y-60655500D01*
X144150000Y-60655500D02*
X143896000Y-60655500D01*
X148400000Y-60655500D02*
X148654000Y-60655500D01*
X148400000Y-60655500D02*
X148146000Y-60655500D01*
X148400000Y-61544500D02*
X148146000Y-61544500D01*
X148400000Y-61544500D02*
X148654000Y-61544500D01*
X126174500Y-85598000D02*
X126174500Y-85852000D01*
X126174500Y-85598000D02*
X126174500Y-85344000D01*
X125285500Y-85598000D02*
X125285500Y-85344000D01*
X125285500Y-85598000D02*
X125285500Y-85852000D01*
X159100000Y-70455500D02*
X159354000Y-70455500D01*
X159100000Y-70455500D02*
X158846000Y-70455500D01*
X159100000Y-71344500D02*
X158846000Y-71344500D01*
X159100000Y-71344500D02*
X159354000Y-71344500D01*
X157255500Y-68100000D02*
X157255500Y-67846000D01*
X157255500Y-68100000D02*
X157255500Y-68354000D01*
X158144500Y-68100000D02*
X158144500Y-68354000D01*
X158144500Y-68100000D02*
X158144500Y-67846000D01*
X147044500Y-58000000D02*
X147044500Y-58254000D01*
X147044500Y-58000000D02*
X147044500Y-57746000D01*
X146155500Y-58000000D02*
X146155500Y-57746000D01*
X146155500Y-58000000D02*
X146155500Y-58254000D01*
X147644500Y-65200000D02*
X147644500Y-65454000D01*
X147644500Y-65200000D02*
X147644500Y-64946000D01*
X146755500Y-65200000D02*
X146755500Y-64946000D01*
X146755500Y-65200000D02*
X146755500Y-65454000D01*
X158455500Y-68100000D02*
X158455500Y-67846000D01*
X158455500Y-68100000D02*
X158455500Y-68354000D01*
X159344500Y-68100000D02*
X159344500Y-68354000D01*
X159344500Y-68100000D02*
X159344500Y-67846000D01*
X148100000Y-62955500D02*
X148354000Y-62955500D01*
X148100000Y-62955500D02*
X147846000Y-62955500D01*
X148100000Y-63844500D02*
X147846000Y-63844500D01*
X148100000Y-63844500D02*
X148354000Y-63844500D01*
X144200000Y-64144500D02*
X143946000Y-64144500D01*
X144200000Y-64144500D02*
X144454000Y-64144500D01*
X144200000Y-63255500D02*
X144454000Y-63255500D01*
X144200000Y-63255500D02*
X143946000Y-63255500D01*
X144700000Y-58844500D02*
X144446000Y-58844500D01*
X144700000Y-58844500D02*
X144954000Y-58844500D01*
X144700000Y-57955500D02*
X144954000Y-57955500D01*
X144700000Y-57955500D02*
X144446000Y-57955500D01*
X135855500Y-64600000D02*
X135855500Y-64346000D01*
X135855500Y-64600000D02*
X135855500Y-64854000D01*
X136744500Y-64600000D02*
X136744500Y-64854000D01*
X136744500Y-64600000D02*
X136744500Y-64346000D01*
X136000000Y-69044500D02*
X135746000Y-69044500D01*
X136000000Y-69044500D02*
X136254000Y-69044500D01*
X136000000Y-68155500D02*
X136254000Y-68155500D01*
X136000000Y-68155500D02*
X135746000Y-68155500D01*
X136000000Y-67744500D02*
X135746000Y-67744500D01*
X136000000Y-67744500D02*
X136254000Y-67744500D01*
X136000000Y-66855500D02*
X136254000Y-66855500D01*
X136000000Y-66855500D02*
X135746000Y-66855500D01*
X136000000Y-66444500D02*
X135746000Y-66444500D01*
X136000000Y-66444500D02*
X136254000Y-66444500D01*
X136000000Y-65555500D02*
X136254000Y-65555500D01*
X136000000Y-65555500D02*
X135746000Y-65555500D01*
X142350000Y-58944500D02*
X142096000Y-58944500D01*
X142350000Y-58944500D02*
X142604000Y-58944500D01*
X142350000Y-58055500D02*
X142604000Y-58055500D01*
X142350000Y-58055500D02*
X142096000Y-58055500D01*
X186182000Y-76771500D02*
X186436000Y-76771500D01*
X186182000Y-76771500D02*
X185928000Y-76771500D01*
X186182000Y-77660500D02*
X185928000Y-77660500D01*
X186182000Y-77660500D02*
X186436000Y-77660500D01*
X143500000Y-63144500D02*
X143246000Y-63144500D01*
X143500000Y-63144500D02*
X143754000Y-63144500D01*
X143500000Y-62255500D02*
X143754000Y-62255500D01*
X143500000Y-62255500D02*
X143246000Y-62255500D01*
X146300000Y-61544500D02*
X146046000Y-61544500D01*
X146300000Y-61544500D02*
X146554000Y-61544500D01*
X146300000Y-60655500D02*
X146554000Y-60655500D01*
X146300000Y-60655500D02*
X146046000Y-60655500D01*
X147100000Y-56255500D02*
X147354000Y-56255500D01*
X147100000Y-56255500D02*
X146846000Y-56255500D01*
X147100000Y-57144500D02*
X146846000Y-57144500D01*
X147100000Y-57144500D02*
X147354000Y-57144500D01*
X145400000Y-62844500D02*
X145146000Y-62844500D01*
X145400000Y-62844500D02*
X145654000Y-62844500D01*
X145400000Y-61955500D02*
X145654000Y-61955500D01*
X145400000Y-61955500D02*
X145146000Y-61955500D01*
X149500000Y-62055500D02*
X149754000Y-62055500D01*
X149500000Y-62055500D02*
X149246000Y-62055500D01*
X149500000Y-62944500D02*
X149246000Y-62944500D01*
X149500000Y-62944500D02*
X149754000Y-62944500D01*
X145400000Y-58755500D02*
X145654000Y-58755500D01*
X145400000Y-58755500D02*
X145146000Y-58755500D01*
X145400000Y-59644500D02*
X145146000Y-59644500D01*
X145400000Y-59644500D02*
X145654000Y-59644500D01*
X124968000Y-49593500D02*
X124714000Y-49593500D01*
X124968000Y-49593500D02*
X125222000Y-49593500D01*
X124968000Y-48704500D02*
X125222000Y-48704500D01*
X124968000Y-48704500D02*
X124714000Y-48704500D01*
X134810500Y-57785000D02*
X134810500Y-58039000D01*
X134810500Y-57785000D02*
X134810500Y-57531000D01*
X133921500Y-57785000D02*
X133921500Y-57531000D01*
X133921500Y-57785000D02*
X133921500Y-58039000D01*
X133921500Y-57785000D02*
X133921500Y-58039000D01*
X133921500Y-57785000D02*
X133921500Y-57531000D01*
X133032500Y-57785000D02*
X133032500Y-57531000D01*
X133032500Y-57785000D02*
X133032500Y-58039000D01*
X156146500Y-74803000D02*
X156146500Y-74549000D01*
X156146500Y-74803000D02*
X156146500Y-75057000D01*
X157035500Y-74803000D02*
X157035500Y-75057000D01*
X157035500Y-74803000D02*
X157035500Y-74549000D01*
X147600000Y-62944500D02*
X147346000Y-62944500D01*
X147600000Y-62944500D02*
X147854000Y-62944500D01*
X147600000Y-62055500D02*
X147854000Y-62055500D01*
X147600000Y-62055500D02*
X147346000Y-62055500D01*
X197866000Y-69024500D02*
X197612000Y-69024500D01*
X197866000Y-69024500D02*
X198120000Y-69024500D01*
X197866000Y-68135500D02*
X198120000Y-68135500D01*
X197866000Y-68135500D02*
X197612000Y-68135500D01*
X157988000Y-74485500D02*
X157734000Y-74485500D01*
X157988000Y-74485500D02*
X158242000Y-74485500D01*
X157988000Y-73596500D02*
X158242000Y-73596500D01*
X157988000Y-73596500D02*
X157734000Y-73596500D01*
X150812500Y-53594000D02*
X150812500Y-53340000D01*
X150812500Y-53594000D02*
X150812500Y-53848000D01*
X151701500Y-53594000D02*
X151701500Y-53848000D01*
X151701500Y-53594000D02*
X151701500Y-53340000D01*
X179959000Y-76009500D02*
X179705000Y-76009500D01*
X179959000Y-76009500D02*
X180213000Y-76009500D01*
X179959000Y-75120500D02*
X180213000Y-75120500D01*
X179959000Y-75120500D02*
X179705000Y-75120500D01*
X185547000Y-63944500D02*
X185293000Y-63944500D01*
X185547000Y-63944500D02*
X185801000Y-63944500D01*
X185547000Y-63055500D02*
X185801000Y-63055500D01*
X185547000Y-63055500D02*
X185293000Y-63055500D01*
X185547000Y-64833500D02*
X185293000Y-64833500D01*
X185547000Y-64833500D02*
X185801000Y-64833500D01*
X185547000Y-63944500D02*
X185801000Y-63944500D01*
X185547000Y-63944500D02*
X185293000Y-63944500D01*
X142367000Y-45021500D02*
X142621000Y-45021500D01*
X142367000Y-45021500D02*
X142113000Y-45021500D01*
X142367000Y-45910500D02*
X142113000Y-45910500D01*
X142367000Y-45910500D02*
X142621000Y-45910500D01*
X145755500Y-42100000D02*
X145755500Y-41846000D01*
X145755500Y-42100000D02*
X145755500Y-42354000D01*
X146644500Y-42100000D02*
X146644500Y-42354000D01*
X146644500Y-42100000D02*
X146644500Y-41846000D01*
X144653000Y-38925500D02*
X144399000Y-38925500D01*
X144653000Y-38925500D02*
X144907000Y-38925500D01*
X144653000Y-38036500D02*
X144907000Y-38036500D01*
X144653000Y-38036500D02*
X144399000Y-38036500D01*
X141744500Y-41500000D02*
X141744500Y-41754000D01*
X141744500Y-41500000D02*
X141744500Y-41246000D01*
X140855500Y-41500000D02*
X140855500Y-41246000D01*
X140855500Y-41500000D02*
X140855500Y-41754000D01*
X139855500Y-40500000D02*
X139855500Y-40246000D01*
X139855500Y-40500000D02*
X139855500Y-40754000D01*
X140744500Y-40500000D02*
X140744500Y-40754000D01*
X140744500Y-40500000D02*
X140744500Y-40246000D01*
X137844500Y-40500000D02*
X137844500Y-40754000D01*
X137844500Y-40500000D02*
X137844500Y-40246000D01*
X136955500Y-40500000D02*
X136955500Y-40246000D01*
X136955500Y-40500000D02*
X136955500Y-40754000D01*
D15*
X116619020Y-84663280D02*
X119052340Y-82242660D01*
D11*
X119582037Y-83499960D02*
G75*
G03X119582037Y-83499960I-1802237J0D01*
G01*
D12*
X141224000Y-83693000D02*
G75*
G03X141224000Y-83693000I-127000J0D01*
G01*
D11*
X140970000Y-80391000D02*
G75*
G02X143256000Y-80391000I1143000J-1143000D01*
G01*
X142240000Y-79629000D02*
X142240000Y-79756000D01*
X142240000Y-79756000D02*
X141859000Y-79756000D01*
X141859000Y-79756000D02*
X141859000Y-79629000D01*
X141859000Y-79629000D02*
X142240000Y-79629000D01*
X142113000Y-81153000D02*
X141478000Y-81153000D01*
X142240000Y-81026000D02*
X141351000Y-81026000D01*
X141351000Y-81026000D02*
X141351000Y-81407000D01*
X141351000Y-81407000D02*
X142240000Y-81407000D01*
X142240000Y-81407000D02*
X142240000Y-81026000D01*
X140843000Y-81026000D02*
X140843000Y-80645000D01*
X140843000Y-80645000D02*
X140716000Y-80645000D01*
X140716000Y-80645000D02*
X140716000Y-81026000D01*
X140843000Y-80645000D02*
X140843000Y-80772000D01*
X140843000Y-80518000D02*
X140716000Y-80899000D01*
X140843000Y-80645000D02*
X140843000Y-80772000D01*
X140970000Y-80518000D02*
X140970000Y-81026000D01*
X140970000Y-81026000D02*
X140589000Y-81026000D01*
X140589000Y-81026000D02*
X140589000Y-80518000D01*
X143002000Y-80391000D02*
X143002000Y-79883000D01*
X143002000Y-79883000D02*
X142875000Y-79883000D01*
X142875000Y-79883000D02*
X142875000Y-80391000D01*
X141498609Y-83693000D02*
G75*
G03X141498609Y-83693000I-401609J0D01*
G01*
X141097000Y-83185000D02*
X140970000Y-81153000D01*
X143002000Y-83693000D02*
X143002000Y-84074000D01*
X143002000Y-84074000D02*
X142494000Y-84074000D01*
X142494000Y-84074000D02*
X142494000Y-83820000D01*
X143510000Y-80518000D02*
X140589000Y-80518000D01*
X143002000Y-83693000D02*
X143256000Y-80645000D01*
X143002000Y-83693000D02*
X141605000Y-83693000D01*
X144018000Y-84074000D02*
X139954000Y-80137000D01*
X144145000Y-80010000D02*
X139954000Y-84201000D01*
D14*
X144300200Y-85446400D02*
X139880600Y-85446400D01*
X139880600Y-85344800D02*
X144249400Y-85344800D01*
X144300200Y-85141600D02*
X139829800Y-85141600D01*
X144300200Y-84989200D02*
X139880600Y-84989200D01*
X139829800Y-85243200D02*
X144249400Y-85243200D01*
X139829800Y-85090800D02*
X144249400Y-85090800D01*
X144300200Y-84938400D02*
X139829800Y-84938400D01*
X139829800Y-84836800D02*
X144249400Y-84836800D01*
X139779000Y-85548000D02*
X144351000Y-85548000D01*
X144351000Y-85548000D02*
X144351000Y-84786000D01*
X144351000Y-84786000D02*
X139779000Y-84786000D01*
X139779000Y-84786000D02*
X139779000Y-85548000D01*
D11*
X158496000Y-87249000D02*
X170307000Y-87249000D01*
X170307000Y-90297000D02*
X158496000Y-90297000D01*
X157640020Y-86266020D02*
X157586680Y-86212680D01*
X156867860Y-86212680D02*
X156591000Y-86487000D01*
X163449000Y-81280000D02*
X162582860Y-83395820D01*
X160599120Y-85783420D02*
X160563560Y-85818980D01*
X158694120Y-86487000D02*
X158178500Y-86487000D01*
X163449000Y-81280000D02*
X162587940Y-81899760D01*
X160870900Y-82237580D02*
X158722060Y-82042000D01*
X156672280Y-83558380D02*
X156524960Y-84157820D01*
X156466540Y-84836000D02*
X156466540Y-85217000D01*
X156568140Y-86441280D02*
X156591000Y-86487000D01*
X157226000Y-87757000D02*
X157040580Y-87571580D01*
X162054540Y-82931000D02*
X161772600Y-83278980D01*
X159745680Y-84030820D02*
X159435800Y-84091780D01*
X156880560Y-85361780D02*
X156710380Y-85549740D01*
X156466540Y-85217000D02*
X156469080Y-85214460D01*
X157525720Y-84142580D02*
X157533340Y-84137500D01*
X158800800Y-83634580D02*
X159318960Y-83560920D01*
X160667700Y-83345020D02*
X162054540Y-82931000D01*
X157226000Y-87884000D02*
X156718000Y-87122000D01*
X156591000Y-86659720D02*
X156591000Y-86614000D01*
X157353000Y-87757000D02*
X156862780Y-87266780D01*
X156591000Y-86995000D02*
X156486860Y-87101680D01*
X155836620Y-87129620D02*
X155702000Y-86995000D01*
X155702000Y-86995000D02*
X155999180Y-86575900D01*
X155882340Y-85374480D02*
X155829000Y-85280500D01*
X155107640Y-84635340D02*
X154686000Y-84455000D01*
X154686000Y-84455000D02*
X153670000Y-84074000D01*
X153670000Y-84074000D02*
X153804620Y-84612480D01*
X153984960Y-86674960D02*
X154007820Y-86697820D01*
X154787600Y-86995000D02*
X155143200Y-86995000D01*
X155689300Y-86995000D02*
X155702000Y-86995000D01*
X154609800Y-85803740D02*
X154635200Y-86194900D01*
X163068000Y-81788000D02*
X162054540Y-82425540D01*
D16*
X162054540Y-82425540D02*
X160909000Y-82425540D01*
X160909000Y-82425540D02*
X159893000Y-82296000D01*
X159893000Y-82296000D02*
X158242000Y-82296000D01*
X158242000Y-82296000D02*
X157607000Y-82677000D01*
X157607000Y-82677000D02*
X157099000Y-83185000D01*
X157099000Y-83185000D02*
X156845000Y-83693000D01*
X156845000Y-83693000D02*
X156718000Y-84709000D01*
X156718000Y-84709000D02*
X157226000Y-84074000D01*
X157226000Y-84074000D02*
X157861000Y-83693000D01*
X157861000Y-83693000D02*
X157607000Y-83185000D01*
X157607000Y-83185000D02*
X157226000Y-83693000D01*
X157988000Y-83693000D02*
X158623000Y-83312000D01*
X158623000Y-83312000D02*
X159131000Y-83312000D01*
X159131000Y-83312000D02*
X159258000Y-83312000D01*
X159258000Y-83312000D02*
X160401000Y-83185000D01*
X160401000Y-83185000D02*
X161671000Y-82804000D01*
X161671000Y-82804000D02*
X162179000Y-82677000D01*
X162179000Y-82677000D02*
X157607000Y-82677000D01*
X157607000Y-82677000D02*
X157607000Y-82931000D01*
X157607000Y-83185000D02*
X157607000Y-82931000D01*
X157607000Y-82931000D02*
X162560000Y-82854800D01*
X157480000Y-83312000D02*
X159131000Y-83312000D01*
X163068000Y-81788000D02*
X162560000Y-82677000D01*
X162560000Y-82677000D02*
X162433000Y-83185000D01*
X162433000Y-83185000D02*
X162054540Y-83693000D01*
X162054540Y-83693000D02*
X162054540Y-83312000D01*
X162054540Y-83312000D02*
X162433000Y-82425540D01*
X161925000Y-83820000D02*
X161544000Y-84328000D01*
X161544000Y-84328000D02*
X161290000Y-84709000D01*
X161290000Y-84709000D02*
X160401000Y-85598000D01*
X160401000Y-85598000D02*
X159893000Y-85979000D01*
X159893000Y-85979000D02*
X159004000Y-86233000D01*
X159004000Y-86233000D02*
X158115000Y-86233000D01*
X158115000Y-86233000D02*
X157353000Y-85725000D01*
X157353000Y-85725000D02*
X156972000Y-85852000D01*
X156972000Y-85852000D02*
X156718000Y-86106000D01*
X156718000Y-86106000D02*
X156972000Y-85598000D01*
X156972000Y-85598000D02*
X157480000Y-85090000D01*
X157480000Y-85090000D02*
X158165800Y-84683600D01*
X158165800Y-84683600D02*
X159562800Y-84201000D01*
X159562800Y-84201000D02*
X160172400Y-84201000D01*
X160172400Y-84201000D02*
X160909000Y-83947000D01*
X160909000Y-83947000D02*
X161671000Y-83566000D01*
X161544000Y-83947000D02*
X160782000Y-84582000D01*
X160782000Y-84582000D02*
X160655000Y-84455000D01*
X160655000Y-84455000D02*
X160528000Y-84455000D01*
X160528000Y-84455000D02*
X159385000Y-84582000D01*
X159385000Y-84582000D02*
X158369000Y-84836000D01*
X158369000Y-84836000D02*
X157734000Y-85344000D01*
X157734000Y-85344000D02*
X157607000Y-85471000D01*
X157607000Y-85471000D02*
X157734000Y-85725000D01*
X157734000Y-85725000D02*
X157988000Y-85725000D01*
X157988000Y-85725000D02*
X158369000Y-85852000D01*
X158369000Y-85852000D02*
X159004000Y-85852000D01*
X159004000Y-85852000D02*
X159385000Y-85725000D01*
X159385000Y-85725000D02*
X159893000Y-85598000D01*
X159893000Y-85598000D02*
X160528000Y-85090000D01*
X160528000Y-85090000D02*
X160655000Y-84963000D01*
X160655000Y-84963000D02*
X160528000Y-84836000D01*
X160528000Y-84836000D02*
X160020000Y-84836000D01*
X160020000Y-84836000D02*
X159004000Y-85090000D01*
X159004000Y-85090000D02*
X158750000Y-85090000D01*
X158750000Y-85090000D02*
X158242000Y-85344000D01*
X158242000Y-85344000D02*
X158242000Y-85471000D01*
X158242000Y-85471000D02*
X158369000Y-85598000D01*
X158369000Y-85598000D02*
X158750000Y-85471000D01*
X158750000Y-85471000D02*
X160020000Y-85217000D01*
D11*
X155399740Y-86870540D02*
X155427680Y-86898480D01*
X155016200Y-85801200D02*
X155016200Y-85793580D01*
X155956000Y-86255860D02*
X155956000Y-86233000D01*
X155956000Y-86233000D02*
X155956000Y-85979000D01*
X155956000Y-85979000D02*
X155829000Y-85979000D01*
X155829000Y-85979000D02*
X155702000Y-85979000D01*
X155702000Y-85979000D02*
X155702000Y-86614000D01*
X155829000Y-85979000D02*
X155829000Y-86106000D01*
X155829000Y-86106000D02*
X155829000Y-86487000D01*
X155829000Y-86487000D02*
X155829000Y-86614000D01*
X155829000Y-86614000D02*
X155829000Y-86741000D01*
X155702000Y-85979000D02*
X155321000Y-85979000D01*
X155321000Y-85979000D02*
X155067000Y-85979000D01*
X155067000Y-85979000D02*
X155575000Y-86868000D01*
X155321000Y-85979000D02*
X155321000Y-86487000D01*
X155829000Y-86106000D02*
X155194000Y-86106000D01*
X155956000Y-86233000D02*
X155194000Y-86233000D01*
X155956000Y-86360000D02*
X155194000Y-86360000D01*
X155829000Y-86487000D02*
X155194000Y-86487000D01*
X155829000Y-86614000D02*
X155321000Y-86614000D01*
X155067000Y-85852000D02*
X155956000Y-85852000D01*
X155067000Y-85725000D02*
X155956000Y-85725000D01*
X155067000Y-85598000D02*
X155829000Y-85598000D01*
X155067000Y-85471000D02*
X155829000Y-85471000D01*
X154940000Y-85344000D02*
X155829000Y-85344000D01*
X154940000Y-85217000D02*
X155702000Y-85217000D01*
X154813000Y-85090000D02*
X155575000Y-85090000D01*
X154813000Y-84963000D02*
X155448000Y-84963000D01*
X154686000Y-84836000D02*
X155194000Y-84836000D01*
X153924000Y-84709000D02*
X154051000Y-84709000D01*
X154051000Y-84709000D02*
X154178000Y-84709000D01*
X154178000Y-84709000D02*
X155067000Y-84709000D01*
X154686000Y-84582000D02*
X153924000Y-84582000D01*
X154432000Y-84455000D02*
X153797000Y-84455000D01*
X154305000Y-84328000D02*
X153797000Y-84328000D01*
X154178000Y-84709000D02*
X154178000Y-85217000D01*
X154051000Y-84709000D02*
X154051000Y-85217000D01*
X154432000Y-85217000D02*
X153924000Y-85217000D01*
X154432000Y-85344000D02*
X153924000Y-85344000D01*
X154559000Y-85471000D02*
X153924000Y-85471000D01*
X154559000Y-85598000D02*
X153797000Y-85598000D01*
X154559000Y-85725000D02*
X153797000Y-85725000D01*
X154559000Y-85852000D02*
X153797000Y-85852000D01*
X154559000Y-85979000D02*
X153797000Y-85979000D01*
X154559000Y-86106000D02*
X153797000Y-86106000D01*
X154559000Y-86233000D02*
X153797000Y-86233000D01*
X154635200Y-86360000D02*
X153797000Y-86360000D01*
X154686000Y-86487000D02*
X153924000Y-86487000D01*
X154686000Y-86614000D02*
X154051000Y-86614000D01*
X154813000Y-86741000D02*
X154178000Y-86741000D01*
X154940000Y-86868000D02*
X154432000Y-86868000D01*
X156972000Y-88773000D02*
G75*
G02X158496000Y-87249000I1524000J0D01*
G01*
X170307000Y-87249000D02*
G75*
G02X171831000Y-88773000I0J-1524000D01*
G01*
X171831000Y-88773000D02*
G75*
G02X170307000Y-90297000I-1524000J0D01*
G01*
X158496000Y-90297000D02*
G75*
G02X156972000Y-88773000I0J1524000D01*
G01*
X158178500Y-86489066D02*
G75*
G02X157640020Y-86266020I0J761526D01*
G01*
X156867860Y-86210140D02*
G75*
G02X157586680Y-86212680I358140J-360680D01*
G01*
X162580464Y-83401447D02*
G75*
G02X160599120Y-85783420I-8344044J4925607D01*
G01*
X160559933Y-85821013D02*
G75*
G02X158694120Y-86487000I-1738813J1924813D01*
G01*
X162585952Y-81897522D02*
G75*
G02X160870900Y-82237580I-1268012J1900222D01*
G01*
X156671736Y-83554585D02*
G75*
G02X158722060Y-82042000I2144304J-760715D01*
G01*
X156464760Y-84835243D02*
G75*
G02X156524960Y-84157820I3049780J70363D01*
G01*
X157038549Y-87572559D02*
G75*
G02X156591000Y-86487000I1086611J1083019D01*
G01*
X161772541Y-83280778D02*
G75*
G02X159745680Y-84030820I-2631381J3997218D01*
G01*
X156881473Y-85361156D02*
G75*
G02X159435800Y-84091780I3654147J-4148444D01*
G01*
X156590155Y-86487069D02*
G75*
G02X156710380Y-85549740I762845J378529D01*
G01*
X156470641Y-85212765D02*
G75*
G02X157525720Y-84142580I3831299J-2722035D01*
G01*
X157537130Y-84134934D02*
G75*
G02X158800800Y-83634580I2134890J-3545866D01*
G01*
X160661379Y-83345186D02*
G75*
G02X159318960Y-83560920I-1812319J6992786D01*
G01*
X157096978Y-87884280D02*
G75*
G02X156591000Y-86659720I1228842J1224560D01*
G01*
X156859258Y-87266710D02*
G75*
G02X156591000Y-86614000I653762J650170D01*
G01*
X156486134Y-87100954D02*
G75*
G02X156128720Y-87249000I-357414J357414D01*
G01*
X156128720Y-87250612D02*
G75*
G02X155836620Y-87129620I0J413092D01*
G01*
X156084874Y-86131901D02*
G75*
G02X155999180Y-86575900I-1195674J501D01*
G01*
X155882794Y-85376321D02*
G75*
G02X156083000Y-86131400I-1323794J-755079D01*
G01*
X155107000Y-84636511D02*
G75*
G02X155829000Y-85280500I-601340J-1400909D01*
G01*
X153805148Y-84615136D02*
G75*
G02X153741120Y-85549740I-1478808J-368184D01*
G01*
X153670283Y-85918487D02*
G75*
G02X153741120Y-85549740I992857J447D01*
G01*
X153983946Y-86675974D02*
G75*
G02X153670000Y-85918040I757934J757934D01*
G01*
X154587497Y-86971453D02*
G75*
G02X154007820Y-86697820I205183J1185493D01*
G01*
X154788927Y-86996303D02*
G75*
G02X154589480Y-86972140I-1327J824263D01*
G01*
X154255795Y-84856066D02*
G75*
G02X154609800Y-85846920I-1408755J-1061974D01*
G01*
X155137340Y-86990613D02*
G75*
G02X154635200Y-86194900I709440J1003993D01*
G01*
X155703788Y-86996791D02*
G75*
G02X155399740Y-86870540I752J431051D01*
G01*
X155426340Y-86898046D02*
G75*
G02X155016200Y-85801200I1118940J1043506D01*
G01*
X154509020Y-84762180D02*
G75*
G02X155016200Y-85793580I-991420J-1127920D01*
G01*
X155955556Y-86257371D02*
G75*
G02X155702000Y-86868000I-865696J1511D01*
G01*
X158700000Y-69255500D02*
X158954000Y-69255500D01*
X158700000Y-69255500D02*
X158446000Y-69255500D01*
X158700000Y-70144500D02*
X158446000Y-70144500D01*
X158700000Y-70144500D02*
X158954000Y-70144500D01*
X154305000Y-68135500D02*
X154051000Y-68135500D01*
X154305000Y-68135500D02*
X154559000Y-68135500D01*
X154305000Y-67246500D02*
X154559000Y-67246500D01*
X154305000Y-67246500D02*
X154051000Y-67246500D01*
X160337500Y-74803000D02*
X160337500Y-75057000D01*
X160337500Y-74803000D02*
X160337500Y-74549000D01*
X159448500Y-74803000D02*
X159448500Y-74549000D01*
X159448500Y-74803000D02*
X159448500Y-75057000D01*
X155257500Y-74803000D02*
X155257500Y-75057000D01*
X155257500Y-74803000D02*
X155257500Y-74549000D01*
X156146500Y-74803000D02*
X156146500Y-74549000D01*
X156146500Y-74803000D02*
X156146500Y-75057000D01*
X196913500Y-93599000D02*
X196913500Y-93345000D01*
X196913500Y-93599000D02*
X196913500Y-93853000D01*
X196024500Y-93599000D02*
X196024500Y-93853000D01*
X196024500Y-93599000D02*
X196024500Y-93345000D01*
X152500000Y-62455500D02*
X152754000Y-62455500D01*
X152500000Y-62455500D02*
X152246000Y-62455500D01*
X152500000Y-63344500D02*
X152246000Y-63344500D01*
X152500000Y-63344500D02*
X152754000Y-63344500D01*
D17*
X126709714Y-30062714D02*
X127072571Y-30062714D01*
X127072571Y-29300714D01*
X126455714Y-29663571D02*
X126201714Y-29663571D01*
X126092857Y-30062714D02*
X126455714Y-30062714D01*
X126455714Y-29300714D01*
X126092857Y-29300714D01*
X125766285Y-30062714D02*
X125766285Y-29300714D01*
X125584857Y-29300714D01*
X125476000Y-29337000D01*
X125403428Y-29409571D01*
X125367142Y-29482142D01*
X125330857Y-29627285D01*
X125330857Y-29736142D01*
X125367142Y-29881285D01*
X125403428Y-29953857D01*
X125476000Y-30026428D01*
X125584857Y-30062714D01*
X125766285Y-30062714D01*
X125040571Y-29373285D02*
X125004285Y-29337000D01*
X124931714Y-29300714D01*
X124750285Y-29300714D01*
X124677714Y-29337000D01*
X124641428Y-29373285D01*
X124605142Y-29445857D01*
X124605142Y-29518428D01*
X124641428Y-29627285D01*
X125076857Y-30062714D01*
X124605142Y-30062714D01*
D11*
X202232380Y-91518619D02*
X202232380Y-90502619D01*
X202232380Y-90986428D02*
X201651809Y-90986428D01*
X201651809Y-91518619D02*
X201651809Y-90502619D01*
X201216380Y-91228333D02*
X200732571Y-91228333D01*
X201313142Y-91518619D02*
X200974476Y-90502619D01*
X200635809Y-91518619D01*
X199813333Y-91518619D02*
X200297142Y-91518619D01*
X200297142Y-90502619D01*
X198990857Y-91518619D02*
X199474666Y-91518619D01*
X199474666Y-90502619D01*
X198700571Y-91470238D02*
X198555428Y-91518619D01*
X198313523Y-91518619D01*
X198216761Y-91470238D01*
X198168380Y-91421857D01*
X198120000Y-91325095D01*
X198120000Y-91228333D01*
X198168380Y-91131571D01*
X198216761Y-91083190D01*
X198313523Y-91034809D01*
X198507047Y-90986428D01*
X198603809Y-90938047D01*
X198652190Y-90889666D01*
X198700571Y-90792904D01*
X198700571Y-90696142D01*
X198652190Y-90599380D01*
X198603809Y-90551000D01*
X198507047Y-90502619D01*
X198265142Y-90502619D01*
X198120000Y-90551000D01*
X197781333Y-90502619D02*
X197539428Y-91518619D01*
X197345904Y-90792904D01*
X197152380Y-91518619D01*
X196910476Y-90502619D01*
X195991238Y-91518619D02*
X196571809Y-91518619D01*
X196281523Y-91518619D02*
X196281523Y-90502619D01*
X196378285Y-90647761D01*
X196475047Y-90744523D01*
X196571809Y-90792904D01*
D17*
X138411857Y-33419142D02*
X138448142Y-33455428D01*
X138557000Y-33491714D01*
X138629571Y-33491714D01*
X138738428Y-33455428D01*
X138811000Y-33382857D01*
X138847285Y-33310285D01*
X138883571Y-33165142D01*
X138883571Y-33056285D01*
X138847285Y-32911142D01*
X138811000Y-32838571D01*
X138738428Y-32766000D01*
X138629571Y-32729714D01*
X138557000Y-32729714D01*
X138448142Y-32766000D01*
X138411857Y-32802285D01*
X138157857Y-32729714D02*
X137686142Y-32729714D01*
X137940142Y-33020000D01*
X137831285Y-33020000D01*
X137758714Y-33056285D01*
X137722428Y-33092571D01*
X137686142Y-33165142D01*
X137686142Y-33346571D01*
X137722428Y-33419142D01*
X137758714Y-33455428D01*
X137831285Y-33491714D01*
X138049000Y-33491714D01*
X138121571Y-33455428D01*
X138157857Y-33419142D01*
X137432142Y-32729714D02*
X136924142Y-32729714D01*
X137250714Y-33491714D01*
X150839714Y-30062714D02*
X151202571Y-30062714D01*
X151202571Y-29300714D01*
X150585714Y-29663571D02*
X150331714Y-29663571D01*
X150222857Y-30062714D02*
X150585714Y-30062714D01*
X150585714Y-29300714D01*
X150222857Y-29300714D01*
X149896285Y-30062714D02*
X149896285Y-29300714D01*
X149714857Y-29300714D01*
X149606000Y-29337000D01*
X149533428Y-29409571D01*
X149497142Y-29482142D01*
X149460857Y-29627285D01*
X149460857Y-29736142D01*
X149497142Y-29881285D01*
X149533428Y-29953857D01*
X149606000Y-30026428D01*
X149714857Y-30062714D01*
X149896285Y-30062714D01*
X149206857Y-29300714D02*
X148735142Y-29300714D01*
X148989142Y-29591000D01*
X148880285Y-29591000D01*
X148807714Y-29627285D01*
X148771428Y-29663571D01*
X148735142Y-29736142D01*
X148735142Y-29917571D01*
X148771428Y-29990142D01*
X148807714Y-30026428D01*
X148880285Y-30062714D01*
X149098000Y-30062714D01*
X149170571Y-30026428D01*
X149206857Y-29990142D01*
X143927285Y-30752142D02*
X143963571Y-30788428D01*
X144072428Y-30824714D01*
X144145000Y-30824714D01*
X144253857Y-30788428D01*
X144326428Y-30715857D01*
X144362714Y-30643285D01*
X144399000Y-30498142D01*
X144399000Y-30389285D01*
X144362714Y-30244142D01*
X144326428Y-30171571D01*
X144253857Y-30099000D01*
X144145000Y-30062714D01*
X144072428Y-30062714D01*
X143963571Y-30099000D01*
X143927285Y-30135285D01*
X143600714Y-30824714D02*
X143600714Y-30062714D01*
X143600714Y-30425571D02*
X143165285Y-30425571D01*
X143165285Y-30824714D02*
X143165285Y-30062714D01*
X142403285Y-30099000D02*
X142475857Y-30062714D01*
X142584714Y-30062714D01*
X142693571Y-30099000D01*
X142766142Y-30171571D01*
X142802428Y-30244142D01*
X142838714Y-30389285D01*
X142838714Y-30498142D01*
X142802428Y-30643285D01*
X142766142Y-30715857D01*
X142693571Y-30788428D01*
X142584714Y-30824714D01*
X142512142Y-30824714D01*
X142403285Y-30788428D01*
X142367000Y-30752142D01*
X142367000Y-30498142D01*
X142512142Y-30498142D01*
X141677571Y-30824714D02*
X142040428Y-30824714D01*
X142040428Y-30062714D01*
X141423571Y-30425571D02*
X141169571Y-30425571D01*
X141060714Y-30824714D02*
X141423571Y-30824714D01*
X141423571Y-30062714D01*
X141060714Y-30062714D01*
X140734142Y-30824714D02*
X140734142Y-30062714D01*
X140552714Y-30062714D01*
X140443857Y-30099000D01*
X140371285Y-30171571D01*
X140335000Y-30244142D01*
X140298714Y-30389285D01*
X140298714Y-30498142D01*
X140335000Y-30643285D01*
X140371285Y-30715857D01*
X140443857Y-30788428D01*
X140552714Y-30824714D01*
X140734142Y-30824714D01*
X139573000Y-30824714D02*
X140008428Y-30824714D01*
X139790714Y-30824714D02*
X139790714Y-30062714D01*
X139863285Y-30171571D01*
X139935857Y-30244142D01*
X140008428Y-30280428D01*
X144399000Y-25490714D02*
X144399000Y-24728714D01*
X144108714Y-24728714D01*
X144036142Y-24765000D01*
X143999857Y-24801285D01*
X143963571Y-24873857D01*
X143963571Y-24982714D01*
X143999857Y-25055285D01*
X144036142Y-25091571D01*
X144108714Y-25127857D01*
X144399000Y-25127857D01*
X143709571Y-24728714D02*
X143528142Y-25490714D01*
X143383000Y-24946428D01*
X143237857Y-25490714D01*
X143056428Y-24728714D01*
X142330714Y-25490714D02*
X142584714Y-25127857D01*
X142766142Y-25490714D02*
X142766142Y-24728714D01*
X142475857Y-24728714D01*
X142403285Y-24765000D01*
X142367000Y-24801285D01*
X142330714Y-24873857D01*
X142330714Y-24982714D01*
X142367000Y-25055285D01*
X142403285Y-25091571D01*
X142475857Y-25127857D01*
X142766142Y-25127857D01*
X141641285Y-25490714D02*
X142004142Y-25490714D01*
X142004142Y-24728714D01*
X141387285Y-25091571D02*
X141133285Y-25091571D01*
X141024428Y-25490714D02*
X141387285Y-25490714D01*
X141387285Y-24728714D01*
X141024428Y-24728714D01*
X140697857Y-25490714D02*
X140697857Y-24728714D01*
X140516428Y-24728714D01*
X140407571Y-24765000D01*
X140335000Y-24837571D01*
X140298714Y-24910142D01*
X140262428Y-25055285D01*
X140262428Y-25164142D01*
X140298714Y-25309285D01*
X140335000Y-25381857D01*
X140407571Y-25454428D01*
X140516428Y-25490714D01*
X140697857Y-25490714D01*
X139536714Y-25490714D02*
X139972142Y-25490714D01*
X139754428Y-25490714D02*
X139754428Y-24728714D01*
X139827000Y-24837571D01*
X139899571Y-24910142D01*
X139972142Y-24946428D01*
X134583714Y-30062714D02*
X134946571Y-30062714D01*
X134946571Y-29300714D01*
X134329714Y-29663571D02*
X134075714Y-29663571D01*
X133966857Y-30062714D02*
X134329714Y-30062714D01*
X134329714Y-29300714D01*
X133966857Y-29300714D01*
X133640285Y-30062714D02*
X133640285Y-29300714D01*
X133458857Y-29300714D01*
X133350000Y-29337000D01*
X133277428Y-29409571D01*
X133241142Y-29482142D01*
X133204857Y-29627285D01*
X133204857Y-29736142D01*
X133241142Y-29881285D01*
X133277428Y-29953857D01*
X133350000Y-30026428D01*
X133458857Y-30062714D01*
X133640285Y-30062714D01*
X132479142Y-30062714D02*
X132914571Y-30062714D01*
X132696857Y-30062714D02*
X132696857Y-29300714D01*
X132769428Y-29409571D01*
X132842000Y-29482142D01*
X132914571Y-29518428D01*
X155175857Y-69995142D02*
X155212142Y-70031428D01*
X155321000Y-70067714D01*
X155393571Y-70067714D01*
X155502428Y-70031428D01*
X155575000Y-69958857D01*
X155611285Y-69886285D01*
X155647571Y-69741142D01*
X155647571Y-69632285D01*
X155611285Y-69487142D01*
X155575000Y-69414571D01*
X155502428Y-69342000D01*
X155393571Y-69305714D01*
X155321000Y-69305714D01*
X155212142Y-69342000D01*
X155175857Y-69378285D01*
X154740428Y-69632285D02*
X154813000Y-69596000D01*
X154849285Y-69559714D01*
X154885571Y-69487142D01*
X154885571Y-69450857D01*
X154849285Y-69378285D01*
X154813000Y-69342000D01*
X154740428Y-69305714D01*
X154595285Y-69305714D01*
X154522714Y-69342000D01*
X154486428Y-69378285D01*
X154450142Y-69450857D01*
X154450142Y-69487142D01*
X154486428Y-69559714D01*
X154522714Y-69596000D01*
X154595285Y-69632285D01*
X154740428Y-69632285D01*
X154813000Y-69668571D01*
X154849285Y-69704857D01*
X154885571Y-69777428D01*
X154885571Y-69922571D01*
X154849285Y-69995142D01*
X154813000Y-70031428D01*
X154740428Y-70067714D01*
X154595285Y-70067714D01*
X154522714Y-70031428D01*
X154486428Y-69995142D01*
X154450142Y-69922571D01*
X154450142Y-69777428D01*
X154486428Y-69704857D01*
X154522714Y-69668571D01*
X154595285Y-69632285D01*
X153978428Y-69305714D02*
X153905857Y-69305714D01*
X153833285Y-69342000D01*
X153797000Y-69378285D01*
X153760714Y-69450857D01*
X153724428Y-69596000D01*
X153724428Y-69777428D01*
X153760714Y-69922571D01*
X153797000Y-69995142D01*
X153833285Y-70031428D01*
X153905857Y-70067714D01*
X153978428Y-70067714D01*
X154051000Y-70031428D01*
X154087285Y-69995142D01*
X154123571Y-69922571D01*
X154159857Y-69777428D01*
X154159857Y-69596000D01*
X154123571Y-69450857D01*
X154087285Y-69378285D01*
X154051000Y-69342000D01*
X153978428Y-69305714D01*
D14*
D18*
X139854214Y-55725785D02*
X139884452Y-55756023D01*
X139975166Y-55786261D01*
X140035642Y-55786261D01*
X140126357Y-55756023D01*
X140186833Y-55695547D01*
X140217071Y-55635071D01*
X140247309Y-55514119D01*
X140247309Y-55423404D01*
X140217071Y-55302452D01*
X140186833Y-55241976D01*
X140126357Y-55181500D01*
X140035642Y-55151261D01*
X139975166Y-55151261D01*
X139884452Y-55181500D01*
X139854214Y-55211738D01*
X139612309Y-55211738D02*
X139582071Y-55181500D01*
X139521595Y-55151261D01*
X139370404Y-55151261D01*
X139309928Y-55181500D01*
X139279690Y-55211738D01*
X139249452Y-55272214D01*
X139249452Y-55332690D01*
X139279690Y-55423404D01*
X139642547Y-55786261D01*
X139249452Y-55786261D01*
X139007547Y-55211738D02*
X138977309Y-55181500D01*
X138916833Y-55151261D01*
X138765642Y-55151261D01*
X138705166Y-55181500D01*
X138674928Y-55211738D01*
X138644690Y-55272214D01*
X138644690Y-55332690D01*
X138674928Y-55423404D01*
X139037785Y-55786261D01*
X138644690Y-55786261D01*
X140997214Y-57884785D02*
X141027452Y-57915023D01*
X141118166Y-57945261D01*
X141178642Y-57945261D01*
X141269357Y-57915023D01*
X141329833Y-57854547D01*
X141360071Y-57794071D01*
X141390309Y-57673119D01*
X141390309Y-57582404D01*
X141360071Y-57461452D01*
X141329833Y-57400976D01*
X141269357Y-57340500D01*
X141178642Y-57310261D01*
X141118166Y-57310261D01*
X141027452Y-57340500D01*
X140997214Y-57370738D01*
X140755309Y-57370738D02*
X140725071Y-57340500D01*
X140664595Y-57310261D01*
X140513404Y-57310261D01*
X140452928Y-57340500D01*
X140422690Y-57370738D01*
X140392452Y-57431214D01*
X140392452Y-57491690D01*
X140422690Y-57582404D01*
X140785547Y-57945261D01*
X140392452Y-57945261D01*
X140029595Y-57582404D02*
X140090071Y-57552166D01*
X140120309Y-57521928D01*
X140150547Y-57461452D01*
X140150547Y-57431214D01*
X140120309Y-57370738D01*
X140090071Y-57340500D01*
X140029595Y-57310261D01*
X139908642Y-57310261D01*
X139848166Y-57340500D01*
X139817928Y-57370738D01*
X139787690Y-57431214D01*
X139787690Y-57461452D01*
X139817928Y-57521928D01*
X139848166Y-57552166D01*
X139908642Y-57582404D01*
X140029595Y-57582404D01*
X140090071Y-57612642D01*
X140120309Y-57642880D01*
X140150547Y-57703357D01*
X140150547Y-57824309D01*
X140120309Y-57884785D01*
X140090071Y-57915023D01*
X140029595Y-57945261D01*
X139908642Y-57945261D01*
X139848166Y-57915023D01*
X139817928Y-57884785D01*
X139787690Y-57824309D01*
X139787690Y-57703357D01*
X139817928Y-57642880D01*
X139848166Y-57612642D01*
X139908642Y-57582404D01*
X138076214Y-57630785D02*
X138106452Y-57661023D01*
X138197166Y-57691261D01*
X138257642Y-57691261D01*
X138348357Y-57661023D01*
X138408833Y-57600547D01*
X138439071Y-57540071D01*
X138469309Y-57419119D01*
X138469309Y-57328404D01*
X138439071Y-57207452D01*
X138408833Y-57146976D01*
X138348357Y-57086500D01*
X138257642Y-57056261D01*
X138197166Y-57056261D01*
X138106452Y-57086500D01*
X138076214Y-57116738D01*
X137834309Y-57116738D02*
X137804071Y-57086500D01*
X137743595Y-57056261D01*
X137592404Y-57056261D01*
X137531928Y-57086500D01*
X137501690Y-57116738D01*
X137471452Y-57177214D01*
X137471452Y-57237690D01*
X137501690Y-57328404D01*
X137864547Y-57691261D01*
X137471452Y-57691261D01*
X137169071Y-57691261D02*
X137048119Y-57691261D01*
X136987642Y-57661023D01*
X136957404Y-57630785D01*
X136896928Y-57540071D01*
X136866690Y-57419119D01*
X136866690Y-57177214D01*
X136896928Y-57116738D01*
X136927166Y-57086500D01*
X136987642Y-57056261D01*
X137108595Y-57056261D01*
X137169071Y-57086500D01*
X137199309Y-57116738D01*
X137229547Y-57177214D01*
X137229547Y-57328404D01*
X137199309Y-57388880D01*
X137169071Y-57419119D01*
X137108595Y-57449357D01*
X136987642Y-57449357D01*
X136927166Y-57419119D01*
X136896928Y-57388880D01*
X136866690Y-57328404D01*
X138910785Y-61948785D02*
X138941023Y-61918547D01*
X138971261Y-61827833D01*
X138971261Y-61767357D01*
X138941023Y-61676642D01*
X138880547Y-61616166D01*
X138820071Y-61585928D01*
X138699119Y-61555690D01*
X138608404Y-61555690D01*
X138487452Y-61585928D01*
X138426976Y-61616166D01*
X138366500Y-61676642D01*
X138336261Y-61767357D01*
X138336261Y-61827833D01*
X138366500Y-61918547D01*
X138396738Y-61948785D01*
X138336261Y-62160452D02*
X138336261Y-62553547D01*
X138578166Y-62341880D01*
X138578166Y-62432595D01*
X138608404Y-62493071D01*
X138638642Y-62523309D01*
X138699119Y-62553547D01*
X138850309Y-62553547D01*
X138910785Y-62523309D01*
X138941023Y-62493071D01*
X138971261Y-62432595D01*
X138971261Y-62251166D01*
X138941023Y-62190690D01*
X138910785Y-62160452D01*
X138336261Y-62946642D02*
X138336261Y-63007119D01*
X138366500Y-63067595D01*
X138396738Y-63097833D01*
X138457214Y-63128071D01*
X138578166Y-63158309D01*
X138729357Y-63158309D01*
X138850309Y-63128071D01*
X138910785Y-63097833D01*
X138941023Y-63067595D01*
X138971261Y-63007119D01*
X138971261Y-62946642D01*
X138941023Y-62886166D01*
X138910785Y-62855928D01*
X138850309Y-62825690D01*
X138729357Y-62795452D01*
X138578166Y-62795452D01*
X138457214Y-62825690D01*
X138396738Y-62855928D01*
X138366500Y-62886166D01*
X138336261Y-62946642D01*
X137441214Y-60297785D02*
X137471452Y-60328023D01*
X137562166Y-60358261D01*
X137622642Y-60358261D01*
X137713357Y-60328023D01*
X137773833Y-60267547D01*
X137804071Y-60207071D01*
X137834309Y-60086119D01*
X137834309Y-59995404D01*
X137804071Y-59874452D01*
X137773833Y-59813976D01*
X137713357Y-59753500D01*
X137622642Y-59723261D01*
X137562166Y-59723261D01*
X137471452Y-59753500D01*
X137441214Y-59783738D01*
X137229547Y-59723261D02*
X136836452Y-59723261D01*
X137048119Y-59965166D01*
X136957404Y-59965166D01*
X136896928Y-59995404D01*
X136866690Y-60025642D01*
X136836452Y-60086119D01*
X136836452Y-60237309D01*
X136866690Y-60297785D01*
X136896928Y-60328023D01*
X136957404Y-60358261D01*
X137138833Y-60358261D01*
X137199309Y-60328023D01*
X137229547Y-60297785D01*
X136231690Y-60358261D02*
X136594547Y-60358261D01*
X136413119Y-60358261D02*
X136413119Y-59723261D01*
X136473595Y-59813976D01*
X136534071Y-59874452D01*
X136594547Y-59904690D01*
X143029214Y-65123785D02*
X143059452Y-65154023D01*
X143150166Y-65184261D01*
X143210642Y-65184261D01*
X143301357Y-65154023D01*
X143361833Y-65093547D01*
X143392071Y-65033071D01*
X143422309Y-64912119D01*
X143422309Y-64821404D01*
X143392071Y-64700452D01*
X143361833Y-64639976D01*
X143301357Y-64579500D01*
X143210642Y-64549261D01*
X143150166Y-64549261D01*
X143059452Y-64579500D01*
X143029214Y-64609738D01*
X142817547Y-64549261D02*
X142424452Y-64549261D01*
X142636119Y-64791166D01*
X142545404Y-64791166D01*
X142484928Y-64821404D01*
X142454690Y-64851642D01*
X142424452Y-64912119D01*
X142424452Y-65063309D01*
X142454690Y-65123785D01*
X142484928Y-65154023D01*
X142545404Y-65184261D01*
X142726833Y-65184261D01*
X142787309Y-65154023D01*
X142817547Y-65123785D01*
X141880166Y-64760928D02*
X141880166Y-65184261D01*
X142031357Y-64519023D02*
X142182547Y-64972595D01*
X141789452Y-64972595D01*
D17*
X142729857Y-37610142D02*
X142766142Y-37646428D01*
X142875000Y-37682714D01*
X142947571Y-37682714D01*
X143056428Y-37646428D01*
X143129000Y-37573857D01*
X143165285Y-37501285D01*
X143201571Y-37356142D01*
X143201571Y-37247285D01*
X143165285Y-37102142D01*
X143129000Y-37029571D01*
X143056428Y-36957000D01*
X142947571Y-36920714D01*
X142875000Y-36920714D01*
X142766142Y-36957000D01*
X142729857Y-36993285D01*
X142475857Y-36920714D02*
X142004142Y-36920714D01*
X142258142Y-37211000D01*
X142149285Y-37211000D01*
X142076714Y-37247285D01*
X142040428Y-37283571D01*
X142004142Y-37356142D01*
X142004142Y-37537571D01*
X142040428Y-37610142D01*
X142076714Y-37646428D01*
X142149285Y-37682714D01*
X142367000Y-37682714D01*
X142439571Y-37646428D01*
X142475857Y-37610142D01*
X141314714Y-36920714D02*
X141677571Y-36920714D01*
X141713857Y-37283571D01*
X141677571Y-37247285D01*
X141605000Y-37211000D01*
X141423571Y-37211000D01*
X141351000Y-37247285D01*
X141314714Y-37283571D01*
X141278428Y-37356142D01*
X141278428Y-37537571D01*
X141314714Y-37610142D01*
X141351000Y-37646428D01*
X141423571Y-37682714D01*
X141605000Y-37682714D01*
X141677571Y-37646428D01*
X141713857Y-37610142D01*
X144888857Y-33419142D02*
X144925142Y-33455428D01*
X145034000Y-33491714D01*
X145106571Y-33491714D01*
X145215428Y-33455428D01*
X145288000Y-33382857D01*
X145324285Y-33310285D01*
X145360571Y-33165142D01*
X145360571Y-33056285D01*
X145324285Y-32911142D01*
X145288000Y-32838571D01*
X145215428Y-32766000D01*
X145106571Y-32729714D01*
X145034000Y-32729714D01*
X144925142Y-32766000D01*
X144888857Y-32802285D01*
X144235714Y-32983714D02*
X144235714Y-33491714D01*
X144417142Y-32693428D02*
X144598571Y-33237714D01*
X144126857Y-33237714D01*
X143510000Y-32983714D02*
X143510000Y-33491714D01*
X143691428Y-32693428D02*
X143872857Y-33237714D01*
X143401142Y-33237714D01*
D18*
X144244785Y-54709785D02*
X144275023Y-54679547D01*
X144305261Y-54588833D01*
X144305261Y-54528357D01*
X144275023Y-54437642D01*
X144214547Y-54377166D01*
X144154071Y-54346928D01*
X144033119Y-54316690D01*
X143942404Y-54316690D01*
X143821452Y-54346928D01*
X143760976Y-54377166D01*
X143700500Y-54437642D01*
X143670261Y-54528357D01*
X143670261Y-54588833D01*
X143700500Y-54679547D01*
X143730738Y-54709785D01*
X143881928Y-55254071D02*
X144305261Y-55254071D01*
X143640023Y-55102880D02*
X144093595Y-54951690D01*
X144093595Y-55344785D01*
X143670261Y-55858833D02*
X143670261Y-55737880D01*
X143700500Y-55677404D01*
X143730738Y-55647166D01*
X143821452Y-55586690D01*
X143942404Y-55556452D01*
X144184309Y-55556452D01*
X144244785Y-55586690D01*
X144275023Y-55616928D01*
X144305261Y-55677404D01*
X144305261Y-55798357D01*
X144275023Y-55858833D01*
X144244785Y-55889071D01*
X144184309Y-55919309D01*
X144033119Y-55919309D01*
X143972642Y-55889071D01*
X143942404Y-55858833D01*
X143912166Y-55798357D01*
X143912166Y-55677404D01*
X143942404Y-55616928D01*
X143972642Y-55586690D01*
X144033119Y-55556452D01*
D17*
X164446857Y-71646142D02*
X164483142Y-71682428D01*
X164592000Y-71718714D01*
X164664571Y-71718714D01*
X164773428Y-71682428D01*
X164846000Y-71609857D01*
X164882285Y-71537285D01*
X164918571Y-71392142D01*
X164918571Y-71283285D01*
X164882285Y-71138142D01*
X164846000Y-71065571D01*
X164773428Y-70993000D01*
X164664571Y-70956714D01*
X164592000Y-70956714D01*
X164483142Y-70993000D01*
X164446857Y-71029285D01*
X163793714Y-71210714D02*
X163793714Y-71718714D01*
X163975142Y-70920428D02*
X164156571Y-71464714D01*
X163684857Y-71464714D01*
X163285714Y-71283285D02*
X163358285Y-71247000D01*
X163394571Y-71210714D01*
X163430857Y-71138142D01*
X163430857Y-71101857D01*
X163394571Y-71029285D01*
X163358285Y-70993000D01*
X163285714Y-70956714D01*
X163140571Y-70956714D01*
X163068000Y-70993000D01*
X163031714Y-71029285D01*
X162995428Y-71101857D01*
X162995428Y-71138142D01*
X163031714Y-71210714D01*
X163068000Y-71247000D01*
X163140571Y-71283285D01*
X163285714Y-71283285D01*
X163358285Y-71319571D01*
X163394571Y-71355857D01*
X163430857Y-71428428D01*
X163430857Y-71573571D01*
X163394571Y-71646142D01*
X163358285Y-71682428D01*
X163285714Y-71718714D01*
X163140571Y-71718714D01*
X163068000Y-71682428D01*
X163031714Y-71646142D01*
X162995428Y-71573571D01*
X162995428Y-71428428D01*
X163031714Y-71355857D01*
X163068000Y-71319571D01*
X163140571Y-71283285D01*
D18*
X143664214Y-52677785D02*
X143694452Y-52708023D01*
X143785166Y-52738261D01*
X143845642Y-52738261D01*
X143936357Y-52708023D01*
X143996833Y-52647547D01*
X144027071Y-52587071D01*
X144057309Y-52466119D01*
X144057309Y-52375404D01*
X144027071Y-52254452D01*
X143996833Y-52193976D01*
X143936357Y-52133500D01*
X143845642Y-52103261D01*
X143785166Y-52103261D01*
X143694452Y-52133500D01*
X143664214Y-52163738D01*
X143089690Y-52103261D02*
X143392071Y-52103261D01*
X143422309Y-52405642D01*
X143392071Y-52375404D01*
X143331595Y-52345166D01*
X143180404Y-52345166D01*
X143119928Y-52375404D01*
X143089690Y-52405642D01*
X143059452Y-52466119D01*
X143059452Y-52617309D01*
X143089690Y-52677785D01*
X143119928Y-52708023D01*
X143180404Y-52738261D01*
X143331595Y-52738261D01*
X143392071Y-52708023D01*
X143422309Y-52677785D01*
X142666357Y-52103261D02*
X142605880Y-52103261D01*
X142545404Y-52133500D01*
X142515166Y-52163738D01*
X142484928Y-52224214D01*
X142454690Y-52345166D01*
X142454690Y-52496357D01*
X142484928Y-52617309D01*
X142515166Y-52677785D01*
X142545404Y-52708023D01*
X142605880Y-52738261D01*
X142666357Y-52738261D01*
X142726833Y-52708023D01*
X142757071Y-52677785D01*
X142787309Y-52617309D01*
X142817547Y-52496357D01*
X142817547Y-52345166D01*
X142787309Y-52224214D01*
X142757071Y-52163738D01*
X142726833Y-52133500D01*
X142666357Y-52103261D01*
D17*
X164446857Y-70376142D02*
X164483142Y-70412428D01*
X164592000Y-70448714D01*
X164664571Y-70448714D01*
X164773428Y-70412428D01*
X164846000Y-70339857D01*
X164882285Y-70267285D01*
X164918571Y-70122142D01*
X164918571Y-70013285D01*
X164882285Y-69868142D01*
X164846000Y-69795571D01*
X164773428Y-69723000D01*
X164664571Y-69686714D01*
X164592000Y-69686714D01*
X164483142Y-69723000D01*
X164446857Y-69759285D01*
X163757428Y-69686714D02*
X164120285Y-69686714D01*
X164156571Y-70049571D01*
X164120285Y-70013285D01*
X164047714Y-69977000D01*
X163866285Y-69977000D01*
X163793714Y-70013285D01*
X163757428Y-70049571D01*
X163721142Y-70122142D01*
X163721142Y-70303571D01*
X163757428Y-70376142D01*
X163793714Y-70412428D01*
X163866285Y-70448714D01*
X164047714Y-70448714D01*
X164120285Y-70412428D01*
X164156571Y-70376142D01*
X163285714Y-70013285D02*
X163358285Y-69977000D01*
X163394571Y-69940714D01*
X163430857Y-69868142D01*
X163430857Y-69831857D01*
X163394571Y-69759285D01*
X163358285Y-69723000D01*
X163285714Y-69686714D01*
X163140571Y-69686714D01*
X163068000Y-69723000D01*
X163031714Y-69759285D01*
X162995428Y-69831857D01*
X162995428Y-69868142D01*
X163031714Y-69940714D01*
X163068000Y-69977000D01*
X163140571Y-70013285D01*
X163285714Y-70013285D01*
X163358285Y-70049571D01*
X163394571Y-70085857D01*
X163430857Y-70158428D01*
X163430857Y-70303571D01*
X163394571Y-70376142D01*
X163358285Y-70412428D01*
X163285714Y-70448714D01*
X163140571Y-70448714D01*
X163068000Y-70412428D01*
X163031714Y-70376142D01*
X162995428Y-70303571D01*
X162995428Y-70158428D01*
X163031714Y-70085857D01*
X163068000Y-70049571D01*
X163140571Y-70013285D01*
X157334857Y-72789142D02*
X157371142Y-72825428D01*
X157480000Y-72861714D01*
X157552571Y-72861714D01*
X157661428Y-72825428D01*
X157734000Y-72752857D01*
X157770285Y-72680285D01*
X157806571Y-72535142D01*
X157806571Y-72426285D01*
X157770285Y-72281142D01*
X157734000Y-72208571D01*
X157661428Y-72136000D01*
X157552571Y-72099714D01*
X157480000Y-72099714D01*
X157371142Y-72136000D01*
X157334857Y-72172285D01*
X156681714Y-72099714D02*
X156826857Y-72099714D01*
X156899428Y-72136000D01*
X156935714Y-72172285D01*
X157008285Y-72281142D01*
X157044571Y-72426285D01*
X157044571Y-72716571D01*
X157008285Y-72789142D01*
X156972000Y-72825428D01*
X156899428Y-72861714D01*
X156754285Y-72861714D01*
X156681714Y-72825428D01*
X156645428Y-72789142D01*
X156609142Y-72716571D01*
X156609142Y-72535142D01*
X156645428Y-72462571D01*
X156681714Y-72426285D01*
X156754285Y-72390000D01*
X156899428Y-72390000D01*
X156972000Y-72426285D01*
X157008285Y-72462571D01*
X157044571Y-72535142D01*
X156355142Y-72099714D02*
X155883428Y-72099714D01*
X156137428Y-72390000D01*
X156028571Y-72390000D01*
X155956000Y-72426285D01*
X155919714Y-72462571D01*
X155883428Y-72535142D01*
X155883428Y-72716571D01*
X155919714Y-72789142D01*
X155956000Y-72825428D01*
X156028571Y-72861714D01*
X156246285Y-72861714D01*
X156318857Y-72825428D01*
X156355142Y-72789142D01*
D18*
X142775214Y-61313785D02*
X142805452Y-61344023D01*
X142896166Y-61374261D01*
X142956642Y-61374261D01*
X143047357Y-61344023D01*
X143107833Y-61283547D01*
X143138071Y-61223071D01*
X143168309Y-61102119D01*
X143168309Y-61011404D01*
X143138071Y-60890452D01*
X143107833Y-60829976D01*
X143047357Y-60769500D01*
X142956642Y-60739261D01*
X142896166Y-60739261D01*
X142805452Y-60769500D01*
X142775214Y-60799738D01*
X142563547Y-60739261D02*
X142140214Y-60739261D01*
X142412357Y-61374261D01*
X141958785Y-60739261D02*
X141565690Y-60739261D01*
X141777357Y-60981166D01*
X141686642Y-60981166D01*
X141626166Y-61011404D01*
X141595928Y-61041642D01*
X141565690Y-61102119D01*
X141565690Y-61253309D01*
X141595928Y-61313785D01*
X141626166Y-61344023D01*
X141686642Y-61374261D01*
X141868071Y-61374261D01*
X141928547Y-61344023D01*
X141958785Y-61313785D01*
X149252214Y-60297785D02*
X149282452Y-60328023D01*
X149373166Y-60358261D01*
X149433642Y-60358261D01*
X149524357Y-60328023D01*
X149584833Y-60267547D01*
X149615071Y-60207071D01*
X149645309Y-60086119D01*
X149645309Y-59995404D01*
X149615071Y-59874452D01*
X149584833Y-59813976D01*
X149524357Y-59753500D01*
X149433642Y-59723261D01*
X149373166Y-59723261D01*
X149282452Y-59753500D01*
X149252214Y-59783738D01*
X149040547Y-59723261D02*
X148617214Y-59723261D01*
X148889357Y-60358261D01*
X148345071Y-60358261D02*
X148224119Y-60358261D01*
X148163642Y-60328023D01*
X148133404Y-60297785D01*
X148072928Y-60207071D01*
X148042690Y-60086119D01*
X148042690Y-59844214D01*
X148072928Y-59783738D01*
X148103166Y-59753500D01*
X148163642Y-59723261D01*
X148284595Y-59723261D01*
X148345071Y-59753500D01*
X148375309Y-59783738D01*
X148405547Y-59844214D01*
X148405547Y-59995404D01*
X148375309Y-60055880D01*
X148345071Y-60086119D01*
X148284595Y-60116357D01*
X148163642Y-60116357D01*
X148103166Y-60086119D01*
X148072928Y-60055880D01*
X148042690Y-59995404D01*
D17*
X124732142Y-85108142D02*
X124768428Y-85071857D01*
X124804714Y-84963000D01*
X124804714Y-84890428D01*
X124768428Y-84781571D01*
X124695857Y-84709000D01*
X124623285Y-84672714D01*
X124478142Y-84636428D01*
X124369285Y-84636428D01*
X124224142Y-84672714D01*
X124151571Y-84709000D01*
X124079000Y-84781571D01*
X124042714Y-84890428D01*
X124042714Y-84963000D01*
X124079000Y-85071857D01*
X124115285Y-85108142D01*
X124369285Y-85543571D02*
X124333000Y-85471000D01*
X124296714Y-85434714D01*
X124224142Y-85398428D01*
X124187857Y-85398428D01*
X124115285Y-85434714D01*
X124079000Y-85471000D01*
X124042714Y-85543571D01*
X124042714Y-85688714D01*
X124079000Y-85761285D01*
X124115285Y-85797571D01*
X124187857Y-85833857D01*
X124224142Y-85833857D01*
X124296714Y-85797571D01*
X124333000Y-85761285D01*
X124369285Y-85688714D01*
X124369285Y-85543571D01*
X124405571Y-85471000D01*
X124441857Y-85434714D01*
X124514428Y-85398428D01*
X124659571Y-85398428D01*
X124732142Y-85434714D01*
X124768428Y-85471000D01*
X124804714Y-85543571D01*
X124804714Y-85688714D01*
X124768428Y-85761285D01*
X124732142Y-85797571D01*
X124659571Y-85833857D01*
X124514428Y-85833857D01*
X124441857Y-85797571D01*
X124405571Y-85761285D01*
X124369285Y-85688714D01*
X124115285Y-86124142D02*
X124079000Y-86160428D01*
X124042714Y-86233000D01*
X124042714Y-86414428D01*
X124079000Y-86487000D01*
X124115285Y-86523285D01*
X124187857Y-86559571D01*
X124260428Y-86559571D01*
X124369285Y-86523285D01*
X124804714Y-86087857D01*
X124804714Y-86559571D01*
X159874857Y-72535142D02*
X159911142Y-72571428D01*
X160020000Y-72607714D01*
X160092571Y-72607714D01*
X160201428Y-72571428D01*
X160274000Y-72498857D01*
X160310285Y-72426285D01*
X160346571Y-72281142D01*
X160346571Y-72172285D01*
X160310285Y-72027142D01*
X160274000Y-71954571D01*
X160201428Y-71882000D01*
X160092571Y-71845714D01*
X160020000Y-71845714D01*
X159911142Y-71882000D01*
X159874857Y-71918285D01*
X159512000Y-72607714D02*
X159366857Y-72607714D01*
X159294285Y-72571428D01*
X159258000Y-72535142D01*
X159185428Y-72426285D01*
X159149142Y-72281142D01*
X159149142Y-71990857D01*
X159185428Y-71918285D01*
X159221714Y-71882000D01*
X159294285Y-71845714D01*
X159439428Y-71845714D01*
X159512000Y-71882000D01*
X159548285Y-71918285D01*
X159584571Y-71990857D01*
X159584571Y-72172285D01*
X159548285Y-72244857D01*
X159512000Y-72281142D01*
X159439428Y-72317428D01*
X159294285Y-72317428D01*
X159221714Y-72281142D01*
X159185428Y-72244857D01*
X159149142Y-72172285D01*
X158895142Y-71845714D02*
X158387142Y-71845714D01*
X158713714Y-72607714D01*
X157879142Y-64806285D02*
X157915428Y-64770000D01*
X157951714Y-64661142D01*
X157951714Y-64588571D01*
X157915428Y-64479714D01*
X157842857Y-64407142D01*
X157770285Y-64370857D01*
X157625142Y-64334571D01*
X157516285Y-64334571D01*
X157371142Y-64370857D01*
X157298571Y-64407142D01*
X157226000Y-64479714D01*
X157189714Y-64588571D01*
X157189714Y-64661142D01*
X157226000Y-64770000D01*
X157262285Y-64806285D01*
X157951714Y-65532000D02*
X157951714Y-65096571D01*
X157951714Y-65314285D02*
X157189714Y-65314285D01*
X157298571Y-65241714D01*
X157371142Y-65169142D01*
X157407428Y-65096571D01*
X157189714Y-66003714D02*
X157189714Y-66076285D01*
X157226000Y-66148857D01*
X157262285Y-66185142D01*
X157334857Y-66221428D01*
X157480000Y-66257714D01*
X157661428Y-66257714D01*
X157806571Y-66221428D01*
X157879142Y-66185142D01*
X157915428Y-66148857D01*
X157951714Y-66076285D01*
X157951714Y-66003714D01*
X157915428Y-65931142D01*
X157879142Y-65894857D01*
X157806571Y-65858571D01*
X157661428Y-65822285D01*
X157480000Y-65822285D01*
X157334857Y-65858571D01*
X157262285Y-65894857D01*
X157226000Y-65931142D01*
X157189714Y-66003714D01*
X157443714Y-66910857D02*
X157951714Y-66910857D01*
X157153428Y-66729428D02*
X157697714Y-66548000D01*
X157697714Y-67019714D01*
D18*
X149427595Y-58138785D02*
X149457833Y-58169023D01*
X149548547Y-58199261D01*
X149609023Y-58199261D01*
X149699738Y-58169023D01*
X149760214Y-58108547D01*
X149790452Y-58048071D01*
X149820690Y-57927119D01*
X149820690Y-57836404D01*
X149790452Y-57715452D01*
X149760214Y-57654976D01*
X149699738Y-57594500D01*
X149609023Y-57564261D01*
X149548547Y-57564261D01*
X149457833Y-57594500D01*
X149427595Y-57624738D01*
X148822833Y-58199261D02*
X149185690Y-58199261D01*
X149004261Y-58199261D02*
X149004261Y-57564261D01*
X149064738Y-57654976D01*
X149125214Y-57715452D01*
X149185690Y-57745690D01*
X148429738Y-57564261D02*
X148369261Y-57564261D01*
X148308785Y-57594500D01*
X148278547Y-57624738D01*
X148248309Y-57685214D01*
X148218071Y-57806166D01*
X148218071Y-57957357D01*
X148248309Y-58078309D01*
X148278547Y-58138785D01*
X148308785Y-58169023D01*
X148369261Y-58199261D01*
X148429738Y-58199261D01*
X148490214Y-58169023D01*
X148520452Y-58138785D01*
X148550690Y-58078309D01*
X148580928Y-57957357D01*
X148580928Y-57806166D01*
X148550690Y-57685214D01*
X148520452Y-57624738D01*
X148490214Y-57594500D01*
X148429738Y-57564261D01*
X147915690Y-58199261D02*
X147794738Y-58199261D01*
X147734261Y-58169023D01*
X147704023Y-58138785D01*
X147643547Y-58048071D01*
X147613309Y-57927119D01*
X147613309Y-57685214D01*
X147643547Y-57624738D01*
X147673785Y-57594500D01*
X147734261Y-57564261D01*
X147855214Y-57564261D01*
X147915690Y-57594500D01*
X147945928Y-57624738D01*
X147976166Y-57685214D01*
X147976166Y-57836404D01*
X147945928Y-57896880D01*
X147915690Y-57927119D01*
X147855214Y-57957357D01*
X147734261Y-57957357D01*
X147673785Y-57927119D01*
X147643547Y-57896880D01*
X147613309Y-57836404D01*
X147419785Y-66726404D02*
X147450023Y-66696166D01*
X147480261Y-66605452D01*
X147480261Y-66544976D01*
X147450023Y-66454261D01*
X147389547Y-66393785D01*
X147329071Y-66363547D01*
X147208119Y-66333309D01*
X147117404Y-66333309D01*
X146996452Y-66363547D01*
X146935976Y-66393785D01*
X146875500Y-66454261D01*
X146845261Y-66544976D01*
X146845261Y-66605452D01*
X146875500Y-66696166D01*
X146905738Y-66726404D01*
X147480261Y-67331166D02*
X147480261Y-66968309D01*
X147480261Y-67149738D02*
X146845261Y-67149738D01*
X146935976Y-67089261D01*
X146996452Y-67028785D01*
X147026690Y-66968309D01*
X147480261Y-67935928D02*
X147480261Y-67573071D01*
X147480261Y-67754500D02*
X146845261Y-67754500D01*
X146935976Y-67694023D01*
X146996452Y-67633547D01*
X147026690Y-67573071D01*
X146845261Y-68329023D02*
X146845261Y-68389500D01*
X146875500Y-68449976D01*
X146905738Y-68480214D01*
X146966214Y-68510452D01*
X147087166Y-68540690D01*
X147238357Y-68540690D01*
X147359309Y-68510452D01*
X147419785Y-68480214D01*
X147450023Y-68449976D01*
X147480261Y-68389500D01*
X147480261Y-68329023D01*
X147450023Y-68268547D01*
X147419785Y-68238309D01*
X147359309Y-68208071D01*
X147238357Y-68177833D01*
X147087166Y-68177833D01*
X146966214Y-68208071D01*
X146905738Y-68238309D01*
X146875500Y-68268547D01*
X146845261Y-68329023D01*
D17*
X159149142Y-64806285D02*
X159185428Y-64770000D01*
X159221714Y-64661142D01*
X159221714Y-64588571D01*
X159185428Y-64479714D01*
X159112857Y-64407142D01*
X159040285Y-64370857D01*
X158895142Y-64334571D01*
X158786285Y-64334571D01*
X158641142Y-64370857D01*
X158568571Y-64407142D01*
X158496000Y-64479714D01*
X158459714Y-64588571D01*
X158459714Y-64661142D01*
X158496000Y-64770000D01*
X158532285Y-64806285D01*
X159221714Y-65532000D02*
X159221714Y-65096571D01*
X159221714Y-65314285D02*
X158459714Y-65314285D01*
X158568571Y-65241714D01*
X158641142Y-65169142D01*
X158677428Y-65096571D01*
X159221714Y-66257714D02*
X159221714Y-65822285D01*
X159221714Y-66040000D02*
X158459714Y-66040000D01*
X158568571Y-65967428D01*
X158641142Y-65894857D01*
X158677428Y-65822285D01*
X159221714Y-66983428D02*
X159221714Y-66548000D01*
X159221714Y-66765714D02*
X158459714Y-66765714D01*
X158568571Y-66693142D01*
X158641142Y-66620571D01*
X158677428Y-66548000D01*
D18*
X148816785Y-64567404D02*
X148847023Y-64537166D01*
X148877261Y-64446452D01*
X148877261Y-64385976D01*
X148847023Y-64295261D01*
X148786547Y-64234785D01*
X148726071Y-64204547D01*
X148605119Y-64174309D01*
X148514404Y-64174309D01*
X148393452Y-64204547D01*
X148332976Y-64234785D01*
X148272500Y-64295261D01*
X148242261Y-64385976D01*
X148242261Y-64446452D01*
X148272500Y-64537166D01*
X148302738Y-64567404D01*
X148877261Y-65172166D02*
X148877261Y-64809309D01*
X148877261Y-64990738D02*
X148242261Y-64990738D01*
X148332976Y-64930261D01*
X148393452Y-64869785D01*
X148423690Y-64809309D01*
X148877261Y-65776928D02*
X148877261Y-65414071D01*
X148877261Y-65595500D02*
X148242261Y-65595500D01*
X148332976Y-65535023D01*
X148393452Y-65474547D01*
X148423690Y-65414071D01*
X148453928Y-66321214D02*
X148877261Y-66321214D01*
X148212023Y-66170023D02*
X148665595Y-66018833D01*
X148665595Y-66411928D01*
X142696595Y-63853785D02*
X142726833Y-63884023D01*
X142817547Y-63914261D01*
X142878023Y-63914261D01*
X142968738Y-63884023D01*
X143029214Y-63823547D01*
X143059452Y-63763071D01*
X143089690Y-63642119D01*
X143089690Y-63551404D01*
X143059452Y-63430452D01*
X143029214Y-63369976D01*
X142968738Y-63309500D01*
X142878023Y-63279261D01*
X142817547Y-63279261D01*
X142726833Y-63309500D01*
X142696595Y-63339738D01*
X142091833Y-63914261D02*
X142454690Y-63914261D01*
X142273261Y-63914261D02*
X142273261Y-63279261D01*
X142333738Y-63369976D01*
X142394214Y-63430452D01*
X142454690Y-63460690D01*
X141487071Y-63914261D02*
X141849928Y-63914261D01*
X141668500Y-63914261D02*
X141668500Y-63279261D01*
X141728976Y-63369976D01*
X141789452Y-63430452D01*
X141849928Y-63460690D01*
X140912547Y-63279261D02*
X141214928Y-63279261D01*
X141245166Y-63581642D01*
X141214928Y-63551404D01*
X141154452Y-63521166D01*
X141003261Y-63521166D01*
X140942785Y-63551404D01*
X140912547Y-63581642D01*
X140882309Y-63642119D01*
X140882309Y-63793309D01*
X140912547Y-63853785D01*
X140942785Y-63884023D01*
X141003261Y-63914261D01*
X141154452Y-63914261D01*
X141214928Y-63884023D01*
X141245166Y-63853785D01*
X145387785Y-55804404D02*
X145418023Y-55774166D01*
X145448261Y-55683452D01*
X145448261Y-55622976D01*
X145418023Y-55532261D01*
X145357547Y-55471785D01*
X145297071Y-55441547D01*
X145176119Y-55411309D01*
X145085404Y-55411309D01*
X144964452Y-55441547D01*
X144903976Y-55471785D01*
X144843500Y-55532261D01*
X144813261Y-55622976D01*
X144813261Y-55683452D01*
X144843500Y-55774166D01*
X144873738Y-55804404D01*
X145448261Y-56409166D02*
X145448261Y-56046309D01*
X145448261Y-56227738D02*
X144813261Y-56227738D01*
X144903976Y-56167261D01*
X144964452Y-56106785D01*
X144994690Y-56046309D01*
X145448261Y-57013928D02*
X145448261Y-56651071D01*
X145448261Y-56832500D02*
X144813261Y-56832500D01*
X144903976Y-56772023D01*
X144964452Y-56711547D01*
X144994690Y-56651071D01*
X144813261Y-57225595D02*
X144813261Y-57648928D01*
X145448261Y-57376785D01*
X136497785Y-61773404D02*
X136528023Y-61743166D01*
X136558261Y-61652452D01*
X136558261Y-61591976D01*
X136528023Y-61501261D01*
X136467547Y-61440785D01*
X136407071Y-61410547D01*
X136286119Y-61380309D01*
X136195404Y-61380309D01*
X136074452Y-61410547D01*
X136013976Y-61440785D01*
X135953500Y-61501261D01*
X135923261Y-61591976D01*
X135923261Y-61652452D01*
X135953500Y-61743166D01*
X135983738Y-61773404D01*
X136558261Y-62378166D02*
X136558261Y-62015309D01*
X136558261Y-62196738D02*
X135923261Y-62196738D01*
X136013976Y-62136261D01*
X136074452Y-62075785D01*
X136104690Y-62015309D01*
X135983738Y-62620071D02*
X135953500Y-62650309D01*
X135923261Y-62710785D01*
X135923261Y-62861976D01*
X135953500Y-62922452D01*
X135983738Y-62952690D01*
X136044214Y-62982928D01*
X136104690Y-62982928D01*
X136195404Y-62952690D01*
X136558261Y-62589833D01*
X136558261Y-62982928D01*
X135923261Y-63194595D02*
X135923261Y-63617928D01*
X136558261Y-63345785D01*
X134568595Y-68806785D02*
X134598833Y-68837023D01*
X134689547Y-68867261D01*
X134750023Y-68867261D01*
X134840738Y-68837023D01*
X134901214Y-68776547D01*
X134931452Y-68716071D01*
X134961690Y-68595119D01*
X134961690Y-68504404D01*
X134931452Y-68383452D01*
X134901214Y-68322976D01*
X134840738Y-68262500D01*
X134750023Y-68232261D01*
X134689547Y-68232261D01*
X134598833Y-68262500D01*
X134568595Y-68292738D01*
X133963833Y-68867261D02*
X134326690Y-68867261D01*
X134145261Y-68867261D02*
X134145261Y-68232261D01*
X134205738Y-68322976D01*
X134266214Y-68383452D01*
X134326690Y-68413690D01*
X133752166Y-68232261D02*
X133359071Y-68232261D01*
X133570738Y-68474166D01*
X133480023Y-68474166D01*
X133419547Y-68504404D01*
X133389309Y-68534642D01*
X133359071Y-68595119D01*
X133359071Y-68746309D01*
X133389309Y-68806785D01*
X133419547Y-68837023D01*
X133480023Y-68867261D01*
X133661452Y-68867261D01*
X133721928Y-68837023D01*
X133752166Y-68806785D01*
X132965976Y-68232261D02*
X132905500Y-68232261D01*
X132845023Y-68262500D01*
X132814785Y-68292738D01*
X132784547Y-68353214D01*
X132754309Y-68474166D01*
X132754309Y-68625357D01*
X132784547Y-68746309D01*
X132814785Y-68806785D01*
X132845023Y-68837023D01*
X132905500Y-68867261D01*
X132965976Y-68867261D01*
X133026452Y-68837023D01*
X133056690Y-68806785D01*
X133086928Y-68746309D01*
X133117166Y-68625357D01*
X133117166Y-68474166D01*
X133086928Y-68353214D01*
X133056690Y-68292738D01*
X133026452Y-68262500D01*
X132965976Y-68232261D01*
X134568595Y-67536785D02*
X134598833Y-67567023D01*
X134689547Y-67597261D01*
X134750023Y-67597261D01*
X134840738Y-67567023D01*
X134901214Y-67506547D01*
X134931452Y-67446071D01*
X134961690Y-67325119D01*
X134961690Y-67234404D01*
X134931452Y-67113452D01*
X134901214Y-67052976D01*
X134840738Y-66992500D01*
X134750023Y-66962261D01*
X134689547Y-66962261D01*
X134598833Y-66992500D01*
X134568595Y-67022738D01*
X133963833Y-67597261D02*
X134326690Y-67597261D01*
X134145261Y-67597261D02*
X134145261Y-66962261D01*
X134205738Y-67052976D01*
X134266214Y-67113452D01*
X134326690Y-67143690D01*
X133752166Y-66962261D02*
X133359071Y-66962261D01*
X133570738Y-67204166D01*
X133480023Y-67204166D01*
X133419547Y-67234404D01*
X133389309Y-67264642D01*
X133359071Y-67325119D01*
X133359071Y-67476309D01*
X133389309Y-67536785D01*
X133419547Y-67567023D01*
X133480023Y-67597261D01*
X133661452Y-67597261D01*
X133721928Y-67567023D01*
X133752166Y-67536785D01*
X133117166Y-67022738D02*
X133086928Y-66992500D01*
X133026452Y-66962261D01*
X132875261Y-66962261D01*
X132814785Y-66992500D01*
X132784547Y-67022738D01*
X132754309Y-67083214D01*
X132754309Y-67143690D01*
X132784547Y-67234404D01*
X133147404Y-67597261D01*
X132754309Y-67597261D01*
X134568595Y-66266785D02*
X134598833Y-66297023D01*
X134689547Y-66327261D01*
X134750023Y-66327261D01*
X134840738Y-66297023D01*
X134901214Y-66236547D01*
X134931452Y-66176071D01*
X134961690Y-66055119D01*
X134961690Y-65964404D01*
X134931452Y-65843452D01*
X134901214Y-65782976D01*
X134840738Y-65722500D01*
X134750023Y-65692261D01*
X134689547Y-65692261D01*
X134598833Y-65722500D01*
X134568595Y-65752738D01*
X133963833Y-66327261D02*
X134326690Y-66327261D01*
X134145261Y-66327261D02*
X134145261Y-65692261D01*
X134205738Y-65782976D01*
X134266214Y-65843452D01*
X134326690Y-65873690D01*
X133752166Y-65692261D02*
X133359071Y-65692261D01*
X133570738Y-65934166D01*
X133480023Y-65934166D01*
X133419547Y-65964404D01*
X133389309Y-65994642D01*
X133359071Y-66055119D01*
X133359071Y-66206309D01*
X133389309Y-66266785D01*
X133419547Y-66297023D01*
X133480023Y-66327261D01*
X133661452Y-66327261D01*
X133721928Y-66297023D01*
X133752166Y-66266785D01*
X132814785Y-65903928D02*
X132814785Y-66327261D01*
X132965976Y-65662023D02*
X133117166Y-66115595D01*
X132724071Y-66115595D01*
X142847785Y-55931404D02*
X142878023Y-55901166D01*
X142908261Y-55810452D01*
X142908261Y-55749976D01*
X142878023Y-55659261D01*
X142817547Y-55598785D01*
X142757071Y-55568547D01*
X142636119Y-55538309D01*
X142545404Y-55538309D01*
X142424452Y-55568547D01*
X142363976Y-55598785D01*
X142303500Y-55659261D01*
X142273261Y-55749976D01*
X142273261Y-55810452D01*
X142303500Y-55901166D01*
X142333738Y-55931404D01*
X142908261Y-56536166D02*
X142908261Y-56173309D01*
X142908261Y-56354738D02*
X142273261Y-56354738D01*
X142363976Y-56294261D01*
X142424452Y-56233785D01*
X142454690Y-56173309D01*
X142273261Y-57110690D02*
X142273261Y-56808309D01*
X142575642Y-56778071D01*
X142545404Y-56808309D01*
X142515166Y-56868785D01*
X142515166Y-57019976D01*
X142545404Y-57080452D01*
X142575642Y-57110690D01*
X142636119Y-57140928D01*
X142787309Y-57140928D01*
X142847785Y-57110690D01*
X142878023Y-57080452D01*
X142908261Y-57019976D01*
X142908261Y-56868785D01*
X142878023Y-56808309D01*
X142847785Y-56778071D01*
X142273261Y-57715452D02*
X142273261Y-57413071D01*
X142575642Y-57382833D01*
X142545404Y-57413071D01*
X142515166Y-57473547D01*
X142515166Y-57624738D01*
X142545404Y-57685214D01*
X142575642Y-57715452D01*
X142636119Y-57745690D01*
X142787309Y-57745690D01*
X142847785Y-57715452D01*
X142878023Y-57685214D01*
X142908261Y-57624738D01*
X142908261Y-57473547D01*
X142878023Y-57413071D01*
X142847785Y-57382833D01*
D17*
X187161714Y-78758142D02*
X187198000Y-78794428D01*
X187306857Y-78830714D01*
X187379428Y-78830714D01*
X187488285Y-78794428D01*
X187560857Y-78721857D01*
X187597142Y-78649285D01*
X187633428Y-78504142D01*
X187633428Y-78395285D01*
X187597142Y-78250142D01*
X187560857Y-78177571D01*
X187488285Y-78105000D01*
X187379428Y-78068714D01*
X187306857Y-78068714D01*
X187198000Y-78105000D01*
X187161714Y-78141285D01*
X186436000Y-78830714D02*
X186871428Y-78830714D01*
X186653714Y-78830714D02*
X186653714Y-78068714D01*
X186726285Y-78177571D01*
X186798857Y-78250142D01*
X186871428Y-78286428D01*
X185746571Y-78068714D02*
X186109428Y-78068714D01*
X186145714Y-78431571D01*
X186109428Y-78395285D01*
X186036857Y-78359000D01*
X185855428Y-78359000D01*
X185782857Y-78395285D01*
X185746571Y-78431571D01*
X185710285Y-78504142D01*
X185710285Y-78685571D01*
X185746571Y-78758142D01*
X185782857Y-78794428D01*
X185855428Y-78830714D01*
X186036857Y-78830714D01*
X186109428Y-78794428D01*
X186145714Y-78758142D01*
X185057142Y-78068714D02*
X185202285Y-78068714D01*
X185274857Y-78105000D01*
X185311142Y-78141285D01*
X185383714Y-78250142D01*
X185420000Y-78395285D01*
X185420000Y-78685571D01*
X185383714Y-78758142D01*
X185347428Y-78794428D01*
X185274857Y-78830714D01*
X185129714Y-78830714D01*
X185057142Y-78794428D01*
X185020857Y-78758142D01*
X184984571Y-78685571D01*
X184984571Y-78504142D01*
X185020857Y-78431571D01*
X185057142Y-78395285D01*
X185129714Y-78359000D01*
X185274857Y-78359000D01*
X185347428Y-78395285D01*
X185383714Y-78431571D01*
X185420000Y-78504142D01*
D18*
X142188595Y-62837785D02*
X142218833Y-62868023D01*
X142309547Y-62898261D01*
X142370023Y-62898261D01*
X142460738Y-62868023D01*
X142521214Y-62807547D01*
X142551452Y-62747071D01*
X142581690Y-62626119D01*
X142581690Y-62535404D01*
X142551452Y-62414452D01*
X142521214Y-62353976D01*
X142460738Y-62293500D01*
X142370023Y-62263261D01*
X142309547Y-62263261D01*
X142218833Y-62293500D01*
X142188595Y-62323738D01*
X141583833Y-62898261D02*
X141946690Y-62898261D01*
X141765261Y-62898261D02*
X141765261Y-62263261D01*
X141825738Y-62353976D01*
X141886214Y-62414452D01*
X141946690Y-62444690D01*
X141009309Y-62263261D02*
X141311690Y-62263261D01*
X141341928Y-62565642D01*
X141311690Y-62535404D01*
X141251214Y-62505166D01*
X141100023Y-62505166D01*
X141039547Y-62535404D01*
X141009309Y-62565642D01*
X140979071Y-62626119D01*
X140979071Y-62777309D01*
X141009309Y-62837785D01*
X141039547Y-62868023D01*
X141100023Y-62898261D01*
X141251214Y-62898261D01*
X141311690Y-62868023D01*
X141341928Y-62837785D01*
X140616214Y-62535404D02*
X140676690Y-62505166D01*
X140706928Y-62474928D01*
X140737166Y-62414452D01*
X140737166Y-62384214D01*
X140706928Y-62323738D01*
X140676690Y-62293500D01*
X140616214Y-62263261D01*
X140495261Y-62263261D01*
X140434785Y-62293500D01*
X140404547Y-62323738D01*
X140374309Y-62384214D01*
X140374309Y-62414452D01*
X140404547Y-62474928D01*
X140434785Y-62505166D01*
X140495261Y-62535404D01*
X140616214Y-62535404D01*
X140676690Y-62565642D01*
X140706928Y-62595880D01*
X140737166Y-62656357D01*
X140737166Y-62777309D01*
X140706928Y-62837785D01*
X140676690Y-62868023D01*
X140616214Y-62898261D01*
X140495261Y-62898261D01*
X140434785Y-62868023D01*
X140404547Y-62837785D01*
X140374309Y-62777309D01*
X140374309Y-62656357D01*
X140404547Y-62595880D01*
X140434785Y-62565642D01*
X140495261Y-62535404D01*
X146887595Y-60424785D02*
X146917833Y-60455023D01*
X147008547Y-60485261D01*
X147069023Y-60485261D01*
X147159738Y-60455023D01*
X147220214Y-60394547D01*
X147250452Y-60334071D01*
X147280690Y-60213119D01*
X147280690Y-60122404D01*
X147250452Y-60001452D01*
X147220214Y-59940976D01*
X147159738Y-59880500D01*
X147069023Y-59850261D01*
X147008547Y-59850261D01*
X146917833Y-59880500D01*
X146887595Y-59910738D01*
X146282833Y-60485261D02*
X146645690Y-60485261D01*
X146464261Y-60485261D02*
X146464261Y-59850261D01*
X146524738Y-59940976D01*
X146585214Y-60001452D01*
X146645690Y-60031690D01*
X145919976Y-60122404D02*
X145980452Y-60092166D01*
X146010690Y-60061928D01*
X146040928Y-60001452D01*
X146040928Y-59971214D01*
X146010690Y-59910738D01*
X145980452Y-59880500D01*
X145919976Y-59850261D01*
X145799023Y-59850261D01*
X145738547Y-59880500D01*
X145708309Y-59910738D01*
X145678071Y-59971214D01*
X145678071Y-60001452D01*
X145708309Y-60061928D01*
X145738547Y-60092166D01*
X145799023Y-60122404D01*
X145919976Y-60122404D01*
X145980452Y-60152642D01*
X146010690Y-60182880D01*
X146040928Y-60243357D01*
X146040928Y-60364309D01*
X146010690Y-60424785D01*
X145980452Y-60455023D01*
X145919976Y-60485261D01*
X145799023Y-60485261D01*
X145738547Y-60455023D01*
X145708309Y-60424785D01*
X145678071Y-60364309D01*
X145678071Y-60243357D01*
X145708309Y-60182880D01*
X145738547Y-60152642D01*
X145799023Y-60122404D01*
X145133785Y-59850261D02*
X145254738Y-59850261D01*
X145315214Y-59880500D01*
X145345452Y-59910738D01*
X145405928Y-60001452D01*
X145436166Y-60122404D01*
X145436166Y-60364309D01*
X145405928Y-60424785D01*
X145375690Y-60455023D01*
X145315214Y-60485261D01*
X145194261Y-60485261D01*
X145133785Y-60455023D01*
X145103547Y-60424785D01*
X145073309Y-60364309D01*
X145073309Y-60213119D01*
X145103547Y-60152642D01*
X145133785Y-60122404D01*
X145194261Y-60092166D01*
X145315214Y-60092166D01*
X145375690Y-60122404D01*
X145405928Y-60152642D01*
X145436166Y-60213119D01*
X150062595Y-56868785D02*
X150092833Y-56899023D01*
X150183547Y-56929261D01*
X150244023Y-56929261D01*
X150334738Y-56899023D01*
X150395214Y-56838547D01*
X150425452Y-56778071D01*
X150455690Y-56657119D01*
X150455690Y-56566404D01*
X150425452Y-56445452D01*
X150395214Y-56384976D01*
X150334738Y-56324500D01*
X150244023Y-56294261D01*
X150183547Y-56294261D01*
X150092833Y-56324500D01*
X150062595Y-56354738D01*
X149457833Y-56929261D02*
X149820690Y-56929261D01*
X149639261Y-56929261D02*
X149639261Y-56294261D01*
X149699738Y-56384976D01*
X149760214Y-56445452D01*
X149820690Y-56475690D01*
X149094976Y-56566404D02*
X149155452Y-56536166D01*
X149185690Y-56505928D01*
X149215928Y-56445452D01*
X149215928Y-56415214D01*
X149185690Y-56354738D01*
X149155452Y-56324500D01*
X149094976Y-56294261D01*
X148974023Y-56294261D01*
X148913547Y-56324500D01*
X148883309Y-56354738D01*
X148853071Y-56415214D01*
X148853071Y-56445452D01*
X148883309Y-56505928D01*
X148913547Y-56536166D01*
X148974023Y-56566404D01*
X149094976Y-56566404D01*
X149155452Y-56596642D01*
X149185690Y-56626880D01*
X149215928Y-56687357D01*
X149215928Y-56808309D01*
X149185690Y-56868785D01*
X149155452Y-56899023D01*
X149094976Y-56929261D01*
X148974023Y-56929261D01*
X148913547Y-56899023D01*
X148883309Y-56868785D01*
X148853071Y-56808309D01*
X148853071Y-56687357D01*
X148883309Y-56626880D01*
X148913547Y-56596642D01*
X148974023Y-56566404D01*
X148550690Y-56929261D02*
X148429738Y-56929261D01*
X148369261Y-56899023D01*
X148339023Y-56868785D01*
X148278547Y-56778071D01*
X148248309Y-56657119D01*
X148248309Y-56415214D01*
X148278547Y-56354738D01*
X148308785Y-56324500D01*
X148369261Y-56294261D01*
X148490214Y-56294261D01*
X148550690Y-56324500D01*
X148580928Y-56354738D01*
X148611166Y-56415214D01*
X148611166Y-56566404D01*
X148580928Y-56626880D01*
X148550690Y-56657119D01*
X148490214Y-56687357D01*
X148369261Y-56687357D01*
X148308785Y-56657119D01*
X148278547Y-56626880D01*
X148248309Y-56566404D01*
X145895785Y-63551404D02*
X145926023Y-63521166D01*
X145956261Y-63430452D01*
X145956261Y-63369976D01*
X145926023Y-63279261D01*
X145865547Y-63218785D01*
X145805071Y-63188547D01*
X145684119Y-63158309D01*
X145593404Y-63158309D01*
X145472452Y-63188547D01*
X145411976Y-63218785D01*
X145351500Y-63279261D01*
X145321261Y-63369976D01*
X145321261Y-63430452D01*
X145351500Y-63521166D01*
X145381738Y-63551404D01*
X145956261Y-64156166D02*
X145956261Y-63793309D01*
X145956261Y-63974738D02*
X145321261Y-63974738D01*
X145411976Y-63914261D01*
X145472452Y-63853785D01*
X145502690Y-63793309D01*
X145956261Y-64458547D02*
X145956261Y-64579500D01*
X145926023Y-64639976D01*
X145895785Y-64670214D01*
X145805071Y-64730690D01*
X145684119Y-64760928D01*
X145442214Y-64760928D01*
X145381738Y-64730690D01*
X145351500Y-64700452D01*
X145321261Y-64639976D01*
X145321261Y-64519023D01*
X145351500Y-64458547D01*
X145381738Y-64428309D01*
X145442214Y-64398071D01*
X145593404Y-64398071D01*
X145653880Y-64428309D01*
X145684119Y-64458547D01*
X145714357Y-64519023D01*
X145714357Y-64639976D01*
X145684119Y-64700452D01*
X145653880Y-64730690D01*
X145593404Y-64760928D01*
X145956261Y-65365690D02*
X145956261Y-65002833D01*
X145956261Y-65184261D02*
X145321261Y-65184261D01*
X145411976Y-65123785D01*
X145472452Y-65063309D01*
X145502690Y-65002833D01*
X150086785Y-63424404D02*
X150117023Y-63394166D01*
X150147261Y-63303452D01*
X150147261Y-63242976D01*
X150117023Y-63152261D01*
X150056547Y-63091785D01*
X149996071Y-63061547D01*
X149875119Y-63031309D01*
X149784404Y-63031309D01*
X149663452Y-63061547D01*
X149602976Y-63091785D01*
X149542500Y-63152261D01*
X149512261Y-63242976D01*
X149512261Y-63303452D01*
X149542500Y-63394166D01*
X149572738Y-63424404D01*
X150147261Y-64029166D02*
X150147261Y-63666309D01*
X150147261Y-63847738D02*
X149512261Y-63847738D01*
X149602976Y-63787261D01*
X149663452Y-63726785D01*
X149693690Y-63666309D01*
X150147261Y-64331547D02*
X150147261Y-64452500D01*
X150117023Y-64512976D01*
X150086785Y-64543214D01*
X149996071Y-64603690D01*
X149875119Y-64633928D01*
X149633214Y-64633928D01*
X149572738Y-64603690D01*
X149542500Y-64573452D01*
X149512261Y-64512976D01*
X149512261Y-64392023D01*
X149542500Y-64331547D01*
X149572738Y-64301309D01*
X149633214Y-64271071D01*
X149784404Y-64271071D01*
X149844880Y-64301309D01*
X149875119Y-64331547D01*
X149905357Y-64392023D01*
X149905357Y-64512976D01*
X149875119Y-64573452D01*
X149844880Y-64603690D01*
X149784404Y-64633928D01*
X149512261Y-65208452D02*
X149512261Y-64906071D01*
X149814642Y-64875833D01*
X149784404Y-64906071D01*
X149754166Y-64966547D01*
X149754166Y-65117738D01*
X149784404Y-65178214D01*
X149814642Y-65208452D01*
X149875119Y-65238690D01*
X150026309Y-65238690D01*
X150086785Y-65208452D01*
X150117023Y-65178214D01*
X150147261Y-65117738D01*
X150147261Y-64966547D01*
X150117023Y-64906071D01*
X150086785Y-64875833D01*
X143966595Y-59662785D02*
X143996833Y-59693023D01*
X144087547Y-59723261D01*
X144148023Y-59723261D01*
X144238738Y-59693023D01*
X144299214Y-59632547D01*
X144329452Y-59572071D01*
X144359690Y-59451119D01*
X144359690Y-59360404D01*
X144329452Y-59239452D01*
X144299214Y-59178976D01*
X144238738Y-59118500D01*
X144148023Y-59088261D01*
X144087547Y-59088261D01*
X143996833Y-59118500D01*
X143966595Y-59148738D01*
X143361833Y-59723261D02*
X143724690Y-59723261D01*
X143543261Y-59723261D02*
X143543261Y-59088261D01*
X143603738Y-59178976D01*
X143664214Y-59239452D01*
X143724690Y-59269690D01*
X143059452Y-59723261D02*
X142938500Y-59723261D01*
X142878023Y-59693023D01*
X142847785Y-59662785D01*
X142787309Y-59572071D01*
X142757071Y-59451119D01*
X142757071Y-59209214D01*
X142787309Y-59148738D01*
X142817547Y-59118500D01*
X142878023Y-59088261D01*
X142998976Y-59088261D01*
X143059452Y-59118500D01*
X143089690Y-59148738D01*
X143119928Y-59209214D01*
X143119928Y-59360404D01*
X143089690Y-59420880D01*
X143059452Y-59451119D01*
X142998976Y-59481357D01*
X142878023Y-59481357D01*
X142817547Y-59451119D01*
X142787309Y-59420880D01*
X142757071Y-59360404D01*
X142545404Y-59088261D02*
X142122071Y-59088261D01*
X142394214Y-59723261D01*
D17*
X125222000Y-48223714D02*
X125476000Y-47860857D01*
X125657428Y-48223714D02*
X125657428Y-47461714D01*
X125367142Y-47461714D01*
X125294571Y-47498000D01*
X125258285Y-47534285D01*
X125222000Y-47606857D01*
X125222000Y-47715714D01*
X125258285Y-47788285D01*
X125294571Y-47824571D01*
X125367142Y-47860857D01*
X125657428Y-47860857D01*
X124931714Y-47534285D02*
X124895428Y-47498000D01*
X124822857Y-47461714D01*
X124641428Y-47461714D01*
X124568857Y-47498000D01*
X124532571Y-47534285D01*
X124496285Y-47606857D01*
X124496285Y-47679428D01*
X124532571Y-47788285D01*
X124968000Y-48223714D01*
X124496285Y-48223714D01*
D18*
X134780261Y-56028166D02*
X134477880Y-55816500D01*
X134780261Y-55665309D02*
X134145261Y-55665309D01*
X134145261Y-55907214D01*
X134175500Y-55967690D01*
X134205738Y-55997928D01*
X134266214Y-56028166D01*
X134356928Y-56028166D01*
X134417404Y-55997928D01*
X134447642Y-55967690D01*
X134477880Y-55907214D01*
X134477880Y-55665309D01*
X134145261Y-56239833D02*
X134145261Y-56632928D01*
X134387166Y-56421261D01*
X134387166Y-56511976D01*
X134417404Y-56572452D01*
X134447642Y-56602690D01*
X134508119Y-56632928D01*
X134659309Y-56632928D01*
X134719785Y-56602690D01*
X134750023Y-56572452D01*
X134780261Y-56511976D01*
X134780261Y-56330547D01*
X134750023Y-56270071D01*
X134719785Y-56239833D01*
X133637261Y-56028166D02*
X133334880Y-55816500D01*
X133637261Y-55665309D02*
X133002261Y-55665309D01*
X133002261Y-55907214D01*
X133032500Y-55967690D01*
X133062738Y-55997928D01*
X133123214Y-56028166D01*
X133213928Y-56028166D01*
X133274404Y-55997928D01*
X133304642Y-55967690D01*
X133334880Y-55907214D01*
X133334880Y-55665309D01*
X133213928Y-56572452D02*
X133637261Y-56572452D01*
X132972023Y-56421261D02*
X133425595Y-56270071D01*
X133425595Y-56663166D01*
D17*
X157062714Y-76472142D02*
X156699857Y-76218142D01*
X157062714Y-76036714D02*
X156300714Y-76036714D01*
X156300714Y-76327000D01*
X156337000Y-76399571D01*
X156373285Y-76435857D01*
X156445857Y-76472142D01*
X156554714Y-76472142D01*
X156627285Y-76435857D01*
X156663571Y-76399571D01*
X156699857Y-76327000D01*
X156699857Y-76036714D01*
X156373285Y-76762428D02*
X156337000Y-76798714D01*
X156300714Y-76871285D01*
X156300714Y-77052714D01*
X156337000Y-77125285D01*
X156373285Y-77161571D01*
X156445857Y-77197857D01*
X156518428Y-77197857D01*
X156627285Y-77161571D01*
X157062714Y-76726142D01*
X157062714Y-77197857D01*
X156373285Y-77488142D02*
X156337000Y-77524428D01*
X156300714Y-77597000D01*
X156300714Y-77778428D01*
X156337000Y-77851000D01*
X156373285Y-77887285D01*
X156445857Y-77923571D01*
X156518428Y-77923571D01*
X156627285Y-77887285D01*
X157062714Y-77451857D01*
X157062714Y-77923571D01*
D18*
X146972261Y-63218785D02*
X146669880Y-63007119D01*
X146972261Y-62855928D02*
X146337261Y-62855928D01*
X146337261Y-63097833D01*
X146367500Y-63158309D01*
X146397738Y-63188547D01*
X146458214Y-63218785D01*
X146548928Y-63218785D01*
X146609404Y-63188547D01*
X146639642Y-63158309D01*
X146669880Y-63097833D01*
X146669880Y-62855928D01*
X146548928Y-63763071D02*
X146972261Y-63763071D01*
X146307023Y-63611880D02*
X146760595Y-63460690D01*
X146760595Y-63853785D01*
X146609404Y-64186404D02*
X146579166Y-64125928D01*
X146548928Y-64095690D01*
X146488452Y-64065452D01*
X146458214Y-64065452D01*
X146397738Y-64095690D01*
X146367500Y-64125928D01*
X146337261Y-64186404D01*
X146337261Y-64307357D01*
X146367500Y-64367833D01*
X146397738Y-64398071D01*
X146458214Y-64428309D01*
X146488452Y-64428309D01*
X146548928Y-64398071D01*
X146579166Y-64367833D01*
X146609404Y-64307357D01*
X146609404Y-64186404D01*
X146639642Y-64125928D01*
X146669880Y-64095690D01*
X146730357Y-64065452D01*
X146851309Y-64065452D01*
X146911785Y-64095690D01*
X146942023Y-64125928D01*
X146972261Y-64186404D01*
X146972261Y-64307357D01*
X146942023Y-64367833D01*
X146911785Y-64398071D01*
X146851309Y-64428309D01*
X146730357Y-64428309D01*
X146669880Y-64398071D01*
X146639642Y-64367833D01*
X146609404Y-64307357D01*
D17*
X198355857Y-70194714D02*
X198609857Y-69831857D01*
X198791285Y-70194714D02*
X198791285Y-69432714D01*
X198501000Y-69432714D01*
X198428428Y-69469000D01*
X198392142Y-69505285D01*
X198355857Y-69577857D01*
X198355857Y-69686714D01*
X198392142Y-69759285D01*
X198428428Y-69795571D01*
X198501000Y-69831857D01*
X198791285Y-69831857D01*
X197666428Y-69432714D02*
X198029285Y-69432714D01*
X198065571Y-69795571D01*
X198029285Y-69759285D01*
X197956714Y-69723000D01*
X197775285Y-69723000D01*
X197702714Y-69759285D01*
X197666428Y-69795571D01*
X197630142Y-69868142D01*
X197630142Y-70049571D01*
X197666428Y-70122142D01*
X197702714Y-70158428D01*
X197775285Y-70194714D01*
X197956714Y-70194714D01*
X198029285Y-70158428D01*
X198065571Y-70122142D01*
X196904428Y-70194714D02*
X197339857Y-70194714D01*
X197122142Y-70194714D02*
X197122142Y-69432714D01*
X197194714Y-69541571D01*
X197267285Y-69614142D01*
X197339857Y-69650428D01*
X158731857Y-75655714D02*
X158985857Y-75292857D01*
X159167285Y-75655714D02*
X159167285Y-74893714D01*
X158877000Y-74893714D01*
X158804428Y-74930000D01*
X158768142Y-74966285D01*
X158731857Y-75038857D01*
X158731857Y-75147714D01*
X158768142Y-75220285D01*
X158804428Y-75256571D01*
X158877000Y-75292857D01*
X159167285Y-75292857D01*
X158042428Y-74893714D02*
X158405285Y-74893714D01*
X158441571Y-75256571D01*
X158405285Y-75220285D01*
X158332714Y-75184000D01*
X158151285Y-75184000D01*
X158078714Y-75220285D01*
X158042428Y-75256571D01*
X158006142Y-75329142D01*
X158006142Y-75510571D01*
X158042428Y-75583142D01*
X158078714Y-75619428D01*
X158151285Y-75655714D01*
X158332714Y-75655714D01*
X158405285Y-75619428D01*
X158441571Y-75583142D01*
X157752142Y-74893714D02*
X157280428Y-74893714D01*
X157534428Y-75184000D01*
X157425571Y-75184000D01*
X157353000Y-75220285D01*
X157316714Y-75256571D01*
X157280428Y-75329142D01*
X157280428Y-75510571D01*
X157316714Y-75583142D01*
X157353000Y-75619428D01*
X157425571Y-75655714D01*
X157643285Y-75655714D01*
X157715857Y-75619428D01*
X157752142Y-75583142D01*
D18*
X152814261Y-53185785D02*
X152511880Y-52974119D01*
X152814261Y-52822928D02*
X152179261Y-52822928D01*
X152179261Y-53064833D01*
X152209500Y-53125309D01*
X152239738Y-53155547D01*
X152300214Y-53185785D01*
X152390928Y-53185785D01*
X152451404Y-53155547D01*
X152481642Y-53125309D01*
X152511880Y-53064833D01*
X152511880Y-52822928D01*
X152179261Y-53730071D02*
X152179261Y-53609119D01*
X152209500Y-53548642D01*
X152239738Y-53518404D01*
X152330452Y-53457928D01*
X152451404Y-53427690D01*
X152693309Y-53427690D01*
X152753785Y-53457928D01*
X152784023Y-53488166D01*
X152814261Y-53548642D01*
X152814261Y-53669595D01*
X152784023Y-53730071D01*
X152753785Y-53760309D01*
X152693309Y-53790547D01*
X152542119Y-53790547D01*
X152481642Y-53760309D01*
X152451404Y-53730071D01*
X152421166Y-53669595D01*
X152421166Y-53548642D01*
X152451404Y-53488166D01*
X152481642Y-53457928D01*
X152542119Y-53427690D01*
X152451404Y-54153404D02*
X152421166Y-54092928D01*
X152390928Y-54062690D01*
X152330452Y-54032452D01*
X152300214Y-54032452D01*
X152239738Y-54062690D01*
X152209500Y-54092928D01*
X152179261Y-54153404D01*
X152179261Y-54274357D01*
X152209500Y-54334833D01*
X152239738Y-54365071D01*
X152300214Y-54395309D01*
X152330452Y-54395309D01*
X152390928Y-54365071D01*
X152421166Y-54334833D01*
X152451404Y-54274357D01*
X152451404Y-54153404D01*
X152481642Y-54092928D01*
X152511880Y-54062690D01*
X152572357Y-54032452D01*
X152693309Y-54032452D01*
X152753785Y-54062690D01*
X152784023Y-54092928D01*
X152814261Y-54153404D01*
X152814261Y-54274357D01*
X152784023Y-54334833D01*
X152753785Y-54365071D01*
X152693309Y-54395309D01*
X152572357Y-54395309D01*
X152511880Y-54365071D01*
X152481642Y-54334833D01*
X152451404Y-54274357D01*
D17*
X180448857Y-74766714D02*
X180702857Y-74403857D01*
X180884285Y-74766714D02*
X180884285Y-74004714D01*
X180594000Y-74004714D01*
X180521428Y-74041000D01*
X180485142Y-74077285D01*
X180448857Y-74149857D01*
X180448857Y-74258714D01*
X180485142Y-74331285D01*
X180521428Y-74367571D01*
X180594000Y-74403857D01*
X180884285Y-74403857D01*
X180013428Y-74331285D02*
X180086000Y-74295000D01*
X180122285Y-74258714D01*
X180158571Y-74186142D01*
X180158571Y-74149857D01*
X180122285Y-74077285D01*
X180086000Y-74041000D01*
X180013428Y-74004714D01*
X179868285Y-74004714D01*
X179795714Y-74041000D01*
X179759428Y-74077285D01*
X179723142Y-74149857D01*
X179723142Y-74186142D01*
X179759428Y-74258714D01*
X179795714Y-74295000D01*
X179868285Y-74331285D01*
X180013428Y-74331285D01*
X180086000Y-74367571D01*
X180122285Y-74403857D01*
X180158571Y-74476428D01*
X180158571Y-74621571D01*
X180122285Y-74694142D01*
X180086000Y-74730428D01*
X180013428Y-74766714D01*
X179868285Y-74766714D01*
X179795714Y-74730428D01*
X179759428Y-74694142D01*
X179723142Y-74621571D01*
X179723142Y-74476428D01*
X179759428Y-74403857D01*
X179795714Y-74367571D01*
X179868285Y-74331285D01*
X179033714Y-74004714D02*
X179396571Y-74004714D01*
X179432857Y-74367571D01*
X179396571Y-74331285D01*
X179324000Y-74295000D01*
X179142571Y-74295000D01*
X179070000Y-74331285D01*
X179033714Y-74367571D01*
X178997428Y-74440142D01*
X178997428Y-74621571D01*
X179033714Y-74694142D01*
X179070000Y-74730428D01*
X179142571Y-74766714D01*
X179324000Y-74766714D01*
X179396571Y-74730428D01*
X179432857Y-74694142D01*
X183623857Y-63844714D02*
X183877857Y-63481857D01*
X184059285Y-63844714D02*
X184059285Y-63082714D01*
X183769000Y-63082714D01*
X183696428Y-63119000D01*
X183660142Y-63155285D01*
X183623857Y-63227857D01*
X183623857Y-63336714D01*
X183660142Y-63409285D01*
X183696428Y-63445571D01*
X183769000Y-63481857D01*
X184059285Y-63481857D01*
X183188428Y-63409285D02*
X183261000Y-63373000D01*
X183297285Y-63336714D01*
X183333571Y-63264142D01*
X183333571Y-63227857D01*
X183297285Y-63155285D01*
X183261000Y-63119000D01*
X183188428Y-63082714D01*
X183043285Y-63082714D01*
X182970714Y-63119000D01*
X182934428Y-63155285D01*
X182898142Y-63227857D01*
X182898142Y-63264142D01*
X182934428Y-63336714D01*
X182970714Y-63373000D01*
X183043285Y-63409285D01*
X183188428Y-63409285D01*
X183261000Y-63445571D01*
X183297285Y-63481857D01*
X183333571Y-63554428D01*
X183333571Y-63699571D01*
X183297285Y-63772142D01*
X183261000Y-63808428D01*
X183188428Y-63844714D01*
X183043285Y-63844714D01*
X182970714Y-63808428D01*
X182934428Y-63772142D01*
X182898142Y-63699571D01*
X182898142Y-63554428D01*
X182934428Y-63481857D01*
X182970714Y-63445571D01*
X183043285Y-63409285D01*
X182462714Y-63409285D02*
X182535285Y-63373000D01*
X182571571Y-63336714D01*
X182607857Y-63264142D01*
X182607857Y-63227857D01*
X182571571Y-63155285D01*
X182535285Y-63119000D01*
X182462714Y-63082714D01*
X182317571Y-63082714D01*
X182245000Y-63119000D01*
X182208714Y-63155285D01*
X182172428Y-63227857D01*
X182172428Y-63264142D01*
X182208714Y-63336714D01*
X182245000Y-63373000D01*
X182317571Y-63409285D01*
X182462714Y-63409285D01*
X182535285Y-63445571D01*
X182571571Y-63481857D01*
X182607857Y-63554428D01*
X182607857Y-63699571D01*
X182571571Y-63772142D01*
X182535285Y-63808428D01*
X182462714Y-63844714D01*
X182317571Y-63844714D01*
X182245000Y-63808428D01*
X182208714Y-63772142D01*
X182172428Y-63699571D01*
X182172428Y-63554428D01*
X182208714Y-63481857D01*
X182245000Y-63445571D01*
X182317571Y-63409285D01*
X183623857Y-65114714D02*
X183877857Y-64751857D01*
X184059285Y-65114714D02*
X184059285Y-64352714D01*
X183769000Y-64352714D01*
X183696428Y-64389000D01*
X183660142Y-64425285D01*
X183623857Y-64497857D01*
X183623857Y-64606714D01*
X183660142Y-64679285D01*
X183696428Y-64715571D01*
X183769000Y-64751857D01*
X184059285Y-64751857D01*
X183261000Y-65114714D02*
X183115857Y-65114714D01*
X183043285Y-65078428D01*
X183007000Y-65042142D01*
X182934428Y-64933285D01*
X182898142Y-64788142D01*
X182898142Y-64497857D01*
X182934428Y-64425285D01*
X182970714Y-64389000D01*
X183043285Y-64352714D01*
X183188428Y-64352714D01*
X183261000Y-64389000D01*
X183297285Y-64425285D01*
X183333571Y-64497857D01*
X183333571Y-64679285D01*
X183297285Y-64751857D01*
X183261000Y-64788142D01*
X183188428Y-64824428D01*
X183043285Y-64824428D01*
X182970714Y-64788142D01*
X182934428Y-64751857D01*
X182898142Y-64679285D01*
X182426428Y-64352714D02*
X182353857Y-64352714D01*
X182281285Y-64389000D01*
X182245000Y-64425285D01*
X182208714Y-64497857D01*
X182172428Y-64643000D01*
X182172428Y-64824428D01*
X182208714Y-64969571D01*
X182245000Y-65042142D01*
X182281285Y-65078428D01*
X182353857Y-65114714D01*
X182426428Y-65114714D01*
X182499000Y-65078428D01*
X182535285Y-65042142D01*
X182571571Y-64969571D01*
X182607857Y-64824428D01*
X182607857Y-64643000D01*
X182571571Y-64497857D01*
X182535285Y-64425285D01*
X182499000Y-64389000D01*
X182426428Y-64352714D01*
X142856857Y-44413714D02*
X143110857Y-44050857D01*
X143292285Y-44413714D02*
X143292285Y-43651714D01*
X143002000Y-43651714D01*
X142929428Y-43688000D01*
X142893142Y-43724285D01*
X142856857Y-43796857D01*
X142856857Y-43905714D01*
X142893142Y-43978285D01*
X142929428Y-44014571D01*
X143002000Y-44050857D01*
X143292285Y-44050857D01*
X142494000Y-44413714D02*
X142348857Y-44413714D01*
X142276285Y-44377428D01*
X142240000Y-44341142D01*
X142167428Y-44232285D01*
X142131142Y-44087142D01*
X142131142Y-43796857D01*
X142167428Y-43724285D01*
X142203714Y-43688000D01*
X142276285Y-43651714D01*
X142421428Y-43651714D01*
X142494000Y-43688000D01*
X142530285Y-43724285D01*
X142566571Y-43796857D01*
X142566571Y-43978285D01*
X142530285Y-44050857D01*
X142494000Y-44087142D01*
X142421428Y-44123428D01*
X142276285Y-44123428D01*
X142203714Y-44087142D01*
X142167428Y-44050857D01*
X142131142Y-43978285D01*
X141478000Y-43651714D02*
X141623142Y-43651714D01*
X141695714Y-43688000D01*
X141732000Y-43724285D01*
X141804571Y-43833142D01*
X141840857Y-43978285D01*
X141840857Y-44268571D01*
X141804571Y-44341142D01*
X141768285Y-44377428D01*
X141695714Y-44413714D01*
X141550571Y-44413714D01*
X141478000Y-44377428D01*
X141441714Y-44341142D01*
X141405428Y-44268571D01*
X141405428Y-44087142D01*
X141441714Y-44014571D01*
X141478000Y-43978285D01*
X141550571Y-43942000D01*
X141695714Y-43942000D01*
X141768285Y-43978285D01*
X141804571Y-44014571D01*
X141840857Y-44087142D01*
X145147714Y-41610142D02*
X144784857Y-41356142D01*
X145147714Y-41174714D02*
X144385714Y-41174714D01*
X144385714Y-41465000D01*
X144422000Y-41537571D01*
X144458285Y-41573857D01*
X144530857Y-41610142D01*
X144639714Y-41610142D01*
X144712285Y-41573857D01*
X144748571Y-41537571D01*
X144784857Y-41465000D01*
X144784857Y-41174714D01*
X144385714Y-41864142D02*
X144385714Y-42372142D01*
X145147714Y-42045571D01*
X144385714Y-42807571D02*
X144385714Y-42880142D01*
X144422000Y-42952714D01*
X144458285Y-42989000D01*
X144530857Y-43025285D01*
X144676000Y-43061571D01*
X144857428Y-43061571D01*
X145002571Y-43025285D01*
X145075142Y-42989000D01*
X145111428Y-42952714D01*
X145147714Y-42880142D01*
X145147714Y-42807571D01*
X145111428Y-42735000D01*
X145075142Y-42698714D01*
X145002571Y-42662428D01*
X144857428Y-42626142D01*
X144676000Y-42626142D01*
X144530857Y-42662428D01*
X144458285Y-42698714D01*
X144422000Y-42735000D01*
X144385714Y-42807571D01*
X145142857Y-37682714D02*
X145396857Y-37319857D01*
X145578285Y-37682714D02*
X145578285Y-36920714D01*
X145288000Y-36920714D01*
X145215428Y-36957000D01*
X145179142Y-36993285D01*
X145142857Y-37065857D01*
X145142857Y-37174714D01*
X145179142Y-37247285D01*
X145215428Y-37283571D01*
X145288000Y-37319857D01*
X145578285Y-37319857D01*
X144888857Y-36920714D02*
X144380857Y-36920714D01*
X144707428Y-37682714D01*
X143691428Y-37682714D02*
X144126857Y-37682714D01*
X143909142Y-37682714D02*
X143909142Y-36920714D01*
X143981714Y-37029571D01*
X144054285Y-37102142D01*
X144126857Y-37138428D01*
X142965714Y-41039142D02*
X142602857Y-40785142D01*
X142965714Y-40603714D02*
X142203714Y-40603714D01*
X142203714Y-40894000D01*
X142240000Y-40966571D01*
X142276285Y-41002857D01*
X142348857Y-41039142D01*
X142457714Y-41039142D01*
X142530285Y-41002857D01*
X142566571Y-40966571D01*
X142602857Y-40894000D01*
X142602857Y-40603714D01*
X142203714Y-41293142D02*
X142203714Y-41801142D01*
X142965714Y-41474571D01*
X142203714Y-42018857D02*
X142203714Y-42490571D01*
X142494000Y-42236571D01*
X142494000Y-42345428D01*
X142530285Y-42418000D01*
X142566571Y-42454285D01*
X142639142Y-42490571D01*
X142820571Y-42490571D01*
X142893142Y-42454285D01*
X142929428Y-42418000D01*
X142965714Y-42345428D01*
X142965714Y-42127714D01*
X142929428Y-42055142D01*
X142893142Y-42018857D01*
X139409714Y-40023142D02*
X139046857Y-39769142D01*
X139409714Y-39587714D02*
X138647714Y-39587714D01*
X138647714Y-39878000D01*
X138684000Y-39950571D01*
X138720285Y-39986857D01*
X138792857Y-40023142D01*
X138901714Y-40023142D01*
X138974285Y-39986857D01*
X139010571Y-39950571D01*
X139046857Y-39878000D01*
X139046857Y-39587714D01*
X138647714Y-40277142D02*
X138647714Y-40785142D01*
X139409714Y-40458571D01*
X138647714Y-41402000D02*
X138647714Y-41256857D01*
X138684000Y-41184285D01*
X138720285Y-41148000D01*
X138829142Y-41075428D01*
X138974285Y-41039142D01*
X139264571Y-41039142D01*
X139337142Y-41075428D01*
X139373428Y-41111714D01*
X139409714Y-41184285D01*
X139409714Y-41329428D01*
X139373428Y-41402000D01*
X139337142Y-41438285D01*
X139264571Y-41474571D01*
X139083142Y-41474571D01*
X139010571Y-41438285D01*
X138974285Y-41402000D01*
X138938000Y-41329428D01*
X138938000Y-41184285D01*
X138974285Y-41111714D01*
X139010571Y-41075428D01*
X139083142Y-41039142D01*
X136615714Y-40023142D02*
X136252857Y-39769142D01*
X136615714Y-39587714D02*
X135853714Y-39587714D01*
X135853714Y-39878000D01*
X135890000Y-39950571D01*
X135926285Y-39986857D01*
X135998857Y-40023142D01*
X136107714Y-40023142D01*
X136180285Y-39986857D01*
X136216571Y-39950571D01*
X136252857Y-39878000D01*
X136252857Y-39587714D01*
X135853714Y-40277142D02*
X135853714Y-40785142D01*
X136615714Y-40458571D01*
X136615714Y-41111714D02*
X136615714Y-41256857D01*
X136579428Y-41329428D01*
X136543142Y-41365714D01*
X136434285Y-41438285D01*
X136289142Y-41474571D01*
X135998857Y-41474571D01*
X135926285Y-41438285D01*
X135890000Y-41402000D01*
X135853714Y-41329428D01*
X135853714Y-41184285D01*
X135890000Y-41111714D01*
X135926285Y-41075428D01*
X135998857Y-41039142D01*
X136180285Y-41039142D01*
X136252857Y-41075428D01*
X136289142Y-41111714D01*
X136325428Y-41184285D01*
X136325428Y-41329428D01*
X136289142Y-41402000D01*
X136252857Y-41438285D01*
X136180285Y-41474571D01*
D11*
X118968068Y-84289327D02*
X118968068Y-82589327D01*
X118396640Y-82589327D01*
X118253782Y-82670280D01*
X118182354Y-82751232D01*
X118110925Y-82913137D01*
X118110925Y-83155994D01*
X118182354Y-83317899D01*
X118253782Y-83398851D01*
X118396640Y-83479803D01*
X118968068Y-83479803D01*
X117468068Y-84289327D02*
X117468068Y-82589327D01*
X117468068Y-83236946D02*
X117325211Y-83155994D01*
X117039497Y-83155994D01*
X116896640Y-83236946D01*
X116825211Y-83317899D01*
X116753782Y-83479803D01*
X116753782Y-83965518D01*
X116825211Y-84127422D01*
X116896640Y-84208375D01*
X117039497Y-84289327D01*
X117325211Y-84289327D01*
X117468068Y-84208375D01*
D19*
X169285634Y-86523081D02*
X169952300Y-85570700D01*
X170428491Y-86523081D02*
X170428491Y-84523081D01*
X169666586Y-84523081D01*
X169476110Y-84618320D01*
X169380872Y-84713558D01*
X169285634Y-84904034D01*
X169285634Y-85189748D01*
X169380872Y-85380224D01*
X169476110Y-85475462D01*
X169666586Y-85570700D01*
X170428491Y-85570700D01*
X168142777Y-86523081D02*
X168333253Y-86427843D01*
X168428491Y-86332605D01*
X168523729Y-86142129D01*
X168523729Y-85570700D01*
X168428491Y-85380224D01*
X168333253Y-85284986D01*
X168142777Y-85189748D01*
X167857062Y-85189748D01*
X167666586Y-85284986D01*
X167571348Y-85380224D01*
X167476110Y-85570700D01*
X167476110Y-86142129D01*
X167571348Y-86332605D01*
X167666586Y-86427843D01*
X167857062Y-86523081D01*
X168142777Y-86523081D01*
X166618967Y-86523081D02*
X166618967Y-84523081D01*
X166618967Y-85475462D02*
X165476110Y-85475462D01*
X165476110Y-86523081D02*
X165476110Y-84523081D01*
X164618967Y-86427843D02*
X164333253Y-86523081D01*
X163857062Y-86523081D01*
X163666586Y-86427843D01*
X163571348Y-86332605D01*
X163476110Y-86142129D01*
X163476110Y-85951653D01*
X163571348Y-85761177D01*
X163666586Y-85665939D01*
X163857062Y-85570700D01*
X164238015Y-85475462D01*
X164428491Y-85380224D01*
X164523729Y-85284986D01*
X164618967Y-85094510D01*
X164618967Y-84904034D01*
X164523729Y-84713558D01*
X164428491Y-84618320D01*
X164238015Y-84523081D01*
X163761824Y-84523081D01*
X163476110Y-84618320D01*
D20*
X169864193Y-89458800D02*
X169948860Y-89543466D01*
X170202860Y-89628133D01*
X170372193Y-89628133D01*
X170626193Y-89543466D01*
X170795526Y-89374133D01*
X170880193Y-89204800D01*
X170964860Y-88866133D01*
X170964860Y-88612133D01*
X170880193Y-88273466D01*
X170795526Y-88104133D01*
X170626193Y-87934800D01*
X170372193Y-87850133D01*
X170202860Y-87850133D01*
X169948860Y-87934800D01*
X169864193Y-88019466D01*
X168848193Y-89628133D02*
X169017526Y-89543466D01*
X169102193Y-89458800D01*
X169186860Y-89289466D01*
X169186860Y-88781466D01*
X169102193Y-88612133D01*
X169017526Y-88527466D01*
X168848193Y-88442800D01*
X168594193Y-88442800D01*
X168424860Y-88527466D01*
X168340193Y-88612133D01*
X168255526Y-88781466D01*
X168255526Y-89289466D01*
X168340193Y-89458800D01*
X168424860Y-89543466D01*
X168594193Y-89628133D01*
X168848193Y-89628133D01*
X167493526Y-89628133D02*
X167493526Y-88442800D01*
X167493526Y-88612133D02*
X167408860Y-88527466D01*
X167239526Y-88442800D01*
X166985526Y-88442800D01*
X166816193Y-88527466D01*
X166731526Y-88696800D01*
X166731526Y-89628133D01*
X166731526Y-88696800D02*
X166646860Y-88527466D01*
X166477526Y-88442800D01*
X166223526Y-88442800D01*
X166054193Y-88527466D01*
X165969526Y-88696800D01*
X165969526Y-89628133D01*
X165122860Y-88442800D02*
X165122860Y-90220800D01*
X165122860Y-88527466D02*
X164953526Y-88442800D01*
X164614860Y-88442800D01*
X164445526Y-88527466D01*
X164360860Y-88612133D01*
X164276193Y-88781466D01*
X164276193Y-89289466D01*
X164360860Y-89458800D01*
X164445526Y-89543466D01*
X164614860Y-89628133D01*
X164953526Y-89628133D01*
X165122860Y-89543466D01*
X163260193Y-89628133D02*
X163429526Y-89543466D01*
X163514193Y-89374133D01*
X163514193Y-87850133D01*
X162582860Y-89628133D02*
X162582860Y-88442800D01*
X162582860Y-87850133D02*
X162667526Y-87934800D01*
X162582860Y-88019466D01*
X162498193Y-87934800D01*
X162582860Y-87850133D01*
X162582860Y-88019466D01*
X160974193Y-89628133D02*
X160974193Y-88696800D01*
X161058860Y-88527466D01*
X161228193Y-88442800D01*
X161566860Y-88442800D01*
X161736193Y-88527466D01*
X160974193Y-89543466D02*
X161143526Y-89628133D01*
X161566860Y-89628133D01*
X161736193Y-89543466D01*
X161820860Y-89374133D01*
X161820860Y-89204800D01*
X161736193Y-89035466D01*
X161566860Y-88950800D01*
X161143526Y-88950800D01*
X160974193Y-88866133D01*
X160127526Y-88442800D02*
X160127526Y-89628133D01*
X160127526Y-88612133D02*
X160042860Y-88527466D01*
X159873526Y-88442800D01*
X159619526Y-88442800D01*
X159450193Y-88527466D01*
X159365526Y-88696800D01*
X159365526Y-89628133D01*
X158772860Y-88442800D02*
X158095526Y-88442800D01*
X158518860Y-87850133D02*
X158518860Y-89374133D01*
X158434193Y-89543466D01*
X158264860Y-89628133D01*
X158095526Y-89628133D01*
D17*
X161271857Y-69360142D02*
X161308142Y-69396428D01*
X161417000Y-69432714D01*
X161489571Y-69432714D01*
X161598428Y-69396428D01*
X161671000Y-69323857D01*
X161707285Y-69251285D01*
X161743571Y-69106142D01*
X161743571Y-68997285D01*
X161707285Y-68852142D01*
X161671000Y-68779571D01*
X161598428Y-68707000D01*
X161489571Y-68670714D01*
X161417000Y-68670714D01*
X161308142Y-68707000D01*
X161271857Y-68743285D01*
X160909000Y-69432714D02*
X160763857Y-69432714D01*
X160691285Y-69396428D01*
X160655000Y-69360142D01*
X160582428Y-69251285D01*
X160546142Y-69106142D01*
X160546142Y-68815857D01*
X160582428Y-68743285D01*
X160618714Y-68707000D01*
X160691285Y-68670714D01*
X160836428Y-68670714D01*
X160909000Y-68707000D01*
X160945285Y-68743285D01*
X160981571Y-68815857D01*
X160981571Y-68997285D01*
X160945285Y-69069857D01*
X160909000Y-69106142D01*
X160836428Y-69142428D01*
X160691285Y-69142428D01*
X160618714Y-69106142D01*
X160582428Y-69069857D01*
X160546142Y-68997285D01*
X159893000Y-68670714D02*
X160038142Y-68670714D01*
X160110714Y-68707000D01*
X160147000Y-68743285D01*
X160219571Y-68852142D01*
X160255857Y-68997285D01*
X160255857Y-69287571D01*
X160219571Y-69360142D01*
X160183285Y-69396428D01*
X160110714Y-69432714D01*
X159965571Y-69432714D01*
X159893000Y-69396428D01*
X159856714Y-69360142D01*
X159820428Y-69287571D01*
X159820428Y-69106142D01*
X159856714Y-69033571D01*
X159893000Y-68997285D01*
X159965571Y-68961000D01*
X160110714Y-68961000D01*
X160183285Y-68997285D01*
X160219571Y-69033571D01*
X160255857Y-69106142D01*
X154522714Y-66693142D02*
X154559000Y-66729428D01*
X154667857Y-66765714D01*
X154740428Y-66765714D01*
X154849285Y-66729428D01*
X154921857Y-66656857D01*
X154958142Y-66584285D01*
X154994428Y-66439142D01*
X154994428Y-66330285D01*
X154958142Y-66185142D01*
X154921857Y-66112571D01*
X154849285Y-66040000D01*
X154740428Y-66003714D01*
X154667857Y-66003714D01*
X154559000Y-66040000D01*
X154522714Y-66076285D01*
X154232428Y-66076285D02*
X154196142Y-66040000D01*
X154123571Y-66003714D01*
X153942142Y-66003714D01*
X153869571Y-66040000D01*
X153833285Y-66076285D01*
X153797000Y-66148857D01*
X153797000Y-66221428D01*
X153833285Y-66330285D01*
X154268714Y-66765714D01*
X153797000Y-66765714D01*
X153325285Y-66003714D02*
X153252714Y-66003714D01*
X153180142Y-66040000D01*
X153143857Y-66076285D01*
X153107571Y-66148857D01*
X153071285Y-66294000D01*
X153071285Y-66475428D01*
X153107571Y-66620571D01*
X153143857Y-66693142D01*
X153180142Y-66729428D01*
X153252714Y-66765714D01*
X153325285Y-66765714D01*
X153397857Y-66729428D01*
X153434142Y-66693142D01*
X153470428Y-66620571D01*
X153506714Y-66475428D01*
X153506714Y-66294000D01*
X153470428Y-66148857D01*
X153434142Y-66076285D01*
X153397857Y-66040000D01*
X153325285Y-66003714D01*
X152708428Y-66765714D02*
X152563285Y-66765714D01*
X152490714Y-66729428D01*
X152454428Y-66693142D01*
X152381857Y-66584285D01*
X152345571Y-66439142D01*
X152345571Y-66148857D01*
X152381857Y-66076285D01*
X152418142Y-66040000D01*
X152490714Y-66003714D01*
X152635857Y-66003714D01*
X152708428Y-66040000D01*
X152744714Y-66076285D01*
X152781000Y-66148857D01*
X152781000Y-66330285D01*
X152744714Y-66402857D01*
X152708428Y-66439142D01*
X152635857Y-66475428D01*
X152490714Y-66475428D01*
X152418142Y-66439142D01*
X152381857Y-66402857D01*
X152345571Y-66330285D01*
X161634714Y-74313142D02*
X161271857Y-74059142D01*
X161634714Y-73877714D02*
X160872714Y-73877714D01*
X160872714Y-74168000D01*
X160909000Y-74240571D01*
X160945285Y-74276857D01*
X161017857Y-74313142D01*
X161126714Y-74313142D01*
X161199285Y-74276857D01*
X161235571Y-74240571D01*
X161271857Y-74168000D01*
X161271857Y-73877714D01*
X161634714Y-74676000D02*
X161634714Y-74821142D01*
X161598428Y-74893714D01*
X161562142Y-74930000D01*
X161453285Y-75002571D01*
X161308142Y-75038857D01*
X161017857Y-75038857D01*
X160945285Y-75002571D01*
X160909000Y-74966285D01*
X160872714Y-74893714D01*
X160872714Y-74748571D01*
X160909000Y-74676000D01*
X160945285Y-74639714D01*
X161017857Y-74603428D01*
X161199285Y-74603428D01*
X161271857Y-74639714D01*
X161308142Y-74676000D01*
X161344428Y-74748571D01*
X161344428Y-74893714D01*
X161308142Y-74966285D01*
X161271857Y-75002571D01*
X161199285Y-75038857D01*
X161126714Y-75692000D02*
X161634714Y-75692000D01*
X160836428Y-75510571D02*
X161380714Y-75329142D01*
X161380714Y-75800857D01*
X155919714Y-76472142D02*
X155556857Y-76218142D01*
X155919714Y-76036714D02*
X155157714Y-76036714D01*
X155157714Y-76327000D01*
X155194000Y-76399571D01*
X155230285Y-76435857D01*
X155302857Y-76472142D01*
X155411714Y-76472142D01*
X155484285Y-76435857D01*
X155520571Y-76399571D01*
X155556857Y-76327000D01*
X155556857Y-76036714D01*
X155919714Y-76835000D02*
X155919714Y-76980142D01*
X155883428Y-77052714D01*
X155847142Y-77089000D01*
X155738285Y-77161571D01*
X155593142Y-77197857D01*
X155302857Y-77197857D01*
X155230285Y-77161571D01*
X155194000Y-77125285D01*
X155157714Y-77052714D01*
X155157714Y-76907571D01*
X155194000Y-76835000D01*
X155230285Y-76798714D01*
X155302857Y-76762428D01*
X155484285Y-76762428D01*
X155556857Y-76798714D01*
X155593142Y-76835000D01*
X155629428Y-76907571D01*
X155629428Y-77052714D01*
X155593142Y-77125285D01*
X155556857Y-77161571D01*
X155484285Y-77197857D01*
X155919714Y-77560714D02*
X155919714Y-77705857D01*
X155883428Y-77778428D01*
X155847142Y-77814714D01*
X155738285Y-77887285D01*
X155593142Y-77923571D01*
X155302857Y-77923571D01*
X155230285Y-77887285D01*
X155194000Y-77851000D01*
X155157714Y-77778428D01*
X155157714Y-77633285D01*
X155194000Y-77560714D01*
X155230285Y-77524428D01*
X155302857Y-77488142D01*
X155484285Y-77488142D01*
X155556857Y-77524428D01*
X155593142Y-77560714D01*
X155629428Y-77633285D01*
X155629428Y-77778428D01*
X155593142Y-77851000D01*
X155556857Y-77887285D01*
X155484285Y-77923571D01*
X195035714Y-93943714D02*
X195289714Y-93580857D01*
X195471142Y-93943714D02*
X195471142Y-93181714D01*
X195180857Y-93181714D01*
X195108285Y-93218000D01*
X195072000Y-93254285D01*
X195035714Y-93326857D01*
X195035714Y-93435714D01*
X195072000Y-93508285D01*
X195108285Y-93544571D01*
X195180857Y-93580857D01*
X195471142Y-93580857D01*
X194310000Y-93943714D02*
X194745428Y-93943714D01*
X194527714Y-93943714D02*
X194527714Y-93181714D01*
X194600285Y-93290571D01*
X194672857Y-93363142D01*
X194745428Y-93399428D01*
X193584285Y-93943714D02*
X194019714Y-93943714D01*
X193802000Y-93943714D02*
X193802000Y-93181714D01*
X193874571Y-93290571D01*
X193947142Y-93363142D01*
X194019714Y-93399428D01*
X193112571Y-93181714D02*
X193040000Y-93181714D01*
X192967428Y-93218000D01*
X192931142Y-93254285D01*
X192894857Y-93326857D01*
X192858571Y-93472000D01*
X192858571Y-93653428D01*
X192894857Y-93798571D01*
X192931142Y-93871142D01*
X192967428Y-93907428D01*
X193040000Y-93943714D01*
X193112571Y-93943714D01*
X193185142Y-93907428D01*
X193221428Y-93871142D01*
X193257714Y-93798571D01*
X193294000Y-93653428D01*
X193294000Y-93472000D01*
X193257714Y-93326857D01*
X193221428Y-93254285D01*
X193185142Y-93218000D01*
X193112571Y-93181714D01*
D18*
X153364595Y-64295261D02*
X153576261Y-63992880D01*
X153727452Y-64295261D02*
X153727452Y-63660261D01*
X153485547Y-63660261D01*
X153425071Y-63690500D01*
X153394833Y-63720738D01*
X153364595Y-63781214D01*
X153364595Y-63871928D01*
X153394833Y-63932404D01*
X153425071Y-63962642D01*
X153485547Y-63992880D01*
X153727452Y-63992880D01*
X152759833Y-64295261D02*
X153122690Y-64295261D01*
X152941261Y-64295261D02*
X152941261Y-63660261D01*
X153001738Y-63750976D01*
X153062214Y-63811452D01*
X153122690Y-63841690D01*
X152366738Y-63660261D02*
X152306261Y-63660261D01*
X152245785Y-63690500D01*
X152215547Y-63720738D01*
X152185309Y-63781214D01*
X152155071Y-63902166D01*
X152155071Y-64053357D01*
X152185309Y-64174309D01*
X152215547Y-64234785D01*
X152245785Y-64265023D01*
X152306261Y-64295261D01*
X152366738Y-64295261D01*
X152427214Y-64265023D01*
X152457452Y-64234785D01*
X152487690Y-64174309D01*
X152517928Y-64053357D01*
X152517928Y-63902166D01*
X152487690Y-63781214D01*
X152457452Y-63720738D01*
X152427214Y-63690500D01*
X152366738Y-63660261D01*
X151852690Y-64295261D02*
X151731738Y-64295261D01*
X151671261Y-64265023D01*
X151641023Y-64234785D01*
X151580547Y-64144071D01*
X151550309Y-64023119D01*
X151550309Y-63781214D01*
X151580547Y-63720738D01*
X151610785Y-63690500D01*
X151671261Y-63660261D01*
X151792214Y-63660261D01*
X151852690Y-63690500D01*
X151882928Y-63720738D01*
X151913166Y-63781214D01*
X151913166Y-63932404D01*
X151882928Y-63992880D01*
X151852690Y-64023119D01*
X151792214Y-64053357D01*
X151671261Y-64053357D01*
X151610785Y-64023119D01*
X151580547Y-63992880D01*
X151550309Y-63932404D01*
M02*
