G04 #@! TF.FileFunction,Legend,Top*
%FSLAX46Y46*%
G04 Gerber Fmt 4.6, Leading zero omitted, Abs format (unit mm)*
G04 Created by KiCad (PCBNEW 4.1.0-alpha+201608171232+7063~46~ubuntu14.04.1-product) date Tue Aug 30 16:53:00 2016*
%MOMM*%
%LPD*%
G01*
G04 APERTURE LIST*
%ADD10C,0.600000*%
%ADD11C,0.300000*%
%ADD12C,0.250000*%
%ADD13C,0.150000*%
%ADD14C,0.127000*%
%ADD15C,0.100000*%
%ADD16C,0.254000*%
%ADD17C,0.700000*%
%ADD18C,0.400000*%
%ADD19C,0.500000*%
%ADD20C,1.000000*%
%ADD21C,0.370000*%
%ADD22C,0.380000*%
%ADD23C,0.420000*%
%ADD24C,0.190500*%
%ADD25C,0.200000*%
%ADD26C,0.180000*%
G04 APERTURE END LIST*
D10*
D11*
X173652571Y-86141428D02*
X172652571Y-86141428D01*
X172938285Y-86141428D02*
X172795428Y-86070000D01*
X172724000Y-85998571D01*
X172652571Y-85855714D01*
X172652571Y-85712857D01*
X173581142Y-84641428D02*
X173652571Y-84784285D01*
X173652571Y-85070000D01*
X173581142Y-85212857D01*
X173438285Y-85284285D01*
X172866857Y-85284285D01*
X172724000Y-85212857D01*
X172652571Y-85070000D01*
X172652571Y-84784285D01*
X172724000Y-84641428D01*
X172866857Y-84570000D01*
X173009714Y-84570000D01*
X173152571Y-85284285D01*
X172652571Y-84070000D02*
X173652571Y-83712857D01*
X172652571Y-83355714D01*
X173509714Y-82784285D02*
X173581142Y-82712857D01*
X173652571Y-82784285D01*
X173581142Y-82855714D01*
X173509714Y-82784285D01*
X173652571Y-82784285D01*
X173224000Y-82141428D02*
X173224000Y-81427142D01*
X173652571Y-82284285D02*
X172152571Y-81784285D01*
X173652571Y-81284285D01*
D12*
X159828571Y-79385714D02*
X159066666Y-79671428D01*
X159828571Y-79957142D01*
X160733333Y-80004761D02*
X160638095Y-80052380D01*
X160447619Y-80052380D01*
X160352380Y-80004761D01*
X160304761Y-79957142D01*
X160257142Y-79861904D01*
X160257142Y-79576190D01*
X160304761Y-79480952D01*
X160352380Y-79433333D01*
X160447619Y-79385714D01*
X160638095Y-79385714D01*
X160733333Y-79433333D01*
X161161904Y-79385714D02*
X161923809Y-79671428D01*
X161161904Y-79957142D01*
X162352380Y-79147619D02*
X162400000Y-79100000D01*
X162495238Y-79052380D01*
X162733333Y-79052380D01*
X162828571Y-79100000D01*
X162876190Y-79147619D01*
X162923809Y-79242857D01*
X162923809Y-79338095D01*
X162876190Y-79480952D01*
X162304761Y-80052380D01*
X162923809Y-80052380D01*
X163542857Y-79052380D02*
X163638095Y-79052380D01*
X163733333Y-79100000D01*
X163780952Y-79147619D01*
X163828571Y-79242857D01*
X163876190Y-79433333D01*
X163876190Y-79671428D01*
X163828571Y-79861904D01*
X163780952Y-79957142D01*
X163733333Y-80004761D01*
X163638095Y-80052380D01*
X163542857Y-80052380D01*
X163447619Y-80004761D01*
X163400000Y-79957142D01*
X163352380Y-79861904D01*
X163304761Y-79671428D01*
X163304761Y-79433333D01*
X163352380Y-79242857D01*
X163400000Y-79147619D01*
X163447619Y-79100000D01*
X163542857Y-79052380D01*
X164828571Y-80052380D02*
X164257142Y-80052380D01*
X164542857Y-80052380D02*
X164542857Y-79052380D01*
X164447619Y-79195238D01*
X164352380Y-79290476D01*
X164257142Y-79338095D01*
X165685714Y-79052380D02*
X165495238Y-79052380D01*
X165400000Y-79100000D01*
X165352380Y-79147619D01*
X165257142Y-79290476D01*
X165209523Y-79480952D01*
X165209523Y-79861904D01*
X165257142Y-79957142D01*
X165304761Y-80004761D01*
X165400000Y-80052380D01*
X165590476Y-80052380D01*
X165685714Y-80004761D01*
X165733333Y-79957142D01*
X165780952Y-79861904D01*
X165780952Y-79623809D01*
X165733333Y-79528571D01*
X165685714Y-79480952D01*
X165590476Y-79433333D01*
X165400000Y-79433333D01*
X165304761Y-79480952D01*
X165257142Y-79528571D01*
X165209523Y-79623809D01*
D11*
X143678571Y-82046071D02*
X144535714Y-82046071D01*
X144107142Y-83546071D02*
X144107142Y-82046071D01*
X145035714Y-82760357D02*
X145535714Y-82760357D01*
X145750000Y-83546071D02*
X145035714Y-83546071D01*
X145035714Y-82046071D01*
X145750000Y-82046071D01*
X147250000Y-83546071D02*
X146750000Y-82831785D01*
X146392857Y-83546071D02*
X146392857Y-82046071D01*
X146964285Y-82046071D01*
X147107142Y-82117500D01*
X147178571Y-82188928D01*
X147250000Y-82331785D01*
X147250000Y-82546071D01*
X147178571Y-82688928D01*
X147107142Y-82760357D01*
X146964285Y-82831785D01*
X146392857Y-82831785D01*
X147892857Y-82760357D02*
X148392857Y-82760357D01*
X148607142Y-83546071D02*
X147892857Y-83546071D01*
X147892857Y-82046071D01*
X148607142Y-82046071D01*
X149178571Y-83474642D02*
X149392857Y-83546071D01*
X149750000Y-83546071D01*
X149892857Y-83474642D01*
X149964285Y-83403214D01*
X150035714Y-83260357D01*
X150035714Y-83117500D01*
X149964285Y-82974642D01*
X149892857Y-82903214D01*
X149750000Y-82831785D01*
X149464285Y-82760357D01*
X149321428Y-82688928D01*
X149250000Y-82617500D01*
X149178571Y-82474642D01*
X149178571Y-82331785D01*
X149250000Y-82188928D01*
X149321428Y-82117500D01*
X149464285Y-82046071D01*
X149821428Y-82046071D01*
X150035714Y-82117500D01*
X150678571Y-82974642D02*
X151821428Y-82974642D01*
X152535714Y-83546071D02*
X152535714Y-82046071D01*
X153107142Y-82046071D01*
X153250000Y-82117500D01*
X153321428Y-82188928D01*
X153392857Y-82331785D01*
X153392857Y-82546071D01*
X153321428Y-82688928D01*
X153250000Y-82760357D01*
X153107142Y-82831785D01*
X152535714Y-82831785D01*
X154892857Y-83403214D02*
X154821428Y-83474642D01*
X154607142Y-83546071D01*
X154464285Y-83546071D01*
X154250000Y-83474642D01*
X154107142Y-83331785D01*
X154035714Y-83188928D01*
X153964285Y-82903214D01*
X153964285Y-82688928D01*
X154035714Y-82403214D01*
X154107142Y-82260357D01*
X154250000Y-82117500D01*
X154464285Y-82046071D01*
X154607142Y-82046071D01*
X154821428Y-82117500D01*
X154892857Y-82188928D01*
X156035714Y-82760357D02*
X156250000Y-82831785D01*
X156321428Y-82903214D01*
X156392857Y-83046071D01*
X156392857Y-83260357D01*
X156321428Y-83403214D01*
X156250000Y-83474642D01*
X156107142Y-83546071D01*
X155535714Y-83546071D01*
X155535714Y-82046071D01*
X156035714Y-82046071D01*
X156178571Y-82117500D01*
X156250000Y-82188928D01*
X156321428Y-82331785D01*
X156321428Y-82474642D01*
X156250000Y-82617500D01*
X156178571Y-82688928D01*
X156035714Y-82760357D01*
X155535714Y-82760357D01*
X157750000Y-82046071D02*
X157035714Y-82046071D01*
X156964285Y-82760357D01*
X157035714Y-82688928D01*
X157178571Y-82617500D01*
X157535714Y-82617500D01*
X157678571Y-82688928D01*
X157750000Y-82760357D01*
X157821428Y-82903214D01*
X157821428Y-83260357D01*
X157750000Y-83403214D01*
X157678571Y-83474642D01*
X157535714Y-83546071D01*
X157178571Y-83546071D01*
X157035714Y-83474642D01*
X156964285Y-83403214D01*
X158464285Y-82974642D02*
X159607142Y-82974642D01*
X160321428Y-83546071D02*
X160321428Y-82046071D01*
X161178571Y-83546071D02*
X160535714Y-82688928D01*
X161178571Y-82046071D02*
X160321428Y-82903214D01*
X161821428Y-82760357D02*
X162321428Y-82760357D01*
X162535714Y-83546071D02*
X161821428Y-83546071D01*
X161821428Y-82046071D01*
X162535714Y-82046071D01*
X163464285Y-82831785D02*
X163464285Y-83546071D01*
X162964285Y-82046071D02*
X163464285Y-82831785D01*
X163964285Y-82046071D01*
X164964285Y-82760357D02*
X165178571Y-82831785D01*
X165250000Y-82903214D01*
X165321428Y-83046071D01*
X165321428Y-83260357D01*
X165250000Y-83403214D01*
X165178571Y-83474642D01*
X165035714Y-83546071D01*
X164464285Y-83546071D01*
X164464285Y-82046071D01*
X164964285Y-82046071D01*
X165107142Y-82117500D01*
X165178571Y-82188928D01*
X165250000Y-82331785D01*
X165250000Y-82474642D01*
X165178571Y-82617500D01*
X165107142Y-82688928D01*
X164964285Y-82760357D01*
X164464285Y-82760357D01*
X166250000Y-82046071D02*
X166535714Y-82046071D01*
X166678571Y-82117500D01*
X166821428Y-82260357D01*
X166892857Y-82546071D01*
X166892857Y-83046071D01*
X166821428Y-83331785D01*
X166678571Y-83474642D01*
X166535714Y-83546071D01*
X166250000Y-83546071D01*
X166107142Y-83474642D01*
X165964285Y-83331785D01*
X165892857Y-83046071D01*
X165892857Y-82546071D01*
X165964285Y-82260357D01*
X166107142Y-82117500D01*
X166250000Y-82046071D01*
X167464285Y-83117500D02*
X168178571Y-83117500D01*
X167321428Y-83546071D02*
X167821428Y-82046071D01*
X168321428Y-83546071D01*
X169678571Y-83546071D02*
X169178571Y-82831785D01*
X168821428Y-83546071D02*
X168821428Y-82046071D01*
X169392857Y-82046071D01*
X169535714Y-82117500D01*
X169607142Y-82188928D01*
X169678571Y-82331785D01*
X169678571Y-82546071D01*
X169607142Y-82688928D01*
X169535714Y-82760357D01*
X169392857Y-82831785D01*
X168821428Y-82831785D01*
X170321428Y-83546071D02*
X170321428Y-82046071D01*
X170678571Y-82046071D01*
X170892857Y-82117500D01*
X171035714Y-82260357D01*
X171107142Y-82403214D01*
X171178571Y-82688928D01*
X171178571Y-82903214D01*
X171107142Y-83188928D01*
X171035714Y-83331785D01*
X170892857Y-83474642D01*
X170678571Y-83546071D01*
X170321428Y-83546071D01*
D13*
X175514000Y-99999800D02*
X175514000Y-80010000D01*
X107010200Y-99999800D02*
X107010200Y-65506600D01*
X175514000Y-80010000D02*
X107010200Y-65506600D01*
X107010200Y-99999800D02*
X175514000Y-99999800D01*
D14*
X131960000Y-84984000D02*
X131960000Y-84476000D01*
X131960000Y-84476000D02*
X137040000Y-84476000D01*
X137040000Y-84476000D02*
X137040000Y-84984000D01*
X137040000Y-87016000D02*
X137040000Y-87524000D01*
X137040000Y-87524000D02*
X131960000Y-87524000D01*
X131960000Y-87524000D02*
X131960000Y-87016000D01*
D15*
X117749360Y-78001955D02*
X117749360Y-79699011D01*
X125386113Y-86770079D02*
X124679006Y-86062972D01*
X126093220Y-86062972D02*
X125386113Y-86770079D01*
X133305709Y-78850483D02*
X132598602Y-79557590D01*
X132598602Y-78143376D02*
X133305709Y-78850483D01*
X125386113Y-70930887D02*
X126093220Y-71637994D01*
X124679006Y-71637994D02*
X125386113Y-70930887D01*
D16*
X159733000Y-85217000D02*
X159733000Y-86233000D01*
X161257000Y-85217000D02*
X161257000Y-86233000D01*
X112141000Y-83439000D02*
X111125000Y-83439000D01*
X112141000Y-84963000D02*
X111125000Y-84963000D01*
X112270000Y-69904000D02*
X112524000Y-69650000D01*
X112524000Y-69650000D02*
X114556000Y-69650000D01*
X114556000Y-69650000D02*
X114810000Y-69904000D01*
X114810000Y-69904000D02*
X114810000Y-71936000D01*
X114810000Y-77016000D02*
X114556000Y-77270000D01*
X114810000Y-76762000D02*
X114810000Y-77270000D01*
X114810000Y-72444000D02*
X114810000Y-74476000D01*
X114810000Y-74476000D02*
X114556000Y-74730000D01*
X114556000Y-74730000D02*
X114810000Y-74984000D01*
X114810000Y-74984000D02*
X114810000Y-76762000D01*
X114810000Y-72444000D02*
X114556000Y-72190000D01*
X114556000Y-72190000D02*
X114810000Y-71936000D01*
X112270000Y-77270000D02*
X114810000Y-77270000D01*
X109730000Y-77270000D02*
X109730000Y-77016000D01*
X109984000Y-77270000D02*
X109730000Y-77016000D01*
X109730000Y-77270000D02*
X112270000Y-77270000D01*
X109730000Y-72444000D02*
X109984000Y-72190000D01*
X109730000Y-74476000D02*
X109730000Y-72444000D01*
X109984000Y-74730000D02*
X109730000Y-74476000D01*
X109730000Y-77016000D02*
X109730000Y-74984000D01*
X109730000Y-74984000D02*
X109984000Y-74730000D01*
X109984000Y-72190000D02*
X109730000Y-71936000D01*
X109730000Y-71936000D02*
X109730000Y-69904000D01*
X109730000Y-69904000D02*
X109984000Y-69650000D01*
X109984000Y-69650000D02*
X112016000Y-69650000D01*
X112016000Y-69650000D02*
X112270000Y-69904000D01*
D14*
X157015200Y-87503000D02*
X157853400Y-87503000D01*
X157015200Y-85725000D02*
X157853400Y-85725000D01*
D16*
X112687000Y-79146400D02*
X112687000Y-78892400D01*
X112687000Y-79146400D02*
X112687000Y-79400400D01*
X111798000Y-79146400D02*
X111798000Y-79400400D01*
X111798000Y-79146400D02*
X111798000Y-78892400D01*
X159449000Y-90444500D02*
X159703000Y-90444500D01*
X159449000Y-90444500D02*
X159195000Y-90444500D01*
X159449000Y-89555500D02*
X159195000Y-89555500D01*
X159449000Y-89555500D02*
X159703000Y-89555500D01*
X159449000Y-89369400D02*
X159703000Y-89369400D01*
X159449000Y-89369400D02*
X159195000Y-89369400D01*
X159449000Y-88480400D02*
X159195000Y-88480400D01*
X159449000Y-88480400D02*
X159703000Y-88480400D01*
X160529600Y-98269300D02*
X160783600Y-98269300D01*
X160529600Y-98269300D02*
X160275600Y-98269300D01*
X160529600Y-97380300D02*
X160275600Y-97380300D01*
X160529600Y-97380300D02*
X160783600Y-97380300D01*
X162603000Y-95996000D02*
X162349000Y-95996000D01*
X162603000Y-95996000D02*
X162857000Y-95996000D01*
X162603000Y-96885000D02*
X162857000Y-96885000D01*
X162603000Y-96885000D02*
X162349000Y-96885000D01*
X162603000Y-98282000D02*
X162857000Y-98282000D01*
X162603000Y-98282000D02*
X162349000Y-98282000D01*
X162603000Y-97393000D02*
X162349000Y-97393000D01*
X162603000Y-97393000D02*
X162857000Y-97393000D01*
X160631200Y-95678500D02*
X160885200Y-95678500D01*
X160631200Y-95678500D02*
X160377200Y-95678500D01*
X160631200Y-94789500D02*
X160377200Y-94789500D01*
X160631200Y-94789500D02*
X160885200Y-94789500D01*
X112706500Y-81004000D02*
X112706500Y-80750000D01*
X112706500Y-81004000D02*
X112706500Y-81258000D01*
X111817500Y-81004000D02*
X111817500Y-81258000D01*
X111817500Y-81004000D02*
X111817500Y-80750000D01*
X162596400Y-95691200D02*
X162850400Y-95691200D01*
X162596400Y-95691200D02*
X162342400Y-95691200D01*
X162596400Y-94802200D02*
X162342400Y-94802200D01*
X162596400Y-94802200D02*
X162850400Y-94802200D01*
X160500000Y-93055500D02*
X160246000Y-93055500D01*
X160500000Y-93055500D02*
X160754000Y-93055500D01*
X160500000Y-93944500D02*
X160754000Y-93944500D01*
X160500000Y-93944500D02*
X160246000Y-93944500D01*
X109880400Y-93243400D02*
X109880400Y-93027500D01*
X112826800Y-93243400D02*
X109880400Y-93243400D01*
X112826800Y-93052900D02*
X112826800Y-93243400D01*
X109880400Y-89230200D02*
X109880400Y-89446100D01*
X112826800Y-89255600D02*
X112826800Y-89433400D01*
X112826800Y-89242900D02*
X109880400Y-89242900D01*
X109905800Y-89128600D02*
X109905800Y-88912700D01*
X112852200Y-89128600D02*
X109905800Y-89128600D01*
X112852200Y-88938100D02*
X112852200Y-89128600D01*
X109905800Y-85115400D02*
X109905800Y-85331300D01*
X112852200Y-85140800D02*
X112852200Y-85318600D01*
X112852200Y-85128100D02*
X109905800Y-85128100D01*
D15*
X155244800Y-77736700D02*
X156616400Y-77736700D01*
X156616400Y-77736700D02*
X156667200Y-77736700D01*
X156667200Y-77736700D02*
X157924500Y-78981300D01*
X153720800Y-77851000D02*
X153822400Y-77851000D01*
X153873200Y-77787500D02*
X153873200Y-77774800D01*
X153873200Y-77774800D02*
X152577800Y-77774800D01*
X152577800Y-77774800D02*
X152552400Y-77774800D01*
X152552400Y-77774800D02*
X151930100Y-78270100D01*
X153873200Y-80797400D02*
X153873200Y-77787500D01*
X150215600Y-77838300D02*
X150139400Y-77838300D01*
X150063200Y-77774800D02*
X151307800Y-77774800D01*
X151307800Y-77774800D02*
X151892000Y-78257400D01*
X150063200Y-80772000D02*
X150063200Y-77787500D01*
X149326600Y-80365600D02*
X149415500Y-80365600D01*
X148983700Y-80365600D02*
X148920200Y-80365600D01*
X148844000Y-80429100D02*
X149453600Y-80429100D01*
X149453600Y-80429100D02*
X149479000Y-80429100D01*
X149479000Y-80429100D02*
X149479000Y-78409800D01*
X148844000Y-78409800D02*
X148844000Y-80429100D01*
X147345400Y-77800200D02*
X147459700Y-77800200D01*
X147218400Y-77724000D02*
X147523200Y-77724000D01*
X147523200Y-77724000D02*
X147523200Y-80759300D01*
X147040600Y-77812900D02*
X146977100Y-77800200D01*
X146926300Y-77724000D02*
X146913600Y-77724000D01*
X146913600Y-77724000D02*
X146900900Y-77724000D01*
X146900900Y-77724000D02*
X146900900Y-80873600D01*
X147205700Y-77724000D02*
X146926300Y-77724000D01*
D17*
X147205700Y-80797400D02*
X147205700Y-78066900D01*
X153543000Y-78079600D02*
X153543000Y-80683100D01*
X145427700Y-78066900D02*
X144424400Y-78066900D01*
X146050000Y-78676500D02*
X146050000Y-80606900D01*
X143827500Y-78714600D02*
X143827500Y-78955900D01*
X143827500Y-80683100D02*
X144411700Y-81254600D01*
X143840200Y-80695800D02*
X143840200Y-79933800D01*
X144399000Y-81254600D02*
X145440400Y-81254600D01*
D18*
X156887159Y-79641700D02*
G75*
G03X156887159Y-79641700I-359659J0D01*
G01*
D17*
X156019500Y-79641700D02*
X154800300Y-79641700D01*
D18*
X159820635Y-77901800D02*
G75*
G03X159820635Y-77901800I-359435J0D01*
G01*
D17*
X159092900Y-78257400D02*
X158229300Y-79151100D01*
D19*
X157670500Y-79248000D02*
X158229300Y-79248000D01*
D17*
X156552900Y-78066900D02*
X157645100Y-79133700D01*
X155331000Y-78066900D02*
X156552900Y-78066900D01*
X154800300Y-78549500D02*
X155282900Y-78041500D01*
X154800300Y-78574900D02*
X154800300Y-80810100D01*
X154800300Y-80810100D02*
X155232100Y-81241900D01*
X155232100Y-81241900D02*
X156552900Y-81241900D01*
X156552900Y-81241900D02*
X157695900Y-80124300D01*
D19*
X157695900Y-80022700D02*
X158229300Y-80022700D01*
D17*
X159042100Y-80937100D02*
X158203900Y-80124300D01*
D18*
X159701766Y-81292700D02*
G75*
G03X159701766Y-81292700I-329466J0D01*
G01*
X153906229Y-81203800D02*
G75*
G03X153906229Y-81203800I-363229J0D01*
G01*
D17*
X152641300Y-78092300D02*
X153530300Y-78092300D01*
D18*
X152301018Y-79921100D02*
G75*
G03X152301018Y-79921100I-370918J0D01*
G01*
D17*
X152006300Y-78600300D02*
X152641300Y-78092300D01*
X151930100Y-79387700D02*
X151930100Y-78676500D01*
X151218900Y-78092300D02*
X151828500Y-78600300D01*
X150380700Y-78092300D02*
X151218900Y-78092300D01*
X150380700Y-80683100D02*
X150380700Y-78092300D01*
D18*
X150753059Y-81191100D02*
G75*
G03X150753059Y-81191100I-359659J0D01*
G01*
X149547718Y-77990700D02*
G75*
G03X149547718Y-77990700I-373518J0D01*
G01*
D17*
X149161500Y-78524100D02*
X149161500Y-80124300D01*
D18*
X149527824Y-81216500D02*
G75*
G03X149527824Y-81216500I-366324J0D01*
G01*
D17*
X148648700Y-81241900D02*
X147662900Y-81241900D01*
X147662900Y-81241900D02*
X147205700Y-80784700D01*
X146037300Y-80645000D02*
X145478500Y-81229200D01*
X145427700Y-78079600D02*
X146062700Y-78689200D01*
X143827500Y-78663800D02*
X144335500Y-78155800D01*
D18*
X144177647Y-79438500D02*
G75*
G03X144177647Y-79438500I-337447J0D01*
G01*
D20*
X152563320Y-89666800D02*
X152896060Y-90398320D01*
X152563320Y-89758240D02*
X153744420Y-90771700D01*
X152677620Y-89621080D02*
X153294840Y-89948740D01*
X152997660Y-89201980D02*
X153607260Y-89308660D01*
X153833320Y-88043740D02*
X153111960Y-88191060D01*
X153592020Y-87350320D02*
X152936700Y-87716080D01*
X152723340Y-86481640D02*
X152304240Y-87068380D01*
X152136600Y-86230180D02*
X151915620Y-86915980D01*
X150871680Y-86214940D02*
X151039320Y-86824540D01*
X150437340Y-86474020D02*
X150612600Y-86832160D01*
X149439120Y-87251260D02*
X149896320Y-87540820D01*
X149263860Y-87731320D02*
X149705820Y-87891340D01*
X148938740Y-88975920D02*
X149644860Y-88848920D01*
X149187660Y-89621080D02*
X149751540Y-89141020D01*
X149853140Y-90520240D02*
X150218900Y-89758240D01*
X154643580Y-88467920D02*
X153175460Y-88554280D01*
X153652980Y-86283520D02*
X152540460Y-87350320D01*
X151387300Y-85226880D02*
X151392380Y-86740720D01*
X149126700Y-86202240D02*
X150188420Y-87309680D01*
X148141180Y-88488240D02*
X149558500Y-88427280D01*
X149177500Y-90692960D02*
X150030940Y-89671880D01*
D13*
X150193500Y-89262940D02*
X150500840Y-89529640D01*
X149863300Y-86349560D02*
X150846280Y-85856800D01*
X152042620Y-89854760D02*
X151920700Y-89570280D01*
X152179780Y-89400100D02*
X151925780Y-89565200D01*
X150678640Y-89397560D02*
X150904700Y-89572820D01*
X150310340Y-89283260D02*
X150569420Y-89621080D01*
X150086820Y-89062280D02*
X150180800Y-89232460D01*
X150086820Y-89062280D02*
X150180800Y-89232460D01*
X149949660Y-88208840D02*
X150081740Y-89031800D01*
X150373840Y-87472240D02*
X149954740Y-88203760D01*
X151245060Y-87042980D02*
X150373840Y-87472240D01*
X152060400Y-87210620D02*
X151245060Y-87050600D01*
X152570940Y-87639880D02*
X152060400Y-87210620D01*
X152804620Y-88312980D02*
X152570940Y-87639880D01*
X152799540Y-88818440D02*
X152799540Y-88300280D01*
X152423620Y-89529640D02*
X152799540Y-88818440D01*
X152245820Y-89651560D02*
X152423620Y-89529640D01*
X148974300Y-85630740D02*
X149858220Y-86352100D01*
X149218140Y-86984560D02*
X148616160Y-86075240D01*
X149213060Y-86979480D02*
X148826980Y-87977700D01*
X147683980Y-88246940D02*
X148799040Y-88000560D01*
X147826220Y-88191060D02*
X147826220Y-88841300D01*
X152202640Y-89593140D02*
X152730960Y-90974900D01*
X152593800Y-91272080D02*
X152207720Y-90291640D01*
X153122120Y-90944420D02*
X152593800Y-91272080D01*
X153805380Y-91277160D02*
X152984960Y-90748840D01*
X152941780Y-90972360D02*
X153818080Y-91592120D01*
X153828240Y-91587040D02*
X154511500Y-90896160D01*
X154224480Y-90812340D02*
X153739340Y-91343200D01*
X154257500Y-89176580D02*
X153876500Y-90157020D01*
X154153360Y-89209600D02*
X155276040Y-88998780D01*
X155291280Y-88020880D02*
X155288740Y-88978460D01*
X155207460Y-88762560D02*
X154100020Y-88986080D01*
X153904440Y-86992180D02*
X154270200Y-87860860D01*
X154519120Y-86110800D02*
X153815540Y-87101400D01*
X153820620Y-85412300D02*
X154514040Y-86103180D01*
X152804620Y-86087940D02*
X153815540Y-85414840D01*
X152118820Y-85701860D02*
X152924000Y-86039680D01*
X151902920Y-84612200D02*
X152128980Y-85783140D01*
X150937720Y-84612200D02*
X151902920Y-84612200D01*
X150927560Y-84619820D02*
X150726900Y-85645980D01*
X149939500Y-86014280D02*
X150843740Y-85635820D01*
X149004780Y-85366580D02*
X149975060Y-86082860D01*
X148318980Y-86082860D02*
X148992080Y-85369120D01*
X148339300Y-86118420D02*
X148933660Y-86971860D01*
X148600920Y-87802440D02*
X148936200Y-86969320D01*
X147531580Y-88000560D02*
X148702520Y-87797360D01*
X147534120Y-88003100D02*
X147534120Y-88988620D01*
X147534120Y-88996240D02*
X148606000Y-89191820D01*
X148296120Y-90903780D02*
X148893020Y-90040180D01*
X149025100Y-91599740D02*
X148303740Y-90906320D01*
X149858220Y-91028240D02*
X149032720Y-91592120D01*
X149870920Y-91038400D02*
X150216360Y-91259380D01*
X150254460Y-91241600D02*
X150904700Y-89572820D01*
D21*
X153820620Y-91432100D02*
X154374340Y-90886000D01*
X153754580Y-89991920D02*
X154374340Y-90878380D01*
X150498300Y-87594160D02*
G75*
G03X150574500Y-89448360I965200J-889000D01*
G01*
X152449020Y-87766880D02*
G75*
G03X150523700Y-87568760I-1061720J-863600D01*
G01*
X152068020Y-89616000D02*
G75*
G03X152438860Y-87751640I-746760J1117600D01*
G01*
X152631900Y-91058720D02*
X152057860Y-89618540D01*
X152969720Y-90873300D02*
X152631900Y-91058720D01*
X153805380Y-91439720D02*
X152969720Y-90873300D01*
X154160980Y-89080060D02*
X153754580Y-89991920D01*
X155174440Y-88909880D02*
X154160980Y-89080060D01*
X155174440Y-88074220D02*
X155174440Y-88909880D01*
X154092400Y-87845620D02*
X155174440Y-88074220D01*
X153752040Y-86908360D02*
X154092400Y-87845620D01*
X154369260Y-86118420D02*
X153752040Y-86908360D01*
X153815540Y-85569780D02*
X154369260Y-86115880D01*
X152911300Y-86202240D02*
X153815540Y-85567800D01*
X151996900Y-85757740D02*
X152898600Y-86207320D01*
X151783540Y-84739200D02*
X151996900Y-85757740D01*
X151016460Y-84718880D02*
X151801320Y-84718880D01*
X151024080Y-84731580D02*
X150818340Y-85745040D01*
X149919180Y-86171760D02*
X150765000Y-85765360D01*
X149030180Y-85529140D02*
X149858220Y-86181920D01*
D22*
X148481540Y-86087940D02*
X148981920Y-85554540D01*
D21*
X148491700Y-86110800D02*
X149047960Y-86961700D01*
X148720300Y-87878640D02*
X149068280Y-87012500D01*
X147671280Y-88094540D02*
X148689820Y-87914200D01*
D22*
X147683980Y-88107240D02*
X147678900Y-88894640D01*
D21*
X147673820Y-88884480D02*
X148623780Y-89102920D01*
X148651720Y-89125780D02*
X149009860Y-90009700D01*
X148476460Y-90886000D02*
X149009860Y-90052880D01*
D22*
X148461220Y-90886000D02*
X149025100Y-91424480D01*
D18*
X149037800Y-91424480D02*
X149817580Y-90893620D01*
D21*
X149827740Y-90875840D02*
X150145240Y-91081580D01*
D23*
X150173180Y-91061260D02*
X150724360Y-89638860D01*
D13*
X173505904Y-94178380D02*
X173505904Y-93178380D01*
X173886857Y-93178380D01*
X173982095Y-93226000D01*
X174029714Y-93273619D01*
X174077333Y-93368857D01*
X174077333Y-93511714D01*
X174029714Y-93606952D01*
X173982095Y-93654571D01*
X173886857Y-93702190D01*
X173505904Y-93702190D01*
X174410666Y-93178380D02*
X175029714Y-93178380D01*
X174696380Y-93559333D01*
X174839238Y-93559333D01*
X174934476Y-93606952D01*
X174982095Y-93654571D01*
X175029714Y-93749809D01*
X175029714Y-93987904D01*
X174982095Y-94083142D01*
X174934476Y-94130761D01*
X174839238Y-94178380D01*
X174553523Y-94178380D01*
X174458285Y-94130761D01*
X174410666Y-94083142D01*
X134023809Y-83436190D02*
X134023809Y-83912380D01*
X133690476Y-82912380D02*
X134023809Y-83436190D01*
X134357142Y-82912380D01*
X135214285Y-83912380D02*
X134642857Y-83912380D01*
X134928571Y-83912380D02*
X134928571Y-82912380D01*
X134833333Y-83055238D01*
X134738095Y-83150476D01*
X134642857Y-83198095D01*
D12*
X115379594Y-78255880D02*
X115379594Y-79065404D01*
X115427213Y-79160642D01*
X115474832Y-79208261D01*
X115570070Y-79255880D01*
X115760546Y-79255880D01*
X115855784Y-79208261D01*
X115903403Y-79160642D01*
X115951022Y-79065404D01*
X115951022Y-78255880D01*
X116951022Y-79255880D02*
X116379594Y-79255880D01*
X116665308Y-79255880D02*
X116665308Y-78255880D01*
X116570070Y-78398738D01*
X116474832Y-78493976D01*
X116379594Y-78541595D01*
X108233333Y-83257142D02*
X108185714Y-83304761D01*
X108042857Y-83352380D01*
X107947619Y-83352380D01*
X107804761Y-83304761D01*
X107709523Y-83209523D01*
X107661904Y-83114285D01*
X107614285Y-82923809D01*
X107614285Y-82780952D01*
X107661904Y-82590476D01*
X107709523Y-82495238D01*
X107804761Y-82400000D01*
X107947619Y-82352380D01*
X108042857Y-82352380D01*
X108185714Y-82400000D01*
X108233333Y-82447619D01*
X109185714Y-83352380D02*
X108614285Y-83352380D01*
X108900000Y-83352380D02*
X108900000Y-82352380D01*
X108804761Y-82495238D01*
X108709523Y-82590476D01*
X108614285Y-82638095D01*
X108133333Y-81857142D02*
X108085714Y-81904761D01*
X107942857Y-81952380D01*
X107847619Y-81952380D01*
X107704761Y-81904761D01*
X107609523Y-81809523D01*
X107561904Y-81714285D01*
X107514285Y-81523809D01*
X107514285Y-81380952D01*
X107561904Y-81190476D01*
X107609523Y-81095238D01*
X107704761Y-81000000D01*
X107847619Y-80952380D01*
X107942857Y-80952380D01*
X108085714Y-81000000D01*
X108133333Y-81047619D01*
X108514285Y-81047619D02*
X108561904Y-81000000D01*
X108657142Y-80952380D01*
X108895238Y-80952380D01*
X108990476Y-81000000D01*
X109038095Y-81047619D01*
X109085714Y-81142857D01*
X109085714Y-81238095D01*
X109038095Y-81380952D01*
X108466666Y-81952380D01*
X109085714Y-81952380D01*
X108133333Y-80457142D02*
X108085714Y-80504761D01*
X107942857Y-80552380D01*
X107847619Y-80552380D01*
X107704761Y-80504761D01*
X107609523Y-80409523D01*
X107561904Y-80314285D01*
X107514285Y-80123809D01*
X107514285Y-79980952D01*
X107561904Y-79790476D01*
X107609523Y-79695238D01*
X107704761Y-79600000D01*
X107847619Y-79552380D01*
X107942857Y-79552380D01*
X108085714Y-79600000D01*
X108133333Y-79647619D01*
X108466666Y-79552380D02*
X109085714Y-79552380D01*
X108752380Y-79933333D01*
X108895238Y-79933333D01*
X108990476Y-79980952D01*
X109038095Y-80028571D01*
X109085714Y-80123809D01*
X109085714Y-80361904D01*
X109038095Y-80457142D01*
X108990476Y-80504761D01*
X108895238Y-80552380D01*
X108609523Y-80552380D01*
X108514285Y-80504761D01*
X108466666Y-80457142D01*
X118429610Y-85634687D02*
X118362267Y-85634687D01*
X118227580Y-85567343D01*
X118160236Y-85500000D01*
X118092893Y-85365312D01*
X118092893Y-85230625D01*
X118126564Y-85129610D01*
X118227580Y-84961251D01*
X118328595Y-84860236D01*
X118496954Y-84759221D01*
X118597969Y-84725549D01*
X118732656Y-84725549D01*
X118867343Y-84792893D01*
X118934687Y-84860236D01*
X119002030Y-84994923D01*
X119002030Y-85062267D01*
X119439763Y-85836717D02*
X118968358Y-86308122D01*
X119540778Y-85398984D02*
X118867343Y-85735702D01*
X119305076Y-86173435D01*
D16*
X114532833Y-69097071D02*
X114472357Y-69157547D01*
X114290928Y-69218023D01*
X114169976Y-69218023D01*
X113988547Y-69157547D01*
X113867595Y-69036595D01*
X113807119Y-68915642D01*
X113746642Y-68673738D01*
X113746642Y-68492309D01*
X113807119Y-68250404D01*
X113867595Y-68129452D01*
X113988547Y-68008500D01*
X114169976Y-67948023D01*
X114290928Y-67948023D01*
X114472357Y-68008500D01*
X114532833Y-68068976D01*
X115681880Y-67948023D02*
X115077119Y-67948023D01*
X115016642Y-68552785D01*
X115077119Y-68492309D01*
X115198071Y-68431833D01*
X115500452Y-68431833D01*
X115621404Y-68492309D01*
X115681880Y-68552785D01*
X115742357Y-68673738D01*
X115742357Y-68976119D01*
X115681880Y-69097071D01*
X115621404Y-69157547D01*
X115500452Y-69218023D01*
X115198071Y-69218023D01*
X115077119Y-69157547D01*
X115016642Y-69097071D01*
D12*
X162557142Y-85966666D02*
X162604761Y-86014285D01*
X162652380Y-86157142D01*
X162652380Y-86252380D01*
X162604761Y-86395238D01*
X162509523Y-86490476D01*
X162414285Y-86538095D01*
X162223809Y-86585714D01*
X162080952Y-86585714D01*
X161890476Y-86538095D01*
X161795238Y-86490476D01*
X161700000Y-86395238D01*
X161652380Y-86252380D01*
X161652380Y-86157142D01*
X161700000Y-86014285D01*
X161747619Y-85966666D01*
X161652380Y-85109523D02*
X161652380Y-85300000D01*
X161700000Y-85395238D01*
X161747619Y-85442857D01*
X161890476Y-85538095D01*
X162080952Y-85585714D01*
X162461904Y-85585714D01*
X162557142Y-85538095D01*
X162604761Y-85490476D01*
X162652380Y-85395238D01*
X162652380Y-85204761D01*
X162604761Y-85109523D01*
X162557142Y-85061904D01*
X162461904Y-85014285D01*
X162223809Y-85014285D01*
X162128571Y-85061904D01*
X162080952Y-85109523D01*
X162033333Y-85204761D01*
X162033333Y-85395238D01*
X162080952Y-85490476D01*
X162128571Y-85538095D01*
X162223809Y-85585714D01*
X114633333Y-84557142D02*
X114585714Y-84604761D01*
X114442857Y-84652380D01*
X114347619Y-84652380D01*
X114204761Y-84604761D01*
X114109523Y-84509523D01*
X114061904Y-84414285D01*
X114014285Y-84223809D01*
X114014285Y-84080952D01*
X114061904Y-83890476D01*
X114109523Y-83795238D01*
X114204761Y-83700000D01*
X114347619Y-83652380D01*
X114442857Y-83652380D01*
X114585714Y-83700000D01*
X114633333Y-83747619D01*
X114966666Y-83652380D02*
X115633333Y-83652380D01*
X115204761Y-84652380D01*
X117101687Y-74601890D02*
X117101687Y-74669233D01*
X117034343Y-74803920D01*
X116967000Y-74871264D01*
X116832312Y-74938607D01*
X116697625Y-74938607D01*
X116596610Y-74904936D01*
X116428251Y-74803920D01*
X116327236Y-74702905D01*
X116226221Y-74534546D01*
X116192549Y-74433531D01*
X116192549Y-74298844D01*
X116259893Y-74164157D01*
X116327236Y-74096813D01*
X116461923Y-74029470D01*
X116529267Y-74029470D01*
X117169030Y-73861111D02*
X117068015Y-73894783D01*
X117000671Y-73894783D01*
X116899656Y-73861111D01*
X116865984Y-73827439D01*
X116832312Y-73726424D01*
X116832312Y-73659081D01*
X116865984Y-73558065D01*
X117000671Y-73423378D01*
X117101687Y-73389707D01*
X117169030Y-73389707D01*
X117270045Y-73423378D01*
X117303717Y-73457050D01*
X117337389Y-73558065D01*
X117337389Y-73625409D01*
X117303717Y-73726424D01*
X117169030Y-73861111D01*
X117135358Y-73962126D01*
X117135358Y-74029470D01*
X117169030Y-74130485D01*
X117303717Y-74265172D01*
X117404732Y-74298844D01*
X117472076Y-74298844D01*
X117573091Y-74265172D01*
X117707778Y-74130485D01*
X117741450Y-74029470D01*
X117741450Y-73962126D01*
X117707778Y-73861111D01*
X117573091Y-73726424D01*
X117472076Y-73692752D01*
X117404732Y-73692752D01*
X117303717Y-73726424D01*
D24*
X158750000Y-96728642D02*
X158713714Y-96764928D01*
X158604857Y-96801214D01*
X158532285Y-96801214D01*
X158423428Y-96764928D01*
X158350857Y-96692357D01*
X158314571Y-96619785D01*
X158278285Y-96474642D01*
X158278285Y-96365785D01*
X158314571Y-96220642D01*
X158350857Y-96148071D01*
X158423428Y-96075500D01*
X158532285Y-96039214D01*
X158604857Y-96039214D01*
X158713714Y-96075500D01*
X158750000Y-96111785D01*
X159112857Y-96801214D02*
X159258000Y-96801214D01*
X159330571Y-96764928D01*
X159366857Y-96728642D01*
X159439428Y-96619785D01*
X159475714Y-96474642D01*
X159475714Y-96184357D01*
X159439428Y-96111785D01*
X159403142Y-96075500D01*
X159330571Y-96039214D01*
X159185428Y-96039214D01*
X159112857Y-96075500D01*
X159076571Y-96111785D01*
X159040285Y-96184357D01*
X159040285Y-96365785D01*
X159076571Y-96438357D01*
X159112857Y-96474642D01*
X159185428Y-96510928D01*
X159330571Y-96510928D01*
X159403142Y-96474642D01*
X159439428Y-96438357D01*
X159475714Y-96365785D01*
X143464642Y-89989857D02*
X143500928Y-90026142D01*
X143537214Y-90135000D01*
X143537214Y-90207571D01*
X143500928Y-90316428D01*
X143428357Y-90389000D01*
X143355785Y-90425285D01*
X143210642Y-90461571D01*
X143101785Y-90461571D01*
X142956642Y-90425285D01*
X142884071Y-90389000D01*
X142811500Y-90316428D01*
X142775214Y-90207571D01*
X142775214Y-90135000D01*
X142811500Y-90026142D01*
X142847785Y-89989857D01*
X143537214Y-89264142D02*
X143537214Y-89699571D01*
X143537214Y-89481857D02*
X142775214Y-89481857D01*
X142884071Y-89554428D01*
X142956642Y-89627000D01*
X142992928Y-89699571D01*
X142775214Y-88792428D02*
X142775214Y-88719857D01*
X142811500Y-88647285D01*
X142847785Y-88611000D01*
X142920357Y-88574714D01*
X143065500Y-88538428D01*
X143246928Y-88538428D01*
X143392071Y-88574714D01*
X143464642Y-88611000D01*
X143500928Y-88647285D01*
X143537214Y-88719857D01*
X143537214Y-88792428D01*
X143500928Y-88865000D01*
X143464642Y-88901285D01*
X143392071Y-88937571D01*
X143246928Y-88973857D01*
X143065500Y-88973857D01*
X142920357Y-88937571D01*
X142847785Y-88901285D01*
X142811500Y-88865000D01*
X142775214Y-88792428D01*
D12*
X118357142Y-90142857D02*
X118404761Y-90190476D01*
X118452380Y-90333333D01*
X118452380Y-90428571D01*
X118404761Y-90571428D01*
X118309523Y-90666666D01*
X118214285Y-90714285D01*
X118023809Y-90761904D01*
X117880952Y-90761904D01*
X117690476Y-90714285D01*
X117595238Y-90666666D01*
X117500000Y-90571428D01*
X117452380Y-90428571D01*
X117452380Y-90333333D01*
X117500000Y-90190476D01*
X117547619Y-90142857D01*
X118452380Y-89190476D02*
X118452380Y-89761904D01*
X118452380Y-89476190D02*
X117452380Y-89476190D01*
X117595238Y-89571428D01*
X117690476Y-89666666D01*
X117738095Y-89761904D01*
X118452380Y-88238095D02*
X118452380Y-88809523D01*
X118452380Y-88523809D02*
X117452380Y-88523809D01*
X117595238Y-88619047D01*
X117690476Y-88714285D01*
X117738095Y-88809523D01*
X123657142Y-90142857D02*
X123704761Y-90190476D01*
X123752380Y-90333333D01*
X123752380Y-90428571D01*
X123704761Y-90571428D01*
X123609523Y-90666666D01*
X123514285Y-90714285D01*
X123323809Y-90761904D01*
X123180952Y-90761904D01*
X122990476Y-90714285D01*
X122895238Y-90666666D01*
X122800000Y-90571428D01*
X122752380Y-90428571D01*
X122752380Y-90333333D01*
X122800000Y-90190476D01*
X122847619Y-90142857D01*
X123752380Y-89190476D02*
X123752380Y-89761904D01*
X123752380Y-89476190D02*
X122752380Y-89476190D01*
X122895238Y-89571428D01*
X122990476Y-89666666D01*
X123038095Y-89761904D01*
X122847619Y-88809523D02*
X122800000Y-88761904D01*
X122752380Y-88666666D01*
X122752380Y-88428571D01*
X122800000Y-88333333D01*
X122847619Y-88285714D01*
X122942857Y-88238095D01*
X123038095Y-88238095D01*
X123180952Y-88285714D01*
X123752380Y-88857142D01*
X123752380Y-88238095D01*
D24*
X129240642Y-90024857D02*
X129276928Y-90061142D01*
X129313214Y-90170000D01*
X129313214Y-90242571D01*
X129276928Y-90351428D01*
X129204357Y-90424000D01*
X129131785Y-90460285D01*
X128986642Y-90496571D01*
X128877785Y-90496571D01*
X128732642Y-90460285D01*
X128660071Y-90424000D01*
X128587500Y-90351428D01*
X128551214Y-90242571D01*
X128551214Y-90170000D01*
X128587500Y-90061142D01*
X128623785Y-90024857D01*
X129313214Y-89299142D02*
X129313214Y-89734571D01*
X129313214Y-89516857D02*
X128551214Y-89516857D01*
X128660071Y-89589428D01*
X128732642Y-89662000D01*
X128768928Y-89734571D01*
X128551214Y-89045142D02*
X128551214Y-88573428D01*
X128841500Y-88827428D01*
X128841500Y-88718571D01*
X128877785Y-88646000D01*
X128914071Y-88609714D01*
X128986642Y-88573428D01*
X129168071Y-88573428D01*
X129240642Y-88609714D01*
X129276928Y-88646000D01*
X129313214Y-88718571D01*
X129313214Y-88936285D01*
X129276928Y-89008857D01*
X129240642Y-89045142D01*
X131145642Y-96438357D02*
X131181928Y-96474642D01*
X131218214Y-96583500D01*
X131218214Y-96656071D01*
X131181928Y-96764928D01*
X131109357Y-96837500D01*
X131036785Y-96873785D01*
X130891642Y-96910071D01*
X130782785Y-96910071D01*
X130637642Y-96873785D01*
X130565071Y-96837500D01*
X130492500Y-96764928D01*
X130456214Y-96656071D01*
X130456214Y-96583500D01*
X130492500Y-96474642D01*
X130528785Y-96438357D01*
X131218214Y-95712642D02*
X131218214Y-96148071D01*
X131218214Y-95930357D02*
X130456214Y-95930357D01*
X130565071Y-96002928D01*
X130637642Y-96075500D01*
X130673928Y-96148071D01*
X130710214Y-95059500D02*
X131218214Y-95059500D01*
X130419928Y-95240928D02*
X130964214Y-95422357D01*
X130964214Y-94950642D01*
X132225142Y-96438357D02*
X132261428Y-96474642D01*
X132297714Y-96583500D01*
X132297714Y-96656071D01*
X132261428Y-96764928D01*
X132188857Y-96837500D01*
X132116285Y-96873785D01*
X131971142Y-96910071D01*
X131862285Y-96910071D01*
X131717142Y-96873785D01*
X131644571Y-96837500D01*
X131572000Y-96764928D01*
X131535714Y-96656071D01*
X131535714Y-96583500D01*
X131572000Y-96474642D01*
X131608285Y-96438357D01*
X132297714Y-95712642D02*
X132297714Y-96148071D01*
X132297714Y-95930357D02*
X131535714Y-95930357D01*
X131644571Y-96002928D01*
X131717142Y-96075500D01*
X131753428Y-96148071D01*
X131535714Y-95023214D02*
X131535714Y-95386071D01*
X131898571Y-95422357D01*
X131862285Y-95386071D01*
X131826000Y-95313500D01*
X131826000Y-95132071D01*
X131862285Y-95059500D01*
X131898571Y-95023214D01*
X131971142Y-94986928D01*
X132152571Y-94986928D01*
X132225142Y-95023214D01*
X132261428Y-95059500D01*
X132297714Y-95132071D01*
X132297714Y-95313500D01*
X132261428Y-95386071D01*
X132225142Y-95422357D01*
X133368142Y-96438357D02*
X133404428Y-96474642D01*
X133440714Y-96583500D01*
X133440714Y-96656071D01*
X133404428Y-96764928D01*
X133331857Y-96837500D01*
X133259285Y-96873785D01*
X133114142Y-96910071D01*
X133005285Y-96910071D01*
X132860142Y-96873785D01*
X132787571Y-96837500D01*
X132715000Y-96764928D01*
X132678714Y-96656071D01*
X132678714Y-96583500D01*
X132715000Y-96474642D01*
X132751285Y-96438357D01*
X133440714Y-95712642D02*
X133440714Y-96148071D01*
X133440714Y-95930357D02*
X132678714Y-95930357D01*
X132787571Y-96002928D01*
X132860142Y-96075500D01*
X132896428Y-96148071D01*
X132678714Y-95059500D02*
X132678714Y-95204642D01*
X132715000Y-95277214D01*
X132751285Y-95313500D01*
X132860142Y-95386071D01*
X133005285Y-95422357D01*
X133295571Y-95422357D01*
X133368142Y-95386071D01*
X133404428Y-95349785D01*
X133440714Y-95277214D01*
X133440714Y-95132071D01*
X133404428Y-95059500D01*
X133368142Y-95023214D01*
X133295571Y-94986928D01*
X133114142Y-94986928D01*
X133041571Y-95023214D01*
X133005285Y-95059500D01*
X132969000Y-95132071D01*
X132969000Y-95277214D01*
X133005285Y-95349785D01*
X133041571Y-95386071D01*
X133114142Y-95422357D01*
X134511142Y-96438357D02*
X134547428Y-96474642D01*
X134583714Y-96583500D01*
X134583714Y-96656071D01*
X134547428Y-96764928D01*
X134474857Y-96837500D01*
X134402285Y-96873785D01*
X134257142Y-96910071D01*
X134148285Y-96910071D01*
X134003142Y-96873785D01*
X133930571Y-96837500D01*
X133858000Y-96764928D01*
X133821714Y-96656071D01*
X133821714Y-96583500D01*
X133858000Y-96474642D01*
X133894285Y-96438357D01*
X134583714Y-95712642D02*
X134583714Y-96148071D01*
X134583714Y-95930357D02*
X133821714Y-95930357D01*
X133930571Y-96002928D01*
X134003142Y-96075500D01*
X134039428Y-96148071D01*
X133821714Y-95458642D02*
X133821714Y-94950642D01*
X134583714Y-95277214D01*
X135654142Y-96438357D02*
X135690428Y-96474642D01*
X135726714Y-96583500D01*
X135726714Y-96656071D01*
X135690428Y-96764928D01*
X135617857Y-96837500D01*
X135545285Y-96873785D01*
X135400142Y-96910071D01*
X135291285Y-96910071D01*
X135146142Y-96873785D01*
X135073571Y-96837500D01*
X135001000Y-96764928D01*
X134964714Y-96656071D01*
X134964714Y-96583500D01*
X135001000Y-96474642D01*
X135037285Y-96438357D01*
X135726714Y-95712642D02*
X135726714Y-96148071D01*
X135726714Y-95930357D02*
X134964714Y-95930357D01*
X135073571Y-96002928D01*
X135146142Y-96075500D01*
X135182428Y-96148071D01*
X135291285Y-95277214D02*
X135255000Y-95349785D01*
X135218714Y-95386071D01*
X135146142Y-95422357D01*
X135109857Y-95422357D01*
X135037285Y-95386071D01*
X135001000Y-95349785D01*
X134964714Y-95277214D01*
X134964714Y-95132071D01*
X135001000Y-95059500D01*
X135037285Y-95023214D01*
X135109857Y-94986928D01*
X135146142Y-94986928D01*
X135218714Y-95023214D01*
X135255000Y-95059500D01*
X135291285Y-95132071D01*
X135291285Y-95277214D01*
X135327571Y-95349785D01*
X135363857Y-95386071D01*
X135436428Y-95422357D01*
X135581571Y-95422357D01*
X135654142Y-95386071D01*
X135690428Y-95349785D01*
X135726714Y-95277214D01*
X135726714Y-95132071D01*
X135690428Y-95059500D01*
X135654142Y-95023214D01*
X135581571Y-94986928D01*
X135436428Y-94986928D01*
X135363857Y-95023214D01*
X135327571Y-95059500D01*
X135291285Y-95132071D01*
X136797142Y-96374857D02*
X136833428Y-96411142D01*
X136869714Y-96520000D01*
X136869714Y-96592571D01*
X136833428Y-96701428D01*
X136760857Y-96774000D01*
X136688285Y-96810285D01*
X136543142Y-96846571D01*
X136434285Y-96846571D01*
X136289142Y-96810285D01*
X136216571Y-96774000D01*
X136144000Y-96701428D01*
X136107714Y-96592571D01*
X136107714Y-96520000D01*
X136144000Y-96411142D01*
X136180285Y-96374857D01*
X136869714Y-95649142D02*
X136869714Y-96084571D01*
X136869714Y-95866857D02*
X136107714Y-95866857D01*
X136216571Y-95939428D01*
X136289142Y-96012000D01*
X136325428Y-96084571D01*
X136869714Y-95286285D02*
X136869714Y-95141142D01*
X136833428Y-95068571D01*
X136797142Y-95032285D01*
X136688285Y-94959714D01*
X136543142Y-94923428D01*
X136252857Y-94923428D01*
X136180285Y-94959714D01*
X136144000Y-94996000D01*
X136107714Y-95068571D01*
X136107714Y-95213714D01*
X136144000Y-95286285D01*
X136180285Y-95322571D01*
X136252857Y-95358857D01*
X136434285Y-95358857D01*
X136506857Y-95322571D01*
X136543142Y-95286285D01*
X136579428Y-95213714D01*
X136579428Y-95068571D01*
X136543142Y-94996000D01*
X136506857Y-94959714D01*
X136434285Y-94923428D01*
X137876642Y-96374857D02*
X137912928Y-96411142D01*
X137949214Y-96520000D01*
X137949214Y-96592571D01*
X137912928Y-96701428D01*
X137840357Y-96774000D01*
X137767785Y-96810285D01*
X137622642Y-96846571D01*
X137513785Y-96846571D01*
X137368642Y-96810285D01*
X137296071Y-96774000D01*
X137223500Y-96701428D01*
X137187214Y-96592571D01*
X137187214Y-96520000D01*
X137223500Y-96411142D01*
X137259785Y-96374857D01*
X137259785Y-96084571D02*
X137223500Y-96048285D01*
X137187214Y-95975714D01*
X137187214Y-95794285D01*
X137223500Y-95721714D01*
X137259785Y-95685428D01*
X137332357Y-95649142D01*
X137404928Y-95649142D01*
X137513785Y-95685428D01*
X137949214Y-96120857D01*
X137949214Y-95649142D01*
X137187214Y-95177428D02*
X137187214Y-95104857D01*
X137223500Y-95032285D01*
X137259785Y-94996000D01*
X137332357Y-94959714D01*
X137477500Y-94923428D01*
X137658928Y-94923428D01*
X137804071Y-94959714D01*
X137876642Y-94996000D01*
X137912928Y-95032285D01*
X137949214Y-95104857D01*
X137949214Y-95177428D01*
X137912928Y-95250000D01*
X137876642Y-95286285D01*
X137804071Y-95322571D01*
X137658928Y-95358857D01*
X137477500Y-95358857D01*
X137332357Y-95322571D01*
X137259785Y-95286285D01*
X137223500Y-95250000D01*
X137187214Y-95177428D01*
X139019642Y-96311357D02*
X139055928Y-96347642D01*
X139092214Y-96456500D01*
X139092214Y-96529071D01*
X139055928Y-96637928D01*
X138983357Y-96710500D01*
X138910785Y-96746785D01*
X138765642Y-96783071D01*
X138656785Y-96783071D01*
X138511642Y-96746785D01*
X138439071Y-96710500D01*
X138366500Y-96637928D01*
X138330214Y-96529071D01*
X138330214Y-96456500D01*
X138366500Y-96347642D01*
X138402785Y-96311357D01*
X138402785Y-96021071D02*
X138366500Y-95984785D01*
X138330214Y-95912214D01*
X138330214Y-95730785D01*
X138366500Y-95658214D01*
X138402785Y-95621928D01*
X138475357Y-95585642D01*
X138547928Y-95585642D01*
X138656785Y-95621928D01*
X139092214Y-96057357D01*
X139092214Y-95585642D01*
X139092214Y-94859928D02*
X139092214Y-95295357D01*
X139092214Y-95077642D02*
X138330214Y-95077642D01*
X138439071Y-95150214D01*
X138511642Y-95222785D01*
X138547928Y-95295357D01*
X140162642Y-96374857D02*
X140198928Y-96411142D01*
X140235214Y-96520000D01*
X140235214Y-96592571D01*
X140198928Y-96701428D01*
X140126357Y-96774000D01*
X140053785Y-96810285D01*
X139908642Y-96846571D01*
X139799785Y-96846571D01*
X139654642Y-96810285D01*
X139582071Y-96774000D01*
X139509500Y-96701428D01*
X139473214Y-96592571D01*
X139473214Y-96520000D01*
X139509500Y-96411142D01*
X139545785Y-96374857D01*
X139545785Y-96084571D02*
X139509500Y-96048285D01*
X139473214Y-95975714D01*
X139473214Y-95794285D01*
X139509500Y-95721714D01*
X139545785Y-95685428D01*
X139618357Y-95649142D01*
X139690928Y-95649142D01*
X139799785Y-95685428D01*
X140235214Y-96120857D01*
X140235214Y-95649142D01*
X139545785Y-95358857D02*
X139509500Y-95322571D01*
X139473214Y-95250000D01*
X139473214Y-95068571D01*
X139509500Y-94996000D01*
X139545785Y-94959714D01*
X139618357Y-94923428D01*
X139690928Y-94923428D01*
X139799785Y-94959714D01*
X140235214Y-95395142D01*
X140235214Y-94923428D01*
X141305642Y-96374857D02*
X141341928Y-96411142D01*
X141378214Y-96520000D01*
X141378214Y-96592571D01*
X141341928Y-96701428D01*
X141269357Y-96774000D01*
X141196785Y-96810285D01*
X141051642Y-96846571D01*
X140942785Y-96846571D01*
X140797642Y-96810285D01*
X140725071Y-96774000D01*
X140652500Y-96701428D01*
X140616214Y-96592571D01*
X140616214Y-96520000D01*
X140652500Y-96411142D01*
X140688785Y-96374857D01*
X140688785Y-96084571D02*
X140652500Y-96048285D01*
X140616214Y-95975714D01*
X140616214Y-95794285D01*
X140652500Y-95721714D01*
X140688785Y-95685428D01*
X140761357Y-95649142D01*
X140833928Y-95649142D01*
X140942785Y-95685428D01*
X141378214Y-96120857D01*
X141378214Y-95649142D01*
X140616214Y-95395142D02*
X140616214Y-94923428D01*
X140906500Y-95177428D01*
X140906500Y-95068571D01*
X140942785Y-94996000D01*
X140979071Y-94959714D01*
X141051642Y-94923428D01*
X141233071Y-94923428D01*
X141305642Y-94959714D01*
X141341928Y-94996000D01*
X141378214Y-95068571D01*
X141378214Y-95286285D01*
X141341928Y-95358857D01*
X141305642Y-95395142D01*
X142512142Y-96311357D02*
X142548428Y-96347642D01*
X142584714Y-96456500D01*
X142584714Y-96529071D01*
X142548428Y-96637928D01*
X142475857Y-96710500D01*
X142403285Y-96746785D01*
X142258142Y-96783071D01*
X142149285Y-96783071D01*
X142004142Y-96746785D01*
X141931571Y-96710500D01*
X141859000Y-96637928D01*
X141822714Y-96529071D01*
X141822714Y-96456500D01*
X141859000Y-96347642D01*
X141895285Y-96311357D01*
X141895285Y-96021071D02*
X141859000Y-95984785D01*
X141822714Y-95912214D01*
X141822714Y-95730785D01*
X141859000Y-95658214D01*
X141895285Y-95621928D01*
X141967857Y-95585642D01*
X142040428Y-95585642D01*
X142149285Y-95621928D01*
X142584714Y-96057357D01*
X142584714Y-95585642D01*
X142076714Y-94932500D02*
X142584714Y-94932500D01*
X141786428Y-95113928D02*
X142330714Y-95295357D01*
X142330714Y-94823642D01*
D12*
X117057142Y-90142857D02*
X117104761Y-90190476D01*
X117152380Y-90333333D01*
X117152380Y-90428571D01*
X117104761Y-90571428D01*
X117009523Y-90666666D01*
X116914285Y-90714285D01*
X116723809Y-90761904D01*
X116580952Y-90761904D01*
X116390476Y-90714285D01*
X116295238Y-90666666D01*
X116200000Y-90571428D01*
X116152380Y-90428571D01*
X116152380Y-90333333D01*
X116200000Y-90190476D01*
X116247619Y-90142857D01*
X116247619Y-89761904D02*
X116200000Y-89714285D01*
X116152380Y-89619047D01*
X116152380Y-89380952D01*
X116200000Y-89285714D01*
X116247619Y-89238095D01*
X116342857Y-89190476D01*
X116438095Y-89190476D01*
X116580952Y-89238095D01*
X117152380Y-89809523D01*
X117152380Y-89190476D01*
X116152380Y-88285714D02*
X116152380Y-88761904D01*
X116628571Y-88809523D01*
X116580952Y-88761904D01*
X116533333Y-88666666D01*
X116533333Y-88428571D01*
X116580952Y-88333333D01*
X116628571Y-88285714D01*
X116723809Y-88238095D01*
X116961904Y-88238095D01*
X117057142Y-88285714D01*
X117104761Y-88333333D01*
X117152380Y-88428571D01*
X117152380Y-88666666D01*
X117104761Y-88761904D01*
X117057142Y-88809523D01*
D24*
X139273642Y-85833857D02*
X139309928Y-85870142D01*
X139346214Y-85979000D01*
X139346214Y-86051571D01*
X139309928Y-86160428D01*
X139237357Y-86233000D01*
X139164785Y-86269285D01*
X139019642Y-86305571D01*
X138910785Y-86305571D01*
X138765642Y-86269285D01*
X138693071Y-86233000D01*
X138620500Y-86160428D01*
X138584214Y-86051571D01*
X138584214Y-85979000D01*
X138620500Y-85870142D01*
X138656785Y-85833857D01*
X138656785Y-85543571D02*
X138620500Y-85507285D01*
X138584214Y-85434714D01*
X138584214Y-85253285D01*
X138620500Y-85180714D01*
X138656785Y-85144428D01*
X138729357Y-85108142D01*
X138801928Y-85108142D01*
X138910785Y-85144428D01*
X139346214Y-85579857D01*
X139346214Y-85108142D01*
X138584214Y-84455000D02*
X138584214Y-84600142D01*
X138620500Y-84672714D01*
X138656785Y-84709000D01*
X138765642Y-84781571D01*
X138910785Y-84817857D01*
X139201071Y-84817857D01*
X139273642Y-84781571D01*
X139309928Y-84745285D01*
X139346214Y-84672714D01*
X139346214Y-84527571D01*
X139309928Y-84455000D01*
X139273642Y-84418714D01*
X139201071Y-84382428D01*
X139019642Y-84382428D01*
X138947071Y-84418714D01*
X138910785Y-84455000D01*
X138874500Y-84527571D01*
X138874500Y-84672714D01*
X138910785Y-84745285D01*
X138947071Y-84781571D01*
X139019642Y-84817857D01*
X130510642Y-85897357D02*
X130546928Y-85933642D01*
X130583214Y-86042500D01*
X130583214Y-86115071D01*
X130546928Y-86223928D01*
X130474357Y-86296500D01*
X130401785Y-86332785D01*
X130256642Y-86369071D01*
X130147785Y-86369071D01*
X130002642Y-86332785D01*
X129930071Y-86296500D01*
X129857500Y-86223928D01*
X129821214Y-86115071D01*
X129821214Y-86042500D01*
X129857500Y-85933642D01*
X129893785Y-85897357D01*
X129893785Y-85607071D02*
X129857500Y-85570785D01*
X129821214Y-85498214D01*
X129821214Y-85316785D01*
X129857500Y-85244214D01*
X129893785Y-85207928D01*
X129966357Y-85171642D01*
X130038928Y-85171642D01*
X130147785Y-85207928D01*
X130583214Y-85643357D01*
X130583214Y-85171642D01*
X129821214Y-84917642D02*
X129821214Y-84409642D01*
X130583214Y-84736214D01*
D16*
X109096023Y-75885523D02*
X107826023Y-75885523D01*
X108975071Y-74555047D02*
X109035547Y-74615523D01*
X109096023Y-74796952D01*
X109096023Y-74917904D01*
X109035547Y-75099333D01*
X108914595Y-75220285D01*
X108793642Y-75280761D01*
X108551738Y-75341238D01*
X108370309Y-75341238D01*
X108128404Y-75280761D01*
X108007452Y-75220285D01*
X107886500Y-75099333D01*
X107826023Y-74917904D01*
X107826023Y-74796952D01*
X107886500Y-74615523D01*
X107946976Y-74555047D01*
X109035547Y-74071238D02*
X109096023Y-73889809D01*
X109096023Y-73587428D01*
X109035547Y-73466476D01*
X108975071Y-73406000D01*
X108854119Y-73345523D01*
X108733166Y-73345523D01*
X108612214Y-73406000D01*
X108551738Y-73466476D01*
X108491261Y-73587428D01*
X108430785Y-73829333D01*
X108370309Y-73950285D01*
X108309833Y-74010761D01*
X108188880Y-74071238D01*
X108067928Y-74071238D01*
X107946976Y-74010761D01*
X107886500Y-73950285D01*
X107826023Y-73829333D01*
X107826023Y-73526952D01*
X107886500Y-73345523D01*
X109096023Y-72801238D02*
X107826023Y-72801238D01*
X107826023Y-72317428D01*
X107886500Y-72196476D01*
X107946976Y-72136000D01*
X108067928Y-72075523D01*
X108249357Y-72075523D01*
X108370309Y-72136000D01*
X108430785Y-72196476D01*
X108491261Y-72317428D01*
X108491261Y-72801238D01*
X107826023Y-71289333D02*
X107826023Y-71168380D01*
X107886500Y-71047428D01*
X107946976Y-70986952D01*
X108067928Y-70926476D01*
X108309833Y-70866000D01*
X108612214Y-70866000D01*
X108854119Y-70926476D01*
X108975071Y-70986952D01*
X109035547Y-71047428D01*
X109096023Y-71168380D01*
X109096023Y-71289333D01*
X109035547Y-71410285D01*
X108975071Y-71470761D01*
X108854119Y-71531238D01*
X108612214Y-71591714D01*
X108309833Y-71591714D01*
X108067928Y-71531238D01*
X107946976Y-71470761D01*
X107886500Y-71410285D01*
X107826023Y-71289333D01*
D12*
X157333333Y-85452380D02*
X156857142Y-85452380D01*
X156857142Y-84452380D01*
X158190476Y-85452380D02*
X157619047Y-85452380D01*
X157904761Y-85452380D02*
X157904761Y-84452380D01*
X157809523Y-84595238D01*
X157714285Y-84690476D01*
X157619047Y-84738095D01*
X114052380Y-79097166D02*
X113576190Y-79430500D01*
X114052380Y-79668595D02*
X113052380Y-79668595D01*
X113052380Y-79287642D01*
X113100000Y-79192404D01*
X113147619Y-79144785D01*
X113242857Y-79097166D01*
X113385714Y-79097166D01*
X113480952Y-79144785D01*
X113528571Y-79192404D01*
X113576190Y-79287642D01*
X113576190Y-79668595D01*
X114052380Y-78144785D02*
X114052380Y-78716214D01*
X114052380Y-78430500D02*
X113052380Y-78430500D01*
X113195238Y-78525738D01*
X113290476Y-78620976D01*
X113338095Y-78716214D01*
X157133333Y-90552380D02*
X156800000Y-90076190D01*
X156561904Y-90552380D02*
X156561904Y-89552380D01*
X156942857Y-89552380D01*
X157038095Y-89600000D01*
X157085714Y-89647619D01*
X157133333Y-89742857D01*
X157133333Y-89885714D01*
X157085714Y-89980952D01*
X157038095Y-90028571D01*
X156942857Y-90076190D01*
X156561904Y-90076190D01*
X157514285Y-89647619D02*
X157561904Y-89600000D01*
X157657142Y-89552380D01*
X157895238Y-89552380D01*
X157990476Y-89600000D01*
X158038095Y-89647619D01*
X158085714Y-89742857D01*
X158085714Y-89838095D01*
X158038095Y-89980952D01*
X157466666Y-90552380D01*
X158085714Y-90552380D01*
X157133333Y-89252380D02*
X156800000Y-88776190D01*
X156561904Y-89252380D02*
X156561904Y-88252380D01*
X156942857Y-88252380D01*
X157038095Y-88300000D01*
X157085714Y-88347619D01*
X157133333Y-88442857D01*
X157133333Y-88585714D01*
X157085714Y-88680952D01*
X157038095Y-88728571D01*
X156942857Y-88776190D01*
X156561904Y-88776190D01*
X157466666Y-88252380D02*
X158085714Y-88252380D01*
X157752380Y-88633333D01*
X157895238Y-88633333D01*
X157990476Y-88680952D01*
X158038095Y-88728571D01*
X158085714Y-88823809D01*
X158085714Y-89061904D01*
X158038095Y-89157142D01*
X157990476Y-89204761D01*
X157895238Y-89252380D01*
X157609523Y-89252380D01*
X157514285Y-89204761D01*
X157466666Y-89157142D01*
D25*
X160366666Y-99461904D02*
X160100000Y-99080952D01*
X159909523Y-99461904D02*
X159909523Y-98661904D01*
X160214285Y-98661904D01*
X160290476Y-98700000D01*
X160328571Y-98738095D01*
X160366666Y-98814285D01*
X160366666Y-98928571D01*
X160328571Y-99004761D01*
X160290476Y-99042857D01*
X160214285Y-99080952D01*
X159909523Y-99080952D01*
X161052380Y-98928571D02*
X161052380Y-99461904D01*
X160861904Y-98623809D02*
X160671428Y-99195238D01*
X161166666Y-99195238D01*
D24*
X164492214Y-96520000D02*
X164129357Y-96774000D01*
X164492214Y-96955428D02*
X163730214Y-96955428D01*
X163730214Y-96665142D01*
X163766500Y-96592571D01*
X163802785Y-96556285D01*
X163875357Y-96520000D01*
X163984214Y-96520000D01*
X164056785Y-96556285D01*
X164093071Y-96592571D01*
X164129357Y-96665142D01*
X164129357Y-96955428D01*
X163730214Y-95830571D02*
X163730214Y-96193428D01*
X164093071Y-96229714D01*
X164056785Y-96193428D01*
X164020500Y-96120857D01*
X164020500Y-95939428D01*
X164056785Y-95866857D01*
X164093071Y-95830571D01*
X164165642Y-95794285D01*
X164347071Y-95794285D01*
X164419642Y-95830571D01*
X164455928Y-95866857D01*
X164492214Y-95939428D01*
X164492214Y-96120857D01*
X164455928Y-96193428D01*
X164419642Y-96229714D01*
D25*
X162466666Y-99461904D02*
X162200000Y-99080952D01*
X162009523Y-99461904D02*
X162009523Y-98661904D01*
X162314285Y-98661904D01*
X162390476Y-98700000D01*
X162428571Y-98738095D01*
X162466666Y-98814285D01*
X162466666Y-98928571D01*
X162428571Y-99004761D01*
X162390476Y-99042857D01*
X162314285Y-99080952D01*
X162009523Y-99080952D01*
X163152380Y-98661904D02*
X163000000Y-98661904D01*
X162923809Y-98700000D01*
X162885714Y-98738095D01*
X162809523Y-98852380D01*
X162771428Y-99004761D01*
X162771428Y-99309523D01*
X162809523Y-99385714D01*
X162847619Y-99423809D01*
X162923809Y-99461904D01*
X163076190Y-99461904D01*
X163152380Y-99423809D01*
X163190476Y-99385714D01*
X163228571Y-99309523D01*
X163228571Y-99119047D01*
X163190476Y-99042857D01*
X163152380Y-99004761D01*
X163076190Y-98966666D01*
X162923809Y-98966666D01*
X162847619Y-99004761D01*
X162809523Y-99042857D01*
X162771428Y-99119047D01*
D24*
X158686500Y-95594714D02*
X158432500Y-95231857D01*
X158251071Y-95594714D02*
X158251071Y-94832714D01*
X158541357Y-94832714D01*
X158613928Y-94869000D01*
X158650214Y-94905285D01*
X158686500Y-94977857D01*
X158686500Y-95086714D01*
X158650214Y-95159285D01*
X158613928Y-95195571D01*
X158541357Y-95231857D01*
X158251071Y-95231857D01*
X158940500Y-94832714D02*
X159448500Y-94832714D01*
X159121928Y-95594714D01*
D12*
X114053880Y-81446666D02*
X113577690Y-81780000D01*
X114053880Y-82018095D02*
X113053880Y-82018095D01*
X113053880Y-81637142D01*
X113101500Y-81541904D01*
X113149119Y-81494285D01*
X113244357Y-81446666D01*
X113387214Y-81446666D01*
X113482452Y-81494285D01*
X113530071Y-81541904D01*
X113577690Y-81637142D01*
X113577690Y-82018095D01*
X113482452Y-80875238D02*
X113434833Y-80970476D01*
X113387214Y-81018095D01*
X113291976Y-81065714D01*
X113244357Y-81065714D01*
X113149119Y-81018095D01*
X113101500Y-80970476D01*
X113053880Y-80875238D01*
X113053880Y-80684761D01*
X113101500Y-80589523D01*
X113149119Y-80541904D01*
X113244357Y-80494285D01*
X113291976Y-80494285D01*
X113387214Y-80541904D01*
X113434833Y-80589523D01*
X113482452Y-80684761D01*
X113482452Y-80875238D01*
X113530071Y-80970476D01*
X113577690Y-81018095D01*
X113672928Y-81065714D01*
X113863404Y-81065714D01*
X113958642Y-81018095D01*
X114006261Y-80970476D01*
X114053880Y-80875238D01*
X114053880Y-80684761D01*
X114006261Y-80589523D01*
X113958642Y-80541904D01*
X113863404Y-80494285D01*
X113672928Y-80494285D01*
X113577690Y-80541904D01*
X113530071Y-80589523D01*
X113482452Y-80684761D01*
D24*
X163004500Y-94515214D02*
X162750500Y-94152357D01*
X162569071Y-94515214D02*
X162569071Y-93753214D01*
X162859357Y-93753214D01*
X162931928Y-93789500D01*
X162968214Y-93825785D01*
X163004500Y-93898357D01*
X163004500Y-94007214D01*
X162968214Y-94079785D01*
X162931928Y-94116071D01*
X162859357Y-94152357D01*
X162569071Y-94152357D01*
X163367357Y-94515214D02*
X163512500Y-94515214D01*
X163585071Y-94478928D01*
X163621357Y-94442642D01*
X163693928Y-94333785D01*
X163730214Y-94188642D01*
X163730214Y-93898357D01*
X163693928Y-93825785D01*
X163657642Y-93789500D01*
X163585071Y-93753214D01*
X163439928Y-93753214D01*
X163367357Y-93789500D01*
X163331071Y-93825785D01*
X163294785Y-93898357D01*
X163294785Y-94079785D01*
X163331071Y-94152357D01*
X163367357Y-94188642D01*
X163439928Y-94224928D01*
X163585071Y-94224928D01*
X163657642Y-94188642D01*
X163693928Y-94152357D01*
X163730214Y-94079785D01*
D12*
X159857142Y-92555380D02*
X159523809Y-92079190D01*
X159285714Y-92555380D02*
X159285714Y-91555380D01*
X159666666Y-91555380D01*
X159761904Y-91603000D01*
X159809523Y-91650619D01*
X159857142Y-91745857D01*
X159857142Y-91888714D01*
X159809523Y-91983952D01*
X159761904Y-92031571D01*
X159666666Y-92079190D01*
X159285714Y-92079190D01*
X160809523Y-92555380D02*
X160238095Y-92555380D01*
X160523809Y-92555380D02*
X160523809Y-91555380D01*
X160428571Y-91698238D01*
X160333333Y-91793476D01*
X160238095Y-91841095D01*
X161428571Y-91555380D02*
X161523809Y-91555380D01*
X161619047Y-91603000D01*
X161666666Y-91650619D01*
X161714285Y-91745857D01*
X161761904Y-91936333D01*
X161761904Y-92174428D01*
X161714285Y-92364904D01*
X161666666Y-92460142D01*
X161619047Y-92507761D01*
X161523809Y-92555380D01*
X161428571Y-92555380D01*
X161333333Y-92507761D01*
X161285714Y-92460142D01*
X161238095Y-92364904D01*
X161190476Y-92174428D01*
X161190476Y-91936333D01*
X161238095Y-91745857D01*
X161285714Y-91650619D01*
X161333333Y-91603000D01*
X161428571Y-91555380D01*
D16*
X114315019Y-91766933D02*
X113791209Y-92133600D01*
X114315019Y-92395504D02*
X113215019Y-92395504D01*
X113215019Y-91976457D01*
X113267400Y-91871695D01*
X113319780Y-91819314D01*
X113424542Y-91766933D01*
X113581685Y-91766933D01*
X113686447Y-91819314D01*
X113738828Y-91871695D01*
X113791209Y-91976457D01*
X113791209Y-92395504D01*
X114315019Y-91295504D02*
X113215019Y-91295504D01*
X113215019Y-90876457D01*
X113267400Y-90771695D01*
X113319780Y-90719314D01*
X113424542Y-90666933D01*
X113581685Y-90666933D01*
X113686447Y-90719314D01*
X113738828Y-90771695D01*
X113791209Y-90876457D01*
X113791209Y-91295504D01*
X114315019Y-89619314D02*
X114315019Y-90247885D01*
X114315019Y-89933600D02*
X113215019Y-89933600D01*
X113372161Y-90038361D01*
X113476923Y-90143123D01*
X113529304Y-90247885D01*
X114340419Y-87652133D02*
X113816609Y-88018800D01*
X114340419Y-88280704D02*
X113240419Y-88280704D01*
X113240419Y-87861657D01*
X113292800Y-87756895D01*
X113345180Y-87704514D01*
X113449942Y-87652133D01*
X113607085Y-87652133D01*
X113711847Y-87704514D01*
X113764228Y-87756895D01*
X113816609Y-87861657D01*
X113816609Y-88280704D01*
X114340419Y-87180704D02*
X113240419Y-87180704D01*
X113240419Y-86761657D01*
X113292800Y-86656895D01*
X113345180Y-86604514D01*
X113449942Y-86552133D01*
X113607085Y-86552133D01*
X113711847Y-86604514D01*
X113764228Y-86656895D01*
X113816609Y-86761657D01*
X113816609Y-87180704D01*
X113345180Y-86133085D02*
X113292800Y-86080704D01*
X113240419Y-85975942D01*
X113240419Y-85714038D01*
X113292800Y-85609276D01*
X113345180Y-85556895D01*
X113449942Y-85504514D01*
X113554704Y-85504514D01*
X113711847Y-85556895D01*
X114340419Y-86185466D01*
X114340419Y-85504514D01*
D13*
D26*
X150769202Y-93319580D02*
X150769202Y-92319580D01*
X151197774Y-93319580D02*
X151197774Y-92795771D01*
X151150155Y-92700533D01*
X151054917Y-92652914D01*
X150912060Y-92652914D01*
X150816821Y-92700533D01*
X150769202Y-92748152D01*
X152102536Y-93319580D02*
X152102536Y-92795771D01*
X152054917Y-92700533D01*
X151959679Y-92652914D01*
X151769202Y-92652914D01*
X151673964Y-92700533D01*
X152102536Y-93271961D02*
X152007298Y-93319580D01*
X151769202Y-93319580D01*
X151673964Y-93271961D01*
X151626345Y-93176723D01*
X151626345Y-93081485D01*
X151673964Y-92986247D01*
X151769202Y-92938628D01*
X152007298Y-92938628D01*
X152102536Y-92891009D01*
X152578726Y-93319580D02*
X152578726Y-92652914D01*
X152578726Y-92843390D02*
X152626345Y-92748152D01*
X152673964Y-92700533D01*
X152769202Y-92652914D01*
X152864440Y-92652914D01*
X153626345Y-93319580D02*
X153626345Y-92319580D01*
X153626345Y-93271961D02*
X153531107Y-93319580D01*
X153340631Y-93319580D01*
X153245393Y-93271961D01*
X153197774Y-93224342D01*
X153150155Y-93129104D01*
X153150155Y-92843390D01*
X153197774Y-92748152D01*
X153245393Y-92700533D01*
X153340631Y-92652914D01*
X153531107Y-92652914D01*
X153626345Y-92700533D01*
X154007298Y-92652914D02*
X154197774Y-93319580D01*
X154388250Y-92843390D01*
X154578726Y-93319580D01*
X154769202Y-92652914D01*
X155578726Y-93319580D02*
X155578726Y-92795771D01*
X155531107Y-92700533D01*
X155435869Y-92652914D01*
X155245393Y-92652914D01*
X155150155Y-92700533D01*
X155578726Y-93271961D02*
X155483488Y-93319580D01*
X155245393Y-93319580D01*
X155150155Y-93271961D01*
X155102536Y-93176723D01*
X155102536Y-93081485D01*
X155150155Y-92986247D01*
X155245393Y-92938628D01*
X155483488Y-92938628D01*
X155578726Y-92891009D01*
X156054917Y-93319580D02*
X156054917Y-92652914D01*
X156054917Y-92843390D02*
X156102536Y-92748152D01*
X156150155Y-92700533D01*
X156245393Y-92652914D01*
X156340631Y-92652914D01*
X157054917Y-93271961D02*
X156959679Y-93319580D01*
X156769202Y-93319580D01*
X156673964Y-93271961D01*
X156626345Y-93176723D01*
X156626345Y-92795771D01*
X156673964Y-92700533D01*
X156769202Y-92652914D01*
X156959679Y-92652914D01*
X157054917Y-92700533D01*
X157102536Y-92795771D01*
X157102536Y-92891009D01*
X156626345Y-92986247D01*
D16*
X146453701Y-93273379D02*
X146348940Y-93220998D01*
X146296559Y-93168617D01*
X146244178Y-93063855D01*
X146244178Y-92749569D01*
X146296559Y-92644807D01*
X146348940Y-92592426D01*
X146453701Y-92540045D01*
X146610844Y-92540045D01*
X146715606Y-92592426D01*
X146767987Y-92644807D01*
X146820368Y-92749569D01*
X146820368Y-93063855D01*
X146767987Y-93168617D01*
X146715606Y-93220998D01*
X146610844Y-93273379D01*
X146453701Y-93273379D01*
X147291797Y-92540045D02*
X147291797Y-93640045D01*
X147291797Y-92592426D02*
X147396559Y-92540045D01*
X147606082Y-92540045D01*
X147710844Y-92592426D01*
X147763225Y-92644807D01*
X147815606Y-92749569D01*
X147815606Y-93063855D01*
X147763225Y-93168617D01*
X147710844Y-93220998D01*
X147606082Y-93273379D01*
X147396559Y-93273379D01*
X147291797Y-93220998D01*
X148706082Y-93220998D02*
X148601320Y-93273379D01*
X148391797Y-93273379D01*
X148287035Y-93220998D01*
X148234654Y-93116236D01*
X148234654Y-92697188D01*
X148287035Y-92592426D01*
X148391797Y-92540045D01*
X148601320Y-92540045D01*
X148706082Y-92592426D01*
X148758463Y-92697188D01*
X148758463Y-92801950D01*
X148234654Y-92906712D01*
X149229892Y-92540045D02*
X149229892Y-93273379D01*
X149229892Y-92644807D02*
X149282273Y-92592426D01*
X149387035Y-92540045D01*
X149544178Y-92540045D01*
X149648940Y-92592426D01*
X149701320Y-92697188D01*
X149701320Y-93273379D01*
D13*
X145692904Y-99385380D02*
X145692904Y-98385380D01*
X146073857Y-98385380D01*
X146169095Y-98433000D01*
X146216714Y-98480619D01*
X146264333Y-98575857D01*
X146264333Y-98718714D01*
X146216714Y-98813952D01*
X146169095Y-98861571D01*
X146073857Y-98909190D01*
X145692904Y-98909190D01*
X147216714Y-99385380D02*
X146645285Y-99385380D01*
X146931000Y-99385380D02*
X146931000Y-98385380D01*
X146835761Y-98528238D01*
X146740523Y-98623476D01*
X146645285Y-98671095D01*
X168981380Y-89892095D02*
X167981380Y-89892095D01*
X167981380Y-89511142D01*
X168029000Y-89415904D01*
X168076619Y-89368285D01*
X168171857Y-89320666D01*
X168314714Y-89320666D01*
X168409952Y-89368285D01*
X168457571Y-89415904D01*
X168505190Y-89511142D01*
X168505190Y-89892095D01*
X168076619Y-88939714D02*
X168029000Y-88892095D01*
X167981380Y-88796857D01*
X167981380Y-88558761D01*
X168029000Y-88463523D01*
X168076619Y-88415904D01*
X168171857Y-88368285D01*
X168267095Y-88368285D01*
X168409952Y-88415904D01*
X168981380Y-88987333D01*
X168981380Y-88368285D01*
M02*
